<?xml version="1.0" encoding="UTF-8"?>
<svg width="480px" height="400px" viewBox="0 0 480 400" version="1.1" xmlns="http://www.w3.org/2000/svg" xmlns:xlink="http://www.w3.org/1999/xlink">
    <!-- Generator: Sketch 63.1 (92452) - https://sketch.com -->
    <title>img/CompromiseAssessment</title>
    <desc>Created with Sketch.</desc>
    <g id="img/CompromiseAssessment" stroke="none" stroke-width="1" fill="none" fill-rule="evenodd">
        <circle id="Oval-Copy-17" fill="#E2E3E6" cx="144" cy="144" r="138"></circle>
        <circle id="Oval-Copy-18" fill="#E2E3E6" cx="320" cy="241" r="147"></circle>
        <path d="M115.7,39 L119.7,39 C120.252285,39 120.7,38.5522847 120.7,38 C120.7,37.4477153 120.252285,37 119.7,37 L115.7,37 C115.147715,37 114.7,37.4477153 114.7,38 C114.7,38.5522847 115.147715,39 115.7,39 Z M129.7,39 L133.7,39 C134.252285,39 134.7,38.5522847 134.7,38 C134.7,37.4477153 134.252285,37 133.7,37 L129.7,37 C129.147715,37 128.7,37.4477153 128.7,38 C128.7,38.5522847 129.147715,39 129.7,39 Z M143.7,39 L147.7,39 C148.252285,39 148.7,38.5522847 148.7,38 C148.7,37.4477153 148.252285,37 147.7,37 L143.7,37 C143.147715,37 142.7,37.4477153 142.7,38 C142.7,38.5522847 143.147715,39 143.7,39 Z M157.7,39 L161.7,39 C162.252285,39 162.7,38.5522847 162.7,38 C162.7,37.4477153 162.252285,37 161.7,37 L157.7,37 C157.147715,37 156.7,37.4477153 156.7,38 C156.7,38.5522847 157.147715,39 157.7,39 Z M171.7,39 L175.7,39 C176.252285,39 176.7,38.5522847 176.7,38 C176.7,37.4477153 176.252285,37 175.7,37 L171.7,37 C171.147715,37 170.7,37.4477153 170.7,38 C170.7,38.5522847 171.147715,39 171.7,39 Z M185.7,39 L189.7,39 C190.252285,39 190.7,38.5522847 190.7,38 C190.7,37.4477153 190.252285,37 189.7,37 L185.7,37 C185.147715,37 184.7,37.4477153 184.7,38 C184.7,38.5522847 185.147715,39 185.7,39 Z M199.7,39 L203.7,39 C204.252285,39 204.7,38.5522847 204.7,38 C204.7,37.4477153 204.252285,37 203.7,37 L199.7,37 C199.147715,37 198.7,37.4477153 198.7,38 C198.7,38.5522847 199.147715,39 199.7,39 Z M213.7,39 L217.7,39 C218.252285,39 218.7,38.5522847 218.7,38 C218.7,37.4477153 218.252285,37 217.7,37 L213.7,37 C213.147715,37 212.7,37.4477153 212.7,38 C212.7,38.5522847 213.147715,39 213.7,39 Z M227.7,39 L231.7,39 C232.252285,39 232.7,38.5522847 232.7,38 C232.7,37.4477153 232.252285,37 231.7,37 L227.7,37 C227.147715,37 226.7,37.4477153 226.7,38 C226.7,38.5522847 227.147715,39 227.7,39 Z M241.7,39 L245.7,39 C246.252285,39 246.7,38.5522847 246.7,38 C246.7,37.4477153 246.252285,37 245.7,37 L241.7,37 C241.147715,37 240.7,37.4477153 240.7,38 C240.7,38.5522847 241.147715,39 241.7,39 Z M255.7,39 L259.7,39 C260.252285,39 260.7,38.5522847 260.7,38 C260.7,37.4477153 260.252285,37 259.7,37 L255.7,37 C255.147715,37 254.7,37.4477153 254.7,38 C254.7,38.5522847 255.147715,39 255.7,39 Z M269.7,39 L273.7,39 C274.252285,39 274.7,38.5522847 274.7,38 C274.7,37.4477153 274.252285,37 273.7,37 L269.7,37 C269.147715,37 268.7,37.4477153 268.7,38 C268.7,38.5522847 269.147715,39 269.7,39 Z M283.618146,39.2065316 C284.931817,39.3070742 286.239242,39.4441721 287.53937,39.6174876 C288.086812,39.6904651 288.589762,39.3058357 288.662739,38.7583937 C288.735717,38.2109517 288.351087,37.7080023 287.803645,37.6350248 C286.466433,37.4567658 285.121776,37.3157637 283.770771,37.2123637 C283.220097,37.1702174 282.739521,37.5824609 282.697375,38.1331351 C282.655228,38.6838094 283.067472,39.1643853 283.618146,39.2065316 Z M297.2049,41.6104267 C298.472344,41.9671334 299.728249,42.3594923 300.971383,42.7869283 C301.493657,42.9665057 302.06262,42.6886951 302.242198,42.1664208 C302.421775,41.6441466 302.143965,41.0751834 301.62169,40.8956059 C300.342754,40.4558595 299.050674,40.0521993 297.746726,39.6852191 C297.215094,39.5355979 296.66283,39.8452784 296.513209,40.3769098 C296.363588,40.9085412 296.673268,41.4608055 297.2049,41.6104267 Z M310.05814,46.6528724 C311.228937,47.2523433 312.38244,47.8847523 313.517338,48.5492507 C313.993937,48.8283058 314.606516,48.6681648 314.885571,48.1915657 C315.164626,47.7149666 315.004485,47.1023879 314.527886,46.8233327 C313.360514,46.1398208 312.173984,45.4893047 310.969644,44.8726588 C310.478051,44.6209539 309.87549,44.8154212 309.623785,45.3070136 C309.37208,45.798606 309.566547,46.4011675 310.05814,46.6528724 Z M321.651212,54.1147667 C322.681885,54.9318412 323.689522,55.7777376 324.672868,56.6513549 C325.085748,57.0181631 325.717811,56.9808143 326.084619,56.567934 C326.451427,56.1550537 326.414078,55.5229913 326.001198,55.156183 C324.989915,54.2577457 323.953642,53.3878105 322.89367,52.5475082 C322.460883,52.204413 321.831907,52.2771222 321.488812,52.7099087 C321.145717,53.1426952 321.218426,53.7716716 321.651212,54.1147667 Z M331.602725,63.7412502 C332.453528,64.7441365 333.276051,65.7706683 334.069222,66.8195774 C334.402334,67.2600937 335.029484,67.3471618 335.47,67.0140495 C335.910517,66.6809372 335.997585,66.0537873 335.664472,65.613271 C334.848739,64.5345247 334.002828,63.4788045 333.127842,62.4474117 C332.770559,62.0262623 332.139514,61.9744888 331.718365,62.3317724 C331.297215,62.689056 331.245442,63.3201007 331.602725,63.7412502 Z M339.412736,75.0174951 C340.051926,76.1663751 340.658636,77.333199 341.232049,78.5166595 C341.472865,79.0136768 342.070997,79.2213689 342.568014,78.980553 C343.065032,78.7397371 343.272724,78.1416051 343.031908,77.6445879 C342.44205,76.4271878 341.817951,75.2269222 341.160453,74.0451358 C340.891944,73.5625169 340.283034,73.3889469 339.800415,73.6574566 C339.317796,73.9259662 339.144226,74.5348762 339.412736,75.0174951 Z M344.900614,87.6997496 C345.299908,88.9511941 345.663941,90.2147549 345.992167,91.4892165 C346.129909,92.0240489 346.675138,92.3459548 347.20997,92.2082133 C347.744802,92.0704718 348.066708,91.525243 347.928967,90.9904105 C347.591289,89.6792526 347.216772,88.3793006 346.805979,87.0918123 C346.638101,86.5656606 346.07548,86.2752217 345.549328,86.4430989 C345.023176,86.6109761 344.732737,87.1735978 344.900614,87.6997496 Z M347.77322,101.22544 C347.917271,102.529306 348.025063,103.839897 348.096281,105.156186 C348.126119,105.707664 348.597368,106.130537 349.148847,106.100699 C349.700325,106.070861 350.123198,105.599611 350.09336,105.048133 C350.020125,103.694563 349.909272,102.346767 349.761125,101.005817 C349.700477,100.456872 349.206305,100.061029 348.657361,100.121676 C348.108416,100.182323 347.712572,100.676495 347.77322,101.22544 Z M347.942318,115.049202 C347.829896,116.36286 347.680864,117.670038 347.495571,118.969672 C347.417618,119.516427 347.797658,120.022854 348.344414,120.100806 C348.89117,120.178759 349.397596,119.798719 349.475549,119.251963 C349.666132,117.915221 349.819413,116.570777 349.935034,115.219738 C349.982127,114.669465 349.574218,114.185204 349.023944,114.138112 C348.473671,114.09102 347.98941,114.498929 347.942318,115.049202 Z M345.41698,128.607708 C345.049169,129.870763 344.645851,131.122044 344.207613,132.360316 C344.023352,132.880957 344.296042,133.452392 344.816682,133.636652 C345.337323,133.820913 345.908758,133.548223 346.093018,133.027583 C346.543878,131.75365 346.958812,130.466328 347.337216,129.166895 C347.491632,128.636636 347.18695,128.081598 346.656692,127.927183 C346.126433,127.772767 345.571395,128.077449 345.41698,128.607708 Z M340.270192,141.3933 C339.660765,142.558624 339.018565,143.706407 338.344453,144.835339 C338.061309,145.30952 338.216174,145.923454 338.690355,146.206598 C339.164536,146.489743 339.77847,146.334877 340.061615,145.860696 C340.755007,144.699475 341.415587,143.518841 342.042468,142.320143 C342.298408,141.830743 342.109152,141.226524 341.619752,140.970583 C341.130351,140.714643 340.526133,140.903899 340.270192,141.3933 Z M332.691293,152.943585 C331.864924,153.967 331.009942,154.967121 330.12746,155.942698 C329.756967,156.352275 329.788651,156.984647 330.198228,157.35514 C330.607805,157.725633 331.240177,157.693949 331.61067,157.284372 C332.51822,156.281083 333.397494,155.252546 334.24735,154.200043 C334.594312,153.77035 334.527244,153.140747 334.097551,152.793786 C333.667858,152.446824 333.038255,152.513892 332.691293,152.943585 Z M322.971249,162.81252 C321.960572,163.654323 320.926498,164.467619 319.870301,165.251345 C319.426782,165.580448 319.334029,166.206782 319.663132,166.650302 C319.992235,167.093821 320.618569,167.186574 321.062089,166.857471 C322.148338,166.051446 323.211822,165.215019 324.251233,164.349283 C324.675599,163.995825 324.73308,163.365274 324.379622,162.940909 C324.026164,162.516544 323.395614,162.459062 322.971249,162.81252 Z M311.626471,170.518791 C310.471756,171.147558 309.299362,171.743676 308.110597,172.306341 C307.611406,172.542618 307.398272,173.138832 307.634548,173.638023 C307.870825,174.137214 308.467039,174.350349 308.966231,174.114072 C310.189101,173.535265 311.395109,172.922054 312.582912,172.275271 C313.06795,172.011157 313.247045,171.403849 312.982931,170.918811 C312.718818,170.433772 312.11151,170.254677 311.626471,170.518791 Z M298.897399,175.889946 C297.642541,176.277783 296.375828,176.630279 295.098468,176.9469 C294.562406,177.079774 294.235558,177.622055 294.368432,178.158117 C294.501307,178.694179 295.043588,179.021028 295.57965,178.888153 C296.893783,178.562417 298.196974,178.19977 299.487972,177.800764 C300.01563,177.637681 300.311176,177.077726 300.148094,176.550068 C299.985012,176.022411 299.425057,175.726864 298.897399,175.889946 Z M285.34796,178.639602 C284.042855,178.771947 282.73125,178.868028 281.414164,178.927538 C280.862442,178.952466 280.435391,179.419934 280.46032,179.971655 C280.485248,180.523377 280.952715,180.950428 281.504437,180.925499 C282.858772,180.864307 284.207559,180.765502 285.549737,180.629397 C286.099204,180.573678 286.499465,180.083078 286.443746,179.533611 C286.388027,178.984144 285.897427,178.583882 285.34796,178.639602 Z M271.425586,179 L267.425586,179 C266.873302,179 266.425586,179.447715 266.425586,180 C266.425586,180.552285 266.873302,181 267.425586,181 L271.425586,181 C271.977871,181 272.425586,180.552285 272.425586,180 C272.425586,179.447715 271.977871,179 271.425586,179 Z M257.425586,179 L253.425586,179 C252.873302,179 252.425586,179.447715 252.425586,180 C252.425586,180.552285 252.873302,181 253.425586,181 L257.425586,181 C257.977871,181 258.425586,180.552285 258.425586,180 C258.425586,179.447715 257.977871,179 257.425586,179 Z M243.425586,179 L239.425586,179 C238.873302,179 238.425586,179.447715 238.425586,180 C238.425586,180.552285 238.873302,181 239.425586,181 L243.425586,181 C243.977871,181 244.425586,180.552285 244.425586,180 C244.425586,179.447715 243.977871,179 243.425586,179 Z M229.425586,179 L225.425586,179 C224.873302,179 224.425586,179.447715 224.425586,180 C224.425586,180.552285 224.873302,181 225.425586,181 L229.425586,181 C229.977871,181 230.425586,180.552285 230.425586,180 C230.425586,179.447715 229.977871,179 229.425586,179 Z M215.425586,179 L211.425586,179 C210.873302,179 210.425586,179.447715 210.425586,180 C210.425586,180.552285 210.873302,181 211.425586,181 L215.425586,181 C215.977871,181 216.425586,180.552285 216.425586,180 C216.425586,179.447715 215.977871,179 215.425586,179 Z M201.425586,179 L197.425586,179 C196.873302,179 196.425586,179.447715 196.425586,180 C196.425586,180.552285 196.873302,181 197.425586,181 L201.425586,181 C201.977871,181 202.425586,180.552285 202.425586,180 C202.425586,179.447715 201.977871,179 201.425586,179 Z M187.425586,179 L183.425586,179 C182.873302,179 182.425586,179.447715 182.425586,180 C182.425586,180.552285 182.873302,181 183.425586,181 L187.425586,181 C187.977871,181 188.425586,180.552285 188.425586,180 C188.425586,179.447715 187.977871,179 187.425586,179 Z M173.425586,179 L169.425586,179 C168.873302,179 168.425586,179.447715 168.425586,180 C168.425586,180.552285 168.873302,181 169.425586,181 L173.425586,181 C173.977871,181 174.425586,180.552285 174.425586,180 C174.425586,179.447715 173.977871,179 173.425586,179 Z M159.425586,179 L155.425586,179 C154.873302,179 154.425586,179.447715 154.425586,180 C154.425586,180.552285 154.873302,181 155.425586,181 L159.425586,181 C159.977871,181 160.425586,180.552285 160.425586,180 C160.425586,179.447715 159.977871,179 159.425586,179 Z M145.425586,179 L141.425586,179 C140.873302,179 140.425586,179.447715 140.425586,180 C140.425586,180.552285 140.873302,181 141.425586,181 L145.425586,181 C145.977871,181 146.425586,180.552285 146.425586,180 C146.425586,179.447715 145.977871,179 145.425586,179 Z M131.425586,179 L127.425586,179 C126.873302,179 126.425586,179.447715 126.425586,180 C126.425586,180.552285 126.873302,181 127.425586,181 L131.425586,181 C131.977871,181 132.425586,180.552285 132.425586,180 C132.425586,179.447715 131.977871,179 131.425586,179 Z M117.425586,179 L113.425586,179 C112.873302,179 112.425586,179.447715 112.425586,180 C112.425586,180.552285 112.873302,181 113.425586,181 L117.425586,181 C117.977871,181 118.425586,180.552285 118.425586,180 C118.425586,179.447715 117.977871,179 117.425586,179 Z M103.425586,179 L99.4255864,179 C98.8733016,179 98.4255864,179.447715 98.4255864,180 C98.4255864,180.552285 98.8733016,181 99.4255864,181 L103.425586,181 C103.977871,181 104.425586,180.552285 104.425586,180 C104.425586,179.447715 103.977871,179 103.425586,179 Z M89.4255864,179 L85.4255864,179 C84.8733016,179 84.4255864,179.447715 84.4255864,180 C84.4255864,180.552285 84.8733016,181 85.4255864,181 L89.4255864,181 C89.9778711,181 90.4255864,180.552285 90.4255864,180 C90.4255864,179.447715 89.9778711,179 89.4255864,179 Z M75.4255864,179 L71.4255864,179 C70.8733016,179 70.4255864,179.447715 70.4255864,180 C70.4255864,180.552285 70.8733016,181 71.4255864,181 L75.4255864,181 C75.9778711,181 76.4255864,180.552285 76.4255864,180 C76.4255864,179.447715 75.9778711,179 75.4255864,179 Z M61.4255864,179 L57.4255864,179 C56.8733016,179 56.4255864,179.447715 56.4255864,180 C56.4255864,180.552285 56.8733016,181 57.4255864,181 L61.4255864,181 C61.9778711,181 62.4255864,180.552285 62.4255864,180 C62.4255864,179.447715 61.9778711,179 61.4255864,179 Z M47.4255864,179 L43.4255864,179 C42.8733016,179 42.4255864,179.447715 42.4255864,180 C42.4255864,180.552285 42.8733016,181 43.4255864,181 L47.4255864,181 C47.9778711,181 48.4255864,180.552285 48.4255864,180 C48.4255864,179.447715 47.9778711,179 47.4255864,179 Z M33.4255864,179 L30,179 L30,181 L30.5744136,181 C31.1266984,181 31.5744136,180.552285 31.5744136,180 C31.5744136,179.447715 31.1266984,179 30.5744136,179 L30,179 C28.6666667,179 28.6666667,181 30,181 L33.4255864,181 C33.9778711,181 34.4255864,180.552285 34.4255864,180 C34.4255864,179.447715 33.9778711,179 33.4255864,179 Z M40.5744136,181 L44.5744136,181 C45.1266984,181 45.5744136,180.552285 45.5744136,180 C45.5744136,179.447715 45.1266984,179 44.5744136,179 L40.5744136,179 C40.0221289,179 39.5744136,179.447715 39.5744136,180 C39.5744136,180.552285 40.0221289,181 40.5744136,181 Z M54.5744136,181 L58.5744136,181 C59.1266984,181 59.5744136,180.552285 59.5744136,180 C59.5744136,179.447715 59.1266984,179 58.5744136,179 L54.5744136,179 C54.0221289,179 53.5744136,179.447715 53.5744136,180 C53.5744136,180.552285 54.0221289,181 54.5744136,181 Z M68.5744136,181 L72.5744136,181 C73.1266984,181 73.5744136,180.552285 73.5744136,180 C73.5744136,179.447715 73.1266984,179 72.5744136,179 L68.5744136,179 C68.0221289,179 67.5744136,179.447715 67.5744136,180 C67.5744136,180.552285 68.0221289,181 68.5744136,181 Z M82.5744136,181 L86.5744136,181 C87.1266984,181 87.5744136,180.552285 87.5744136,180 C87.5744136,179.447715 87.1266984,179 86.5744136,179 L82.5744136,179 C82.0221289,179 81.5744136,179.447715 81.5744136,180 C81.5744136,180.552285 82.0221289,181 82.5744136,181 Z M96.5744136,181 L100.574414,181 C101.126698,181 101.574414,180.552285 101.574414,180 C101.574414,179.447715 101.126698,179 100.574414,179 L96.5744136,179 C96.0221289,179 95.5744136,179.447715 95.5744136,180 C95.5744136,180.552285 96.0221289,181 96.5744136,181 Z M110.574414,181 L114.574414,181 C115.126698,181 115.574414,180.552285 115.574414,180 C115.574414,179.447715 115.126698,179 114.574414,179 L110.574414,179 C110.022129,179 109.574414,179.447715 109.574414,180 C109.574414,180.552285 110.022129,181 110.574414,181 Z M124.589029,180.995014 C125.963958,180.973449 127.329783,180.881974 128.682904,180.721621 C129.231351,180.656627 129.623267,180.159335 129.558273,179.610888 C129.493279,179.062441 128.995987,178.670525 128.44754,178.735519 C127.162105,178.88785 125.864368,178.974765 124.557663,178.99526 C124.005446,179.003922 123.564808,179.458604 123.573469,180.01082 C123.582131,180.563037 124.036812,181.003676 124.589029,180.995014 Z M138.622351,178.20757 C139.895316,177.70229 141.140333,177.131496 142.352871,176.497808 C142.842342,176.242004 143.031767,175.637838 142.775963,175.148367 C142.520159,174.658895 141.915993,174.46947 141.426521,174.725274 C140.275187,175.326977 139.093079,175.868929 137.88449,176.348656 C137.371165,176.552411 137.120209,177.133719 137.323964,177.647044 C137.527718,178.160369 138.109026,178.411325 138.622351,178.20757 Z M150.745921,170.624209 C151.757191,169.702235 152.720659,168.72884 153.632208,167.708176 C154.000092,167.296254 153.964393,166.664097 153.552471,166.296212 C153.14055,165.928328 152.508392,165.964027 152.140508,166.375948 C151.274518,167.3456 150.359195,168.270353 149.398466,169.14625 C148.990338,169.51834 148.961124,170.15083 149.333214,170.558958 C149.705303,170.967085 150.337794,170.996299 150.745921,170.624209 Z M159.454978,159.184503 C160.073673,157.964187 160.629072,156.712087 161.118615,155.432723 C161.315988,154.916911 161.057842,154.33876 160.54203,154.141386 C160.026218,153.944013 159.448067,154.202159 159.250694,154.717971 C158.785917,155.932612 158.258594,157.121416 157.671143,158.280107 C157.421401,158.772699 157.61827,159.37448 158.110862,159.624222 C158.603454,159.873965 159.205236,159.677096 159.454978,159.184503 Z M163.500899,145.542245 C163.647263,144.188095 163.724785,142.821755 163.732487,141.446783 C163.735558,140.894507 163.290353,140.444296 162.738077,140.441193 C162.185801,140.438122 161.73559,140.883327 161.732502,141.435603 C161.725197,142.742478 161.651533,144.040817 161.51248,145.327326 C161.453132,145.876412 161.850143,146.369646 162.39923,146.428995 C162.948317,146.488343 163.441551,146.091332 163.500899,145.542245 Z M162.464207,131.252217 C162.121164,129.926968 161.710001,128.620572 161.232497,127.338261 C161.039767,126.820696 160.463959,126.557365 159.946394,126.750095 C159.428829,126.942825 159.165498,127.518633 159.358228,128.036198 C159.811731,129.254055 160.202225,130.49478 160.528022,131.753403 C160.666421,132.288065 161.212045,132.609301 161.746707,132.470902 C162.28137,132.332504 162.602606,131.78688 162.464207,131.252217 Z M156.420764,118.234681 C155.63065,117.118593 154.782831,116.043081 153.880233,115.012447 C153.51637,114.596968 152.884589,114.555126 152.469111,114.918989 C152.053633,115.282852 152.01179,115.914633 152.375653,116.330112 C153.23286,117.308916 154.038034,118.33033 154.788406,119.390279 C155.107515,119.841042 155.73162,119.947769 156.182384,119.628659 C156.633147,119.30955 156.739873,118.685445 156.420764,118.234681 Z" id="Rectangle" fill="#24231F" fill-rule="nonzero" transform="translate(189.547423, 109.000000) scale(-1, 1) translate(-189.547423, -109.000000) "></path>
        <path d="M218.7,184 L222.7,184 C223.252285,184 223.7,183.552285 223.7,183 C223.7,182.447715 223.252285,182 222.7,182 L218.7,182 C218.147715,182 217.7,182.447715 217.7,183 C217.7,183.552285 218.147715,184 218.7,184 Z M232.7,184 L236.7,184 C237.252285,184 237.7,183.552285 237.7,183 C237.7,182.447715 237.252285,182 236.7,182 L232.7,182 C232.147715,182 231.7,182.447715 231.7,183 C231.7,183.552285 232.147715,184 232.7,184 Z M246.7,184 L250.7,184 C251.252285,184 251.7,183.552285 251.7,183 C251.7,182.447715 251.252285,182 250.7,182 L246.7,182 C246.147715,182 245.7,182.447715 245.7,183 C245.7,183.552285 246.147715,184 246.7,184 Z M260.7,184 L264.7,184 C265.252285,184 265.7,183.552285 265.7,183 C265.7,182.447715 265.252285,182 264.7,182 L260.7,182 C260.147715,182 259.7,182.447715 259.7,183 C259.7,183.552285 260.147715,184 260.7,184 Z M274.7,184 L278.7,184 C279.252285,184 279.7,183.552285 279.7,183 C279.7,182.447715 279.252285,182 278.7,182 L274.7,182 C274.147715,182 273.7,182.447715 273.7,183 C273.7,183.552285 274.147715,184 274.7,184 Z M288.7,184 L292.7,184 C293.252285,184 293.7,183.552285 293.7,183 C293.7,182.447715 293.252285,182 292.7,182 L288.7,182 C288.147715,182 287.7,182.447715 287.7,183 C287.7,183.552285 288.147715,184 288.7,184 Z M302.7,184 L306.7,184 C307.252285,184 307.7,183.552285 307.7,183 C307.7,182.447715 307.252285,182 306.7,182 L302.7,182 C302.147715,182 301.7,182.447715 301.7,183 C301.7,183.552285 302.147715,184 302.7,184 Z M316.7,184 L320.7,184 C321.252285,184 321.7,183.552285 321.7,183 C321.7,182.447715 321.252285,182 320.7,182 L316.7,182 C316.147715,182 315.7,182.447715 315.7,183 C315.7,183.552285 316.147715,184 316.7,184 Z M330.7,184 L334.7,184 C335.252285,184 335.7,183.552285 335.7,183 C335.7,182.447715 335.252285,182 334.7,182 L330.7,182 C330.147715,182 329.7,182.447715 329.7,183 C329.7,183.552285 330.147715,184 330.7,184 Z M344.7,184 L348.7,184 C349.252285,184 349.7,183.552285 349.7,183 C349.7,182.447715 349.252285,182 348.7,182 L344.7,182 C344.147715,182 343.7,182.447715 343.7,183 C343.7,183.552285 344.147715,184 344.7,184 Z M358.7,184 L362.7,184 C363.252285,184 363.7,183.552285 363.7,183 C363.7,182.447715 363.252285,182 362.7,182 L358.7,182 C358.147715,182 357.7,182.447715 357.7,183 C357.7,183.552285 358.147715,184 358.7,184 Z M372.7,184 L376.7,184 C377.252285,184 377.7,183.552285 377.7,183 C377.7,182.447715 377.252285,182 376.7,182 L372.7,182 C372.147715,182 371.7,182.447715 371.7,183 C371.7,183.552285 372.147715,184 372.7,184 Z M386.689436,184.001804 C388.007992,184.011524 389.321604,184.060525 390.629139,184.148491 C391.180178,184.185562 391.656936,183.768909 391.694008,183.21787 C391.73108,182.666831 391.314427,182.190073 390.763387,182.153002 C389.416079,182.06236 388.062615,182.011873 386.70418,182.001858 C386.15191,181.997786 385.700907,182.442189 385.696807,182.994459 C385.692764,183.546728 386.137166,183.997732 386.689436,184.001804 Z M400.397514,185.554931 C401.68107,185.840881 402.953871,186.165581 404.214541,186.528447 C404.745277,186.681213 405.299365,186.374806 405.45213,185.84407 C405.604895,185.313333 405.298489,184.759246 404.767752,184.606481 C403.467992,184.232363 402.155735,183.897597 400.832411,183.602788 C400.293342,183.482694 399.758985,183.822341 399.638891,184.361411 C399.518798,184.900481 399.858445,185.434838 400.397514,185.554931 Z M413.457194,189.973634 C414.649694,190.525241 415.824863,191.112949 416.981194,191.735839 C417.467421,191.997758 418.073914,191.815921 418.335833,191.329695 C418.597753,190.843468 418.415916,190.236975 417.929689,189.975056 C416.737667,189.33294 415.5262,188.727079 414.296845,188.158424 C413.795589,187.926561 413.201278,188.144947 412.969415,188.646203 C412.737552,189.14746 412.955938,189.741771 413.457194,189.973634 Z M425.25351,197.035403 C426.30261,197.825116 427.327736,198.646392 428.327424,199.49799 C428.747845,199.856131 429.378994,199.805644 429.737135,199.385223 C430.095276,198.964802 430.044788,198.333654 429.624368,197.975513 C428.594079,197.097847 427.537562,196.251423 426.456323,195.437517 C426.015079,195.105369 425.388121,195.19381 425.055973,195.635054 C424.723826,196.076298 424.812266,196.703256 425.25351,197.035403 Z M435.359853,206.474172 C436.219742,207.467318 437.049502,208.486161 437.847879,209.52924 C438.183558,209.967804 438.811205,210.051209 439.249769,209.71553 C439.688333,209.379852 439.771738,208.752204 439.436059,208.31364 C438.61323,207.238614 437.758068,206.188579 436.871861,205.165038 C436.510354,204.747509 435.87882,204.702094 435.46129,205.063601 C435.043761,205.425108 434.998346,206.056642 435.359853,206.474172 Z M443.191984,217.718805 C443.824812,218.869283 444.422648,220.038866 444.98456,221.226047 C445.220835,221.725239 445.817049,221.938374 446.316241,221.702099 C446.815433,221.465824 447.028568,220.86961 446.792293,220.370418 C446.213021,219.146559 445.596727,217.940865 444.944374,216.754891 C444.678196,216.270982 444.070131,216.094476 443.586222,216.360653 C443.102313,216.626831 442.925806,217.234896 443.191984,217.718805 Z M448.515142,230.45076 C448.888853,231.708131 449.224487,232.977893 449.521449,234.25866 C449.646193,234.796673 450.183464,235.131692 450.721476,235.006948 C451.259488,234.882203 451.594508,234.344932 451.469763,233.80692 C451.163599,232.48646 450.817558,231.177328 450.432258,229.880964 C450.274913,229.351567 449.718199,229.049959 449.188802,229.207304 C448.659405,229.364649 448.357797,229.921363 448.515142,230.45076 Z M451.013608,244.039721 C451.112146,245.345844 451.17175,246.658252 451.192097,247.975803 C451.200625,248.528022 451.6552,248.96877 452.207418,248.960243 C452.759637,248.951715 453.200386,248.49714 453.191858,247.944921 C453.170896,246.587457 453.109481,245.235173 453.007941,243.889262 C452.966393,243.338542 452.486265,242.925777 451.935545,242.967325 C451.384826,243.008873 450.97206,243.489001 451.013608,244.039721 Z M451.017962,257.902227 C450.920019,259.216037 450.782714,260.523159 450.606439,261.822376 C450.532187,262.369646 450.915644,262.87349 451.462915,262.947742 C452.010185,263.021995 452.514029,262.638538 452.588281,262.091267 C452.769971,260.752136 452.911487,259.404927 453.012428,258.050913 C453.053486,257.500157 452.640294,257.020396 452.089538,256.979338 C451.538781,256.938279 451.059021,257.351471 451.017962,257.902227 Z M448.543574,271.453306 C448.17105,272.713846 447.760395,273.961593 447.312297,275.195112 C447.123726,275.714207 447.391669,276.287883 447.910764,276.476454 C448.429858,276.665025 449.003535,276.397082 449.192106,275.877987 C449.6541,274.606215 450.077493,273.319766 450.461572,272.020127 C450.618095,271.490486 450.315624,270.934241 449.785984,270.777718 C449.256343,270.621194 448.700098,270.923665 448.543574,271.453306 Z M443.25696,284.162777 C442.626418,285.314772 441.961054,286.447314 441.261895,287.558891 C440.967848,288.026389 441.108458,288.643744 441.575956,288.937791 C442.043455,289.231838 442.660809,289.091228 442.954856,288.62373 C443.67553,287.477949 444.361382,286.310532 445.011353,285.12304 C445.276522,284.638577 445.09875,284.030881 444.614288,283.765712 C444.129825,283.500542 443.522129,283.678315 443.25696,284.162777 Z M435.383784,295.498173 C434.524421,296.491833 433.63523,297.459443 432.717538,298.399588 C432.331762,298.794803 432.339413,299.427922 432.734628,299.813698 C433.129844,300.199475 433.762962,300.191823 434.148739,299.796608 C435.094492,298.827715 436.010876,297.830514 436.896525,296.80646 C437.257798,296.388728 437.21203,295.75722 436.794298,295.395946 C436.376566,295.034673 435.745058,295.080441 435.383784,295.498173 Z M425.273013,304.94991 C424.224029,305.74015 423.151438,306.498535 422.056734,307.22391 C421.596348,307.528972 421.470432,308.149491 421.775495,308.609877 C422.080557,309.070263 422.701075,309.196179 423.161461,308.891117 C424.289773,308.143473 425.395273,307.361819 426.476423,306.547346 C426.917543,306.215034 427.005749,305.588043 426.673436,305.146923 C426.341123,304.705803 425.714132,304.617597 425.273013,304.94991 Z M413.535533,311.990066 C412.344957,312.542714 411.137452,313.059167 409.914503,313.538601 C409.400319,313.740177 409.1469,314.320415 409.348477,314.8346 C409.550053,315.348784 410.130291,315.602203 410.644476,315.400627 C411.905304,314.906343 413.150192,314.373902 414.377606,313.804154 C414.878552,313.571622 415.096145,312.97702 414.863613,312.476074 C414.631081,311.975127 414.036479,311.757534 413.535533,311.990066 Z M400.465252,316.42994 C399.185734,316.716434 397.895879,316.964323 396.597001,317.173108 C396.051716,317.260758 395.680729,317.773854 395.76838,318.319139 C395.85603,318.864424 396.369126,319.23541 396.914411,319.14776 C398.253402,318.932527 399.583137,318.676974 400.902246,318.381615 C401.441187,318.260942 401.780259,317.72622 401.659587,317.18728 C401.538914,316.64834 401.004192,316.309267 400.465252,316.42994 Z M386.735379,317.997842 L386.202731,318 L382.740686,318 C382.188401,318 381.740686,318.447715 381.740686,319 C381.740686,319.552285 382.188401,320 382.740686,320 L386.202772,320 C386.385796,320 386.568696,319.999251 386.751508,319.997777 C387.303775,319.993323 387.747865,319.542011 387.743411,318.989745 C387.738957,318.437478 387.287646,317.993388 386.735379,317.997842 Z M372.740686,318 L368.740686,318 C368.188401,318 367.740686,318.447715 367.740686,319 C367.740686,319.552285 368.188401,320 368.740686,320 L372.740686,320 C373.292971,320 373.740686,319.552285 373.740686,319 C373.740686,318.447715 373.292971,318 372.740686,318 Z M358.740686,318 L354.740686,318 C354.188401,318 353.740686,318.447715 353.740686,319 C353.740686,319.552285 354.188401,320 354.740686,320 L358.740686,320 C359.292971,320 359.740686,319.552285 359.740686,319 C359.740686,318.447715 359.292971,318 358.740686,318 Z M344.740686,318 L340.740686,318 C340.188401,318 339.740686,318.447715 339.740686,319 C339.740686,319.552285 340.188401,320 340.740686,320 L344.740686,320 C345.292971,320 345.740686,319.552285 345.740686,319 C345.740686,318.447715 345.292971,318 344.740686,318 Z M330.740686,318 L326.740686,318 C326.188401,318 325.740686,318.447715 325.740686,319 C325.740686,319.552285 326.188401,320 326.740686,320 L330.740686,320 C331.292971,320 331.740686,319.552285 331.740686,319 C331.740686,318.447715 331.292971,318 330.740686,318 Z M316.740686,318 L312.740686,318 C312.188401,318 311.740686,318.447715 311.740686,319 C311.740686,319.552285 312.188401,320 312.740686,320 L316.740686,320 C317.292971,320 317.740686,319.552285 317.740686,319 C317.740686,318.447715 317.292971,318 316.740686,318 Z M302.740686,318 L298.740686,318 C298.188401,318 297.740686,318.447715 297.740686,319 C297.740686,319.552285 298.188401,320 298.740686,320 L302.740686,320 C303.292971,320 303.740686,319.552285 303.740686,319 C303.740686,318.447715 303.292971,318 302.740686,318 Z M288.740686,318 L284.740686,318 C284.188401,318 283.740686,318.447715 283.740686,319 C283.740686,319.552285 284.188401,320 284.740686,320 L288.740686,320 C289.292971,320 289.740686,319.552285 289.740686,319 C289.740686,318.447715 289.292971,318 288.740686,318 Z M274.740686,318 L270.740686,318 C270.188401,318 269.740686,318.447715 269.740686,319 C269.740686,319.552285 270.188401,320 270.740686,320 L274.740686,320 C275.292971,320 275.740686,319.552285 275.740686,319 C275.740686,318.447715 275.292971,318 274.740686,318 Z M260.740686,318 L256.740686,318 C256.188401,318 255.740686,318.447715 255.740686,319 C255.740686,319.552285 256.188401,320 256.740686,320 L260.740686,320 C261.292971,320 261.740686,319.552285 261.740686,319 C261.740686,318.447715 261.292971,318 260.740686,318 Z M246.740686,318 L242.740686,318 C242.188401,318 241.740686,318.447715 241.740686,319 C241.740686,319.552285 242.188401,320 242.740686,320 L246.740686,320 C247.292971,320 247.740686,319.552285 247.740686,319 C247.740686,318.447715 247.292971,318 246.740686,318 Z M232.740686,318 L228.740686,318 C228.188401,318 227.740686,318.447715 227.740686,319 C227.740686,319.552285 228.188401,320 228.740686,320 L232.740686,320 C233.292971,320 233.740686,319.552285 233.740686,319 C233.740686,318.447715 233.292971,318 232.740686,318 Z M218.740686,318 L214.740686,318 C214.188401,318 213.740686,318.447715 213.740686,319 C213.740686,319.552285 214.188401,320 214.740686,320 L218.740686,320 C219.292971,320 219.740686,319.552285 219.740686,319 C219.740686,318.447715 219.292971,318 218.740686,318 Z M204.740686,318 L200.740686,318 C200.188401,318 199.740686,318.447715 199.740686,319 C199.740686,319.552285 200.188401,320 200.740686,320 L204.740686,320 C205.292971,320 205.740686,319.552285 205.740686,319 C205.740686,318.447715 205.292971,318 204.740686,318 Z M190.740686,318 L186.740686,318 C186.188401,318 185.740686,318.447715 185.740686,319 C185.740686,319.552285 186.188401,320 186.740686,320 L190.740686,320 C191.292971,320 191.740686,319.552285 191.740686,319 C191.740686,318.447715 191.292971,318 190.740686,318 Z M176.740686,318 L172.740686,318 C172.188401,318 171.740686,318.447715 171.740686,319 C171.740686,319.552285 172.188401,320 172.740686,320 L176.740686,320 C177.292971,320 177.740686,319.552285 177.740686,319 C177.740686,318.447715 177.292971,318 176.740686,318 Z M162.740686,318 L158.740686,318 C158.188401,318 157.740686,318.447715 157.740686,319 C157.740686,319.552285 158.188401,320 158.740686,320 L162.740686,320 C163.292971,320 163.740686,319.552285 163.740686,319 C163.740686,318.447715 163.292971,318 162.740686,318 Z M148.740686,318 L144.740686,318 C144.188401,318 143.740686,318.447715 143.740686,319 C143.740686,319.552285 144.188401,320 144.740686,320 L148.740686,320 C149.292971,320 149.740686,319.552285 149.740686,319 C149.740686,318.447715 149.292971,318 148.740686,318 Z M134.740686,318 L133,318 L133,320 L135.259314,320 C135.811599,320 136.259314,319.552285 136.259314,319 C136.259314,318.447715 135.811599,318 135.259314,318 L133,318 C131.666667,318 131.666667,320 133,320 L134.740686,320 C135.292971,320 135.740686,319.552285 135.740686,319 C135.740686,318.447715 135.292971,318 134.740686,318 Z M145.259314,320 L149.259314,320 C149.811599,320 150.259314,319.552285 150.259314,319 C150.259314,318.447715 149.811599,318 149.259314,318 L145.259314,318 C144.707029,318 144.259314,318.447715 144.259314,319 C144.259314,319.552285 144.707029,320 145.259314,320 Z M159.259314,320 L163.259314,320 C163.811599,320 164.259314,319.552285 164.259314,319 C164.259314,318.447715 163.811599,318 163.259314,318 L159.259314,318 C158.707029,318 158.259314,318.447715 158.259314,319 C158.259314,319.552285 158.707029,320 159.259314,320 Z M173.259314,320 L177.259314,320 C177.811599,320 178.259314,319.552285 178.259314,319 C178.259314,318.447715 177.811599,318 177.259314,318 L173.259314,318 C172.707029,318 172.259314,318.447715 172.259314,319 C172.259314,319.552285 172.707029,320 173.259314,320 Z M187.259314,320 L191.259314,320 C191.811599,320 192.259314,319.552285 192.259314,319 C192.259314,318.447715 191.811599,318 191.259314,318 L187.259314,318 C186.707029,318 186.259314,318.447715 186.259314,319 C186.259314,319.552285 186.707029,320 187.259314,320 Z M201.259314,320 L205.259314,320 C205.811599,320 206.259314,319.552285 206.259314,319 C206.259314,318.447715 205.811599,318 205.259314,318 L201.259314,318 C200.707029,318 200.259314,318.447715 200.259314,319 C200.259314,319.552285 200.707029,320 201.259314,320 Z M215.259314,320 L219.259314,320 C219.811599,320 220.259314,319.552285 220.259314,319 C220.259314,318.447715 219.811599,318 219.259314,318 L215.259314,318 C214.707029,318 214.259314,318.447715 214.259314,319 C214.259314,319.552285 214.707029,320 215.259314,320 Z M229.31749,319.928727 C230.69083,319.8457 232.052561,319.690378 233.398664,319.464042 C233.943303,319.372465 234.310583,318.85671 234.219007,318.312071 C234.12743,317.767431 233.611675,317.400151 233.067036,317.491728 C231.790712,317.706331 230.499391,317.853622 229.196798,317.932372 C228.64552,317.9657 228.225638,318.439617 228.258966,318.990895 C228.292294,319.542173 228.766211,319.962055 229.31749,319.928727 Z M243.206338,316.421069 C244.449137,315.843315 245.659748,315.19964 246.833307,314.49314 C247.306466,314.208291 247.459121,313.593804 247.174272,313.120645 C246.889423,312.647486 246.274936,312.49483 245.801777,312.779679 C244.689112,313.449521 243.541392,314.059757 242.363227,314.607463 C241.862414,314.840282 241.645161,315.435008 241.87798,315.935821 C242.110798,316.436635 242.705525,316.653887 243.206338,316.421069 Z M254.837273,308.090926 C255.784394,307.101686 256.678629,306.062922 257.515849,304.979248 C257.853501,304.542202 257.772925,303.914185 257.335879,303.576533 C256.898832,303.238881 256.270815,303.319457 255.933163,303.756503 C255.139117,304.784294 254.290966,305.769525 253.39264,306.707801 C253.0107,307.106725 253.024469,307.73974 253.423394,308.12168 C253.822318,308.503619 254.455334,308.48985 254.837273,308.090926 Z M262.688447,296.016887 C263.206925,294.750519 263.657763,293.456085 264.038654,292.138265 C264.192005,291.607697 263.88621,291.053272 263.355643,290.899921 C262.825075,290.746571 262.27065,291.052365 262.117299,291.582933 C261.756294,292.831948 261.328994,294.058804 260.837568,295.259098 C260.62831,295.770204 260.873007,296.354175 261.384113,296.563433 C261.895219,296.77269 262.47919,296.527994 262.688447,296.016887 Z M265.54603,282.088058 L265.552027,281.403255 C265.552027,280.258881 265.501426,279.118737 265.400567,277.98348 C265.351694,277.433362 264.866115,277.027023 264.315997,277.075897 C263.765879,277.124771 263.35954,277.61035 263.408414,278.160468 C263.504047,279.236905 263.552027,280.317995 263.552027,281.403195 L263.546335,282.053131 C263.53669,282.605331 263.976518,283.060797 264.528719,283.070442 C265.080919,283.080087 265.536385,282.640259 265.54603,282.088058 Z M263.14419,267.981322 C262.667925,266.696955 262.123625,265.438776 261.513641,264.212231 C261.267713,263.717724 260.667471,263.51621 260.172963,263.762138 C259.678456,264.008067 259.476942,264.608308 259.72287,265.102816 C260.30126,266.265831 260.817368,267.458844 261.268966,268.676687 C261.460986,269.194516 262.036432,269.458637 262.554261,269.266617 C263.07209,269.074597 263.33621,268.499151 263.14419,267.981322 Z M255.768551,255.719001 C255.074526,254.940357 254.348488,254.189352 253.591895,253.467811 C253.192222,253.086654 252.559235,253.101665 252.178079,253.501338 C251.796922,253.90101 251.811933,254.533997 252.211606,254.915154 C252.929036,255.599347 253.617471,256.311456 254.275541,257.04976 C254.64302,257.462043 255.275142,257.498365 255.687426,257.130886 C256.099709,256.763407 256.13603,256.131284 255.768551,255.719001 Z" id="Rectangle-Copy-9" fill="#24231F" fill-rule="nonzero" transform="translate(292.595990, 251.000000) scale(1, -1) translate(-292.595990, -251.000000) "></path>
        <polygon id="Path-22" fill="#FFFFFF" points="93 159.257812 201.339844 68.5 356.121094 100.947755 389.082031 205 304.757812 312 158 299"></polygon>
        <g id="shadow" transform="translate(101.750000, 73.000000)" fill-rule="nonzero">
            <polygon id="Line-2-Copy-8" fill="#E2E3E6" points="176.012415 120.730091 176.519909 116.762415 266.487585 128.269909 265.980091 132.237585"></polygon>
            <polygon id="Line-2-Copy-15" fill="#E2E3E6" points="9.0005405 97.714623 9.53537702 93.7505405 139.49946 111.285377 138.964623 115.24946"></polygon>
            <polygon id="Line-2-Copy-12" fill="#E2E3E6" points="232.757024 33.6064921 233.643508 37.5070235 9.7429765 88.3935079 8.85649208 84.4929765"></polygon>
            <polygon id="Line-2-Copy-13" fill="#E2E3E6" points="4.45162734 103.41123 6.83876961 100.201627 170.048373 221.58877 167.66123 224.798373"></polygon>
            <polygon id="Line-2-Copy-5" fill="#E2E3E6" points="241.18424 40.1723374 244.077663 42.9342404 178.31576 111.827663 175.422337 109.06576"></polygon>
            <polygon id="Line-2-Copy-6" fill="#E2E3E6" points="151.213741 124.171805 154.078195 126.963741 74.2862589 208.828195 71.4218053 206.036259"></polygon>
            <polygon id="Line-2" fill="#F0EFF0" points="86.4848881 8.18134295 89.0686571 11.2348881 8.01511191 79.8186571 5.43134295 76.7651119"></polygon>
            <polygon id="Line-2-Copy-2" fill="#F0EFF0" points="121.377283 4.53954942 122.210451 0.627282658 234.122717 24.4604506 233.289549 28.3727173"></polygon>
            <polygon id="Line-2-Copy-3" fill="#F0EFF0" points="105.571673 18.0908432 109.159157 16.3216733 146.928327 92.9091568 143.340843 94.6783267"></polygon>
            <polygon id="Line-2-Copy-9" fill="#F0EFF0" points="159.914545 128.404491 163.845509 127.664545 180.585455 216.595509 176.654491 217.335455"></polygon>
            <polygon id="Line-2-Copy-14" fill="#F0EFF0" points="248.935027 46.4958342 252.754166 47.6850271 199.564973 218.504166 195.745834 217.314973"></polygon>
            <polygon id="Line-2-Copy-7" fill="#F0EFF0" points="253.751772 46.6737804 257.57622 45.5017723 277.748228 111.32622 273.92378 112.498228"></polygon>
            <polygon id="Line-2-Copy" fill="#F0EFF0" points="0.840075158 107.288335 4.46166514 105.590075 47.6599248 197.711665 44.0383349 199.409925"></polygon>
            <polygon id="Line-2-Copy-10" fill="#F0EFF0" points="72.0647791 225.795776 72.4542244 221.814779 168.435221 231.204224 168.045776 235.185221"></polygon>
            <polygon id="Line-2-Copy-11" fill="#F0EFF0" points="271.933567 143.189329 275.060671 145.683567 205.566433 232.810671 202.439329 230.316433"></polygon>
        </g>
        <g id="point" transform="translate(183.000000, 50.000000)">
            <circle id="Oval" fill="#D40B26" cx="22" cy="22" r="20"></circle>
            <path d="M22,0 C9.8497355,0 0,9.8497355 0,22 C0,34.1502645 9.8497355,44 22,44 C34.1502645,44 44,34.1502645 44,22 C44,9.8497355 34.1502645,0 22,0 Z M22,4 C31.9411255,4 40,12.0588745 40,22 C40,31.9411255 31.9411255,40 22,40 C12.0588745,40 4,31.9411255 4,22 C4,12.0588745 12.0588745,4 22,4 Z" id="Oval" fill="#24231F" fill-rule="nonzero"></path>
        </g>
        <g id="point" transform="translate(71.000000, 141.000000)">
            <circle id="Oval-Copy" fill="#D40B26" cx="22" cy="22" r="20"></circle>
            <path d="M22,0 C9.8497355,0 0,9.8497355 0,22 C0,34.1502645 9.8497355,44 22,44 C34.1502645,44 44,34.1502645 44,22 C44,9.8497355 34.1502645,0 22,0 Z M22,4 C31.9411255,4 40,12.0588745 40,22 C40,31.9411255 31.9411255,40 22,40 C12.0588745,40 4,31.9411255 4,22 C4,12.0588745 12.0588745,4 22,4 Z" id="Oval-Copy" fill="#24231F" fill-rule="nonzero"></path>
        </g>
        <g id="point" transform="translate(331.000000, 79.000000)">
            <circle id="Oval-Copy-2" fill="#D40B26" cx="22" cy="22" r="20"></circle>
            <path d="M22,0 C9.8497355,0 0,9.8497355 0,22 C0,34.1502645 9.8497355,44 22,44 C34.1502645,44 44,34.1502645 44,22 C44,9.8497355 34.1502645,0 22,0 Z M22,4 C31.9411255,4 40,12.0588745 40,22 C40,31.9411255 31.9411255,40 22,40 C12.0588745,40 4,31.9411255 4,22 C4,12.0588745 12.0588745,4 22,4 Z" id="Oval-Copy-2" fill="#24231F" fill-rule="nonzero"></path>
        </g>
        <g id="point" transform="translate(238.000000, 161.000000)">
            <circle id="Oval-Copy-3" fill="#D40B26" cx="22" cy="22" r="20"></circle>
            <path d="M22,0 C9.8497355,0 0,9.8497355 0,22 C0,34.1502645 9.8497355,44 22,44 C34.1502645,44 44,34.1502645 44,22 C44,9.8497355 34.1502645,0 22,0 Z M22,4 C31.9411255,4 40,12.0588745 40,22 C40,31.9411255 31.9411255,40 22,40 C12.0588745,40 4,31.9411255 4,22 C4,12.0588745 12.0588745,4 22,4 Z" id="Oval-Copy-3" fill="#24231F" fill-rule="nonzero"></path>
        </g>
        <g id="point" transform="translate(136.000000, 266.000000)">
            <circle id="Oval-Copy-4" fill="#D40B26" cx="22" cy="22" r="20"></circle>
            <path d="M22,0 C9.8497355,0 0,9.8497355 0,22 C0,34.1502645 9.8497355,44 22,44 C34.1502645,44 44,34.1502645 44,22 C44,9.8497355 34.1502645,0 22,0 Z M22,4 C31.9411255,4 40,12.0588745 40,22 C40,31.9411255 31.9411255,40 22,40 C12.0588745,40 4,31.9411255 4,22 C4,12.0588745 12.0588745,4 22,4 Z" id="Oval-Copy-4" fill="#24231F" fill-rule="nonzero"></path>
        </g>
        <g id="point" transform="translate(266.000000, 286.000000)">
            <circle id="Oval-Copy-5" fill="#D40B26" cx="22" cy="22" r="20"></circle>
            <path d="M22,0 C9.8497355,0 0,9.8497355 0,22 C0,34.1502645 9.8497355,44 22,44 C34.1502645,44 44,34.1502645 44,22 C44,9.8497355 34.1502645,0 22,0 Z M22,4 C31.9411255,4 40,12.0588745 40,22 C40,31.9411255 31.9411255,40 22,40 C12.0588745,40 4,31.9411255 4,22 C4,12.0588745 12.0588745,4 22,4 Z" id="Oval-Copy-5" fill="#24231F" fill-rule="nonzero"></path>
        </g>
        <g id="point" transform="translate(364.000000, 181.000000)">
            <circle id="Oval-Copy-6" fill="#D40B26" cx="22" cy="22" r="20"></circle>
            <path d="M22,0 C9.8497355,0 0,9.8497355 0,22 C0,34.1502645 9.8497355,44 22,44 C34.1502645,44 44,34.1502645 44,22 C44,9.8497355 34.1502645,0 22,0 Z M22,4 C31.9411255,4 40,12.0588745 40,22 C40,31.9411255 31.9411255,40 22,40 C12.0588745,40 4,31.9411255 4,22 C4,12.0588745 12.0588745,4 22,4 Z" id="Oval-Copy-6" fill="#24231F" fill-rule="nonzero"></path>
        </g>
        <polygon id="Line-2" fill="#24231F" fill-rule="nonzero" points="185.734888 78.6813429 188.318657 81.7348881 107.265112 150.318657 104.681343 147.265112"></polygon>
        <polygon id="Line-2-Copy-12" fill="#24231F" fill-rule="nonzero" points="334.507024 103.606492 335.393508 107.507024 111.492976 158.393508 110.606492 154.492976"></polygon>
        <polygon id="Line-2-Copy-2" fill="#24231F" fill-rule="nonzero" points="223.127283 74.0395494 223.960451 70.1272827 335.872717 93.9604506 335.039549 97.8727173"></polygon>
        <polygon id="Line-2-Copy-3" fill="#24231F" fill-rule="nonzero" points="211.321673 91.0908432 214.909157 89.3216733 252.678327 165.909157 249.090843 167.678327"></polygon>
        <polygon id="Line-2-Copy-13" fill="#24231F" fill-rule="nonzero" points="110.201627 175.41123 112.58877 172.201627 275.798373 293.58877 273.41123 296.798373"></polygon>
        <polygon id="Line-2-Copy-5" fill="#24231F" fill-rule="nonzero" points="338.952866 113.171966 341.828034 115.952866 280.047134 179.828034 277.171966 177.047134"></polygon>
        <polygon id="Line-2-Copy-7" fill="#24231F" fill-rule="nonzero" points="359.501772 119.67378 363.32622 118.501772 383.498228 184.32622 379.67378 185.498228"></polygon>
        <polygon id="Line-2-Copy-14" fill="#24231F" fill-rule="nonzero" points="347.685027 118.495834 351.504166 119.685027 298.314973 290.504166 294.495834 289.314973"></polygon>
        <polygon id="Line-2-Copy-8" fill="#24231F" fill-rule="nonzero" points="277.762415 190.730091 278.269909 186.762415 368.237585 198.269909 367.730091 202.237585"></polygon>
        <polygon id="Line-2-Copy-9" fill="#24231F" fill-rule="nonzero" points="265.664545 201.404491 269.595509 200.664545 286.335455 289.595509 282.404491 290.335455"></polygon>
        <polygon id="Line-2-Copy-4" fill="#24231F" fill-rule="nonzero" points="110.75054 167.714623 111.285377 163.75054 241.24946 181.285377 240.714623 185.24946"></polygon>
        <polygon id="Line-2-Copy-6" fill="#24231F" fill-rule="nonzero" points="247.942289 197.172162 250.827838 199.942289 176.057711 277.827838 173.172162 275.057711"></polygon>
        <polygon id="Line-2-Copy" fill="#24231F" fill-rule="nonzero" points="101.340075 182.038335 104.961665 180.340075 148.159925 272.461665 144.538335 274.159925"></polygon>
        <polygon id="Line-2-Copy-10" fill="#24231F" fill-rule="nonzero" points="173.814779 300.795776 174.204224 296.814779 270.185221 306.204224 269.795776 310.185221"></polygon>
        <polygon id="Line-2-Copy-11" fill="#24231F" fill-rule="nonzero" points="375.683567 218.189329 378.810671 220.683567 309.316433 307.810671 306.189329 305.316433"></polygon>
        <rect id="Rectangle" fill="#EABDBF" x="57" y="191" width="72" height="18"></rect>
        <rect id="Rectangle-Copy" fill="#EABDBF" x="330" y="130" width="62" height="18"></rect>
        <rect id="Rectangle-Copy-4" fill="#EABDBF" x="222" y="214" width="76" height="18"></rect>
        <rect id="Rectangle-Copy-3" fill="#EABDBF" x="151" y="101" width="108" height="18"></rect>
        <rect id="Rectangle-Copy-2" fill="#EABDBF" x="375" y="232" width="46" height="18"></rect>
        <rect id="Rectangle-Copy-5" fill="#EABDBF" x="330" y="324" width="62" height="18"></rect>
        <rect id="Rectangle-Copy-6" fill="#EABDBF" x="108" y="316" width="62" height="18"></rect>
        <g id="Group" transform="translate(395.000000, 33.000000)">
            <circle id="Oval" fill="#FFFFFF" cx="20" cy="27.6666667" r="20"></circle>
            <path d="M20,6.66666667 C8.40202025,6.66666667 -1,16.0686869 -1,27.6666667 C-1,39.2646464 8.40202025,48.6666667 20,48.6666667 C31.5979797,48.6666667 41,39.2646464 41,27.6666667 C41,16.0686869 31.5979797,6.66666667 20,6.66666667 Z M20,8.66666667 C30.4934102,8.66666667 39,17.1732564 39,27.6666667 C39,38.1600769 30.4934102,46.6666667 20,46.6666667 C9.50658975,46.6666667 1,38.1600769 1,27.6666667 C1,17.1732564 9.50658975,8.66666667 20,8.66666667 Z" id="Oval" fill="#24231F" fill-rule="nonzero"></path>
            <path d="M20,11.3333333 C10.9793491,11.3333333 3.66666667,18.6460158 3.66666667,27.6666667 C3.66666667,36.6873176 10.9793491,44 20,44 C29.0206509,44 36.3333333,36.6873176 36.3333333,27.6666667 C36.3333333,18.6460158 29.0206509,11.3333333 20,11.3333333 Z M20,13.3333333 C27.9160814,13.3333333 34.3333333,19.7505853 34.3333333,27.6666667 C34.3333333,35.5827481 27.9160814,42 20,42 C12.0839186,42 5.66666667,35.5827481 5.66666667,27.6666667 C5.66666667,19.7505853 12.0839186,13.3333333 20,13.3333333 Z" id="Oval" fill="#24231F" fill-rule="nonzero"></path>
            <rect id="Rectangle" fill="#24231F" transform="translate(23.541280, 24.622076) rotate(40.000000) translate(-23.541280, -24.622076) " x="22.5412804" y="18.1220765" width="2" height="13" rx="1"></rect>
            <rect id="Rectangle-Copy-7" fill="#24231F" transform="translate(17.089988, 26.606107) rotate(-50.000000) translate(-17.089988, -26.606107) " x="16.0899876" y="22.1061071" width="2" height="9" rx="1"></rect>
            <rect id="Rectangle" fill="#FFFFFF" x="14.6666667" y="1" width="10.6666667" height="4" rx="2"></rect>
            <path d="M23.3333333,0 L16.6666667,0 C15.0098124,0 13.6666667,1.34314575 13.6666667,3 C13.6666667,4.65685425 15.0098124,6 16.6666667,6 L23.3333333,6 C24.9901876,6 26.3333333,4.65685425 26.3333333,3 C26.3333333,1.34314575 24.9901876,0 23.3333333,0 Z M16.6666667,2 L23.3333333,2 C23.8856181,2 24.3333333,2.44771525 24.3333333,3 C24.3333333,3.55228475 23.8856181,4 23.3333333,4 L16.6666667,4 C16.1143819,4 15.6666667,3.55228475 15.6666667,3 C15.6666667,2.44771525 16.1143819,2 16.6666667,2 Z" id="Rectangle" fill="#24231F" fill-rule="nonzero"></path>
        </g>
        <g id="Group-Copy" transform="translate(37.000000, 231.000000)">
            <circle id="Oval" fill="#FFFFFF" cx="20" cy="27.6666667" r="20"></circle>
            <path d="M20,6.66666667 C8.40202025,6.66666667 -1,16.0686869 -1,27.6666667 C-1,39.2646464 8.40202025,48.6666667 20,48.6666667 C31.5979797,48.6666667 41,39.2646464 41,27.6666667 C41,16.0686869 31.5979797,6.66666667 20,6.66666667 Z M20,8.66666667 C30.4934102,8.66666667 39,17.1732564 39,27.6666667 C39,38.1600769 30.4934102,46.6666667 20,46.6666667 C9.50658975,46.6666667 1,38.1600769 1,27.6666667 C1,17.1732564 9.50658975,8.66666667 20,8.66666667 Z" id="Oval" fill="#24231F" fill-rule="nonzero"></path>
            <path d="M20,11.3333333 C10.9793491,11.3333333 3.66666667,18.6460158 3.66666667,27.6666667 C3.66666667,36.6873176 10.9793491,44 20,44 C29.0206509,44 36.3333333,36.6873176 36.3333333,27.6666667 C36.3333333,18.6460158 29.0206509,11.3333333 20,11.3333333 Z M20,13.3333333 C27.9160814,13.3333333 34.3333333,19.7505853 34.3333333,27.6666667 C34.3333333,35.5827481 27.9160814,42 20,42 C12.0839186,42 5.66666667,35.5827481 5.66666667,27.6666667 C5.66666667,19.7505853 12.0839186,13.3333333 20,13.3333333 Z" id="Oval" fill="#24231F" fill-rule="nonzero"></path>
            <rect id="Rectangle" fill="#24231F" transform="translate(23.541280, 24.622076) rotate(40.000000) translate(-23.541280, -24.622076) " x="22.5412804" y="18.1220765" width="2" height="13" rx="1"></rect>
            <rect id="Rectangle-Copy-7" fill="#24231F" transform="translate(17.089988, 26.606107) rotate(-50.000000) translate(-17.089988, -26.606107) " x="16.0899876" y="22.1061071" width="2" height="9" rx="1"></rect>
            <rect id="Rectangle" fill="#FFFFFF" x="14.6666667" y="1" width="10.6666667" height="4" rx="2"></rect>
            <path d="M23.3333333,0 L16.6666667,0 C15.0098124,0 13.6666667,1.34314575 13.6666667,3 C13.6666667,4.65685425 15.0098124,6 16.6666667,6 L23.3333333,6 C24.9901876,6 26.3333333,4.65685425 26.3333333,3 C26.3333333,1.34314575 24.9901876,0 23.3333333,0 Z M16.6666667,2 L23.3333333,2 C23.8856181,2 24.3333333,2.44771525 24.3333333,3 C24.3333333,3.55228475 23.8856181,4 23.3333333,4 L16.6666667,4 C16.1143819,4 15.6666667,3.55228475 15.6666667,3 C15.6666667,2.44771525 16.1143819,2 16.6666667,2 Z" id="Rectangle" fill="#24231F" fill-rule="nonzero"></path>
        </g>
        <path d="M396.935976,51 C397.48826,51 397.935976,51.4477153 397.935976,52 C397.935976,52.5128358 397.549935,52.9355072 397.052597,52.9932723 L396.935976,53 L315,53 C314.447715,53 314,52.5522847 314,52 C314,51.4871642 314.38604,51.0644928 314.883379,51.0067277 L315,51 L396.935976,51 Z" id="Line-3-Copy-31" fill="#24231F" fill-rule="nonzero"></path>
        <path d="M184.925305,64 C185.47759,64 185.925305,64.4477153 185.925305,65 C185.925305,65.5128358 185.539265,65.9355072 185.041926,65.9932723 L184.925305,66 L102.989329,66 C102.437045,66 101.989329,65.5522847 101.989329,65 C101.989329,64.4871642 102.375369,64.0644928 102.872708,64.0067277 L102.989329,64 L184.925305,64 Z" id="Line-3-Copy-33" fill="#24231F" fill-rule="nonzero"></path>
        <path d="M148.925305,74 C149.47759,74 149.925305,74.4477153 149.925305,75 C149.925305,75.5128358 149.539265,75.9355072 149.041926,75.9932723 L148.925305,76 L66.9893293,76 C66.4370445,76 65.9893293,75.5522847 65.9893293,75 C65.9893293,74.4871642 66.3753695,74.0644928 66.8727081,74.0067277 L66.9893293,74 L148.925305,74 Z" id="Line-3-Copy-34" fill="#24231F" fill-rule="nonzero"></path>
        <path d="M93.0373476,219 C93.5896323,219 94.0373476,219.447715 94.0373476,220 C94.0373476,220.512836 93.6513074,220.935507 93.1539687,220.993272 L93.0373476,221 L30.0266768,221 C29.4743921,221 29.0266768,220.552285 29.0266768,220 C29.0266768,219.487164 29.412717,219.064493 29.9100557,219.006728 L30.0266768,219 L93.0373476,219 Z" id="Line-3-Copy-35" fill="#24231F" fill-rule="nonzero"></path>
        <path d="M259,341 C259.552285,341 260,341.447715 260,342 C260,342.512836 259.61396,342.935507 259.116621,342.993272 L259,343 L158.026677,343 C157.474392,343 157.026677,342.552285 157.026677,342 C157.026677,341.487164 157.412717,341.064493 157.910056,341.006728 L158.026677,341 L259,341 Z" id="Line-3-Copy-36" fill="#24231F" fill-rule="nonzero"></path>
        <path d="M393.925305,60 C394.47759,60 394.925305,60.4477153 394.925305,61 C394.925305,61.5128358 394.539265,61.9355072 394.041926,61.9932723 L393.925305,62 L357,62 C356.447715,62 356,61.5522847 356,61 C356,60.4871642 356.38604,60.0644928 356.883379,60.0067277 L357,60 L393.925305,60 Z" id="Line-3-Copy-32" fill="#24231F" fill-rule="nonzero"></path>
        <path d="M447.040015,165 C447.5923,165 448.040015,165.447715 448.040015,166 C448.040015,166.512836 447.653975,166.935507 447.156636,166.993272 L447.040015,167 L389.03468,167 C388.482395,167 388.03468,166.552285 388.03468,166 C388.03468,165.487164 388.42072,165.064493 388.918059,165.006728 L389.03468,165 L447.040015,165 Z" id="Line-3-Copy-37" fill="#24231F" fill-rule="nonzero"></path>
        <path d="M385.010004,298 C385.562289,298 386.010004,298.447715 386.010004,299 C386.010004,299.512836 385.623964,299.935507 385.126625,299.993272 L385.010004,300 L315.024676,300 C314.472391,300 314.024676,299.552285 314.024676,299 C314.024676,298.487164 314.410716,298.064493 314.908055,298.006728 L315.024676,298 L385.010004,298 Z" id="Line-3-Copy-39" fill="#24231F" fill-rule="nonzero"></path>
        <path d="M45,104 L49,104 C49.5522847,104 50,103.552285 50,103 C50,102.447715 49.5522847,102 49,102 L45,102 C44.4477153,102 44,102.447715 44,103 C44,103.552285 44.4477153,104 45,104 Z M59,104 L63,104 C63.5522847,104 64,103.552285 64,103 C64,102.447715 63.5522847,102 63,102 L59,102 C58.4477153,102 58,102.447715 58,103 C58,103.552285 58.4477153,104 59,104 Z M73,104 L77,104 C77.5522847,104 78,103.552285 78,103 C78,102.447715 77.5522847,102 77,102 L73,102 C72.4477153,102 72,102.447715 72,103 C72,103.552285 72.4477153,104 73,104 Z M87,104 L91,104 C91.5522847,104 92,103.552285 92,103 C92,102.447715 91.5522847,102 91,102 L87,102 C86.4477153,102 86,102.447715 86,103 C86,103.552285 86.4477153,104 87,104 Z M101,104 L105,104 C105.552285,104 106,103.552285 106,103 C106,102.447715 105.552285,102 105,102 L101,102 C100.447715,102 100,102.447715 100,103 C100,103.552285 100.447715,104 101,104 Z M115,104 L119,104 C119.552285,104 120,103.552285 120,103 C120,102.447715 119.552285,102 119,102 L115,102 C114.447715,102 114,102.447715 114,103 C114,103.552285 114.447715,104 115,104 Z M129,104 L133,104 C133.552285,104 134,103.552285 134,103 C134,102.447715 133.552285,102 133,102 L129,102 C128.447715,102 128,102.447715 128,103 C128,103.552285 128.447715,104 129,104 Z" id="Line-3-Copy-17" fill="#24231F" fill-rule="nonzero"></path>
        <path d="M288,74 L292,74 C292.552285,74 293,73.5522847 293,73 C293,72.4477153 292.552285,72 292,72 L288,72 C287.447715,72 287,72.4477153 287,73 C287,73.5522847 287.447715,74 288,74 Z M302,74 L306,74 C306.552285,74 307,73.5522847 307,73 C307,72.4477153 306.552285,72 306,72 L302,72 C301.447715,72 301,72.4477153 301,73 C301,73.5522847 301.447715,74 302,74 Z M316,74 L320,74 C320.552285,74 321,73.5522847 321,73 C321,72.4477153 320.552285,72 320,72 L316,72 C315.447715,72 315,72.4477153 315,73 C315,73.5522847 315.447715,74 316,74 Z M330,74 L334,74 C334.552285,74 335,73.5522847 335,73 C335,72.4477153 334.552285,72 334,72 L330,72 C329.447715,72 329,72.4477153 329,73 C329,73.5522847 329.447715,74 330,74 Z M344,74 L348,74 C348.552285,74 349,73.5522847 349,73 C349,72.4477153 348.552285,72 348,72 L344,72 C343.447715,72 343,72.4477153 343,73 C343,73.5522847 343.447715,74 344,74 Z M358,74 L362,74 C362.552285,74 363,73.5522847 363,73 C363,72.4477153 362.552285,72 362,72 L358,72 C357.447715,72 357,72.4477153 357,73 C357,73.5522847 357.447715,74 358,74 Z M372,74 L376,74 C376.552285,74 377,73.5522847 377,73 C377,72.4477153 376.552285,72 376,72 L372,72 C371.447715,72 371,72.4477153 371,73 C371,73.5522847 371.447715,74 372,74 Z" id="Line-3-Copy-18" fill="#24231F" fill-rule="nonzero"></path>
        <path d="M381,156 L385,156 C385.552285,156 386,155.552285 386,155 C386,154.447715 385.552285,154 385,154 L381,154 C380.447715,154 380,154.447715 380,155 C380,155.552285 380.447715,156 381,156 Z M395,156 L399,156 C399.552285,156 400,155.552285 400,155 C400,154.447715 399.552285,154 399,154 L395,154 C394.447715,154 394,154.447715 394,155 C394,155.552285 394.447715,156 395,156 Z M409,156 L413,156 C413.552285,156 414,155.552285 414,155 C414,154.447715 413.552285,154 413,154 L409,154 C408.447715,154 408,154.447715 408,155 C408,155.552285 408.447715,156 409,156 Z M423,156 L427,156 C427.552285,156 428,155.552285 428,155 C428,154.447715 427.552285,154 427,154 L423,154 C422.447715,154 422,154.447715 422,155 C422,155.552285 422.447715,156 423,156 Z M437,156 L441,156 C441.552285,156 442,155.552285 442,155 C442,154.447715 441.552285,154 441,154 L437,154 C436.447715,154 436,154.447715 436,155 C436,155.552285 436.447715,156 437,156 Z M451,156 L455,156 C455.552285,156 456,155.552285 456,155 C456,154.447715 455.552285,154 455,154 L451,154 C450.447715,154 450,154.447715 450,155 C450,155.552285 450.447715,156 451,156 Z" id="Line-3-Copy-19" fill="#24231F" fill-rule="nonzero"></path>
        <path d="M367,266 L371,266 C371.552285,266 372,265.552285 372,265 C372,264.447715 371.552285,264 371,264 L367,264 C366.447715,264 366,264.447715 366,265 C366,265.552285 366.447715,266 367,266 Z M381,266 L385,266 C385.552285,266 386,265.552285 386,265 C386,264.447715 385.552285,264 385,264 L381,264 C380.447715,264 380,264.447715 380,265 C380,265.552285 380.447715,266 381,266 Z M395,266 L399,266 C399.552285,266 400,265.552285 400,265 C400,264.447715 399.552285,264 399,264 L395,264 C394.447715,264 394,264.447715 394,265 C394,265.552285 394.447715,266 395,266 Z M409,266 L413,266 C413.552285,266 414,265.552285 414,265 C414,264.447715 413.552285,264 413,264 L409,264 C408.447715,264 408,264.447715 408,265 C408,265.552285 408.447715,266 409,266 Z M423,266 L427,266 C427.552285,266 428,265.552285 428,265 C428,264.447715 427.552285,264 427,264 L423,264 C422.447715,264 422,264.447715 422,265 C422,265.552285 422.447715,266 423,266 Z M437,266 L441,266 C441.552285,266 442,265.552285 442,265 C442,264.447715 441.552285,264 441,264 L437,264 C436.447715,264 436,264.447715 436,265 C436,265.552285 436.447715,266 437,266 Z" id="Line-3-Copy-20" fill="#24231F" fill-rule="nonzero"></path>
        <path d="M88,250 L92,250 C92.5522847,250 93,249.552285 93,249 C93,248.447715 92.5522847,248 92,248 L88,248 C87.4477153,248 87,248.447715 87,249 C87,249.552285 87.4477153,250 88,250 Z M102,250 L106,250 C106.552285,250 107,249.552285 107,249 C107,248.447715 106.552285,248 106,248 L102,248 C101.447715,248 101,248.447715 101,249 C101,249.552285 101.447715,250 102,250 Z M116,250 L120,250 C120.552285,250 121,249.552285 121,249 C121,248.447715 120.552285,248 120,248 L116,248 C115.447715,248 115,248.447715 115,249 C115,249.552285 115.447715,250 116,250 Z" id="Line-3-Copy-21" fill="#24231F" fill-rule="nonzero"></path>
        <path d="M42,295 L46,295 C46.5522847,295 47,294.552285 47,294 C47,293.447715 46.5522847,293 46,293 L42,293 C41.4477153,293 41,293.447715 41,294 C41,294.552285 41.4477153,295 42,295 Z M56,295 L60,295 C60.5522847,295 61,294.552285 61,294 C61,293.447715 60.5522847,293 60,293 L56,293 C55.4477153,293 55,293.447715 55,294 C55,294.552285 55.4477153,295 56,295 Z M70,295 L74,295 C74.5522847,295 75,294.552285 75,294 C75,293.447715 74.5522847,293 74,293 L70,293 C69.4477153,293 69,293.447715 69,294 C69,294.552285 69.4477153,295 70,295 Z M84,295 L88,295 C88.5522847,295 89,294.552285 89,294 C89,293.447715 88.5522847,293 88,293 L84,293 C83.4477153,293 83,293.447715 83,294 C83,294.552285 83.4477153,295 84,295 Z M98,295 L102,295 C102.552285,295 103,294.552285 103,294 C103,293.447715 102.552285,293 102,293 L98,293 C97.4477153,293 97,293.447715 97,294 C97,294.552285 97.4477153,295 98,295 Z M112,295 L116,295 C116.552285,295 117,294.552285 117,294 C117,293.447715 116.552285,293 116,293 L112,293 C111.447715,293 111,293.447715 111,294 C111,294.552285 111.447715,295 112,295 Z" id="Line-3-Copy-22" fill="#24231F" fill-rule="nonzero"></path>
        <path d="M253,349 L257,349 C257.552285,349 258,348.552285 258,348 C258,347.447715 257.552285,347 257,347 L253,347 C252.447715,347 252,347.447715 252,348 C252,348.552285 252.447715,349 253,349 Z M267,349 L271,349 C271.552285,349 272,348.552285 272,348 C272,347.447715 271.552285,347 271,347 L267,347 C266.447715,347 266,347.447715 266,348 C266,348.552285 266.447715,349 267,349 Z M281,349 L285,349 C285.552285,349 286,348.552285 286,348 C286,347.447715 285.552285,347 285,347 L281,347 C280.447715,347 280,347.447715 280,348 C280,348.552285 280.447715,349 281,349 Z M295,349 L299,349 C299.552285,349 300,348.552285 300,348 C300,347.447715 299.552285,347 299,347 L295,347 C294.447715,347 294,347.447715 294,348 C294,348.552285 294.447715,349 295,349 Z M309,349 L313,349 C313.552285,349 314,348.552285 314,348 C314,347.447715 313.552285,347 313,347 L309,347 C308.447715,347 308,347.447715 308,348 C308,348.552285 308.447715,349 309,349 Z M323,349 L327,349 C327.552285,349 328,348.552285 328,348 C328,347.447715 327.552285,347 327,347 L323,347 C322.447715,347 322,347.447715 322,348 C322,348.552285 322.447715,349 323,349 Z" id="Line-3-Copy-23" fill="#24231F" fill-rule="nonzero"></path>
        <path d="M415,287 C415.552285,287 416,287.447715 416,288 C416,288.512836 415.61396,288.935507 415.116621,288.993272 L415,289 L324.03468,289 C323.482395,289 323.03468,288.552285 323.03468,288 C323.03468,287.487164 323.42072,287.064493 323.918059,287.006728 L324.03468,287 L415,287 Z" id="Line-3-Copy-38" fill="#24231F" fill-rule="nonzero"></path>
    </g>
</svg>