<?xml version="1.0" encoding="UTF-8"?>
<svg width="480px" height="400px" viewBox="0 0 480 400" version="1.1" xmlns="http://www.w3.org/2000/svg" xmlns:xlink="http://www.w3.org/1999/xlink">
    <!-- Generator: Sketch 63.1 (92452) - https://sketch.com -->
    <title>img/IncidentResponse</title>
    <desc>Created with Sketch.</desc>
    <defs>
        <path d="M144.5,72.1248915 C144.5,32.2914138 112.152573,0 72.25,0 C32.3474268,0 0,32.2914138 0,72.1248915 C0,111.958369 144.5,111.958369 144.5,72.1248915 Z" id="path-1"></path>
        <path d="M72.25,-4 C30.1398382,-4 -4,30.0807215 -4,72.1248915 C-4,93.6821686 29.5131408,106 72.25,106 C114.986859,106 148.5,93.6821686 148.5,72.1248915 C148.5,30.0807215 114.360162,-4 72.25,-4 Z M72.25,0 C112.152573,0 144.5,32.2914138 144.5,72.1248915 C144.5,111.958369 0,111.958369 0,72.1248915 C0,32.2914138 32.3474268,0 72.25,0 Z" id="path-3"></path>
        <path d="M144.5,72.1248915 C144.5,32.2914138 112.152573,0 72.25,0 C32.3474268,0 0,32.2914138 0,72.1248915 C0,111.958369 144.5,111.958369 144.5,72.1248915 Z" id="path-5"></path>
        <path d="M72.25,-4 C30.1398382,-4 -4,30.0807215 -4,72.1248915 C-4,93.6821686 29.5131408,106 72.25,106 C114.986859,106 148.5,93.6821686 148.5,72.1248915 C148.5,30.0807215 114.360162,-4 72.25,-4 Z M72.25,0 C112.152573,0 144.5,32.2914138 144.5,72.1248915 C144.5,111.958369 0,111.958369 0,72.1248915 C0,32.2914138 32.3474268,0 72.25,0 Z" id="path-7"></path>
        <path d="M170,84.8528135 C170,37.9898986 131.944204,0 85,0 C38.0557963,0 0,37.9898986 0,84.8528135 C0,131.715728 170,131.715728 170,84.8528135 Z" id="path-9"></path>
        <path d="M85,-4 C35.8482077,-4 -4,35.7792063 -4,84.8528135 C-4,98.0256543 6.76187242,108.19707 25.1825509,114.967633 C41.1631523,120.841339 62.6475842,124 85,124 C107.352416,124 128.836848,120.841339 144.817449,114.967633 C163.238128,108.19707 174,98.0256543 174,84.8528135 C174,35.7792063 134.151792,-4 85,-4 Z M85,0 C131.944204,0 170,37.9898986 170,84.8528135 C170,131.715728 0,131.715728 0,84.8528135 C0,37.9898986 38.0557963,0 85,0 Z" id="path-11"></path>
    </defs>
    <g id="img/IncidentResponse" stroke="none" stroke-width="1" fill="none" fill-rule="evenodd">
        <circle id="Oval-Copy-18" fill="#E2E3E6" cx="130.5" cy="137.5" r="105.5"></circle>
        <circle id="Oval-Copy-20" fill="#E2E3E6" cx="77" cy="296" r="57"></circle>
        <circle id="Oval-Copy-21" fill="#E2E3E6" cx="413" cy="69" r="33"></circle>
        <circle id="Oval-Copy-19" fill="#E2E3E6" cx="319.5" cy="234.5" r="144.5"></circle>
        <g id="right" transform="translate(69.000000, 109.000000)">
            <g id="Oval" transform="translate(0.000000, 110.800000)">
                <mask id="mask-2" fill="white">
                    <use xlink:href="#path-1"></use>
                </mask>
                <use id="Mask" fill="#FFFFFF" xlink:href="#path-1"></use>
                <ellipse fill="#F0EFF0" mask="url(#mask-2)" cx="72.25" cy="0.425" rx="56.1" ry="23.375"></ellipse>
                <mask id="mask-4" fill="white">
                    <use xlink:href="#path-3"></use>
                </mask>
                <use id="Mask" fill="#24231F" fill-rule="nonzero" xlink:href="#path-3"></use>
            </g>
            <g id="face" transform="translate(19.250000, 72.250000)">
                <path d="M53,47.05 C81.1665222,47.05 104,30.1665222 104,2 C104,2 2,2 2,2 C2,30.1665222 24.8334778,47.05 53,47.05 Z" id="Oval" fill="#FFFFFF"></path>
                <path d="M106,-2.13162821e-14 L0,-2.13162821e-14 L0,2 C0,30.2216208 22.4460949,49.05 53,49.05 C83.5539051,49.05 106,30.2216208 106,2 L106,-2.13162821e-14 Z M101.956,4 L101.944949,4.30220073 C100.761934,28.8585931 80.6305666,45.05 53,45.05 L52.14785,45.044846 C24.9563675,44.7152675 5.22586998,28.6054344 4.05505147,4.30220073 L4.043,4 L101.956,4 Z" id="Oval" fill="#24231F" fill-rule="nonzero"></path>
            </g>
            <g id="hat" transform="translate(2.250000, 0.000000)">
                <path d="M70.85,2.85 C101.520395,2.85 126.442287,30.3365221 126.942341,58.1005241 L130.775,58.1 C135.234699,58.1 138.85,61.7153006 138.85,66.175 L138.85,67.025 C138.85,71.4846994 135.234699,75.1 130.775,75.1 L10.925,75.1 C6.46530065,75.1 2.85,71.4846994 2.85,67.025 L2.85,66.175 C2.85,61.7153006 6.46530065,58.1 10.925,58.1 L14.7576593,58.1005241 C15.2577128,30.3365221 40.1796046,2.85 70.85,2.85 Z" id="Combined-Shape" fill="#FFFFFF"></path>
                <path d="M79.35,3.7 C110.020395,3.7 134.942287,31.1865221 135.442341,58.9505241 L139.275,58.95 C143.734699,58.95 147.35,62.5653006 147.35,67.025 L147.35,67.875 C147.35,72.3346994 143.734699,75.95 139.275,75.95 L19.425,75.95 C14.9653006,75.95 11.35,72.3346994 11.35,67.875 L11.35,67.025 C11.35,62.5653006 14.9653006,58.95 19.425,58.95 L23.2576593,58.9505241 C23.7577128,31.1865221 48.6796046,3.7 79.35,3.7 Z" id="Combined-Shape" fill="#D40B26"></path>
                <path d="M69.0777497,0.0081774161 C39.6056691,0.530738199 14.0350113,26.0219025 12.0266384,54.5333786 L11.982,55.25 L10.0752735,55.25 C4.51073115,55.25 0,59.7607311 0,65.325 L0,66.175 C0,71.7392689 4.51073115,76.25 10.075,76.25 L129.925,76.25 C135.489269,76.25 140,71.7392689 140,66.175 L140,65.325 L139.996257,65.0476805 C139.84935,59.6116264 135.396531,55.25 129.925,55.25 L128.017,55.25 L127.973362,54.5333786 C125.944068,25.724908 99.8590522,0 70,0 L69.0777497,0.0081774161 Z M70,4 C98.5659778,4 123.593278,29.5595195 124.092665,57.28654 L124.128043,59.2507927 L129.925273,59.25 C133.28013,59.25 136,61.9698701 136,65.325 L136,66.175 C136,69.5301299 133.28013,72.25 129.925,72.25 L10.075,72.25 C6.71987014,72.25 4,69.5301299 4,66.175 L4,65.325 C4,61.9698701 6.71987014,59.25 10.075,59.25 L15.8719571,59.2507927 L15.907335,57.28654 C16.4067224,29.5595195 41.4340222,4 70,4 Z" id="Combined-Shape" fill="#24231F" fill-rule="nonzero"></path>
                <g id="cross" transform="translate(52.000000, 22.250000)">
                    <path d="M24.8,1 L24.799,11.199 L35,11.2 L35,24.8 L24.799,24.799 L24.8,35 L11.2,35 L11.2,24.799 L1,24.8 L1,11.2 L11.2,11.2 L11.2,1 L24.8,1 Z" id="Combined-Shape" fill="#9F9EA2"></path>
                    <path d="M11.2,0 L11.0833789,0.00672773133 C10.5860402,0.0644928393 10.2,0.487164161 10.2,1 L10.2,10.2 L1,10.2 C0.44771525,10.2 0,10.6477153 0,11.2 L0,24.8 L0.00672861634,24.916629 C0.0645012662,25.414 0.48722665,25.8000503 1.00009804,25.8 L10.2,25.798 L10.2,35 C10.2,35.5522847 10.6477153,36 11.2,36 L24.8,36 L24.916629,35.9932714 C25.414,35.9354987 25.8000503,35.5127734 25.8,34.999902 L25.798,25.798 L34.999902,25.8 C35.552225,25.8000541 36,25.352323 36,24.8 L36,11.2 L35.9932732,11.0833867 C35.9355156,10.5860804 35.5128983,10.2000503 35.000098,10.2 L25.798,10.199 L25.8,1.00009805 C25.8000541,0.447775011 25.352323,0 24.8,0 L11.2,0 Z M23.8,2 L23.799,11.198902 L23.8057163,11.3155237 C23.8634326,11.8128681 24.2860661,12.1989497 24.798902,12.199 L34,12.199 L34,23.8 L24.799098,23.799 L24.6824606,23.8057181 C24.1850515,23.8634495 23.7989497,24.2861911 23.799,24.799098 L23.8,34 L12.2,34 L12.2,24.799 L12.1932714,24.682371 C12.1354987,24.185 11.7127733,23.7989497 11.199902,23.799 L2,23.8 L2,12.2 L11.2,12.2 L11.3166211,12.1932723 C11.8139598,12.1355072 12.2,11.7128358 12.2,11.2 L12.2,2 L23.8,2 Z" id="Combined-Shape" fill="#24231F" fill-rule="nonzero"></path>
                </g>
            </g>
        </g>
        <g id="left" transform="translate(268.000000, 109.000000)">
            <g id="Oval" transform="translate(0.000000, 110.800000)">
                <mask id="mask-6" fill="white">
                    <use xlink:href="#path-5"></use>
                </mask>
                <use id="Mask" fill="#FFFFFF" xlink:href="#path-5"></use>
                <ellipse fill="#F0EFF0" mask="url(#mask-6)" cx="72.25" cy="0.425" rx="56.1" ry="23.375"></ellipse>
                <mask id="mask-8" fill="white">
                    <use xlink:href="#path-7"></use>
                </mask>
                <use id="Mask" fill="#24231F" fill-rule="nonzero" xlink:href="#path-7"></use>
            </g>
            <g id="face" transform="translate(19.250000, 72.250000)">
                <path d="M53,47.05 C81.1665222,47.05 104,30.1665222 104,2 C104,2 2,2 2,2 C2,30.1665222 24.8334778,47.05 53,47.05 Z" id="Oval" fill="#FFFFFF"></path>
                <path d="M106,-2.13162821e-14 L0,-2.13162821e-14 L0,2 C0,30.2216208 22.4460949,49.05 53,49.05 C83.5539051,49.05 106,30.2216208 106,2 L106,-2.13162821e-14 Z M101.956,4 L101.944949,4.30220073 C100.761934,28.8585931 80.6305666,45.05 53,45.05 L52.14785,45.044846 C24.9563675,44.7152675 5.22586998,28.6054344 4.05505147,4.30220073 L4.043,4 L101.956,4 Z" id="Oval" fill="#24231F" fill-rule="nonzero"></path>
            </g>
            <g id="hat" transform="translate(2.250000, 0.000000)">
                <path d="M70.85,2.85 C101.520395,2.85 126.442287,30.3365221 126.942341,58.1005241 L130.775,58.1 C135.234699,58.1 138.85,61.7153006 138.85,66.175 L138.85,67.025 C138.85,71.4846994 135.234699,75.1 130.775,75.1 L10.925,75.1 C6.46530065,75.1 2.85,71.4846994 2.85,67.025 L2.85,66.175 C2.85,61.7153006 6.46530065,58.1 10.925,58.1 L14.7576593,58.1005241 C15.2577128,30.3365221 40.1796046,2.85 70.85,2.85 Z" id="Combined-Shape" fill="#FFFFFF"></path>
                <path d="M79.35,3.7 C110.020395,3.7 134.942287,31.1865221 135.442341,58.9505241 L139.275,58.95 C143.734699,58.95 147.35,62.5653006 147.35,67.025 L147.35,67.875 C147.35,72.3346994 143.734699,75.95 139.275,75.95 L19.425,75.95 C14.9653006,75.95 11.35,72.3346994 11.35,67.875 L11.35,67.025 C11.35,62.5653006 14.9653006,58.95 19.425,58.95 L23.2576593,58.9505241 C23.7577128,31.1865221 48.6796046,3.7 79.35,3.7 Z" id="Combined-Shape" fill="#D40B26"></path>
                <path d="M69.0777497,0.0081774161 C39.6056691,0.530738199 14.0350113,26.0219025 12.0266384,54.5333786 L11.982,55.25 L10.0752735,55.25 C4.51073115,55.25 0,59.7607311 0,65.325 L0,66.175 C0,71.7392689 4.51073115,76.25 10.075,76.25 L129.925,76.25 C135.489269,76.25 140,71.7392689 140,66.175 L140,65.325 L139.996257,65.0476805 C139.84935,59.6116264 135.396531,55.25 129.925,55.25 L128.017,55.25 L127.973362,54.5333786 C125.944068,25.724908 99.8590522,0 70,0 L69.0777497,0.0081774161 Z M70,4 C98.5659778,4 123.593278,29.5595195 124.092665,57.28654 L124.128043,59.2507927 L129.925273,59.25 C133.28013,59.25 136,61.9698701 136,65.325 L136,66.175 C136,69.5301299 133.28013,72.25 129.925,72.25 L10.075,72.25 C6.71987014,72.25 4,69.5301299 4,66.175 L4,65.325 C4,61.9698701 6.71987014,59.25 10.075,59.25 L15.8719571,59.2507927 L15.907335,57.28654 C16.4067224,29.5595195 41.4340222,4 70,4 Z" id="Combined-Shape" fill="#24231F" fill-rule="nonzero"></path>
                <g id="cross" transform="translate(52.000000, 22.250000)">
                    <path d="M24.8,1 L24.799,11.199 L35,11.2 L35,24.8 L24.799,24.799 L24.8,35 L11.2,35 L11.2,24.799 L1,24.8 L1,11.2 L11.2,11.2 L11.2,1 L24.8,1 Z" id="Combined-Shape" fill="#9F9EA2"></path>
                    <path d="M11.2,0 L11.0833789,0.00672773133 C10.5860402,0.0644928393 10.2,0.487164161 10.2,1 L10.2,10.2 L1,10.2 C0.44771525,10.2 0,10.6477153 0,11.2 L0,24.8 L0.00672861634,24.916629 C0.0645012662,25.414 0.48722665,25.8000503 1.00009804,25.8 L10.2,25.798 L10.2,35 C10.2,35.5522847 10.6477153,36 11.2,36 L24.8,36 L24.916629,35.9932714 C25.414,35.9354987 25.8000503,35.5127734 25.8,34.999902 L25.798,25.798 L34.999902,25.8 C35.552225,25.8000541 36,25.352323 36,24.8 L36,11.2 L35.9932732,11.0833867 C35.9355156,10.5860804 35.5128983,10.2000503 35.000098,10.2 L25.798,10.199 L25.8,1.00009805 C25.8000541,0.447775011 25.352323,0 24.8,0 L11.2,0 Z M23.8,2 L23.799,11.198902 L23.8057163,11.3155237 C23.8634326,11.8128681 24.2860661,12.1989497 24.798902,12.199 L34,12.199 L34,23.8 L24.799098,23.799 L24.6824606,23.8057181 C24.1850515,23.8634495 23.7989497,24.2861911 23.799,24.799098 L23.8,34 L12.2,34 L12.2,24.799 L12.1932714,24.682371 C12.1354987,24.185 11.7127733,23.7989497 11.199902,23.799 L2,23.8 L2,12.2 L11.2,12.2 L11.3166211,12.1932723 C11.8139598,12.1355072 12.2,11.7128358 12.2,11.2 L12.2,2 L23.8,2 Z" id="Combined-Shape" fill="#24231F" fill-rule="nonzero"></path>
                </g>
            </g>
        </g>
        <g id="center" transform="translate(155.000000, 104.000000)">
            <g id="Oval" transform="translate(0.000000, 131.000000)">
                <mask id="mask-10" fill="white">
                    <use xlink:href="#path-9"></use>
                </mask>
                <use id="Mask" fill="#FFFFFF" xlink:href="#path-9"></use>
                <ellipse fill="#F0EFF0" mask="url(#mask-10)" cx="85" cy="0.5" rx="66" ry="27.5"></ellipse>
                <mask id="mask-12" fill="white">
                    <use xlink:href="#path-11"></use>
                </mask>
                <use id="Mask" fill="#24231F" fill-rule="nonzero" xlink:href="#path-11"></use>
            </g>
            <g id="face" transform="translate(23.000000, 86.000000)">
                <path d="M62,55 C95.137085,55 122,35.137085 122,2 C122,2 2,2 2,2 C2,35.137085 28.862915,55 62,55 Z" id="Oval" fill="#FFFFFF"></path>
                <path d="M124,0 L0,0 L0,2 C0,34.9919028 26.2367691,57 62,57 C97.7632309,57 124,34.9919028 124,2 L124,0 Z M119.963,4 L119.934778,4.72718868 C118.533217,33.8167964 94.6836126,53 62,53 L60.9919982,52.9938937 C28.8270288,52.6034172 5.45233416,33.5169036 4.06522225,4.72718868 L4.036,4 L119.963,4 Z" id="Oval" fill="#24231F" fill-rule="nonzero"></path>
            </g>
            <g id="hat" transform="translate(2.800000, 0.800000)">
                <path d="M83.2,3.2 C119.282604,3.2 148.602342,35.5367003 149.190979,68.200034 L153.7,68.2 C158.946705,68.2 163.2,72.4532949 163.2,77.7 L163.2,78.7 C163.2,83.9467051 158.946705,88.2 153.7,88.2 L12.7,88.2 C7.45329488,88.2 3.2,83.9467051 3.2,78.7 L3.2,77.7 C3.2,72.4532949 7.45329488,68.2 12.7,68.2 L17.2090214,68.200034 C17.7976578,35.5367003 47.1173963,3.2 83.2,3.2 Z" id="Combined-Shape" fill="#FFFFFF"></path>
                <path d="M93.2,4.2 C129.282604,4.2 158.602342,36.5367003 159.190979,69.200034 L163.7,69.2 C168.946705,69.2 173.2,73.4532949 173.2,78.7 L173.2,79.7 C173.2,84.9467051 168.946705,89.2 163.7,89.2 L22.7,89.2 C17.4532949,89.2 13.2,84.9467051 13.2,79.7 L13.2,78.7 C13.2,73.4532949 17.4532949,69.2 22.7,69.2 L27.2090214,69.200034 C27.7976578,36.5367003 57.1173963,4.2 93.2,4.2 Z" id="Combined-Shape" fill="#D40B26"></path>
                <path d="M81.1175437,0.00959998872 C46.5257402,0.623067081 16.5066733,30.5487199 14.148696,64.0134894 L14.088,65 L11.7000166,65 C5.23826843,65 7.38964445e-13,70.2382684 7.38964445e-13,76.7 L7.38964445e-13,77.7 C7.38964445e-13,84.1617316 5.23826843,89.4 11.7,89.4 L152.7,89.4 C159.161732,89.4 164.4,84.1617316 164.4,77.7 L164.4,76.7 L164.396295,76.4026496 C164.238533,70.0783308 159.06232,65 152.7,65 L150.311,65 L150.251304,64.0134894 C147.868764,30.2001285 117.245861,4.26325641e-14 82.2,4.26325641e-14 L81.1175437,0.00959998872 Z M82.2,4.4 C115.891565,4.4 145.402004,34.5377418 145.991336,67.2396745 L146.030269,69.4000503 L152.700017,69.4 C156.731679,69.4 160,72.6683213 160,76.7 L160,77.7 C160,81.7316787 156.731679,85 152.7,85 L11.7,85 C7.66832133,85 4.4,81.7316787 4.4,77.7 L4.4,76.7 C4.4,72.6683213 7.66832133,69.4 11.7,69.4 L18.3697314,69.4000503 L18.4086643,67.2396745 C18.9979963,34.5377418 48.5084355,4.4 82.2,4.4 Z" id="Combined-Shape" fill="#24231F" fill-rule="nonzero"></path>
                <g id="cross" transform="translate(61.200000, 26.200000)">
                    <path d="M29,1 L29,12.999 L41,13 L41,29 L29,29 L29,41 L13,41 L13,29 L1,29 L1,13 L13,13 L13,1 L29,1 Z" id="Combined-Shape" fill="#9F9EA2"></path>
                    <path d="M13,0 L12.8833789,0.00672773133 C12.3860402,0.0644928393 12,0.487164161 12,1 L12,12 L1,12 C0.44771525,12 0,12.4477153 0,13 L0,29 L0.00672773133,29.1166211 C0.0644928393,29.6139598 0.487164161,30 1,30 L12,30 L12,41 C12,41.5522847 12.4477153,42 13,42 L29,42 L29.1166211,41.9932723 C29.6139598,41.9355072 30,41.5128358 30,41 L30,30 L41,30 C41.5522847,30 42,29.5522847 42,29 L42,13 L41.993273,12.8833855 C41.9355143,12.3860744 41.512889,12.0000427 41.0000833,12 L30,11.999 L30,1 C30,0.44771525 29.5522847,0 29,0 L13,0 Z M28,2 L28,12.999 L28.006727,13.1156145 C28.0644857,13.6129256 28.487111,13.9989573 28.9999167,13.999 L40,13.999 L40,28 L29,28 L28.8833789,28.0067277 C28.3860402,28.0644928 28,28.4871642 28,29 L28,40 L14,40 L14,29 L13.9932723,28.8833789 C13.9355072,28.3860402 13.5128358,28 13,28 L2,28 L2,14 L13,14 L13.1166211,13.9932723 C13.6139598,13.9355072 14,13.5128358 14,13 L14,2 L28,2 Z" id="Combined-Shape" fill="#24231F" fill-rule="nonzero"></path>
                </g>
            </g>
        </g>
        <rect id="Rectangle-Copy-4" fill="#EABDBF" x="59" y="123" width="10" height="10"></rect>
        <rect id="Rectangle-Copy-15" fill="#EABDBF" x="20" y="148" width="10" height="10"></rect>
        <rect id="Rectangle-Copy-5" fill="#EABDBF" x="312" y="49" width="10" height="10"></rect>
        <rect id="Rectangle-Copy-6" fill="#EABDBF" x="427" y="239" width="10" height="10"></rect>
        <rect id="Rectangle-Copy-7" fill="#EABDBF" x="83" y="345" width="10" height="10"></rect>
        <rect id="Rectangle-Copy-8" fill="#EABDBF" x="100" y="48" width="10" height="10"></rect>
        <rect id="Rectangle-Copy-9" fill="#EABDBF" x="343" y="360" width="10" height="10"></rect>
        <rect id="Rectangle-Copy-10" fill="#EABDBF" x="436" y="125" width="10" height="10"></rect>
        <rect id="Rectangle-Copy-11" fill="#EABDBF" x="69" y="217" width="10" height="10"></rect>
        <rect id="Rectangle-Copy-12" fill="#EABDBF" x="168" y="91" width="10" height="10"></rect>
        <rect id="Rectangle-Copy-14" fill="#EABDBF" x="417" y="53" width="10" height="10"></rect>
        <rect id="Rectangle-Copy-13" fill="#EABDBF" x="186" y="365" width="10" height="10"></rect>
        <rect id="Rectangle" fill="#FFFFFF" x="202" y="84" width="76" height="14" rx="2"></rect>
        <path d="M276,83 L204,83 C202.343146,83 201,84.3431458 201,86 L201,96 C201,97.6568542 202.343146,99 204,99 L276,99 C277.656854,99 279,97.6568542 279,96 L279,86 C279,84.3431458 277.656854,83 276,83 Z M204,85 L276,85 C276.552285,85 277,85.4477153 277,86 L277,96 C277,96.5522847 276.552285,97 276,97 L204,97 C203.447715,97 203,96.5522847 203,96 L203,86 C203,85.4477153 203.447715,85 204,85 Z" id="Rectangle" fill="#24231F" fill-rule="nonzero"></path>
        <path d="M203,93 L277,93 L277,96 C277,96.5522847 276.552285,97 276,97 L204,97 C203.447715,97 203,96.5522847 203,96 L203,93 L203,93 Z" id="Rectangle" fill="#9F9EA2"></path>
        <path d="M224,40 L256,40 C263.731986,40 270,46.2680135 270,54 L270,84 L270,84 L210,84 L210,54 C210,46.2680135 216.268014,40 224,40 Z" id="Rectangle-Copy-2" fill="#EABDBF"></path>
        <path d="M256,39 L224,39 C215.715729,39 209,45.7157288 209,54 L209,85 L271,85 L271,54 C271,45.7157288 264.284271,39 256,39 Z M256,41 L256.306856,41.0035504 C263.344808,41.1665717 269,46.9228654 269,54 L269,83 L211,83 L211,54 C211,46.8202983 216.820298,41 224,41 L256,41 Z" id="Rectangle-Copy-2" fill="#24231F" fill-rule="nonzero"></path>
        <circle id="Oval" fill="#D40B26" cx="240" cy="58" r="7"></circle>
        <path d="M240,50 C235.581722,50 232,53.581722 232,58 C232,62.418278 235.581722,66 240,66 C244.418278,66 248,62.418278 248,58 C248,53.581722 244.418278,50 240,50 Z M240,52 C243.313708,52 246,54.6862915 246,58 C246,61.3137085 243.313708,64 240,64 C236.686292,64 234,61.3137085 234,58 C234,54.6862915 236.686292,52 240,52 Z" id="Oval" fill="#24231F" fill-rule="nonzero"></path>
        <rect id="Rectangle" fill="#24231F" x="239" y="65" width="2" height="19"></rect>
        <rect id="Rectangle" fill="#24231F" x="239" y="16" width="2" height="10" rx="1"></rect>
        <rect id="Rectangle" fill="#24231F" transform="translate(256.559673, 23.763321) rotate(19.000000) translate(-256.559673, -23.763321) " x="255.559673" y="18.7633207" width="2" height="10" rx="1"></rect>
        <rect id="Rectangle" fill="#24231F" transform="translate(271.324848, 31.753834) rotate(38.000000) translate(-271.324848, -31.753834) " x="270.324848" y="26.753834" width="2" height="10" rx="1"></rect>
        <rect id="Rectangle" fill="#24231F" transform="translate(282.695490, 44.105644) rotate(57.000000) translate(-282.695490, -44.105644) " x="281.69549" y="39.1056439" width="2" height="10" rx="1"></rect>
        <rect id="Rectangle" fill="#24231F" transform="translate(197.304510, 44.105644) rotate(303.000000) translate(-197.304510, -44.105644) " x="196.30451" y="39.1056439" width="2" height="10" rx="1"></rect>
        <rect id="Rectangle" fill="#24231F" transform="translate(208.675152, 31.753834) rotate(322.000000) translate(-208.675152, -31.753834) " x="207.675152" y="26.753834" width="2" height="10" rx="1"></rect>
        <rect id="Rectangle" fill="#24231F" transform="translate(223.440327, 23.763321) rotate(341.000000) translate(-223.440327, -23.763321) " x="222.440327" y="18.7633207" width="2" height="10" rx="1"></rect>
        <path d="M32,199 L36,199 C36.5522847,199 37,198.552285 37,198 C37,197.447715 36.5522847,197 36,197 L32,197 C31.4477153,197 31,197.447715 31,198 C31,198.552285 31.4477153,199 32,199 Z M46,199 L50,199 C50.5522847,199 51,198.552285 51,198 C51,197.447715 50.5522847,197 50,197 L46,197 C45.4477153,197 45,197.447715 45,198 C45,198.552285 45.4477153,199 46,199 Z M60,199 L64,199 C64.5522847,199 65,198.552285 65,198 C65,197.447715 64.5522847,197 64,197 L60,197 C59.4477153,197 59,197.447715 59,198 C59,198.552285 59.4477153,199 60,199 Z M74,199 L78,199 C78.5522847,199 79,198.552285 79,198 C79,197.447715 78.5522847,197 78,197 L74,197 C73.4477153,197 73,197.447715 73,198 C73,198.552285 73.4477153,199 74,199 Z M88,199 L92,199 C92.5522847,199 93,198.552285 93,198 C93,197.447715 92.5522847,197 92,197 L88,197 C87.4477153,197 87,197.447715 87,198 C87,198.552285 87.4477153,199 88,199 Z" id="Line-3-Copy-23" fill="#24231F" fill-rule="nonzero"></path>
        <path d="M254,110 L258,110 C258.552285,110 259,109.552285 259,109 C259,108.447715 258.552285,108 258,108 L254,108 C253.447715,108 253,108.447715 253,109 C253,109.552285 253.447715,110 254,110 Z M268,110 L272,110 C272.552285,110 273,109.552285 273,109 C273,108.447715 272.552285,108 272,108 L268,108 C267.447715,108 267,108.447715 267,109 C267,109.552285 267.447715,110 268,110 Z M282,110 L286,110 C286.552285,110 287,109.552285 287,109 C287,108.447715 286.552285,108 286,108 L282,108 C281.447715,108 281,108.447715 281,109 C281,109.552285 281.447715,110 282,110 Z M296,110 L300,110 C300.552285,110 301,109.552285 301,109 C301,108.447715 300.552285,108 300,108 L296,108 C295.447715,108 295,108.447715 295,109 C295,109.552285 295.447715,110 296,110 Z M310,110 L314,110 C314.552285,110 315,109.552285 315,109 C315,108.447715 314.552285,108 314,108 L310,108 C309.447715,108 309,108.447715 309,109 C309,109.552285 309.447715,110 310,110 Z" id="Line-3-Copy-25" fill="#24231F" fill-rule="nonzero"></path>
        <path d="M164,70 L168,70 C168.552285,70 169,69.5522847 169,69 C169,68.4477153 168.552285,68 168,68 L164,68 C163.447715,68 163,68.4477153 163,69 C163,69.5522847 163.447715,70 164,70 Z M178,70 L182,70 C182.552285,70 183,69.5522847 183,69 C183,68.4477153 182.552285,68 182,68 L178,68 C177.447715,68 177,68.4477153 177,69 C177,69.5522847 177.447715,70 178,70 Z M192,70 L196,70 C196.552285,70 197,69.5522847 197,69 C197,68.4477153 196.552285,68 196,68 L192,68 C191.447715,68 191,68.4477153 191,69 C191,69.5522847 191.447715,70 192,70 Z M206,70 L210,70 C210.552285,70 211,69.5522847 211,69 C211,68.4477153 210.552285,68 210,68 L206,68 C205.447715,68 205,68.4477153 205,69 C205,69.5522847 205.447715,70 206,70 Z" id="Line-3-Copy-26" fill="#24231F" fill-rule="nonzero"></path>
        <path d="M312,343 L316,343 C316.552285,343 317,342.552285 317,342 C317,341.447715 316.552285,341 316,341 L312,341 C311.447715,341 311,341.447715 311,342 C311,342.552285 311.447715,343 312,343 Z M326,343 L330,343 C330.552285,343 331,342.552285 331,342 C331,341.447715 330.552285,341 330,341 L326,341 C325.447715,341 325,341.447715 325,342 C325,342.552285 325.447715,343 326,343 Z M340,343 L344,343 C344.552285,343 345,342.552285 345,342 C345,341.447715 344.552285,341 344,341 L340,341 C339.447715,341 339,341.447715 339,342 C339,342.552285 339.447715,343 340,343 Z M354,343 L358,343 C358.552285,343 359,342.552285 359,342 C359,341.447715 358.552285,341 358,341 L354,341 C353.447715,341 353,341.447715 353,342 C353,342.552285 353.447715,343 354,343 Z M368,343 L372,343 C372.552285,343 373,342.552285 373,342 C373,341.447715 372.552285,341 372,341 L368,341 C367.447715,341 367,341.447715 367,342 C367,342.552285 367.447715,343 368,343 Z M382,343 L386,343 C386.552285,343 387,342.552285 387,342 C387,341.447715 386.552285,341 386,341 L382,341 C381.447715,341 381,341.447715 381,342 C381,342.552285 381.447715,343 382,343 Z M396,343 L400,343 C400.552285,343 401,342.552285 401,342 C401,341.447715 400.552285,341 400,341 L396,341 C395.447715,341 395,341.447715 395,342 C395,342.552285 395.447715,343 396,343 Z M410,343 L414,343 C414.552285,343 415,342.552285 415,342 C415,341.447715 414.552285,341 414,341 L410,341 C409.447715,341 409,341.447715 409,342 C409,342.552285 409.447715,343 410,343 Z M424,343 L428,343 C428.552285,343 429,342.552285 429,342 C429,341.447715 428.552285,341 428,341 L424,341 C423.447715,341 423,341.447715 423,342 C423,342.552285 423.447715,343 424,343 Z" id="Line-3-Copy-24" fill="#24231F" fill-rule="nonzero"></path>
        <path d="M39,270 L43,270 C43.5522847,270 44,269.552285 44,269 C44,268.447715 43.5522847,268 43,268 L39,268 C38.4477153,268 38,268.447715 38,269 C38,269.552285 38.4477153,270 39,270 Z M53,270 L57,270 C57.5522847,270 58,269.552285 58,269 C58,268.447715 57.5522847,268 57,268 L53,268 C52.4477153,268 52,268.447715 52,269 C52,269.552285 52.4477153,270 53,270 Z M67,270 L71,270 C71.5522847,270 72,269.552285 72,269 C72,268.447715 71.5522847,268 71,268 L67,268 C66.4477153,268 66,268.447715 66,269 C66,269.552285 66.4477153,270 67,270 Z" id="Line-3-Copy-28" fill="#24231F" fill-rule="nonzero"></path>
        <g id="放大鏡" transform="translate(45.627989, 328.054328) rotate(-44.000000) translate(-45.627989, -328.054328) translate(25.627989, 293.554328)">
            <circle id="Oval" fill="#FFFFFF" cx="20" cy="20" r="20"></circle>
            <path d="M20,-1 C8.40202025,-1 -1,8.40202025 -1,20 C-1,31.5979797 8.40202025,41 20,41 C31.5979797,41 41,31.5979797 41,20 C41,8.40202025 31.5979797,-1 20,-1 Z M20,1 C30.4934102,1 39,9.50658975 39,20 C39,30.4934102 30.4934102,39 20,39 C9.50658975,39 1,30.4934102 1,20 C1,9.50658975 9.50658975,1 20,1 Z" id="Oval" fill="#24231F" fill-rule="nonzero"></path>
            <rect id="Rectangle" fill="#24231F" x="18" y="40" width="4" height="4"></rect>
            <rect id="Rectangle" fill="#F0EFF0" x="17" y="44" width="6" height="24" rx="2"></rect>
            <path d="M21,43 L19,43 C17.3431458,43 16,44.3431458 16,46 L16,66 C16,67.6568542 17.3431458,69 19,69 L21,69 C22.6568542,69 24,67.6568542 24,66 L24,46 C24,44.3431458 22.6568542,43 21,43 Z M19,45 L21,45 C21.5522847,45 22,45.4477153 22,46 L22,66 C22,66.5522847 21.5522847,67 21,67 L19,67 C18.4477153,67 18,66.5522847 18,66 L18,46 C18,45.4477153 18.4477153,45 19,45 Z" id="Rectangle" fill="#24231F" fill-rule="nonzero"></path>
            <path d="M13.8023613,42.3860581 C22.0866326,42.3860581 28.8023613,35.6703294 28.8023613,27.3860581 C28.8023613,19.1017869 22.0866326,12.3860581 13.8023613,12.3860581 C13.8023613,12.3860581 13.8023613,42.3860581 13.8023613,42.3860581 Z" id="Oval" fill="#EABDBF" transform="translate(21.302361, 27.386058) rotate(80.000000) translate(-21.302361, -27.386058) "></path>
            <path d="M20,4 C11.163444,4 4,11.163444 4,20 C4,28.836556 11.163444,36 20,36 C28.836556,36 36,28.836556 36,20 C36,11.163444 28.836556,4 20,4 Z M20,6 C27.7319865,6 34,12.2680135 34,20 C34,27.7319865 27.7319865,34 20,34 C12.2680135,34 6,27.7319865 6,20 C6,12.2680135 12.2680135,6 20,6 Z" id="Oval" fill="#24231F" fill-rule="nonzero"></path>
        </g>
        <g id="放大鏡-copy" transform="translate(388.933331, 84.334988) rotate(-44.000000) translate(-388.933331, -84.334988) translate(367.933331, 49.834988)">
            <circle id="Oval" fill="#FFFFFF" cx="21" cy="21" r="20"></circle>
            <path d="M21,0 C9.40202025,0 1.8189894e-12,9.40202025 1.8189894e-12,21 C1.8189894e-12,32.5979797 9.40202025,42 21,42 C32.5979797,42 42,32.5979797 42,21 C42,9.40202025 32.5979797,0 21,0 Z M21,2 C31.4934102,2 40,10.5065898 40,21 C40,31.4934102 31.4934102,40 21,40 C10.5065898,40 2,31.4934102 2,21 C2,10.5065898 10.5065898,2 21,2 Z" id="Oval" fill="#24231F" fill-rule="nonzero"></path>
            <rect id="Rectangle" fill="#24231F" x="19" y="41" width="4" height="4"></rect>
            <rect id="Rectangle" fill="#F0EFF0" x="18" y="45" width="6" height="24" rx="2"></rect>
            <path d="M22,44 L20,44 C18.3431458,44 17,45.3431458 17,47 L17,67 C17,68.6568542 18.3431458,70 20,70 L22,70 C23.6568542,70 25,68.6568542 25,67 L25,47 C25,45.3431458 23.6568542,44 22,44 Z M20,46 L22,46 C22.5522847,46 23,46.4477153 23,47 L23,67 C23,67.5522847 22.5522847,68 22,68 L20,68 C19.4477153,68 19,67.5522847 19,67 L19,47 C19,46.4477153 19.4477153,46 20,46 Z" id="Rectangle" fill="#24231F" fill-rule="nonzero"></path>
            <path d="M14.8023613,43.3860581 C23.0866326,43.3860581 29.8023613,36.6703294 29.8023613,28.3860581 C29.8023613,20.1017869 23.0866326,13.3860581 14.8023613,13.3860581 C14.8023613,13.3860581 14.8023613,43.3860581 14.8023613,43.3860581 Z" id="Oval" fill="#EABDBF" transform="translate(22.302361, 28.386058) rotate(80.000000) translate(-22.302361, -28.386058) "></path>
            <path d="M21,5 C12.163444,5 5,12.163444 5,21 C5,29.836556 12.163444,37 21,37 C29.836556,37 37,29.836556 37,21 C37,12.163444 29.836556,5 21,5 Z M21,7 C28.7319865,7 35,13.2680135 35,21 C35,28.7319865 28.7319865,35 21,35 C13.2680135,35 7,28.7319865 7,21 C7,13.2680135 13.2680135,7 21,7 Z" id="Oval" fill="#24231F" fill-rule="nonzero"></path>
        </g>
        <path d="M285,78 L289,78 C289.552285,78 290,77.5522847 290,77 C290,76.4477153 289.552285,76 289,76 L285,76 C284.447715,76 284,76.4477153 284,77 C284,77.5522847 284.447715,78 285,78 Z M299,78 L303,78 C303.552285,78 304,77.5522847 304,77 C304,76.4477153 303.552285,76 303,76 L299,76 C298.447715,76 298,76.4477153 298,77 C298,77.5522847 298.447715,78 299,78 Z M313,78 L317,78 C317.552285,78 318,77.5522847 318,77 C318,76.4477153 317.552285,76 317,76 L313,76 C312.447715,76 312,76.4477153 312,77 C312,77.5522847 312.447715,78 313,78 Z M327,78 L331,78 C331.552285,78 332,77.5522847 332,77 C332,76.4477153 331.552285,76 331,76 L327,76 C326.447715,76 326,76.4477153 326,77 C326,77.5522847 326.447715,78 327,78 Z M341,78 L345,78 C345.552285,78 346,77.5522847 346,77 C346,76.4477153 345.552285,76 345,76 L341,76 C340.447715,76 340,76.4477153 340,77 C340,77.5522847 340.447715,78 341,78 Z M355,78 L359,78 C359.552285,78 360,77.5522847 360,77 C360,76.4477153 359.552285,76 359,76 L355,76 C354.447715,76 354,76.4477153 354,77 C354,77.5522847 354.447715,78 355,78 Z" id="Line-3-Copy-27" fill="#24231F" fill-rule="nonzero"></path>
        <path d="M165.497332,80 C166.049617,80 166.497332,80.4477153 166.497332,81 C166.497332,81.5128358 166.111292,81.9355072 165.613953,81.9932723 L165.497332,82 L35.5173399,82 C34.9650552,82 34.5173399,81.5522847 34.5173399,81 C34.5173399,80.4871642 34.9033801,80.0644928 35.4007188,80.0067277 L35.5173399,80 L165.497332,80 Z" id="Line-3-Copy-40" fill="#24231F" fill-rule="nonzero"></path>
        <path d="M402,213 C402.552285,213 403,213.447715 403,214 C403,214.512836 402.61396,214.935507 402.116621,214.993272 L402,215 L379.010504,215 C378.458219,215 378.010504,214.552285 378.010504,214 C378.010504,213.487164 378.396544,213.064493 378.893883,213.006728 L379.010504,213 L402,213 Z" id="Line-3-Copy-43" fill="#24231F" fill-rule="nonzero"></path>
        <path d="M155.996832,330 C156.549117,330 156.996832,330.447715 156.996832,331 C156.996832,331.512836 156.610792,331.935507 156.113453,331.993272 L155.996832,332 L105,332 C104.447715,332 104,331.552285 104,331 C104,330.487164 104.38604,330.064493 104.883379,330.006728 L105,330 L155.996832,330 Z" id="Line-3-Copy-44" fill="#24231F" fill-rule="nonzero"></path>
        <path d="M137.523676,93 C138.07596,93 138.523676,93.4477153 138.523676,94 C138.523676,94.5128358 138.137635,94.9355072 137.640297,94.9932723 L137.523676,95 L66.5310118,95 C65.9787271,95 65.5310118,94.5522847 65.5310118,94 C65.5310118,93.4871642 65.917052,93.0644928 66.4143907,93.0067277 L66.5310118,93 L137.523676,93 Z" id="Line-3-Copy-41" fill="#24231F" fill-rule="nonzero"></path>
        <path d="M403.006336,103 C403.55862,103 404.006336,103.447715 404.006336,104 C404.006336,104.512836 403.620296,104.935507 403.122957,104.993272 L403.006336,105 L332.013672,105 C331.461387,105 331.013672,104.552285 331.013672,104 C331.013672,103.487164 331.399712,103.064493 331.897051,103.006728 L332.013672,103 L403.006336,103 Z" id="Line-3-Copy-46" fill="#24231F" fill-rule="nonzero"></path>
        <path d="M432,200 C432.552285,200 433,200.447715 433,201 C433,201.512836 432.61396,201.935507 432.116621,201.993272 L432,202 L388.013672,202 C387.461387,202 387.013672,201.552285 387.013672,201 C387.013672,200.487164 387.399712,200.064493 387.897051,200.006728 L388.013672,200 L432,200 Z" id="Line-3-Copy-42" fill="#24231F" fill-rule="nonzero"></path>
        <path d="M82.9968321,246 C83.5491169,246 83.9968321,246.447715 83.9968321,247 C83.9968321,247.512836 83.6107919,247.935507 83.1134533,247.993272 L82.9968321,248 L60,248 C59.4477153,248 59,247.552285 59,247 C59,246.487164 59.3860402,246.064493 59.8833789,246.006728 L60,246 L82.9968321,246 Z" id="Line-3-Copy-47" fill="#24231F" fill-rule="nonzero"></path>
        <path d="M89.0020841,238 C89.5543689,238 90.0020841,238.447715 90.0020841,239 C90.0020841,239.512836 89.6160439,239.935507 89.1187053,239.993272 L89.0020841,240 L43,240 C42.4477153,240 42,239.552285 42,239 C42,238.487164 42.3860402,238.064493 42.8833789,238.006728 L43,238 L89.0020841,238 Z" id="Line-3-Copy-48" fill="#24231F" fill-rule="nonzero"></path>
        <path d="M332.998958,364 C333.551243,364 333.998958,364.447715 333.998958,365 C333.998958,365.512836 333.612918,365.935507 333.115579,365.993272 L332.998958,366 L250.00421,366 C249.451925,366 249.00421,365.552285 249.00421,365 C249.00421,364.487164 249.39025,364.064493 249.887589,364.006728 L250.00421,364 L332.998958,364 Z" id="Line-3-Copy-45" fill="#24231F" fill-rule="nonzero"></path>
    </g>
</svg>