<?xml version="1.0" encoding="UTF-8"?>
<svg width="480px" height="400px" viewBox="0 0 480 400" version="1.1" xmlns="http://www.w3.org/2000/svg" xmlns:xlink="http://www.w3.org/1999/xlink">
    <!-- Generator: Sketch 63.1 (92452) - https://sketch.com -->
    <title>img/MDRplatform</title>
    <desc>Created with Sketch.</desc>
    <g id="img/MDRplatform" stroke="none" stroke-width="1" fill="none" fill-rule="evenodd">
        <circle id="Oval-Copy-19" fill="#E2E3E6" cx="177.5" cy="158.5" r="144.5"></circle>
        <circle id="Oval-Copy-20" fill="#E2E3E6" cx="340" cy="268" r="123"></circle>
        <path d="M73.6,39 L77.6,39 C78.1522847,39 78.6,38.5522847 78.6,38 C78.6,37.4477153 78.1522847,37 77.6,37 L73.6,37 C73.0477153,37 72.6,37.4477153 72.6,38 C72.6,38.5522847 73.0477153,39 73.6,39 Z M87.6,39 L91.6,39 C92.1522847,39 92.6,38.5522847 92.6,38 C92.6,37.4477153 92.1522847,37 91.6,37 L87.6,37 C87.0477153,37 86.6,37.4477153 86.6,38 C86.6,38.5522847 87.0477153,39 87.6,39 Z M101.6,39 L105.6,39 C106.152285,39 106.6,38.5522847 106.6,38 C106.6,37.4477153 106.152285,37 105.6,37 L101.6,37 C101.047715,37 100.6,37.4477153 100.6,38 C100.6,38.5522847 101.047715,39 101.6,39 Z M115.6,39 L119.6,39 C120.152285,39 120.6,38.5522847 120.6,38 C120.6,37.4477153 120.152285,37 119.6,37 L115.6,37 C115.047715,37 114.6,37.4477153 114.6,38 C114.6,38.5522847 115.047715,39 115.6,39 Z M129.6,39 L133.6,39 C134.152285,39 134.6,38.5522847 134.6,38 C134.6,37.4477153 134.152285,37 133.6,37 L129.6,37 C129.047715,37 128.6,37.4477153 128.6,38 C128.6,38.5522847 129.047715,39 129.6,39 Z M143.6,39 L147.6,39 C148.152285,39 148.6,38.5522847 148.6,38 C148.6,37.4477153 148.152285,37 147.6,37 L143.6,37 C143.047715,37 142.6,37.4477153 142.6,38 C142.6,38.5522847 143.047715,39 143.6,39 Z M157.6,39 L161.6,39 C162.152285,39 162.6,38.5522847 162.6,38 C162.6,37.4477153 162.152285,37 161.6,37 L157.6,37 C157.047715,37 156.6,37.4477153 156.6,38 C156.6,38.5522847 157.047715,39 157.6,39 Z M171.6,39 L175.6,39 C176.152285,39 176.6,38.5522847 176.6,38 C176.6,37.4477153 176.152285,37 175.6,37 L171.6,37 C171.047715,37 170.6,37.4477153 170.6,38 C170.6,38.5522847 171.047715,39 171.6,39 Z M185.6,39 L189.6,39 C190.152285,39 190.6,38.5522847 190.6,38 C190.6,37.4477153 190.152285,37 189.6,37 L185.6,37 C185.047715,37 184.6,37.4477153 184.6,38 C184.6,38.5522847 185.047715,39 185.6,39 Z M199.6,39 L203.6,39 C204.152285,39 204.6,38.5522847 204.6,38 C204.6,37.4477153 204.152285,37 203.6,37 L199.6,37 C199.047715,37 198.6,37.4477153 198.6,38 C198.6,38.5522847 199.047715,39 199.6,39 Z M213.6,39 L217.6,39 C218.152285,39 218.6,38.5522847 218.6,38 C218.6,37.4477153 218.152285,37 217.6,37 L213.6,37 C213.047715,37 212.6,37.4477153 212.6,38 C212.6,38.5522847 213.047715,39 213.6,39 Z M227.6,39 L231.6,39 C232.152285,39 232.6,38.5522847 232.6,38 C232.6,37.4477153 232.152285,37 231.6,37 L227.6,37 C227.047715,37 226.6,37.4477153 226.6,38 C226.6,38.5522847 227.047715,39 227.6,39 Z M241.6,39 L245.6,39 C246.152285,39 246.6,38.5522847 246.6,38 C246.6,37.4477153 246.152285,37 245.6,37 L241.6,37 C241.047715,37 240.6,37.4477153 240.6,38 C240.6,38.5522847 241.047715,39 241.6,39 Z M255.6,39 L259.6,39 C260.152285,39 260.6,38.5522847 260.6,38 C260.6,37.4477153 260.152285,37 259.6,37 L255.6,37 C255.047715,37 254.6,37.4477153 254.6,38 C254.6,38.5522847 255.047715,39 255.6,39 Z M269.6,39 L273.6,39 C274.152285,39 274.6,38.5522847 274.6,38 C274.6,37.4477153 274.152285,37 273.6,37 L269.6,37 C269.047715,37 268.6,37.4477153 268.6,38 C268.6,38.5522847 269.047715,39 269.6,39 Z M283.6,39 L287.6,39 C288.152285,39 288.6,38.5522847 288.6,38 C288.6,37.4477153 288.152285,37 287.6,37 L283.6,37 C283.047715,37 282.6,37.4477153 282.6,38 C282.6,38.5522847 283.047715,39 283.6,39 Z M297.6,39 L301.6,39 C302.152285,39 302.6,38.5522847 302.6,38 C302.6,37.4477153 302.152285,37 301.6,37 L297.6,37 C297.047715,37 296.6,37.4477153 296.6,38 C296.6,38.5522847 297.047715,39 297.6,39 Z M311.6,39 L315.6,39 C316.152285,39 316.6,38.5522847 316.6,38 C316.6,37.4477153 316.152285,37 315.6,37 L311.6,37 C311.047715,37 310.6,37.4477153 310.6,38 C310.6,38.5522847 311.047715,39 311.6,39 Z M325.6,39 L329.6,39 C330.152285,39 330.6,38.5522847 330.6,38 C330.6,37.4477153 330.152285,37 329.6,37 L325.6,37 C325.047715,37 324.6,37.4477153 324.6,38 C324.6,38.5522847 325.047715,39 325.6,39 Z M339.6,39 L343.6,39 C344.152285,39 344.6,38.5522847 344.6,38 C344.6,37.4477153 344.152285,37 343.6,37 L339.6,37 C339.047715,37 338.6,37.4477153 338.6,38 C338.6,38.5522847 339.047715,39 339.6,39 Z M353.6,39 L357.6,39 C358.152285,39 358.6,38.5522847 358.6,38 C358.6,37.4477153 358.152285,37 357.6,37 L353.6,37 C353.047715,37 352.6,37.4477153 352.6,38 C352.6,38.5522847 353.047715,39 353.6,39 Z M367.566144,39.0392277 C368.88403,39.0829892 370.196723,39.1633062 371.503218,39.2798838 C372.053317,39.3289688 372.539051,38.9228165 372.588136,38.3727173 C372.637221,37.8226181 372.231069,37.3368834 371.68097,37.2877984 C370.33743,37.1679153 368.987597,37.0853259 367.632519,37.0403294 C367.080539,37.0220004 366.618211,37.4546104 366.599882,38.006591 C366.581553,38.5585715 367.014163,39.0208987 367.566144,39.0392277 Z M381.263985,40.8517173 C382.544713,41.1524346 383.815144,41.4890906 385.074082,41.8611685 C385.603719,42.0177024 386.159971,41.7152423 386.316505,41.1856051 C386.473039,40.6559678 386.170578,40.0997163 385.640941,39.9431824 C384.345751,39.5603899 383.038742,39.2140413 381.721156,38.9046695 C381.183493,38.7784254 380.645291,39.1119458 380.519047,39.6496082 C380.392802,40.1872706 380.726323,40.7254732 381.263985,40.8517173 Z M394.318604,45.324855 C395.514205,45.8725068 396.693807,46.4538045 397.856108,47.0679608 C398.344415,47.3259811 398.949433,47.1392966 399.207453,46.6509893 C399.465473,46.1626821 399.278789,45.5576641 398.790482,45.2996438 C397.594858,44.6678797 396.381416,44.0699059 395.151496,43.5065341 C394.64938,43.2765373 394.055886,43.4971331 393.825889,43.9992485 C393.595893,44.501364 393.816488,45.0948582 394.318604,45.324855 Z M406.210426,52.2649441 C407.275794,53.0363969 408.319369,53.8376937 409.339872,54.6677837 C409.768316,55.0162859 410.398156,54.95148 410.746658,54.5230355 C411.09516,54.0945911 411.030354,53.4647514 410.60191,53.1162491 C409.552384,52.2625516 408.479119,51.438457 407.383425,50.6450451 C406.936103,50.3211303 406.310891,50.4211722 405.986976,50.868495 C405.663061,51.3158177 405.763103,51.9410293 406.210426,52.2649441 Z M416.56516,61.4430233 C417.458894,62.4078571 418.325441,63.3975486 419.163679,64.4108564 C419.515708,64.836408 420.146062,64.89601 420.571613,64.5439812 C420.997165,64.1919524 421.056767,63.5615989 420.704738,63.1360473 C419.842682,62.0939466 418.951518,61.0761414 418.032401,60.0839051 C417.657091,59.6787375 417.024389,59.6545333 416.619222,60.0298434 C416.214054,60.4051536 416.18985,61.0378557 416.56516,61.4430233 Z M424.868663,72.3796004 C425.557353,73.4993172 426.214404,74.6382625 426.838938,75.7951269 C427.101299,76.2811156 427.707956,76.4624015 428.193945,76.2000402 C428.679934,75.937679 428.86122,75.3310215 428.598858,74.8450328 C427.956449,73.6550567 427.280605,72.4835338 426.572228,71.3318099 C426.282889,70.8613833 425.666977,70.7145831 425.19655,71.0039224 C424.726124,71.2932618 424.579324,71.9091738 424.868663,72.3796004 Z M430.905435,84.802937 C431.359584,86.0357337 431.778948,87.2819143 432.162925,88.5402334 C432.324117,89.0684715 432.883011,89.366021 433.411249,89.2048289 C433.939487,89.0436367 434.237037,88.484743 434.075844,87.9565049 C433.680808,86.661944 433.249366,85.3798732 432.782141,84.1115793 C432.591228,83.5933413 432.016347,83.3279921 431.498109,83.5189052 C430.979871,83.7098184 430.714522,84.284699 430.905435,84.802937 Z M434.36989,98.1857526 C434.570969,99.4825297 434.735847,100.787163 434.864163,102.098576 C434.917945,102.648236 435.407131,103.050225 435.956791,102.996443 C436.506451,102.942661 436.908439,102.453475 436.854657,101.903815 C436.722684,100.555026 436.553099,99.2131457 436.346271,97.8792938 C436.261645,97.3335311 435.750614,96.9597063 435.204851,97.0443325 C434.659088,97.1289588 434.285263,97.6399899 434.36989,98.1857526 Z M435.136993,111.997547 C435.081539,113.314155 434.989555,114.625361 434.861346,115.930152 C434.807338,116.47979 435.209126,116.969141 435.758764,117.023149 C436.308401,117.077156 436.797753,116.675369 436.85176,116.125731 C436.98361,114.783893 437.0782,113.435534 437.135222,112.08171 C437.158463,111.529915 436.729985,111.063756 436.178189,111.040514 C435.626394,111.017273 435.160235,111.445751 435.136993,111.997547 Z M433.207789,125.650877 C432.896025,126.928696 432.548399,128.195981 432.165438,129.451531 C432.004311,129.979789 432.30193,130.538646 432.830188,130.699772 C433.358446,130.860899 433.917303,130.56328 434.078429,130.035022 C434.47242,128.743314 434.830056,127.439535 435.150794,126.124933 C435.281701,125.588387 434.952866,125.047309 434.41632,124.916402 C433.879774,124.785495 433.338696,125.11433 433.207789,125.650877 Z M428.609797,138.691032 C428.051351,139.881594 427.459404,141.055891 426.834755,142.212619 C426.572333,142.698575 426.753542,143.305255 427.239498,143.567677 C427.725454,143.8301 428.332134,143.64889 428.594556,143.162935 C429.237106,141.973057 429.846028,140.765086 430.420499,139.540362 C430.655035,139.040351 430.439824,138.444883 429.939813,138.210347 C429.439802,137.975811 428.844333,138.191021 428.609797,138.691032 Z M421.562534,150.520038 C420.781505,151.578474 419.970835,152.614858 419.131586,153.627912 C418.779253,154.053212 418.838404,154.683607 419.263704,155.035941 C419.689003,155.388274 420.319399,155.329123 420.671732,154.903823 C421.534844,153.861965 422.368572,152.796103 423.171826,151.707548 C423.499748,151.263154 423.405329,150.637069 422.960935,150.309147 C422.516541,149.981225 421.890456,150.075644 421.562534,150.520038 Z M412.292909,160.791189 C411.320617,161.675805 410.323737,162.533035 409.303517,163.361768 C408.874841,163.709984 408.809615,164.339781 409.157832,164.768457 C409.506049,165.197134 410.135845,165.262359 410.564522,164.914142 C411.613737,164.061857 412.638939,163.180272 413.638849,162.270529 C414.047357,161.898858 414.07722,161.266397 413.705549,160.857889 C413.333878,160.449381 412.701418,160.419518 412.292909,160.791189 Z M401.285153,168.994577 C400.15892,169.673454 399.013709,170.320493 397.85083,170.934827 C397.362501,171.192806 397.175765,171.797808 397.433743,172.286137 C397.691722,172.774467 398.296724,172.961203 398.785053,172.703224 C399.981229,172.071299 401.159211,171.405745 402.31765,170.707455 C402.790649,170.422339 402.942957,169.807765 402.657841,169.334767 C402.372724,168.861769 401.758151,168.709461 401.285153,168.994577 Z M388.805921,174.920171 C387.569064,175.36314 386.319085,175.771217 385.057222,176.143812 C384.527545,176.300212 384.224944,176.856387 384.381344,177.386064 C384.537744,177.915741 385.093919,178.218341 385.623595,178.061942 C386.921803,177.678615 388.207784,177.258784 389.48026,176.803059 C390.000205,176.616846 390.270748,176.044391 390.084534,175.524446 C389.898321,175.004501 389.325866,174.733958 388.805921,174.920171 Z M375.389224,178.263913 C374.090904,178.453223 372.784966,178.60632 371.472476,178.722852 C370.922355,178.771696 370.51599,179.257253 370.564833,179.807373 C370.613677,180.357494 371.099234,180.763859 371.649354,180.715016 C372.999208,180.595166 374.342392,180.437703 375.677796,180.242985 C376.224301,180.163299 376.602733,179.655669 376.523046,179.109164 C376.443359,178.562658 375.93573,178.184227 375.389224,178.263913 Z M361.525586,179 L357.525586,179 C356.973302,179 356.525586,179.447715 356.525586,180 C356.525586,180.552285 356.973302,181 357.525586,181 L361.525586,181 C362.077871,181 362.525586,180.552285 362.525586,180 C362.525586,179.447715 362.077871,179 361.525586,179 Z M347.525586,179 L343.525586,179 C342.973302,179 342.525586,179.447715 342.525586,180 C342.525586,180.552285 342.973302,181 343.525586,181 L347.525586,181 C348.077871,181 348.525586,180.552285 348.525586,180 C348.525586,179.447715 348.077871,179 347.525586,179 Z M333.525586,179 L329.525586,179 C328.973302,179 328.525586,179.447715 328.525586,180 C328.525586,180.552285 328.973302,181 329.525586,181 L333.525586,181 C334.077871,181 334.525586,180.552285 334.525586,180 C334.525586,179.447715 334.077871,179 333.525586,179 Z M319.525586,179 L315.525586,179 C314.973302,179 314.525586,179.447715 314.525586,180 C314.525586,180.552285 314.973302,181 315.525586,181 L319.525586,181 C320.077871,181 320.525586,180.552285 320.525586,180 C320.525586,179.447715 320.077871,179 319.525586,179 Z M305.525586,179 L301.525586,179 C300.973302,179 300.525586,179.447715 300.525586,180 C300.525586,180.552285 300.973302,181 301.525586,181 L305.525586,181 C306.077871,181 306.525586,180.552285 306.525586,180 C306.525586,179.447715 306.077871,179 305.525586,179 Z M291.525586,179 L287.525586,179 C286.973302,179 286.525586,179.447715 286.525586,180 C286.525586,180.552285 286.973302,181 287.525586,181 L291.525586,181 C292.077871,181 292.525586,180.552285 292.525586,180 C292.525586,179.447715 292.077871,179 291.525586,179 Z M277.525586,179 L273.525586,179 C272.973302,179 272.525586,179.447715 272.525586,180 C272.525586,180.552285 272.973302,181 273.525586,181 L277.525586,181 C278.077871,181 278.525586,180.552285 278.525586,180 C278.525586,179.447715 278.077871,179 277.525586,179 Z M263.525586,179 L259.525586,179 C258.973302,179 258.525586,179.447715 258.525586,180 C258.525586,180.552285 258.973302,181 259.525586,181 L263.525586,181 C264.077871,181 264.525586,180.552285 264.525586,180 C264.525586,179.447715 264.077871,179 263.525586,179 Z M249.525586,179 L245.525586,179 C244.973302,179 244.525586,179.447715 244.525586,180 C244.525586,180.552285 244.973302,181 245.525586,181 L249.525586,181 C250.077871,181 250.525586,180.552285 250.525586,180 C250.525586,179.447715 250.077871,179 249.525586,179 Z M235.525586,179 L231.525586,179 C230.973302,179 230.525586,179.447715 230.525586,180 C230.525586,180.552285 230.973302,181 231.525586,181 L235.525586,181 C236.077871,181 236.525586,180.552285 236.525586,180 C236.525586,179.447715 236.077871,179 235.525586,179 Z M221.525586,179 L217.525586,179 C216.973302,179 216.525586,179.447715 216.525586,180 C216.525586,180.552285 216.973302,181 217.525586,181 L221.525586,181 C222.077871,181 222.525586,180.552285 222.525586,180 C222.525586,179.447715 222.077871,179 221.525586,179 Z M207.525586,179 L203.525586,179 C202.973302,179 202.525586,179.447715 202.525586,180 C202.525586,180.552285 202.973302,181 203.525586,181 L207.525586,181 C208.077871,181 208.525586,180.552285 208.525586,180 C208.525586,179.447715 208.077871,179 207.525586,179 Z M193.525586,179 L189.525586,179 C188.973302,179 188.525586,179.447715 188.525586,180 C188.525586,180.552285 188.973302,181 189.525586,181 L193.525586,181 C194.077871,181 194.525586,180.552285 194.525586,180 C194.525586,179.447715 194.077871,179 193.525586,179 Z M179.525586,179 L175.525586,179 C174.973302,179 174.525586,179.447715 174.525586,180 C174.525586,180.552285 174.973302,181 175.525586,181 L179.525586,181 C180.077871,181 180.525586,180.552285 180.525586,180 C180.525586,179.447715 180.077871,179 179.525586,179 Z M165.525586,179 L161.525586,179 C160.973302,179 160.525586,179.447715 160.525586,180 C160.525586,180.552285 160.973302,181 161.525586,181 L165.525586,181 C166.077871,181 166.525586,180.552285 166.525586,180 C166.525586,179.447715 166.077871,179 165.525586,179 Z M151.525586,179 L147.525586,179 C146.973302,179 146.525586,179.447715 146.525586,180 C146.525586,180.552285 146.973302,181 147.525586,181 L151.525586,181 C152.077871,181 152.525586,180.552285 152.525586,180 C152.525586,179.447715 152.077871,179 151.525586,179 Z M137.525586,179 L133.525586,179 C132.973302,179 132.525586,179.447715 132.525586,180 C132.525586,180.552285 132.973302,181 133.525586,181 L137.525586,181 C138.077871,181 138.525586,180.552285 138.525586,180 C138.525586,179.447715 138.077871,179 137.525586,179 Z M123.525586,179 L119.525586,179 C118.973302,179 118.525586,179.447715 118.525586,180 C118.525586,180.552285 118.973302,181 119.525586,181 L123.525586,181 C124.077871,181 124.525586,180.552285 124.525586,180 C124.525586,179.447715 124.077871,179 123.525586,179 Z M124.474414,181 L128.474414,181 C129.026698,181 129.474414,180.552285 129.474414,180 C129.474414,179.447715 129.026698,179 128.474414,179 L124.474414,179 C123.922129,179 123.474414,179.447715 123.474414,180 C123.474414,180.552285 123.922129,181 124.474414,181 Z M138.474414,181 L142.474414,181 C143.026698,181 143.474414,180.552285 143.474414,180 C143.474414,179.447715 143.026698,179 142.474414,179 L138.474414,179 C137.922129,179 137.474414,179.447715 137.474414,180 C137.474414,180.552285 137.922129,181 138.474414,181 Z M152.474414,181 L156.474414,181 C157.026698,181 157.474414,180.552285 157.474414,180 C157.474414,179.447715 157.026698,179 156.474414,179 L152.474414,179 C151.922129,179 151.474414,179.447715 151.474414,180 C151.474414,180.552285 151.922129,181 152.474414,181 Z M166.474414,181 L170.474414,181 C171.026698,181 171.474414,180.552285 171.474414,180 C171.474414,179.447715 171.026698,179 170.474414,179 L166.474414,179 C165.922129,179 165.474414,179.447715 165.474414,180 C165.474414,180.552285 165.922129,181 166.474414,181 Z M180.474414,181 L184.474414,181 C185.026698,181 185.474414,180.552285 185.474414,180 C185.474414,179.447715 185.026698,179 184.474414,179 L180.474414,179 C179.922129,179 179.474414,179.447715 179.474414,180 C179.474414,180.552285 179.922129,181 180.474414,181 Z M194.474414,181 L198.474414,181 C199.026698,181 199.474414,180.552285 199.474414,180 C199.474414,179.447715 199.026698,179 198.474414,179 L194.474414,179 C193.922129,179 193.474414,179.447715 193.474414,180 C193.474414,180.552285 193.922129,181 194.474414,181 Z M208.474414,181 L210.952907,181 C211.493728,181 212.031641,180.974932 212.565472,180.925105 C213.115367,180.873778 213.519536,180.386391 213.468209,179.836497 C213.416882,179.286602 212.929496,178.882433 212.379601,178.93376 C211.907537,178.977822 211.431648,179 210.952907,179 L208.474414,179 C207.922129,179 207.474414,179.447715 207.474414,180 C207.474414,180.552285 207.922129,181 208.474414,181 Z M222.225301,176.774479 C223.295465,175.840197 224.246931,174.776449 225.056059,173.608907 C225.370644,173.154974 225.257679,172.531968 224.803746,172.217383 C224.349813,171.902799 223.726807,172.015764 223.412222,172.469697 C222.697101,173.501589 221.855999,174.44195 220.909976,175.267853 C220.493933,175.63107 220.451109,176.262785 220.814326,176.678828 C221.177543,177.094872 221.809258,177.137696 222.225301,176.774479 Z M228.097102,163.516112 C228.069259,162.087357 227.864144,160.676839 227.489305,159.311813 C227.34306,158.779243 226.792772,158.466065 226.260202,158.61231 C225.727632,158.758555 225.414453,159.308843 225.560698,159.841413 C225.891728,161.046902 226.07288,162.29263 226.097482,163.55508 C226.108242,164.10726 226.564596,164.546167 227.116776,164.535406 C227.668956,164.524646 228.107863,164.068292 228.097102,163.516112 Z M221.692573,150.483679 C220.587778,149.595841 219.374562,148.846657 218.076435,148.254361 C217.57398,148.025106 216.980813,148.246578 216.751558,148.749032 C216.522303,149.251487 216.743775,149.844655 217.246229,150.07391 C218.392775,150.597044 219.464088,151.2586 220.439743,152.042658 C220.870243,152.388617 221.499688,152.320084 221.845648,151.889583 C222.191607,151.459083 222.123074,150.829638 221.692573,150.483679 Z" id="Rectangle" fill="#24231F" fill-rule="nonzero"></path>
        <path d="M219.879699,184 L223.879699,184 C224.431984,184 224.879699,183.552285 224.879699,183 C224.879699,182.447715 224.431984,182 223.879699,182 L219.879699,182 C219.327414,182 218.879699,182.447715 218.879699,183 C218.879699,183.552285 219.327414,184 219.879699,184 Z M233.879699,184 L237.879699,184 C238.431984,184 238.879699,183.552285 238.879699,183 C238.879699,182.447715 238.431984,182 237.879699,182 L233.879699,182 C233.327414,182 232.879699,182.447715 232.879699,183 C232.879699,183.552285 233.327414,184 233.879699,184 Z M247.879699,184 L251.879699,184 C252.431984,184 252.879699,183.552285 252.879699,183 C252.879699,182.447715 252.431984,182 251.879699,182 L247.879699,182 C247.327414,182 246.879699,182.447715 246.879699,183 C246.879699,183.552285 247.327414,184 247.879699,184 Z M261.879699,184 L265.879699,184 C266.431984,184 266.879699,183.552285 266.879699,183 C266.879699,182.447715 266.431984,182 265.879699,182 L261.879699,182 C261.327414,182 260.879699,182.447715 260.879699,183 C260.879699,183.552285 261.327414,184 261.879699,184 Z M275.879699,184 L279.879699,184 C280.431984,184 280.879699,183.552285 280.879699,183 C280.879699,182.447715 280.431984,182 279.879699,182 L275.879699,182 C275.327414,182 274.879699,182.447715 274.879699,183 C274.879699,183.552285 275.327414,184 275.879699,184 Z M289.879699,184 L293.879699,184 C294.431984,184 294.879699,183.552285 294.879699,183 C294.879699,182.447715 294.431984,182 293.879699,182 L289.879699,182 C289.327414,182 288.879699,182.447715 288.879699,183 C288.879699,183.552285 289.327414,184 289.879699,184 Z M303.879699,184 L307.879699,184 C308.431984,184 308.879699,183.552285 308.879699,183 C308.879699,182.447715 308.431984,182 307.879699,182 L303.879699,182 C303.327414,182 302.879699,182.447715 302.879699,183 C302.879699,183.552285 303.327414,184 303.879699,184 Z M317.879699,184 L321.879699,184 C322.431984,184 322.879699,183.552285 322.879699,183 C322.879699,182.447715 322.431984,182 321.879699,182 L317.879699,182 C317.327414,182 316.879699,182.447715 316.879699,183 C316.879699,183.552285 317.327414,184 317.879699,184 Z M331.879699,184 L335.875096,184.0009 C336.427374,184.003551 336.877233,183.557989 336.879907,183.005711 C336.882534,182.453432 336.436973,182.003574 335.884694,182.000923 L331.879699,182 C331.327414,182 330.879699,182.447715 330.879699,183 C330.879699,183.552285 331.327414,184 331.879699,184 Z M345.726423,184.677482 C347.032615,184.851955 348.331782,185.059844 349.622995,185.300814 C350.165906,185.402134 350.688158,185.044154 350.789478,184.501242 C350.890798,183.958331 350.532818,183.436078 349.989907,183.334758 C348.66482,183.087466 347.331602,182.874129 345.991219,182.695089 C345.443796,182.621967 344.940746,183.006464 344.867624,183.553887 C344.794503,184.10131 345.179,184.604361 345.726423,184.677482 Z M359.197291,187.740865 C360.448904,188.14823 361.688927,188.587837 362.916309,189.059159 C363.431887,189.257145 364.010344,188.999685 364.208329,188.484108 C364.406314,187.96853 364.148855,187.390073 363.633277,187.192088 C362.373565,186.70835 361.10087,186.257161 359.816276,185.839061 C359.291107,185.668133 358.72681,185.955302 358.555882,186.48047 C358.384954,187.005639 358.672122,187.569937 359.197291,187.740865 Z M371.877982,193.186023 C373.035104,193.812695 374.175775,194.469161 375.298894,195.154686 C375.770303,195.442423 376.385712,195.293527 376.673448,194.822118 C376.961185,194.35071 376.812289,193.735301 376.340881,193.447564 C375.188381,192.744107 374.017855,192.070458 372.830428,191.427374 C372.344791,191.164363 371.737891,191.344838 371.474881,191.830475 C371.21187,192.316113 371.392345,192.923012 371.877982,193.186023 Z M383.401141,200.84976 C384.427317,201.674883 385.4322,202.526296 386.414736,203.403071 C386.826808,203.770787 387.458951,203.73483 387.826667,203.322758 C388.194383,202.910686 388.158426,202.278543 387.746354,201.910827 C386.738277,201.01126 385.707266,200.137709 384.6544,199.291125 C384.223995,198.945047 383.594531,199.013408 383.248453,199.443813 C382.902375,199.874218 382.970736,200.503682 383.401141,200.84976 Z M393.380785,210.477437 C394.241969,211.473016 395.077457,212.49053 395.886336,213.528921 C396.225731,213.964616 396.854065,214.042682 397.289759,213.703288 C397.725454,213.363893 397.803521,212.73556 397.464126,212.299865 C396.6342,211.234456 395.776981,210.190475 394.893403,209.169009 C394.532091,208.751311 393.900578,208.705601 393.48288,209.066914 C393.065182,209.428226 393.019472,210.059739 393.380785,210.477437 Z M401.39817,221.621329 C402.068255,222.754625 402.708996,223.905113 403.319673,225.071691 C403.575809,225.560989 404.180103,225.750004 404.669401,225.493868 C405.158699,225.237732 405.347714,224.633438 405.091578,224.14414 C404.464898,222.94699 403.807375,221.76637 403.11975,220.603409 C402.838659,220.128008 402.225401,219.970488 401.75,220.251579 C401.274598,220.53267 401.117079,221.145928 401.39817,221.621329 Z M407.32934,234.117804 C407.782917,235.352345 408.204591,236.599151 408.593854,237.857175 C408.757108,238.384779 409.317159,238.680144 409.844764,238.51689 C410.372369,238.353636 410.667734,237.793585 410.50448,237.26598 C410.104958,235.974803 409.672172,234.69514 409.206644,233.428072 C409.01618,232.909669 408.44153,232.643822 407.923126,232.834286 C407.404723,233.02475 407.138876,233.599401 407.32934,234.117804 Z M410.89982,247.498516 C411.121574,248.793863 411.310156,250.096809 411.465246,251.406435 C411.530196,251.954887 412.027456,252.346844 412.575908,252.281894 C413.124361,252.216945 413.516317,251.719684 413.451368,251.171232 C413.292224,249.827377 413.098707,248.490329 412.871142,247.16104 C412.77795,246.616674 412.261108,246.250926 411.716743,246.344117 C411.172377,246.437308 410.806629,246.95415 410.89982,247.498516 Z M411.995826,261.307661 C411.982184,262.626846 411.935122,263.941789 411.854866,265.251671 C411.821091,265.802922 412.240589,266.277179 412.79184,266.310954 C413.343091,266.344729 413.817348,265.925232 413.851123,265.373981 C413.933451,264.030264 413.981726,262.681433 413.995719,261.328342 C414.00143,260.776086 413.558368,260.323765 413.006113,260.318 C412.453857,260.312344 412.001537,260.755405 411.995826,261.307661 Z M410.614964,275.066981 C410.365481,276.361165 410.082768,277.646916 409.767213,278.923255 C409.63466,279.459397 409.961834,280.001481 410.497976,280.134034 C411.034118,280.266586 411.576202,279.939412 411.708755,279.40327 C412.032615,278.093337 412.322766,276.773762 412.578807,275.445554 C412.683347,274.903254 412.328473,274.378886 411.786172,274.274346 C411.243872,274.169805 410.719504,274.52468 410.614964,275.066981 Z M406.775363,288.34338 C406.296148,289.569177 405.785335,290.78185 405.243516,291.980321 C405.016003,292.483567 405.239528,293.075964 405.742774,293.303477 C406.246019,293.53099 406.838416,293.307465 407.06593,292.804219 C407.621997,291.574231 408.146249,290.329653 408.638078,289.071593 C408.839168,288.557219 408.585202,287.97722 408.070827,287.776129 C407.556453,287.575039 406.976454,287.829005 406.775363,288.34338 Z M400.610902,300.680425 C399.918454,301.800097 399.197203,302.901751 398.447952,303.984291 C398.133642,304.438414 398.246984,305.061352 398.701107,305.375662 C399.15523,305.689971 399.778168,305.57663 400.092478,305.122506 C400.86128,304.011719 401.60136,302.881304 402.311896,301.732384 C402.602387,301.262667 402.457095,300.646398 401.987378,300.355907 C401.517662,300.065417 400.901392,300.210708 400.610902,300.680425 Z M392.297821,311.747967 C391.415588,312.725114 390.50838,313.679517 389.577174,314.610158 C389.186532,315.000564 389.18634,315.633729 389.576746,316.024372 C389.967152,316.415015 390.600317,316.415206 390.990959,316.0248 C391.946357,315.069981 392.877135,314.090783 393.782292,313.088245 C394.1524,312.67832 394.120121,312.045978 393.710196,311.675871 C393.30027,311.305763 392.667928,311.338042 392.297821,311.747967 Z M382.177182,321.114133 C381.134509,321.918271 380.071348,322.69546 378.988782,323.444843 C378.534681,323.759185 378.421384,324.382131 378.735726,324.836232 C379.050068,325.290333 379.673014,325.40363 380.127114,325.089288 C381.237899,324.320371 382.32876,323.522932 383.398588,322.697853 C383.83592,322.360571 383.917027,321.732622 383.579745,321.29529 C383.242463,320.857958 382.614514,320.776851 382.177182,321.114133 Z M370.535314,328.523945 C369.365796,329.127533 368.180656,329.70084 366.980989,330.243214 C366.477745,330.470732 366.254226,331.063131 366.481744,331.566375 C366.709262,332.069618 367.301661,332.293138 367.804904,332.06562 C369.036089,331.508997 370.252348,330.920636 371.452559,330.301207 C371.943337,330.047917 372.135858,329.444731 371.882568,328.953954 C371.629278,328.463176 371.026092,328.270655 370.535314,328.523945 Z M357.711476,333.725921 C356.453086,334.107115 355.183956,334.455856 353.905101,334.771699 C353.368926,334.904119 353.041619,335.446123 353.17404,335.982298 C353.30646,336.518472 353.848464,336.845779 354.384639,336.713359 C355.69718,336.389197 356.99975,336.031267 358.291302,335.640027 C358.819867,335.479913 359.118556,334.921627 358.958442,334.393061 C358.798328,333.864495 358.240042,333.565806 357.711476,333.725921 Z M344.146627,336.516844 C342.841173,336.663676 341.529492,336.777237 340.212452,336.857259 C339.661184,336.890753 339.241445,337.364797 339.27494,337.916065 C339.308434,338.467333 339.782478,338.887072 340.333746,338.853578 C341.68495,338.77148 343.030725,338.654967 344.370169,338.504312 C344.918993,338.442583 345.313861,337.947631 345.252132,337.398807 C345.190402,336.849983 344.695451,336.455115 344.146627,336.516844 Z M330.236258,337 L326.236258,337 C325.683973,337 325.236258,337.447715 325.236258,338 C325.236258,338.552285 325.683973,339 326.236258,339 L330.236258,339 C330.788542,339 331.236258,338.552285 331.236258,338 C331.236258,337.447715 330.788542,337 330.236258,337 Z M316.236258,337 L312.236258,337 C311.683973,337 311.236258,337.447715 311.236258,338 C311.236258,338.552285 311.683973,339 312.236258,339 L316.236258,339 C316.788542,339 317.236258,338.552285 317.236258,338 C317.236258,337.447715 316.788542,337 316.236258,337 Z M302.236258,337 L298.236258,337 C297.683973,337 297.236258,337.447715 297.236258,338 C297.236258,338.552285 297.683973,339 298.236258,339 L302.236258,339 C302.788542,339 303.236258,338.552285 303.236258,338 C303.236258,337.447715 302.788542,337 302.236258,337 Z M288.236258,337 L284.236258,337 C283.683973,337 283.236258,337.447715 283.236258,338 C283.236258,338.552285 283.683973,339 284.236258,339 L288.236258,339 C288.788542,339 289.236258,338.552285 289.236258,338 C289.236258,337.447715 288.788542,337 288.236258,337 Z M274.236258,337 L270.236258,337 C269.683973,337 269.236258,337.447715 269.236258,338 C269.236258,338.552285 269.683973,339 270.236258,339 L274.236258,339 C274.788542,339 275.236258,338.552285 275.236258,338 C275.236258,337.447715 274.788542,337 274.236258,337 Z M260.236258,337 L256.236258,337 C255.683973,337 255.236258,337.447715 255.236258,338 C255.236258,338.552285 255.683973,339 256.236258,339 L260.236258,339 C260.788542,339 261.236258,338.552285 261.236258,338 C261.236258,337.447715 260.788542,337 260.236258,337 Z M246.236258,337 L242.236258,337 C241.683973,337 241.236258,337.447715 241.236258,338 C241.236258,338.552285 241.683973,339 242.236258,339 L246.236258,339 C246.788542,339 247.236258,338.552285 247.236258,338 C247.236258,337.447715 246.788542,337 246.236258,337 Z M232.236258,337 L228.236258,337 C227.683973,337 227.236258,337.447715 227.236258,338 C227.236258,338.552285 227.683973,339 228.236258,339 L232.236258,339 C232.788542,339 233.236258,338.552285 233.236258,338 C233.236258,337.447715 232.788542,337 232.236258,337 Z M218.236258,337 L214.236258,337 C213.683973,337 213.236258,337.447715 213.236258,338 C213.236258,338.552285 213.683973,339 214.236258,339 L218.236258,339 C218.788542,339 219.236258,338.552285 219.236258,338 C219.236258,337.447715 218.788542,337 218.236258,337 Z M204.236258,337 L200.236258,337 C199.683973,337 199.236258,337.447715 199.236258,338 C199.236258,338.552285 199.683973,339 200.236258,339 L204.236258,339 C204.788542,339 205.236258,338.552285 205.236258,338 C205.236258,337.447715 204.788542,337 204.236258,337 Z M190.236258,337 L186.236258,337 C185.683973,337 185.236258,337.447715 185.236258,338 C185.236258,338.552285 185.683973,339 186.236258,339 L190.236258,339 C190.788542,339 191.236258,338.552285 191.236258,338 C191.236258,337.447715 190.788542,337 190.236258,337 Z M176.236258,337 L172.236258,337 C171.683973,337 171.236258,337.447715 171.236258,338 C171.236258,338.552285 171.683973,339 172.236258,339 L176.236258,339 C176.788542,339 177.236258,338.552285 177.236258,338 C177.236258,337.447715 176.788542,337 176.236258,337 Z M162.236258,337 L158.236258,337 C157.683973,337 157.236258,337.447715 157.236258,338 C157.236258,338.552285 157.683973,339 158.236258,339 L162.236258,339 C162.788542,339 163.236258,338.552285 163.236258,338 C163.236258,337.447715 162.788542,337 162.236258,337 Z M148.236258,337 L144.236258,337 C143.683973,337 143.236258,337.447715 143.236258,338 C143.236258,338.552285 143.683973,339 144.236258,339 L148.236258,339 C148.788542,339 149.236258,338.552285 149.236258,338 C149.236258,337.447715 148.788542,337 148.236258,337 Z M134.236258,337 L130.236258,337 C129.683973,337 129.236258,337.447715 129.236258,338 C129.236258,338.552285 129.683973,339 130.236258,339 L134.236258,339 C134.788542,339 135.236258,338.552285 135.236258,338 C135.236258,337.447715 134.788542,337 134.236258,337 Z M120.236258,337 L116.236258,337 C115.683973,337 115.236258,337.447715 115.236258,338 C115.236258,338.552285 115.683973,339 116.236258,339 L120.236258,339 C120.788542,339 121.236258,338.552285 121.236258,338 C121.236258,337.447715 120.788542,337 120.236258,337 Z M106.236258,337 L102.236258,337 C101.683973,337 101.236258,337.447715 101.236258,338 C101.236258,338.552285 101.683973,339 102.236258,339 L106.236258,339 C106.788542,339 107.236258,338.552285 107.236258,338 C107.236258,337.447715 106.788542,337 106.236258,337 Z M92.2362577,337 L88.2362577,337 C87.683973,337 87.2362577,337.447715 87.2362577,338 C87.2362577,338.552285 87.683973,339 88.2362577,339 L92.2362577,339 C92.7885425,339 93.2362577,338.552285 93.2362577,338 C93.2362577,337.447715 92.7885425,337 92.2362577,337 Z M78.2362577,337 L74.2362577,337 C73.683973,337 73.2362577,337.447715 73.2362577,338 C73.2362577,338.552285 73.683973,339 74.2362577,339 L78.2362577,339 C78.7885425,339 79.2362577,338.552285 79.2362577,338 C79.2362577,337.447715 78.7885425,337 78.2362577,337 Z M64.2362577,337 L60.2362577,337 C59.683973,337 59.2362577,337.447715 59.2362577,338 C59.2362577,338.552285 59.683973,339 60.2362577,339 L64.2362577,339 C64.7885425,339 65.2362577,338.552285 65.2362577,338 C65.2362577,337.447715 64.7885425,337 64.2362577,337 Z M50.2362577,337 L46.2362577,337 C45.683973,337 45.2362577,337.447715 45.2362577,338 C45.2362577,338.552285 45.683973,339 46.2362577,339 L50.2362577,339 C50.7885425,339 51.2362577,338.552285 51.2362577,338 C51.2362577,337.447715 50.7885425,337 50.2362577,337 Z M36.2362577,337 L36,337 L36,339 L39.7637423,339 C40.316027,339 40.7637423,338.552285 40.7637423,338 C40.7637423,337.447715 40.316027,337 39.7637423,337 L36,337 C34.6666667,337 34.6666667,339 36,339 L36.2362577,339 C36.7885425,339 37.2362577,338.552285 37.2362577,338 C37.2362577,337.447715 36.7885425,337 36.2362577,337 Z M49.7637423,339 L53.7637423,339 C54.316027,339 54.7637423,338.552285 54.7637423,338 C54.7637423,337.447715 54.316027,337 53.7637423,337 L49.7637423,337 C49.2114575,337 48.7637423,337.447715 48.7637423,338 C48.7637423,338.552285 49.2114575,339 49.7637423,339 Z M63.7637423,339 L67.7637423,339 C68.316027,339 68.7637423,338.552285 68.7637423,338 C68.7637423,337.447715 68.316027,337 67.7637423,337 L63.7637423,337 C63.2114575,337 62.7637423,337.447715 62.7637423,338 C62.7637423,338.552285 63.2114575,339 63.7637423,339 Z M77.7637423,339 L81.7637423,339 C82.316027,339 82.7637423,338.552285 82.7637423,338 C82.7637423,337.447715 82.316027,337 81.7637423,337 L77.7637423,337 C77.2114575,337 76.7637423,337.447715 76.7637423,338 C76.7637423,338.552285 77.2114575,339 77.7637423,339 Z M91.7637423,339 L95.7637423,339 C96.316027,339 96.7637423,338.552285 96.7637423,338 C96.7637423,337.447715 96.316027,337 95.7637423,337 L91.7637423,337 C91.2114575,337 90.7637423,337.447715 90.7637423,338 C90.7637423,338.552285 91.2114575,339 91.7637423,339 Z M105.763742,339 L109.763742,339 C110.316027,339 110.763742,338.552285 110.763742,338 C110.763742,337.447715 110.316027,337 109.763742,337 L105.763742,337 C105.211458,337 104.763742,337.447715 104.763742,338 C104.763742,338.552285 105.211458,339 105.763742,339 Z M119.763742,339 L123.763742,339 C124.316027,339 124.763742,338.552285 124.763742,338 C124.763742,337.447715 124.316027,337 123.763742,337 L119.763742,337 C119.211458,337 118.763742,337.447715 118.763742,338 C118.763742,338.552285 119.211458,339 119.763742,339 Z M133.763742,339 L137.763742,339 C138.316027,339 138.763742,338.552285 138.763742,338 C138.763742,337.447715 138.316027,337 137.763742,337 L133.763742,337 C133.211458,337 132.763742,337.447715 132.763742,338 C132.763742,338.552285 133.211458,339 133.763742,339 Z M147.763742,339 L151.763742,339 C152.316027,339 152.763742,338.552285 152.763742,338 C152.763742,337.447715 152.316027,337 151.763742,337 L147.763742,337 C147.211458,337 146.763742,337.447715 146.763742,338 C146.763742,338.552285 147.211458,339 147.763742,339 Z M161.763742,339 L165.763742,339 C166.316027,339 166.763742,338.552285 166.763742,338 C166.763742,337.447715 166.316027,337 165.763742,337 L161.763742,337 C161.211458,337 160.763742,337.447715 160.763742,338 C160.763742,338.552285 161.211458,339 161.763742,339 Z M175.763742,339 L179.763742,339 C180.316027,339 180.763742,338.552285 180.763742,338 C180.763742,337.447715 180.316027,337 179.763742,337 L175.763742,337 C175.211458,337 174.763742,337.447715 174.763742,338 C174.763742,338.552285 175.211458,339 175.763742,339 Z M189.763742,339 L193.763742,339 C194.316027,339 194.763742,338.552285 194.763742,338 C194.763742,337.447715 194.316027,337 193.763742,337 L189.763742,337 C189.211458,337 188.763742,337.447715 188.763742,338 C188.763742,338.552285 189.211458,339 189.763742,339 Z M203.763742,339 L207.763742,339 C208.316027,339 208.763742,338.552285 208.763742,338 C208.763742,337.447715 208.316027,337 207.763742,337 L203.763742,337 C203.211458,337 202.763742,337.447715 202.763742,338 C202.763742,338.552285 203.211458,339 203.763742,339 Z M217.763742,339 L221.763742,339 C222.316027,339 222.763742,338.552285 222.763742,338 C222.763742,337.447715 222.316027,337 221.763742,337 L217.763742,337 C217.211458,337 216.763742,337.447715 216.763742,338 C216.763742,338.552285 217.211458,339 217.763742,339 Z M231.763742,339 L235.763742,339 C236.316027,339 236.763742,338.552285 236.763742,338 C236.763742,337.447715 236.316027,337 235.763742,337 L231.763742,337 C231.211458,337 230.763742,337.447715 230.763742,338 C230.763742,338.552285 231.211458,339 231.763742,339 Z M245.763742,339 L249.763742,339 C250.316027,339 250.763742,338.552285 250.763742,338 C250.763742,337.447715 250.316027,337 249.763742,337 L245.763742,337 C245.211458,337 244.763742,337.447715 244.763742,338 C244.763742,338.552285 245.211458,339 245.763742,339 Z M259.763742,339 L263.763742,339 C264.316027,339 264.763742,338.552285 264.763742,338 C264.763742,337.447715 264.316027,337 263.763742,337 L259.763742,337 C259.211458,337 258.763742,337.447715 258.763742,338 C258.763742,338.552285 259.211458,339 259.763742,339 Z M273.763742,339 L277.763742,339 C278.316027,339 278.763742,338.552285 278.763742,338 C278.763742,337.447715 278.316027,337 277.763742,337 L273.763742,337 C273.211458,337 272.763742,337.447715 272.763742,338 C272.763742,338.552285 273.211458,339 273.763742,339 Z M287.763742,339 L291.763742,339 C292.316027,339 292.763742,338.552285 292.763742,338 C292.763742,337.447715 292.316027,337 291.763742,337 L287.763742,337 C287.211458,337 286.763742,337.447715 286.763742,338 C286.763742,338.552285 287.211458,339 287.763742,339 Z M301.763742,339 L304.410824,339 C304.963109,339 305.410824,338.552285 305.410824,338 C305.410824,337.447715 304.963109,337 304.410824,337 L301.763742,337 C301.211458,337 300.763742,337.447715 300.763742,338 C300.763742,338.552285 301.211458,339 301.763742,339 Z" id="Rectangle-Copy-9" fill="#24231F" fill-rule="nonzero" transform="translate(224.497887, 260.500000) scale(-1, 1) translate(-224.497887, -260.500000) "></path>
        <rect id="Rectangle" fill="#FFFFFF" x="90" y="100" width="300" height="220" rx="1"></rect>
        <path d="M389,98 L91,98 C89.3431458,98 88,99.3431458 88,101 L88,319 C88,320.656854 89.3431458,322 91,322 L389,322 C390.656854,322 392,320.656854 392,319 L392,101 C392,99.3431458 390.656854,98 389,98 Z M388,102 L388,318 L92,318 L92,102 L388,102 Z" id="Rectangle" fill="#24231F" fill-rule="nonzero"></path>
        <rect id="Rectangle-Copy-17" fill="#F0EFF0" x="106" y="145" width="190" height="72"></rect>
        <rect id="Rectangle-Copy-28" fill="#F0EFF0" x="304" y="145" width="72" height="108"></rect>
        <rect id="Rectangle-Copy-22" fill="#F0EFF0" x="106" y="225" width="190" height="10"></rect>
        <rect id="Rectangle-Copy-23" fill="#F0EFF0" x="106" y="243" width="190" height="10"></rect>
        <rect id="Rectangle-Copy-25" fill="#F0EFF0" x="106" y="261" width="190" height="10"></rect>
        <rect id="Rectangle-Copy-26" fill="#F0EFF0" x="106" y="279" width="190" height="10"></rect>
        <rect id="Rectangle-Copy-27" fill="#F0EFF0" x="106" y="297" width="190" height="10"></rect>
        <rect id="Rectangle-Copy-29" fill="#F0EFF0" x="304" y="261" width="72" height="10"></rect>
        <rect id="Rectangle-Copy-30" fill="#F0EFF0" x="304" y="279" width="72" height="10"></rect>
        <rect id="Rectangle-Copy-31" fill="#F0EFF0" x="304" y="297" width="72" height="10"></rect>
        <rect id="Rectangle-Copy" fill="#EABDBF" x="90" y="100" width="300" height="30" rx="1"></rect>
        <path d="M389,98 L91,98 C89.3431458,98 88,99.3431458 88,101 L88,129 C88,130.656854 89.3431458,132 91,132 L389,132 C390.656854,132 392,130.656854 392,129 L392,101 C392,99.3431458 390.656854,98 389,98 Z M388,102 L388,128 L92,128 L92,102 L388,102 Z" id="Rectangle-Copy" fill="#24231F" fill-rule="nonzero"></path>
        <circle id="Oval" fill="#24231F" cx="335" cy="115" r="7"></circle>
        <circle id="Oval-Copy" fill="#24231F" cx="355" cy="115" r="7"></circle>
        <circle id="Oval-Copy-2" fill="#24231F" cx="375" cy="115" r="7"></circle>
        <polygon id="Path-23" fill="#FFFFFF" points="353.204346 330.270508 340 343.474854 340 289 381.389404 326.925781 362.434326 326.925781 372.328369 346.290039 363.406982 350.383301"></polygon>
        <path d="M338,343.474854 L338.005513,343.629732 C338.125949,345.307292 340.191341,346.11194 341.414214,344.889067 L352.668,333.634 L361.623346,351.288088 C362.10922,352.245907 363.26485,352.648977 364.241015,352.201099 L373.162401,348.107837 L373.299633,348.038489 C374.233619,347.521126 374.603466,346.347101 374.109359,345.380054 L365.702,328.925 L381.389404,328.925781 C383.213608,328.925781 384.085527,326.683619 382.740573,325.451216 L341.351168,287.525434 C340.068275,286.349898 338,287.259971 338,289 L338,343.474854 Z M342,293.545 L376.246,324.925 L362.434326,324.925781 L362.286688,324.930978 C360.877329,325.030788 359.996064,326.549377 360.653336,327.835767 L369.598,345.342 L364.32,347.763 L354.987982,329.365721 L354.912612,329.230002 C354.248928,328.134579 352.714973,327.931454 351.790132,328.856294 L342,338.645 L342,293.545 Z" id="Path-23" fill="#24231F" fill-rule="nonzero"></path>
        <g id="對話" transform="translate(53.000000, 232.000000)">
            <path d="M2.88,-5.1159077e-15 L63.36,-5.1159077e-15 C64.9505801,-1.61402502e-15 66.24,1.28941992 66.24,2.88 L66.24,40.32 C66.24,41.9105801 64.9505801,43.2 63.36,43.2 L24.7134375,43.2 L24.7134375,43.2 L11.6142187,56.1965625 L11.6142187,43.2 L2.88,43.2 C1.28941992,43.2 -6.93388539e-16,41.9105801 0,40.32 L0,2.88 C-6.3887909e-16,1.28941992 1.28941992,-6.15599051e-15 2.88,-5.1159077e-15 Z" id="Rectangle" fill="#FFFFFF"></path>
            <path d="M63.36,-1 L2.88,-1 C0.737135171,-1 -1,0.737135171 -1,2.88 L-1,40.32 L-0.994951368,40.5196643 C-0.891032831,42.5697394 0.804099697,44.2 2.88,44.2 L10.614,44.2 L10.6142187,56.1965625 L10.6201806,56.3099618 C10.7067071,57.1224146 11.7148847,57.5053685 12.3185384,56.9064454 L25.124,44.2 L63.36,44.2 C65.5028648,44.2 67.24,42.4628648 67.24,40.32 L67.24,2.88 C67.24,0.737135171 65.5028648,-1 63.36,-1 Z M2.88,1 L63.36,1 C64.3982953,1 65.24,1.84170467 65.24,2.88 L65.24,40.32 C65.24,41.3582953 64.3982953,42.2 63.36,42.2 L24.7134375,42.2 L24.5826571,42.2085848 C24.3670262,42.2370254 24.1652054,42.3352527 24.0091178,42.4901171 L12.614,53.795 L12.6142187,43.2 C12.6142188,42.6477153 12.1665035,42.2 11.6142187,42.2 L2.88,42.2 C1.84170467,42.2 1,41.3582953 1,40.32 L1,2.88 C1,1.84170467 1.84170467,1 2.88,1 Z" id="Rectangle" fill="#24231F" fill-rule="nonzero"></path>
            <circle id="Oval" fill="#24231F" cx="21" cy="22" r="3"></circle>
            <circle id="Oval-Copy-7" fill="#24231F" cx="33" cy="22" r="3"></circle>
            <circle id="Oval-Copy-8" fill="#24231F" cx="45" cy="22" r="3"></circle>
        </g>
        <g id="對話-copy" transform="translate(273.500000, 94.500000) scale(-1, 1) translate(-273.500000, -94.500000) translate(240.000000, 66.000000)">
            <path d="M2.88,-5.1159077e-15 L63.36,-5.1159077e-15 C64.9505801,-1.61402502e-15 66.24,1.28941992 66.24,2.88 L66.24,40.32 C66.24,41.9105801 64.9505801,43.2 63.36,43.2 L24.7134375,43.2 L24.7134375,43.2 L11.6142187,56.1965625 L11.6142187,43.2 L2.88,43.2 C1.28941992,43.2 -6.93388539e-16,41.9105801 0,40.32 L0,2.88 C-6.3887909e-16,1.28941992 1.28941992,-6.15599051e-15 2.88,-5.1159077e-15 Z" id="Rectangle" fill="#FFFFFF"></path>
            <path d="M63.36,-1 L2.88,-1 C0.737135171,-1 -1,0.737135171 -1,2.88 L-1,40.32 L-0.994951368,40.5196643 C-0.891032831,42.5697394 0.804099697,44.2 2.88,44.2 L10.614,44.2 L10.6142188,56.1965625 L10.6201806,56.3099618 C10.7067071,57.1224146 11.7148847,57.5053685 12.3185384,56.9064454 L25.124,44.2 L63.36,44.2 C65.5028648,44.2 67.24,42.4628648 67.24,40.32 L67.24,2.88 C67.24,0.737135171 65.5028648,-1 63.36,-1 Z M2.88,1 L63.36,1 C64.3982953,1 65.24,1.84170467 65.24,2.88 L65.24,40.32 C65.24,41.3582953 64.3982953,42.2 63.36,42.2 L24.7134375,42.2 L24.5826571,42.2085848 C24.3670262,42.2370254 24.1652054,42.3352527 24.0091178,42.4901171 L12.614,53.795 L12.6142188,43.2 C12.6142188,42.6477153 12.1665035,42.2 11.6142188,42.2 L2.88,42.2 C1.84170467,42.2 1,41.3582953 1,40.32 L1,2.88 C1,1.84170467 1.84170467,1 2.88,1 Z" id="Rectangle" fill="#24231F" fill-rule="nonzero"></path>
            <circle id="Oval" fill="#24231F" cx="21" cy="22" r="3"></circle>
            <circle id="Oval-Copy-7" fill="#24231F" cx="33" cy="22" r="3"></circle>
            <circle id="Oval-Copy-8" fill="#24231F" cx="45" cy="22" r="3"></circle>
        </g>
        <rect id="Rectangle-Copy-24" fill="#EABDBF" x="382" y="42" width="72" height="48"></rect>
        <rect id="Rectangle-Copy-21" fill="#EABDBF" x="90" y="335" width="76" height="24"></rect>
        <path d="M435.6,33 C436.704569,33 437.6,33.8885952 437.6,34.9847328 L437.6,45.152 L449.929771,45.1526718 C451.025909,45.1526718 451.914504,46.0481023 451.914504,47.1526718 L451.914504,83.1526718 C451.914504,84.2572413 451.025909,85.1526718 449.929771,85.1526718 L431.670229,85.1526718 C430.574091,85.1526718 429.685496,84.2572413 429.685496,83.1526718 L429.684,72.694 L416.8,72.694 L416.8,81.824 L423.212214,81.8244275 C424.089124,81.8244275 424.8,82.5353036 424.8,83.4122137 C424.8,84.2891239 424.089124,85 423.212214,85 L386.387786,85 C385.510876,85 384.8,84.2891239 384.8,83.4122137 C384.8,82.5353036 385.510876,81.8244275 386.387786,81.8244275 L392.799,81.824 L392.799,72.694 L374,72.6946565 C372.895431,72.6946565 372,71.8060613 372,70.7099237 L372,34.9847328 C372,33.8885952 372.895431,33 374,33 L435.6,33 Z M437.6,52.053 L444.812214,52.0534351 C445.689124,52.0534351 446.4,52.7643112 446.4,53.6412214 C446.4,54.5181315 445.689124,55.2290076 444.812214,55.2290076 L437.6,55.229 L437.6,57.213 L444.812214,57.2137405 C445.689124,57.2137405 446.4,57.9246166 446.4,58.8015267 C446.4,59.6784369 445.689124,60.389313 444.812214,60.389313 L437.6,60.389 L437.600136,69.7033652 C438.504844,69.0602132 439.608642,68.6824427 440.8,68.6824427 C443.869185,68.6824427 446.357252,71.1896481 446.357252,74.2824427 C446.357252,77.3752373 443.869185,79.8824427 440.8,79.8824427 C437.730815,79.8824427 435.242748,77.3752373 435.242748,74.2824427 C435.242748,73.7307075 435.321929,73.1976083 435.469465,72.6940546 L432.861,72.694 L432.861,81.9526718 L448.738931,81.9526718 L448.738931,48.3526718 L437.6,48.352 L437.6,52.053 Z M413.6,72.6946565 L396,72.6946565 L396,81.8244275 L413.6,81.8244275 L413.6,72.6946565 Z M440.8,71.8824427 C439.484635,71.8824427 438.418321,72.9569593 438.418321,74.2824427 C438.418321,75.6079261 439.484635,76.6824427 440.8,76.6824427 C442.115365,76.6824427 443.181679,75.6079261 443.181679,74.2824427 C443.181679,72.9569593 442.115365,71.8824427 440.8,71.8824427 Z M434.4,36.1755725 L375.2,36.1755725 L375.2,69.519084 L434.4,69.519084 L434.4,45.304 L431.599,45.303 L431.6,64.7557252 C431.6,65.8518629 430.704569,66.740458 429.6,66.740458 L380,66.740458 C378.895431,66.740458 378,65.8518629 378,64.7557252 L378,40.9389313 C378,39.8427936 378.895431,38.9541985 380,38.9541985 L429.6,38.9541985 C430.704569,38.9541985 431.6,39.8427936 431.6,40.9389313 L431.598998,45.1539358 L434.4,45.152 L434.4,36.1755725 Z M428.4,42.129771 L381.2,42.129771 L381.2,63.5648855 L428.4,63.5648855 L428.4,42.129771 Z" id="Shape" fill="#24231F" fill-rule="nonzero"></path>
        <path d="M157.8,327 C159.567311,327 161,328.432689 161,330.2 L161,351.8 C161,353.567311 159.567311,355 157.8,355 L84.2,355 C82.4326888,355 81,353.567311 81,351.8 L81,330.2 C81,328.432689 82.4326888,327 84.2,327 L157.8,327 Z M157.8,330.2 L84.2,330.2 L84.2,351.8 L157.8,351.8 L157.8,330.2 Z M99.4,342.2 L99.4,348.6 L87.4,348.6 L87.4,342.2 L99.4,342.2 Z M141.8,344.6 L141.8,348.6 L137.8,348.6 L137.8,344.6 L141.8,344.6 Z M123.8,344.6 L123.8,348.6 L119.8,348.6 L119.8,344.6 L123.8,344.6 Z M147.8,344.6 L147.8,348.6 L143.8,348.6 L143.8,344.6 L147.8,344.6 Z M129.8,344.6 L129.8,348.6 L125.8,348.6 L125.8,344.6 L129.8,344.6 Z M111.8,344.6 L111.8,348.6 L107.8,348.6 L107.8,344.6 L111.8,344.6 Z M153.8,344.6 L153.8,348.6 L149.8,348.6 L149.8,344.6 L153.8,344.6 Z M135.8,344.6 L135.8,348.6 L131.8,348.6 L131.8,344.6 L135.8,344.6 Z M117.8,344.6 L117.8,348.6 L113.8,348.6 L113.8,344.6 L117.8,344.6 Z M99.4,333.4 L99.4,339.8 L87.4,339.8 L87.4,333.4 L99.4,333.4 Z M153.8,335 L153.8,338.2 L141.8,338.2 L141.8,335 L153.8,335 Z M139.8,335 L139.8,338.2 L127.8,338.2 L127.8,335 L139.8,335 Z M125.8,335 L125.8,338.2 L113.8,338.2 L113.8,335 L125.8,335 Z" id="Combined-Shape" fill="#24231F" fill-rule="nonzero"></path>
        <g id="Group" transform="translate(162.000000, 158.000000)">
            <path d="M86.4252215,13.1779105 L146.162655,106.613383 C149.137601,111.266504 147.777172,117.450275 143.12405,120.425221 C141.515636,121.453552 139.64648,122 137.737433,122 L18.2625668,122 C12.7397193,122 8.26256679,117.522847 8.26256679,112 C8.26256679,110.090953 8.80901502,108.221797 9.83734531,106.613383 L69.5747785,13.1779105 C72.5497249,8.52478919 78.7334957,7.16435963 83.386617,10.1393061 C84.6077155,10.9200083 85.6445192,11.9568121 86.4252215,13.1779105 Z" id="Triangle" fill="#D40B26"></path>
            <path d="M82.2399915,28.7839864 L128.218753,102.350005 C129.682305,104.691688 128.970439,107.77644 126.628756,109.239992 C125.834098,109.736653 124.91586,110 123.978762,110 L32.0212382,110 C29.2598145,110 27.0212382,107.761424 27.0212382,105 C27.0212382,104.062901 27.2845854,103.144663 27.7812467,102.350005 L73.7600085,28.7839864 C75.2235601,26.4423038 78.308312,25.730438 80.6499947,27.1939896 C81.2938404,27.5963931 81.837588,28.1401408 82.2399915,28.7839864 Z" id="Triangle" fill="#FFFFFF"></path>
            <path d="M67.8897342,12.1005871 C71.4596699,6.51684152 78.8801948,4.88432605 84.4639404,8.45426176 C85.9292585,9.3911045 87.173423,10.635269 88.1102658,12.1005871 L88.1102658,12.1005871 L147.847699,105.53606 C151.417635,111.119805 149.785119,118.54033 144.201374,122.110266 C142.271277,123.344262 140.028289,124 137.737433,124 L137.737433,124 L18.2625668,124 C11.6351498,124 6.26256679,118.627417 6.26256679,112 C6.26256679,109.709144 6.91830467,107.466156 8.15230101,105.53606 L8.15230101,105.53606 Z M82.0845047,11.6857082 C78.3899427,9.48898062 73.5921808,10.6071868 71.2598228,14.2552339 L71.2598228,14.2552339 L11.5223896,107.690706 C10.6997254,108.977438 10.2625668,110.472763 10.2625668,112 C10.2625668,116.418278 13.8442888,120 18.2625668,120 L18.2625668,120 L137.737433,120 C139.26467,120 140.759996,119.562841 142.046727,118.740177 C145.769224,116.36022 146.857568,111.413203 144.47761,107.690706 L144.47761,107.690706 L84.7401772,14.2552339 C84.1156154,13.2783552 83.2861724,12.4489122 82.3092936,11.8243504 L82.3092936,11.8243504 Z M72.0640119,27.7239886 C74.1129842,24.4456328 78.4316369,23.4490207 81.7099926,25.497993 C82.6113765,26.061358 83.3726232,26.8226046 83.9359881,27.7239886 L83.9359881,27.7239886 L129.91475,101.290007 C131.963722,104.568363 130.96711,108.887016 127.688754,110.935988 C126.576233,111.631314 125.2907,112 123.978762,112 L123.978762,112 L32.0212382,112 C28.155245,112 25.0212382,108.865993 25.0212382,105 C25.0212382,103.688062 25.3899243,102.402529 26.0852501,101.290007 L26.0852501,101.290007 Z M79.432122,28.7977709 C78.0492215,28.0448351 76.3016127,28.4910121 75.4560051,29.8439843 L75.4560051,29.8439843 L29.4772433,103.410003 C29.1792465,103.886798 29.0212382,104.437741 29.0212382,105 C29.0212382,106.656854 30.364384,108 32.0212382,108 L32.0212382,108 L123.978762,108 C124.541021,108 125.091964,107.841992 125.568759,107.543995 C126.973768,106.665864 127.400888,104.815013 126.522757,103.410003 L126.522757,103.410003 L80.5439949,29.8439843 C80.3025528,29.4576769 79.9763042,29.1314283 79.5899968,28.8899862 L79.5899968,28.8899862 Z" id="Combined-Shape" fill="#24231F" fill-rule="nonzero"></path>
            <path d="M81.36,81.8 L82.92,61.52 L83.28,52.04 L72.54,52.04 L72.9,61.52 L74.46,81.8 L81.36,81.8 Z M77.88,98.84 C81.6,98.84 84.24,95.9 84.24,92.18 C84.24,88.52 81.6,85.58 77.88,85.58 C74.22,85.58 71.58,88.52 71.58,92.18 C71.58,95.9 74.22,98.84 77.88,98.84 Z" id="!" fill="#24231F" fill-rule="nonzero"></path>
        </g>
        <path d="M283.998958,57 C284.551243,57 284.998958,57.4477153 284.998958,58 C284.998958,58.5128358 284.612918,58.9355072 284.115579,58.9932723 L283.998958,59 L134,59 C133.447715,59 133,58.5522847 133,58 C133,57.4871642 133.38604,57.0644928 133.883379,57.0067277 L134,57 L283.998958,57 Z" id="Line-3-Copy-49" fill="#24231F" fill-rule="nonzero"></path>
        <path d="M90.0010629,153 C90.5533477,153 91.0010629,153.447715 91.0010629,154 C91.0010629,154.512836 90.6150227,154.935507 90.117684,154.993272 L90.0010629,155 L21,155 C20.4477153,155 20,154.552285 20,154 C20,153.487164 20.3860402,153.064493 20.8833789,153.006728 L21,153 L90.0010629,153 Z" id="Line-3-Copy-50" fill="#24231F" fill-rule="nonzero"></path>
        <path d="M90.0010629,164 C90.5533477,164 91.0010629,164.447715 91.0010629,165 C91.0010629,165.512836 90.6150227,165.935507 90.117684,165.993272 L90.0010629,166 L42,166 C41.4477153,166 41,165.552285 41,165 C41,164.487164 41.3860402,164.064493 41.8833789,164.006728 L42,164 L90.0010629,164 Z" id="Line-3-Copy-51" fill="#24231F" fill-rule="nonzero"></path>
        <path d="M421,279 C421.552285,279 422,279.447715 422,280 C422,280.512836 421.61396,280.935507 421.116621,280.993272 L421,281 L390.001052,281 C389.448768,281 389.001052,280.552285 389.001052,280 C389.001052,279.487164 389.387093,279.064493 389.884431,279.006728 L390.001052,279 L421,279 Z" id="Line-3-Copy-53" fill="#24231F" fill-rule="nonzero"></path>
        <path d="M347.998942,352 C348.551227,352 348.998942,352.447715 348.998942,353 C348.998942,353.512836 348.612902,353.935507 348.115563,353.993272 L347.998942,354 L285.999995,354 C285.44771,354 284.999995,353.552285 284.999995,353 C284.999995,352.487164 285.386035,352.064493 285.883374,352.006728 L285.999995,352 L347.998942,352 Z" id="Line-3-Copy-54" fill="#24231F" fill-rule="nonzero"></path>
        <path d="M452,265 C452.552285,265 453,265.447715 453,266 C453,266.512836 452.61396,266.935507 452.116621,266.993272 L452,267 L390.001052,267 C389.448768,267 389.001052,266.552285 389.001052,266 C389.001052,265.487164 389.387093,265.064493 389.884431,265.006728 L390.001052,265 L452,265 Z" id="Line-3-Copy-52" fill="#24231F" fill-rule="nonzero"></path>
        <path d="M181.998942,71 C182.551227,71 182.998942,71.4477153 182.998942,72 C182.998942,72.5128358 182.612902,72.9355072 182.115563,72.9932723 L181.998942,73 L110,73 C109.447715,73 109,72.5522847 109,72 C109,71.4871642 109.38604,71.0644928 109.883379,71.0067277 L110,71 L181.998942,71 Z" id="Line-3-Copy-55" fill="#24231F" fill-rule="nonzero"></path>
        <circle id="Oval" fill="#EABDBF" cx="71" cy="103" r="5"></circle>
        <circle id="Oval-Copy-3" fill="#EABDBF" cx="38" cy="72" r="5"></circle>
        <circle id="Oval-Copy-4" fill="#EABDBF" cx="340" cy="64" r="5"></circle>
        <circle id="Oval-Copy-5" fill="#EABDBF" cx="214" cy="81" r="5"></circle>
        <circle id="Oval-Copy-6" fill="#EABDBF" cx="413" cy="123" r="5"></circle>
        <circle id="Oval-Copy-9" fill="#EABDBF" cx="457" cy="175" r="5"></circle>
        <circle id="Oval-Copy-10" fill="#EABDBF" cx="406" cy="219" r="5"></circle>
        <circle id="Oval-Copy-11" fill="#EABDBF" cx="436" cy="302" r="5"></circle>
        <circle id="Oval-Copy-12" fill="#EABDBF" cx="217" cy="361" r="5"></circle>
        <circle id="Oval-Copy-13" fill="#EABDBF" cx="41" cy="325" r="5"></circle>
        <path d="M79.1994177,65.2639925 C79.5600649,64.9120025 80.1447897,64.9120025 80.505437,65.2639925 L80.505437,65.2639925 L85.7295145,70.3626658 C86.0901618,70.7146558 86.0901618,71.2853442 85.7295145,71.6373342 L85.7295145,71.6373342 L80.505437,76.7360075 C80.1447897,77.0879975 79.5600649,77.0879975 79.1994177,76.7360075 C78.8387704,76.3840176 78.8387704,75.8133291 79.1994177,75.4613392 L79.1994177,75.4613392 L83.7704855,71 L79.1994177,66.5386608 C78.8387704,66.1866709 78.8387704,65.6159824 79.1994177,65.2639925 Z M70.7349516,65.2639925 C71.0955989,64.9120025 71.6803236,64.9120025 72.0409709,65.2639925 L72.0409709,65.2639925 L77.2650484,70.3626658 C77.6256957,70.7146558 77.6256957,71.2853442 77.2650484,71.6373342 L77.2650484,71.6373342 L72.0409709,76.7360075 C71.6803236,77.0879975 71.0955989,77.0879975 70.7349516,76.7360075 C70.3743043,76.3840176 70.3743043,75.8133291 70.7349516,75.4613392 L70.7349516,75.4613392 L75.3060194,71 L70.7349516,66.5386608 C70.3743043,66.1866709 70.3743043,65.6159824 70.7349516,65.2639925 Z M62.2704855,65.2639925 C62.6311328,64.9120025 63.2158576,64.9120025 63.5765048,65.2639925 L63.5765048,65.2639925 L68.8005823,70.3626658 C69.1612296,70.7146558 69.1612296,71.2853442 68.8005823,71.6373342 L68.8005823,71.6373342 L63.5765048,76.7360075 C63.2158576,77.0879975 62.6311328,77.0879975 62.2704855,76.7360075 C61.9098382,76.3840176 61.9098382,75.8133291 62.2704855,75.4613392 L62.2704855,75.4613392 L66.8415533,71 L62.2704855,66.5386608 C61.9098382,66.1866709 61.9098382,65.6159824 62.2704855,65.2639925 Z" id="Combined-Shape-Copy-4" fill="#24231F"></path>
        <path d="M428.199418,233.263992 C428.560065,232.912003 429.14479,232.912003 429.505437,233.263992 L429.505437,233.263992 L434.729515,238.362666 C435.090162,238.714656 435.090162,239.285344 434.729515,239.637334 L434.729515,239.637334 L429.505437,244.736008 C429.14479,245.087997 428.560065,245.087997 428.199418,244.736008 C427.83877,244.384018 427.83877,243.813329 428.199418,243.461339 L428.199418,243.461339 L432.770485,239 L428.199418,234.538661 C427.83877,234.186671 427.83877,233.615982 428.199418,233.263992 Z M419.734952,233.263992 C420.095599,232.912003 420.680324,232.912003 421.040971,233.263992 L421.040971,233.263992 L426.265048,238.362666 C426.625696,238.714656 426.625696,239.285344 426.265048,239.637334 L426.265048,239.637334 L421.040971,244.736008 C420.680324,245.087997 420.095599,245.087997 419.734952,244.736008 C419.374304,244.384018 419.374304,243.813329 419.734952,243.461339 L419.734952,243.461339 L424.306019,239 L419.734952,234.538661 C419.374304,234.186671 419.374304,233.615982 419.734952,233.263992 Z M411.270485,233.263992 C411.631133,232.912003 412.215858,232.912003 412.576505,233.263992 L412.576505,233.263992 L417.800582,238.362666 C418.16123,238.714656 418.16123,239.285344 417.800582,239.637334 L417.800582,239.637334 L412.576505,244.736008 C412.215858,245.087997 411.631133,245.087997 411.270485,244.736008 C410.909838,244.384018 410.909838,243.813329 411.270485,243.461339 L411.270485,243.461339 L415.841553,239 L411.270485,234.538661 C410.909838,234.186671 410.909838,233.615982 411.270485,233.263992 Z" id="Combined-Shape-Copy-5" fill="#24231F"></path>
        <path d="M194.199418,355.263992 C194.560065,354.912003 195.14479,354.912003 195.505437,355.263992 L195.505437,355.263992 L200.729515,360.362666 C201.090162,360.714656 201.090162,361.285344 200.729515,361.637334 L200.729515,361.637334 L195.505437,366.736008 C195.14479,367.087997 194.560065,367.087997 194.199418,366.736008 C193.83877,366.384018 193.83877,365.813329 194.199418,365.461339 L194.199418,365.461339 L198.770485,361 L194.199418,356.538661 C193.83877,356.186671 193.83877,355.615982 194.199418,355.263992 Z M185.734952,355.263992 C186.095599,354.912003 186.680324,354.912003 187.040971,355.263992 L187.040971,355.263992 L192.265048,360.362666 C192.625696,360.714656 192.625696,361.285344 192.265048,361.637334 L192.265048,361.637334 L187.040971,366.736008 C186.680324,367.087997 186.095599,367.087997 185.734952,366.736008 C185.374304,366.384018 185.374304,365.813329 185.734952,365.461339 L185.734952,365.461339 L190.306019,361 L185.734952,356.538661 C185.374304,356.186671 185.374304,355.615982 185.734952,355.263992 Z M177.270485,355.263992 C177.631133,354.912003 178.215858,354.912003 178.576505,355.263992 L178.576505,355.263992 L183.800582,360.362666 C184.16123,360.714656 184.16123,361.285344 183.800582,361.637334 L183.800582,361.637334 L178.576505,366.736008 C178.215858,367.087997 177.631133,367.087997 177.270485,366.736008 C176.909838,366.384018 176.909838,365.813329 177.270485,365.461339 L177.270485,365.461339 L181.841553,361 L177.270485,356.538661 C176.909838,356.186671 176.909838,355.615982 177.270485,355.263992 Z" id="Combined-Shape-Copy-6" fill="#24231F"></path>
    </g>
</svg>