<?xml version="1.0" encoding="UTF-8"?>
<svg width="560px" height="121px" viewBox="0 0 560 121" version="1.1" xmlns="http://www.w3.org/2000/svg" xmlns:xlink="http://www.w3.org/1999/xlink">
    <!-- Generator: Sketch 63.1 (92452) - https://sketch.com -->
    <title>logo</title>
    <desc>Created with Sketch.</desc>
    <g id="頁面設計稿" stroke="none" stroke-width="1" fill="none" fill-rule="evenodd">
        <g id="1440up_ThreatSonar" transform="translate(-460.000000, -268.000000)">
            <g id="hero" transform="translate(0.000000, -425.000000)">
                <g id="logo_part" transform="translate(460.000000, 693.000000)">
                    <g id="logo">
                        <path d="M119.817551,60.1418855 C119.817551,93.2275242 92.9955242,120.049551 59.908652,120.049551 C26.8217797,120.049551 -0.000246696035,93.2275242 -0.000246696035,60.1418855 C-0.000246696035,27.0550132 26.8217797,0.234220264 59.908652,0.234220264 C92.9955242,0.234220264 119.817551,27.0550132 119.817551,60.1418855" id="Fill-27" fill="#C71532"></path>
                        <path d="M93.0949427,26.955348 C94.2068511,28.0660722 94.2513274,29.8565881 93.2283717,31.0238783 L93.0949427,31.1664493 L90.4922996,33.767859 C96.8348546,41.1008987 100.308335,50.3507665 100.308335,60.1421322 C100.308335,70.9338502 96.1071013,81.0779912 88.4755595,88.7082996 C80.8489515,96.3373744 70.7035771,100.538608 59.9093921,100.538608 C49.117674,100.538608 38.9722996,96.3373744 31.3419912,88.7082996 C29.3092159,86.6755242 27.5280705,84.4589604 25.9960881,82.1054802 C28.0424317,81.7946432 29.8445463,80.7202819 31.0940617,79.1759648 C32.3645463,81.090326 33.8323877,82.8924405 35.4951189,84.5551718 C42.0152952,91.0741145 50.6866608,94.6647753 59.9093921,94.6647753 C69.1358238,94.6647753 77.803489,91.0741145 84.3224317,84.5551718 C90.8426079,78.0362291 94.4332687,69.3648634 94.4332687,60.1421322 C94.4332687,52.104885 91.6832158,44.5004291 86.6639369,38.3596021 L86.3182026,37.9431894 L81.6198767,42.6402819 C85.6225198,47.5865374 87.8205815,53.6910308 87.8205815,60.1445991 C87.8205815,67.6046872 84.9157357,74.6133216 79.6450749,79.8802819 C74.3719471,85.1509427 67.3633128,88.0545551 59.9081586,88.0545551 C59.696,88.0545551 59.4887753,88.0274185 59.2778502,88.0224846 C60.0734449,86.7692687 60.5421674,85.290326 60.5421674,83.702837 C60.5421674,83.1749075 60.4866608,82.6580793 60.3892159,82.1560529 C66.0940617,82.0351718 71.4436652,79.7742026 75.4919471,75.7271542 C79.6549427,71.5690925 81.9455154,66.032 81.9455154,60.1445991 C81.9455154,55.4264141 80.4528742,50.9468211 77.7238573,47.2083236 L77.4371454,46.8242467 L72.6981145,51.5620441 C74.3990837,54.0808106 75.3340617,57.0337621 75.3340617,60.1421322 C75.3340617,64.2607225 73.729304,68.1313833 70.8170573,71.0497974 C67.9035771,73.9632775 64.0292159,75.5668018 59.9081586,75.5668018 C55.7895683,75.5668018 51.9164405,73.9632775 49.0017269,71.0497974 C46.0894802,68.1375507 44.4847225,64.2631894 44.4847225,60.1421322 C44.4847225,56.0235419 46.0882467,52.1504141 49.0004934,49.234467 C51.5537974,46.6823965 54.936,45.0986079 58.5266608,44.7779031 C60.130185,44.6163172 61.5684229,45.8238943 61.715207,47.4422203 C61.8595242,49.0568458 60.6679824,50.4827489 59.0521233,50.6282996 C56.8293921,50.8256564 54.7361762,51.8075066 53.1548546,53.3875947 C51.3527401,55.1909427 50.3585551,57.5912952 50.3585551,60.1421322 C50.3585551,62.6942026 51.3515066,65.0920881 53.1548546,66.8954361 C56.7652511,70.509533 63.058467,70.5033656 66.662696,66.8954361 C68.4672775,65.0920881 69.4602291,62.6917357 69.4602291,60.1421322 C69.4602291,58.7479912 69.1430705,57.4087829 68.5752599,56.1796128 L68.4142379,55.8471542 L62.0137093,62.2464493 C60.8567048,63.4034537 58.9620793,63.4034537 57.8038414,62.2464493 C56.691933,61.134541 56.6474567,59.3439777 57.6704124,58.1788683 L57.8038414,58.0365815 L88.8838414,26.955348 C90.0433128,25.7971101 91.9379383,25.7971101 93.0949427,26.955348 Z M52.4247577,78.8952247 C55.0693392,78.8952247 57.2340969,81.0575154 57.2340969,83.7033304 C57.2340969,86.3491454 55.0693392,88.5114361 52.4247577,88.5114361 C49.7801762,88.5114361 47.6154185,86.3491454 47.6154185,83.7033304 C47.6154185,81.0575154 49.7801762,78.8952247 52.4247577,78.8952247 Z M284.832405,44.8198414 C288.166663,44.8198414 291.277467,45.7791112 293.916537,47.4256206 L294.273463,47.6543789 L294.273463,44.8198414 L302.057956,44.8198414 L302.057956,87.0801057 L294.273463,87.0801057 L294.273463,85.3705022 C291.677791,87.0789259 288.599099,88.112475 285.285668,88.1991193 L284.832405,88.2050396 L283.69637,88.2050396 C274.67859,88.2050396 267.277696,81.2342455 266.551153,72.4024551 L266.527559,72.0785198 L266.527559,60.9451278 C267.090561,52.0687072 274.38959,44.9921721 283.367182,44.8229417 L283.69637,44.8198414 L284.832405,44.8198414 Z M247.022044,44.8195947 C256.410671,44.8195947 264.068506,52.3707195 264.243308,61.7183457 L264.246361,62.0451454 L264.246361,70.3982731 L238.668916,70.3982731 L238.668916,70.9792423 C238.668916,74.877241 241.774808,78.0626838 245.642099,78.1910784 L245.884775,78.1951013 L247.022044,78.1951013 C250.447275,78.1951013 254.065497,76.2934311 254.231934,74.4475346 L254.237903,74.3158062 L264.246361,74.3158062 C264.246361,82.7888222 255.521619,88.0747617 247.32535,88.2024269 L247.022044,88.204793 L245.884775,88.204793 C236.868214,88.204793 229.467335,81.2339988 228.739603,72.4022084 L228.715965,72.0782731 L228.660458,62.0451454 C228.660458,52.6565181 236.210378,44.9974781 245.557976,44.8226486 L245.884775,44.8195947 L247.022044,44.8195947 Z M404.807718,44.8197181 C413.764018,44.8197181 421.051419,52.1058855 421.051419,61.0634185 L421.051419,71.391348 C421.051419,80.3488811 413.764018,87.6350485 404.807718,87.6350485 L396.147454,87.6350485 C387.191154,87.6350485 379.903753,80.3488811 379.903753,71.391348 L379.903753,61.0634185 C379.903753,52.1058855 387.191154,44.8197181 396.147454,44.8197181 L404.807718,44.8197181 Z M498.811489,44.8195947 C506.194724,44.8195947 512.221377,50.72571 512.422843,58.0598762 L512.427877,58.3706079 L512.431577,58.3706079 L512.431577,87.0675242 L502.425586,87.0675242 L502.425586,83.5915771 C499.232659,86.0234896 495.286561,87.5171006 490.986974,87.6172166 L490.524969,87.6225903 L482.031225,87.6225903 C474.90911,87.6225903 468.645498,82.3519295 468.009022,75.258185 C467.292802,67.2884075 473.488077,60.5551453 481.269937,60.388059 L481.566203,60.3848811 L502.425586,60.3848811 L502.425586,58.4384493 C502.425586,56.5106392 500.906518,54.9305395 499.003073,54.8306037 L498.811489,54.8255859 L473.796511,54.8255859 L473.796511,44.8195947 L498.811489,44.8195947 Z M161.934238,32.5874185 L161.934238,87.0801057 L151.92578,87.0801057 L151.92578,42.5958767 L137.468159,42.5958767 L137.468159,32.5874185 L161.934238,32.5874185 Z M215.314819,44.8195947 L215.314819,48.7519295 C219.074467,46.6844194 223.310423,45.4444817 227.027419,45.3485947 L227.489269,45.3425903 L227.548476,55.940652 C222.712732,55.940652 215.562082,59.5417493 215.321076,62.4199361 L215.314819,62.568141 L215.314819,87.079859 L205.306361,87.079859 L205.306361,44.8195947 L215.314819,44.8195947 Z M315.402485,38.1474537 L315.402485,45.7185551 L323.188211,45.7185551 L323.188211,53.316793 L315.402485,53.316793 L315.402485,76.1374097 C315.402485,76.6969163 315.836582,77.1575691 316.393888,77.2165027 L316.515084,77.2228722 L323.188211,77.2228722 L323.188211,86.9920352 C322.313674,86.9920352 317.609181,87.0796123 316.902396,87.0796123 C313.727419,87.0796123 310.610414,86.729304 308.214996,84.4473656 C306.389682,82.7110051 305.466442,80.3029361 305.398124,77.0948613 L305.394026,76.7060441 L305.394026,38.1474537 L315.402485,38.1474537 Z M176.391982,32.5877885 L176.391982,47.5375683 C178.452665,46.5812357 180.72475,46.006511 183.124896,45.9384061 L183.606608,45.9315771 L184.74511,45.9315771 C194.133737,45.9315771 201.791572,53.4827019 201.966374,62.8303281 L201.969427,63.1571278 L201.969427,87.0792423 L191.960969,87.0792423 L191.960969,63.1571278 C191.960969,59.2579207 188.856261,56.0724533 184.987859,55.9440582 L184.74511,55.9400352 L183.606608,55.9400352 C179.709817,55.9400352 176.524399,59.045927 176.396005,62.9143779 L176.391982,63.1571278 L176.391982,87.0792423 L166.382291,87.0792423 L166.382291,32.5877885 L176.391982,32.5877885 Z M371.763894,32.5876652 L371.763894,42.494978 L343.890943,42.494978 C340.890878,42.494978 338.439092,44.7397505 338.321278,47.542108 L338.316846,47.753304 L338.316846,49.6195595 C338.316846,52.4487418 340.695459,54.7636928 343.666994,54.8749342 L343.890943,54.8791189 L361.502573,54.8791189 C369.98759,54.8791189 376.910124,61.5139618 377.081862,69.7331199 L377.085128,70.0459912 L377.085128,71.9134802 C377.085128,80.1707203 370.268657,86.9087786 361.824027,87.0759399 L361.502573,87.0791189 L330.207947,87.0791189 L330.207947,77.1705727 L361.502573,77.1705727 C364.50023,77.1705727 366.954306,74.9258002 367.072233,72.124588 L367.07667,71.9134802 L367.07667,70.0459912 C367.07667,67.2168089 364.695708,64.9018579 361.72635,64.7906165 L361.502573,64.7864317 L343.890943,64.7864317 C335.405925,64.7864317 328.483391,58.1527917 328.311654,49.9324758 L328.308388,49.6195595 L328.308388,47.753304 C328.308388,39.4948458 335.124859,32.7579751 343.569488,32.5908437 L343.890943,32.5876652 L371.763894,32.5876652 Z M434.659789,44.8198414 L434.659789,44.8210749 L454.548423,70.6008106 L454.548423,44.8198414 L464.678996,44.8198414 L464.678996,87.0677709 L454.548423,87.0677709 L434.659789,61.2966696 L434.659789,87.0677709 L424.530449,87.0677709 L424.530449,44.8198414 L434.659789,44.8198414 Z M557.728423,44.2636652 L557.728423,54.2696564 L547.779219,54.2701043 C542.102304,54.284588 527.188231,54.7673762 526.881423,70.860316 L526.876617,71.3681586 L526.876617,87.0678943 L516.870626,87.0678943 L516.870626,71.3681586 C516.870626,54.3148634 528.090741,44.4619787 547.682483,44.2666263 L548.278731,44.2636652 L557.728423,44.2636652 Z M557.728176,59.8290749 L557.728176,69.8350661 L548.278485,69.8350661 C547.793727,69.8350661 547.350907,69.8412335 546.946326,69.8523348 C544.555841,69.9189427 542.651348,71.8542731 542.636546,74.2435242 C542.634902,74.5708076 542.634353,74.8975428 542.634171,75.2167858 L542.634079,87.0680176 L532.627937,87.0680176 L532.628116,74.8106285 C532.634998,70.4573665 532.775643,66.967533 535.025974,64.1043172 C537.750014,60.6381231 542.132132,59.8643928 547.866585,59.83028 L548.278485,59.8290749 L557.728176,59.8290749 Z M552.954608,73.6271542 C556.66615,73.6271542 559.674608,76.6356123 559.674608,80.3471542 C559.674608,84.058696 556.66615,87.0671542 552.954608,87.0671542 C549.243066,87.0671542 546.234608,84.058696 546.234608,80.3471542 C546.234608,76.6356123 549.243066,73.6271542 552.954608,73.6271542 Z M33.8919648,50.0584317 C35.1044758,51.6940264 36.9115242,52.8608987 38.9911718,53.2321762 C38.2658855,55.4339383 37.8711718,57.755348 37.8711718,60.1421322 C37.8711718,66.029533 40.162978,71.5653921 44.3247401,75.7271542 C45.1067665,76.5091806 45.9517004,77.20363 46.8250044,77.8499736 C45.3694978,79.2438062 44.4345198,81.1680352 44.3284405,83.3044229 C42.8531982,82.3090044 41.4593656,81.1680352 40.1716123,79.8802819 C34.8997181,74.6083877 31.9973392,67.5985198 31.9973392,60.1421322 C31.9973392,56.6328811 32.662185,53.2334097 33.8919648,50.0584317 Z M24.7850573,68.9868018 C27.5924581,68.9868018 29.8879648,71.2835419 29.8879648,74.0897093 C29.8879648,76.8958767 27.5924581,79.1926167 24.7850573,79.1926167 C21.9788899,79.1926167 19.6833833,76.8958767 19.6833833,74.0897093 C19.6833833,71.2835419 21.9788899,68.9868018 24.7850573,68.9868018 Z M284.832405,54.8282996 L283.69637,54.8282996 C279.797163,54.8282996 276.611696,57.9341913 276.4833,61.8026422 L276.479278,62.0453921 L276.479278,70.979489 C276.479278,74.8774877 279.585169,78.0629305 283.45362,78.1913251 L283.69637,78.195348 L284.832405,78.195348 C288.731612,78.195348 291.91708,75.0894562 292.045475,71.2221649 L292.049498,70.979489 L292.049498,62.0453921 C292.049498,58.0649515 288.812846,54.8282996 284.832405,54.8282996 Z M499.803207,70.3908722 L481.729022,70.3921057 C479.972546,70.3921057 478.352987,71.5750132 478.026115,73.2994185 C477.600393,75.5347587 479.252314,77.5054384 481.38815,77.6131958 L481.57237,77.6178326 L490.596511,77.6178326 C495.038273,77.6178326 498.783119,74.5847048 499.873515,70.4821498 C499.88585,70.4377445 499.850079,70.3908722 499.803207,70.3908722 Z M404.35133,56.0283524 L396.603841,56.0283524 C393.527542,56.0283524 391.026044,58.5310837 391.026044,61.6061498 L391.026044,70.8486167 C391.026044,73.9236828 393.527542,76.4264141 396.603841,76.4264141 L404.35133,76.4264141 C407.42763,76.4264141 409.930361,73.9236828 409.930361,70.8486167 L409.930361,61.6061498 C409.930361,58.5310837 407.42763,56.0283524 404.35133,56.0283524 Z M56.5450749,22.7200705 C56.8139736,24.3186608 55.7346784,25.8333744 54.1348546,26.1035066 C47.0448106,27.293815 40.5998767,30.6242115 35.4957357,35.7283524 C28.9730925,42.2485286 25.3811982,50.9186608 25.3811982,60.1413921 C25.3811982,62.1457974 25.5612863,64.1218326 25.894326,66.0583965 C25.5304493,66.0078238 25.1628722,65.9732863 24.7854273,65.9732863 C23.0733568,65.9732863 21.4834009,66.5135507 20.170978,67.4275595 C19.7392599,65.0469427 19.5085991,62.6120529 19.5085991,60.1413921 C19.5085991,49.3484405 23.7110661,39.2018326 31.3413744,31.5752247 C37.3138855,25.6014802 44.8603172,21.7061498 53.1628722,20.3086167 C54.7565286,20.0594537 56.2749427,21.1214802 56.5450749,22.7200705 Z M247.022044,54.8280529 L245.884775,54.8280529 C241.986777,54.8280529 238.801334,57.9339446 238.672939,61.8023955 L238.668916,62.0451454 L238.668916,62.6137797 L254.237903,62.6137797 L254.237903,62.0451454 C254.237903,58.0647048 251.001251,54.8280529 247.022044,54.8280529 Z M40.4074537,40.44 C43.0532687,40.44 45.2155595,42.6035242 45.2155595,45.2481057 C45.2155595,47.8939207 43.0532687,50.0574449 40.4074537,50.0574449 C37.7616388,50.0574449 35.599348,47.8939207 35.599348,45.2481057 C35.599348,42.6035242 37.7616388,40.44 40.4074537,40.44 Z M57.6457093,35.0955771 C57.9775154,36.6842996 56.9611278,38.2384846 55.3736388,38.5702907 C52.6279119,39.146326 50.0450044,40.2441233 47.7309956,41.7822731 C46.8428899,39.9172511 45.2652687,38.4432423 43.3299383,37.6871189 C46.5419207,35.3102026 50.226326,33.6474714 54.1685286,32.8235066 C55.764652,32.4929339 57.3126696,33.5056211 57.6457093,35.0955771 Z" id="Combined-Shape" fill="#FEFEFE"></path>
                    </g>
                </g>
            </g>
        </g>
    </g>
</svg>