<?xml version="1.0" encoding="UTF-8"?>
<svg width="480px" height="400px" viewBox="0 0 480 400" version="1.1" xmlns="http://www.w3.org/2000/svg" xmlns:xlink="http://www.w3.org/1999/xlink">
    <!-- Generator: Sketch 63.1 (92452) - https://sketch.com -->
    <title>img/what_is_sonar</title>
    <desc>Created with Sketch.</desc>
    <defs>
        <polygon id="path-1" points="0 0.3015 160.197085 0.3015 160.197085 159.7497 0 159.7497"></polygon>
    </defs>
    <g id="img/what_is_sonar" stroke="none" stroke-width="1" fill="none" fill-rule="evenodd">
        <circle id="Oval" fill="#E2E3E6" cx="150.5" cy="138.5" r="110.5"></circle>
        <circle id="Oval-Copy-18" fill="#E2E3E6" cx="89.5" cy="319.5" r="56.5"></circle>
        <circle id="Oval-Copy-17" fill="#E2E3E6" cx="319" cy="243" r="149"></circle>
        <rect id="Rectangle" fill="#EABDBF" x="348" y="137" width="72" height="48"></rect>
        <rect id="Rectangle-Copy-24" fill="#EABDBF" x="376" y="317" width="72" height="48"></rect>
        <rect id="Rectangle-Copy-23" fill="#EABDBF" x="192" y="49" width="80" height="58"></rect>
        <rect id="Rectangle-Copy-21" fill="#EABDBF" x="33" y="307" width="76" height="24"></rect>
        <rect id="Rectangle-Copy-22" fill="#EABDBF" x="78" y="238" width="72" height="41"></rect>
        <rect id="Rectangle-Copy-15" fill="#EABDBF" x="266" y="294" width="70" height="60"></rect>
        <circle id="Oval" fill="#EABDBF" cx="369" cy="252" r="30"></circle>
        <circle id="Oval" fill="#EABDBF" cx="369" cy="252" r="30"></circle>
        <circle id="Oval-Copy-13" fill="#EABDBF" cx="184" cy="345" r="38"></circle>
        <circle id="Oval-Copy-14" fill="#EABDBF" cx="62" cy="151" r="42"></circle>
        <circle id="Oval-Copy-15" fill="#EABDBF" cx="109" cy="65" r="35"></circle>
        <circle id="Oval-Copy-16" fill="#EABDBF" cx="348" cy="75" r="29"></circle>
        <g id="Group-18" transform="translate(152.000000, 123.000000)">
            <g id="Group-3" transform="translate(0.000000, 0.448500)">
                <mask id="mask-2" fill="white">
                    <use xlink:href="#path-1"></use>
                </mask>
                <g id="Clip-2"></g>
                <path d="M160.197461,80.02545 C160.197461,124.05645 124.335884,159.7497 80.098919,159.7497 C35.8612007,159.7497 -0.000376760563,124.05645 -0.000376760563,80.02545 C-0.000376760563,35.9952 35.8612007,0.3012 80.098919,0.3012 C124.335884,0.3012 160.197461,35.9952 160.197461,80.02545" id="Fill-1" fill="#C71532" mask="url(#mask-2)"></path>
            </g>
            <path d="M33.1386535,88.23435 C33.6427592,88.23435 34.1348085,88.28085 34.6215831,88.3476 C34.1762521,85.77135 33.9358789,83.14185 33.9358789,80.4741 C33.9358789,68.1996 38.7373155,56.66085 47.457062,47.9856 C54.2832099,41.19135 62.8989704,36.76035 72.3782662,35.17635 C74.5182662,34.81785 75.9605056,32.8026 75.6018296,30.6726 C75.2416465,28.5471 73.210907,27.13485 71.0791958,27.4671 C59.9790761,29.3256 49.8901817,34.50885 41.9043648,42.45885 C31.7024423,52.60785 26.0826817,66.1116 26.0826817,80.4741 C26.0826817,83.7621 26.3916254,87.00135 26.9688225,90.1701 C28.7237732,88.9536 30.8494563,88.23435 33.1386535,88.23435" id="Fill-4" fill="#FEFEFE"></path>
            <path d="M45.3134451,67.054875 C43.669262,71.280375 42.7808606,75.805125 42.7808606,80.473875 C42.7808606,90.397875 46.6614944,99.725625 53.709931,106.741125 C55.4309732,108.454125 57.294431,109.972125 59.2686563,111.298875 C59.4088113,108.454875 60.6596563,105.894375 62.6060014,104.040375 C61.4387972,103.178625 60.3085155,102.255375 59.2626282,101.214375 C53.6978746,95.676375 50.6348113,88.309875 50.6348113,80.473875 C50.6348113,77.299125 51.1622761,74.209875 52.1313042,71.278875 C49.3508113,70.786125 46.9350225,69.232125 45.3134451,67.054875" id="Fill-6" fill="#FEFEFE"></path>
            <path d="M72.4247585,44.11905 C67.1523711,45.2163 62.2281106,47.4288 57.9330401,50.59305 C60.5206317,51.59655 62.6282303,53.56005 63.8172866,56.0418 C66.9119979,53.9943 70.3646317,52.53405 74.0357866,51.7683 C76.1577021,51.32505 77.5170542,49.25655 77.0739838,47.1423 C76.6271458,45.0273 74.5587303,43.6803 72.4247585,44.11905" id="Fill-8" fill="#FEFEFE"></path>
            <path d="M120.989346,45.377025 L124.469106,41.912775 C126.017592,40.372275 126.017592,37.850775 124.469106,36.310275 C122.921374,34.769025 120.388036,34.769025 118.83955,36.310275 L77.2843669,77.672025 C75.735881,79.212525 75.735881,81.734025 77.2843669,83.275275 C78.8320993,84.815775 81.3654373,84.815775 82.9139232,83.275275 L91.4694021,74.759025 C92.3645852,76.514025 92.8694444,78.450525 92.8694444,80.474025 C92.8694444,83.867025 91.5409866,87.062025 89.1289655,89.462775 C84.3101979,94.264275 75.8971345,94.271775 71.0693246,89.462775 C68.6573035,87.062025 67.3303528,83.870775 67.3303528,80.474025 C67.3303528,77.080275 68.6595641,73.886025 71.0693246,71.485275 C73.1821979,69.382275 75.9815289,68.077275 78.9534162,67.814025 C81.1137613,67.619025 82.7074585,65.722275 82.5138035,63.573525 C82.3186415,61.421025 80.3949021,59.813775 78.2511345,60.027525 C73.4504514,60.455025 68.9270641,62.561775 65.5143669,65.958525 C61.6209232,69.840525 59.4771556,74.993025 59.4771556,80.474025 C59.4771556,85.958775 61.6224303,91.115025 65.5166275,94.988775 C69.4130852,98.867025 74.5912824,101.000775 80.0980148,101.000775 C85.6085148,101.000775 90.7874655,98.867025 94.6831697,94.988775 C98.5773669,91.107525 100.722642,85.955025 100.722642,80.474025 C100.722642,76.337775 99.4717965,72.408525 97.1999303,69.056025 L103.534029,62.750775 C107.426719,67.826775 109.563705,73.981275 109.563705,80.477775 C109.563705,88.313775 106.499888,95.680275 100.933627,101.214525 C95.5203317,106.600275 88.3686627,109.608525 80.7400148,109.770525 C80.8711275,110.438025 80.944219,111.125025 80.944219,111.829275 C80.944219,113.940525 80.3187965,115.909275 79.2555782,117.578025 C79.5373951,117.584025 79.8146908,117.618525 80.0980148,117.618525 C90.0663458,117.618525 99.4356275,113.756025 106.486325,106.740525 C113.534008,99.733275 117.417656,90.405525 117.417656,80.477775 C117.417656,71.890275 114.477416,63.765525 109.126663,57.185025 L115.408768,50.931525 C122.413501,59.199525 126.259473,69.535275 126.259473,80.474025 C126.259473,92.748525 121.458789,104.286525 112.74055,112.962525 C104.024571,121.637775 92.4346627,126.416025 80.0995218,126.416025 C67.7696556,126.416025 56.1752261,121.637775 47.4569866,112.962525 C45.2356063,110.750775 43.2711768,108.351525 41.5727401,105.803775 C39.9036908,107.859525 37.4931768,109.289025 34.7578951,109.702275 C36.805212,112.835025 39.1863387,115.783275 41.9042894,118.488525 C52.1069655,128.641275 65.6718528,134.233275 80.0995218,134.233275 C94.531712,134.233275 108.095092,128.641275 118.293247,118.488525 C128.495923,108.336525 134.113423,94.836525 134.113423,80.474025 C134.113423,67.445025 129.468719,55.135275 120.989346,45.377025" id="Fill-10" fill="#FEFEFE"></path>
            <path d="M39.9600542,99.035325 C39.9600542,95.301075 36.8902092,92.244825 33.1384275,92.244825 C29.3866458,92.244825 26.3168007,95.301075 26.3168007,99.035325 C26.3168007,102.769575 29.3866458,105.825825 33.1384275,105.825825 C36.8902092,105.825825 39.9600542,102.769575 39.9600542,99.035325" id="Fill-12" fill="#FEFEFE"></path>
            <path d="M54.0253549,54.2547 C50.4898338,54.2547 47.5963127,57.1347 47.5963127,60.65445 C47.5963127,64.1742 50.4898338,67.0542 54.0253549,67.0542 C57.5616296,67.0542 60.4551507,64.1742 60.4551507,60.65445 C60.4551507,57.1347 57.5616296,54.2547 54.0253549,54.2547" id="Fill-14" fill="#FEFEFE"></path>
            <path d="M76.5227831,111.8289 C76.5227831,108.30915 73.629262,105.42915 70.0929873,105.42915 C66.5559592,105.42915 63.6631915,108.30915 63.6631915,111.8289 C63.6631915,115.34865 66.5559592,118.22865 70.0929873,118.22865 C73.629262,118.22865 76.5227831,115.34865 76.5227831,111.8289" id="Fill-16" fill="#FEFEFE"></path>
        </g>
        <path d="M102.999745,24 C119.863406,24 133.587714,35.751974 134.043818,50.3999973 L134.055527,50.4 L138.838527,61.6121614 C139.271627,62.627421 138.803498,63.8031788 137.792931,64.2382901 C137.545128,64.3449845 137.278336,64.4 137.008734,64.4 L133.699872,64.3996992 C131.983518,78.7996855 118.818992,90 102.833594,90 C86.8481969,90 73.6836712,78.7996855 71.9673163,64.3996992 L68.9907552,64.4 C67.8912915,64.4 67,63.5045695 67,62.4 C67,62.1291464 67.0547612,61.8611151 67.1609625,61.6121614 L71.943963,50.4 L71.9556712,50.4 C72.4117755,35.751974 86.1360835,24 102.999745,24 Z M79.2405018,64.3999446 L75.1793539,64.4 C76.8925758,76.9833536 88.5751122,86.8 102.833594,86.8 C117.092076,86.8 128.774613,76.9833536 130.487835,64.4 L126.426687,64.3999446 C125.219698,70.8127363 120.462644,75.6 114.778126,75.6 C109.093608,75.6 104.336554,70.8127363 103.129565,64.3999446 L102.537624,64.3999446 C101.330635,70.8127363 96.5735811,75.6 90.8890629,75.6 C85.2045448,75.6 80.4474908,70.8127363 79.2405018,64.3999446 Z M107.20586,75.6 C108.089516,75.6 108.80586,76.3163444 108.80586,77.2 C108.80586,78.0836556 108.089516,78.8 107.20586,78.8 L98.4613286,78.8 C97.577673,78.8 96.8613286,78.0836556 96.8613286,77.2 C96.8613286,76.3163444 97.577673,75.6 98.4613286,75.6 L107.20586,75.6 Z M99.284312,64.4 L82.4938138,64.4 C83.5904686,69.0845279 87.0255912,72.4 90.8890629,72.4 C94.7525346,72.4 98.1876572,69.0845279 99.284312,64.4 Z M123.173375,64.4 L106.382877,64.4 C107.479531,69.0845279 110.914654,72.4 114.778126,72.4 C118.641598,72.4 122.07672,69.0845279 123.173375,64.4 Z M102.999745,27.2 C88.1600882,27.2 76.1169685,37.1662822 75.1870148,49.5989942 L92.4816671,49.6 L92.4816671,53.6 L74.0442779,53.5999982 L70.80219,61.2 L135.197299,61.2 L131.955006,53.5995167 L113.185522,53.6 L113.185522,49.6 L130.812475,49.5989942 C129.882521,37.1662822 117.839401,27.2 102.999745,27.2 Z M105.819727,43.8 L105.819573,48.799 L110.796615,48.8 L110.796615,54.8 L105.819573,54.799 L105.819727,59.8 L99.8474615,59.8 L99.8465734,54.799 L94.8705734,54.8 L94.8705734,48.8 L99.8465734,48.799 L99.8474615,43.8 L105.819727,43.8 Z" id="Combined-Shape" fill="#24231F" fill-rule="nonzero"></path>
        <path d="M429.6,308 C430.704569,308 431.6,308.888595 431.6,309.984733 L431.6,320.152 L443.929771,320.152672 C445.025909,320.152672 445.914504,321.048102 445.914504,322.152672 L445.914504,358.152672 C445.914504,359.257241 445.025909,360.152672 443.929771,360.152672 L425.670229,360.152672 C424.574091,360.152672 423.685496,359.257241 423.685496,358.152672 L423.684,347.694 L410.8,347.694 L410.8,356.824 L417.212214,356.824427 C418.089124,356.824427 418.8,357.535304 418.8,358.412214 C418.8,359.289124 418.089124,360 417.212214,360 L380.387786,360 C379.510876,360 378.8,359.289124 378.8,358.412214 C378.8,357.535304 379.510876,356.824427 380.387786,356.824427 L386.799,356.824 L386.799,347.694 L368,347.694656 C366.895431,347.694656 366,346.806061 366,345.709924 L366,309.984733 C366,308.888595 366.895431,308 368,308 L429.6,308 Z M431.6,327.053 L438.812214,327.053435 C439.689124,327.053435 440.4,327.764311 440.4,328.641221 C440.4,329.518132 439.689124,330.229008 438.812214,330.229008 L431.6,330.229 L431.6,332.213 L438.812214,332.21374 C439.689124,332.21374 440.4,332.924617 440.4,333.801527 C440.4,334.678437 439.689124,335.389313 438.812214,335.389313 L431.6,335.389 L431.600136,344.703365 C432.504844,344.060213 433.608642,343.682443 434.8,343.682443 C437.869185,343.682443 440.357252,346.189648 440.357252,349.282443 C440.357252,352.375237 437.869185,354.882443 434.8,354.882443 C431.730815,354.882443 429.242748,352.375237 429.242748,349.282443 C429.242748,348.730708 429.321929,348.197608 429.469465,347.694055 L426.861,347.694 L426.861,356.952672 L442.738931,356.952672 L442.738931,323.352672 L431.6,323.352 L431.6,327.053 Z M407.6,347.694656 L390,347.694656 L390,356.824427 L407.6,356.824427 L407.6,347.694656 Z M434.8,346.882443 C433.484635,346.882443 432.418321,347.956959 432.418321,349.282443 C432.418321,350.607926 433.484635,351.682443 434.8,351.682443 C436.115365,351.682443 437.181679,350.607926 437.181679,349.282443 C437.181679,347.956959 436.115365,346.882443 434.8,346.882443 Z M428.4,311.175573 L369.2,311.175573 L369.2,344.519084 L428.4,344.519084 L428.4,320.304 L425.599,320.303 L425.6,339.755725 C425.6,340.851863 424.704569,341.740458 423.6,341.740458 L374,341.740458 C372.895431,341.740458 372,340.851863 372,339.755725 L372,315.938931 C372,314.842794 372.895431,313.954198 374,313.954198 L423.6,313.954198 C424.704569,313.954198 425.6,314.842794 425.6,315.938931 L425.598998,320.153936 L428.4,320.152 L428.4,311.175573 Z M422.4,317.129771 L375.2,317.129771 L375.2,338.564885 L422.4,338.564885 L422.4,317.129771 Z" id="Shape" fill="#24231F" fill-rule="nonzero"></path>
        <path d="M100.8,299 C102.567311,299 104,300.432689 104,302.2 L104,323.8 C104,325.567311 102.567311,327 100.8,327 L27.2,327 C25.4326888,327 24,325.567311 24,323.8 L24,302.2 C24,300.432689 25.4326888,299 27.2,299 L100.8,299 Z M100.8,302.2 L27.2,302.2 L27.2,323.8 L100.8,323.8 L100.8,302.2 Z M42.4,314.2 L42.4,320.6 L30.4,320.6 L30.4,314.2 L42.4,314.2 Z M84.8,316.6 L84.8,320.6 L80.8,320.6 L80.8,316.6 L84.8,316.6 Z M66.8,316.6 L66.8,320.6 L62.8,320.6 L62.8,316.6 L66.8,316.6 Z M90.8,316.6 L90.8,320.6 L86.8,320.6 L86.8,316.6 L90.8,316.6 Z M72.8,316.6 L72.8,320.6 L68.8,320.6 L68.8,316.6 L72.8,316.6 Z M54.8,316.6 L54.8,320.6 L50.8,320.6 L50.8,316.6 L54.8,316.6 Z M96.8,316.6 L96.8,320.6 L92.8,320.6 L92.8,316.6 L96.8,316.6 Z M78.8,316.6 L78.8,320.6 L74.8,320.6 L74.8,316.6 L78.8,316.6 Z M60.8,316.6 L60.8,320.6 L56.8,320.6 L56.8,316.6 L60.8,316.6 Z M42.4,305.4 L42.4,311.8 L30.4,311.8 L30.4,305.4 L42.4,305.4 Z M96.8,307 L96.8,310.2 L84.8,310.2 L84.8,307 L96.8,307 Z M82.8,307 L82.8,310.2 L70.8,310.2 L70.8,307 L82.8,307 Z M68.8,307 L68.8,310.2 L56.8,310.2 L56.8,307 L68.8,307 Z" id="Combined-Shape" fill="#24231F" fill-rule="nonzero"></path>
        <path d="M303.568213,26 C307.748021,26 311.136425,29.4085489 311.136425,33.613207 C311.136425,35.1356495 310.692187,36.5537178 309.926994,37.7433962 L318.503473,46.3712248 C320.207388,44.8706016 322.125109,43.6095944 324.204666,42.6404822 L321.614981,35.8553101 C321.300823,35.032036 321.711463,34.1097127 322.533485,33.7922922 L322.534288,33.791982 C323.352549,33.4760135 324.272024,33.8832023 324.587993,34.7014635 C324.588749,34.7034223 324.589501,34.7053826 324.59025,34.7073444 L327.179293,41.4912651 C328.924862,40.9490963 330.755844,40.6026933 332.6469,40.4775482 L332.646083,29.9974786 C332.646083,29.1175189 333.359431,28.4041706 334.23939,28.4041706 C335.11935,28.4041706 335.832698,29.1175189 335.832698,29.9974786 L335.832828,40.4776109 C338.012138,40.6219186 340.111659,41.0600786 342.092602,41.7530731 L343.358736,38.7531698 C343.699694,37.9451479 344.631126,37.5665178 345.439148,37.9074756 C345.441227,37.9083531 345.443305,37.909235 345.445381,37.9101213 L345.44682,37.9107361 C346.257041,38.256699 346.635145,39.1925514 346.29264,40.0042398 L345.025797,43.0070382 C346.816969,43.9198849 348.478428,45.0529857 349.974965,46.3709225 L354.669685,41.6475927 C354.087869,40.5693641 353.757413,39.3339291 353.757413,38.0208532 C353.757413,33.816195 357.145817,30.4076462 361.325625,30.4076462 C365.505434,30.4076462 368.893838,33.816195 368.893838,38.0208532 C368.893838,42.2255113 365.505434,45.6340602 361.325625,45.6340602 C359.607215,45.6340602 358.022568,45.0579433 356.752147,44.0872435 L352.228522,48.6379165 C354.260623,50.9729971 355.850661,53.7072061 356.867248,56.7083753 L369.985997,53.1721908 C370.837819,52.9425889 371.714487,53.4469978 371.944089,54.2988197 C371.944499,54.3003434 371.944908,54.3018678 371.945314,54.3033927 L371.947085,54.3100435 C372.174054,55.1621375 371.668817,56.0372406 370.8174,56.2667336 L357.690149,59.8055525 C357.984653,61.3134831 358.139009,62.8719735 358.139009,64.4667302 C358.139009,66.06184 357.984585,67.6206675 357.689953,69.1289096 L365.046085,71.1111139 C365.897503,71.3406068 366.402739,72.21571 366.175771,73.0678039 L366.173999,73.0744547 C365.946923,73.9269534 365.071754,74.4339583 364.219256,74.206882 C364.217731,74.2064758 364.216206,74.2060674 364.214683,74.2056566 L356.867248,72.225085 C355.850611,75.2264016 354.260467,77.9607317 352.228223,80.2958878 L359.594057,87.7054609 C359.681984,87.7939107 359.757449,87.8900711 359.820452,87.9917564 C360.956698,87.3020902 362.29012,86.9056561 363.715587,86.9056561 C367.895396,86.9056561 371.2838,90.314205 371.2838,94.5188631 C371.2838,98.7235212 367.895396,102.13207 363.715587,102.13207 C359.535779,102.13207 356.147375,98.7235212 356.147375,94.5188631 C356.147375,92.8848088 356.659135,91.3709932 357.530223,90.1307557 C357.464205,90.085702 357.401434,90.032407 357.342145,89.973469 C357.339919,89.9712561 357.3377,89.9690366 357.335487,89.9668105 L349.974965,82.5625378 C347.653588,84.6068756 344.935392,86.2064769 341.951784,87.2291516 L343.100236,91.5397914 C343.327017,92.3911799 342.822199,93.2655586 341.971486,93.4948615 C341.124026,93.7232878 340.251847,93.2214616 340.023421,92.3740012 C340.023012,92.3724853 340.022606,92.3709688 340.022202,92.3694516 L338.873052,88.0569011 C337.374024,88.3531601 335.824733,88.5084365 334.23939,88.5084365 C332.654048,88.5084365 331.104757,88.3531601 329.605728,88.0569011 L325.673025,102.819579 C325.447111,103.667713 324.576424,104.172121 323.72829,103.946208 C323.726773,103.945804 323.725256,103.945397 323.72374,103.944989 C322.873028,103.715686 322.368209,102.841307 322.59499,101.989919 L326.526997,87.2291516 C323.543242,86.2064265 320.824925,84.6067179 318.503473,82.5622355 L316.698553,84.3782473 C317.463746,85.5679257 317.907984,86.985994 317.907984,88.5084365 C317.907984,92.7130946 314.51958,96.1216435 310.339771,96.1216435 C306.159963,96.1216435 302.771559,92.7130946 302.771559,88.5084365 C302.771559,84.3037784 306.159963,80.8952295 310.339771,80.8952295 C311.852988,80.8952295 313.262479,81.341974 314.445017,82.1115032 L316.250558,80.2958878 C314.126275,77.854975 312.485045,74.9779134 311.476947,71.8156757 L298.30108,75.1208611 C297.445164,75.3355337 296.57728,74.815703 296.362607,73.9597867 C296.362247,73.9583492 296.361888,73.9569111 296.361531,73.9554725 L296.359926,73.9489946 C296.147759,73.0929787 296.668272,72.2266914 297.523694,72.0121427 L310.709833,68.7043125 C310.466655,67.3286985 310.339771,65.9126201 310.339771,64.4667302 C310.339771,62.8719735 310.494128,61.3134831 310.788632,59.8055525 L303.432696,57.8223464 C302.581278,57.5928535 302.076042,56.7177503 302.30301,55.8656564 L302.304782,55.8590056 C302.531858,55.006507 303.407027,54.499502 304.259525,54.7265783 C304.26105,54.7269845 304.262575,54.727393 304.264098,54.7278037 L311.611533,56.7083753 C312.62812,53.7072061 314.218157,50.9729971 316.250259,48.6379165 L307.674459,40.009489 C306.491716,40.7794175 305.081857,41.226414 303.568213,41.226414 C299.388404,41.226414 296,37.8178651 296,33.613207 C296,29.4085489 299.388404,26 303.568213,26 Z M363.715587,90.1112169 C361.295698,90.1112169 359.33399,92.0845873 359.33399,94.5188631 C359.33399,96.9531389 361.295698,98.9265093 363.715587,98.9265093 C366.135476,98.9265093 368.097184,96.9531389 368.097184,94.5188631 C368.097184,92.0845873 366.135476,90.1112169 363.715587,90.1112169 Z M310.339771,84.1007903 C307.919882,84.1007903 305.958175,86.0741608 305.958175,88.5084365 C305.958175,90.9427123 307.919882,92.9160827 310.339771,92.9160827 C312.759661,92.9160827 314.721368,90.9427123 314.721368,88.5084365 C314.721368,86.0741608 312.759661,84.1007903 310.339771,84.1007903 Z M334.23939,43.6305847 C322.799915,43.6305847 313.526387,52.9592448 313.526387,64.4667302 C313.526387,75.9742156 322.799915,85.3028757 334.23939,85.3028757 C345.678866,85.3028757 354.952394,75.9742156 354.952394,64.4667302 C354.952394,52.9592448 345.678866,43.6305847 334.23939,43.6305847 Z M323.594245,66.0157607 C323.596151,66.0164502 323.598055,66.0171433 323.599958,66.01784 L328.085276,67.6600679 C328.912827,67.9630627 329.339559,68.8782021 329.039719,69.7069019 L329.037079,69.7141989 C328.73726,70.5428432 327.822459,70.9715405 326.993815,70.6717211 C326.991909,70.6710317 326.990005,70.6703385 326.988102,70.6696418 L322.502784,69.0274139 C321.675233,68.7244192 321.248501,67.8092797 321.548341,66.9805799 L321.550981,66.9732829 C321.8508,66.1446386 322.765601,65.7159413 323.594245,66.0157607 Z M342.528567,66.0157607 C343.357212,65.7159413 344.272012,66.1446386 344.571832,66.9732829 L344.571832,66.9732829 C344.874311,67.8092797 344.44758,68.7244192 343.620028,69.0274139 L343.620028,69.0274139 L339.13471,70.6696418 L339.13471,70.6696418 C338.300353,70.9715405 337.385553,70.5428432 337.085733,69.7141989 L337.085733,69.7141989 C336.783253,68.8782021 337.209985,67.9630627 338.037537,67.6600679 L338.037537,67.6600679 L342.522855,66.01784 L342.522855,66.01784 Z M361.325625,33.613207 C358.905736,33.613207 356.944029,35.5865774 356.944029,38.0208532 C356.944029,40.4551289 358.905736,42.4284993 361.325625,42.4284993 C363.745514,42.4284993 365.707222,40.4551289 365.707222,38.0208532 C365.707222,35.5865774 363.745514,33.613207 361.325625,33.613207 Z M303.568213,29.2055608 C301.148324,29.2055608 299.186616,31.1789313 299.186616,33.613207 C299.186616,36.0474828 301.148324,38.0208532 303.568213,38.0208532 C305.988102,38.0208532 307.94981,36.0474828 307.94981,33.613207 C307.94981,31.1789313 305.988102,29.2055608 303.568213,29.2055608 Z" id="Combined-Shape" fill="#24231F" fill-rule="nonzero"></path>
        <path d="M263.6,42 C264.925483,42 266,43.0708865 266,44.3918919 L266,98.6081081 C266,99.9291135 264.925483,101 263.6,101 L188.4,101 C187.074517,101 186,99.9291135 186,98.6081081 L186,44.3918919 C186,43.0708865 187.074517,42 188.4,42 L263.6,42 Z M262.8,59.141 L189.2,59.141 L189.2,97.8108108 L262.8,97.8108108 L262.8,59.141 Z M228.463551,66.3175676 C228.826585,66.3175676 229.118587,66.4630983 229.339564,66.7541641 C229.513189,66.9643783 229.6,67.1988445 229.6,67.4575697 C229.6,67.5384213 229.592108,67.6273568 229.576324,67.7243787 L224.841121,89.6269727 C224.746417,90.0312307 224.541227,90.3667599 224.225545,90.6335703 C223.909863,90.9003806 223.546835,91.0337838 223.136449,91.0337838 L223.112773,91.0337838 C222.765523,91.0337838 222.473521,90.8882531 222.23676,90.5971872 C222.078919,90.386973 222,90.1525068 222,89.8937817 C222,89.81293 222.007892,89.7239946 222.023676,89.6269727 L226.758879,67.7243787 C226.837799,67.3039503 227.039043,66.9643786 227.362617,66.7056534 C227.686191,66.4469282 228.053165,66.3175676 228.463551,66.3175676 Z M219.429412,71.1013514 C219.607354,71.1013514 219.785293,71.1584509 219.963235,71.2726519 C220.254413,71.4684248 220.4,71.7457658 220.4,72.1046829 L220.4,72.8632994 C220.4,73.2874742 220.274634,73.6749358 220.023897,74.0256957 C219.773161,74.3764557 219.437502,74.6170897 219.016912,74.747605 L215.547059,75.8732941 L211.7375,77.1947552 C211.68897,77.2110696 211.664706,77.2396194 211.664706,77.2804054 C211.664706,77.3211914 211.68897,77.3497412 211.7375,77.3660557 L215.547059,78.6630452 L219.041176,79.8132058 C219.44559,79.9437211 219.773161,80.1802766 220.023897,80.5228793 C220.274634,80.865482 220.4,81.2570221 220.4,81.6975114 L220.4,82.4561279 C220.4,82.8150451 220.254413,83.092386 219.963235,83.288159 C219.785293,83.4023599 219.607354,83.4594595 219.429412,83.4594595 C219.299999,83.4594595 219.178677,83.4349882 219.065441,83.386045 L208.534559,79.3237758 C208.130145,79.1606316 207.806619,78.8996049 207.563971,78.5406877 C207.321322,78.1817706 207.2,77.7820734 207.2,77.3415842 L207.2,77.1947552 C207.2,76.7705803 207.321322,76.3790402 207.563971,76.0201231 C207.806619,75.6612059 208.130145,75.4001792 208.534559,75.2370351 L219.065441,71.1747659 C219.178677,71.1258226 219.299999,71.1013514 219.429412,71.1013514 Z M232.970588,71.1013514 C233.083824,71.1013514 233.205146,71.1258226 233.334559,71.1747659 L243.865441,75.2370351 C244.253678,75.4001792 244.573161,75.6612059 244.823897,76.0201231 C245.074634,76.3790402 245.2,76.7705803 245.2,77.1947552 L245.2,77.3415842 C245.2,77.7820734 245.074634,78.1817706 244.823897,78.5406877 C244.573161,78.8996049 244.253678,79.1606316 243.865441,79.3237758 L233.334559,83.386045 C233.205146,83.4349882 233.083824,83.4594595 232.970588,83.4594595 C232.77647,83.4594595 232.59853,83.4023599 232.436765,83.288159 C232.145587,83.092386 232,82.8150451 232,82.4561279 L232,81.6975114 C232,81.2570221 232.125366,80.865482 232.376103,80.5228793 C232.626839,80.1802766 232.95441,79.9437211 233.358824,79.8132058 L236.852941,78.6630452 L240.6625,77.3660557 C240.694853,77.3497412 240.711029,77.3211914 240.711029,77.2804054 C240.711029,77.2396194 240.694853,77.2110696 240.6625,77.1947552 L236.852941,75.8732941 L233.358824,74.747605 C232.95441,74.6170897 232.626839,74.3764557 232.376103,74.0256957 C232.125366,73.6749358 232,73.2874742 232,72.8632994 L232,72.1046829 C232,71.7457658 232.145587,71.4684248 232.436765,71.2726519 C232.59853,71.1584509 232.77647,71.1013514 232.970588,71.1013514 Z M262.8,45.1891892 L189.2,45.1891892 L189.2,55.9527027 L262.8,55.9527027 L262.8,45.1891892 Z M257.2,48.3783784 C258.525483,48.3783784 259.6,49.4492649 259.6,50.7702703 C259.6,52.0912757 258.525483,53.1621622 257.2,53.1621622 C255.874517,53.1621622 254.8,52.0912757 254.8,50.7702703 C254.8,49.4492649 255.874517,48.3783784 257.2,48.3783784 Z M249.2,48.3783784 C250.525483,48.3783784 251.6,49.4492649 251.6,50.7702703 C251.6,52.0912757 250.525483,53.1621622 249.2,53.1621622 C247.874517,53.1621622 246.8,52.0912757 246.8,50.7702703 C246.8,49.4492649 247.874517,48.3783784 249.2,48.3783784 Z M241.2,48.3783784 C242.525483,48.3783784 243.6,49.4492649 243.6,50.7702703 C243.6,52.0912757 242.525483,53.1621622 241.2,53.1621622 C239.874517,53.1621622 238.8,52.0912757 238.8,50.7702703 C238.8,49.4492649 239.874517,48.3783784 241.2,48.3783784 Z" id="Combined-Shape" fill="#24231F" fill-rule="nonzero"></path>
        <path d="M362.790726,215 C380.579417,215 395,229.326888 395,247 C395,264.673112 380.579417,279 362.790726,279 C349.692921,279 338.421091,271.232863 333.387113,260.081799 L336.981127,260.081499 C341.775854,269.40024 351.533396,275.779874 362.790726,275.779874 C378.78936,275.779874 391.758815,262.894686 391.758815,247 C391.758815,231.105314 378.78936,218.220126 362.790726,218.220126 C347.742825,218.220126 335.374777,229.61939 333.957953,244.200288 L341.091954,244.2 L333.045977,256.2 L325,244.2 L330.703051,244.199993 C332.130652,227.838116 345.951633,215 362.790726,215 Z M362.816092,225.8 C363.704826,225.8 364.425287,226.520461 364.425287,227.409195 L364.425,247.354 L374.960217,253.402289 C375.723882,253.840672 375.987575,254.815123 375.549193,255.578788 C375.54788,255.581076 375.546561,255.58336 375.545236,255.585641 L375.540102,255.594483 C375.09793,256.35597 374.123562,256.617048 373.35989,256.178661 L362.194214,249.768992 C362.025555,249.672173 361.881282,249.549206 361.763574,249.408136 C361.422705,249.113216 361.206897,248.677213 361.206897,248.190805 L361.206897,227.409195 C361.206897,226.520461 361.927358,225.8 362.816092,225.8 Z" id="Combined-Shape" fill="#24231F" fill-rule="nonzero"></path>
        <path d="M327.220994,280 C329.308082,280 331,281.696471 331,283.789174 L331,327.663818 C331,330.19709 328.951888,332.250712 326.425414,332.250712 L296.193,332.25 L296.192475,337.235701 L305.740331,337.236467 C307.058492,337.236467 308.127072,338.307923 308.127072,339.62963 L308.126475,342.420701 L330.005525,342.421652 L330.005525,344.814815 L308.126475,344.814701 L308.127072,347.606838 C308.127072,348.928545 307.058492,350 305.740331,350 L284.259669,350 C282.941508,350 281.872928,348.928545 281.872928,347.606838 L281.872475,344.814701 L259.994475,344.814815 L259.994475,342.421652 L281.872475,342.420701 L281.872928,339.62963 C281.872928,338.307923 282.941508,337.236467 284.259669,337.236467 L293.806475,337.235701 L293.806,332.25 L263.574586,332.250712 C261.048112,332.250712 259,330.19709 259,327.663818 L259,292.093957 C259,289.560685 261.048112,287.507063 263.574586,287.507063 L299.157953,287.507063 L302.120637,281.992204 C302.779836,280.765144 304.057644,280 305.447661,280 L327.220994,280 Z M305.740331,339.62963 L284.259669,339.62963 L284.259669,347.606838 L305.740331,347.606838 L305.740331,339.62963 Z M327.220994,282.792023 L305.447661,282.792023 C305.081867,282.792023 304.745602,282.993377 304.572128,283.316287 L300.82084,290.299086 L263.574586,290.299086 C262.585965,290.299086 261.78453,291.102677 261.78453,292.093957 L261.78453,327.663818 C261.78453,328.655098 262.585965,329.458689 263.574586,329.458689 L326.425414,329.458689 C327.414035,329.458689 328.21547,328.655098 328.21547,327.663818 L328.21547,283.789174 C328.21547,283.238463 327.770228,282.792023 327.220994,282.792023 Z M282.952644,299.275396 C283.435492,299.275396 283.841077,299.441148 284.169414,299.772656 C284.49775,300.104165 284.661916,300.497233 284.661916,300.951873 L284.661916,301.179192 C284.661916,301.652775 284.49775,302.050579 284.169414,302.372616 C283.841077,302.694652 283.435492,302.855668 282.952644,302.855668 L275.738939,302.855668 C275.603741,302.855668 275.536144,302.93144 275.536144,303.082987 L275.536144,308.254491 C275.536144,308.406038 275.603741,308.48181 275.738939,308.48181 L281.619992,308.48181 C282.083525,308.48181 282.484283,308.642826 282.822276,308.964862 C283.160269,309.286899 283.329263,309.684703 283.329263,310.158286 L283.329263,310.41402 C283.329263,310.86866 283.160269,311.261728 282.822276,311.593237 C282.484283,311.924745 282.083525,312.090497 281.619992,312.090497 L275.738939,312.090497 C275.603741,312.090497 275.536144,312.156797 275.536144,312.289401 L275.536144,319.137381 C275.536144,319.592021 275.36715,319.985089 275.029156,320.316598 C274.691163,320.648106 274.290406,320.813858 273.826872,320.813858 L272.841868,320.813858 C272.378335,320.813858 271.977577,320.648106 271.639584,320.316598 C271.301591,319.985089 271.132597,319.592021 271.132597,319.137381 L271.132597,300.951873 C271.132597,300.497233 271.301591,300.104165 271.639584,299.772656 C271.977577,299.441148 272.378335,299.275396 272.841868,299.275396 L282.952644,299.275396 Z M301.754631,299.275396 C302.237479,299.275396 302.643064,299.441148 302.971401,299.772656 C303.299737,300.104165 303.463903,300.497233 303.463903,300.951873 L303.463903,301.179192 C303.463903,301.652775 303.299737,302.050579 302.971401,302.372616 C302.643064,302.694652 302.237479,302.855668 301.754631,302.855668 L297.466967,302.855668 C297.312456,302.855668 297.235201,302.93144 297.235201,303.082987 L297.235201,319.137381 C297.235201,319.592021 297.071036,319.985089 296.742699,320.316598 C296.414363,320.648106 296.008777,320.813858 295.52593,320.813858 L294.569896,320.813858 C294.087049,320.813858 293.681463,320.648106 293.353127,320.316598 C293.024791,319.985089 292.860625,319.592021 292.860625,319.137381 L292.860625,303.082987 C292.860625,302.93144 292.78337,302.855668 292.628859,302.855668 L288.399136,302.855668 C287.916289,302.855668 287.510703,302.694652 287.182367,302.372616 C286.854031,302.050579 286.689865,301.652775 286.689865,301.179192 L286.689865,300.951873 C286.689865,300.497233 286.854031,300.104165 287.182367,299.772656 C287.510703,299.441148 287.916289,299.275396 288.399136,299.275396 L301.754631,299.275396 Z M314.241005,299.275396 C319.977233,299.275396 322.845304,301.529619 322.845304,306.038132 C322.845304,307.610429 322.459032,308.945914 321.686476,310.044627 C320.91392,311.14334 319.904784,311.938948 318.659037,312.431475 C317.413291,312.924002 315.979255,313.170261 314.356888,313.170261 L311.633641,313.170261 C311.498444,313.170261 311.430846,313.236562 311.430846,313.369165 L311.430846,319.137381 C311.430846,319.592021 311.261852,319.985089 310.923859,320.316598 C310.585866,320.648106 310.185108,320.813858 309.721575,320.813858 L308.736571,320.813858 C308.273037,320.813858 307.87228,320.648106 307.534287,320.316598 C307.196293,319.985089 307.027299,319.592021 307.027299,319.137381 L307.027299,300.951873 C307.027299,300.497233 307.196293,300.104165 307.534287,299.772656 C307.87228,299.441148 308.273037,299.275396 308.736571,299.275396 L314.241005,299.275396 Z M313.922327,302.685179 L311.633641,302.685179 C311.498444,302.685179 311.430846,302.760951 311.430846,302.912498 L311.430846,309.53316 C311.430846,309.684706 311.498444,309.760478 311.633641,309.760478 L314.06718,309.760478 C317.041521,309.760478 318.528669,308.519709 318.528669,306.038132 C318.528669,304.825759 318.152054,303.96385 317.398811,303.45238 C316.645569,302.94091 315.486753,302.685179 313.922327,302.685179 Z" id="Combined-Shape" fill="#24231F" fill-rule="nonzero"></path>
        <path d="M52.5,102 C57.1268536,102 60.8776596,105.781247 60.8776596,110.445652 C60.8776596,114.559696 57.9597622,117.986698 54.0964786,118.738137 L54.095,122.913 L76.4361702,122.913043 C83.9272666,122.913043 90,129.035063 90,136.586957 L90,169.565217 C90,173.11905 87.1422431,176 83.6170213,176 L21.3829787,176 C17.8577569,176 15,173.11905 15,169.565217 L15,136.586957 C15,129.035063 21.0727334,122.913043 28.5638298,122.913043 L50.904,122.913 L50.9035214,118.738137 C47.0402378,117.986698 44.1223404,114.559696 44.1223404,110.445652 C44.1223404,105.781247 47.8731464,102 52.5,102 Z M76.4361702,126.130435 L28.5638298,126.130435 C22.8353444,126.130435 18.1914894,130.811979 18.1914894,136.586957 L18.1914894,169.565217 C18.1914894,171.342134 19.6203678,172.782609 21.3829787,172.782609 L83.6170213,172.782609 C85.3796322,172.782609 86.8085106,171.342134 86.8085106,169.565217 L86.8085106,136.586957 C86.8085106,130.811979 82.1646556,126.130435 76.4361702,126.130435 Z M32.3537234,163.532609 C34.0061711,163.532609 35.3457447,164.883054 35.3457447,166.548913 C35.3457447,168.214772 34.0061711,169.565217 32.3537234,169.565217 C30.7012757,169.565217 29.3617021,168.214772 29.3617021,166.548913 C29.3617021,164.883054 30.7012757,163.532609 32.3537234,163.532609 Z M40.731383,163.532609 C42.3838307,163.532609 43.7234043,164.883054 43.7234043,166.548913 C43.7234043,168.214772 42.3838307,169.565217 40.731383,169.565217 C39.0789353,169.565217 37.7393617,168.214772 37.7393617,166.548913 C37.7393617,164.883054 39.0789353,163.532609 40.731383,163.532609 Z M64.268617,163.532609 C65.9210647,163.532609 67.2606383,164.883054 67.2606383,166.548913 C67.2606383,168.214772 65.9210647,169.565217 64.268617,169.565217 C62.6161693,169.565217 61.2765957,168.214772 61.2765957,166.548913 C61.2765957,164.883054 62.6161693,163.532609 64.268617,163.532609 Z M72.6462766,163.532609 C74.2987243,163.532609 75.6382979,164.883054 75.6382979,166.548913 C75.6382979,168.214772 74.2987243,169.565217 72.6462766,169.565217 C70.9938289,169.565217 69.6542553,168.214772 69.6542553,166.548913 C69.6542553,164.883054 70.9938289,163.532609 72.6462766,163.532609 Z M39.1897933,130.681892 L39.1919604,130.682273 L39.1946725,130.682753 C40.0629893,130.837104 40.642672,131.664985 40.4907228,132.533726 L40.3205215,133.504821 C45.9733234,135.154136 50.106383,140.411139 50.106383,146.641304 C50.106383,154.193198 44.0336495,160.315217 36.5425532,160.315217 C29.0514569,160.315217 22.9787234,154.193198 22.9787234,146.641304 C22.9787234,139.089411 29.0514569,132.967391 36.5425532,132.967391 C36.7533416,132.967391 36.963007,132.972239 37.1714457,132.981829 L37.3476239,131.975577 C37.4990837,131.109635 38.323851,130.530432 39.1897933,130.681892 Z M68.4574468,132.967391 C75.9485431,132.967391 82.0212766,139.089411 82.0212766,146.641304 C82.0212766,154.193198 75.9485431,160.315217 68.4574468,160.315217 C60.9663505,160.315217 54.893617,154.193198 54.893617,146.641304 C54.893617,139.089411 60.9663505,132.967391 68.4574468,132.967391 Z M36.6107234,136.184948 L36.5425532,136.184783 C30.8140678,136.184783 26.1702128,140.866327 26.1702128,146.641304 C26.1702128,152.416282 30.8140678,157.097826 36.5425532,157.097826 C42.2710386,157.097826 46.9148936,152.416282 46.9148936,146.641304 C46.9148936,141.999418 43.914577,138.06398 39.7623102,136.698359 L39.1295677,140.319377 C41.591771,141.344486 43.3244681,143.788907 43.3244681,146.641304 C43.3244681,150.417251 40.2881014,153.478261 36.5425532,153.478261 C32.797005,153.478261 29.7606383,150.417251 29.7606383,146.641304 C29.7606383,143.058414 32.4944551,140.119224 35.9739176,139.828039 L36.6107234,136.184948 Z M68.4574468,136.184783 C62.7289614,136.184783 58.0851064,140.866327 58.0851064,146.641304 C58.0851064,152.416282 62.7289614,157.097826 68.4574468,157.097826 C74.1859322,157.097826 78.8297872,152.416282 78.8297872,146.641304 C78.8297872,140.866327 74.1859322,136.184783 68.4574468,136.184783 Z M69.6542553,138.195652 C70.5355608,138.195652 71.25,138.91589 71.25,139.804348 L71.25,143.826087 L75.2393617,143.826087 C76.1206672,143.826087 76.8351064,144.546325 76.8351064,145.434783 L76.8351064,147.847826 C76.8351064,148.736284 76.1206672,149.456522 75.2393617,149.456522 L71.25,149.456522 L71.25,153.478261 C71.25,154.366719 70.5355608,155.086957 69.6542553,155.086957 L67.2606383,155.086957 C66.3793328,155.086957 65.6648936,154.366719 65.6648936,153.478261 L65.6648936,149.456522 L61.6755319,149.456522 C60.7942265,149.456522 60.0797872,148.736284 60.0797872,147.847826 L60.0797872,145.434783 C60.0797872,144.546325 60.7942265,143.826087 61.6755319,143.826087 L65.6648936,143.826087 L65.6648936,139.804348 C65.6648936,138.91589 66.3793328,138.195652 67.2606383,138.195652 L69.6542553,138.195652 Z M69.6542553,139.804348 L67.2606383,139.804348 L67.2606383,144.630435 C67.2606383,145.074664 66.9034187,145.434783 66.462766,145.434783 L61.6755319,145.434783 L61.6755319,147.847826 L66.462766,147.847826 C66.9034187,147.847826 67.2606383,148.207945 67.2606383,148.652174 L67.2606383,153.478261 L69.6542553,153.478261 L69.6542553,148.652174 C69.6542553,148.207945 70.0114749,147.847826 70.4521277,147.847826 L75.2393617,147.847826 L75.2393617,145.434783 L70.4521277,145.434783 C70.0114749,145.434783 69.6542553,145.074664 69.6542553,144.630435 L69.6542553,139.804348 Z M35.3817048,143.215104 C33.9684404,143.701613 32.9521277,145.051809 32.9521277,146.641304 C32.9521277,148.640335 34.5596159,150.26087 36.5425532,150.26087 C38.5254905,150.26087 40.1329787,148.640335 40.1329787,146.641304 C40.1329787,145.391423 39.5045641,144.289508 38.5488776,143.639144 L38.1310995,146.024423 C37.9796397,146.890365 37.1548724,147.469568 36.2889301,147.318108 L36.2840509,147.317247 C35.4157341,147.162896 34.8360514,146.335015 34.9880006,145.466274 L35.3817048,143.215104 Z M56.8840426,130.152174 C57.7676982,130.152174 58.4840426,130.868518 58.4840426,131.752174 L58.4840426,131.769565 C58.4840426,132.653221 57.7676982,133.369565 56.8840426,133.369565 L48.1159574,133.369565 C47.2323018,133.369565 46.5159574,132.653221 46.5159574,131.769565 L46.5159574,131.752174 C46.5159574,130.868518 47.2323018,130.152174 48.1159574,130.152174 L56.8840426,130.152174 Z M52.5,105.217391 C49.6357573,105.217391 47.3138298,107.558163 47.3138298,110.445652 C47.3138298,113.333141 49.6357573,115.673913 52.5,115.673913 C55.3642427,115.673913 57.6861702,113.333141 57.6861702,110.445652 C57.6861702,107.558163 55.3642427,105.217391 52.5,105.217391 Z" id="Combined-Shape" fill="#24231F" fill-rule="nonzero"></path>
        <path d="M132.43443,212 C132.962049,212 133.455555,212.260706 133.752782,212.69645 L145.70243,230.215308 C145.732407,230.257399 145.76039,230.301007 145.786241,230.345994 L145.719997,230.240754 C145.929127,230.547345 146.014084,230.885464 145.998117,231.21114 L145.997273,273.405063 C145.997273,274.285923 145.282886,275 144.401645,275 L72.5983553,275 C71.7171139,275 71.0027267,274.285923 71.0027267,273.405063 L71.0018833,231.21114 C70.9877311,230.922486 71.0528619,230.624058 71.2134626,230.34647 C71.2396104,230.301007 71.2675932,230.257399 71.2975696,230.215308 L83.2472182,212.69645 C83.5444453,212.260706 84.0379514,212 84.5655702,212 L132.43443,212 Z M103.713,232.734 L74.193984,232.734177 L74.193984,271.810127 L142.806016,271.810127 L142.806016,232.734177 L113.685,232.734 L113.685793,247.886076 L112.716671,248.383228 L111.809683,247.886076 L110.686393,248.383228 L109.78632,247.886076 L108.824599,248.383228 L107.977993,247.886076 L107.066233,248.383228 L105.960473,247.886076 L104.731808,248.383228 L103.713114,247.886076 L103.713,232.734 Z M139.215852,265.43038 L139.215852,267.025316 L119.270493,267.025316 L119.270493,265.43038 L139.215852,265.43038 Z M125.254101,251.474684 L128.445358,255.462025 L126.84973,255.462025 L126.84973,263.835443 L123.658472,263.835443 L123.658472,255.462025 L122.062844,255.462025 L125.254101,251.474684 Z M133.232244,251.474684 L136.423501,255.462025 L134.827873,255.462025 L134.827873,263.835443 L131.636615,263.835443 L131.636615,255.462025 L130.040987,255.462025 L133.232244,251.474684 Z M105.163,215.189 L85.4088639,215.189873 L75.6175062,229.544304 L103.858,229.544 L105.163,215.189 Z M131.591136,215.189873 L112.235,215.189 L113.54,229.544 L141.382494,229.544304 L131.591136,215.189873 Z" id="Combined-Shape" fill="#24231F" fill-rule="nonzero"></path>
        <path d="M392,151.702 L396.841642,151.702525 C397.241572,147.895218 400.472956,144.927536 404.4,144.927536 C408.597364,144.927536 412,148.317844 412,152.5 C412,156.682156 408.597364,160.072464 404.4,160.072464 C400.472956,160.072464 397.241572,157.104782 396.841642,153.297475 L392,153.297 L392,171.63 L396.841642,171.630061 C397.241572,167.822754 400.472956,164.855072 404.4,164.855072 C408.597364,164.855072 412,168.24538 412,172.427536 C412,176.609692 408.597364,180 404.4,180 C400.472956,180 397.241572,177.032318 396.841642,173.225011 L390.4,173.224638 L390.4,153.297 L385.2,153.297 L372,166.449275 L358.8,153.297 L353.6,153.297 L353.6,173.224638 L347.158358,173.225011 C346.758428,177.032318 343.527044,180 339.6,180 C335.402636,180 332,176.609692 332,172.427536 C332,168.24538 335.402636,164.855072 339.6,164.855072 C343.527044,164.855072 346.758428,167.822754 347.158358,171.630061 L352,171.63 L352,153.297 L347.158358,153.297475 C346.758428,157.104782 343.527044,160.072464 339.6,160.072464 C335.402636,160.072464 332,156.682156 332,152.5 C332,148.317844 335.402636,144.927536 339.6,144.927536 C343.527044,144.927536 346.758428,147.895218 347.158358,151.702525 L352,151.702 L352,133.369 L347.158358,133.369939 C346.758428,137.177246 343.527044,140.144928 339.6,140.144928 C335.402636,140.144928 332,136.75462 332,132.572464 C332,128.390308 335.402636,125 339.6,125 C343.527044,125 346.758428,127.967682 347.158358,131.774989 L353.6,131.775362 L353.6,151.702 L358.801,151.702 L372,138.550725 L385.199,151.702 L390.4,151.702 L390.4,131.775362 L396.841642,131.774989 C397.241572,127.967682 400.472956,125 404.4,125 C408.597364,125 412,128.390308 412,132.572464 C412,136.75462 408.597364,140.144928 404.4,140.144928 C400.472956,140.144928 397.241572,137.177246 396.841642,133.369939 L392,133.369 L392,151.702 Z M339.6,168.043478 C337.169947,168.043478 335.2,170.006288 335.2,172.427536 C335.2,174.848785 337.169947,176.811594 339.6,176.811594 C342.030053,176.811594 344,174.848785 344,172.427536 C344,170.006288 342.030053,168.043478 339.6,168.043478 Z M404.4,168.043478 C401.969947,168.043478 400,170.006288 400,172.427536 C400,174.848785 401.969947,176.811594 404.4,176.811594 C406.830053,176.811594 408.8,174.848785 408.8,172.427536 C408.8,170.006288 406.830053,168.043478 404.4,168.043478 Z M372,143.014493 L362.48,152.5 L372,161.985507 L381.52,152.5 L372,143.014493 Z M339.6,148.115942 C337.169947,148.115942 335.2,150.078752 335.2,152.5 C335.2,154.921248 337.169947,156.884058 339.6,156.884058 C342.030053,156.884058 344,154.921248 344,152.5 C344,150.078752 342.030053,148.115942 339.6,148.115942 Z M404.4,148.115942 C401.969947,148.115942 400,150.078752 400,152.5 C400,154.921248 401.969947,156.884058 404.4,156.884058 C406.830053,156.884058 408.8,154.921248 408.8,152.5 C408.8,150.078752 406.830053,148.115942 404.4,148.115942 Z M339.6,128.188406 C337.169947,128.188406 335.2,130.151215 335.2,132.572464 C335.2,134.993712 337.169947,136.956522 339.6,136.956522 C342.030053,136.956522 344,134.993712 344,132.572464 C344,130.151215 342.030053,128.188406 339.6,128.188406 Z M404.4,128.188406 C401.969947,128.188406 400,130.151215 400,132.572464 C400,134.993712 401.969947,136.956522 404.4,136.956522 C406.830053,136.956522 408.8,134.993712 408.8,132.572464 C408.8,130.151215 406.830053,128.188406 404.4,128.188406 Z" id="Combined-Shape" fill="#24231F" fill-rule="nonzero"></path>
        <g id="Group" transform="translate(133.000000, 289.000000)" fill="#24231F">
            <path d="M40,48.799853 C52.8249226,48.799853 64.1898818,55.9252477 74.038063,69.9995763 L76.8,69.999853 L76.8,54.799853 C76.8,53.9161974 77.5163444,53.199853 78.4,53.199853 C79.2836556,53.199853 80,53.9161974 80,54.799853 L80,71.599853 C80,72.4344167 79.3610385,73.1197428 78.5456326,73.1933144 L78.4,73.199853 L1.6,73.199853 C0.7163444,73.199853 3.30261205e-16,72.4835086 0,71.599853 L0,54.799853 C1.13828005e-16,53.9161974 0.7163444,53.199853 1.6,53.199853 C2.4836556,53.199853 3.2,53.9161974 3.2,54.799853 L3.2,69.999853 L5.96193704,69.9995763 C15.8101182,55.9252477 27.1750774,48.799853 40,48.799853 Z M40,51.999853 C35.1441389,51.999853 30.4990661,53.1342152 26.0606934,55.4156373 C26.2734758,55.6866609 26.4,56.0284813 26.4,56.399853 C26.4,57.2835086 25.6836556,57.999853 24.8,57.999853 C24.1250819,57.999853 23.5477664,57.581967 23.3126794,56.9908208 C18.6059521,59.9759469 14.1382526,64.3070802 9.90629263,69.999853 L24.8,69.999853 C24.8,69.1161974 25.5163444,68.399853 26.4,68.399853 C27.2836556,68.399853 28,69.1161974 28,69.999853 L28,69.999853 L63.6505949,70.0005823 C63.6175678,69.8725148 63.6,69.7382355 63.6,69.599853 C63.6,68.7161974 64.3163444,67.999853 65.2,67.999853 C66.0836556,67.999853 66.8,68.7161974 66.8,69.599853 C66.8,69.7382355 66.7824322,69.8725148 66.7494051,70.0005823 L70.0937074,69.999853 C63.2194369,60.7526813 55.7231488,55.0983036 47.5826571,52.9678128 L47.5934613,53.0542204 L47.5934613,53.0542204 L47.6,53.199853 C47.6,54.0835086 46.8836556,54.799853 46,54.799853 C45.1163444,54.799853 44.4,54.0835086 44.4,53.199853 C44.4,52.8899333 44.4881159,52.600594 44.6406615,52.3555217 C43.1162016,52.1182999 41.5691058,51.999853 40,51.999853 Z M16.4,66.399853 C17.2836556,66.399853 18,67.1161974 18,67.999853 C18,68.8835086 17.2836556,69.599853 16.4,69.599853 C15.5163444,69.599853 14.8,68.8835086 14.8,67.999853 C14.8,67.1161974 15.5163444,66.399853 16.4,66.399853 Z M46,64.799853 C46.8836556,64.799853 47.6,65.5161974 47.6,66.399853 C47.6,67.2835086 46.8836556,67.999853 46,67.999853 C45.1163444,67.999853 44.4,67.2835086 44.4,66.399853 C44.4,65.5161974 45.1163444,64.799853 46,64.799853 Z M34.8,64.799853 C35.6836556,64.799853 36.4,65.5161974 36.4,66.399853 C36.4,67.2835086 35.6836556,67.999853 34.8,67.999853 C33.9163444,67.999853 33.2,67.2835086 33.2,66.399853 C33.2,65.5161974 33.9163444,64.799853 34.8,64.799853 Z M58,62.799853 C58.8836556,62.799853 59.6,63.5161974 59.6,64.399853 C59.6,65.2835086 58.8836556,65.999853 58,65.999853 C57.1163444,65.999853 56.4,65.2835086 56.4,64.399853 C56.4,63.5161974 57.1163444,62.799853 58,62.799853 Z M21.6,61.599853 C22.4836556,61.599853 23.2,62.3161974 23.2,63.199853 C23.2,64.0835086 22.4836556,64.799853 21.6,64.799853 C20.7163444,64.799853 20,64.0835086 20,63.199853 C20,62.3161974 20.7163444,61.599853 21.6,61.599853 Z M29.2,59.999853 C30.0836556,59.999853 30.8,60.7161974 30.8,61.599853 C30.8,62.4835086 30.0836556,63.199853 29.2,63.199853 C28.3163444,63.199853 27.6,62.4835086 27.6,61.599853 C27.6,60.7161974 28.3163444,59.999853 29.2,59.999853 Z M50.8,59.199853 C51.6836556,59.199853 52.4,59.9161974 52.4,60.799853 C52.4,61.6835086 51.6836556,62.399853 50.8,62.399853 C49.9163444,62.399853 49.2,61.6835086 49.2,60.799853 C49.2,59.9161974 49.9163444,59.199853 50.8,59.199853 Z M40,59.199853 C40.8836556,59.199853 41.6,59.9161974 41.6,60.799853 C41.6,61.6835086 40.8836556,62.399853 40,62.399853 C39.1163444,62.399853 38.4,61.6835086 38.4,60.799853 C38.4,59.9161974 39.1163444,59.199853 40,59.199853 Z M34.8,53.199853 C35.6836556,53.199853 36.4,53.9161974 36.4,54.799853 C36.4,55.6835086 35.6836556,56.399853 34.8,56.399853 C33.9163444,56.399853 33.2,55.6835086 33.2,54.799853 C33.2,53.9161974 33.9163444,53.199853 34.8,53.199853 Z" id="Combined-Shape"></path>
            <path d="M51.4912079,0.343525021 L51.6073122,0.448585448 C52.1685451,1.01044592 52.2036222,1.89637513 51.7140371,2.49724878 L51.6091251,2.61344229 L48.5460557,5.68095166 C53.001576,7.71022779 56.6105047,11.2773313 58.69633,15.7049943 L61.9652627,11.2053864 C62.4620546,10.521611 63.4190934,10.370031 64.1028688,10.8668228 L64.1028688,10.8668228 L69.373382,14.6960748 C70.0571574,15.1928667 70.2087374,16.1499056 69.7119456,16.833681 C69.2151537,17.5174563 68.2581148,17.6690364 67.5743394,17.1722445 L67.5743394,17.1722445 L63.5449892,14.2438676 L59.964006,19.1744837 C60.300405,20.4375976 60.5203775,21.7482788 60.6117138,23.0943038 L64.1141837,21.0715961 C64.8461422,20.6489997 65.7820939,20.8997872 66.2046903,21.6317457 L66.2046903,21.6317457 L69.4620466,27.2736523 C69.884643,28.0056107 69.6338555,28.9415624 68.901897,29.3641588 C68.1699386,29.7867553 67.2339869,29.5359678 66.8113905,28.8040093 L66.8113905,28.8040093 L64.321474,24.4899194 L60.5493911,26.6684236 C60.3361734,28.7336824 59.8193995,30.708752 59.0444976,32.5481531 L61.7323726,31.2944022 C62.4983774,30.9372083 63.40891,31.268615 63.7661039,32.0346199 L63.7661039,32.0346199 L66.5193404,37.9389546 C66.8765343,38.7049594 66.5451276,39.615492 65.7791227,39.9726859 C65.0131179,40.3298798 64.1025854,39.9984731 63.7453914,39.2324682 L63.7453914,39.2324682 L61.6409476,34.7177843 L56.4392038,37.1435479 C56.4033539,37.160265 56.3671873,37.1754738 56.3307758,37.1892004 C52.5501573,42.0629452 46.6410015,45.199853 40,45.199853 C33.3589985,45.199853 27.4498427,42.0629452 23.6703073,37.188467 C23.6333445,37.1756974 23.5969098,37.1603879 23.5607962,37.1435479 L18.3590524,34.7177843 L16.2546086,39.2324682 C15.8974146,39.9984731 14.9868821,40.3298798 14.2208773,39.9726859 C13.4548724,39.615492 13.1234657,38.7049594 13.4806596,37.9389546 L16.2338961,32.0346199 C16.59109,31.268615 17.5016226,30.9372083 18.2676274,31.2944022 L20.9559239,32.5491536 C20.1807879,30.7094682 19.6638652,28.7340568 19.4506089,26.6684236 L15.678526,24.4899194 L13.1886095,28.8040093 C12.7660131,29.5359678 11.8300614,29.7867553 11.098103,29.3641588 C10.3661445,28.9415624 10.115357,28.0056107 10.5379534,27.2736523 L13.7953097,21.6317457 C14.2179061,20.8997872 15.1538578,20.6489997 15.8858163,21.0715961 L19.3882899,23.0942495 C19.4796332,21.7481735 19.6996224,20.4374443 20.0360465,19.1742866 L16.4550108,14.2438676 L12.4256606,17.1722445 C11.7418852,17.6690364 10.7848463,17.5174563 10.2880544,16.833681 C9.79126255,16.1499056 9.94284262,15.1928667 10.626618,14.6960748 L15.8971312,10.8668228 C16.5809066,10.370031 17.5379454,10.521611 18.0347373,11.2053864 L21.3038156,15.7046852 C23.3897922,11.2768916 26.9989738,7.70973959 31.4547705,5.68057537 L28.3908749,2.61344229 C27.7940393,2.01593933 27.7940393,1.04790328 28.3908749,0.450400316 L28.3926878,0.448585448 C28.9523509,-0.111703546 29.8384867,-0.147197221 30.439509,0.342446168 L30.5557307,0.447376775 C30.5561339,0.447779441 30.5565368,0.448182332 30.5569394,0.448585448 L34.640908,4.53665122 C36.3500044,4.07836471 38.146498,3.83401 40,3.83401 C41.8538625,3.83401 43.6506944,4.07845976 45.3600891,4.53691862 L49.4430606,0.448585448 C49.4434632,0.448182332 49.4438661,0.447779441 49.4442693,0.447376775 C50.0045582,-0.112286409 50.8907331,-0.146789745 51.4912079,0.343525021 Z M38.4687157,20.3036073 L22.9073434,20.3033906 C22.5764026,21.6534672 22.4008942,23.0646804 22.4008942,24.5169315 C22.4008942,33.7312637 29.4663829,41.2935173 38.4694101,42.0700081 L38.4687157,20.3036073 Z M57.0926566,20.3033906 L41.5297157,20.3036073 L41.5308676,42.0699841 C50.5337624,41.2933618 57.5991058,33.731169 57.5991058,24.5169315 C57.5991058,23.0646804 57.4235974,21.6534672 57.0926566,20.3033906 Z M40,6.89814652 C32.8725697,6.89814652 26.7347271,11.1398128 23.9677343,17.2392204 L56.0322657,17.2392204 C53.2652729,11.1398128 47.1274303,6.89814652 40,6.89814652 Z" id="Combined-Shape" fill-rule="nonzero"></path>
        </g>
        <path d="M78,116 L82,116 C82.5522847,116 83,115.552285 83,115 C83,114.447715 82.5522847,114 82,114 L78,114 C77.4477153,114 77,114.447715 77,115 C77,115.552285 77.4477153,116 78,116 Z M92,116 L96,116 C96.5522847,116 97,115.552285 97,115 C97,114.447715 96.5522847,114 96,114 L92,114 C91.4477153,114 91,114.447715 91,115 C91,115.552285 91.4477153,116 92,116 Z M106,116 L110,116 C110.552285,116 111,115.552285 111,115 C111,114.447715 110.552285,114 110,114 L106,114 C105.447715,114 105,114.447715 105,115 C105,115.552285 105.447715,116 106,116 Z M120,116 L124,116 C124.552285,116 125,115.552285 125,115 C125,114.447715 124.552285,114 124,114 L120,114 C119.447715,114 119,114.447715 119,115 C119,115.552285 119.447715,116 120,116 Z M134,116 L138,116 C138.552285,116 139,115.552285 139,115 C139,114.447715 138.552285,114 138,114 L134,114 C133.447715,114 133,114.447715 133,115 C133,115.552285 133.447715,116 134,116 Z M148,116 L152,116 C152.552285,116 153,115.552285 153,115 C153,114.447715 152.552285,114 152,114 L148,114 C147.447715,114 147,114.447715 147,115 C147,115.552285 147.447715,116 148,116 Z M162,116 L166,116 C166.552285,116 167,115.552285 167,115 C167,114.447715 166.552285,114 166,114 L162,114 C161.447715,114 161,114.447715 161,115 C161,115.552285 161.447715,116 162,116 Z M176,116 L180,116 C180.552285,116 181,115.552285 181,115 C181,114.447715 180.552285,114 180,114 L176,114 C175.447715,114 175,114.447715 175,115 C175,115.552285 175.447715,116 176,116 Z M190,116 L194,116 C194.552285,116 195,115.552285 195,115 C195,114.447715 194.552285,114 194,114 L190,114 C189.447715,114 189,114.447715 189,115 C189,115.552285 189.447715,116 190,116 Z M204,116 L207,116 C207.552285,116 208,115.552285 208,115 C208,114.447715 207.552285,114 207,114 L204,114 C203.447715,114 203,114.447715 203,115 C203,115.552285 203.447715,116 204,116 Z" id="Line-3-Copy-8" fill="#24231F" fill-rule="nonzero"></path>
        <path d="M15,340 L19,340 C19.5522847,340 20,339.552285 20,339 C20,338.447715 19.5522847,338 19,338 L15,338 C14.4477153,338 14,338.447715 14,339 C14,339.552285 14.4477153,340 15,340 Z M29,340 L33,340 C33.5522847,340 34,339.552285 34,339 C34,338.447715 33.5522847,338 33,338 L29,338 C28.4477153,338 28,338.447715 28,339 C28,339.552285 28.4477153,340 29,340 Z M43,340 L47,340 C47.5522847,340 48,339.552285 48,339 C48,338.447715 47.5522847,338 47,338 L43,338 C42.4477153,338 42,338.447715 42,339 C42,339.552285 42.4477153,340 43,340 Z M57,340 L61,340 C61.5522847,340 62,339.552285 62,339 C62,338.447715 61.5522847,338 61,338 L57,338 C56.4477153,338 56,338.447715 56,339 C56,339.552285 56.4477153,340 57,340 Z M71,340 L75,340 C75.5522847,340 76,339.552285 76,339 C76,338.447715 75.5522847,338 75,338 L71,338 C70.4477153,338 70,338.447715 70,339 C70,339.552285 70.4477153,340 71,340 Z M85,340 L88,340 C88.5522847,340 89,339.552285 89,339 C89,338.447715 88.5522847,338 88,338 L85,338 C84.4477153,338 84,338.447715 84,339 C84,339.552285 84.4477153,340 85,340 Z" id="Line-3-Copy-9" fill="#24231F" fill-rule="nonzero"></path>
        <path d="M359,116 L363,116 C363.552285,116 364,115.552285 364,115 C364,114.447715 363.552285,114 363,114 L359,114 C358.447715,114 358,114.447715 358,115 C358,115.552285 358.447715,116 359,116 Z M373,116 L377,116 C377.552285,116 378,115.552285 378,115 C378,114.447715 377.552285,114 377,114 L373,114 C372.447715,114 372,114.447715 372,115 C372,115.552285 372.447715,116 373,116 Z M387,116 L391,116 C391.552285,116 392,115.552285 392,115 C392,114.447715 391.552285,114 391,114 L387,114 C386.447715,114 386,114.447715 386,115 C386,115.552285 386.447715,116 387,116 Z M401,116 L405,116 C405.552285,116 406,115.552285 406,115 C406,114.447715 405.552285,114 405,114 L401,114 C400.447715,114 400,114.447715 400,115 C400,115.552285 400.447715,116 401,116 Z M415,116 L419,116 C419.552285,116 420,115.552285 420,115 C420,114.447715 419.552285,114 419,114 L415,114 C414.447715,114 414,114.447715 414,115 C414,115.552285 414.447715,116 415,116 Z M429,116 L433,116 C433.552285,116 434,115.552285 434,115 C434,114.447715 433.552285,114 433,114 L429,114 C428.447715,114 428,114.447715 428,115 C428,115.552285 428.447715,116 429,116 Z M443,116 L446,116 C446.552285,116 447,115.552285 447,115 C447,114.447715 446.552285,114 446,114 L443,114 C442.447715,114 442,114.447715 442,115 C442,115.552285 442.447715,116 443,116 Z" id="Line-3-Copy-11" fill="#24231F" fill-rule="nonzero"></path>
        <path d="M143,36 L147,36 C147.552285,36 148,35.5522847 148,35 C148,34.4477153 147.552285,34 147,34 L143,34 C142.447715,34 142,34.4477153 142,35 C142,35.5522847 142.447715,36 143,36 Z M157,36 L161,36 C161.552285,36 162,35.5522847 162,35 C162,34.4477153 161.552285,34 161,34 L157,34 C156.447715,34 156,34.4477153 156,35 C156,35.5522847 156.447715,36 157,36 Z M171,36 L175,36 C175.552285,36 176,35.5522847 176,35 C176,34.4477153 175.552285,34 175,34 L171,34 C170.447715,34 170,34.4477153 170,35 C170,35.5522847 170.447715,36 171,36 Z M185,36 L189,36 C189.552285,36 190,35.5522847 190,35 C190,34.4477153 189.552285,34 189,34 L185,34 C184.447715,34 184,34.4477153 184,35 C184,35.5522847 184.447715,36 185,36 Z M199,36 L203,36 C203.552285,36 204,35.5522847 204,35 C204,34.4477153 203.552285,34 203,34 L199,34 C198.447715,34 198,34.4477153 198,35 C198,35.5522847 198.447715,36 199,36 Z M213,36 L217,36 C217.552285,36 218,35.5522847 218,35 C218,34.4477153 217.552285,34 217,34 L213,34 C212.447715,34 212,34.4477153 212,35 C212,35.5522847 212.447715,36 213,36 Z M227,36 L230,36 C230.552285,36 231,35.5522847 231,35 C231,34.4477153 230.552285,34 230,34 L227,34 C226.447715,34 226,34.4477153 226,35 C226,35.5522847 226.447715,36 227,36 Z" id="Line-3-Copy-12" fill="#24231F" fill-rule="nonzero"></path>
        <path d="M381,290 L385,290 C385.552285,290 386,289.552285 386,289 C386,288.447715 385.552285,288 385,288 L381,288 C380.447715,288 380,288.447715 380,289 C380,289.552285 380.447715,290 381,290 Z M395,290 L399,290 C399.552285,290 400,289.552285 400,289 C400,288.447715 399.552285,288 399,288 L395,288 C394.447715,288 394,288.447715 394,289 C394,289.552285 394.447715,290 395,290 Z M409,290 L413,290 C413.552285,290 414,289.552285 414,289 C414,288.447715 413.552285,288 413,288 L409,288 C408.447715,288 408,288.447715 408,289 C408,289.552285 408.447715,290 409,290 Z M423,290 L427,290 C427.552285,290 428,289.552285 428,289 C428,288.447715 427.552285,288 427,288 L423,288 C422.447715,288 422,288.447715 422,289 C422,289.552285 422.447715,290 423,290 Z M437,290 L441,290 C441.552285,290 442,289.552285 442,289 C442,288.447715 441.552285,288 441,288 L437,288 C436.447715,288 436,288.447715 436,289 C436,289.552285 436.447715,290 437,290 Z M451,290 L455,290 C455.552285,290 456,289.552285 456,289 C456,288.447715 455.552285,288 455,288 L451,288 C450.447715,288 450,288.447715 450,289 C450,289.552285 450.447715,290 451,290 Z M465,290 L468,290 C468.552285,290 469,289.552285 469,289 C469,288.447715 468.552285,288 468,288 L465,288 C464.447715,288 464,288.447715 464,289 C464,289.552285 464.447715,290 465,290 Z" id="Line-3-Copy-13" fill="#24231F" fill-rule="nonzero"></path>
        <path d="M52,186 L56,186 C56.5522847,186 57,185.552285 57,185 C57,184.447715 56.5522847,184 56,184 L52,184 C51.4477153,184 51,184.447715 51,185 C51,185.552285 51.4477153,186 52,186 Z M66,186 L70,186 C70.5522847,186 71,185.552285 71,185 C71,184.447715 70.5522847,184 70,184 L66,184 C65.4477153,184 65,184.447715 65,185 C65,185.552285 65.4477153,186 66,186 Z M80,186 L84,186 C84.5522847,186 85,185.552285 85,185 C85,184.447715 84.5522847,184 84,184 L80,184 C79.4477153,184 79,184.447715 79,185 C79,185.552285 79.4477153,186 80,186 Z M94,186 L98,186 C98.5522847,186 99,185.552285 99,185 C99,184.447715 98.5522847,184 98,184 L94,184 C93.4477153,184 93,184.447715 93,185 C93,185.552285 93.4477153,186 94,186 Z M108,186 L112,186 C112.552285,186 113,185.552285 113,185 C113,184.447715 112.552285,184 112,184 L108,184 C107.447715,184 107,184.447715 107,185 C107,185.552285 107.447715,186 108,186 Z" id="Line-3-Copy-14" fill="#24231F" fill-rule="nonzero"></path>
        <path d="M40,254 L44,254 C44.5522847,254 45,253.552285 45,253 C45,252.447715 44.5522847,252 44,252 L40,252 C39.4477153,252 39,252.447715 39,253 C39,253.552285 39.4477153,254 40,254 Z M54,254 L58,254 C58.5522847,254 59,253.552285 59,253 C59,252.447715 58.5522847,252 58,252 L54,252 C53.4477153,252 53,252.447715 53,253 C53,253.552285 53.4477153,254 54,254 Z M68,254 L72,254 C72.5522847,254 73,253.552285 73,253 C73,252.447715 72.5522847,252 72,252 L68,252 C67.4477153,252 67,252.447715 67,253 C67,253.552285 67.4477153,254 68,254 Z" id="Line-3-Copy-15" fill="#24231F" fill-rule="nonzero"></path>
        <path d="M329,204 L333,204 C333.552285,204 334,203.552285 334,203 C334,202.447715 333.552285,202 333,202 L329,202 C328.447715,202 328,202.447715 328,203 C328,203.552285 328.447715,204 329,204 Z M343,204 L347,204 C347.552285,204 348,203.552285 348,203 C348,202.447715 347.552285,202 347,202 L343,202 C342.447715,202 342,202.447715 342,203 C342,203.552285 342.447715,204 343,204 Z M357,204 L361,204 C361.552285,204 362,203.552285 362,203 C362,202.447715 361.552285,202 361,202 L357,202 C356.447715,202 356,202.447715 356,203 C356,203.552285 356.447715,204 357,204 Z M371,204 L375,204 C375.552285,204 376,203.552285 376,203 C376,202.447715 375.552285,202 375,202 L371,202 C370.447715,202 370,202.447715 370,203 C370,203.552285 370.447715,204 371,204 Z M385,204 L389,204 C389.552285,204 390,203.552285 390,203 C390,202.447715 389.552285,202 389,202 L385,202 C384.447715,202 384,202.447715 384,203 C384,203.552285 384.447715,204 385,204 Z M399,204 L403,204 C403.552285,204 404,203.552285 404,203 C404,202.447715 403.552285,202 403,202 L399,202 C398.447715,202 398,202.447715 398,203 C398,203.552285 398.447715,204 399,204 Z" id="Line-3-Copy-16" fill="#24231F" fill-rule="nonzero"></path>
        <path d="M70.9359756,245 C71.4882604,245 71.9359756,245.447715 71.9359756,246 C71.9359756,246.512836 71.5499354,246.935507 71.0525967,246.993272 L70.9359756,247 L14.9786585,247 C14.4263738,247 13.9786585,246.552285 13.9786585,246 C13.9786585,245.487164 14.3646987,245.064493 14.8620374,245.006728 L14.9786585,245 L70.9359756,245 Z" id="Line-3-Copy-32" fill="#24231F" fill-rule="nonzero"></path>
        <path d="M281,112 C281.552285,112 282,112.447715 282,113 C282,113.512836 281.61396,113.935507 281.116621,113.993272 L281,114 L237.978659,114 C237.426374,114 236.978659,113.552285 236.978659,113 C236.978659,112.487164 237.364699,112.064493 237.862037,112.006728 L237.978659,112 L281,112 Z" id="Line-3-Copy-33" fill="#24231F" fill-rule="nonzero"></path>
        <path d="M416.032012,106 C416.584297,106 417.032012,106.447715 417.032012,107 C417.032012,107.512836 416.645972,107.935507 416.148633,107.993272 L416.032012,108 L373.010671,108 C372.458386,108 372.010671,107.552285 372.010671,107 C372.010671,106.487164 372.396711,106.064493 372.89405,106.006728 L373.010671,106 L416.032012,106 Z" id="Line-3-Copy-34" fill="#24231F" fill-rule="nonzero"></path>
        <path d="M441,99 C441.552285,99 442,99.4477153 442,100 C442,100.512836 441.61396,100.935507 441.116621,100.993272 L441,101 L390.010671,101 C389.458386,101 389.010671,100.552285 389.010671,100 C389.010671,99.4871642 389.396711,99.0644928 389.89405,99.0067277 L390.010671,99 L441,99 Z" id="Line-3-Copy-35" fill="#24231F" fill-rule="nonzero"></path>
        <path d="M361.008003,300 C361.560288,300 362.008003,300.447715 362.008003,301 C362.008003,301.512836 361.621963,301.935507 361.124624,301.993272 L361.008003,302 L331.002668,302 C330.450383,302 330.002668,301.552285 330.002668,301 C330.002668,300.487164 330.388708,300.064493 330.886047,300.006728 L331.002668,300 L361.008003,300 Z" id="Line-3-Copy-36" fill="#24231F" fill-rule="nonzero"></path>
        <path d="M351,307 C351.552285,307 352,307.447715 352,308 C352,308.512836 351.61396,308.935507 351.116621,308.993272 L351,309 L330.002668,309 C329.450383,309 329.002668,308.552285 329.002668,308 C329.002668,307.487164 329.388708,307.064493 329.886047,307.006728 L330.002668,307 L351,307 Z" id="Line-3-Copy-37" fill="#24231F" fill-rule="nonzero"></path>
        <path d="M433.935976,220 C434.48826,220 434.935976,220.447715 434.935976,221 C434.935976,221.512836 434.549935,221.935507 434.052597,221.993272 L433.935976,222 L377.978659,222 C377.426374,222 376.978659,221.552285 376.978659,221 C376.978659,220.487164 377.364699,220.064493 377.862037,220.006728 L377.978659,220 L433.935976,220 Z" id="Line-3-Copy-31" fill="#24231F" fill-rule="nonzero"></path>
        <line x1="89.9786585" y1="142" x2="145.935976" y2="142" id="Line-3-Copy-39" stroke="#24231F" stroke-width="2" stroke-linecap="round" stroke-linejoin="round"></line>
        <path d="M412.032012,227 C412.584297,227 413.032012,227.447715 413.032012,228 C413.032012,228.512836 412.645972,228.935507 412.148633,228.993272 L412.032012,229 L386.010671,229 C385.458386,229 385.010671,228.552285 385.010671,228 C385.010671,227.487164 385.396711,227.064493 385.89405,227.006728 L386.010671,227 L412.032012,227 Z" id="Line-3-Copy-38" fill="#24231F" fill-rule="nonzero"></path>
        <line x1="88.0106707" y1="149" x2="114.032012" y2="149" id="Line-3-Copy-40" stroke="#24231F" stroke-width="2" stroke-linecap="round" stroke-linejoin="round"></line>
        <path d="M309,126 C309.552285,126 310,126.447715 310,127 L310,133 L316,133 C316.552285,133 317,133.447715 317,134 C317,134.552285 316.552285,135 316,135 L310,135 L310,141 C310,141.552285 309.552285,142 309,142 C308.447715,142 308,141.552285 308,141 L308,135 L302,135 C301.447715,135 301,134.552285 301,134 C301,133.447715 301.447715,133 302,133 L308,133 L308,127 C308,126.447715 308.447715,126 309,126 Z" id="Combined-Shape-Copy-9" fill="#24231F"></path>
        <path d="M408,55 C408.552285,55 409,55.4477153 409,56 L409,62 L415,62 C415.552285,62 416,62.4477153 416,63 C416,63.5522847 415.552285,64 415,64 L409,64 L409,70 C409,70.5522847 408.552285,71 408,71 C407.447715,71 407,70.5522847 407,70 L407,64 L401,64 C400.447715,64 400,63.5522847 400,63 C400,62.4477153 400.447715,62 401,62 L407,62 L407,56 C407,55.4477153 407.447715,55 408,55 Z" id="Combined-Shape-Copy-10" fill="#24231F"></path>
        <path d="M165,78 C165.552285,78 166,78.4477153 166,79 L166,85 L172,85 C172.552285,85 173,85.4477153 173,86 C173,86.5522847 172.552285,87 172,87 L166,87 L166,93 C166,93.5522847 165.552285,94 165,94 C164.447715,94 164,93.5522847 164,93 L164,87 L158,87 C157.447715,87 157,86.5522847 157,86 C157,85.4477153 157.447715,85 158,85 L164,85 L164,79 C164,78.4477153 164.447715,78 165,78 Z" id="Combined-Shape-Copy-11" fill="#24231F"></path>
        <path d="M44,63 C44.5522847,63 45,63.4477153 45,64 L45,70 L51,70 C51.5522847,70 52,70.4477153 52,71 C52,71.5522847 51.5522847,72 51,72 L45,72 L45,78 C45,78.5522847 44.5522847,79 44,79 C43.4477153,79 43,78.5522847 43,78 L43,72 L37,72 C36.4477153,72 36,71.5522847 36,71 C36,70.4477153 36.4477153,70 37,70 L43,70 L43,64 C43,63.4477153 43.4477153,63 44,63 Z" id="Combined-Shape-Copy-12" fill="#24231F"></path>
        <path d="M419,258 C419.552285,258 420,258.447715 420,259 L420,265 L426,265 C426.552285,265 427,265.447715 427,266 C427,266.552285 426.552285,267 426,267 L420,267 L420,273 C420,273.552285 419.552285,274 419,274 C418.447715,274 418,273.552285 418,273 L418,267 L412,267 C411.447715,267 411,266.552285 411,266 C411,265.447715 411.447715,265 412,265 L418,265 L418,259 C418,258.447715 418.447715,258 419,258 Z" id="Combined-Shape-Copy-13" fill="#24231F"></path>
        <path d="M238,309 C238.552285,309 239,309.447715 239,310 L239,316 L245,316 C245.552285,316 246,316.447715 246,317 C246,317.552285 245.552285,318 245,318 L239,318 L239,324 C239,324.552285 238.552285,325 238,325 C237.447715,325 237,324.552285 237,324 L237,318 L231,318 C230.447715,318 230,317.552285 230,317 C230,316.447715 230.447715,316 231,316 L237,316 L237,310 C237,309.447715 237.447715,309 238,309 Z" id="Combined-Shape-Copy-14" fill="#24231F"></path>
        <path d="M106,352 C106.552285,352 107,352.447715 107,353 L107,359 L113,359 C113.552285,359 114,359.447715 114,360 C114,360.552285 113.552285,361 113,361 L107,361 L107,367 C107,367.552285 106.552285,368 106,368 C105.447715,368 105,367.552285 105,367 L105,361 L99,361 C98.4477153,361 98,360.552285 98,360 C98,359.447715 98.4477153,359 99,359 L105,359 L105,353 C105,352.447715 105.447715,352 106,352 Z" id="Combined-Shape-Copy-15" fill="#24231F"></path>
        <path d="M25,216 C25.5522847,216 26,216.447715 26,217 L26,223 L32,223 C32.5522847,223 33,223.447715 33,224 C33,224.552285 32.5522847,225 32,225 L26,225 L26,231 C26,231.552285 25.5522847,232 25,232 C24.4477153,232 24,231.552285 24,231 L24,225 L18,225 C17.4477153,225 17,224.552285 17,224 C17,223.447715 17.4477153,223 18,223 L24,223 L24,217 C24,216.447715 24.4477153,216 25,216 Z" id="Combined-Shape-Copy-16" fill="#24231F"></path>
        <path d="M142,160 C142.552285,160 143,160.447715 143,161 L143,167 L149,167 C149.552285,167 150,167.447715 150,168 C150,168.552285 149.552285,169 149,169 L143,169 L143,175 C143,175.552285 142.552285,176 142,176 C141.447715,176 141,175.552285 141,175 L141,169 L135,169 C134.447715,169 134,168.552285 134,168 C134,167.447715 134.447715,167 135,167 L141,167 L141,161 C141,160.447715 141.447715,160 142,160 Z" id="Combined-Shape-Copy-17" fill="#24231F"></path>
        <path d="M359,365 C359.552285,365 360,365.447715 360,366 L360,372 L366,372 C366.552285,372 367,372.447715 367,373 C367,373.552285 366.552285,374 366,374 L360,374 L360,380 C360,380.552285 359.552285,381 359,381 C358.447715,381 358,380.552285 358,380 L358,374 L352,374 C351.447715,374 351,373.552285 351,373 C351,372.447715 351.447715,372 352,372 L358,372 L358,366 C358,365.447715 358.447715,365 359,365 Z" id="Combined-Shape-Copy-18" fill="#24231F"></path>
        <path d="M230,369 L234,369 C234.552285,369 235,368.552285 235,368 C235,367.447715 234.552285,367 234,367 L230,367 C229.447715,367 229,367.447715 229,368 C229,368.552285 229.447715,369 230,369 Z M244,369 L248,369 C248.552285,369 249,368.552285 249,368 C249,367.447715 248.552285,367 248,367 L244,367 C243.447715,367 243,367.447715 243,368 C243,368.552285 243.447715,369 244,369 Z M258,369 L262,369 C262.552285,369 263,368.552285 263,368 C263,367.447715 262.552285,367 262,367 L258,367 C257.447715,367 257,367.447715 257,368 C257,368.552285 257.447715,369 258,369 Z M272,369 L276,369 C276.552285,369 277,368.552285 277,368 C277,367.447715 276.552285,367 276,367 L272,367 C271.447715,367 271,367.447715 271,368 C271,368.552285 271.447715,369 272,369 Z" id="Line-3-Copy-10" fill="#24231F" fill-rule="nonzero"></path>
    </g>
</svg>