<?xml version="1.0" encoding="UTF-8"?>
<svg width="180px" height="180px" viewBox="0 0 180 180" version="1.1" xmlns="http://www.w3.org/2000/svg" xmlns:xlink="http://www.w3.org/1999/xlink">
    <!-- Generator: Sketch 63.1 (92452) - https://sketch.com -->
    <title>img/Cross-platformOperation </title>
    <desc>Created with Sketch.</desc>
    <g id="img/Cross-platformOperation-" stroke="none" stroke-width="1" fill="none" fill-rule="evenodd">
        <circle id="Oval" fill="#E2E3E6" cx="90" cy="90" r="80"></circle>
        <circle id="Oval-Copy-15" fill="#EABDBF" cx="18" cy="57" r="5"></circle>
        <circle id="Oval-Copy-16" fill="#EABDBF" cx="65" cy="53" r="5"></circle>
        <circle id="Oval-Copy-17" fill="#EABDBF" cx="150" cy="123" r="5"></circle>
        <circle id="Oval-Copy-24" fill="#EABDBF" cx="23" cy="155" r="5"></circle>
        <circle id="Oval-Copy-18" fill="#EABDBF" cx="55" cy="129" r="5"></circle>
        <circle id="Oval-Copy-19" fill="#EABDBF" cx="126" cy="30" r="5"></circle>
        <circle id="Oval-Copy-20" fill="#EABDBF" cx="50" cy="18" r="5"></circle>
        <circle id="Oval-Copy-22" fill="#EABDBF" cx="109" cy="132" r="5"></circle>
        <circle id="Oval-Copy-23" fill="#EABDBF" cx="77" cy="150" r="5"></circle>
        <circle id="Oval-Copy-21" fill="#EABDBF" cx="155" cy="47" r="5"></circle>
        <rect id="Rectangle" fill="#D40B26" x="23" y="72" width="40" height="40"></rect>
        <rect id="Rectangle-Copy-4" fill="#D40B26" x="121" y="71" width="40" height="40"></rect>
        <rect id="Rectangle-Copy-5" fill="#D40B26" x="72" y="71" width="40" height="40"></rect>
        <path d="M60,68 L60,108 L20,108 L20,68 L60,68 Z M52.6051897,89.1428571 L39.4285714,89.1428571 L39.4285714,99.4285714 L52.6051897,101.714286 L52.6051897,89.1428571 Z M37.7142857,89.1428571 L26.8571429,89.1428571 L26.8571429,97.1428571 L37.7142857,98.8571429 L37.7142857,89.1428571 Z M37.7142857,77.1428571 L26.8571429,78.8571429 L26.8571429,86.8571429 L37.7142857,86.8571429 L37.7142857,77.1428571 Z M52.6051897,74.2857143 L39.4285714,76.5714286 L39.4285714,86.8571429 L52.6051897,86.8571429 L52.6051897,74.2857143 Z" id="Combined-Shape" fill="#24231F"></path>
        <path d="M158,68 L158,108 L118,108 L118,68 L158,68 Z M136.767228,80.1888253 C135.416363,79.5954939 131.128138,78.2562779 127.301966,82.4825614 C123.248534,87.254255 126.453403,97.1669922 130.471888,101.086286 C133.609374,103.696987 134.687778,102.420829 136.767228,101.915876 C138.715052,101.286551 139.763182,101.086286 141.932895,102.121094 C145.267856,103.493234 146.649971,101.960519 148.234444,100.327916 C149.783272,98.6065848 150.699008,96.8539342 151.61321,94.4787249 C150.03662,94.4787249 143.146344,88.343471 150.788712,82.4825614 C149.203194,80.8920898 147.825055,79.5148577 144.784667,79.5148577 C141.744279,79.5148577 141.639089,80.0434222 140.207937,80.5210658 C138.776784,80.9987095 138.118093,80.7821568 136.767228,80.1888253 Z M144.567765,72.5714286 C144.567765,72.5714286 138.016461,73.3196498 138.320451,79.9496373 C145.344307,79.1606097 144.567765,72.5714286 144.567765,72.5714286 Z" id="Combined-Shape" fill="#24231F"></path>
        <path d="M109,68 L109,108 L69,108 L69,68 L109,68 Z M88.8458855,73.1428571 C83.2724907,73.5370637 84.1640306,78.5031581 84.4802041,80.3937003 C84.7506975,82.2884373 85.065137,83.0711289 83.8594565,84.7885926 C82.5823875,86.4257671 80.1494444,89.9310895 80.151834,92.9576722 L80.151,92.939 L80.153165,92.8616264 C79.7621676,93.0740833 79.4033127,93.4323099 79.1096024,93.9520639 L79.0025792,94.154574 L78.865675,94.4290243 L78.7998482,94.5565303 C78.6148548,94.9079627 78.5361703,94.9879594 78.3998742,95.0215228 L78.3998742,95.0215228 L78.3806942,95.0253476 L78.0418936,95.0225824 L77.8471651,95.0243267 C76.964784,95.0445313 76.4475034,95.2402852 76.1344144,95.8907077 C75.9563524,96.2606202 75.9375543,96.6111647 76.0383255,96.9947764 L76.0383255,96.9947764 L76.0726359,97.1175375 L76.0850351,97.1552509 C76.0990056,97.1963614 76.1184421,97.2498734 76.1501077,97.3356807 L76.1501077,97.3356807 L76.2001693,97.4709749 L76.2478179,97.6038635 C76.3044277,97.7685031 76.334423,97.8877654 76.3506727,98.0192826 C76.3646896,98.1327276 76.3405484,98.2563183 76.265519,98.4459447 L76.265519,98.4459447 L76.1898438,98.6234969 L76.1530929,98.7055266 L76.0750107,98.8853644 C75.833714,99.4634329 75.7837251,99.8389806 75.9710336,100.353731 C76.3431423,101.376339 77.3712675,101.645591 80.2101648,101.940967 C80.6181046,101.983411 80.9288954,102.124012 81.5496195,102.515643 L81.5496195,102.515643 L81.7268674,102.628657 L81.9300345,102.755971 C83.1932331,103.528973 84.024971,103.666187 85.3112854,103.008084 C86.0670179,102.621437 86.5489663,102.102663 86.7947024,101.527886 L86.7947024,101.527886 L86.9141901,101.497011 C88.2584574,101.164171 90.0587456,100.976763 92.0537876,101.462311 L92.0537876,101.462311 L91.9086835,101.430543 C92.0825734,102.05658 92.4521759,102.559001 93.066064,102.915221 C94.2581927,103.630718 96.0109067,103.343009 97.0249601,102.255062 L97.0249601,102.255062 L97.8241467,101.369727 L97.8555976,101.335891 C97.8751697,101.314967 97.8918456,101.29743 97.9049902,101.284018 C98.279996,100.901365 98.5850189,100.711163 99.0193643,100.624353 L99.0193643,100.624353 L99.1307602,100.604753 L99.3025779,100.574199 C100.681452,100.296019 102.142857,99.219254 102.142857,98.1683892 C102.142857,97.2884648 101.582011,96.6347595 100.704117,96.4021806 L100.704117,96.4021806 L100.222893,96.2796501 L100.111644,96.2480034 C99.9451714,96.1968685 99.8670794,96.1507091 99.782271,96.0634491 C99.7596495,96.0401736 99.7361474,96.0133205 99.7114203,95.9822638 C99.6820023,95.9453156 99.6547191,95.7832721 99.6341194,95.4448818 L99.6341194,95.4448818 L99.6053685,94.8359089 L99.5939228,94.6600996 C99.5602117,94.2167696 99.4982694,93.9696292 99.3429109,93.7322251 C99.1051909,93.368964 98.7638351,93.1429861 98.3841615,93.0702615 C98.521243,91.3537045 98.2811037,89.6502183 97.5535713,87.9812056 C94.5757527,83.4265273 93.0138988,83.4265273 93.3550648,80.3937003 C93.664183,78.1853787 94.6829576,73.5113689 88.8458855,73.1428571 Z M79.8811482,94.5876252 C80.5536084,93.226762 81.697397,93.3579288 82.5586904,94.5625352 L82.5586904,94.5625352 L82.5856159,94.5968522 L82.7339454,94.779643 C82.9732653,95.0920777 83.1758827,95.4467915 83.383471,95.8942332 L83.383471,95.8942332 L83.4652048,96.0742232 L83.7204628,96.666194 L83.8229319,96.9017215 C84.1903734,97.7314505 84.47439,98.1979311 84.9270891,98.6094141 L84.9270891,98.6094141 L85.0113129,98.6836917 L85.1380653,98.7973116 C86.2838157,99.8729978 86.3792771,101.361818 84.8648933,102.136605 C83.9260003,102.616961 83.4104228,102.527258 82.3728167,101.878667 L82.3728167,101.878667 L82.1984919,101.767885 L81.9995917,101.641954 C81.2985376,101.20434 80.893838,101.027776 80.3116015,100.967196 L80.3116015,100.967196 L79.9607945,100.929414 L79.7013567,100.89958 C77.8468261,100.67971 77.0425793,100.433885 76.8916571,100.019129 C76.80503,99.7810648 76.8319074,99.6018592 77.0045065,99.2023661 L77.0045065,99.2023661 L77.1307214,98.9168333 L77.1954976,98.7571285 C77.3131562,98.4473782 77.3589052,98.1907061 77.3229001,97.8992997 C77.2957339,97.6794303 77.247934,97.4953711 77.1639398,97.25588 L77.1639398,97.25588 L77.0124832,96.838787 L76.9985659,96.7935397 L76.9985659,96.7935397 L76.985828,96.7461702 C76.9408937,96.5751164 76.9470183,96.4609059 77.0171852,96.3151386 C77.1249158,96.0913353 77.3567354,96.0089495 77.9272796,96.0020365 L77.9272796,96.0020365 L78.4266225,96.0046853 L78.507127,95.998028 L78.6246694,95.9757736 C79.1877849,95.8545509 79.3959885,95.5720528 79.8811482,94.5876252 Z M93.6291735,94.0229479 C93.8458539,93.9474803 94.0445407,93.9842155 94.7801465,94.2420679 L94.7801465,94.2420679 L95.3932152,94.4611719 L95.5198731,94.5038922 L95.7201853,94.5610379 C96.510679,94.7605882 97.1709357,94.6138128 97.6586261,94.195024 L97.6586261,94.195024 L97.6932482,94.1633091 L97.7694703,94.1162453 C98.0831627,93.9424576 98.3546881,94.0107933 98.5230705,94.2680993 C98.574282,94.3463559 98.6077806,94.5458721 98.6294286,94.9372232 L98.6294286,94.9372232 L98.6518585,95.4390718 L98.6622555,95.6201225 C98.6961058,96.1304805 98.7575313,96.3565609 98.9448753,96.5918607 C98.9891378,96.6474533 99.0338119,96.6984972 99.0795809,96.7455893 C99.300405,96.9727972 99.5187972,97.0925599 99.8536679,97.1926717 L99.8536679,97.1926717 L99.9697687,97.225435 L100.021846,97.2389195 C100.136463,97.2681927 100.371866,97.3270055 100.453106,97.3485282 C100.920492,97.4723517 101.163245,97.7552981 101.163245,98.1683892 C101.163245,98.6352045 100.066349,99.4274094 99.0832787,99.6193878 L99.0832787,99.6193878 L98.9820375,99.6370685 L98.7706816,99.6760725 C98.1547253,99.8100929 97.6948802,100.099241 97.2051424,100.598965 L97.2051424,100.598965 L97.0585552,100.755574 L96.9713062,100.851294 C96.726121,101.121471 96.3945769,101.495032 96.308165,101.587741 C95.6032965,102.343973 94.357683,102.548441 93.5641557,102.07222 C93.0247886,101.759184 92.7922582,101.283619 92.7692754,100.564769 L92.7692754,100.564769 L92.7673685,100.442694 L92.7652687,100.211188 C92.7758017,99.7588184 92.8754267,99.3608717 93.076667,98.8477063 L93.076667,98.8477063 L93.3737418,98.115951 L93.4336919,97.9609733 C93.576286,97.5821187 93.5858441,97.4605652 93.5858441,97.1630768 L93.5858441,97.1630768 L93.5824402,97.0097978 L93.5776167,96.9411739 C93.5673505,96.8238701 93.545136,96.6859667 93.4987721,96.4382702 L93.4987721,96.4382702 L93.3818047,95.8239722 L93.3540839,95.6658805 C93.3374114,95.5662976 93.3241164,95.4766882 93.3127675,95.3871524 L93.3127675,95.3871524 L93.298548,95.2632259 L93.2842767,95.0883919 C93.2542655,94.5835083 93.3400063,94.2536692 93.5558027,94.0577805 L93.5558027,94.0577805 L93.5700627,94.0458251 L93.5785983,94.0423057 Z M90.1608989,77.2118433 C91.2039687,77.2118433 91.536803,77.922658 91.536803,79.1699092 C91.536803,79.7113665 91.2800707,80.2808584 90.9119757,80.6562351 C91.1184461,80.7346099 91.3203173,80.7841056 91.5431706,80.8108864 C91.9848911,80.9180311 92.2217604,81.2262456 92.1321477,81.5941492 C92.0660488,81.8655174 91.8285271,82.108143 91.5017469,82.2567843 L91.5017469,82.2567843 L91.3751808,82.3079919 L91.3179583,82.3170213 L91.624872,82.9121583 C92.6402048,84.9211296 93.5784108,87.1819145 94.4394898,89.6945132 C94.7809454,90.6908687 94.9276608,91.8131275 94.8722345,92.9398254 L94.8722345,92.9398254 L94.8521429,93.2308571 L94.972,93.272 L94.8064113,93.2152182 C93.9284349,92.9199523 93.6883242,92.924357 93.2126518,93.1326361 L93.1067982,93.1803529 L93.0181009,93.2332388 L92.8940224,93.3347157 C92.3454184,93.8247634 92.2187001,94.5459373 92.3409226,95.5101915 L92.3409226,95.5101915 L92.3665406,95.6940027 L92.3868701,95.8214144 C92.401453,95.9088211 92.418226,96.0020922 92.4379712,96.1068275 L92.4379712,96.1068275 L92.5435672,96.6606295 L92.5636962,96.772561 C92.5990606,96.9751977 92.6062325,97.0583188 92.6062325,97.1630768 L92.6062325,97.1630768 L92.6030585,97.2731799 L92.5990837,97.3132251 C92.5789429,97.4745646 92.5039602,97.6621984 92.2323096,98.3221347 C92.166899,98.4810403 92.108728,98.6318399 92.0577458,98.7773774 L92.0577458,98.7773774 L91.9159026,98.8807671 C90.8204062,99.6390062 89.4139456,100.047102 87.6838525,99.8971551 C87.3480844,99.868054 87.0300214,99.8223226 86.7290059,99.7612825 L86.833,99.78 L86.8838697,99.7895959 C86.7243268,99.2222668 86.3928435,98.6694361 85.9193158,98.1916747 L85.735143,98.0161513 L85.6486926,97.940232 L85.5462076,97.8474428 C85.248404,97.5619168 85.0318494,97.2041935 84.7450369,96.5644328 L84.7450369,96.5644328 L84.45357,95.8893794 L84.3898579,95.7431786 C84.3489375,95.6502249 84.3106561,95.5652984 84.2721962,95.4824008 L84.2721962,95.4824008 L84.1773734,95.2833109 L84.043029,95.0199512 C83.8619271,94.6799531 83.6712008,94.382674 83.4502029,94.105625 L83.4502029,94.105625 L83.3443865,93.9777823 L83.352,93.989 L83.2013432,93.7902515 C82.9377736,93.4642298 82.6438574,93.2008996 82.3346185,93.0074346 L82.1473567,92.8997968 L82.1722166,92.6488722 C82.2977502,91.5918393 82.5956938,90.5676188 83.0071994,89.6945132 C84.0045958,87.5783028 84.8392135,85.4754546 85.5110523,83.3859687 L85.5110523,83.3859687 L85.7080537,82.7544082 L85.622577,82.6554644 C85.5661601,82.5902498 85.5117592,82.5276439 85.4646603,82.4743249 L85.4646603,82.4743249 L85.3955345,82.3970738 L85.331921,82.330315 L85.2838843,82.28715 L85.2525397,82.2738107 L85.1579961,82.2213277 C85.0693656,82.164614 84.9984352,82.0954168 84.9448524,82.0156167 L84.9448524,82.0156167 L84.897039,81.932352 L84.8699239,81.868781 L84.8437565,81.7856957 C84.8231673,81.7048355 84.8181416,81.626712 84.8181416,81.5158774 C84.8181416,81.1034547 85.1281805,80.7557412 85.7234904,80.6592806 L85.7234904,80.6592806 C85.3934022,80.2792424 85.1702494,79.7093571 85.1702494,79.1699092 C85.1702494,77.9181443 85.4567017,77.2118433 86.3947639,77.2118433 C87.0497946,77.2118433 87.6414403,78.0303811 87.7642858,79.1200373 C87.7754659,79.2192063 87.7713717,79.2931276 87.7557522,79.3511643 C87.8366265,79.328881 87.9201303,79.3162871 88.0072569,79.3120041 L88.0072569,79.3120041 L88.1407882,79.3116404 L88.2385878,79.3150624 L88.3589412,79.3277022 C88.4391273,79.3391349 88.5193407,79.3565627 88.6003394,79.3798807 C88.5999627,79.2944645 88.6061189,79.2059674 88.6178463,79.1158681 C88.7597745,78.0254582 89.4387451,77.2118433 90.1608989,77.2118433 Z M88.1308781,79.5561981 C87.7431343,79.5405043 87.4222271,79.7278698 87.1379246,79.9664213 C86.9821276,80.1328513 86.8081144,80.3195236 86.6017505,80.4734184 C86.3976091,80.6695021 86.204296,80.8305187 86.0051149,80.8725217 L86.0051149,80.8725217 L85.9049581,80.8832168 L85.8106039,80.8923419 L85.6789379,80.9141873 C85.184021,81.0192589 85.0630446,81.3276281 85.0630446,81.5158774 C85.0630446,81.6670152 85.0630446,81.942322 85.4151523,82.0774888 C85.9049581,82.4739661 86.3406127,83.4722701 87.6480379,83.8425745 C89.7013718,84.1352267 90.8283079,82.0774888 91.2928222,82.0774888 C91.9573067,81.8403494 92.1678001,81.2142619 91.4854082,81.0487393 C90.0683076,80.8832168 89.2080383,79.5561981 88.1308781,79.5561981 Z M91.205169,81.2609875 C91.3404251,81.2609875 91.4500719,81.3705695 91.4500719,81.5057457 C91.4500719,81.6259024 91.3634374,81.7258364 91.2491906,81.7465606 L91.2491906,81.7465606 L91.205169,81.7505039 L91.1643621,81.7550103 C90.9822518,81.7878482 90.4546226,81.9978484 89.9714893,82.3091948 L89.9714893,82.3091948 L89.7843039,82.4569775 L89.7115253,82.5161688 C89.5385378,82.6573946 89.3512966,82.8135515 89.3165576,82.840626 C88.8310175,83.21904 88.4010014,83.3629737 87.7205265,83.3037823 C87.4311221,83.2805729 87.1289723,83.1003742 86.7030149,82.7474759 L86.7030149,82.7474759 L86.5385403,82.6081332 L85.9362066,82.083886 L85.8474877,82.010063 C85.6849319,81.8772455 85.6064026,81.82937 85.5171288,81.7939335 C85.3914246,81.7440364 85.3299947,81.6017435 85.3799214,81.4761135 C85.4298481,81.3504836 85.572225,81.28909 85.6979292,81.3389872 L85.6979292,81.3389872 L85.7858119,81.3766449 L85.8380606,81.402812 C85.9598821,81.4679346 86.0872814,81.566108 86.3509296,81.7937124 L86.3509296,81.7937124 L86.8584425,82.2374442 L86.9201626,82.2903846 L87.048228,82.3972425 C87.3775169,82.6658424 87.6097411,82.8038082 87.7613489,82.8159717 C88.3134841,82.8639949 88.6230024,82.7603939 89.0153527,82.4546089 L89.0153527,82.4546089 L89.4463143,82.1011125 L89.5390251,82.0265142 C89.5984831,81.9790523 89.6520034,81.9372064 89.6921491,81.9074287 C90.304897,81.5117866 90.9690015,81.2609875 91.205169,81.2609875 Z M86.3947639,77.7013597 C85.8481293,77.7013597 85.6600552,78.1650911 85.6600552,79.1699092 C85.6600552,79.5593613 85.8185174,79.972457 86.0227964,80.2527643 C85.9492127,80.069686 85.9049581,79.867876 85.9049581,79.6756875 C85.9049581,79.1131397 85.9706893,78.4356345 86.5835589,78.4356345 C86.7398487,78.4356345 87.0222467,78.6075362 87.2228302,78.8450521 C87.0662293,78.1546369 86.6985846,77.7013597 86.3947639,77.7013597 Z M90.1608989,77.7013597 C89.7228175,77.7013597 89.2169982,78.3074863 89.1035598,79.1790141 C89.0846951,79.3239484 89.0840199,79.461809 89.0987948,79.5905739 L89.0987948,79.5905739 L89.1189979,79.598843 L89.2263148,79.6588165 L89.3383685,79.7254475 L89.3442982,79.6594256 L89.3664858,79.4998801 C89.4813556,78.8295473 89.8320809,78.4356345 90.1244156,78.4356345 C90.7372852,78.4356345 90.8030164,79.1131397 90.8030164,79.6756875 C90.8030164,79.816111 90.7793908,79.961671 90.7381051,80.1010532 C90.9196649,79.8328933 91.0469972,79.4924209 91.0469972,79.1699092 C91.0469972,78.1605775 90.8319715,77.7013597 90.1608989,77.7013597 Z" id="Combined-Shape" fill="#24231F"></path>
        <path d="M90,117 C90.5522847,117 91,117.447715 91,118 C91,118.512836 90.6139598,118.935507 90.1166211,118.993272 L90,119 L10.0853659,119 C9.5330811,119 9.08536585,118.552285 9.08536585,118 C9.08536585,117.487164 9.47140604,117.064493 9.96874473,117.006728 L10.0853659,117 L90,117 Z" id="Line-3-Copy-33" fill="#24231F" fill-rule="nonzero"></path>
        <path d="M42.0213415,123 C42.5736262,123 43.0213415,123.447715 43.0213415,124 C43.0213415,124.512836 42.6353013,124.935507 42.1379626,124.993272 L42.0213415,125 L15.0640244,125 C14.5117396,125 14.0640244,124.552285 14.0640244,124 C14.0640244,123.487164 14.4500646,123.064493 14.9474033,123.006728 L15.0640244,123 L42.0213415,123 Z" id="Line-3-Copy-34" fill="#24231F" fill-rule="nonzero"></path>
        <path d="M154.005335,140 C154.55762,140 155.005335,140.447715 155.005335,141 C155.005335,141.512836 154.619295,141.935507 154.121956,141.993272 L154.005335,142 L122.058689,142 C121.506404,142 121.058689,141.552285 121.058689,141 C121.058689,140.487164 121.444729,140.064493 121.942068,140.006728 L122.058689,140 L154.005335,140 Z" id="Line-3-Copy-36" fill="#24231F" fill-rule="nonzero"></path>
        <path d="M160.989329,146 C161.541614,146 161.989329,146.447715 161.989329,147 C161.989329,147.512836 161.603289,147.935507 161.10595,147.993272 L160.989329,148 L101.053354,148 C100.501069,148 100.053354,147.552285 100.053354,147 C100.053354,146.487164 100.439394,146.064493 100.936733,146.006728 L101.053354,146 L160.989329,146 Z" id="Line-3-Copy-35" fill="#24231F" fill-rule="nonzero"></path>
        <path d="M114,160 C114.552285,160 115,160.447715 115,161 C115,161.512836 114.61396,161.935507 114.116621,161.993272 L114,162 L44.0533537,162 C43.5010689,162 43.0533537,161.552285 43.0533537,161 C43.0533537,160.487164 43.4393938,160.064493 43.9367325,160.006728 L44.0533537,160 L114,160 Z" id="Line-3-Copy-37" fill="#24231F" fill-rule="nonzero"></path>
        <path d="M139.03468,50 C139.586965,50 140.03468,50.4477153 140.03468,51 C140.03468,51.5128358 139.64864,51.9355072 139.151301,51.9932723 L139.03468,52 L79,52 C78.4477153,52 78,51.5522847 78,51 C78,50.4871642 78.3860402,50.0644928 78.8833789,50.0067277 L79,50 L139.03468,50 Z" id="Line-3-Copy-39" fill="#24231F" fill-rule="nonzero"></path>
        <path d="M145.03468,56 C145.586965,56 146.03468,56.4477153 146.03468,57 C146.03468,57.5128358 145.64864,57.9355072 145.151301,57.9932723 L145.03468,58 L107.029345,58 C106.47706,58 106.029345,57.5522847 106.029345,57 C106.029345,56.4871642 106.415385,56.0644928 106.912723,56.0067277 L107.029345,56 L145.03468,56 Z" id="Line-3-Copy-38" fill="#24231F" fill-rule="nonzero"></path>
        <path d="M60.0346799,41 C60.5869646,41 61.0346799,41.4477153 61.0346799,42 C61.0346799,42.5128358 60.6486397,42.9355072 60.151301,42.9932723 L60.0346799,43 L22.0293445,43 C21.4770598,43 21.0293445,42.5522847 21.0293445,42 C21.0293445,41.4871642 21.4153847,41.0644928 21.9127234,41.0067277 L22.0293445,41 L60.0346799,41 Z" id="Line-3-Copy-40" fill="#24231F" fill-rule="nonzero"></path>
        <path d="M112,34 C112.552285,34 113,34.4477153 113,35 C113,35.5128358 112.61396,35.9355072 112.116621,35.9932723 L112,36 L53.0293445,36 C52.4770598,36 52.0293445,35.5522847 52.0293445,35 C52.0293445,34.4871642 52.4153847,34.0644928 52.9127234,34.0067277 L53.0293445,34 L112,34 Z" id="Line-3-Copy-41" fill="#24231F" fill-rule="nonzero"></path>
    </g>
</svg>