<?xml version="1.0" encoding="UTF-8"?>
<svg width="180px" height="180px" viewBox="0 0 180 180" version="1.1" xmlns="http://www.w3.org/2000/svg" xmlns:xlink="http://www.w3.org/1999/xlink">
    <!-- Generator: Sketch 63.1 (92452) - https://sketch.com -->
    <title>img/ForensicAnalysis </title>
    <desc>Created with Sketch.</desc>
    <g id="img/ForensicAnalysis-" stroke="none" stroke-width="1" fill="none" fill-rule="evenodd">
        <circle id="Oval" fill="#E2E3E6" cx="90" cy="90" r="80"></circle>
        <polygon id="fill" fill="#D40B26" points="55 40 113 40 135 62 135 150 55 150"></polygon>
        <path d="M108,33 C108.530433,33 109.039141,33.2107137 109.414214,33.5857864 L109.414214,33.5857864 L131.414214,55.5857864 C131.789286,55.9608592 132,56.469567 132,57 L132,57 L132,145 C132,146.104569 131.104569,147 130,147 L130,147 L50,147 C48.8954305,147 48,146.104569 48,145 L48,145 L48,35 C48,33.8954305 48.8954305,33 50,33 L50,33 Z M106,37 L52,37 L52,143 L128,143 L128,59 L108,59 C106.945638,59 106.081835,58.1841222 106.005486,57.1492623 L106,57 L106,37 Z M125.171,55 L110,39.829 L110,55 L125.171,55 Z" id="Combined-Shape" fill="#24231F" fill-rule="nonzero"></path>
        <rect id="Rectangle" fill="#FFFFFF" x="62" y="49" width="44" height="5"></rect>
        <rect id="Rectangle-Copy" fill="#FFFFFF" x="62" y="59" width="56" height="5"></rect>
        <rect id="Rectangle-Copy-2" fill="#FFFFFF" x="62" y="69" width="56" height="5"></rect>
        <rect id="Rectangle-Copy-3" fill="#FFFFFF" x="62" y="79" width="56" height="5"></rect>
        <rect id="Rectangle-Copy-4" fill="#FFFFFF" x="62" y="89" width="56" height="5"></rect>
        <rect id="Rectangle-Copy-5" fill="#FFFFFF" x="62" y="99" width="56" height="5"></rect>
        <rect id="Rectangle-Copy-6" fill="#FFFFFF" x="62" y="109" width="56" height="5"></rect>
        <rect id="Rectangle-Copy-7" fill="#FFFFFF" x="62" y="119" width="56" height="5"></rect>
        <rect id="Rectangle-Copy-8" fill="#FFFFFF" x="62" y="129" width="56" height="5"></rect>
        <circle id="fill" fill="#FFFFFF" cx="115" cy="105" r="31"></circle>
        <path d="M115,72 C96.7746033,72 82,86.7746033 82,105 C82,123.225397 96.7746033,138 115,138 C133.225397,138 148,123.225397 148,105 C148,86.7746033 133.225397,72 115,72 Z M115,76 C131.016258,76 144,88.9837423 144,105 C144,121.016258 131.016258,134 115,134 C98.9837423,134 86,121.016258 86,105 C86,88.9837423 98.9837423,76 115,76 Z" id="Oval" fill="#24231F" fill-rule="nonzero"></path>
        <ellipse id="fill" fill="#EABDBF" cx="115" cy="104.916509" rx="22" ry="21.9165085"></ellipse>
        <path d="M115,81 C101.746865,81 91,91.7060797 91,104.916509 C91,118.126937 101.746865,128.833017 115,128.833017 C128.253135,128.833017 139,118.126937 139,104.916509 C139,91.7060797 128.253135,81 115,81 Z M115,85 C126.047394,85 135,93.9186305 135,104.916509 C135,115.914387 126.047394,124.833017 115,124.833017 C103.952606,124.833017 95,115.914387 95,104.916509 C95,93.9186305 103.952606,85 115,85 Z" id="Oval" fill="#24231F" fill-rule="nonzero"></path>
        <path d="M143.698485,122.698485 L153.698485,122.698485 L153.698485,151.698485 C153.698485,154.459909 151.459909,156.698485 148.698485,156.698485 C145.937061,156.698485 143.698485,154.459909 143.698485,151.698485 L143.698485,122.698485 L143.698485,122.698485 Z" id="fill" fill="#9F9EA2" transform="translate(148.698485, 139.698485) rotate(-45.000000) translate(-148.698485, -139.698485) "></path>
        <path d="M155.698485,120.698485 L141.698485,120.698485 L141.698485,151.698485 C141.698485,155.564478 144.832492,158.698485 148.698485,158.698485 C152.564478,158.698485 155.698485,155.564478 155.698485,151.698485 L155.698485,120.698485 Z M145.698,124.698 L151.698,124.698 L151.698485,151.698485 C151.698485,153.355339 150.355339,154.698485 148.698485,154.698485 L148.522212,154.693392 C146.947405,154.602146 145.698485,153.296166 145.698485,151.698485 L145.698,124.698 Z" id="Rectangle" fill="#24231F" fill-rule="nonzero" transform="translate(148.698485, 139.698485) rotate(-45.000000) translate(-148.698485, -139.698485) "></path>
        <path d="M101.240234,96.1054688 C101.716797,96.1054688 102.131836,96.0107422 102.485352,95.8212891 C102.838867,95.6318359 103.134766,95.3642578 103.373047,95.0185547 C103.611328,94.6728516 103.789062,94.2587891 103.90625,93.7763672 C104.023438,93.2939453 104.082031,92.7597656 104.082031,92.1738281 C104.082031,91.4941406 104.017578,90.90625 103.888672,90.4101562 C103.759766,89.9140625 103.576172,89.5048828 103.337891,89.1826172 C103.099609,88.8603516 102.8125,88.6220703 102.476562,88.4677734 C102.140625,88.3134766 101.767578,88.2363281 101.357422,88.2363281 C100.884766,88.2363281 100.470703,88.3310547 100.115234,88.5205078 C99.7597656,88.7099609 99.4638672,88.9775391 99.2275391,89.3232422 C98.9912109,89.6689453 98.8134766,90.0839844 98.6943359,90.5683594 C98.5751953,91.0527344 98.515625,91.5878906 98.515625,92.1738281 C98.515625,92.8535156 98.5800781,93.4414062 98.7089844,93.9375 C98.8378906,94.4335938 99.0214844,94.8417969 99.2597656,95.1621094 C99.4980469,95.4824219 99.7851562,95.7197266 100.121094,95.8740234 C100.457031,96.0283203 100.830078,96.1054688 101.240234,96.1054688 Z M99.5703125,92.8535156 C99.5585938,92.7402344 99.5517578,92.6230469 99.5498047,92.5019531 C99.5478516,92.3808594 99.546875,92.2597656 99.546875,92.1386719 C99.546875,91.6425781 99.5878906,91.2060547 99.6699219,90.8291016 C99.7519531,90.4521484 99.8691406,90.1357422 100.021484,89.8798828 C100.173828,89.6240234 100.358398,89.4316406 100.575195,89.3027344 C100.791992,89.1738281 101.033203,89.109375 101.298828,89.109375 C101.498047,89.109375 101.677734,89.1425781 101.837891,89.2089844 C101.998047,89.2753906 102.140625,89.3681641 102.265625,89.4873047 C102.390625,89.6064453 102.498047,89.7480469 102.587891,89.9121094 C102.677734,90.0761719 102.751953,90.2578125 102.810547,90.4570312 L102.810547,90.4570312 L99.5703125,92.8535156 Z M101.298828,95.2324219 C101.091797,95.2324219 100.907227,95.1982422 100.745117,95.1298828 C100.583008,95.0615234 100.438477,94.9658203 100.311523,94.8427734 C100.18457,94.7197266 100.076172,94.5722656 99.9863281,94.4003906 C99.8964844,94.2285156 99.8222656,94.0410156 99.7636719,93.8378906 L99.7636719,93.8378906 L103.003906,91.4296875 C103.015625,91.5546875 103.026367,91.6826172 103.036133,91.8134766 C103.045898,91.9443359 103.050781,92.0761719 103.050781,92.2089844 C103.050781,92.7050781 103.009766,93.1416016 102.927734,93.5185547 C102.845703,93.8955078 102.728516,94.2109375 102.576172,94.4648438 C102.423828,94.71875 102.239258,94.9101562 102.022461,95.0390625 C101.805664,95.1679688 101.564453,95.2324219 101.298828,95.2324219 Z M110.439453,96 L110.439453,95.0507812 L108.728516,95.0507812 L108.728516,88.3066406 L107.826172,88.3066406 L105.388672,89.5898438 L105.763672,90.4570312 L107.597656,89.4609375 L107.597656,95.0507812 L105.628906,95.0507812 L105.628906,96 L110.439453,96 Z M114.435547,96.1054688 C114.912109,96.1054688 115.327148,96.0107422 115.680664,95.8212891 C116.03418,95.6318359 116.330078,95.3642578 116.568359,95.0185547 C116.806641,94.6728516 116.984375,94.2587891 117.101562,93.7763672 C117.21875,93.2939453 117.277344,92.7597656 117.277344,92.1738281 C117.277344,91.4941406 117.212891,90.90625 117.083984,90.4101562 C116.955078,89.9140625 116.771484,89.5048828 116.533203,89.1826172 C116.294922,88.8603516 116.007812,88.6220703 115.671875,88.4677734 C115.335938,88.3134766 114.962891,88.2363281 114.552734,88.2363281 C114.080078,88.2363281 113.666016,88.3310547 113.310547,88.5205078 C112.955078,88.7099609 112.65918,88.9775391 112.422852,89.3232422 C112.186523,89.6689453 112.008789,90.0839844 111.889648,90.5683594 C111.770508,91.0527344 111.710938,91.5878906 111.710938,92.1738281 C111.710938,92.8535156 111.775391,93.4414062 111.904297,93.9375 C112.033203,94.4335938 112.216797,94.8417969 112.455078,95.1621094 C112.693359,95.4824219 112.980469,95.7197266 113.316406,95.8740234 C113.652344,96.0283203 114.025391,96.1054688 114.435547,96.1054688 Z M112.765625,92.8535156 C112.753906,92.7402344 112.74707,92.6230469 112.745117,92.5019531 C112.743164,92.3808594 112.742188,92.2597656 112.742188,92.1386719 C112.742188,91.6425781 112.783203,91.2060547 112.865234,90.8291016 C112.947266,90.4521484 113.064453,90.1357422 113.216797,89.8798828 C113.369141,89.6240234 113.553711,89.4316406 113.770508,89.3027344 C113.987305,89.1738281 114.228516,89.109375 114.494141,89.109375 C114.693359,89.109375 114.873047,89.1425781 115.033203,89.2089844 C115.193359,89.2753906 115.335938,89.3681641 115.460938,89.4873047 C115.585938,89.6064453 115.693359,89.7480469 115.783203,89.9121094 C115.873047,90.0761719 115.947266,90.2578125 116.005859,90.4570312 L116.005859,90.4570312 L112.765625,92.8535156 Z M114.494141,95.2324219 C114.287109,95.2324219 114.102539,95.1982422 113.94043,95.1298828 C113.77832,95.0615234 113.633789,94.9658203 113.506836,94.8427734 C113.379883,94.7197266 113.271484,94.5722656 113.181641,94.4003906 C113.091797,94.2285156 113.017578,94.0410156 112.958984,93.8378906 L112.958984,93.8378906 L116.199219,91.4296875 C116.210938,91.5546875 116.22168,91.6826172 116.231445,91.8134766 C116.241211,91.9443359 116.246094,92.0761719 116.246094,92.2089844 C116.246094,92.7050781 116.205078,93.1416016 116.123047,93.5185547 C116.041016,93.8955078 115.923828,94.2109375 115.771484,94.4648438 C115.619141,94.71875 115.43457,94.9101562 115.217773,95.0390625 C115.000977,95.1679688 114.759766,95.2324219 114.494141,95.2324219 Z M121.033203,96.1054688 C121.509766,96.1054688 121.924805,96.0107422 122.27832,95.8212891 C122.631836,95.6318359 122.927734,95.3642578 123.166016,95.0185547 C123.404297,94.6728516 123.582031,94.2587891 123.699219,93.7763672 C123.816406,93.2939453 123.875,92.7597656 123.875,92.1738281 C123.875,91.4941406 123.810547,90.90625 123.681641,90.4101562 C123.552734,89.9140625 123.369141,89.5048828 123.130859,89.1826172 C122.892578,88.8603516 122.605469,88.6220703 122.269531,88.4677734 C121.933594,88.3134766 121.560547,88.2363281 121.150391,88.2363281 C120.677734,88.2363281 120.263672,88.3310547 119.908203,88.5205078 C119.552734,88.7099609 119.256836,88.9775391 119.020508,89.3232422 C118.78418,89.6689453 118.606445,90.0839844 118.487305,90.5683594 C118.368164,91.0527344 118.308594,91.5878906 118.308594,92.1738281 C118.308594,92.8535156 118.373047,93.4414062 118.501953,93.9375 C118.630859,94.4335938 118.814453,94.8417969 119.052734,95.1621094 C119.291016,95.4824219 119.578125,95.7197266 119.914062,95.8740234 C120.25,96.0283203 120.623047,96.1054688 121.033203,96.1054688 Z M119.363281,92.8535156 C119.351562,92.7402344 119.344727,92.6230469 119.342773,92.5019531 C119.34082,92.3808594 119.339844,92.2597656 119.339844,92.1386719 C119.339844,91.6425781 119.380859,91.2060547 119.462891,90.8291016 C119.544922,90.4521484 119.662109,90.1357422 119.814453,89.8798828 C119.966797,89.6240234 120.151367,89.4316406 120.368164,89.3027344 C120.584961,89.1738281 120.826172,89.109375 121.091797,89.109375 C121.291016,89.109375 121.470703,89.1425781 121.630859,89.2089844 C121.791016,89.2753906 121.933594,89.3681641 122.058594,89.4873047 C122.183594,89.6064453 122.291016,89.7480469 122.380859,89.9121094 C122.470703,90.0761719 122.544922,90.2578125 122.603516,90.4570312 L122.603516,90.4570312 L119.363281,92.8535156 Z M121.091797,95.2324219 C120.884766,95.2324219 120.700195,95.1982422 120.538086,95.1298828 C120.375977,95.0615234 120.231445,94.9658203 120.104492,94.8427734 C119.977539,94.7197266 119.869141,94.5722656 119.779297,94.4003906 C119.689453,94.2285156 119.615234,94.0410156 119.556641,93.8378906 L119.556641,93.8378906 L122.796875,91.4296875 C122.808594,91.5546875 122.819336,91.6826172 122.829102,91.8134766 C122.838867,91.9443359 122.84375,92.0761719 122.84375,92.2089844 C122.84375,92.7050781 122.802734,93.1416016 122.720703,93.5185547 C122.638672,93.8955078 122.521484,94.2109375 122.369141,94.4648438 C122.216797,94.71875 122.032227,94.9101562 121.81543,95.0390625 C121.598633,95.1679688 121.357422,95.2324219 121.091797,95.2324219 Z M130.232422,96 L130.232422,95.0507812 L128.521484,95.0507812 L128.521484,88.3066406 L127.619141,88.3066406 L125.181641,89.5898438 L125.556641,90.4570312 L127.390625,89.4609375 L127.390625,95.0507812 L125.421875,95.0507812 L125.421875,96 L130.232422,96 Z M103.841797,108 L103.841797,107.050781 L102.130859,107.050781 L102.130859,100.306641 L101.228516,100.306641 L98.7910156,101.589844 L99.1660156,102.457031 L101,101.460938 L101,107.050781 L99.03125,107.050781 L99.03125,108 L103.841797,108 Z M107.837891,108.105469 C108.314453,108.105469 108.729492,108.010742 109.083008,107.821289 C109.436523,107.631836 109.732422,107.364258 109.970703,107.018555 C110.208984,106.672852 110.386719,106.258789 110.503906,105.776367 C110.621094,105.293945 110.679688,104.759766 110.679688,104.173828 C110.679688,103.494141 110.615234,102.90625 110.486328,102.410156 C110.357422,101.914062 110.173828,101.504883 109.935547,101.182617 C109.697266,100.860352 109.410156,100.62207 109.074219,100.467773 C108.738281,100.313477 108.365234,100.236328 107.955078,100.236328 C107.482422,100.236328 107.068359,100.331055 106.712891,100.520508 C106.357422,100.709961 106.061523,100.977539 105.825195,101.323242 C105.588867,101.668945 105.411133,102.083984 105.291992,102.568359 C105.172852,103.052734 105.113281,103.587891 105.113281,104.173828 C105.113281,104.853516 105.177734,105.441406 105.306641,105.9375 C105.435547,106.433594 105.619141,106.841797 105.857422,107.162109 C106.095703,107.482422 106.382812,107.719727 106.71875,107.874023 C107.054688,108.02832 107.427734,108.105469 107.837891,108.105469 Z M106.167969,104.853516 C106.15625,104.740234 106.149414,104.623047 106.147461,104.501953 C106.145508,104.380859 106.144531,104.259766 106.144531,104.138672 C106.144531,103.642578 106.185547,103.206055 106.267578,102.829102 C106.349609,102.452148 106.466797,102.135742 106.619141,101.879883 C106.771484,101.624023 106.956055,101.431641 107.172852,101.302734 C107.389648,101.173828 107.630859,101.109375 107.896484,101.109375 C108.095703,101.109375 108.275391,101.142578 108.435547,101.208984 C108.595703,101.275391 108.738281,101.368164 108.863281,101.487305 C108.988281,101.606445 109.095703,101.748047 109.185547,101.912109 C109.275391,102.076172 109.349609,102.257812 109.408203,102.457031 L109.408203,102.457031 L106.167969,104.853516 Z M107.896484,107.232422 C107.689453,107.232422 107.504883,107.198242 107.342773,107.129883 C107.180664,107.061523 107.036133,106.96582 106.90918,106.842773 C106.782227,106.719727 106.673828,106.572266 106.583984,106.400391 C106.494141,106.228516 106.419922,106.041016 106.361328,105.837891 L106.361328,105.837891 L109.601562,103.429688 C109.613281,103.554688 109.624023,103.682617 109.633789,103.813477 C109.643555,103.944336 109.648438,104.076172 109.648438,104.208984 C109.648438,104.705078 109.607422,105.141602 109.525391,105.518555 C109.443359,105.895508 109.326172,106.210938 109.173828,106.464844 C109.021484,106.71875 108.836914,106.910156 108.620117,107.039062 C108.40332,107.167969 108.162109,107.232422 107.896484,107.232422 Z M117.037109,108 L117.037109,107.050781 L115.326172,107.050781 L115.326172,100.306641 L114.423828,100.306641 L111.986328,101.589844 L112.361328,102.457031 L114.195312,101.460938 L114.195312,107.050781 L112.226562,107.050781 L112.226562,108 L117.037109,108 Z M121.033203,108.105469 C121.509766,108.105469 121.924805,108.010742 122.27832,107.821289 C122.631836,107.631836 122.927734,107.364258 123.166016,107.018555 C123.404297,106.672852 123.582031,106.258789 123.699219,105.776367 C123.816406,105.293945 123.875,104.759766 123.875,104.173828 C123.875,103.494141 123.810547,102.90625 123.681641,102.410156 C123.552734,101.914062 123.369141,101.504883 123.130859,101.182617 C122.892578,100.860352 122.605469,100.62207 122.269531,100.467773 C121.933594,100.313477 121.560547,100.236328 121.150391,100.236328 C120.677734,100.236328 120.263672,100.331055 119.908203,100.520508 C119.552734,100.709961 119.256836,100.977539 119.020508,101.323242 C118.78418,101.668945 118.606445,102.083984 118.487305,102.568359 C118.368164,103.052734 118.308594,103.587891 118.308594,104.173828 C118.308594,104.853516 118.373047,105.441406 118.501953,105.9375 C118.630859,106.433594 118.814453,106.841797 119.052734,107.162109 C119.291016,107.482422 119.578125,107.719727 119.914062,107.874023 C120.25,108.02832 120.623047,108.105469 121.033203,108.105469 Z M119.363281,104.853516 C119.351562,104.740234 119.344727,104.623047 119.342773,104.501953 C119.34082,104.380859 119.339844,104.259766 119.339844,104.138672 C119.339844,103.642578 119.380859,103.206055 119.462891,102.829102 C119.544922,102.452148 119.662109,102.135742 119.814453,101.879883 C119.966797,101.624023 120.151367,101.431641 120.368164,101.302734 C120.584961,101.173828 120.826172,101.109375 121.091797,101.109375 C121.291016,101.109375 121.470703,101.142578 121.630859,101.208984 C121.791016,101.275391 121.933594,101.368164 122.058594,101.487305 C122.183594,101.606445 122.291016,101.748047 122.380859,101.912109 C122.470703,102.076172 122.544922,102.257812 122.603516,102.457031 L122.603516,102.457031 L119.363281,104.853516 Z M121.091797,107.232422 C120.884766,107.232422 120.700195,107.198242 120.538086,107.129883 C120.375977,107.061523 120.231445,106.96582 120.104492,106.842773 C119.977539,106.719727 119.869141,106.572266 119.779297,106.400391 C119.689453,106.228516 119.615234,106.041016 119.556641,105.837891 L119.556641,105.837891 L122.796875,103.429688 C122.808594,103.554688 122.819336,103.682617 122.829102,103.813477 C122.838867,103.944336 122.84375,104.076172 122.84375,104.208984 C122.84375,104.705078 122.802734,105.141602 122.720703,105.518555 C122.638672,105.895508 122.521484,106.210938 122.369141,106.464844 C122.216797,106.71875 122.032227,106.910156 121.81543,107.039062 C121.598633,107.167969 121.357422,107.232422 121.091797,107.232422 Z M130.232422,108 L130.232422,107.050781 L128.521484,107.050781 L128.521484,100.306641 L127.619141,100.306641 L125.181641,101.589844 L125.556641,102.457031 L127.390625,101.460938 L127.390625,107.050781 L125.421875,107.050781 L125.421875,108 L130.232422,108 Z M103.841797,120 L103.841797,119.050781 L102.130859,119.050781 L102.130859,112.306641 L101.228516,112.306641 L98.7910156,113.589844 L99.1660156,114.457031 L101,113.460938 L101,119.050781 L99.03125,119.050781 L99.03125,120 L103.841797,120 Z M110.439453,120 L110.439453,119.050781 L108.728516,119.050781 L108.728516,112.306641 L107.826172,112.306641 L105.388672,113.589844 L105.763672,114.457031 L107.597656,113.460938 L107.597656,119.050781 L105.628906,119.050781 L105.628906,120 L110.439453,120 Z M117.037109,120 L117.037109,119.050781 L115.326172,119.050781 L115.326172,112.306641 L114.423828,112.306641 L111.986328,113.589844 L112.361328,114.457031 L114.195312,113.460938 L114.195312,119.050781 L112.226562,119.050781 L112.226562,120 L117.037109,120 Z M121.033203,120.105469 C121.509766,120.105469 121.924805,120.010742 122.27832,119.821289 C122.631836,119.631836 122.927734,119.364258 123.166016,119.018555 C123.404297,118.672852 123.582031,118.258789 123.699219,117.776367 C123.816406,117.293945 123.875,116.759766 123.875,116.173828 C123.875,115.494141 123.810547,114.90625 123.681641,114.410156 C123.552734,113.914062 123.369141,113.504883 123.130859,113.182617 C122.892578,112.860352 122.605469,112.62207 122.269531,112.467773 C121.933594,112.313477 121.560547,112.236328 121.150391,112.236328 C120.677734,112.236328 120.263672,112.331055 119.908203,112.520508 C119.552734,112.709961 119.256836,112.977539 119.020508,113.323242 C118.78418,113.668945 118.606445,114.083984 118.487305,114.568359 C118.368164,115.052734 118.308594,115.587891 118.308594,116.173828 C118.308594,116.853516 118.373047,117.441406 118.501953,117.9375 C118.630859,118.433594 118.814453,118.841797 119.052734,119.162109 C119.291016,119.482422 119.578125,119.719727 119.914062,119.874023 C120.25,120.02832 120.623047,120.105469 121.033203,120.105469 Z M119.363281,116.853516 C119.351562,116.740234 119.344727,116.623047 119.342773,116.501953 C119.34082,116.380859 119.339844,116.259766 119.339844,116.138672 C119.339844,115.642578 119.380859,115.206055 119.462891,114.829102 C119.544922,114.452148 119.662109,114.135742 119.814453,113.879883 C119.966797,113.624023 120.151367,113.431641 120.368164,113.302734 C120.584961,113.173828 120.826172,113.109375 121.091797,113.109375 C121.291016,113.109375 121.470703,113.142578 121.630859,113.208984 C121.791016,113.275391 121.933594,113.368164 122.058594,113.487305 C122.183594,113.606445 122.291016,113.748047 122.380859,113.912109 C122.470703,114.076172 122.544922,114.257812 122.603516,114.457031 L122.603516,114.457031 L119.363281,116.853516 Z M121.091797,119.232422 C120.884766,119.232422 120.700195,119.198242 120.538086,119.129883 C120.375977,119.061523 120.231445,118.96582 120.104492,118.842773 C119.977539,118.719727 119.869141,118.572266 119.779297,118.400391 C119.689453,118.228516 119.615234,118.041016 119.556641,117.837891 L119.556641,117.837891 L122.796875,115.429688 C122.808594,115.554688 122.819336,115.682617 122.829102,115.813477 C122.838867,115.944336 122.84375,116.076172 122.84375,116.208984 C122.84375,116.705078 122.802734,117.141602 122.720703,117.518555 C122.638672,117.895508 122.521484,118.210938 122.369141,118.464844 C122.216797,118.71875 122.032227,118.910156 121.81543,119.039062 C121.598633,119.167969 121.357422,119.232422 121.091797,119.232422 Z M127.630859,120.105469 C128.107422,120.105469 128.522461,120.010742 128.875977,119.821289 C129.229492,119.631836 129.525391,119.364258 129.763672,119.018555 C130.001953,118.672852 130.179688,118.258789 130.296875,117.776367 C130.414062,117.293945 130.472656,116.759766 130.472656,116.173828 C130.472656,115.494141 130.408203,114.90625 130.279297,114.410156 C130.150391,113.914062 129.966797,113.504883 129.728516,113.182617 C129.490234,112.860352 129.203125,112.62207 128.867188,112.467773 C128.53125,112.313477 128.158203,112.236328 127.748047,112.236328 C127.275391,112.236328 126.861328,112.331055 126.505859,112.520508 C126.150391,112.709961 125.854492,112.977539 125.618164,113.323242 C125.381836,113.668945 125.204102,114.083984 125.084961,114.568359 C124.96582,115.052734 124.90625,115.587891 124.90625,116.173828 C124.90625,116.853516 124.970703,117.441406 125.099609,117.9375 C125.228516,118.433594 125.412109,118.841797 125.650391,119.162109 C125.888672,119.482422 126.175781,119.719727 126.511719,119.874023 C126.847656,120.02832 127.220703,120.105469 127.630859,120.105469 Z M125.960938,116.853516 C125.949219,116.740234 125.942383,116.623047 125.94043,116.501953 C125.938477,116.380859 125.9375,116.259766 125.9375,116.138672 C125.9375,115.642578 125.978516,115.206055 126.060547,114.829102 C126.142578,114.452148 126.259766,114.135742 126.412109,113.879883 C126.564453,113.624023 126.749023,113.431641 126.96582,113.302734 C127.182617,113.173828 127.423828,113.109375 127.689453,113.109375 C127.888672,113.109375 128.068359,113.142578 128.228516,113.208984 C128.388672,113.275391 128.53125,113.368164 128.65625,113.487305 C128.78125,113.606445 128.888672,113.748047 128.978516,113.912109 C129.068359,114.076172 129.142578,114.257812 129.201172,114.457031 L129.201172,114.457031 L125.960938,116.853516 Z M127.689453,119.232422 C127.482422,119.232422 127.297852,119.198242 127.135742,119.129883 C126.973633,119.061523 126.829102,118.96582 126.702148,118.842773 C126.575195,118.719727 126.466797,118.572266 126.376953,118.400391 C126.287109,118.228516 126.212891,118.041016 126.154297,117.837891 L126.154297,117.837891 L129.394531,115.429688 C129.40625,115.554688 129.416992,115.682617 129.426758,115.813477 C129.436523,115.944336 129.441406,116.076172 129.441406,116.208984 C129.441406,116.705078 129.400391,117.141602 129.318359,117.518555 C129.236328,117.895508 129.119141,118.210938 128.966797,118.464844 C128.814453,118.71875 128.629883,118.910156 128.413086,119.039062 C128.196289,119.167969 127.955078,119.232422 127.689453,119.232422 Z" id="010011010111100" fill="#24231F" fill-rule="nonzero"></path>
        <rect id="Rectangle-Copy-28" fill="#EABDBF" x="22" y="30" width="5" height="5"></rect>
        <rect id="Rectangle-Copy-29" fill="#EABDBF" x="153" y="57" width="5" height="5"></rect>
        <rect id="Rectangle-Copy-30" fill="#EABDBF" x="26" y="82" width="5" height="5"></rect>
        <rect id="Rectangle-Copy-31" fill="#EABDBF" x="110" y="17" width="5" height="5"></rect>
        <rect id="Rectangle-Copy-32" fill="#EABDBF" x="38" y="116" width="5" height="5"></rect>
        <rect id="Rectangle-Copy-33" fill="#EABDBF" x="16" y="107" width="5" height="5"></rect>
        <rect id="Rectangle-Copy-34" fill="#EABDBF" x="98" y="162" width="5" height="5"></rect>
        <rect id="Rectangle-Copy-35" fill="#EABDBF" x="158" y="109" width="5" height="5"></rect>
        <rect id="Rectangle-Copy-36" fill="#EABDBF" x="137" y="150" width="5" height="5"></rect>
        <rect id="Rectangle-Copy-37" fill="#EABDBF" x="64" y="22" width="5" height="5"></rect>
        <path d="M31,158 L35,158 C35.5522847,158 36,157.552285 36,157 C36,156.447715 35.5522847,156 35,156 L31,156 C30.4477153,156 30,156.447715 30,157 C30,157.552285 30.4477153,158 31,158 Z M45,158 L49,158 C49.5522847,158 50,157.552285 50,157 C50,156.447715 49.5522847,156 49,156 L45,156 C44.4477153,156 44,156.447715 44,157 C44,157.552285 44.4477153,158 45,158 Z M59,158 L63,158 C63.5522847,158 64,157.552285 64,157 C64,156.447715 63.5522847,156 63,156 L59,156 C58.4477153,156 58,156.447715 58,157 C58,157.552285 58.4477153,158 59,158 Z M73,158 L77,158 C77.5522847,158 78,157.552285 78,157 C78,156.447715 77.5522847,156 77,156 L73,156 C72.4477153,156 72,156.447715 72,157 C72,157.552285 72.4477153,158 73,158 Z M87,158 L91,158 C91.5522847,158 92,157.552285 92,157 C92,156.447715 91.5522847,156 91,156 L87,156 C86.4477153,156 86,156.447715 86,157 C86,157.552285 86.4477153,158 87,158 Z M101,158 L105,158 C105.552285,158 106,157.552285 106,157 C106,156.447715 105.552285,156 105,156 L101,156 C100.447715,156 100,156.447715 100,157 C100,157.552285 100.447715,158 101,158 Z" id="Line-3-Copy-13" fill="#24231F" fill-rule="nonzero"></path>
        <path d="M16,53 L20,53 C20.5522847,53 21,52.5522847 21,52 C21,51.4477153 20.5522847,51 20,51 L16,51 C15.4477153,51 15,51.4477153 15,52 C15,52.5522847 15.4477153,53 16,53 Z M30,53 L34,53 C34.5522847,53 35,52.5522847 35,52 C35,51.4477153 34.5522847,51 34,51 L30,51 C29.4477153,51 29,51.4477153 29,52 C29,52.5522847 29.4477153,53 30,53 Z M44,53 L48,53 C48.5522847,53 49,52.5522847 49,52 C49,51.4477153 48.5522847,51 48,51 L44,51 C43.4477153,51 43,51.4477153 43,52 C43,52.5522847 43.4477153,53 44,53 Z" id="Line-3-Copy-11" fill="#24231F" fill-rule="nonzero"></path>
        <path d="M87,28 L91,28 C91.5522847,28 92,27.5522847 92,27 C92,26.4477153 91.5522847,26 91,26 L87,26 C86.4477153,26 86,26.4477153 86,27 C86,27.5522847 86.4477153,28 87,28 Z M101,28 L105,28 C105.552285,28 106,27.5522847 106,27 C106,26.4477153 105.552285,26 105,26 L101,26 C100.447715,26 100,26.4477153 100,27 C100,27.5522847 100.447715,28 101,28 Z M115,28 L119,28 C119.552285,28 120,27.5522847 120,27 C120,26.4477153 119.552285,26 119,26 L115,26 C114.447715,26 114,26.4477153 114,27 C114,27.5522847 114.447715,28 115,28 Z M129,28 L133,28 C133.552285,28 134,27.5522847 134,27 C134,26.4477153 133.552285,26 133,26 L129,26 C128.447715,26 128,26.4477153 128,27 C128,27.5522847 128.447715,28 129,28 Z M143,28 L147,28 C147.552285,28 148,27.5522847 148,27 C148,26.4477153 147.552285,26 147,26 L143,26 C142.447715,26 142,26.4477153 142,27 C142,27.5522847 142.447715,28 143,28 Z M157,28 L161,28 C161.552285,28 162,27.5522847 162,27 C162,26.4477153 161.552285,26 161,26 L157,26 C156.447715,26 156,26.4477153 156,27 C156,27.5522847 156.447715,28 157,28 Z" id="Line-3-Copy-12" fill="#24231F" fill-rule="nonzero"></path>
        <path d="M142,90 L146,90 C146.552285,90 147,89.5522847 147,89 C147,88.4477153 146.552285,88 146,88 L142,88 C141.447715,88 141,88.4477153 141,89 C141,89.5522847 141.447715,90 142,90 Z M156,90 L160,90 C160.552285,90 161,89.5522847 161,89 C161,88.4477153 160.552285,88 160,88 L156,88 C155.447715,88 155,88.4477153 155,89 C155,89.5522847 155.447715,90 156,90 Z" id="Line-3-Copy-15" fill="#24231F" fill-rule="nonzero"></path>
        <path d="M23,67 L27,67 C27.5522847,67 28,66.5522847 28,66 C28,65.4477153 27.5522847,65 27,65 L23,65 C22.4477153,65 22,65.4477153 22,66 C22,66.5522847 22.4477153,67 23,67 Z M37,67 L41,67 C41.5522847,67 42,66.5522847 42,66 C42,65.4477153 41.5522847,65 41,65 L37,65 C36.4477153,65 36,65.4477153 36,66 C36,66.5522847 36.4477153,67 37,67 Z" id="Line-3-Copy-14" fill="#24231F" fill-rule="nonzero"></path>
    </g>
</svg>