<?xml version="1.0" encoding="UTF-8"?>
<svg width="180px" height="180px" viewBox="0 0 180 180" version="1.1" xmlns="http://www.w3.org/2000/svg" xmlns:xlink="http://www.w3.org/1999/xlink">
    <!-- Generator: Sketch 63.1 (92452) - https://sketch.com -->
    <title>img/Multi-Scenarios</title>
    <desc>Created with Sketch.</desc>
    <g id="img/Multi-Scenarios" stroke="none" stroke-width="1" fill="none" fill-rule="evenodd">
        <circle id="Oval" fill="#E2E3E6" cx="90" cy="90" r="80"></circle>
        <path d="M95,59 C113.225397,59 128,73.7746033 128,92 C128,110.225397 113.225397,125 95,125 C76.7746033,125 62,110.225397 62,92 C62,73.7746033 76.7746033,59 95,59 Z M100,45 C102.209139,45 104,46.790861 104,49 C104,51.209139 102.209139,53 100,53 L90,53 C87.790861,53 86,51.209139 86,49 C86,46.790861 87.790861,45 90,45 L100,45 Z" id="Combined-Shape" fill="#D40B26"></path>
        <path d="M90,55 C109.329966,55 125,70.6700338 125,90 C125,109.329966 109.329966,125 90,125 C70.6700338,125 55,109.329966 55,90 C55,70.6700338 70.6700338,55 90,55 Z M90,59 C72.8791728,59 59,72.8791728 59,90 C59,107.120827 72.8791728,121 90,121 C107.120827,121 121,107.120827 121,90 C121,72.8791728 107.120827,59 90,59 Z M90,65 C103.807119,65 115,76.1928813 115,90 C115,103.807119 103.807119,115 90,115 C76.1928813,115 65,103.807119 65,90 C65,76.1928813 76.1928813,65 90,65 Z M90,69 C78.4020203,69 69,78.4020203 69,90 C69,101.59798 78.4020203,111 90,111 C101.59798,111 111,101.59798 111,90 C111,78.4020203 101.59798,69 90,69 Z M100.897952,77.4361112 C101.802763,78.0696662 102.022659,79.3167578 101.389104,80.2215681 L91.6499307,94.1309965 L91.628,94.16 L91.5320146,94.2858496 C91.4949411,94.3301226 91.4562721,94.3724279 91.416152,94.41274 L91.343,94.479 L91.309,94.51 L91.2743541,94.5416117 L91.2743541,94.5416117 C91.2377077,94.5724284 91.1996417,94.6016638 91.1607169,94.6293915 C91.15081,94.6361838 91.1408502,94.643161 91.1308419,94.6500369 C91.0999127,94.6714498 91.0684452,94.6917173 91.0365054,94.7110421 C91.0126278,94.725487 90.9887006,94.7393257 90.9645568,94.7526279 C90.9438723,94.7639137 90.9228589,94.7749751 90.9016779,94.7856474 L90.8278605,94.8212127 L90.8278605,94.8212127 C90.8024983,94.832466 90.7768422,94.843459 90.7509902,94.8539031 C90.7266488,94.8640499 90.7023055,94.8733401 90.677825,94.8821379 C90.6554446,94.8898533 90.632743,94.8975537 90.6099214,94.9048425 C90.5774063,94.9155498 90.5446394,94.9250885 90.511694,94.9337731 C90.4998925,94.9365952 90.4882174,94.9395658 90.4765177,94.942431 C90.439584,94.951728 90.4023999,94.9596934 90.3650573,94.9665909 L90.3034396,94.9768502 L90.3034396,94.9768502 C90.2741638,94.9814469 90.2451152,94.9852277 90.2160108,94.9883712 C90.1909581,94.9910632 90.1655688,94.9933483 90.1401357,94.9951501 L90.0588603,94.9991391 L90.0588603,94.9991391 C90.0359403,94.9999481 90.0130245,95.0002482 89.9900968,95.0001549 C89.9590472,94.9998217 89.9280748,94.998953 89.8971321,94.9973692 L89.8333306,94.9933702 L89.8333306,94.9933702 C89.8042778,94.990666 89.7755978,94.9876554 89.7469812,94.9840265 C89.717871,94.9806496 89.688942,94.9763373 89.6600757,94.97138 C89.6352025,94.9667978 89.6105895,94.9620966 89.5860547,94.9569308 L89.580698,94.9560817 L89.4403439,94.9204888 C89.4001033,94.9088665 89.3632702,94.8968892 89.3266871,94.8837893 C89.2035238,94.8398716 89.083618,94.7833885 88.969072,94.7143776 L88.825,94.617 L88.7120498,94.5302532 C88.6671394,94.4925417 88.6242599,94.4531861 88.583438,94.4123379 L80.1005051,85.9289322 C79.3194565,85.1478836 79.3194565,83.8815536 80.1005051,83.1005051 C80.8815536,82.3194565 82.1478836,82.3194565 82.9289322,83.1005051 L89.7277186,89.8992438 L98.1124953,77.9272624 C98.7460504,77.022452 99.9931419,76.8025561 100.897952,77.4361112 Z M95,41 C98.3137085,41 101,43.6862915 101,47 C101,50.2383969 98.4344251,52.8775718 95.2249383,52.9958615 L95,53 L85,53 C81.6862915,53 79,50.3137085 79,47 C79,43.7616031 81.5655749,41.1224282 84.7750617,41.0041385 L85,41 L95,41 Z M95,45 L85,45 C83.8954305,45 83,45.8954305 83,47 C83,48.0543618 83.8158778,48.9181651 84.8507377,48.9945143 L85,49 L95,49 C96.1045695,49 97,48.1045695 97,47 C97,45.8954305 96.1045695,45 95,45 Z" id="Combined-Shape" fill="#24231F" fill-rule="nonzero"></path>
        <g id="Group" transform="translate(27.000000, 23.000000)">
            <circle id="fill" fill="#EABDBF" cx="10" cy="10" r="10"></circle>
            <path d="M10,-1 C3.92486775,-1 -1,3.92486775 -1,10 C-1,16.0751322 3.92486775,21 10,21 C16.0751322,21 21,16.0751322 21,10 C21,3.92486775 16.0751322,-1 10,-1 Z M10,1 C14.9705627,1 19,5.02943725 19,10 C19,14.9705627 14.9705627,19 10,19 C5.02943725,19 1,14.9705627 1,10 C1,5.02943725 5.02943725,1 10,1 Z" id="Oval-Copy" fill="#24231F" fill-rule="nonzero"></path>
        </g>
        <g id="Group-6" transform="translate(145.000000, 60.000000)">
            <circle id="fill" fill="#EABDBF" cx="10" cy="10" r="10"></circle>
            <path d="M10,-1 C3.92486775,-1 -1,3.92486775 -1,10 C-1,16.0751322 3.92486775,21 10,21 C16.0751322,21 21,16.0751322 21,10 C21,3.92486775 16.0751322,-1 10,-1 Z M10,1 C14.9705627,1 19,5.02943725 19,10 C19,14.9705627 14.9705627,19 10,19 C5.02943725,19 1,14.9705627 1,10 C1,5.02943725 5.02943725,1 10,1 Z" id="Oval-Copy-2" fill="#24231F" fill-rule="nonzero"></path>
        </g>
        <g id="Group-4" transform="translate(123.000000, 119.000000)">
            <circle id="fill" fill="#EABDBF" cx="10" cy="10" r="10"></circle>
            <path d="M10,-1 C3.92486775,-1 -1,3.92486775 -1,10 C-1,16.0751322 3.92486775,21 10,21 C16.0751322,21 21,16.0751322 21,10 C21,3.92486775 16.0751322,-1 10,-1 Z M10,1 C14.9705627,1 19,5.02943725 19,10 C19,14.9705627 14.9705627,19 10,19 C5.02943725,19 1,14.9705627 1,10 C1,5.02943725 5.02943725,1 10,1 Z" id="Oval-Copy-3" fill="#24231F" fill-rule="nonzero"></path>
        </g>
        <g id="Group-5" transform="translate(104.000000, 10.000000)">
            <rect id="fill" fill="#EABDBF" x="0" y="0" width="18" height="18" rx="2.5"></rect>
            <path d="M15.5,-1 L2.5,-1 C0.567003376,-1 -1,0.567003376 -1,2.5 L-1,15.5 C-1,17.4329966 0.567003376,19 2.5,19 L15.5,19 C17.4329966,19 19,17.4329966 19,15.5 L19,2.5 C19,0.567003376 17.4329966,-1 15.5,-1 Z M2.5,1 L15.5,1 C16.3284271,1 17,1.67157288 17,2.5 L17,15.5 C17,16.3284271 16.3284271,17 15.5,17 L2.5,17 C1.67157288,17 1,16.3284271 1,15.5 L1,2.5 C1,1.67157288 1.67157288,1 2.5,1 Z" id="Rectangle" fill="#24231F" fill-rule="nonzero"></path>
        </g>
        <g id="Group-2" transform="translate(10.000000, 86.000000)">
            <rect id="fill" fill="#EABDBF" x="0" y="0" width="18" height="18" rx="2.5"></rect>
            <path d="M15.5,-1 L2.5,-1 C0.567003376,-1 -1,0.567003376 -1,2.5 L-1,15.5 C-1,17.4329966 0.567003376,19 2.5,19 L15.5,19 C17.4329966,19 19,17.4329966 19,15.5 L19,2.5 C19,0.567003376 17.4329966,-1 15.5,-1 Z M2.5,1 L15.5,1 C16.3284271,1 17,1.67157288 17,2.5 L17,15.5 C17,16.3284271 16.3284271,17 15.5,17 L2.5,17 C1.67157288,17 1,16.3284271 1,15.5 L1,2.5 C1,1.67157288 1.67157288,1 2.5,1 Z" id="Rectangle-Copy" fill="#24231F" fill-rule="nonzero"></path>
        </g>
        <g id="Group-3" transform="translate(47.000000, 144.000000)">
            <rect id="fill" fill="#EABDBF" x="0" y="0" width="18" height="18" rx="2.5"></rect>
            <path d="M15.5,0 L2.5,0 C0.567003376,0 -1,1.56700338 -1,3.5 L-1,16.5 C-1,18.4329966 0.567003376,20 2.5,20 L15.5,20 C17.4329966,20 19,18.4329966 19,16.5 L19,3.5 C19,1.56700338 17.4329966,0 15.5,0 Z M2.5,2 L15.5,2 C16.3284271,2 17,2.67157288 17,3.5 L17,16.5 C17,17.3284271 16.3284271,18 15.5,18 L2.5,18 C1.67157288,18 1,17.3284271 1,16.5 L1,3.5 C1,2.67157288 1.67157288,2 2.5,2 Z" id="Rectangle-Copy-2" fill="#24231F" fill-rule="nonzero"></path>
        </g>
        <path d="M118.562779,14.1809337 C119.015184,14.4977112 119.125132,15.121257 118.808355,15.5736622 L113.114795,23.7069182 C113.07102,23.7847743 113.016005,23.8580159 112.949747,23.9242731 C112.559223,24.3147974 111.926058,24.3147974 111.535534,23.9242731 L107.292893,19.6816324 C106.902369,19.2911081 106.902369,18.6579431 107.292893,18.2674188 C107.683418,17.8768945 108.316582,17.8768945 108.707107,18.2674188 L112.102,21.663 L117.17005,14.4265093 C117.486828,13.9741041 118.110374,13.8641562 118.562779,14.1809337 Z" id="Combined-Shape" fill="#24231F"></path>
        <path d="M24.562779,90.1809337 C25.0151841,90.4977112 25.1251321,91.121257 24.8083546,91.5736622 L19.114795,99.7069182 C19.0710205,99.7847743 19.0160046,99.8580159 18.9497475,99.9242731 C18.5592232,100.314797 17.9260582,100.314797 17.5355339,99.9242731 L13.2928932,95.6816324 C12.9023689,95.2911081 12.9023689,94.6579431 13.2928932,94.2674188 C13.6834175,93.8768945 14.3165825,93.8768945 14.7071068,94.2674188 L18.102,97.663 L23.1700505,90.4265093 C23.486828,89.9741041 24.1103738,89.8641562 24.562779,90.1809337 Z" id="Combined-Shape-Copy" fill="#24231F"></path>
        <path d="M61.562779,149.180934 C62.0151841,149.497711 62.1251321,150.121257 61.8083546,150.573662 L56.114795,158.706918 C56.0710205,158.784774 56.0160046,158.858016 55.9497475,158.924273 C55.5592232,159.314797 54.9260582,159.314797 54.5355339,158.924273 L50.2928932,154.681632 C49.9023689,154.291108 49.9023689,153.657943 50.2928932,153.267419 C50.6834175,152.876895 51.3165825,152.876895 51.7071068,153.267419 L55.102,156.663 L60.1700505,149.426509 C60.486828,148.974104 61.1103738,148.864156 61.562779,149.180934 Z" id="Combined-Shape-Copy-2" fill="#24231F"></path>
        <path d="M103.810514,18.0181166 C104.352793,17.9134663 104.877233,18.2682345 104.981883,18.8105137 C105.079059,19.3140587 104.780103,19.802222 104.30272,19.9531794 L104.189486,19.9818834 L47.1894863,30.9818834 C46.6472071,31.0865337 46.122767,30.7317655 46.0181166,30.1894863 C45.9209413,29.6859413 46.2198973,29.197778 46.6972802,29.0468206 L46.8105137,29.0181166 L103.810514,18.0181166 Z" id="Line-4" fill="#24231F" fill-rule="nonzero"></path>
        <path d="M42.2786127,40.3074682 C42.6316663,39.939704 43.1982135,39.9004065 43.5966467,40.1973636 L43.6925318,40.2786127 L68.6925318,64.2786127 C69.090943,64.6610874 69.1038621,65.2941206 68.7213873,65.6925318 C68.3683337,66.060296 67.8017865,66.0995935 67.4033533,65.8026364 L67.3074682,65.7213873 L42.3074682,41.7213873 C41.909057,41.3389126 41.8961379,40.7058794 42.2786127,40.3074682 Z" id="Line-4-Copy-6" fill="#24231F" fill-rule="nonzero"></path>
        <path d="M46.0332948,35.7441074 C46.1645256,35.2483464 46.6458712,34.9385326 47.1414327,35.009956 L47.2558926,35.0332948 L81.2558926,44.0332948 C81.7897891,44.1746203 82.1080308,44.721996 81.9667052,45.2558926 C81.8354744,45.7516536 81.3541288,46.0614674 80.8585673,45.990044 L80.7441074,45.9667052 L46.7441074,36.9667052 C46.2102109,36.8253797 45.8919692,36.278004 46.0332948,35.7441074 Z" id="Line-4-Copy-10" fill="#24231F" fill-rule="nonzero"></path>
        <path d="M38.835601,42.0136061 C39.3414592,41.9292964 39.8218442,42.2405973 39.9605853,42.7216727 L39.9863939,42.835601 L56.9863939,144.835601 C57.077189,145.380371 56.7091693,145.895599 56.164399,145.986394 C55.6585408,146.070704 55.1781558,145.759403 55.0394147,145.278327 L55.0136061,145.164399 L38.0136061,43.164399 C37.922811,42.6196287 38.2908307,42.1044011 38.835601,42.0136061 Z" id="Line-4-Copy-12" fill="#24231F" fill-rule="nonzero"></path>
        <path d="M98.0321775,48.7483661 C98.1612244,48.2520321 98.6412011,47.940102 99.1370724,48.0093429 L99.2516339,48.0321775 L149.251634,61.0321775 C149.786147,61.171151 150.106796,61.7171202 149.967823,62.2516339 C149.838776,62.7479679 149.358799,63.059898 148.862928,62.9906571 L148.748366,62.9678225 L98.7483661,49.9678225 C98.2138525,49.828849 97.893204,49.2828798 98.0321775,48.7483661 Z" id="Line-4-Copy-11" fill="#24231F" fill-rule="nonzero"></path>
        <path d="M56.8971008,91.0053082 C57.446454,90.9484786 57.9378622,91.3477477 57.9946918,91.8971008 C58.0474622,92.4072144 57.7069637,92.8673654 57.2182089,92.9759996 L57.1028992,92.9946918 L28.1028992,95.9946918 C27.553546,96.0515214 27.0621378,95.6522523 27.0053082,95.1028992 C26.9525378,94.5927856 27.2930363,94.1326346 27.7817911,94.0240004 L27.8971008,94.0053082 L56.8971008,91.0053082 Z" id="Line-4-Copy-8" fill="#24231F" fill-rule="nonzero"></path>
        <path d="M144.648877,72.0636708 C145.165997,71.8697507 145.742409,72.1317562 145.936329,72.6488766 C146.116398,73.1290597 145.903347,73.660367 145.457957,73.8890814 L145.351123,73.9363292 L121.351123,82.9363292 C120.834003,83.1302493 120.257591,82.8682438 120.063671,82.3511234 C119.883602,81.8709403 120.096653,81.339633 120.542043,81.1109186 L120.648877,81.0636708 L144.648877,72.0636708 Z" id="Line-4-Copy-9" fill="#24231F" fill-rule="nonzero"></path>
        <path d="M114.26006,110.327327 C114.602989,109.950105 115.168259,109.895426 115.574615,110.181446 L115.672673,110.26006 L126.672673,120.26006 C127.08133,120.631567 127.111447,121.264015 126.73994,121.672673 C126.397011,122.049895 125.831741,122.104574 125.425385,121.818554 L125.327327,121.73994 L114.327327,111.73994 C113.91867,111.368433 113.888553,110.735985 114.26006,110.327327 Z" id="Line-4-Copy-6" fill="#24231F" fill-rule="nonzero"></path>
        <path d="M117.816364,27.0170057 C118.320478,26.9228305 118.806853,27.224688 118.954965,27.7029613 L118.982994,27.8163637 L135.982994,118.816364 C136.084414,119.359256 135.726529,119.881575 135.183636,119.982994 C134.679522,120.07717 134.193147,119.775312 134.045035,119.297039 L134.017006,119.183636 L117.017006,28.1836363 C116.915586,27.6407436 117.273471,27.1184253 117.816364,27.0170057 Z" id="Line-4-Copy-13" fill="#24231F" fill-rule="nonzero"></path>
        <path d="M112.071523,27.6286093 C112.276637,27.1158258 112.858607,26.8664099 113.371391,27.0715233 C113.847547,27.2619858 114.096616,27.7773913 113.965542,28.2606121 L113.928477,28.3713907 L101.928477,58.3713907 C101.723363,58.8841742 101.141393,59.1335901 100.628609,58.9284767 C100.152453,58.7380142 99.9033845,58.2226087 100.034458,57.7393879 L100.071523,57.6286093 L112.071523,27.6286093 Z" id="Line-4-Copy-7" fill="#24231F" fill-rule="nonzero"></path>
        <path d="M73.0920406,118.580942 C73.3234801,118.07949 73.9176061,117.860601 74.4190582,118.092041 C74.8846923,118.306949 75.1066874,118.834581 74.9507219,119.310352 L74.9079594,119.419058 L62.9079594,145.419058 C62.6765199,145.92051 62.0823939,146.139399 61.5809418,145.907959 C61.1153077,145.693051 60.8933126,145.165419 61.0492781,144.689648 L61.0920406,144.580942 L73.0920406,118.580942 Z" id="Line-4-Copy-7" fill="#24231F" fill-rule="nonzero"></path>
        <path d="M121.418762,17.1862665 C121.833604,16.8899505 122.397676,16.9558505 122.734484,17.3212175 L122.813733,17.4187618 L152.813733,59.4187618 C153.134742,59.8681744 153.030651,60.4927245 152.581238,60.8137335 C152.166396,61.1100495 151.602324,61.0441495 151.265516,60.6787825 L151.186267,60.5812382 L121.186267,18.5812382 C120.865258,18.1318256 120.969349,17.5072755 121.418762,17.1862665 Z" id="Line-4-Copy" fill="#24231F" fill-rule="nonzero"></path>
        <path d="M155.088078,79.5896353 C155.314717,79.085995 155.906724,78.8614403 156.410365,79.0880785 C156.878031,79.2985282 157.105057,79.8240159 156.953644,80.3012545 L156.911922,80.4103647 L138.911922,120.410365 C138.685283,120.914005 138.093276,121.13856 137.589635,120.911922 C137.121969,120.701472 136.894943,120.175984 137.046356,119.698745 L137.088078,119.589635 L155.088078,79.5896353 Z" id="Line-4-Copy-2" fill="#24231F" fill-rule="nonzero"></path>
        <path d="M122.645346,132.065002 C123.161731,131.869132 123.739127,132.128961 123.934998,132.645346 C124.116877,133.124846 123.905832,133.656953 123.461309,133.887347 L123.354654,133.934998 L65.3546542,155.934998 C64.8382694,156.130868 64.2608726,155.871039 64.0650025,155.354654 C63.8831231,154.875154 64.0941675,154.343047 64.5386913,154.112653 L64.6453458,154.065002 L122.645346,132.065002 Z" id="Line-4-Copy-3" fill="#24231F" fill-rule="nonzero"></path>
        <path d="M18.4225353,103.183584 C18.838745,102.889192 19.4025059,102.957703 19.7376187,103.324625 L19.8164156,103.422535 L48.8164156,144.422535 C49.1353406,144.873429 49.0283586,145.497491 48.5774647,145.816416 C48.161255,146.110808 47.5974941,146.042297 47.2623813,145.675375 L47.1835844,145.577465 L18.1835844,104.577465 C17.8646594,104.126571 17.9716414,103.502509 18.4225353,103.183584 Z" id="Line-4-Copy-4" fill="#24231F" fill-rule="nonzero"></path>
        <path d="M30.0392858,40.7224603 C30.1925667,40.1918726 30.7469519,39.8860049 31.2775397,40.0392858 C31.7702283,40.1816181 32.0691532,40.6698004 31.9866177,41.1636329 L31.9607142,41.2775397 L18.9607142,86.2775397 C18.8074333,86.8081274 18.2530481,87.1139951 17.7224603,86.9607142 C17.2297717,86.8183819 16.9308468,86.3301996 17.0133823,85.8363671 L17.0392858,85.7224603 L30.0392858,40.7224603 Z" id="Line-4-Copy-5" fill="#24231F" fill-rule="nonzero"></path>
        <path d="M115.199418,149.263992 C115.560065,148.912003 116.14479,148.912003 116.505437,149.263992 L116.505437,149.263992 L121.729515,154.362666 C122.090162,154.714656 122.090162,155.285344 121.729515,155.637334 L121.729515,155.637334 L116.505437,160.736008 C116.14479,161.087997 115.560065,161.087997 115.199418,160.736008 C114.83877,160.384018 114.83877,159.813329 115.199418,159.461339 L115.199418,159.461339 L119.770485,155 L115.199418,150.538661 C114.83877,150.186671 114.83877,149.615982 115.199418,149.263992 Z M106.734952,149.263992 C107.095599,148.912003 107.680324,148.912003 108.040971,149.263992 L108.040971,149.263992 L113.265048,154.362666 C113.625696,154.714656 113.625696,155.285344 113.265048,155.637334 L113.265048,155.637334 L108.040971,160.736008 C107.680324,161.087997 107.095599,161.087997 106.734952,160.736008 C106.374304,160.384018 106.374304,159.813329 106.734952,159.461339 L106.734952,159.461339 L111.306019,155 L106.734952,150.538661 C106.374304,150.186671 106.374304,149.615982 106.734952,149.263992 Z M98.2704855,149.263992 C98.6311328,148.912003 99.2158576,148.912003 99.5765048,149.263992 L99.5765048,149.263992 L104.800582,154.362666 C105.16123,154.714656 105.16123,155.285344 104.800582,155.637334 L104.800582,155.637334 L99.5765048,160.736008 C99.2158576,161.087997 98.6311328,161.087997 98.2704855,160.736008 C97.9098382,160.384018 97.9098382,159.813329 98.2704855,159.461339 L98.2704855,159.461339 L102.841553,155 L98.2704855,150.538661 C97.9098382,150.186671 97.9098382,149.615982 98.2704855,149.263992 Z" id="Combined-Shape-Copy-4" fill="#24231F"></path>
        <path d="M67.1994177,8.26399246 C67.5600649,7.91200251 68.1447897,7.91200251 68.505437,8.26399246 L68.505437,8.26399246 L73.7295145,13.3626658 C74.0901618,13.7146558 74.0901618,14.2853442 73.7295145,14.6373342 L73.7295145,14.6373342 L68.505437,19.7360075 C68.1447897,20.0879975 67.5600649,20.0879975 67.1994177,19.7360075 C66.8387704,19.3840176 66.8387704,18.8133291 67.1994177,18.4613392 L67.1994177,18.4613392 L71.7704855,14 L67.1994177,9.5386608 C66.8387704,9.18667086 66.8387704,8.6159824 67.1994177,8.26399246 Z M58.7349516,8.26399246 C59.0955989,7.91200251 59.6803236,7.91200251 60.0409709,8.26399246 L60.0409709,8.26399246 L65.2650484,13.3626658 C65.6256957,13.7146558 65.6256957,14.2853442 65.2650484,14.6373342 L65.2650484,14.6373342 L60.0409709,19.7360075 C59.6803236,20.0879975 59.0955989,20.0879975 58.7349516,19.7360075 C58.3743043,19.3840176 58.3743043,18.8133291 58.7349516,18.4613392 L58.7349516,18.4613392 L63.3060194,14 L58.7349516,9.5386608 C58.3743043,9.18667086 58.3743043,8.6159824 58.7349516,8.26399246 Z M50.2704855,8.26399246 C50.6311328,7.91200251 51.2158576,7.91200251 51.5765048,8.26399246 L51.5765048,8.26399246 L56.8005823,13.3626658 C57.1612296,13.7146558 57.1612296,14.2853442 56.8005823,14.6373342 L56.8005823,14.6373342 L51.5765048,19.7360075 C51.2158576,20.0879975 50.6311328,20.0879975 50.2704855,19.7360075 C49.9098382,19.3840176 49.9098382,18.8133291 50.2704855,18.4613392 L50.2704855,18.4613392 L54.8415533,14 L50.2704855,9.5386608 C49.9098382,9.18667086 49.9098382,8.6159824 50.2704855,8.26399246 Z" id="Combined-Shape-Copy-5" fill="#24231F"></path>
        <path d="M166.199418,104.263992 C166.560065,103.912003 167.14479,103.912003 167.505437,104.263992 L167.505437,104.263992 L172.729515,109.362666 C173.090162,109.714656 173.090162,110.285344 172.729515,110.637334 L172.729515,110.637334 L167.505437,115.736008 C167.14479,116.087997 166.560065,116.087997 166.199418,115.736008 C165.83877,115.384018 165.83877,114.813329 166.199418,114.461339 L166.199418,114.461339 L170.770485,110 L166.199418,105.538661 C165.83877,105.186671 165.83877,104.615982 166.199418,104.263992 Z M157.734952,104.263992 C158.095599,103.912003 158.680324,103.912003 159.040971,104.263992 L159.040971,104.263992 L164.265048,109.362666 C164.625696,109.714656 164.625696,110.285344 164.265048,110.637334 L164.265048,110.637334 L159.040971,115.736008 C158.680324,116.087997 158.095599,116.087997 157.734952,115.736008 C157.374304,115.384018 157.374304,114.813329 157.734952,114.461339 L157.734952,114.461339 L162.306019,110 L157.734952,105.538661 C157.374304,105.186671 157.374304,104.615982 157.734952,104.263992 Z M149.270485,104.263992 C149.631133,103.912003 150.215858,103.912003 150.576505,104.263992 L150.576505,104.263992 L155.800582,109.362666 C156.16123,109.714656 156.16123,110.285344 155.800582,110.637334 L155.800582,110.637334 L150.576505,115.736008 C150.215858,116.087997 149.631133,116.087997 149.270485,115.736008 C148.909838,115.384018 148.909838,114.813329 149.270485,114.461339 L149.270485,114.461339 L153.841553,110 L149.270485,105.538661 C148.909838,105.186671 148.909838,104.615982 149.270485,104.263992 Z" id="Combined-Shape-Copy-6" fill="#24231F"></path>
        <rect id="Rectangle-Copy-28" fill="#EABDBF" x="17" y="142" width="5" height="5"></rect>
        <rect id="Rectangle-Copy-29" fill="#EABDBF" x="32" y="71" width="5" height="5"></rect>
        <rect id="Rectangle-Copy-30" fill="#EABDBF" x="88" y="29" width="5" height="5"></rect>
        <rect id="Rectangle-Copy-31" fill="#EABDBF" x="149" y="25" width="5" height="5"></rect>
        <rect id="Rectangle-Copy-32" fill="#EABDBF" x="138" y="86" width="5" height="5"></rect>
        <rect id="Rectangle-Copy-33" fill="#EABDBF" x="82" y="136" width="5" height="5"></rect>
        <rect id="Rectangle-Copy-34" fill="#EABDBF" x="150" y="123" width="5" height="5"></rect>
        <rect id="Rectangle-Copy-35" fill="#EABDBF" x="42" y="117" width="5" height="5"></rect>
        <rect id="Rectangle-Copy-36" fill="#EABDBF" x="14" y="43" width="5" height="5"></rect>
        <rect id="Rectangle-Copy-37" fill="#EABDBF" x="77" y="8" width="5" height="5"></rect>
        <rect id="Rectangle-Copy-38" fill="#EABDBF" x="124" y="145" width="5" height="5"></rect>
    </g>
</svg>