<?xml version="1.0" encoding="UTF-8"?>
<svg width="180px" height="180px" viewBox="0 0 180 180" version="1.1" xmlns="http://www.w3.org/2000/svg" xmlns:xlink="http://www.w3.org/1999/xlink">
    <!-- Generator: Sketch 63.1 (92452) - https://sketch.com -->
    <title>img/IntelligenceCorelation </title>
    <desc>Created with Sketch.</desc>
    <g id="img/IntelligenceCorelation-" stroke="none" stroke-width="1" fill="none" fill-rule="evenodd">
        <circle id="Oval" fill="#E2E3E6" cx="90" cy="90" r="80"></circle>
        <polygon id="fill" fill="#D40B26" points="61 55 141 55 141 129 121.001953 149 61 149"></polygon>
        <path d="M130,41 C131.054362,41 131.918165,41.8158778 131.994514,42.8507377 L132,43 L132,117 C132,117.471466 131.833531,117.92577 131.533142,118.284327 L131.414283,118.414145 L111.416236,138.414145 C111.082833,138.74758 110.643823,138.951139 110.177817,138.992258 L110.001953,139 L50,139 C48.9456382,139 48.0818349,138.184122 48.0054857,137.149262 L48,137 L48,43 C48,41.9456382 48.8158778,41.0818349 49.8507377,41.0054857 L50,41 L130,41 Z M128,45 L52,45 L52,135 L107.001,135 L107,116.201209 C107,115.146774 107.815798,114.282857 108.850727,114.206498 L109,114.201012 L128,114.201 L128,45 Z M125.969,118.201 L110.999,118.201 L111.001,133.171 L125.969,118.201 Z M118.88,75.12 C121.67,75.12 122.96,76.17 122.96,79.71 C122.96,82.14 122.66,83.76 122.66,86.01 C122.66,87.1975862 123.247301,88.4411058 125.31298,88.552456 L125.54,88.56 L125.54,90.66 C123.29,90.69 122.66,91.98 122.66,93.27 C122.66,95.49 122.96,97.11 122.96,99.54 C122.96,102.9915 121.733694,104.075944 119.086441,104.128009 L118.88,104.13 L117.2,104.13 L117.2,102.21 L117.98,102.21 C119.69,102.21 120.14,101.46 120.14,99.36 C120.14,97.41 119.99,95.67 119.99,93.45 C119.99,91.2544444 120.546379,90.1716461 121.980599,89.7461988 L122.15,89.7 L122.15,89.55 C120.59,89.16 119.99,88.11 119.99,85.8 C119.99,83.58 120.14,81.84 120.14,79.89 C120.14,77.8624138 119.720499,77.0653627 118.152435,77.0128045 L117.98,77.01 L117.2,77.01 L117.2,75.12 L118.88,75.12 Z M62.45,75.12 L62.45,77.01 L61.67,77.01 C59.96,77.01 59.51,77.79 59.51,79.89 C59.51,81.84 59.69,83.58 59.69,85.8 C59.69,88.0275 59.1041964,89.0833929 57.6635978,89.5056614 L57.5,89.55 L57.5,89.7 C59.06,90.09 59.69,91.17 59.69,93.45 C59.69,95.67 59.51,97.41 59.51,99.36 C59.51,101.387586 59.9295006,102.156671 61.4975649,102.2073 L61.67,102.21 L62.45,102.21 L62.45,104.13 L60.77,104.13 C57.98,104.13 56.72,103.08 56.72,99.54 C56.72,97.11 57.02,95.49 57.02,93.27 C57.02,92.0244828 56.4326992,90.7789655 54.340018,90.6675464 L54.11,90.66 L54.11,88.56 C56.39,88.53 57.02,87.24 57.02,86.01 C57.02,83.76 56.72,82.14 56.72,79.71 C56.72,76.2585 57.9177875,75.1740563 60.5636145,75.1219913 L60.77,75.12 L62.45,75.12 Z M68.6796537,83 L69.8803828,86.1682028 C70.1902483,87.0284178 70.4877193,87.8394777 70.8025427,88.6996928 L71.0423787,89.3556068 L71.1198451,89.3556068 C71.424869,88.5203533 71.7189992,87.749904 72.0185763,86.9632536 L72.3205742,86.1682028 L73.5213033,83 L77.1428571,83 L72.7853725,92.2357911 L72.7853725,97.2857143 L69.338118,97.2857143 L69.338118,92.2357911 L65,83 L68.6796537,83 Z M84.1779374,83 L88.5714286,97.2857143 L84.9957735,97.2857143 L84.1779374,94.0023041 L79.9936602,94.0023041 L79.1758242,97.2857143 L75.7142857,97.2857143 L80.1077768,83 L84.1779374,83 Z M95.89701,83 C98.9155197,83 101.421452,84.0368664 101.421452,87.4930876 C101.421452,89.4988159 100.532254,90.8168003 99.1715762,91.5315391 L98.991457,91.6213518 L102.142857,97.2857143 L98.3459896,97.2857143 L95.7451353,92.2549923 L94.1124822,92.2549923 L94.1124822,97.2857143 L90.7142857,97.2857143 L90.7142857,83 L95.89701,83 Z M110.606509,83 L115,97.2857143 L111.424345,97.2857143 L110.606509,94.0023041 L106.422232,94.0023041 L105.604396,97.2857143 L102.142857,97.2857143 L106.536348,83 L110.606509,83 Z M82.1616541,85.8571429 L82.0864662,85.8571429 C81.8045113,87.0870388 81.4964495,88.4351939 81.1949144,89.6607099 L81.0150376,90.3793756 L80.7142857,91.5714286 L83.5714286,91.5714286 L83.2706767,90.3793756 C82.8947368,88.9791864 82.537594,87.295175 82.1616541,85.8571429 Z M108.590226,85.8571429 L108.515038,85.8571429 C108.233083,87.0870388 107.925021,88.4351939 107.623486,89.6607099 L107.443609,90.3793756 L107.142857,91.5714286 L110,91.5714286 L109.699248,90.3793756 C109.323308,88.9791864 108.966165,87.295175 108.590226,85.8571429 Z M95.2040816,85.8571429 L93.5714286,85.8571429 L93.5714286,89.4285714 L95.2040816,89.4285714 C96.9387755,89.4285714 97.8571429,88.7678571 97.8571429,87.5178571 C97.8571429,86.2678571 96.9387755,85.8571429 95.2040816,85.8571429 Z" id="Combined-Shape" fill="#24231F" fill-rule="nonzero"></path>
        <polygon id="Triangle-Copy-8" fill="#EABDBF" transform="translate(29.000000, 55.000000) rotate(-270.000000) translate(-29.000000, -55.000000) " points="29 51 34 59 24 59"></polygon>
        <polygon id="Triangle-Copy-9" fill="#EABDBF" transform="translate(129.000000, 19.000000) rotate(-270.000000) translate(-129.000000, -19.000000) " points="129 15 134 23 124 23"></polygon>
        <polygon id="Triangle-Copy-13" fill="#EABDBF" transform="translate(41.000000, 29.000000) rotate(-270.000000) translate(-41.000000, -29.000000) " points="41 25 46 33 36 33"></polygon>
        <polygon id="Triangle-Copy-14" fill="#EABDBF" transform="translate(121.000000, 164.000000) rotate(-270.000000) translate(-121.000000, -164.000000) " points="121 160 126 168 116 168"></polygon>
        <polygon id="Triangle-Copy-10" fill="#EABDBF" transform="translate(14.000000, 117.000000) rotate(-270.000000) translate(-14.000000, -117.000000) " points="14 113 19 121 9 121"></polygon>
        <polygon id="Triangle-Copy-15" fill="#EABDBF" transform="translate(161.000000, 77.000000) rotate(-270.000000) translate(-161.000000, -77.000000) " points="161 73 166 81 156 81"></polygon>
        <polygon id="Triangle-Copy-11" fill="#EABDBF" transform="translate(37.000000, 135.000000) rotate(-270.000000) translate(-37.000000, -135.000000) " points="37 131 42 139 32 139"></polygon>
        <polygon id="Triangle-Copy-12" fill="#EABDBF" transform="translate(150.000000, 104.000000) rotate(-270.000000) translate(-150.000000, -104.000000) " points="150 100 155 108 145 108"></polygon>
        <path d="M34.1994177,90.2639925 C34.5600649,89.9120025 35.1447897,89.9120025 35.505437,90.2639925 L35.505437,90.2639925 L40.7295145,95.3626658 C41.0901618,95.7146558 41.0901618,96.2853442 40.7295145,96.6373342 L40.7295145,96.6373342 L35.505437,101.736008 C35.1447897,102.087997 34.5600649,102.087997 34.1994177,101.736008 C33.8387704,101.384018 33.8387704,100.813329 34.1994177,100.461339 L34.1994177,100.461339 L38.7704855,96 L34.1994177,91.5386608 C33.8387704,91.1866709 33.8387704,90.6159824 34.1994177,90.2639925 Z M25.7349516,90.2639925 C26.0955989,89.9120025 26.6803236,89.9120025 27.0409709,90.2639925 L27.0409709,90.2639925 L32.2650484,95.3626658 C32.6256957,95.7146558 32.6256957,96.2853442 32.2650484,96.6373342 L32.2650484,96.6373342 L27.0409709,101.736008 C26.6803236,102.087997 26.0955989,102.087997 25.7349516,101.736008 C25.3743043,101.384018 25.3743043,100.813329 25.7349516,100.461339 L25.7349516,100.461339 L30.3060194,96 L25.7349516,91.5386608 C25.3743043,91.1866709 25.3743043,90.6159824 25.7349516,90.2639925 Z M17.2704855,90.2639925 C17.6311328,89.9120025 18.2158576,89.9120025 18.5765048,90.2639925 L18.5765048,90.2639925 L23.8005823,95.3626658 C24.1612296,95.7146558 24.1612296,96.2853442 23.8005823,96.6373342 L23.8005823,96.6373342 L18.5765048,101.736008 C18.2158576,102.087997 17.6311328,102.087997 17.2704855,101.736008 C16.9098382,101.384018 16.9098382,100.813329 17.2704855,100.461339 L17.2704855,100.461339 L21.8415533,96 L17.2704855,91.5386608 C16.9098382,91.1866709 16.9098382,90.6159824 17.2704855,90.2639925 Z" id="Combined-Shape-Copy-2" fill="#24231F"></path>
        <path d="M83.1994177,26.2639925 C83.5600649,25.9120025 84.1447897,25.9120025 84.505437,26.2639925 L84.505437,26.2639925 L89.7295145,31.3626658 C90.0901618,31.7146558 90.0901618,32.2853442 89.7295145,32.6373342 L89.7295145,32.6373342 L84.505437,37.7360075 C84.1447897,38.0879975 83.5600649,38.0879975 83.1994177,37.7360075 C82.8387704,37.3840176 82.8387704,36.8133291 83.1994177,36.4613392 L83.1994177,36.4613392 L87.7704855,32 L83.1994177,27.5386608 C82.8387704,27.1866709 82.8387704,26.6159824 83.1994177,26.2639925 Z M74.7349516,26.2639925 C75.0955989,25.9120025 75.6803236,25.9120025 76.0409709,26.2639925 L76.0409709,26.2639925 L81.2650484,31.3626658 C81.6256957,31.7146558 81.6256957,32.2853442 81.2650484,32.6373342 L81.2650484,32.6373342 L76.0409709,37.7360075 C75.6803236,38.0879975 75.0955989,38.0879975 74.7349516,37.7360075 C74.3743043,37.3840176 74.3743043,36.8133291 74.7349516,36.4613392 L74.7349516,36.4613392 L79.3060194,32 L74.7349516,27.5386608 C74.3743043,27.1866709 74.3743043,26.6159824 74.7349516,26.2639925 Z M66.2704855,26.2639925 C66.6311328,25.9120025 67.2158576,25.9120025 67.5765048,26.2639925 L67.5765048,26.2639925 L72.8005823,31.3626658 C73.1612296,31.7146558 73.1612296,32.2853442 72.8005823,32.6373342 L72.8005823,32.6373342 L67.5765048,37.7360075 C67.2158576,38.0879975 66.6311328,38.0879975 66.2704855,37.7360075 C65.9098382,37.3840176 65.9098382,36.8133291 66.2704855,36.4613392 L66.2704855,36.4613392 L70.8415533,32 L66.2704855,27.5386608 C65.9098382,27.1866709 65.9098382,26.6159824 66.2704855,26.2639925 Z" id="Combined-Shape-Copy-3" fill="#24231F"></path>
        <path d="M146.199418,137.263992 C146.560065,136.912003 147.14479,136.912003 147.505437,137.263992 L147.505437,137.263992 L152.729515,142.362666 C153.090162,142.714656 153.090162,143.285344 152.729515,143.637334 L152.729515,143.637334 L147.505437,148.736008 C147.14479,149.087997 146.560065,149.087997 146.199418,148.736008 C145.83877,148.384018 145.83877,147.813329 146.199418,147.461339 L146.199418,147.461339 L150.770485,143 L146.199418,138.538661 C145.83877,138.186671 145.83877,137.615982 146.199418,137.263992 Z M137.734952,137.263992 C138.095599,136.912003 138.680324,136.912003 139.040971,137.263992 L139.040971,137.263992 L144.265048,142.362666 C144.625696,142.714656 144.625696,143.285344 144.265048,143.637334 L144.265048,143.637334 L139.040971,148.736008 C138.680324,149.087997 138.095599,149.087997 137.734952,148.736008 C137.374304,148.384018 137.374304,147.813329 137.734952,147.461339 L137.734952,147.461339 L142.306019,143 L137.734952,138.538661 C137.374304,138.186671 137.374304,137.615982 137.734952,137.263992 Z M129.270485,137.263992 C129.631133,136.912003 130.215858,136.912003 130.576505,137.263992 L130.576505,137.263992 L135.800582,142.362666 C136.16123,142.714656 136.16123,143.285344 135.800582,143.637334 L135.800582,143.637334 L130.576505,148.736008 C130.215858,149.087997 129.631133,149.087997 129.270485,148.736008 C128.909838,148.384018 128.909838,147.813329 129.270485,147.461339 L129.270485,147.461339 L133.841553,143 L129.270485,138.538661 C128.909838,138.186671 128.909838,137.615982 129.270485,137.263992 Z" id="Combined-Shape-Copy-4" fill="#24231F"></path>
        <path d="M93.5,153.5 L86.5,153.5 C85.9477153,153.5 85.5,153.947715 85.5,154.5 C85.5,155.052285 85.9477153,155.5 86.5,155.5 L93.5,155.5 C94.0522847,155.5 94.5,155.052285 94.5,154.5 C94.5,153.947715 94.0522847,153.5 93.5,153.5 Z M79.5,153.5 L72.5,153.5 C71.9477153,153.5 71.5,153.947715 71.5,154.5 C71.5,155.052285 71.9477153,155.5 72.5,155.5 L79.5,155.5 C80.0522847,155.5 80.5,155.052285 80.5,154.5 C80.5,153.947715 80.0522847,153.5 79.5,153.5 Z M65.5,153.5 L58.5,153.5 C57.9477153,153.5 57.5,153.947715 57.5,154.5 C57.5,155.052285 57.9477153,155.5 58.5,155.5 L65.5,155.5 C66.0522847,155.5 66.5,155.052285 66.5,154.5 C66.5,153.947715 66.0522847,153.5 65.5,153.5 Z M51.5,153.5 L44.5,153.5 C43.9477153,153.5 43.5,153.947715 43.5,154.5 C43.5,155.052285 43.9477153,155.5 44.5,155.5 L51.5,155.5 C52.0522847,155.5 52.5,155.052285 52.5,154.5 C52.5,153.947715 52.0522847,153.5 51.5,153.5 Z M37.5,153.5 L30.5,153.5 C29.9477153,153.5 29.5,153.947715 29.5,154.5 C29.5,155.052285 29.9477153,155.5 30.5,155.5 L37.5,155.5 C38.0522847,155.5 38.5,155.052285 38.5,154.5 C38.5,153.947715 38.0522847,153.5 37.5,153.5 Z" id="Line" fill="#24231F" fill-rule="nonzero"></path>
        <path d="M50,76 L43,76 C42.4477153,76 42,76.4477153 42,77 C42,77.5522847 42.4477153,78 43,78 L50,78 C50.5522847,78 51,77.5522847 51,77 C51,76.4477153 50.5522847,76 50,76 Z M36,76 L29,76 C28.4477153,76 28,76.4477153 28,77 C28,77.5522847 28.4477153,78 29,78 L36,78 C36.5522847,78 37,77.5522847 37,77 C37,76.4477153 36.5522847,76 36,76 Z M22,76 L15,76 C14.4477153,76 14,76.4477153 14,77 C14,77.5522847 14.4477153,78 15,78 L22,78 C22.5522847,78 23,77.5522847 23,77 C23,76.4477153 22.5522847,76 22,76 Z" id="Line-Copy-2" fill="#24231F" fill-rule="nonzero"></path>
        <path d="M151,58 L144,58 C143.447715,58 143,58.4477153 143,59 C143,59.5522847 143.447715,60 144,60 L151,60 C151.552285,60 152,59.5522847 152,59 C152,58.4477153 151.552285,58 151,58 Z M137,58 L130,58 C129.447715,58 129,58.4477153 129,59 C129,59.5522847 129.447715,60 130,60 L137,60 C137.552285,60 138,59.5522847 138,59 C138,58.4477153 137.552285,58 137,58 Z" id="Line-Copy-3" fill="#24231F" fill-rule="nonzero"></path>
        <path d="M146,31 L139,31 C138.447715,31 138,31.4477153 138,32 C138,32.5522847 138.447715,33 139,33 L146,33 C146.552285,33 147,32.5522847 147,32 C147,31.4477153 146.552285,31 146,31 Z M132,31 L125,31 C124.447715,31 124,31.4477153 124,32 C124,32.5522847 124.447715,33 125,33 L132,33 C132.552285,33 133,32.5522847 133,32 C133,31.4477153 132.552285,31 132,31 Z M118,31 L111,31 C110.447715,31 110,31.4477153 110,32 C110,32.5522847 110.447715,33 111,33 L118,33 C118.552285,33 119,32.5522847 119,32 C119,31.4477153 118.552285,31 118,31 Z M104,31 L97,31 C96.4477153,31 96,31.4477153 96,32 C96,32.5522847 96.4477153,33 97,33 L104,33 C104.552285,33 105,32.5522847 105,32 C105,31.4477153 104.552285,31 104,31 Z" id="Line-Copy" fill="#24231F" fill-rule="nonzero"></path>
    </g>
</svg>