<svg xmlns="http://www.w3.org/2000/svg" xmlns:xlink="http://www.w3.org/1999/xlink" width="60" height="60" viewBox="0 0 60 60">
  <defs>
    <path id="travel-a" d="M44.8146643,1.90087354 C45.0551227,2.54231941 45.0618046,3.24451421 44.8335111,3.88145692 L43.0406443,8.88358551 C42.8514511,9.41143785 42.5496938,9.88954989 42.1562056,10.2849128 L34.2210141,18.2579117 L35.3475512,22.1527711 C36.3025241,21.5246849 37.5940707,21.611095 38.4859834,22.4049288 L38.6050616,22.517563 C39.589176,23.5063662 39.6388942,25.0729507 38.7434471,26.0856088 L38.6400629,26.1957893 L36.9964619,27.8472212 L37.8441074,30.7758321 C38.8446266,30.1000314 40.2267051,30.2186966 41.1272542,31.1235364 C42.1113686,32.1123395 42.1610868,33.678924 41.2656397,34.6915821 L41.1622555,34.8017626 L39.494813,36.4771496 L40.4626845,39.8228533 C40.5405998,40.092038 40.4851164,40.3776831 40.3182055,40.5921878 L40.2504337,40.6691213 L37.2343564,43.6995687 C37.1645766,43.7696809 37.0830049,43.8268856 36.9932579,43.8686464 C36.5946744,44.0541142 36.1214547,43.9027832 35.8901235,43.5317827 L35.8411774,43.4423211 L27.2113405,25.3009829 L25.20615,27.3157272 C23.0935035,29.4384394 20.8127414,31.3789627 18.3875834,33.1199364 L20.6281962,41.3970934 C20.7776218,41.9489993 20.6487089,42.531016 20.2898977,42.9569965 L20.1954333,43.0601331 L18.7588468,44.5035644 C18.6737257,44.589091 18.5796766,44.6651686 18.4782653,44.7305305 C17.719182,45.2197766 16.7091991,45.0230654 16.1619764,44.3005802 L16.0870268,44.1938086 L11.5947981,37.2772985 L11.4541919,37.3446065 C10.1574247,37.9190412 8.6045562,37.3745865 7.92532839,36.0794441 C7.50961241,35.2867625 7.50067553,34.3476014 7.90138014,33.562763 L7.92919465,33.5088222 L0.802368519,28.8363263 C-0.00276235258,28.3084085 -0.241921441,27.2327137 0.268191745,26.4336948 C0.333243676,26.3318003 0.408960475,26.2373031 0.494081582,26.1517764 L1.93066816,24.7083452 C2.36052537,24.2764399 2.99075907,24.1108715 3.58582193,24.2735204 L11.9032302,26.5469234 C11.9854463,26.5693955 12.0599008,26.592518 12.1271593,26.6166478 C13.8359764,24.2258292 15.7376551,21.9757577 17.8145786,19.8889385 L19.8197692,17.8741943 L1.76445579,9.20324045 C1.33133185,8.99522136 1.1413646,8.47695979 1.34015205,8.04567082 C1.38171485,7.95549621 1.43864826,7.87353586 1.50842803,7.80342363 L4.52450531,4.77297621 C4.74323287,4.55320651 5.06536361,4.47164179 5.3667603,4.55971406 L8.69659895,5.53219699 L10.3640414,3.85680998 C11.3652738,2.85080724 13.0042628,2.86655251 14.0248258,3.89197803 C14.9253749,4.7968178 15.0434774,6.18548126 14.3708813,7.19076745 L17.2856049,8.04245155 L18.9292059,6.39101961 C19.9304382,5.38501686 21.5694272,5.40076213 22.5899903,6.42618766 C23.4828725,7.32332402 23.6065742,8.69608099 22.9530524,9.69921854 L26.8294427,10.8311231 L34.7646342,2.8581242 C35.1581224,2.46276125 35.6339672,2.15956618 36.1593165,1.96947152 L41.1377254,0.1680626 C42.6099869,-0.36466683 44.2562085,0.411139055 44.8146643,1.90087354 Z M41.7497952,1.80081745 L36.7713863,3.60222638 C36.4795256,3.70783452 36.2151673,3.87627623 35.9965628,4.09592231 L19.0465072,21.1267366 C15.180025,25.0116407 11.9402835,29.4803959 9.44007154,34.3774261 C9.29410358,34.6633256 9.29735908,35.0054416 9.44879536,35.2941982 C9.70538726,35.7834641 10.3042379,35.9786396 10.7863658,35.7301347 C15.6601746,33.2180105 20.1077393,29.9628332 23.9742215,26.0779291 L40.924277,9.04711473 C41.1428816,8.82746865 41.3105245,8.56185085 41.4156319,8.26859955 L43.2084987,3.26647096 C43.2986047,3.01507365 43.2959674,2.73792176 43.2010599,2.48474709 C42.9806409,1.89675821 42.3308876,1.59055248 41.7497952,1.80081745 Z M11.0926277,28.1132792 L3.16259672,25.9461433 L1.72601015,27.3895745 L8.73833146,31.9873202 C9.47021501,30.6621911 10.2557207,29.369823 11.0926277,28.1132792 Z M16.8885515,34.1583533 C15.6622633,34.9776979 14.4019324,35.7475068 13.1104164,36.4656889 L17.5269182,43.2657663 L18.9635048,41.822335 L16.8885515,34.1583533 Z M17.907285,27.2225791 C18.2474727,27.5643876 18.2474727,28.1185687 17.907285,28.4603772 L13.0962417,33.2943428 C12.756054,33.6361513 12.2045008,33.6361513 11.8643131,33.2943428 C11.5241255,32.9525343 11.5241255,32.3983532 11.8643131,32.0565447 L16.6753564,27.2225791 C17.0155441,26.8807706 17.5670973,26.8807706 17.907285,27.2225791 Z M25.4440257,12.2231409 L5.40224085,6.3666549 L3.6001666,8.17731516 L21.1039032,16.5839419 L25.4440257,12.2231409 Z M32.8355971,19.6499295 L28.4954746,24.0107305 L36.8622378,41.597864 L38.6643121,39.7872037 L32.8355971,19.6499295 Z M33.3550947,23.6859213 L34.9766021,29.5718534 C35.0319113,29.7726208 34.9339274,29.9796436 34.7535916,30.0670793 L34.6745385,30.096082 C34.4443982,30.1559843 34.2089661,30.0193974 34.1455451,29.7891843 L32.5240377,23.9032521 C32.4687285,23.7024847 32.5667124,23.495462 32.7470482,23.4080263 L32.8261013,23.3790236 C33.0562416,23.3191213 33.2916737,23.4557081 33.3550947,23.6859213 Z M21.3883738,11.6621847 C21.5920373,11.7188276 21.7220753,11.9120279 21.7065865,12.116667 L21.6917602,12.2014407 L21.6917602,12.2014407 C21.6364511,12.4022081 21.4464663,12.529141 21.2470514,12.5109605 L21.1720735,12.4972013 L15.3140519,10.8679683 C15.1103884,10.8113254 14.9803504,10.618125 14.9958392,10.4134859 L15.0106655,10.3287122 L15.0106655,10.3287122 C15.0659746,10.1279448 15.2559594,10.0010119 15.4553743,10.0191925 L15.5303522,10.0329516 L21.3883738,11.6621847 Z M12.8162314,5.10633077 C12.4760438,4.76452226 11.9297141,4.75927384 11.59597,5.09460809 L10.6786915,6.01625689 L12.6156335,6.54568256 L12.8278985,6.3324062 C13.1616426,5.99707195 13.1564191,5.44813928 12.8162314,5.10633077 Z M39.9186598,32.3378891 C39.6027713,32.0204955 39.1091378,31.9932991 38.7730162,32.2595206 L38.6983984,32.3261664 L38.4861333,32.5394428 L39.0130485,34.4856133 L39.9303269,33.5639645 C40.264071,33.2286303 40.2588475,32.6796976 39.9186598,32.3378891 Z M21.3813959,7.6405404 C21.0412082,7.29873189 20.4948786,7.29348347 20.1611344,7.62881772 L19.243856,8.55046651 L21.180798,9.07989219 L21.393063,8.86661582 C21.7268071,8.53128157 21.7215836,7.98234891 21.3813959,7.6405404 Z M37.3964672,23.7319158 C37.0805787,23.4145222 36.5869452,23.3873258 36.2508236,23.6535473 L36.1762058,23.7201931 L35.9639407,23.9334695 L36.4908559,25.87964 L37.4081343,24.9579912 C37.7418784,24.6226569 37.7366549,24.0737243 37.3964672,23.7319158 Z M40.4387476,4.58376505 C41.0680338,5.21604954 41.129364,6.05066199 40.8367837,7.68227899 C40.7525761,8.15187483 40.3040601,8.45667577 39.8349952,8.36307093 C39.3659303,8.2694661 39.0539418,7.81290175 39.1381494,7.34330592 L39.1985772,6.98552958 C39.3191972,6.21787121 39.3017849,5.90871036 39.2432829,5.81499142 L39.2301532,5.79811779 C39.2103415,5.77821173 39.1938115,5.7713873 39.0560748,5.76181409 C38.7965883,5.74377881 38.3701623,5.782613 37.6747606,5.89354482 C37.2055655,5.96839173 36.7575349,5.64566683 36.6740564,5.17271858 C36.5905778,4.69977032 36.903263,4.25569459 37.3724582,4.18084767 C39.0936163,3.90628522 39.8143355,3.9563779 40.4387476,4.58376505 Z"/>
  </defs>
  <g fill="none" fill-rule="evenodd" transform="translate(7 7)">
    <mask id="travel-b" fill="#fff">
      <use xlink:href="#travel-a"/>
    </mask>
    <use fill="#353A3A" fill-rule="nonzero" xlink:href="#travel-a"/>
    <g mask="url(#travel-b)">
      <rect width="60" height="60" fill="#4C433F" transform="translate(-7 -7)"/>
    </g>
  </g>
</svg>
