<svg xmlns="http://www.w3.org/2000/svg" xmlns:xlink="http://www.w3.org/1999/xlink" width="60" height="60" viewBox="0 0 60 60">
  <defs>
    <path id="calender-a" d="M35.88,0 C36.388102,-9.33368177e-17 36.8,0.41189803 36.8,0.92 L36.8,3.692 L42.55,3.69230769 C44.4553824,3.69230769 46,5.24209125 46,7.15384615 L46,32.5384615 C46,34.4502164 44.4553824,36 42.55,36 L3.45,36 C1.54461761,36 0,34.4502164 0,32.5384615 L0,7.15384615 C0,5.24209125 1.54461761,3.69230769 3.45,3.69230769 L9.2,3.692 L9.2,0.92 C9.2,0.41189803 9.61189803,9.33368177e-17 10.12,0 C10.628102,-9.33368177e-17 11.04,0.41189803 11.04,0.92 L11.04,3.692 L34.96,3.692 L34.96,0.92 C34.96,0.41189803 35.371898,9.33368177e-17 35.88,0 Z M44.16,14.307 L1.839,14.307 L1.84,32.5384615 C1.84,33.4306138 2.56082155,34.1538462 3.45,34.1538462 L42.55,34.1538462 C43.4391784,34.1538462 44.16,33.4306138 44.16,32.5384615 L44.16,14.307 Z M11.5714286,26 C11.808122,26 12,26.191878 12,26.4285714 L12,31.5714286 C12,31.808122 11.808122,32 11.5714286,32 L6.42857143,32 C6.19187796,32 6,31.808122 6,31.5714286 L6,26.4285714 C6,26.191878 6.19187796,26 6.42857143,26 L11.5714286,26 Z M20.5714286,26 C20.808122,26 21,26.191878 21,26.4285714 L21,31.5714286 C21,31.808122 20.808122,32 20.5714286,32 L15.4285714,32 C15.191878,32 15,31.808122 15,31.5714286 L15,26.4285714 C15,26.191878 15.191878,26 15.4285714,26 L20.5714286,26 Z M30.5714286,26 C30.808122,26 31,26.191878 31,26.4285714 L31,31.5714286 C31,31.808122 30.808122,32 30.5714286,32 L25.4285714,32 C25.191878,32 25,31.808122 25,31.5714286 L25,26.4285714 C25,26.191878 25.191878,26 25.4285714,26 L30.5714286,26 Z M39.5714286,26 C39.808122,26 40,26.191878 40,26.4285714 L40,31.5714286 C40,31.808122 39.808122,32 39.5714286,32 L34.4285714,32 C34.191878,32 34,31.808122 34,31.5714286 L34,26.4285714 C34,26.191878 34.191878,26 34.4285714,26 L39.5714286,26 Z M10.2857143,27.7142857 L7.71428571,27.7142857 L7.71428571,30.2857143 L10.2857143,30.2857143 L10.2857143,27.7142857 Z M19.2857143,27.7142857 L16.7142857,27.7142857 L16.7142857,30.2857143 L19.2857143,30.2857143 L19.2857143,27.7142857 Z M29.2857143,27.7142857 L26.7142857,27.7142857 L26.7142857,30.2857143 L29.2857143,30.2857143 L29.2857143,27.7142857 Z M38.2857143,27.7142857 L35.7142857,27.7142857 L35.7142857,30.2857143 L38.2857143,30.2857143 L38.2857143,27.7142857 Z M11.5714286,17 C11.808122,17 12,17.191878 12,17.4285714 L12,22.5714286 C12,22.808122 11.808122,23 11.5714286,23 L6.42857143,23 C6.19187796,23 6,22.808122 6,22.5714286 L6,17.4285714 C6,17.191878 6.19187796,17 6.42857143,17 L11.5714286,17 Z M20.5714286,17 C20.808122,17 21,17.191878 21,17.4285714 L21,22.5714286 C21,22.808122 20.808122,23 20.5714286,23 L15.4285714,23 C15.191878,23 15,22.808122 15,22.5714286 L15,17.4285714 C15,17.191878 15.191878,17 15.4285714,17 L20.5714286,17 Z M30.5714286,17 C30.808122,17 31,17.191878 31,17.4285714 L31,22.5714286 C31,22.808122 30.808122,23 30.5714286,23 L25.4285714,23 C25.191878,23 25,22.808122 25,22.5714286 L25,17.4285714 C25,17.191878 25.191878,17 25.4285714,17 L30.5714286,17 Z M39.5714286,17 C39.808122,17 40,17.191878 40,17.4285714 L40,22.5714286 C40,22.808122 39.808122,23 39.5714286,23 L34.4285714,23 C34.191878,23 34,22.808122 34,22.5714286 L34,17.4285714 C34,17.191878 34.191878,17 34.4285714,17 L39.5714286,17 Z M10.2857143,18.7142857 L7.71428571,18.7142857 L7.71428571,21.2857143 L10.2857143,21.2857143 L10.2857143,18.7142857 Z M19.2857143,18.7142857 L16.7142857,18.7142857 L16.7142857,21.2857143 L19.2857143,21.2857143 L19.2857143,18.7142857 Z M29.2857143,18.7142857 L26.7142857,18.7142857 L26.7142857,21.2857143 L29.2857143,21.2857143 L29.2857143,18.7142857 Z M38.2857143,18.7142857 L35.7142857,18.7142857 L35.7142857,21.2857143 L38.2857143,21.2857143 L38.2857143,18.7142857 Z M9.2,5.538 L3.45,5.53846154 C2.56082155,5.53846154 1.84,6.26169387 1.84,7.15384615 L1.839,12.461 L44.16,12.461 L44.16,7.15384615 C44.16,6.26169387 43.4391784,5.53846154 42.55,5.53846154 L36.8,5.538 L36.8,8.31076923 C36.8,8.8188712 36.388102,9.23076923 35.88,9.23076923 C35.371898,9.23076923 34.96,8.8188712 34.96,8.31076923 L34.96,5.538 L11.04,5.538 L11.04,8.31076923 C11.04,8.8188712 10.628102,9.23076923 10.12,9.23076923 C9.61189803,9.23076923 9.2,8.8188712 9.2,8.31076923 L9.2,5.538 Z"/>
  </defs>
  <g fill="none" fill-rule="evenodd" transform="translate(7 12)">
    <mask id="calender-b" fill="#fff">
      <use xlink:href="#calender-a"/>
    </mask>
    <use fill="#4C433F" fill-rule="nonzero" xlink:href="#calender-a"/>
    <g mask="url(#calender-b)">
      <rect width="60" height="60" fill="#4C433F" transform="translate(-7 -12)"/>
    </g>
  </g>
</svg>
