<svg xmlns="http://www.w3.org/2000/svg" xmlns:xlink="http://www.w3.org/1999/xlink" width="60" height="60" viewBox="0 0 60 60">
  <defs>
    <path id="零食-a" d="M38,0 C38.7928354,0 39.4438953,0.607013442 39.5137883,1.38164902 L39.52,1.52 L39.52,45.6 C39.52,46.3928354 38.9129866,47.0438953 38.138351,47.1137883 L38,47.12 L1.52,47.12 C0.727164559,47.12 0.0761047041,46.5129866 0.00621174317,45.738351 L0,45.6 L0,1.52 C0,0.727164559 0.607013442,0.0761047041 1.38164902,0.00621174317 L1.52,0 L38,0 Z M3.04,43.32 L1.519,43.32 L1.52,44.84 C1.52,45.2247584 1.80591593,45.5427375 2.1768725,45.5930621 L2.28,45.6 L3.04,45.6 L3.04,43.32 Z M5.32,43.32 L3.8,43.32 L3.8,45.6 L5.32,45.6 L5.32,43.32 Z M7.6,43.32 L6.08,43.32 L6.08,45.6 L7.6,45.6 L7.6,43.32 Z M9.879,43.32 L8.36,43.32 L8.36,45.6 L9.88,45.6 L9.879,43.32 Z M12.16,43.32 L10.639,43.32 L10.64,45.6 L12.16,45.6 L12.16,43.32 Z M14.44,43.32 L12.92,43.32 L12.92,45.6 L14.44,45.6 L14.44,43.32 Z M16.72,43.32 L15.2,43.32 L15.2,45.6 L16.72,45.6 L16.72,43.32 Z M19,43.32 L17.48,43.32 L17.48,45.6 L19,45.6 L19,43.32 Z M21.28,43.32 L19.76,43.32 L19.76,45.6 L21.28,45.6 L21.28,43.32 Z M23.56,43.32 L22.04,43.32 L22.04,45.6 L23.56,45.6 L23.56,43.32 Z M25.84,43.32 L24.32,43.32 L24.32,45.6 L25.84,45.6 L25.84,43.32 Z M28.12,43.32 L26.6,43.32 L26.6,45.6 L28.12,45.6 L28.12,43.32 Z M30.4,43.32 L28.88,43.32 L28.88,45.6 L30.4,45.6 L30.4,43.32 Z M32.68,43.32 L31.16,43.32 L31.16,45.6 L32.68,45.6 L32.68,43.32 Z M34.96,43.32 L33.44,43.32 L33.44,45.6 L34.96,45.6 L34.96,43.32 Z M38,43.32 L35.72,43.32 L35.72,45.6 L37.24,45.6 C37.6247584,45.6 37.9427375,45.3140841 37.9930621,44.9431275 L38,44.84 L38,43.32 Z M38,5.32 L1.519,5.32 L1.519,41.8 L38,41.8 L38,5.32 Z M35.2869612,23.7806129 C37.3337056,24.4063654 38.1835526,27.3034432 37.2904235,30.2247366 C37.0292447,31.0790139 36.5337871,31.8654066 35.909862,32.5248774 C36.1356834,32.6510307 36.3349212,32.9324734 36.5725239,33.379339 C38.0270621,36.1149274 37.8402159,38.6430201 34.849651,40.2331317 C31.3526763,42.0925061 27.7096643,42.1837629 26.6907775,40.2675155 C25.8507204,38.6875979 26.9367133,37.5743788 30.7096146,35.4857905 L30.9904868,35.3312053 L31.9642531,34.8064875 C32.2015011,34.6803405 32.4241079,34.5544174 32.6356374,34.4271795 L32.6129169,34.4325456 C32.0361538,34.5444419 31.4757541,34.5362959 30.975878,34.3834685 C30.1543957,34.1323161 29.8161863,33.5536793 29.9125499,32.7233583 L29.9321956,32.5754655 L29.9467981,32.494746 C29.1125346,33.2506308 27.74297,33.8754401 25.854171,34.3815423 C24.8728269,34.6444927 23.9082916,34.7919174 23.0070347,34.8303978 C25.399132,35.9578813 26.6115117,37.3421888 26.1515277,38.8467284 C25.5847544,40.7005604 23.3858223,40.7217969 19.1864616,39.4901615 L16.6246696,38.7172786 C15.922726,38.5003281 15.4419786,38.3389832 15.0680466,38.1882788 C15.2243965,38.6762488 15.2468736,39.1896783 15.1251967,39.7167192 C14.8991085,40.6960148 14.2762942,41.15724 13.2482914,41.1831293 C12.6508903,41.1981743 12.0917791,41.1170734 10.7908897,40.8226955 L10.5205903,40.7609415 L8.10576405,40.1929527 C3.85319334,39.1598999 1.95948051,38.0420425 2.39555643,36.1531902 C2.8638324,34.1248641 5.76242581,33.7427365 9.94553459,34.7084833 C11.2820381,35.0170395 12.396348,35.4709082 13.2500257,36.0286913 C13.2640471,35.8829344 13.2963579,35.728985 13.3455714,35.5680149 C13.873982,33.8396617 15.720176,33.0476007 18.2982651,33.3723323 C18.1109894,33.1361552 17.9747615,32.8711235 17.8966742,32.5796977 C17.4305757,30.8401944 18.8605736,29.9632114 22.9950431,28.7923501 L23.3024036,28.7061361 L24.5134447,28.3790941 C28.3067837,27.3986024 30.2706174,27.7396801 30.809255,29.749903 C30.8285672,29.8219772 30.8452143,29.8933571 30.8592018,29.964047 L30.879762,29.9095445 C31.0907125,29.3817449 31.2358734,28.9879277 31.3651083,28.5812134 L31.6303914,27.7325368 C32.7219335,24.3309292 33.5338553,23.2446346 35.2869612,23.7806129 Z M35.580279,33.2089456 C35.5533949,33.2161461 35.5122586,33.2377851 35.4536391,33.2775266 L35.3890721,33.3234379 L35.2597296,33.4240301 L34.5462689,34.0165339 C33.8863487,34.5470403 33.1960977,35.0122573 32.3210515,35.4775276 C28.0596619,37.7433487 26.7754688,38.8079553 27.3618176,39.9107171 C28.1164196,41.329917 31.3189328,41.2496946 34.4928526,39.5620915 C37.0311169,38.2124724 37.1837217,36.1476764 35.9014837,33.7361374 C35.7983236,33.5421215 35.7252926,33.4174852 35.6752147,33.3384333 L35.6256794,33.2639287 L35.6083137,33.2402314 L35.6083137,33.2402314 L35.5954235,33.2240478 L35.580279,33.2089456 Z M3.13607768,36.324153 C2.84245524,37.5959715 4.54368242,38.5624856 8.48679817,39.5028609 L8.820586,39.581171 L10.6629858,40.0137466 C11.8901971,40.2967078 12.4860287,40.4050313 12.9790855,40.4222177 L13.0833601,40.424536 L13.2291576,40.4233702 C13.9242748,40.4058643 14.2401004,40.1719797 14.3846754,39.5457564 C14.7750551,37.8548362 13.1085758,36.21872 9.77457179,35.4490046 C5.97660167,34.5721741 3.4640833,34.9034046 3.13607768,36.324153 Z M14.072363,35.7902174 C13.884457,36.4048302 14.0410277,36.765293 14.6342639,37.1280122 L14.7599453,37.2019206 C15.230158,37.4674451 15.8249651,37.6809953 17.250792,38.1140747 L18.8732985,38.602932 C22.9766352,39.8574479 25.0325107,39.9074375 25.4247361,38.6245259 C25.8510492,37.2301188 23.8407597,35.6870056 20.1132058,34.547378 C16.8410159,33.5469692 14.5797444,34.1306477 14.072363,35.7902174 Z M9.01148657,26.9747435 L9.28795322,27.1500922 L10.2980157,27.7989685 C10.6362651,28.0118577 10.9824325,28.2183061 11.3978434,28.456171 L11.6558897,28.6029628 L13.3511934,29.5510991 C14.1407599,29.9991861 14.5266253,30.2431466 14.8664988,30.5133378 L14.95832,30.5878497 L15.0799878,30.6910171 C15.8597283,31.3669971 16.084391,32.078333 15.6005539,32.8233768 C14.351427,34.7468636 9.77511014,34.7907408 6.646692,32.7591223 C3.32507952,30.602042 1.47909723,27.460034 2.66111883,25.6398803 C3.65498306,24.1094636 5.19545988,24.5663203 9.01148657,26.9747435 Z M25.2303279,28.9840662 L24.9386381,29.0550557 L24.4605606,29.1789047 L23.5015276,29.4397703 C19.6559731,30.5113651 18.3315841,31.266389 18.6307778,32.3829952 C19.0467889,33.9355696 22.185268,34.577812 25.6574686,33.6474387 C29.1254331,32.7182004 30.4918778,31.5018499 30.0751513,29.9466054 C29.707302,28.5737731 28.2901577,28.2593138 25.2303279,28.9840662 Z M32.3525963,27.9694579 L32.1397138,28.6500066 C31.9744133,29.1906801 31.7955699,29.6738859 31.5031359,30.3962683 L31.1473902,31.2732716 C30.8076378,32.1240755 30.7104715,32.4405583 30.6674828,32.8109727 C30.6116883,33.2917281 30.7438239,33.5177967 31.1980805,33.6566769 C32.9391629,34.1889792 35.834352,32.3879014 36.5636319,30.0025341 C37.3487797,27.4344315 36.6305776,24.9861234 35.0647587,24.5074045 C33.93288,24.1613544 33.2982015,25.0232543 32.3525963,27.9694579 Z M3.29850846,26.053806 C2.42308656,27.4018375 4.04585983,30.1639261 7.06061767,32.1217327 C9.8788931,33.9519422 13.9870381,33.9125537 14.9631643,32.4094511 C15.1872205,32.0644348 15.1193411,31.7684024 14.6955532,31.3677089 L14.5821544,31.2652661 L14.5278025,31.2186975 C14.2286016,30.9654606 13.9183506,30.7556672 13.2670566,30.3788771 L13.0807275,30.2718177 L11.4869507,29.3800676 C10.7960481,28.9923799 10.294662,28.6977659 9.79481942,28.3799588 L9.58014763,28.2419968 L8.90417685,27.8071613 C5.35608567,25.548856 3.9394941,25.0667747 3.29850846,26.053806 Z M24.729255,24.429903 C25.2914147,26.5279116 23.5953743,28.037654 19.774171,29.0615423 C15.9485553,30.0866129 12.3783851,29.3560314 11.8166742,27.2596977 C11.3505757,25.5201944 12.7805736,24.6432114 16.9150431,23.4723501 L17.2224036,23.3861361 L18.4334447,23.0590941 C22.2267837,22.0786024 24.1906174,22.4196801 24.729255,24.429903 Z M19.1503279,23.6640662 L18.8586381,23.7350557 L18.3805606,23.8589047 L17.4215276,24.1197703 C13.5759731,25.1913651 12.2515841,25.946389 12.5507778,27.0629952 C12.9667889,28.6155696 16.105268,29.257812 19.5774686,28.3274387 C23.0454331,27.3982004 24.4118778,26.1818499 23.9951513,24.6266054 C23.627302,23.2537731 22.2101577,22.9393138 19.1503279,23.6640662 Z M7.46789063,10.64 C8.13289063,10.64 8.7459375,10.844349 9.30703125,11.2530469 C9.45942708,11.3569531 9.535625,11.509349 9.535625,11.7102344 C9.535625,11.832151 9.502375,11.945201 9.435875,12.0493844 L9.37976563,12.1258594 L9.33820312,12.1778125 L9.27170313,12.245975 C9.20104688,12.3074875 9.11792188,12.34905 9.02232813,12.3706625 L8.92257813,12.385625 L8.86023438,12.385625 L8.75373047,12.3784814 C8.64982422,12.3641943 8.55371094,12.3284766 8.46539063,12.2713281 C8.16059896,12.0842969 7.83848958,11.9907813 7.4990625,11.9907813 C6.88947917,11.9907813 6.3889974,12.2349609 5.99761719,12.7233203 C5.60623698,13.2116797 5.41054688,13.8714844 5.41054688,14.7027344 C5.41054688,15.5547656 5.59584635,16.2249609 5.96644531,16.7133203 C6.33704427,17.2016797 6.83752604,17.4458594 7.46789063,17.4458594 C7.88351563,17.4458594 8.27143229,17.3211719 8.63164063,17.0717969 C8.71996094,17.0094531 8.81802246,16.9704883 8.9258252,16.9549023 L9.036875,16.9471094 L9.0784375,16.9471094 L9.17444688,16.9583313 C9.26671563,16.9766188 9.3477625,17.0161031 9.4175875,17.0767844 L9.48367188,17.1445312 L9.52523438,17.1860938 L9.58508438,17.2634 C9.65601771,17.3698 9.69148438,17.4895 9.69148438,17.6225 C9.69148438,17.8164583 9.62221354,17.9688542 9.48367188,18.0796875 C8.90179688,18.5645833 8.20908854,18.8070313 7.40554688,18.8070313 C6.90679688,18.8070313 6.44095052,18.7187109 6.00800781,18.5420703 C5.5750651,18.3654297 5.19407552,18.1091276 4.86503906,17.7731641 C4.5360026,17.4372005 4.27623698,17.0111849 4.08574219,16.4951172 C3.8952474,15.9790495 3.8,15.3989063 3.8,14.7546875 C3.8,14.1243229 3.89697917,13.5476432 4.0909375,13.0246484 C4.28489583,12.5016536 4.54985677,12.0669792 4.88582031,11.720625 C5.22178385,11.3742708 5.61143229,11.1075781 6.05476563,10.9205469 C6.49809896,10.7335156 6.96914063,10.64 7.46789063,10.64 Z M32.2599219,10.64 C32.9941927,10.64 33.6591927,10.844349 34.2549219,11.2530469 C34.3712969,11.3306302 34.4455552,11.4348135 34.4776969,11.5655969 L34.4939063,11.6686719 L34.4939063,11.720625 L34.4876719,11.8099844 C34.4752031,11.8972656 34.4440313,11.9783125 34.3941563,12.053125 L34.3380469,12.1258594 L34.3172656,12.1570313 L34.2507656,12.22935 C34.1565573,12.3169083 34.0401823,12.369 33.9016406,12.385625 C33.8670052,12.3925521 33.8323698,12.3960156 33.7977344,12.3960156 C33.6661198,12.3960156 33.5414323,12.3613802 33.4236719,12.2921094 C33.0634635,12.091224 32.6755469,11.9907813 32.2599219,11.9907813 C31.9135677,11.9907813 31.6364844,12.0635156 31.4286719,12.2089844 C31.2208594,12.3544531 31.1169531,12.5588021 31.1169531,12.8220313 C31.1169531,12.9536458 31.1446615,13.0679427 31.2000781,13.1649219 C31.2554948,13.261901 31.3472786,13.3519531 31.4754297,13.4350781 C31.6035807,13.5182031 31.7178776,13.5840104 31.8183203,13.6325 C31.918763,13.6809896 32.0728906,13.7433333 32.2807031,13.8195313 L32.3248633,13.8377148 L32.3248633,13.8377148 L32.3534375,13.8507031 L33.3821094,14.2871094 L33.5971317,14.3828516 C34.0119085,14.5817578 34.3350781,14.8251953 34.5666406,15.1131641 C34.8367969,15.4491276 34.971875,15.8872656 34.971875,16.4275781 C34.971875,17.0995052 34.7103776,17.6640625 34.1873828,18.12125 C33.664388,18.5784375 32.9595573,18.8070313 32.0728906,18.8070313 C31.2000781,18.8070313 30.4034635,18.5541927 29.6830469,18.0485156 C29.5445052,17.9515365 29.4683073,17.8164583 29.4544531,17.6432813 C29.447526,17.6225 29.4440625,17.6051823 29.4440625,17.5913281 C29.4440625,17.4694115 29.4773125,17.3585781 29.5438125,17.2588281 L29.5999219,17.1860938 L29.7142188,17.0510156 L29.7807188,16.9791125 C29.851375,16.914275 29.9345,16.8706344 30.0300938,16.8481906 L30.1298438,16.8328125 L30.2025781,16.8328125 L30.3051855,16.8399561 C30.4064941,16.8542432 30.5039063,16.8899609 30.5974219,16.9471094 C31.103099,17.2796094 31.608776,17.4458594 32.1144531,17.4458594 C32.516224,17.4458594 32.8244792,17.3661979 33.0392188,17.206875 C33.2539583,17.0475521 33.3613281,16.8258854 33.3613281,16.541875 C33.3613281,16.2855729 33.2782031,16.0933464 33.1119531,15.9651953 C32.9457031,15.8370443 32.6616927,15.6863802 32.2599219,15.5132031 L32.2157617,15.4950195 L32.2157617,15.4950195 L32.1871875,15.4820313 L31.1273438,15.0352344 L30.9052441,14.9319054 C30.5459017,14.7491073 30.2406771,14.5133941 29.9895703,14.2247656 C29.6882422,13.8784115 29.5375781,13.4420052 29.5375781,12.9155469 C29.5375781,12.264401 29.7938802,11.7223568 30.3064844,11.2894141 C30.8190885,10.8564714 31.4702344,10.64 32.2599219,10.64 Z M25.3189844,10.7854687 L25.5433449,10.788861 C27.451115,10.8476605 28.405,11.6708526 28.405,13.2584375 C28.405,13.8333854 28.2664583,14.3217448 27.989375,14.7235156 C27.7122917,15.1252865 27.3503516,15.416224 26.9035547,15.5963281 C26.531224,15.7464149 26.1119911,15.8339656 25.6458561,15.85898 L25.3605469,15.8664844 L24.3838281,15.8664844 L24.3520068,15.8710303 C24.3338232,15.8770915 24.3217008,15.8892139 24.3156396,15.9073975 L24.3110938,15.9392188 L24.3110938,18.0485156 L24.3038203,18.1455641 C24.2844245,18.2713599 24.226237,18.3827474 24.1292578,18.4797266 C24.0322786,18.5767057 23.9208911,18.6348932 23.7950953,18.6542891 L23.6980469,18.6615625 L23.3447656,18.6615625 L23.2477172,18.6542891 C23.1219214,18.6348932 23.0105339,18.5767057 22.9135547,18.4797266 C22.8165755,18.3827474 22.758388,18.2713599 22.7389922,18.1455641 L22.7317188,18.0485156 L22.7317188,11.3985156 L22.7389922,11.3014672 C22.758388,11.1756714 22.8165755,11.0642839 22.9135547,10.9673047 C23.0105339,10.8703255 23.1219214,10.812138 23.2477172,10.7927422 L23.3447656,10.7854687 L25.3189844,10.7854687 Z M20.1964063,10.7854687 L20.2934547,10.7927422 C20.4192505,10.812138 20.530638,10.8703255 20.6276172,10.9673047 C20.7245964,11.0642839 20.7827839,11.1756714 20.8021797,11.3014672 L20.8094531,11.3985156 L20.8094531,18.0485156 L20.8021797,18.1455641 C20.7827839,18.2713599 20.7245964,18.3827474 20.6276172,18.4797266 C20.530638,18.5767057 20.4192505,18.6348932 20.2934547,18.6542891 L20.1964063,18.6615625 L19.843125,18.6615625 L19.7460766,18.6542891 C19.6202807,18.6348932 19.5088932,18.5767057 19.4119141,18.4797266 C19.3149349,18.3827474 19.2567474,18.2713599 19.2373516,18.1455641 L19.2300781,18.0485156 L19.2300781,11.3985156 L19.2373516,11.3014672 C19.2567474,11.1756714 19.3149349,11.0642839 19.4119141,10.9673047 C19.5088932,10.8703255 19.6202807,10.812138 19.7460766,10.7927422 L19.843125,10.7854687 L20.1964063,10.7854687 Z M12.1436719,10.7854687 L12.2407203,10.7927422 C12.3665161,10.812138 12.4779036,10.8703255 12.5748828,10.9673047 C12.671862,11.0642839 12.7300495,11.1756714 12.7494453,11.3014672 L12.7567188,11.3985156 L12.7567188,13.8091406 L12.7612646,13.8409619 C12.7673258,13.8591455 12.7794482,13.8712679 12.7976318,13.8773291 L12.8294531,13.881875 L15.6557031,13.881875 L15.6875244,13.8773291 C15.705708,13.8712679 15.7178304,13.8591455 15.7238916,13.8409619 L15.7284375,13.8091406 L15.7284375,11.3985156 L15.7357109,11.3014672 C15.7551068,11.1756714 15.8132943,11.0642839 15.9102734,10.9673047 C16.0072526,10.8703255 16.1186401,10.812138 16.2444359,10.7927422 L16.3414844,10.7854687 L16.684375,10.7854687 L16.7814234,10.7927422 C16.9072193,10.812138 17.0186068,10.8703255 17.1155859,10.9673047 C17.2125651,11.0642839 17.2707526,11.1756714 17.2901484,11.3014672 L17.2974219,11.3985156 L17.2974219,18.0485156 L17.2901484,18.1455641 C17.2707526,18.2713599 17.2125651,18.3827474 17.1155859,18.4797266 C17.0186068,18.5767057 16.9072193,18.6348932 16.7814234,18.6542891 L16.684375,18.6615625 L16.3414844,18.6615625 L16.2444359,18.6542891 C16.1186401,18.6348932 16.0072526,18.5767057 15.9102734,18.4797266 C15.8132943,18.3827474 15.7551068,18.2713599 15.7357109,18.1455641 L15.7284375,18.0485156 L15.7284375,15.3365625 L15.7238916,15.3001953 C15.7178304,15.2794141 15.705708,15.2655599 15.6875244,15.2586328 L15.6557031,15.2534375 L12.8294531,15.2534375 L12.7976318,15.2586328 C12.7794482,15.2655599 12.7673258,15.2794141 12.7612646,15.3001953 L12.7567188,15.3365625 L12.7567188,18.0485156 L12.7494453,18.1455641 C12.7300495,18.2713599 12.671862,18.3827474 12.5748828,18.4797266 C12.4779036,18.5767057 12.3665161,18.6348932 12.2407203,18.6542891 L12.1436719,18.6615625 L11.7903906,18.6615625 L11.6933422,18.6542891 C11.5675464,18.6348932 11.4561589,18.5767057 11.3591797,18.4797266 C11.2622005,18.3827474 11.204013,18.2713599 11.1846172,18.1455641 L11.1773438,18.0485156 L11.1773438,11.3985156 L11.1846172,11.3014672 C11.204013,11.1756714 11.2622005,11.0642839 11.3591797,10.9673047 C11.4561589,10.8703255 11.5675464,10.812138 11.6933422,10.7927422 L11.7903906,10.7854687 L12.1436719,10.7854687 Z M25.2046875,12.0323438 L24.3838281,12.0323438 L24.3520068,12.0375391 C24.3338232,12.0444661 24.3217008,12.0583203 24.3156396,12.0791016 L24.3110938,12.1154687 L24.3110938,14.5364844 L24.3156396,14.5728516 C24.3217008,14.5936328 24.3338232,14.607487 24.3520068,14.6144141 L24.3838281,14.6196094 L25.2566406,14.6196094 C26.3234115,14.6196094 26.8567969,14.1658854 26.8567969,13.2584375 C26.8567969,12.8151042 26.7217188,12.4999219 26.4515625,12.3128906 C26.1814063,12.1258594 25.7657812,12.0323438 25.2046875,12.0323438 Z M37.24,1.52 L2.28,1.52 C1.89524162,1.52 1.57726249,1.80591593 1.5269379,2.1768725 L1.52,2.28 L1.519,3.8 L3.8,3.8 L3.8,1.52 L4.56,1.52 L4.56,3.8 L6.08,3.8 L6.08,1.52 L6.84,1.52 L6.84,3.8 L8.36,3.8 L8.36,1.52 L9.12,1.52 L9.12,3.8 L10.64,3.8 L10.64,1.52 L11.4,1.52 L11.4,3.8 L12.92,3.8 L12.92,1.52 L13.68,1.52 L13.68,3.8 L15.2,3.8 L15.2,1.52 L15.96,1.52 L15.959,3.8 L17.48,3.8 L17.48,1.52 L18.24,1.52 L18.24,3.8 L19.76,3.8 L19.76,1.52 L20.52,1.52 L20.52,3.8 L22.04,3.8 L22.04,1.52 L22.8,1.52 L22.8,3.8 L24.32,3.8 L24.32,1.52 L25.08,1.52 L25.08,3.8 L26.6,3.8 L26.6,1.52 L27.36,1.52 L27.36,3.8 L28.88,3.8 L28.88,1.52 L29.64,1.52 L29.64,3.8 L31.16,3.8 L31.16,1.52 L31.92,1.52 L31.92,3.8 L33.44,3.8 L33.44,1.52 L34.2,1.52 L34.199,3.8 L35.72,3.8 L35.72,1.52 L36.48,1.52 L36.48,3.8 L38,3.8 L38,2.28 C38,1.89524162 37.7140841,1.57726249 37.3431275,1.5269379 L37.24,1.52 Z"/>
  </defs>
  <g fill="none" fill-rule="evenodd" transform="translate(10 6)">
    <mask id="零食-b" fill="#fff">
      <use xlink:href="#零食-a"/>
    </mask>
    <use fill="#979797" fill-rule="nonzero" xlink:href="#零食-a"/>
    <g mask="url(#零食-b)">
      <rect width="60" height="60" fill="#4C433F" transform="translate(-10 -6)"/>
    </g>
  </g>
</svg>
