<svg height="10" viewBox="0 0 10 10" width="10" xmlns="http://www.w3.org/2000/svg" xmlns:xlink="http://www.w3.org/1999/xlink"><defs><path id="a" d="m10.0473785.61928813c.2603496.26034952.2603496.68245951 0 .94280904l-3.77135252 3.77092881 3.77135252 3.77154352c.2603496.26034953.2603496.68245951 0 .942809-.26034949.2603496-.68245947.2603496-.942809 0l-3.77154352-3.77135252-3.77092881 3.77135252c-.26034953.2603496-.68245952.2603496-.94280904 0-.26034953-.26034949-.26034953-.68245947 0-.942809l3.77073785-3.77154352-3.77073785-3.77092881c-.26034953-.26034953-.26034953-.68245952 0-.94280904.26034952-.26034953.68245951-.26034953.94280904 0l3.77092881 3.77073785 3.77154352-3.77073785c.26034953-.26034953.68245951-.26034953.942809 0z"/><mask id="b" fill="#fff"><use fill="#fff" fill-rule="evenodd" xlink:href="#a"/></mask></defs><g fill="#4c433f" fill-rule="evenodd" transform="translate(-.333333 -.333333)"><use xlink:href="#a"/><g mask="url(#b)"><path d="m0 0h16v16h-16z" transform="translate(-2.666667 -2.666667)"/></g></g></svg>