<svg xmlns="http://www.w3.org/2000/svg" xmlns:xlink="http://www.w3.org/1999/xlink" width="60" height="60" viewBox="0 0 60 60">
  <defs>
    <path id="健康檢查-a" d="M30.24,0 C30.9885083,0 31.6036307,0.57109256 31.6734081,1.30131839 L31.68,1.44 L31.68,2.16 L40.32,2.16 C41.0685083,2.16 41.6836307,2.73109256 41.7534081,3.46131839 L41.76,3.6 L41.76,46.8 C41.76,47.5485083 41.1889074,48.1636307 40.4586816,48.2334081 L40.32,48.24 L1.44,48.24 C0.691491727,48.24 0.076369269,47.6689074 0.00659191494,46.9386816 L0,46.8 L0,3.6 C0,2.85149173 0.57109256,2.23636927 1.30131839,2.16659191 L1.44,2.16 L10.08,2.16 L10.08,1.44 C10.08,0.691491727 10.6510926,0.076369269 11.3813184,0.00659191494 L11.52,0 L30.24,0 Z M10.08,3.6 L2.16,3.6 C1.79549207,3.6 1.49424868,3.87086773 1.44657275,4.22230026 L1.44,4.32 L1.44,46.08 C1.44,46.4445079 1.71086773,46.7457513 2.06230026,46.7934272 L2.16,46.8 L39.6,46.8 C39.9645079,46.8 40.2657513,46.5291323 40.3134272,46.1776997 L40.32,46.08 L40.32,4.32 C40.32,3.92235498 39.997645,3.6 39.6,3.6 L31.68,3.6 L31.68,5.039 L37.44,5.04 C38.1885083,5.04 38.8036307,5.61109256 38.8734081,6.34131839 L38.88,6.48 L38.88,43.92 C38.88,44.6685083 38.3089074,45.2836307 37.5786816,45.3534081 L37.44,45.36 L4.32,45.36 C3.57149173,45.36 2.95636927,44.7889074 2.88659191,44.0586816 L2.88,43.92 L2.88,6.48 C2.88,5.73149173 3.45109256,5.11636927 4.18131839,5.04659191 L4.32,5.04 L10.08,5.039 L10.08,3.6 Z M10.08,6.48 L5.04,6.48 C4.67549207,6.48 4.37424868,6.75086773 4.32657275,7.10230026 L4.32,7.2 L4.32,43.2 C4.32,43.5645079 4.59086773,43.8657513 4.94230026,43.9134272 L5.04,43.92 L36.72,43.92 C37.0845079,43.92 37.3857513,43.6491323 37.4334272,43.2976997 L37.44,43.2 L37.44,7.2 C37.44,6.80235498 37.117645,6.48 36.72,6.48 L31.68,6.48 L31.68,7.2 C31.68,7.94850827 31.1089074,8.56363073 30.3786816,8.63340809 L30.24,8.64 L11.52,8.64 C10.7714917,8.64 10.1563693,8.06890744 10.0865919,7.33868161 L10.08,7.2 L10.08,6.48 Z M12.24,36 L12.24,41.76 L6.48,41.76 L6.48,36 L12.24,36 Z M10.8,37.44 L7.92,37.44 L7.92,40.32 L10.8,40.32 L10.8,37.44 Z M20.16,38.88 C20.557645,38.88 20.88,39.202355 20.88,39.6 C20.88,39.997645 20.557645,40.32 20.16,40.32 L14.4,40.32 C14.002355,40.32 13.68,39.997645 13.68,39.6 C13.68,39.202355 14.002355,38.88 14.4,38.88 L20.16,38.88 Z M25.92,36.72 C26.317645,36.72 26.64,37.042355 26.64,37.44 C26.64,37.837645 26.317645,38.16 25.92,38.16 L14.4,38.16 C14.002355,38.16 13.68,37.837645 13.68,37.44 C13.68,37.042355 14.002355,36.72 14.4,36.72 L25.92,36.72 Z M33.84,36.72 C34.237645,36.72 34.56,37.042355 34.56,37.44 C34.56,37.837645 34.237645,38.16 33.84,38.16 L28.08,38.16 C27.682355,38.16 27.36,37.837645 27.36,37.44 C27.36,37.042355 27.682355,36.72 28.08,36.72 L33.84,36.72 Z M12.24,28.08 L12.24,33.84 L6.48,33.84 L6.48,28.08 L12.24,28.08 Z M10.8,29.52 L7.92,29.52 L7.92,32.4 L10.8,32.4 L10.8,29.52 Z M20.88,30.96 C21.277645,30.96 21.6,31.282355 21.6,31.68 C21.6,32.077645 21.277645,32.4 20.88,32.4 L14.4,32.4 C14.002355,32.4 13.68,32.077645 13.68,31.68 C13.68,31.282355 14.002355,30.96 14.4,30.96 L20.88,30.96 Z M33.84,28.8 C34.237645,28.8 34.56,29.122355 34.56,29.52 C34.56,29.917645 34.237645,30.24 33.84,30.24 L14.4,30.24 C14.002355,30.24 13.68,29.917645 13.68,29.52 C13.68,29.122355 14.002355,28.8 14.4,28.8 L33.84,28.8 Z M24.48,10.8 L24.48,14.4 L28.08,14.4 L28.08,21.6 L24.48,21.6 L24.48,25.2 L17.28,25.2 L17.28,21.6 L13.68,21.6 L13.68,14.4 L17.28,14.4 L17.28,10.8 L24.48,10.8 Z M23.04,12.24 L18.72,12.24 L18.72,15.84 L15.12,15.84 L15.12,20.16 L18.72,20.16 L18.72,23.76 L23.04,23.76 L23.04,20.16 L26.64,20.16 L26.64,15.84 L23.04,15.84 L23.04,12.24 Z M30.24,5.04 L11.52,5.04 L11.52,6.48 L11.5265728,6.57769974 C11.5694811,6.89398902 11.8177791,7.14502081 12.1327359,7.19206427 L12.24,7.2 L29.52,7.2 C29.8845079,7.2 30.1857513,6.92913227 30.2334272,6.57769974 L30.24,6.48 L30.24,5.04 Z M29.52,1.44 L12.24,1.44 C11.8754921,1.44 11.5742487,1.71086773 11.5265728,2.06230026 L11.52,2.16 L11.52,5.039 L30.24,5.039 L30.24,2.16 L30.2334272,2.06230026 C30.1905189,1.74601098 29.9422209,1.49497919 29.6272641,1.44793573 L29.52,1.44 Z"/>
  </defs>
  <g fill="none" fill-rule="evenodd" transform="translate(9 6)">
    <mask id="健康檢查-b" fill="#fff">
      <use xlink:href="#健康檢查-a"/>
    </mask>
    <use fill="#979797" fill-rule="nonzero" xlink:href="#健康檢查-a"/>
    <g mask="url(#健康檢查-b)">
      <rect width="60" height="60" fill="#4C433F" transform="translate(-9 -6)"/>
    </g>
  </g>
</svg>
