<svg xmlns="http://www.w3.org/2000/svg" xmlns:xlink="http://www.w3.org/1999/xlink" width="60" height="60" viewBox="0 0 60 60">
  <defs>
    <path id="運動補助-a" d="M16.72,0 C17.5594728,0 18.24,0.68052718 18.24,1.52 L18.24,1.52 L18.24,8.36 L34.96,8.36 L34.96,1.52 C34.96,0.727164559 35.5670134,0.0761047041 36.341649,0.00621174317 L36.48,0 L42.56,0 C43.3994728,0 44.08,0.68052718 44.08,1.52 L44.08,1.52 L44.08,3.04 L47.12,3.04 C47.9594728,3.04 48.64,3.72052718 48.64,4.56 L48.64,4.56 L48.64,9.88 L51.68,9.88 C52.5194728,9.88 53.2,10.5605272 53.2,11.4 L53.2,11.4 L53.2,14.44 C53.2,15.2794728 52.5194728,15.96 51.68,15.96 L51.68,15.96 L48.64,15.96 L48.64,15.96 L48.64,21.28 C48.64,22.1194728 47.9594728,22.8 47.12,22.8 L47.12,22.8 L44.08,22.8 L44.08,22.8 L44.08,24.32 C44.08,25.1594728 43.3994728,25.84 42.56,25.84 L42.56,25.84 L36.48,25.84 C35.6405272,25.84 34.96,25.1594728 34.96,24.32 L34.96,24.32 L34.96,17.48 L18.24,17.48 L18.24,24.32 C18.24,25.1128354 17.6329866,25.7638953 16.858351,25.8337883 L16.72,25.84 L10.64,25.84 C9.80052718,25.84 9.12,25.1594728 9.12,24.32 L9.12,24.32 L9.12,22.8 L6.08,22.8 C5.24052718,22.8 4.56,22.1194728 4.56,21.28 L4.56,21.28 L4.56,15.96 L1.52,15.96 C0.68052718,15.96 0,15.2794728 0,14.44 L0,14.44 L0,11.4 C0,10.5605272 0.68052718,9.88 1.52,9.88 L1.52,9.88 L4.56,9.88 L4.56,9.88 L4.56,4.56 C4.56,3.72052718 5.24052718,3.04 6.08,3.04 L6.08,3.04 L9.12,3.04 L9.12,3.04 L9.12,1.52 C9.12,0.68052718 9.80052718,0 10.64,0 L10.64,0 Z M16.72,1.52 L10.64,1.52 L10.64,24.32 L16.72,24.32 L16.72,1.52 Z M36.48,24.32 L42.56,24.32 L42.56,1.52 L36.48,1.52 L36.48,24.32 Z M9.12,4.56 L6.08,4.56 L6.08,21.28 L9.12,21.28 L9.12,4.56 Z M47.12,4.56 L44.08,4.56 L44.08,21.28 L47.12,21.28 L47.12,4.56 Z M34.96,9.88 L18.24,9.88 L18.24,15.96 L34.96,15.96 L34.96,9.88 Z M4.56,11.4 L1.52,11.4 L1.52,14.44 L4.56,14.44 L4.56,11.4 Z M51.68,11.4 L48.64,11.4 L48.64,14.44 L51.68,14.44 L51.68,11.4 Z"/>
  </defs>
  <g fill="none" fill-rule="evenodd" transform="translate(3 17)">
    <mask id="運動補助-b" fill="#fff">
      <use xlink:href="#運動補助-a"/>
    </mask>
    <use fill="#979797" fill-rule="nonzero" xlink:href="#運動補助-a"/>
    <g mask="url(#運動補助-b)">
      <rect width="60" height="60" fill="#4C433F" transform="translate(-3 -17)"/>
    </g>
  </g>
</svg>
