<svg height="60" viewBox="0 0 60 60" width="60" xmlns="http://www.w3.org/2000/svg"><path d="m74.4915176 54.4915176c-3.86985 3.8698499-9.0156242 6.0015469-14.4912082 6.0015469-5.4743464 0-10.6207395-2.131697-14.491827-6.0015469-1.0117052-1.0123241-1.9237869-2.1391224-2.7114938-3.349456l-.222142-.3421854.4034445-.0612592c.939308-.1429381 1.7870366-.629918 2.3872532-1.372454l.2258547-.2784509.1980095.2982519c.6305368.9498273 1.3606972 1.8433455 2.1706802 2.6539473 3.2157995 3.214562 7.4915691 4.9855102 12.0402207 4.9855102s8.8244212-1.7709482 12.0396019-4.986129c3.2151807-3.2145619 4.9867478-7.4903315 4.9867478-12.0389831 0-3.9614294-1.3198577-7.6642087-3.8197288-10.7271696l-1.982571 1.9831898c1.9739081 2.5202908 3.0159336 5.5386995 3.0159336 8.7452173 0 3.8061157-1.4813593 7.3826639-4.170577 10.0687878-2.6904553 2.6892177-6.2663848 4.170577-10.0700253 4.170577-.0643531 0-.1280874-.0043315-.1918218-.008663l-.129325-.0068065-.4659413-.0105193.2493683-.3935441c.3873563-.610117.5921724-1.3093384.5921724-2.0227917 0-.2351364-.0241324-.4789357-.0717784-.7233538l-.0600217-.3069148.3124839-.0068066c2.7931728-.0594029 5.4149435-1.175682 7.3826638-3.1427835 2.0345486-2.0326922 3.1551591-4.7379982 3.1551591-7.6171815 0-2.2703037-.6992213-4.4310833-2.024648-6.2694786l-2.0054659 2.0060846c.815552 1.2814934 1.2449853 2.7498582 1.2449853 4.2621565 0 2.1310782-.8304028 4.1371629-2.3389883 5.6476048-1.5085856 1.5085856-3.515289 2.3396071-5.6488424 2.3396071-2.1329346 0-4.1384004-.8310215-5.6476048-2.3389883-1.5079668-1.5079668-2.3383695-3.5134327-2.3383695-5.6482236 0-2.1323158.8304027-4.1384005 2.3377507-5.6482236 1.321714-1.3223328 3.0734801-2.1415975 4.932914-2.3074305.0544526-.005569.1113804-.0086629.1670706-.0086629.8817614 0 1.6348166.6942711 1.715258 1.5809828.0853917.9516836-.6200175 1.7950807-1.5723199 1.8810911-1.0513071.0934358-2.0419739.5575208-2.7900789 1.3056258-.8539163.8545351-1.3241891 1.9893776-1.3241891 3.1966173s.4702728 2.3420822 1.3241891 3.1959985c.8124581.8136957 1.977002 1.2790182 3.1953798 1.2790182 1.2196153 0 2.384778-.4653225 3.1959986-1.2783994.8539163-.8545351 1.3248079-1.9899964 1.3248079-3.1966173 0-.5810344-.1157119-1.150312-.3428041-1.6979323l-2.7510958 2.7517146c-.3298097.3298097-.770381.511731-1.2406538.511731-.4690352 0-.9089878-.1819213-1.2387975-.5104935l-.0012376-.0012375c-.3298097-.3304285-.511731-.7709999-.511731-1.2406539 0-.4690352.1819213-.9096065.511731-1.240035l15.3779199-15.3785387c.3310473-.3298097.7716186-.511731 1.2406538-.511731.469654 0 .9102254.1819213 1.2400351.511731.3298097.3304285.511731.7709999.511731 1.2406539s-.1819213.9096065-.511731 1.2406538l-1.1311298 1.1311298c3.1106069 3.684216 4.820296 8.3603362 4.820296 13.1930078 0 5.4749652-2.1310782 10.6207394-6.0021657 14.4912082zm-35.1615532-7.5070387c0-1.6991698 1.3823545-3.0809054 3.0809055-3.0809054 1.6991698 0 3.082143 1.3817356 3.082143 3.0809054s-1.3829732 3.0821431-3.082143 3.0821431c-1.698551 0-3.0809055-1.3829733-3.0809055-3.0821431zm6.178518-21.4753777c3.0301656-3.0301655 6.8573197-5.0065487 11.0699737-5.7150518.0946734-.0154695.1862528-.0216573.2759759-.0216573.8563915 0 1.5797453.6070232 1.7202083 1.4442325.1584077.9424019-.4801732 1.8383953-1.4225751 1.9974217-3.4948693.5866034-6.673542 2.2282267-9.1919765 4.7466612-3.2157995 3.2145619-4.9873666 7.4903315-4.9873666 12.0396019 0 .9603465.0853917 1.9423503.2536998 2.9181663l.0606404.3551797-.3564172-.0501211c-.1701645-.0235137-.3428041-.039602-.5197752-.039602-.773475 0-1.5203424.2351364-2.1601609.680658l-.3359975.2338988-.073016-.4028257c-.2227608-1.228897-.3359976-2.4714072-.3359976-3.695354 0-5.4762028 2.131697-10.6225958 6.0027845-14.4912082zm1.7913681 7.0324344c0-1.6174908 1.3167637-2.9342546 2.9348734-2.9342546 1.6174908 0 2.9342546 1.3167638 2.9342546 2.9342546 0 1.6187284-1.3167638 2.9354922-2.9342546 2.9354922-1.6181097 0-2.9348734-1.3167638-2.9348734-2.9354922zm8.9518898 16.3227969c1.6187284 0 2.9354922 1.3167638 2.9354922 2.9342546 0 1.6187284-1.3167638 2.9354922-2.9354922 2.9354922-1.6174908 0-2.9342546-1.3167638-2.9342546-2.9354922 0-1.6174908 1.3167638-2.9342546 2.9342546-2.9342546zm-2.6217707.1942969c-.706028.6763265-1.1212293 1.5828392-1.1694942 2.5543237l-.0228948.4665601-.3873563-.2617439c-.7623369-.5154437-1.4757902-1.1032847-2.1199402-1.7474346-2.6892177-2.688599-4.170577-6.265766-4.170577-10.0700253 0-1.7579539.3254783-3.4893003.9665343-5.1445367l.1720209-.4455216.2846387.3836436c.5847471.7883257 1.4330945 1.3167638 2.3884907 1.4869283l.2988708.0532151-.0946734.2883514c-.3638426 1.1032847-.548239 2.2393647-.548239 3.3779199 0 2.8779456 1.1199917 5.5838705 3.1545403 7.618419.3440416.3440417.7332542.6738514 1.223328 1.0383128l.2499871.185634zm5.4947661-21.6554427c.1942969.9355953-.4071572 1.8563399-1.3421337 2.0524932-1.3309958.2790698-2.5877379.8075078-3.7349559 1.569226l-.2524623.1683081-.1305625-.2741195c-.4213892-.8823802-1.1534059-1.563657-2.0623937-1.9175991l-.444284-.1732584.3830248-.28402c1.6570928-1.2258031 3.5177641-2.0611561 5.5312742-2.4819265.1181869-.0241324.2376115-.0371268.357036-.0371268.8143144 0 1.5277678.5797969 1.6954571 1.378023zm.8755737-17.4031867c-16.5690713 0-30.0003094 13.4318569-30.0003094 30.0003094s13.4312381 29.9996906 30.0003094 29.9996906c16.5684525 0 29.9996906-13.4312381 29.9996906-29.9996906s-13.4312381-30.0003094-29.9996906-30.0003094z" fill="#fefefe" fill-rule="evenodd" transform="translate(-30 -10)"/></svg>