<svg height="60" viewBox="0 0 60 60" width="60" xmlns="http://www.w3.org/2000/svg"><path d="m59.9993757 10c16.5692701 0 30.0006243 13.4318388 30.0006243 30.0003122s-13.4313542 29.9996878-30.0006243 29.9996878c-16.5686459 0-29.9993757-13.4312144-29.9993757-29.9996878s13.4307298-30.0003122 29.9993757-30.0003122zm4.6094774 12.4391538c-.502591 0-.9714678.2690863-1.2212025.7023714l-2.4636324 4.2666723h-1.8486608l-2.4636324-4.2666723c-.2497346-.4332851-.7186114-.7023714-1.2212024-.7023714-.2453643 0-.4869826.0655547-.6998814.1879234-.6711619.3870847-.9015421 1.2492846-.5144534 1.9204395l1.6526191 2.8606808h-8.9236436c-3.6867079 0-6.6853968 2.999282-6.6853968 6.6853272v16.7819943c0 3.6860452 2.9986889 6.6853272 6.6853968 6.6853272h26.1890491c3.6867079 0 6.6860211-2.999282 6.6860211-6.6853272v-16.7819943c0-3.6860452-2.9993132-6.6853272-6.6860211-6.6853272h-8.922395l1.6513705-2.8606808c.187301-.323403.2366236-.7023714.139227-1.0663559-.0973965-.3639844-.3296497-.6667846-.6536804-.8547079-.2128988-.1217444-.4538928-.1872991-.6998814-.1872991zm8.4852344 8.0466167c1.9249709 0 3.5032108 1.5161282 3.6030296 3.4167065l.0050119.1912974v16.7819943c0 1.9249508-1.5161441 3.5025896-3.4167421 3.6023696l-.1912994.00501h-26.1890491c-1.9249709 0-3.502626-1.5155436-3.6024071-3.4160841l-.00501-.1912955v-16.7819943c0-1.9249508 1.5155593-3.5031743 3.4161196-3.6029921l.1912975-.0050118zm-13.0942124 2.8806593c-6.3282762 0-11.7562589 4.7161899-14.4284198 7.5275485-.8746956.9202627-.8746956 2.4174064 0 3.337669 2.6721609 2.811983 8.1001436 7.5281729 14.4284198 7.5281729s11.756259-4.7161899 14.4277955-7.5281729c.8746956-.9202626.8746956-2.4174063 0-3.337669-2.6715365-2.8113586-8.0995193-7.5275485-14.4277955-7.5275485zm-.0002497 4.2038021c2.76706 0 5.0171693 2.2507102 5.0171693 5.0171171 0 2.7670312-2.2501093 5.0177414-5.0171693 5.0177414-2.7664357 0-5.0171693-2.2507102-5.0171693-5.0177414 0-2.7664069 2.2507336-5.0171171 5.0171693-5.0171171zm-6.9127802.6486166.4551414.4588827c-.7055004 1.1637514-1.0782293 2.5073098-1.0782293 3.8852065 0 1.2719046.3175915 2.5145506.9213469 3.6140139l.1568824.2718169-.4551414.4588827c-2.091895-1.2463099-3.8243103-2.7741171-4.965097-3.9031174l-.2069077-.206848-.2328776-.2347481.2328776-.2341238c1.1325467-1.1443972 2.9493663-2.7857611 5.1720047-4.1099654zm13.8262471 0c2.0907198 1.2463099 3.8236191 2.773564 4.9649873 3.9030198l.2070175.2069456.2328776.2341238-.2328776.2347481c-1.0665139 1.0764921-2.7391658 2.5937569-4.7842451 3.873052l-.3877597.2369134-.4557657-.4588827c.7055004-1.165 1.0782294-2.5079342 1.0782294-3.8858308 0-1.2713283-.3175916-2.51393-.9208559-3.6133899l-.1567492-.2718166zm-6.9134669 1.59148c-1.5183867 0-2.7527003 1.234925-2.7527003 2.7526716s1.2343136 2.7526716 2.7527003 2.7526716 2.7527003-1.234925 2.7527003-2.7526716-1.2343136-2.7526716-2.7527003-2.7526716z" fill="#fefefe" fill-rule="evenodd" transform="translate(-30 -10)"/></svg>