<svg xmlns="http://www.w3.org/2000/svg" xmlns:xlink="http://www.w3.org/1999/xlink" width="60" height="60" viewBox="0 0 60 60">
  <defs>
    <path id="頂尖同事-a" d="M24.2717761,0.993400762 C25.0432474,-0.331133587 26.9567526,-0.331133587 27.7282239,0.993400762 L27.7282239,0.993400762 L35.366,14.108 L50.1996951,17.3198802 C51.6478631,17.6334758 52.2486776,19.3444792 51.3645779,20.4906802 L51.3645779,20.4906802 L51.2677962,20.6071575 L41.155,31.924 L42.684458,47.0239562 C42.8338854,48.499792 41.3889113,49.6007368 40.0242675,49.1100269 L40.0242675,49.1100269 L39.888133,49.0556053 L26,42.935 L12.111867,49.0556053 C10.7544394,49.6537775 9.26085709,48.6197362 9.30585188,47.1702451 L9.30585188,47.1702451 L9.31554197,47.0239562 L10.844,31.924 L0.732203762,20.6071575 C-0.25506186,19.5022416 0.26457153,17.7648609 1.65354322,17.3572255 L1.65354322,17.3572255 L1.80030489,17.3198802 L16.633,14.108 Z M26,2 L17.9179528,15.8760163 L2.22358709,19.2745751 L12.9229729,31.2489837 L11.3053687,47.2254249 L26,40.75 L40.6946313,47.2254249 L39.0770271,31.2489837 L49.7764129,19.2745751 L34.0820472,15.8760163 L26,2 Z M25.3164062,21 C26.7109375,21 27.8320312,21.4739583 28.6796875,22.421875 C29.5273437,23.3697917 29.9511719,24.6731771 29.9511719,26.3320312 C29.9511719,27.9908854 29.5227865,29.3079427 28.6660156,30.2832031 C27.8183594,31.2584635 26.7018229,31.7460938 25.3164062,31.7460938 C23.9309896,31.7460938 22.8121745,31.2584635 21.9599609,30.2832031 C21.1077474,29.3079427 20.6816406,27.9908854 20.6816406,26.3320312 C20.6816406,24.6731771 21.1054687,23.3697917 21.953125,22.421875 C22.8007812,21.4739583 23.921875,21 25.3164062,21 Z M19.109375,21.1914062 L19.2417187,21.2009766 C19.4123437,21.2264974 19.5596354,21.3030599 19.6835937,21.4306641 C19.8385417,21.5901693 19.9160156,21.7792969 19.9160156,21.9980469 L19.9160156,21.9980469 L19.9160156,22.1074219 L19.9067187,22.2397656 C19.8819271,22.4103906 19.8075521,22.5576823 19.6835937,22.6816406 C19.5286458,22.8365885 19.3372396,22.9140625 19.109375,22.9140625 L19.109375,22.9140625 L17.0859375,22.9140625 L17.0380859,22.9208984 C16.9970703,22.9345703 16.9765625,22.96875 16.9765625,23.0234375 L16.9765625,23.0234375 L16.9765625,30.7480469 L16.9672656,30.8757422 C16.942474,31.041263 16.868099,31.1878255 16.7441406,31.3154297 C16.5891927,31.4749349 16.3977865,31.5546875 16.1699219,31.5546875 L16.1699219,31.5546875 L15.71875,31.5546875 L15.5864062,31.5451172 C15.4157812,31.5195964 15.2684896,31.4430339 15.1445312,31.3154297 C14.9895833,31.1559245 14.9121094,30.9667969 14.9121094,30.7480469 L14.9121094,30.7480469 L14.9121094,23.0234375 L14.9052734,22.9755859 C14.8916016,22.9345703 14.8574219,22.9140625 14.8027344,22.9140625 L14.8027344,22.9140625 L12.8066406,22.9140625 L12.6742969,22.9047656 C12.5036719,22.879974 12.3563802,22.805599 12.2324219,22.6816406 C12.077474,22.5266927 12,22.3352865 12,22.1074219 L12,22.1074219 L12,21.9980469 L12.0092969,21.8703516 C12.0340885,21.7048307 12.1084635,21.5582682 12.2324219,21.4306641 C12.3873698,21.2711589 12.578776,21.1914062 12.8066406,21.1914062 L12.8066406,21.1914062 L19.109375,21.1914062 Z M35.3789062,21.1914062 L35.6366517,21.1947922 C38.1718526,21.2625114 39.4394531,22.3460181 39.4394531,24.4453125 C39.4394531,25.2018229 39.2571615,25.844401 38.8925781,26.3730469 C38.5279948,26.9016927 38.0517578,27.2845052 37.4638672,27.5214844 C36.8759766,27.7584635 36.1992187,27.8769531 35.4335937,27.8769531 L35.4335937,27.8769531 L34.1484375,27.8769531 L34.1065674,27.8829346 C34.0706787,27.8948975 34.0527344,27.9248047 34.0527344,27.9726562 L34.0527344,27.9726562 L34.0527344,30.7480469 L34.0431641,30.8757422 C34.0176432,31.041263 33.9410807,31.1878255 33.8134766,31.3154297 C33.6539714,31.4749349 33.4648437,31.5546875 33.2460937,31.5546875 L33.2460937,31.5546875 L32.78125,31.5546875 L32.6535547,31.5451172 C32.4880339,31.5195964 32.3414714,31.4430339 32.2138672,31.3154297 C32.054362,31.1559245 31.9746094,30.9667969 31.9746094,30.7480469 L31.9746094,30.7480469 L31.9746094,21.9980469 L31.9841797,21.8703516 C32.0097005,21.7048307 32.086263,21.5582682 32.2138672,21.4306641 C32.3733724,21.2711589 32.5625,21.1914062 32.78125,21.1914062 L32.78125,21.1914062 L35.3789062,21.1914062 Z M25.3164062,22.7773438 C24.5416667,22.7773438 23.9287109,23.0940755 23.4775391,23.7275391 C23.0263672,24.3610026 22.8007812,25.2291667 22.8007812,26.3320312 C22.8007812,27.4348958 23.0286458,28.3144531 23.484375,28.9707031 C23.9401042,29.6269531 24.5530599,29.9550781 25.3232422,29.9550781 C26.0934245,29.9550781 26.7063802,29.6269531 27.1621094,28.9707031 C27.6178385,28.3144531 27.8457031,27.4348958 27.8457031,26.3320312 C27.8457031,25.2291667 27.6178385,24.3610026 27.1621094,23.7275391 C26.7063802,23.0940755 26.0911458,22.7773438 25.3164062,22.7773438 Z M35.2285156,22.8320312 L34.1484375,22.8320312 L34.1065674,22.8388672 C34.0706787,22.8525391 34.0527344,22.8867188 34.0527344,22.9414062 L34.0527344,22.9414062 L34.0527344,26.1269531 L34.0587158,26.1748047 C34.0706787,26.2158203 34.1005859,26.2363281 34.1484375,26.2363281 L34.1484375,26.2363281 L35.296875,26.2363281 C36.7005208,26.2363281 37.4023437,25.6393229 37.4023437,24.4453125 C37.4023437,23.8619792 37.2246094,23.4472656 36.8691406,23.2011719 C36.5136719,22.9550781 35.9667969,22.8320312 35.2285156,22.8320312 L35.2285156,22.8320312 Z"/>
  </defs>
  <g fill="none" fill-rule="evenodd" transform="translate(4 5)">
    <mask id="頂尖同事-b" fill="#fff">
      <use xlink:href="#頂尖同事-a"/>
    </mask>
    <use fill="#979797" fill-rule="nonzero" xlink:href="#頂尖同事-a"/>
    <g mask="url(#頂尖同事-b)">
      <rect width="60" height="60" fill="#4C433F" transform="translate(-4 -5)"/>
    </g>
  </g>
</svg>
