<svg height="60" viewBox="0 0 60 60" width="60" xmlns="http://www.w3.org/2000/svg"><g fill="none" fill-rule="evenodd"><rect fill="#4c433f" fill-opacity=".8" height="60" rx="4"  width="60"/><path d="m45.3636181 14.6363819c.8485092.8485092.8485092 2.2242144 0 3.0727236l-12.2906181 12.2908945 12.2906181 12.2908945c.8485092.8485092.8485092 2.2242144 0 3.0727236s-2.2242144.8485092-3.0727236 0l-12.2908945-12.2906181-12.2908945 12.2906181c-.8485092.8485092-2.2242144.8485092-3.0727236 0s-.8485092-2.2242144 0-3.0727236l12.2906181-12.2908945-12.2906181-12.2908945c-.8485092-.8485092-.8485092-2.2242144 0-3.0727236s2.2242144-.8485092 3.0727236 0l12.2908945 12.2906181 12.2908945-12.2906181c.8485092-.8485092 2.2242144-.8485092 3.0727236 0z" fill="#f5f2e9"/></g></svg>