<?xml version="1.0" encoding="UTF-8"?>
<svg width="240px" height="78px" viewBox="0 0 240 78" version="1.1" xmlns="http://www.w3.org/2000/svg" xmlns:xlink="http://www.w3.org/1999/xlink">
    <title>logo+contact</title>
    <defs>
        <polygon id="path-1" points="0 0.327719298 52.4176842 0.327719298 52.4176842 52.7454035 0 52.7454035"></polygon>
        <polygon id="path-3" points="0.30808577 0.934877193 26.7775439 0.934877193 26.7775439 32.8450526 0.30808577 32.8450526"></polygon>
    </defs>
    <g id="Symbols" stroke="none" stroke-width="1" fill="none" fill-rule="evenodd">
        <g id="footer-tmp/nor" transform="translate(-40.000000, -82.000000)">
            <g id="footer/nor">
                <g id="logo+contact" transform="translate(40.000000, 82.000000)">
                    <g id="Group-111">
                        <path d="M42.6780351,8.77249123 L44.0225965,7.42652632 C39.5678596,3.28757895 33.6815439,0.691087719 27.1790877,0.452491228 L27.1790877,7.68757895 C30.1685614,11.1682807 38.6597895,9.83354386 42.6780351,8.77249123" id="Fill-1" fill="#D83751"></path>
                        <path d="M11.6637193,42.5287018 L8.39494737,45.7988772 C12.8496842,49.9364211 18.736,52.5343158 25.2384561,52.7729123 L25.2384561,49.9125614 C18.2812632,42.8515088 13.3479298,42.4150175 11.6637193,42.5287018" id="Fill-3" fill="#D83751"></path>
                        <path d="M43.6731228,44.8766316 C33.1762807,40.9734737 28.2022456,48.0036491 27.1790877,49.7004912 L27.1790877,52.7727719 C33.9594386,52.5243509 40.0843509,49.7243509 44.5994386,45.2738246 L44.4675088,45.1713684 L43.6731228,44.8766316 Z" id="Fill-5" fill="#D83751"></path>
                        <path d="M43.4167018,31.9646316 C41.9009123,35.6909474 43.3872281,40.3969123 44.2335439,42.5358596 L45.9233684,43.8439298 C49.7563509,39.4635789 52.1409123,33.8046316 52.3696842,27.5828772 L48.250386,27.5828772 C45.8770526,28.4937544 44.2349474,29.952 43.4167018,31.9646316" id="Fill-7" fill="#D83751"></path>
                        <path d="M25.2383158,7.37866667 L25.2383158,0.452350877 C18.7358596,0.690947368 12.8495439,3.28884211 8.39480702,7.42778947 L9.35901754,8.392 C16.0453333,10.1688421 23.1498947,8.09445614 25.2383158,7.37866667" id="Fill-9" fill="#D83751"></path>
                        <path d="M7.75747368,9.53319298 L7.0234386,8.79915789 C2.88449123,13.2538947 0.288,19.1402105 0.0494035088,25.6426667 L6.39607018,25.6426667 C11.1511579,19.1837193 8.03957895,10.2910877 7.75747368,9.53319298" id="Fill-11" fill="#D83751"></path>
                        <path d="M6.32378947,27.5828772 L0.0487017544,27.5828772 C0.287298246,34.0853333 2.88519298,39.9716491 7.02273684,44.426386 L9.9125614,41.5365614 C9.98694737,35.5253333 7.208,29.3779649 6.32378947,27.5828772" id="Fill-13" fill="#D83751"></path>
                        <path d="M16.2470175,18.0234386 L10.2175439,11.9939649 C10.9501754,15.4002807 11.3585965,20.8922105 8.4477193,25.6430877 L12.0940351,25.6430877 C16.5866667,23.3160702 16.557193,19.6655439 16.2470175,18.0234386" id="Fill-15" fill="#D83751"></path>
                        <path d="M11.5458246,10.5776842 L17.1317895,16.1650526 C21.9219649,17.4801404 24.2981053,15.6682105 25.2384561,14.5650526 L25.2384561,9.18680702 C22.8314386,9.96715789 17.3479298,11.3804912 11.5458246,10.5776842" id="Fill-17" fill="#D83751"></path>
                        <path d="M40.5207018,19.786807 C39.9129825,17.7966316 40.0154386,15.6689123 40.7550877,13.4387368 L36.1473684,18.0464561 C36.0631579,18.2864561 35.9677193,18.5194386 35.9438596,18.7973333 C35.7459649,21.2015439 37.76,24.2555789 38.7887719,25.6422456 L44.957193,25.6422456 C43.2645614,24.4071579 41.3487719,22.504 40.5207018,19.786807" id="Fill-19" fill="#D83751"></path>
                        <path d="M11.6582456,27.5828772 L8.22666667,27.5828772 C9.29614035,29.8832281 11.242807,34.746386 11.5684211,39.8818246 L16.6884211,34.7618246 C16.6659649,29.7400702 12.5059649,27.8944561 11.6582456,27.5828772" id="Fill-21" fill="#D83751"></path>
                        <path d="M39.1007719,27.613614 C34.9070877,29.5743158 34.6923509,33.9083509 34.7204211,35.1658947 L41.7941053,40.645193 C41.0614737,38.0150175 40.5590175,34.4557193 41.829193,31.3258947 C42.4397193,29.8241404 43.4067368,28.5792281 44.6979649,27.5827368 L39.1681404,27.5827368 L39.1007719,27.613614 Z" id="Fill-23" fill="#D83751"></path>
                        <path d="M44.4844912,9.84842105 C42.0957193,13.3263158 41.3111579,16.4968421 42.1546667,19.2785965 C43.2915088,23.0315789 47.0837895,25.0821053 48.2669474,25.6421053 L52.3694035,25.6421053 C52.130807,19.1410526 49.5343158,13.2533333 45.3939649,8.79859649 L44.7918596,9.40210526 L44.4844912,9.84842105 Z" id="Fill-25" fill="#D83751"></path>
                        <path d="M27.2394386,42.9625263 L27.1790877,43.4060351 L27.1790877,46.914807 C29.386807,44.4109474 33.8401404,41.0762105 40.8857544,42.3969123 L33.2492632,36.4811228 C28.1713684,36.8825263 27.2731228,42.7000702 27.2394386,42.9625263" id="Fill-27" fill="#D83751"></path>
                        <path d="M30.0162807,16.9879298 C32.2604912,17.6882807 34.9061053,16.2314386 35.7187368,15.730386 L40.4204912,11.0286316 C36.6001404,11.7514386 30.6955789,12.3030175 27.1797895,9.96196491 L27.1797895,13.8735439 L27.1910175,13.9072281 C27.821193,15.5633684 28.7699649,16.6005614 30.0162807,16.9879298" id="Fill-29" fill="#D83751"></path>
                        <path d="M17.7301053,36.4637193 L13.3160702,40.8777544 C15.8522105,41.1795088 19.9953684,42.6138947 25.2388772,47.541614 L25.2388772,41.7324912 C23.2739649,36.3163509 18.4697544,36.4075789 17.7301053,36.4637193" id="Fill-31" fill="#D83751"></path>
                        <g id="Group-35" transform="translate(0.000000, 0.076211)">
                            <mask id="mask-2" fill="white">
                                <use xlink:href="#path-1"></use>
                            </mask>
                            <g id="Clip-34"></g>
                            <path d="M38.7882105,25.5664561 C37.7608421,24.1797895 35.7454035,21.1257544 35.9447018,18.7215439 C35.9671579,18.4422456 36.064,18.2106667 36.146807,17.9692632 L40.7545263,13.3615439 C40.0148772,15.5931228 39.9138246,17.7208421 40.5201404,19.7110175 C41.3482105,22.4282105 43.264,24.3299649 44.9580351,25.5664561 L38.7882105,25.5664561 Z M41.829614,31.2492632 C40.5594386,34.3790877 41.0618947,37.938386 41.7945263,40.5685614 L34.7208421,35.0892632 C34.6927719,33.8317193 34.9061053,29.4976842 39.101193,27.5369825 L39.1685614,27.5061053 L44.698386,27.5061053 C43.4071579,28.5025965 42.4401404,29.7475088 41.829614,31.2492632 L41.829614,31.2492632 Z M27.1797895,46.8394386 L27.1797895,43.3306667 L27.2387368,42.8857544 C27.2738246,42.6247018 28.1720702,36.8071579 33.2499649,36.4043509 L40.8850526,42.3201404 C33.8408421,40.9994386 29.3875088,44.3355789 27.1797895,46.8394386 L27.1797895,46.8394386 Z M27.1797895,9.88505263 C30.6955789,12.2275088 36.6001404,11.6759298 40.4204912,10.9531228 L35.7187368,15.6548772 C34.9061053,16.1545263 32.2604912,17.6113684 30.0162807,16.9110175 C28.7699649,16.5250526 27.821193,15.4878596 27.1910175,13.8303158 L27.1797895,13.7966316 L27.1797895,9.88505263 Z M25.2387368,14.4885614 C24.298386,15.5931228 21.9208421,17.4050526 17.1320702,16.0885614 L11.5461053,10.501193 C17.3482105,11.304 22.8317193,9.89066667 25.2387368,9.11031579 L25.2387368,14.4885614 Z M25.2387368,47.4654035 C19.9952281,42.5376842 15.8520702,41.1032982 13.3173333,40.8001404 L17.7299649,36.3875088 C18.469614,36.3313684 23.2738246,36.2401404 25.2387368,41.6562807 L25.2387368,47.4654035 Z M11.5671579,39.8050526 C11.2429474,34.669614 9.2962807,29.8064561 8.22680702,27.5061053 L11.658386,27.5061053 C12.5061053,27.8176842 16.6661053,29.6632982 16.6885614,34.6850526 L11.5671579,39.8050526 Z M10.218386,11.9173333 L16.2464561,17.946807 C16.5566316,19.5889123 16.5875088,23.2408421 12.0934737,25.5664561 L8.4485614,25.5664561 C11.3580351,20.8169825 10.949614,15.3250526 10.218386,11.9173333 L10.218386,11.9173333 Z M52.3699649,25.5664561 L48.2675088,25.5664561 C47.0829474,25.0050526 43.2920702,22.9545263 42.1538246,19.2015439 C41.3117193,16.421193 42.0948772,13.2492632 44.4850526,9.77277193 L44.7910175,9.32505263 L45.3945263,8.72294737 C44.9552281,8.2485614 44.4976842,7.79101754 44.0218947,7.35031579 L42.6773333,8.6962807 C38.6590877,9.75733333 30.1678596,11.0920702 27.1797895,7.61136842 L27.1797895,0.376280702 C26.8541754,0.363649123 26.5369825,0.327157895 26.2085614,0.327157895 C25.8815439,0.327157895 25.5629474,0.363649123 25.2387368,0.376280702 L25.2387368,7.30259649 C23.1489123,8.01838596 16.0457544,10.0927719 9.35803509,8.31452632 L8.39522807,7.35031579 C7.92084211,7.79101754 7.46470175,8.2485614 7.02259649,8.72294737 L7.75803509,9.45698246 C8.04014035,10.2148772 11.1517193,19.1075088 6.39663158,25.5664561 L0.0485614035,25.5664561 C0.0373333333,25.8906667 -0.000561403509,26.2092632 -0.000561403509,26.5362807 C-0.000561403509,26.8632982 0.0373333333,27.1818947 0.0485614035,27.5061053 L6.32364912,27.5061053 C7.20785965,29.3025965 9.98680702,35.4499649 9.91242105,41.461193 L7.02259649,44.3510175 C7.46470175,44.8254035 7.92084211,45.2815439 8.39522807,45.7222456 L11.664,42.4520702 C13.3482105,42.3397895 18.2815439,42.7748772 25.2387368,49.8359298 L25.2387368,52.6962807 C25.5629474,52.7089123 25.8815439,52.7454035 26.2085614,52.7454035 C26.5369825,52.7454035 26.8541754,52.7089123 27.1797895,52.6962807 L27.1797895,49.624 C28.2015439,47.9271579 33.1769825,40.8969825 43.6724211,44.8001404 L44.4682105,45.0948772 L44.6001404,45.1973333 C45.0632982,44.741193 45.4955789,44.2569825 45.9236491,43.7685614 L44.2338246,42.4604912 C43.3875088,40.3201404 41.901193,35.6155789 43.4169825,31.8878596 C44.2352281,29.8766316 45.8773333,28.4169825 48.2506667,27.5061053 L52.3699649,27.5061053 C52.381193,27.1818947 52.4176842,26.8632982 52.4176842,26.5362807 C52.4176842,26.2092632 52.381193,25.8906667 52.3699649,25.5664561 L52.3699649,25.5664561 Z" id="Fill-33" fill="#FEFEFE" mask="url(#mask-2)"></path>
                        </g>
                        <polygon id="Fill-36" fill="#D83751" points="18.1727719 26.6124912 26.2092632 18.576 34.2457544 26.6124912 26.2092632 34.650386"></polygon>
                        <polygon id="Fill-38" fill="#762E3B" points="26.2087018 18.5758596 26.2087018 34.6502456 34.2465965 26.6123509"></polygon>
                        <path d="M199.122667,43.1317895 C198.34793,43.1317895 197.696702,42.8609123 197.168982,42.3177544 C196.641263,41.776 196.378807,41.1317895 196.378807,40.3879298 L196.378807,16.2265263 C196.378807,16.0089825 196.255298,15.9009123 196.006877,15.9009123 L188.380211,15.9009123 C187.75986,15.9009123 187.223719,15.6763509 186.776,15.2272281 C186.326877,14.7767018 186.102316,14.2265263 186.102316,13.5752982 C186.102316,12.9240702 186.326877,12.3738947 186.776,11.9247719 C187.223719,11.4756491 187.75986,11.2510877 188.380211,11.2510877 L209.911439,11.2510877 C210.562667,11.2510877 211.112842,11.4756491 211.563368,11.9247719 C212.012491,12.3738947 212.238456,12.9240702 212.238456,13.5752982 C212.238456,14.2265263 212.012491,14.7767018 211.563368,15.2272281 C211.112842,15.6763509 210.562667,15.9009123 209.911439,15.9009123 L202.23986,15.9009123 C202.020912,15.9009123 201.912842,16.0089825 201.912842,16.2265263 L201.912842,40.3879298 C201.912842,41.1317895 201.641965,41.776 201.098807,42.3177544 C200.555649,42.8609123 199.912842,43.1317895 199.168982,43.1317895 L199.122667,43.1317895 Z" id="Fill-40" fill="#D83751"></path>
                        <g id="Group-44" transform="translate(211.929825, 10.304281)">
                            <mask id="mask-4" fill="white">
                                <use xlink:href="#path-3"></use>
                            </mask>
                            <g id="Clip-43"></g>
                            <path d="M23.0686316,14.7285614 C21.3002105,13.2366316 19.0335439,12.2948772 16.5619649,12.2836491 C16.5465263,12.2836491 7.20617544,12.2808421 7.20617544,12.2808421 L7.20477193,5.62961404 C7.20477193,5.62961404 21.2047719,5.62961404 21.2637193,5.62961404 C22.5605614,5.62961404 23.6047719,4.57838596 23.6047719,3.28294737 C23.6047719,1.98610526 22.5535439,0.934877193 21.2567018,0.934877193 L2.51845614,0.934877193 L2.50582456,17.0401404 C2.50582456,17.0401404 16.6924912,17.0443509 16.7317895,17.0471579 C19.4237193,17.1861053 21.5907368,19.9945263 21.5907368,22.5025965 C21.5907368,24.9447018 19.5345965,27.9327719 16.9423158,28.1503158 C16.8552982,28.1629474 2.66582456,28.1461053 2.61670175,28.1517193 C1.38863158,28.2275088 0.309333333,29.2520702 0.309333333,30.498386 C0.309333333,30.5390877 0.306526316,30.5587368 0.309333333,30.5994386 C0.383719298,31.8373333 1.5682807,32.8450526 2.82301754,32.8450526 C2.96196491,32.8450526 16.5142456,32.8282105 16.5142456,32.8282105 C18.9128421,32.8282105 21.1163509,32.0450526 22.8651228,30.7538246 C25.2440702,28.9980351 26.7781053,25.5103158 26.7781053,22.5025965 C26.7781053,19.5804912 25.3324912,16.6401404 23.0686316,14.7285614" id="Fill-42" fill="#D83751" mask="url(#mask-4)"></path>
                        </g>
                        <path d="M116.020912,14.4228772 C116.55986,14.4228772 116.999158,13.9821754 116.999158,13.4446316 C116.999158,12.9056842 116.55986,12.466386 116.020912,12.466386 L95.333193,12.466386 C95.1984561,12.466386 95.0693333,12.4930526 94.9528421,12.5435789 C94.6019649,12.6923509 94.3535439,13.0404211 94.3535439,13.4446316 L94.3535439,42.1534035 C94.3535439,42.2881404 94.381614,42.4158596 94.4321404,42.5323509 C94.5809123,42.8832281 94.930386,43.1316491 95.333193,43.1316491 L116.020912,43.1316491 C116.55986,43.1316491 116.999158,42.6909474 116.999158,42.1534035 C116.999158,41.6158596 116.55986,41.1751579 116.020912,41.1751579 L96.3114386,41.1751579 L96.3114386,27.5877895 L114.819509,27.5877895 C115.310737,27.5877895 115.713544,27.1849825 115.713544,26.6937544 L115.713544,26.5253333 C115.713544,26.0341053 115.310737,25.6312982 114.819509,25.6312982 L96.3114386,25.6312982 L96.3114386,14.4228772 L116.020912,14.4228772 Z" id="Fill-45" fill="#4C433F"></path>
                        <path d="M88.773193,12.466386 L61.4637193,12.466386 C60.9261754,12.466386 60.4854737,12.9056842 60.4854737,13.4446316 C60.4854737,13.9821754 60.9261754,14.4228772 61.4637193,14.4228772 L74.1402105,14.4228772 L74.1402105,42.1534035 C74.1402105,42.6909474 74.5809123,43.1316491 75.1184561,43.1316491 C75.656,43.1316491 76.0967018,42.6909474 76.0967018,42.1534035 L76.0967018,14.4228772 L88.773193,14.4228772 C89.3107368,14.4228772 89.7514386,13.9821754 89.7514386,13.4446316 C89.7514386,12.9056842 89.3107368,12.466386 88.773193,12.466386" id="Fill-47" fill="#4C433F"></path>
                        <path d="M128.890947,31.1032982 L136.336561,15.1369825 L143.780772,31.1032982 L128.890947,31.1032982 Z M137.331649,12.6401404 C137.150596,12.2513684 136.742175,12.0492632 136.336561,12.0941754 C135.930947,12.0492632 135.522526,12.2513684 135.341474,12.6401404 L121.786386,41.7082105 C121.557614,42.1966316 121.772351,42.7804912 122.259368,43.0078596 C122.746386,43.2366316 123.331649,43.0232982 123.559018,42.5362807 L127.978667,33.0597895 L144.694456,33.0597895 L149.112702,42.5362807 C149.34007,43.0232982 149.92393,43.2366316 150.412351,43.0078596 C150.900772,42.7804912 151.112702,42.1966316 150.885333,41.7082105 L137.331649,12.6401404 Z" id="Fill-49" fill="#4C433F"></path>
                        <path d="M180.076632,11.7159298 L180.066807,11.7159298 C179.760842,11.7159298 179.499789,11.8675088 179.32014,12.0892632 C179.266807,12.1454035 179.206456,12.1945263 179.165754,12.2647018 L168.311018,31.0632982 L157.533474,12.3938246 C157.414175,11.9910175 157.054877,11.6892632 156.614175,11.6892632 L156.604351,11.6892632 C156.069614,11.6892632 155.631719,12.1271579 155.631719,12.6618947 L155.631719,42.1313684 C155.631719,42.6675088 156.069614,43.1054035 156.604351,43.1054035 L156.614175,43.1054035 C157.150316,43.1054035 157.588211,42.6675088 157.588211,42.1313684 L157.588211,16.4008421 L167.461895,33.5025965 C167.474526,33.5292632 167.501193,33.5432982 167.518035,33.5657544 C167.541895,33.6022456 167.574175,33.6317193 167.603649,33.664 C167.661193,33.7257544 167.718737,33.7832982 167.788912,33.826807 C167.802947,33.8366316 167.811368,33.8520702 167.825404,33.8604912 C167.857684,33.8787368 167.891368,33.8801404 167.925053,33.8941754 C167.992421,33.9236491 168.058386,33.9489123 168.129965,33.9629474 C168.191719,33.9741754 168.250667,33.9755789 168.311018,33.9755789 C168.372772,33.9755789 168.431719,33.9741754 168.493474,33.9629474 C168.565053,33.9489123 168.631018,33.9236491 168.699789,33.8941754 C168.730667,33.8801404 168.765754,33.8787368 168.798035,33.8604912 C168.813474,33.8520702 168.820491,33.8366316 168.834526,33.826807 C168.904702,33.7832982 168.962246,33.7257544 169.019789,33.664 C169.050667,33.6317193 169.081544,33.6022456 169.106807,33.5657544 C169.122246,33.5432982 169.147509,33.5292632 169.162947,33.5025965 L179.094175,16.3025965 L179.094175,42.1580351 C179.094175,42.6941754 179.530667,43.1320702 180.066807,43.1320702 L180.076632,43.1320702 C180.612772,43.1320702 181.049263,42.6941754 181.049263,42.1580351 L181.049263,12.6885614 C181.049263,12.1538246 180.612772,11.7159298 180.076632,11.7159298" id="Fill-51" fill="#4C433F"></path>
                        <path d="M37.7534035,73.0797193 L37.7534035,73.0797193 C37.4193684,73.0797193 37.1442807,72.8060351 37.1442807,72.472 L37.1442807,65.4614737 C37.1442807,65.1260351 37.4193684,64.8537544 37.7534035,64.8537544 C38.0874386,64.8537544 38.3611228,65.1260351 38.3611228,65.4614737 L38.3611228,72.472 C38.3611228,72.8060351 38.0874386,73.0797193 37.7534035,73.0797193" id="Fill-53" fill="#4C433F"></path>
                        <path d="M36.8433684,62.7583158 L36.8433684,62.7583158 C36.8433684,62.2909474 37.2251228,61.909193 37.6910877,61.909193 L37.813193,61.909193 C38.2805614,61.909193 38.6637193,62.2909474 38.6637193,62.7583158 C38.6637193,63.2256842 38.2805614,63.6060351 37.813193,63.6060351 L37.6910877,63.6060351 C37.2251228,63.6060351 36.8433684,63.2256842 36.8433684,62.7583158" id="Fill-55" fill="#4C433F"></path>
                        <path d="M51.3950877,65.9716491 C51.7291228,65.9716491 52.0042105,65.6979649 52.0042105,65.3625263 C52.0042105,65.0284912 51.7291228,64.754807 51.3950877,64.754807 L49.7361404,64.754807 L49.7361404,63.0902456 C49.7361404,62.754807 49.4638596,62.4811228 49.1298246,62.4811228 C48.794386,62.4811228 48.5207018,62.754807 48.5207018,63.0902456 L48.5207018,64.754807 L47.8708772,64.754807 C47.5368421,64.754807 47.2645614,65.0284912 47.2645614,65.3625263 C47.2645614,65.6979649 47.5368421,65.9716491 47.8708772,65.9716491 L48.5207018,65.9716491 L48.5207018,72.4712982 C48.5207018,72.8067368 48.794386,73.0790175 49.1298246,73.0790175 L50.8322807,73.0790175 C51.1663158,73.0790175 51.4385965,72.8067368 51.4385965,72.4712982 C51.4385965,72.1372632 51.1663158,71.8635789 50.8322807,71.8635789 L49.7361404,71.8635789 L49.7361404,65.9716491 L51.3950877,65.9716491 Z" id="Fill-57" fill="#4C433F"></path>
                        <path d="M72.8425263,65.9716491 C73.1765614,65.9716491 73.4516491,65.6979649 73.4516491,65.3625263 C73.4516491,65.0284912 73.1765614,64.754807 72.8425263,64.754807 L71.1835789,64.754807 L71.1835789,63.0902456 C71.1835789,62.754807 70.9112982,62.4811228 70.5772632,62.4811228 C70.2418246,62.4811228 69.9681404,62.754807 69.9681404,63.0902456 L69.9681404,64.754807 L69.3183158,64.754807 C68.9842807,64.754807 68.712,65.0284912 68.712,65.3625263 C68.712,65.6979649 68.9842807,65.9716491 69.3183158,65.9716491 L69.9681404,65.9716491 L69.9681404,72.4712982 C69.9681404,72.8067368 70.2418246,73.0790175 70.5772632,73.0790175 L72.2797193,73.0790175 C72.6137544,73.0790175 72.8860351,72.8067368 72.8860351,72.4712982 C72.8860351,72.1372632 72.6137544,71.8635789 72.2797193,71.8635789 L71.1835789,71.8635789 L71.1835789,65.9716491 L72.8425263,65.9716491 Z" id="Fill-59" fill="#4C433F"></path>
                        <path d="M173.785404,65.9716491 C174.299088,65.9716491 174.714526,65.5562105 174.714526,65.0425263 C174.714526,64.5302456 174.299088,64.112 173.785404,64.112 L172.449263,64.112 L172.449263,62.7674386 C172.449263,62.2551579 172.032421,61.8383158 171.52014,61.8383158 C171.006456,61.8383158 170.591018,62.2551579 170.591018,62.7674386 L170.591018,64.112 L170.262596,64.112 C169.748912,64.112 169.333474,64.5302456 169.333474,65.0425263 C169.333474,65.5562105 169.748912,65.9716491 170.262596,65.9716491 L170.591018,65.9716491 L170.591018,72.1512982 C170.591018,72.6649825 171.006456,73.0790175 171.52014,73.0790175 L173.221193,73.0790175 C173.733474,73.0790175 174.148912,72.6649825 174.148912,72.1512982 C174.148912,71.637614 173.733474,71.2207719 173.221193,71.2207719 L172.449263,71.2207719 L172.449263,65.9716491 L173.785404,65.9716491 Z" id="Fill-61" fill="#D83751"></path>
                        <path d="M211.425263,65.9716491 C211.938947,65.9716491 212.354386,65.5562105 212.354386,65.0425263 C212.354386,64.5302456 211.938947,64.112 211.425263,64.112 L210.087719,64.112 L210.087719,62.7674386 C210.087719,62.2551579 209.672281,61.8383158 209.16,61.8383158 C208.646316,61.8383158 208.230877,62.2551579 208.230877,62.7674386 L208.230877,64.112 L207.901053,64.112 C207.388772,64.112 206.973333,64.5302456 206.973333,65.0425263 C206.973333,65.5562105 207.388772,65.9716491 207.901053,65.9716491 L208.230877,65.9716491 L208.230877,72.1512982 C208.230877,72.6649825 208.646316,73.0790175 209.16,73.0790175 L210.859649,73.0790175 C211.373333,73.0790175 211.788772,72.6649825 211.788772,72.1512982 C211.788772,71.637614 211.373333,71.2207719 210.859649,71.2207719 L210.087719,71.2207719 L210.087719,65.9716491 L211.425263,65.9716491 Z" id="Fill-63" fill="#D83751"></path>
                        <path d="M13.9677193,65.5009123 C13.9677193,66.6054737 13.0526316,67.5093333 11.9312281,67.5093333 L9.64070175,67.5093333 C9.4722807,67.5093333 9.37684211,67.4868772 9.24912281,67.4728421 L9.24912281,63.0251228 C9.37403509,63.0152982 9.48491228,63.0026667 9.64070175,63.0026667 L11.9312281,63.0026667 C13.0526316,63.0026667 13.9677193,63.9051228 13.9677193,65.0096842 L13.9677193,65.5009123 Z M12.0589474,61.9093333 L8.64,61.9093333 C8.30596491,61.9093333 8.0322807,62.1830175 8.0322807,62.5170526 L8.0322807,72.4721404 C8.0322807,72.8061754 8.30596491,73.0798596 8.64,73.0798596 C8.97403509,73.0798596 9.24912281,72.8061754 9.24912281,72.4721404 L9.24912281,68.5535439 L12.0589474,68.5535439 C13.7838596,68.5535439 15.194386,67.141614 15.194386,65.4167018 L15.194386,65.0447719 C15.194386,63.3198596 13.7838596,61.9093333 12.0589474,61.9093333 L12.0589474,61.9093333 Z" id="Fill-65" fill="#4C433F"></path>
                        <path d="M19.2884211,65.5632281 L19.6687719,65.5632281 C21.0161404,65.5632281 22.1136842,66.6607719 22.1136842,68.0109474 L22.1136842,68.4670877 L16.8407018,68.4670877 L16.8407018,68.0109474 C16.8407018,66.6607719 17.9368421,65.5632281 19.2884211,65.5632281 M19.6687719,64.4909474 L19.2884211,64.4909474 C17.3459649,64.4909474 15.7642105,66.0698947 15.7642105,68.0109474 L15.7642105,69.5604211 C15.7642105,71.5014737 17.3459649,73.0790175 19.2884211,73.0790175 L19.6687719,73.0790175 C20.8350877,73.0790175 21.9284211,72.4979649 22.5852632,71.5267368 C22.7522807,71.2811228 22.6863158,70.9470877 22.4407018,70.7814737 C22.2035088,70.6186667 21.8610526,70.677614 21.6982456,70.9246316 C21.2364912,71.6025263 20.48,72.0081404 19.6687719,72.0081404 L19.2884211,72.0081404 C17.9803509,72.0081404 16.9333333,70.9723509 16.8645614,69.6839298 L22.5810526,69.6839298 C22.7677193,69.6839298 22.9192982,69.5884912 23.0301754,69.4551579 C23.1284211,69.3583158 23.1887719,69.2249825 23.1887719,69.0762105 L23.1887719,68.0109474 C23.1887719,66.0698947 21.6098246,64.4909474 19.6687719,64.4909474" id="Fill-67" fill="#4C433F"></path>
                        <path d="M56.4252632,65.5632281 L56.805614,65.5632281 C58.1529825,65.5632281 59.2505263,66.6607719 59.2505263,68.0109474 L59.2505263,68.4670877 L53.9775439,68.4670877 L53.9775439,68.0109474 C53.9775439,66.6607719 55.0736842,65.5632281 56.4252632,65.5632281 M56.805614,64.4909474 L56.4252632,64.4909474 C54.482807,64.4909474 52.9010526,66.0698947 52.9010526,68.0109474 L52.9010526,69.5604211 C52.9010526,71.5014737 54.482807,73.0790175 56.4252632,73.0790175 L56.805614,73.0790175 C57.9719298,73.0790175 59.0652632,72.4979649 59.7221053,71.5267368 C59.8891228,71.2811228 59.8231579,70.9470877 59.5775439,70.7814737 C59.3403509,70.6186667 58.9978947,70.677614 58.8336842,70.9246316 C58.3733333,71.6025263 57.6154386,72.0081404 56.805614,72.0081404 L56.4252632,72.0081404 C55.117193,72.0081404 54.0701754,70.9723509 54.0014035,69.6839298 L59.7178947,69.6839298 C59.9045614,69.6839298 60.0561404,69.5884912 60.1670175,69.4551579 C60.2638596,69.3583158 60.3242105,69.2249825 60.3242105,69.0762105 L60.3242105,68.0109474 C60.3242105,66.0698947 58.7466667,64.4909474 56.805614,64.4909474" id="Fill-69" fill="#4C433F"></path>
                        <path d="M115.30414,67.8940351 L115.30414,68.1733333 L110.602386,68.1733333 L110.602386,67.8940351 C110.602386,66.7010526 111.575018,65.562807 112.763789,65.562807 L113.145544,65.562807 C114.337123,65.562807 115.30414,66.7010526 115.30414,67.8940351 M113.145544,63.9178947 L112.763789,63.9178947 C110.662737,63.9178947 108.95607,65.6259649 108.95607,67.7242105 L108.95607,69.2736842 C108.95607,71.3719298 110.662737,73.08 112.763789,73.08 L113.145544,73.08 C114.408702,73.08 116.101333,72.5957895 116.810105,71.5459649 C116.933614,71.3649123 116.978526,71.1473684 116.936421,70.9312281 C116.898526,70.7150877 116.772211,70.525614 116.593965,70.4049123 C116.417123,70.2842105 116.25993,70.2940351 116.042386,70.3389474 C115.826246,70.3796491 115.638175,70.5045614 115.518877,70.6842105 C115.110456,71.2835088 113.861333,71.4350877 113.145544,71.4350877 L112.763789,71.4350877 C111.728,71.4350877 110.857825,70.6884211 110.665544,69.6835088 L116.057825,69.6835088 C116.313263,69.6835088 116.547649,69.5684211 116.707649,69.3733333 C116.864842,69.2189474 116.95186,69.0112281 116.95186,68.7894737 L116.95186,67.7242105 C116.95186,65.6259649 115.243789,63.9178947 113.145544,63.9178947" id="Fill-71" fill="#D83751"></path>
                        <path d="M157.055719,67.8940351 L157.055719,68.1733333 L152.355368,68.1733333 L152.355368,67.8940351 C152.355368,66.7010526 153.326596,65.562807 154.516772,65.562807 L154.897123,65.562807 C156.088702,65.562807 157.055719,66.7010526 157.055719,67.8940351 M154.897123,63.9178947 L154.516772,63.9178947 C152.414316,63.9178947 150.707649,65.6259649 150.707649,67.7242105 L150.707649,69.2736842 C150.707649,71.3719298 152.414316,73.08 154.516772,73.08 L154.897123,73.08 C156.161684,73.08 157.852912,72.5957895 158.563088,71.5459649 C158.685193,71.3649123 158.730105,71.1473684 158.688,70.9312281 C158.650105,70.7150877 158.525193,70.525614 158.346947,70.4049123 C158.168702,70.2842105 158.011509,70.2940351 157.793965,70.3389474 C157.577825,70.3796491 157.389754,70.5045614 157.270456,70.6842105 C156.862035,71.2835088 155.614316,71.4350877 154.897123,71.4350877 L154.516772,71.4350877 C153.479579,71.4350877 152.610807,70.6884211 152.417123,69.6835088 L157.809404,69.6835088 C158.064842,69.6835088 158.299228,69.5684211 158.459228,69.3733333 C158.616421,69.2189474 158.703439,69.0112281 158.703439,68.7894737 L158.703439,67.7242105 C158.703439,65.6259649 156.996772,63.9178947 154.897123,63.9178947" id="Fill-73" fill="#D83751"></path>
                        <path d="M219.555789,67.8940351 L219.555789,68.1733333 L214.855439,68.1733333 L214.855439,67.8940351 C214.855439,66.7010526 215.826667,65.562807 217.016842,65.562807 L217.398596,65.562807 C218.588772,65.562807 219.555789,66.7010526 219.555789,67.8940351 M217.398596,63.9178947 L217.016842,63.9178947 C214.914386,63.9178947 213.207719,65.6259649 213.207719,67.7242105 L213.207719,69.2736842 C213.207719,71.3719298 214.914386,73.08 217.016842,73.08 L217.398596,73.08 C218.661754,73.08 220.354386,72.5957895 221.063158,71.5459649 C221.185263,71.3649123 221.230175,71.1473684 221.189474,70.9312281 C221.151579,70.7150877 221.025263,70.525614 220.847018,70.4049123 C220.668772,70.2842105 220.511579,70.2940351 220.294035,70.3389474 C220.079298,70.3796491 219.889825,70.5045614 219.770526,70.6842105 C219.362105,71.2835088 218.114386,71.4350877 217.398596,71.4350877 L217.016842,71.4350877 C215.979649,71.4350877 215.110877,70.6884211 214.918596,69.6835088 L220.309474,69.6835088 C220.564912,69.6835088 220.799298,69.5684211 220.959298,69.3733333 C221.116491,69.2189474 221.204912,69.0112281 221.204912,68.7894737 L221.204912,67.7242105 C221.204912,65.6259649 219.496842,63.9178947 217.398596,63.9178947" id="Fill-75" fill="#D83751"></path>
                        <path d="M27.9973333,64.7730526 C27.069614,64.7730526 26.2387368,65.149193 25.6085614,65.7344561 L25.6085614,65.0986667 C25.6085614,64.7646316 25.3348772,64.4909474 25.0008421,64.4909474 C24.6654035,64.4909474 24.3931228,64.7646316 24.3931228,65.0986667 L24.3931228,72.4712982 C24.3931228,72.8067368 24.6654035,73.0790175 25.0008421,73.0790175 C25.3348772,73.0790175 25.6085614,72.8067368 25.6085614,72.4712982 L25.6085614,67.9590175 C25.784,66.7730526 26.7650526,65.8453333 27.9973333,65.8453333 C28.2934737,65.8453333 28.5348772,65.6053333 28.5348772,65.309193 C28.5348772,65.0116491 28.2934737,64.7730526 27.9973333,64.7730526" id="Fill-77" fill="#4C433F"></path>
                        <path d="M122.428491,63.9507368 C121.628491,63.9507368 120.925333,64.2609123 120.317614,64.6945965 C120.278316,64.2286316 119.909193,63.8482807 119.432,63.8482807 C118.930947,63.8482807 118.521123,64.2595088 118.521123,64.7605614 L118.521123,72.1668772 C118.521123,72.6693333 118.930947,73.0791579 119.432,73.0791579 C119.93586,73.0791579 120.345684,72.6693333 120.345684,72.1668772 L120.345684,66.7521404 C120.699368,65.9479298 121.496561,65.3823158 122.428491,65.3823158 C122.822877,65.3823158 123.145684,65.0609123 123.145684,64.6665263 C123.145684,64.2721404 122.822877,63.9507368 122.428491,63.9507368" id="Fill-79" fill="#D83751"></path>
                        <path d="M149.580351,63.9507368 C148.778947,63.9507368 148.075789,64.2609123 147.46807,64.6945965 C147.428772,64.2286316 147.059649,63.8482807 146.58386,63.8482807 C146.082807,63.8482807 145.671579,64.2595088 145.671579,64.7605614 L145.671579,72.1668772 C145.671579,72.6693333 146.082807,73.0791579 146.58386,73.0791579 C147.086316,73.0791579 147.49614,72.6693333 147.49614,72.1668772 L147.49614,66.7521404 C147.849825,65.9479298 148.648421,65.3823158 149.580351,65.3823158 C149.974737,65.3823158 150.29614,65.0609123 150.29614,64.6665263 C150.29614,64.2721404 149.974737,63.9507368 149.580351,63.9507368" id="Fill-81" fill="#D83751"></path>
                        <path d="M226.510175,63.9507368 C225.710175,63.9507368 225.007018,64.2609123 224.399298,64.6945965 C224.36,64.2286316 223.990877,63.8482807 223.513684,63.8482807 C223.012632,63.8482807 222.602807,64.2595088 222.602807,64.7605614 L222.602807,72.1668772 C222.602807,72.6693333 223.012632,73.0791579 223.513684,73.0791579 C224.01614,73.0791579 224.427368,72.6693333 224.427368,72.1668772 L224.427368,66.7521404 C224.779649,65.9479298 225.578246,65.3823158 226.510175,65.3823158 C226.904561,65.3823158 227.227368,65.0609123 227.227368,64.6665263 C227.227368,64.2721404 226.904561,63.9507368 226.510175,63.9507368" id="Fill-83" fill="#D83751"></path>
                        <path d="M33.5414737,68.218807 L32.9618246,68.218807 L32.234807,68.218807 L31.6453333,68.218807 C30.8986667,68.218807 30.2909474,67.6096842 30.2909474,66.8602105 C30.2909474,66.1121404 30.8986667,65.501614 31.6453333,65.501614 L33.6537544,65.501614 C33.9498947,65.501614 34.1912982,65.2630175 34.1912982,64.9668772 C34.1912982,64.6693333 33.9498947,64.4293333 33.6537544,64.4293333 L31.6453333,64.4293333 C30.3049825,64.4293333 29.2158596,65.5198596 29.2158596,66.8602105 C29.2158596,68.2019649 30.3049825,69.2910877 31.6453333,69.2910877 L32.234807,69.2910877 L32.9618246,69.2910877 L33.5414737,69.2910877 C34.2923509,69.2910877 34.9000702,69.9002105 34.9000702,70.6496842 C34.9000702,71.3991579 34.2923509,72.0082807 33.5414737,72.0082807 L29.7534035,72.0082807 C29.4558596,72.0082807 29.2158596,72.2468772 29.2158596,72.5444211 C29.2158596,72.8405614 29.4558596,73.0791579 29.7534035,73.0791579 L33.5414737,73.0791579 C34.8832281,73.0791579 35.9751579,71.9900351 35.9751579,70.6496842 C35.9751579,69.3079298 34.8832281,68.218807 33.5414737,68.218807" id="Fill-85" fill="#4C433F"></path>
                        <path d="M44.2734035,68.218807 L43.6937544,68.218807 L42.9667368,68.218807 L42.3772632,68.218807 C41.629193,68.218807 41.0228772,67.6096842 41.0228772,66.8602105 C41.0228772,66.1121404 41.629193,65.501614 42.3772632,65.501614 L44.3856842,65.501614 C44.6818246,65.501614 44.9232281,65.2630175 44.9232281,64.9668772 C44.9232281,64.6693333 44.6818246,64.4293333 44.3856842,64.4293333 L42.3772632,64.4293333 C41.0355088,64.4293333 39.946386,65.5198596 39.946386,66.8602105 C39.946386,68.2019649 41.0355088,69.2910877 42.3772632,69.2910877 L42.9667368,69.2910877 L43.6937544,69.2910877 L44.2734035,69.2910877 C45.0242807,69.2910877 45.632,69.9002105 45.632,70.6496842 C45.632,71.3991579 45.0242807,72.0082807 44.2734035,72.0082807 L40.4853333,72.0082807 C40.1877895,72.0082807 39.946386,72.2468772 39.946386,72.5444211 C39.946386,72.8405614 40.1877895,73.0791579 40.4853333,73.0791579 L44.2734035,73.0791579 C45.6137544,73.0791579 46.7070877,71.9900351 46.7070877,70.6496842 C46.7070877,69.3079298 45.6137544,68.218807 44.2734035,68.218807" id="Fill-87" fill="#4C433F"></path>
                        <path d="M232.832842,67.576 L230.935298,67.576 C230.366877,67.576 229.902316,67.1100351 229.902316,66.538807 C229.902316,65.9675789 230.366877,65.501614 230.935298,65.501614 L232.943719,65.501614 C233.419509,65.501614 233.802667,65.1184561 233.802667,64.6454737 C233.802667,64.1710877 233.419509,63.7879298 232.943719,63.7879298 L230.935298,63.7879298 C229.416702,63.7879298 228.184421,65.021614 228.184421,66.538807 C228.184421,68.056 229.416702,69.2910877 230.935298,69.2910877 L232.832842,69.2910877 C233.40407,69.2910877 233.868632,69.7570526 233.868632,70.3282807 C233.868632,70.8995088 233.40407,71.3654737 232.832842,71.3654737 L229.043368,71.3654737 C228.568982,71.3654737 228.184421,71.7500351 228.184421,72.2230175 C228.184421,72.696 228.568982,73.0791579 229.043368,73.0791579 L232.832842,73.0791579 C234.351439,73.0791579 235.58793,71.8454737 235.58793,70.3282807 C235.58793,68.8110877 234.351439,67.576 232.832842,67.576" id="Fill-89" fill="#D83751"></path>
                        <path d="M67.9178947,67.2298947 C67.8561404,65.506386 66.4259649,64.4551579 64.7459649,64.4551579 C63.9178947,64.4551579 63.1810526,64.7723509 62.6084211,65.2565614 C62.5396491,64.9955088 62.3375439,64.7849825 62.0568421,64.7849825 C61.722807,64.7849825 61.4491228,65.0600702 61.4491228,65.3941053 L61.4491228,72.4256842 C61.4491228,72.7597193 61.722807,73.0334035 62.0568421,73.0334035 C62.3908772,73.0334035 62.6659649,72.7597193 62.6659649,72.4256842 L62.6659649,67.1793684 C62.8385965,66.2502456 63.6821053,65.5274386 64.7459649,65.5274386 C65.9333333,65.5274386 66.9003509,66.4116491 66.9003509,67.4993684 L66.9017544,67.4993684 L66.9017544,72.5730526 C66.9017544,72.8509474 67.1291228,73.0797193 67.4098246,73.0797193 L67.4687719,73.0797193 C67.7480702,73.0797193 67.9207018,72.8509474 67.9207018,72.5730526 L67.9178947,67.2298947 Z" id="Fill-91" fill="#4C433F"></path>
                        <path d="M205.961965,66.8968421 C205.898807,65.1087719 204.43214,63.8119298 202.470035,63.8119298 C201.738807,63.8119298 201.04407,64.0308772 200.436351,64.4491228 C200.27214,64.2554386 200.041965,64.1417544 199.780912,64.1417544 C199.267228,64.1417544 198.851789,64.5585965 198.851789,65.0722807 L198.851789,72.1038596 C198.851789,72.6175439 199.267228,73.0329825 199.780912,73.0329825 C200.294596,73.0329825 200.710035,72.6175439 200.710035,72.1038596 L200.705825,66.9164912 C200.856,66.1108772 201.597053,65.525614 202.470035,65.525614 C203.477754,65.525614 204.301614,66.2680702 204.301614,67.1789474 L204.301614,72.2498246 C204.301614,72.7073684 204.676351,73.0792982 205.192842,73.0792982 C205.633544,73.0792982 205.964772,72.722807 205.964772,72.2498246 L205.961965,66.8968421 Z" id="Fill-93" fill="#D83751"></path>
                        <path d="M196.232,63.8589474 C195.718316,63.8589474 195.30007,64.274386 195.30007,64.7880702 L195.302877,69.9768421 C195.155509,70.7810526 194.41586,71.3649123 193.542877,71.3649123 C192.533754,71.3649123 191.709895,70.6224561 191.709895,69.7129825 L191.705684,64.6421053 C191.705684,64.1831579 191.336561,63.8112281 190.82007,63.8112281 C190.379368,63.8112281 190.04814,64.1677193 190.04814,64.6421053 L190.04814,69.9964912 C190.114105,71.7831579 191.583579,73.08 193.542877,73.08 C194.258667,73.08 194.968842,72.8568421 195.575158,72.4414035 C195.575158,72.8554386 196.014456,73.08 196.387789,73.08 C196.872,73.08 197.161123,72.8554386 197.161123,72.1494737 L197.161123,64.7880702 C197.161123,64.274386 196.744281,63.8589474 196.232,63.8589474" id="Fill-95" fill="#D83751"></path>
                        <path d="M85.6207719,73.0797193 C82.5049825,73.0797193 79.9702456,70.3667368 79.9702456,67.0334035 C79.9702456,63.6986667 82.5049825,60.9856842 85.6207719,60.9856842 C87.1421754,60.9856842 88.5709474,61.6242807 89.6390175,62.7835789 C89.9758596,63.1470877 89.9505965,63.7127018 89.5870877,64.0467368 C89.226386,64.3835789 88.6579649,64.3583158 88.3267368,63.994807 C87.5997193,63.2074386 86.6411228,62.7737544 85.6207719,62.7737544 C83.4888421,62.7737544 81.7583158,64.6853333 81.7583158,67.0334035 C81.7583158,69.3814737 83.4888421,71.2916491 85.6207719,71.2916491 C86.6411228,71.2916491 87.5997193,70.8579649 88.3267368,70.0705965 C88.6579649,69.7112982 89.226386,69.6874386 89.5870877,70.0186667 C89.9505965,70.3541053 89.9758596,70.9197193 89.6390175,71.2832281 C88.5737544,72.4425263 87.146386,73.0797193 85.6207719,73.0797193" id="Fill-97" fill="#D83751"></path>
                        <path d="M97.6505263,64.7264561 C97.1957895,64.5145263 96.6498246,64.7124211 96.4378947,65.1671579 L94.3017544,69.7482105 L92.2652632,65.3790877 C92.0533333,64.9243509 91.5073684,64.7264561 91.0540351,64.938386 C90.5992982,65.1503158 90.4,65.6962807 90.6119298,66.1510175 L93.2954386,71.9054035 L91.2112281,76.3755789 C91.0007018,76.8303158 91.197193,77.3762807 91.6533333,77.5882105 C92.1080702,77.7987368 92.6526316,77.6008421 92.8659649,77.1461053 L98.0912281,65.9390877 C98.3031579,65.4843509 98.1052632,64.938386 97.6505263,64.7264561" id="Fill-99" fill="#D83751"></path>
                        <path d="M134.909333,61.0162807 L128.008281,61.0162807 C127.507228,61.0162807 127.096,61.4261053 127.096,61.9285614 C127.096,62.429614 127.507228,62.8408421 128.008281,62.8408421 L130.547228,62.8408421 L130.547228,72.1671579 C130.547228,72.669614 130.958456,73.0794386 131.459509,73.0794386 C131.960561,73.0794386 132.370386,72.669614 132.370386,72.1671579 L132.370386,62.8408421 L134.909333,62.8408421 C135.410386,62.8408421 135.821614,62.429614 135.821614,61.9285614 C135.821614,61.4261053 135.410386,61.0162807 134.909333,61.0162807" id="Fill-101" fill="#D83751"></path>
                        <path d="M143.960842,67.3786667 C143.894877,65.5905965 142.426807,64.2937544 140.468912,64.2937544 C139.828912,64.2937544 139.226807,64.4916491 138.675228,64.8158596 L138.675228,61.7225263 C138.675228,61.2200702 138.264,60.8102456 137.762947,60.8102456 C137.261895,60.8102456 136.85207,61.2200702 136.85207,61.7225263 L136.85207,65.5541053 L136.85207,72.1042807 L136.85207,72.1674386 C136.85207,72.6698947 137.261895,73.0797193 137.762947,73.0797193 C138.031018,73.0797193 138.259789,72.952 138.426807,72.7653333 C138.599439,72.5969123 138.708912,72.3639298 138.708912,72.1042807 L138.704702,67.3997193 C138.854877,66.5927018 139.59593,66.0074386 140.468912,66.0074386 C141.476632,66.0074386 142.301895,66.7498947 142.301895,67.6593684 L142.301895,72.2516491 C142.301895,72.709193 142.672421,73.0797193 143.188912,73.0797193 C143.632421,73.0797193 143.963649,72.7232281 143.963649,72.2516491 L143.960842,67.3786667 Z" id="Fill-103" fill="#D83751"></path>
                        <path d="M187.671158,60.8099649 C187.170105,60.8099649 186.758877,61.2197895 186.758877,61.7222456 L186.758877,66.0324211 L182.043088,66.0324211 L182.043088,61.7222456 C182.043088,61.2197895 181.63186,60.8099649 181.130807,60.8099649 C180.628351,60.8099649 180.218526,61.2197895 180.218526,61.7222456 L180.218526,72.1671579 C180.218526,72.669614 180.628351,73.0794386 181.130807,73.0794386 C181.63186,73.0794386 182.043088,72.669614 182.043088,72.1671579 L182.043088,67.8569825 L186.758877,67.8569825 L186.758877,72.1671579 C186.758877,72.669614 187.170105,73.0794386 187.671158,73.0794386 C188.172211,73.0794386 188.582035,72.669614 188.582035,72.1671579 L188.582035,61.7222456 C188.582035,61.2197895 188.172211,60.8099649 187.671158,60.8099649" id="Fill-105" fill="#D83751"></path>
                        <path d="M103.959579,71.4610526 C102.919579,71.4610526 102.02414,70.9319298 101.643789,69.9115789 L101.643789,67.0891228 C102.02414,66.0687719 102.919579,65.5635088 103.959579,65.5635088 C105.349053,65.5635088 106.418526,66.6245614 106.418526,68.1908772 C106.418526,70.0252632 105.349053,71.4610526 103.959579,71.4610526 M103.959579,63.9185965 C103.076772,63.9185965 102.300632,64.2947368 101.643789,64.8266667 L101.643789,61.8161404 C101.643789,61.3207018 101.238175,60.9136842 100.73993,60.9136842 L100.720281,60.9136842 C100.224842,60.9136842 99.8192281,61.3207018 99.8192281,61.8161404 L99.8192281,72.1235088 C99.8192281,72.6203509 100.224842,73.0259649 100.720281,73.0259649 L100.73993,73.0259649 C101.222737,73.0259649 101.604491,72.637193 101.626947,72.1614035 C102.289404,72.7003509 103.069754,73.0792982 103.959579,73.0792982 C106.139228,73.0792982 107.909053,71.1578947 107.909053,68.1908772 C107.909053,65.8357895 106.139228,63.9185965 103.959579,63.9185965" id="Fill-107" fill="#D83751"></path>
                        <path d="M163.670316,71.5761404 C162.224702,71.4905263 161.347509,70.9305263 161.427509,68.4 C161.483649,66.7157895 162.537684,65.3712281 163.792421,65.3712281 C163.810667,65.3712281 163.830316,65.3726316 163.848561,65.3726316 C164.435228,65.3922807 165.472421,65.7094737 165.88786,66.2680702 C166.112421,66.5698246 166.391719,66.9192982 166.505404,67.2982456 L166.505404,69.2898246 C166.348211,69.9831579 165.965053,70.6287719 165.504702,71.0498246 C165.219789,71.3080702 164.219088,71.5831579 163.670316,71.5761404 M167.305404,63.6392982 C166.802947,63.6392982 166.393123,64.0491228 166.393123,64.5515789 L166.393123,64.7480702 C165.798035,64.2512281 164.647158,63.8947368 163.896281,63.8708772 C163.862596,63.8708772 163.826105,63.8694737 163.795228,63.8694737 C161.73207,63.8694737 160.011368,65.8540351 159.925754,68.3522807 C159.828912,71.3810526 161.026105,72.9263158 163.579088,73.0736842 C163.640842,73.0778947 163.701193,73.0792982 163.76014,73.0792982 C164.547509,73.0792982 165.802246,72.7649123 166.445053,72.2035088 C166.513825,72.637193 166.85207,72.9908772 167.305404,72.9908772 C167.806456,72.9908772 168.217684,72.5796491 168.217684,72.0785965 L168.217684,64.5515789 C168.217684,64.0491228 167.806456,63.6392982 167.305404,63.6392982" id="Fill-109" fill="#D83751"></path>
                    </g>
                </g>
            </g>
        </g>
    </g>
</svg>