<svg height="60" viewBox="0 0 60 60" width="60" xmlns="http://www.w3.org/2000/svg"><g fill="none" fill-rule="evenodd"><rect fill="#4c433f" fill-opacity=".8" height="60" rx="4" stroke="#f5f2e9" width="60"/><path d="m15.1245801 15.1245801c5.49944-5.49944012 14.4157941-5.49944012 19.9152341 0 5.0572073 5.0572072 5.4638783 13.0038873 1.2200131 18.5258035l12.1712651 12.03378c.7585435.7585434.7585435 1.9883853 0 2.7469288s-1.9883854.7585435-2.7469288 0l-12.0348542-12.1712466c-5.520842 4.2438467-13.4675221 3.8371757-18.5247293-1.2200316-5.49944012-5.49944-5.49944012-14.4157941 0-19.9152341zm2.0601966 2.0601966c-4.3616249 4.3616249-4.3616249 11.433216 0 15.7948409s11.433216 4.3616249 15.7948409 0 4.3616249-11.433216 0-15.7948409-11.433216-4.3616249-15.7948409 0z" fill="#f5f2e9" fill-rule="nonzero"/></g></svg>