<?xml version="1.0" encoding="UTF-8"?>
<svg width="268px" height="59px" viewBox="0 0 268 59" version="1.1" xmlns="http://www.w3.org/2000/svg" xmlns:xlink="http://www.w3.org/1999/xlink">
    <!-- Generator: Sketch 63.1 (92452) - https://sketch.com -->
    <title>ThreatVision_logo</title>
    <desc>Created with Sketch.</desc>
    <g id="1.5" stroke="none" stroke-width="1" fill="none" fill-rule="evenodd">
        <g id="1440up_simple_index" transform="translate(-1000.000000, -1626.000000)" fill-rule="nonzero">
            <g id="ThreatVision_logo" transform="translate(1000.000000, 1626.000000)">
                <path d="M138.552564,21.9347692 C140.246462,21.9347692 141.820103,22.4432821 143.139487,23.3125641 L143.139487,23.3125641 L143.139487,21.9347692 L146.92241,21.9347692 L146.92241,42.4745641 L143.139487,42.4745641 L143.139487,41.6430769 C141.820103,42.512359 140.246462,43.0208718 138.552564,43.0208718 L138.552564,43.0208718 L137.999385,43.0208718 C133.563641,43.0208718 129.935333,39.5506154 129.657026,35.1835897 L129.657026,35.1835897 L129.657026,29.7720513 C129.935333,25.4050256 133.563641,21.9347692 137.999385,21.9347692 L137.999385,21.9347692 Z M120.177385,21.9347692 C124.791795,21.9347692 128.547231,25.6902051 128.547231,30.3046154 L128.547231,30.3046154 L128.547231,34.3692821 L116.11959,34.3692821 L116.11959,34.6510256 C116.11959,36.582 117.689795,38.155641 119.624205,38.155641 L119.624205,38.155641 L120.177385,38.155641 C121.878154,38.155641 123.682,37.1867179 123.682,36.2693333 L123.682,36.2693333 L128.547231,36.2693333 C128.547231,40.4370769 124.200821,43.0174359 120.177385,43.0174359 L120.177385,43.0174359 L119.624205,43.0174359 C115.188462,43.0174359 111.560154,39.5471795 111.281846,35.1801538 L111.281846,35.1801538 L111.254359,30.3046154 C111.254359,25.6902051 115.009795,21.9347692 119.624205,21.9347692 L119.624205,21.9347692 Z M78.8332308,15.9906667 L78.8332308,42.4711282 L73.968,42.4711282 L73.968,20.8558974 L66.9450256,20.8558974 L66.9450256,15.9906667 L78.8332308,15.9906667 Z M85.859641,15.9906667 L85.859641,23.2575897 C86.9247692,22.7628205 88.1101538,22.477641 89.3642564,22.477641 L89.3642564,22.477641 L89.9174359,22.477641 C94.5318462,22.477641 98.2872821,26.229641 98.2872821,30.8474872 L98.2872821,30.8474872 L98.2872821,42.4711282 L93.4220513,42.4711282 L93.4220513,30.8474872 C93.4220513,28.9130769 91.8518462,27.3394359 89.9174359,27.3394359 L89.9174359,27.3394359 L89.3642564,27.3394359 C87.4332821,27.3394359 85.859641,28.9130769 85.859641,30.8474872 L85.859641,30.8474872 L85.859641,42.4711282 L80.9944103,42.4711282 L80.9944103,15.9906667 L85.859641,15.9906667 Z M104.770821,21.9347692 L104.770821,23.8451282 C106.674308,22.8006154 108.828615,22.1890256 110.687436,22.1890256 L110.687436,22.1890256 L110.714923,27.3394359 C108.323538,27.3394359 104.770821,29.1501538 104.770821,30.5588718 L104.770821,30.5588718 L104.770821,42.4711282 L99.9055897,42.4711282 L99.9055897,21.9347692 L104.770821,21.9347692 Z M153.405949,18.6947179 L153.405949,22.3711282 L157.188872,22.3711282 L157.188872,26.0647179 L153.405949,26.0647179 L153.405949,37.152359 C153.405949,37.4444103 153.646462,37.6814872 153.945385,37.6814872 L153.945385,37.6814872 L157.188872,37.6814872 L157.188872,42.4298974 C156.762821,42.4298974 154.477949,42.4711282 154.134359,42.4711282 C152.591641,42.4711282 151.07641,42.3027692 149.911641,41.1929744 C148.987385,40.3168205 148.540718,39.0833333 148.540718,37.4306667 L148.540718,37.4306667 L148.540718,18.6947179 L153.405949,18.6947179 Z M138.552564,26.7965641 L137.999385,26.7965641 C136.06841,26.7965641 134.494769,28.3702051 134.494769,30.3046154 L134.494769,30.3046154 L134.494769,34.6475897 C134.494769,36.5785641 136.064974,38.1522051 137.999385,38.1522051 L137.999385,38.1522051 L138.552564,38.1522051 C140.483538,38.1522051 142.057179,36.582 142.057179,34.6475897 L142.057179,34.6475897 L142.057179,30.3046154 C142.057179,28.3702051 140.486974,26.7965641 138.552564,26.7965641 L138.552564,26.7965641 Z M120.177385,26.8 L119.624205,26.8 C117.693231,26.8 116.11959,28.373641 116.11959,30.3080513 L116.11959,30.3080513 L116.11959,30.5829231 L123.682,30.5829231 L123.682,30.3080513 C123.682,28.373641 122.111795,26.8 120.177385,26.8 L120.177385,26.8 Z" id="Combined-Shape" fill="#3F3537"></path>
                <path d="M229.60041,15.1797949 C238.688359,15.1797949 246.08241,22.5738462 246.08241,31.6617949 C246.08241,40.7497436 238.688359,48.1437949 229.60041,48.1437949 C220.512462,48.1437949 213.11841,40.7497436 213.11841,31.6617949 C213.11841,22.5738462 220.512462,15.1797949 229.60041,15.1797949 Z M229.60041,17.8804103 C222.000205,17.8804103 215.819026,24.0615897 215.819026,31.6617949 C215.819026,39.262 222.003641,45.4431795 229.60041,45.4431795 C237.200615,45.4431795 243.381795,39.262 243.381795,31.6617949 C243.381795,24.0615897 237.200615,17.8804103 229.60041,17.8804103 Z M203.071846,21.9347692 L203.071846,26.2090256 L192.568308,26.2090256 C191.479128,26.2090256 190.592667,26.9992821 190.48959,28.0025641 C190.589231,29.0058462 191.479128,29.7961026 192.568308,29.7961026 L192.568308,29.7961026 L199.206462,29.7961026 C202.443077,29.7961026 205.07841,32.9021538 205.07841,36.0528718 L205.07841,36.0528718 L205.07841,36.7572308 C205.07841,39.9079487 202.443077,42.4711282 199.206462,42.4711282 L199.206462,42.4711282 L187.414462,42.4711282 L187.414462,38.1968718 L199.206462,38.1968718 C200.364359,38.1968718 201.305795,37.3069744 201.305795,36.214359 L201.305795,36.214359 L201.305795,36.0494359 C201.305795,34.9568205 200.364359,34.0669231 199.206462,34.0669231 L199.206462,34.0669231 L192.568308,34.0669231 C189.331692,34.0669231 186.696359,31.5037436 186.696359,28.3530256 L186.696359,28.3530256 L186.696359,27.6486667 C186.696359,24.4979487 189.331692,21.9347692 192.568308,21.9347692 L192.568308,21.9347692 L203.071846,21.9347692 Z M253.407744,21.9347692 L263.076359,34.4689231 L263.076359,21.9347692 L268,21.9347692 L268,42.4711282 L263.076359,42.4711282 L253.407744,29.9438462 L253.407744,42.4711282 L248.484103,42.4711282 L248.484103,21.9347692 L253.407744,21.9347692 Z M163.67241,15.9906667 L169.887949,35.0221026 L176.103487,15.9906667 L180.965282,15.9906667 L172.320564,42.4711282 L167.455333,42.4711282 L158.810615,15.9906667 L163.67241,15.9906667 Z M185.291077,21.9347692 L185.291077,42.4711282 L180.425846,42.4711282 L180.425846,21.9347692 L185.291077,21.9347692 Z M211.228667,21.9347692 L211.228667,42.4711282 L206.363436,42.4711282 L206.363436,21.9347692 L211.228667,21.9347692 Z M229.60041,21.4262564 C234.005231,21.4262564 237.760667,24.2299487 239.200308,28.14 C240.818615,28.3702051 242.06241,29.7583077 242.06241,31.4384615 C242.06241,33.0602051 240.904513,34.4105128 239.372103,34.7128718 C238.069897,38.8703077 234.180462,41.8973333 229.60041,41.8973333 C223.955231,41.8973333 219.364872,37.3069744 219.364872,31.6617949 C219.364872,26.0166154 223.955231,21.4262564 229.60041,21.4262564 Z M229.60041,23.2060513 C224.937897,23.2060513 221.144667,26.9992821 221.144667,31.6617949 C221.144667,36.3243077 224.937897,40.1175385 229.60041,40.1175385 C233.245897,40.1175385 236.351949,37.7948718 237.537333,34.5582564 C236.279795,34.0772308 235.386462,32.864359 235.386462,31.4418974 C235.386462,30.0709744 236.211077,28.8958974 237.393026,28.3805128 C236.108,25.3431795 233.098154,23.2060513 229.60041,23.2060513 Z" id="Combined-Shape" fill="#F6AC19"></path>
                <circle id="Oval" fill="#F6AC19" cx="29.1295385" cy="29.2051282" r="29.1295385"></circle>
                <path d="M34.3658462,11.3212821 C34.9520962,11.6627244 35.1789862,12.393725 34.9077927,12.9990251 L34.8468718,13.1182564 L33.132359,16.0868718 L42.1447179,16.0868718 C45.6739822,16.0868718 48.5752127,18.9146673 48.7029019,22.4151008 L48.7072821,22.6494359 L48.7072821,39.3272821 C48.7072821,42.8599075 45.8794865,45.7612111 42.379053,45.8856852 L42.1447179,45.8898462 L16.1177949,45.8898462 C12.5851695,45.8898462 9.68386583,43.0620506 9.55939168,39.5616171 L9.55523077,39.3272821 L9.55523077,22.6494359 C9.55523077,19.1168105 12.3830263,16.2155069 15.8834598,16.0910327 L16.1177949,16.0868718 L25.1301538,16.0868718 L23.415641,13.1182564 C23.0548718,12.4894872 23.2713333,11.6820513 23.8966667,11.3212821 C24.4861378,10.9830609 25.2326402,11.1521715 25.6209151,11.6898903 L25.693641,11.8023077 L28.0815897,15.9356923 L28.1168077,16.0095641 L28.1168077,16.0095641 L28.1468718,16.0834359 L30.115641,16.0834359 L30.1457051,16.0095641 L30.1457051,16.0095641 L30.1809231,15.9356923 L32.5688718,11.8023077 C32.9330769,11.1769744 33.7405128,10.9605128 34.3658462,11.3212821 Z M42.1447179,18.9833333 L16.1177949,18.9833333 C14.1626584,18.9833333 12.5582623,20.5214427 12.4567874,22.4548227 L12.4516923,22.6494359 L12.4516923,39.3272821 C12.4516923,41.2824185 13.9898016,42.8868146 15.9231816,42.9882895 L16.1177949,42.9933846 L42.1412821,42.9933846 C44.0997436,42.9933846 45.7042469,41.4552753 45.8057253,39.5218953 L45.8108205,39.3272821 L45.8142564,39.3272821 L45.8142564,22.6494359 C45.8142564,20.6291282 44.1684615,18.9833333 42.1447179,18.9833333 Z M29.1295385,22.010359 C35.4722051,22.010359 40.9352821,26.8652821 43.4091282,29.4662564 C44.2474872,30.3458462 44.2474872,31.7854872 43.4091282,32.6685128 C40.9352821,35.2694872 35.4722051,40.1244103 29.1295385,40.1244103 C22.7868718,40.1244103 17.320359,35.2694872 14.8499487,32.6685128 C14.0115897,31.7889231 14.0115897,30.3492821 14.8499487,29.4662564 C17.3237949,26.8652821 22.7868718,22.010359 29.1295385,22.010359 Z M23.9894359,25.7383077 C20.7596923,27.2226154 18.1071795,29.6827179 16.7774872,31.0639487 C18.1071795,32.4486154 20.7596923,34.9052821 23.9894359,36.3895897 C22.5944615,35.0427179 21.7251795,33.1564103 21.7251795,31.0639487 C21.7251795,28.9714872 22.5944615,27.0851795 23.9894359,25.7383077 Z M34.269641,25.7383077 C35.6646154,27.0851795 36.5338974,28.9714872 36.5338974,31.0639487 C36.5338974,33.1564103 35.6646154,35.0427179 34.269641,36.3895897 C37.4993846,34.9087179 40.1553333,32.4486154 41.4815897,31.0639487 C40.1518974,29.6792821 37.4993846,27.2226154 34.269641,25.7383077 Z M29.1295385,26.5560513 C26.6419487,26.5560513 24.6182051,28.5797949 24.6182051,31.0673846 C24.6182051,33.5549744 26.6419487,35.5787179 29.1295385,35.5787179 C31.6171282,35.5787179 33.6443077,33.5549744 33.6408762,31.0673846 C33.6408762,28.5797949 31.6171282,26.5560513 29.1295385,26.5560513 Z M29.1295385,28.9714872 C30.2874359,28.9714872 31.2254359,29.9094872 31.2254359,31.0673846 C31.2254359,32.2252821 30.2874359,33.1632821 29.1295385,33.1632821 C27.971641,33.1632821 27.033641,32.2252821 27.033641,31.0673846 C27.033641,29.9094872 27.971641,28.9714872 29.1295385,28.9714872 Z" id="Combined-Shape" fill="#FFFFFF"></path>
            </g>
        </g>
    </g>
</svg>