<?xml version="1.0" encoding="UTF-8"?>
<svg width="278px" height="60px" viewBox="0 0 278 60" version="1.1" xmlns="http://www.w3.org/2000/svg" xmlns:xlink="http://www.w3.org/1999/xlink">
    <!-- Generator: Sketch 63.1 (92452) - https://sketch.com -->
    <title>ThreatSonar_logo</title>
    <desc>Created with Sketch.</desc>
    <g id="1.5" stroke="none" stroke-width="1" fill="none" fill-rule="evenodd">
        <g id="1440up_simple_index" transform="translate(-460.000000, -990.000000)" fill-rule="nonzero">
            <g id="ThreatSonar_logo" transform="translate(460.000000, 990.000000)">
                <ellipse id="Oval" fill="#C81432" cx="29.8862156" cy="29.9384615" rx="29.8862156" ry="29.7067949"></ellipse>
                <path d="M44.3362994,13.483 C44.9135856,12.9091795 45.8601916,12.9091795 46.4374778,13.483 C47.0147641,14.0568205 47.0147641,14.9977436 46.4374778,15.5715641 L46.4374778,15.5715641 L45.1394802,16.8617692 C48.3055904,20.4971538 50.0374491,25.0841538 50.0303,29.9348974 C50.0303,35.2846154 47.9362707,40.3171282 44.1283329,44.098641 C40.3239808,47.8801538 35.2646587,49.9651538 29.8790443,49.9651538 C24.4970156,49.9651538 19.4376934,47.8801538 15.6297557,44.098641 C14.6150228,43.09 13.7257868,41.9922564 12.9620479,40.8232308 C13.9839521,40.6664103 14.8803593,40.135359 15.5042587,39.3690769 C16.1353293,40.3171282 16.8703832,41.2117179 17.6986635,42.0350256 C20.9544144,45.2676667 25.2786826,47.0497179 29.8790443,47.0497179 C34.479406,47.0497179 38.8036743,45.2676667 42.0558395,42.0350256 C45.3080048,38.8023846 47.1008192,34.5040769 47.1008192,29.9313333 C47.1008192,25.8575641 45.6665677,22.0047692 43.0526443,18.9253846 L43.0526443,18.9253846 L40.7076431,21.2563077 C42.7048383,23.7084103 43.8020407,26.7343333 43.8020407,29.9348974 C43.8020407,33.6344359 42.3534467,37.1094359 39.7251808,39.7219231 C37.0933293,42.3344103 33.5973413,43.7743077 29.8790443,43.7743077 C29.7714754,43.7743077 29.6674922,43.7636154 29.563509,43.7600513 C29.9615138,43.1398974 30.1945796,42.4056923 30.1945796,41.6180256 C30.1945796,41.3578462 30.1694802,41.1012308 30.1192814,40.8517436 C32.9662707,40.7911538 35.6339784,39.6684615 37.6526874,37.6618718 C39.7287665,35.5982564 40.872582,32.8538974 40.872582,29.9348974 C40.872582,27.5148718 40.0765725,25.2231538 38.6243928,23.3306154 L38.6243928,23.3306154 L36.2614635,25.679359 C37.1112575,26.930359 37.5773892,28.3952051 37.5773892,29.9348974 C37.5773892,31.9771282 36.777794,33.8946154 35.3256144,35.341641 C33.8698491,36.7851026 31.9371952,37.5798974 29.8826299,37.5798974 C27.8280647,37.5798974 25.8954108,36.7851026 24.4432311,35.341641 C22.9910515,33.8981795 22.1914563,31.9771282 22.1914563,29.9348974 C22.1914563,27.8926667 22.9910515,25.9751795 24.4432311,24.5281538 C25.7161293,23.2628974 27.4013749,22.4787949 29.1941892,22.3184103 C29.9973701,22.24 30.7144958,22.8387692 30.7862084,23.6406923 C30.8615066,24.4390513 30.2662922,25.1483077 29.4595257,25.2195897 C28.3515665,25.3193846 27.3081485,25.8041026 26.5193102,26.5882051 C25.6193174,27.4827949 25.1245006,28.6732051 25.1245006,29.9384615 C25.1245006,31.2037179 25.6193174,32.3941282 26.5193102,33.2887179 C28.3192958,35.0814615 31.4603066,35.0778974 33.2567066,33.2887179 C34.1566994,32.3941282 34.6515162,31.2037179 34.6515162,29.9384615 C34.6515162,29.1864359 34.4614778,28.4629231 34.1280144,27.8106923 L34.1280144,27.8106923 L30.9368048,30.9827436 C30.3595186,31.5565641 29.4129126,31.5565641 28.8356263,30.9827436 L28.8356263,30.9827436 L28.7341503,30.8710295 C28.2605951,30.2927417 28.2944205,29.4321362 28.8356263,28.8941795 L28.8356263,28.8941795 Z M26.1499904,39.2372051 C27.4695018,39.2372051 28.548776,40.31 28.548776,41.6215897 C28.548776,42.9331795 27.4695018,44.0059744 26.1499904,44.0059744 C24.830479,44.0059744 23.7512048,42.9331795 23.7512048,41.6215897 C23.7512048,40.31 24.830479,39.2372051 26.1499904,39.2372051 Z M16.9062395,24.9380256 C17.5122108,25.750641 18.4122036,26.3280256 19.4448647,26.513359 C19.0827162,27.6039744 18.8855066,28.7551795 18.8855066,29.9384615 C18.8855066,32.8574615 20.0293222,35.6018205 22.1054012,37.6654359 C22.4962347,38.050359 22.9193389,38.3960769 23.3532,38.7168462 C22.628903,39.4082821 22.1627713,40.3634615 22.1089868,41.422 C21.3739329,40.9301538 20.678321,40.3634615 20.0364934,39.7254872 C17.4082275,37.113 15.9596335,33.6344359 15.9596335,29.9384615 C15.9596335,28.1991795 16.293097,26.513359 16.9062395,24.9380256 Z M12.3632479,34.3223077 C13.7692524,34.3223077 14.9090443,35.4552569 14.9090443,36.8528205 C14.9090443,38.2503842 13.7692524,39.3833333 12.3632479,39.3833333 C10.9572434,39.3833333 9.8174515,38.2503842 9.8174515,36.8528205 C9.8174515,35.4552569 10.9572434,34.3223077 12.3632479,34.3223077 Z M26.5157246,10.1897692 C27.3117341,10.0650256 28.0683018,10.5925128 28.2045557,11.3837436 C28.3408096,12.1785385 27.8029653,12.9305641 27.0033701,13.0624359 C23.4679401,13.6540769 20.2516311,15.3042564 17.7058347,17.8347692 C14.4536695,21.0674103 12.6608551,25.3657179 12.6608551,29.9384615 C12.6608551,30.9328462 12.7504958,31.9129744 12.9154347,32.8717179 C12.7361533,32.8467692 12.5497006,32.8289487 12.3632479,32.8289487 C11.5098683,32.8289487 10.7174443,33.0962564 10.0612743,33.5524615 C9.84613653,32.3691795 9.73139641,31.1645128 9.73139641,29.9384615 C9.73139641,24.5851795 11.8289892,19.5562308 15.6297557,15.7747179 C18.6094132,12.8129487 22.3743234,10.8812051 26.5157246,10.1897692 Z M20.1584048,20.1692564 C21.4779162,20.1692564 22.5571904,21.2420513 22.5571904,22.553641 C22.5571904,23.8652308 21.4779162,24.9380256 20.1584048,24.9380256 C18.8388934,24.9380256 17.7596192,23.8652308 17.7596192,22.553641 C17.7596192,21.2420513 18.8388934,20.1692564 20.1584048,20.1692564 Z M27.0212982,16.3913077 C27.8173078,16.2309231 28.588218,16.7298974 28.7531569,17.5175641 C28.9180958,18.3052308 28.4125222,19.078641 27.6200982,19.2425897 C26.250388,19.5277179 24.9631473,20.0730256 23.8085749,20.8357436 C23.3675425,19.9090769 22.5787042,19.1784359 21.6141701,18.8042051 C23.2169461,17.6244872 25.052788,16.8011795 27.0212982,16.3913077 Z" id="Combined-Shape" fill="#FFFFFF"></path>
                <path d="M141.292205,22.4046923 C143.020795,22.4046923 144.624641,22.9214872 145.971872,23.8089487 L145.971872,23.8089487 L145.971872,22.4046923 L149.831795,22.4046923 L149.831795,43.3580513 L145.971872,43.3580513 L145.971872,42.5097949 C144.628205,43.3936923 143.020795,43.9140513 141.292205,43.9140513 L141.292205,43.9140513 L140.729077,43.9140513 C136.202667,43.9140513 132.496,40.3748974 132.214436,35.9197692 L132.214436,35.9197692 L132.214436,30.3989744 C132.499564,25.9438462 136.202667,22.4046923 140.729077,22.4046923 L140.729077,22.4046923 Z M122.541462,22.4046923 C127.253205,22.4046923 131.084615,26.2361026 131.084615,30.9442821 L131.084615,30.9442821 L131.084615,35.0857692 L118.403538,35.0857692 L118.403538,35.3744615 C118.403538,37.3489744 120.007385,38.9528205 121.981897,38.9528205 L121.981897,38.9528205 L122.545026,38.9528205 C124.284308,38.9528205 126.123385,37.962 126.123385,37.0282051 L126.123385,37.0282051 L131.084615,37.0282051 C131.084615,41.2801795 126.650872,43.9140513 122.545026,43.9140513 L122.545026,43.9140513 L121.981897,43.9140513 C117.455487,43.9140513 113.748821,40.3748974 113.467256,35.9197692 L113.467256,35.9197692 L113.438744,30.9442821 C113.438744,26.2361026 117.270154,22.4046923 121.978333,22.4046923 L121.978333,22.4046923 Z M80.3531795,16.3385897 L80.3531795,43.3580513 L75.3883846,43.3580513 L75.3883846,21.3033846 L68.2209744,21.3033846 L68.2209744,16.3385897 L80.3531795,16.3385897 Z M87.5205897,16.3385897 L87.5205897,23.7519231 C88.6112051,23.2458205 89.8194359,22.9571282 91.0989487,22.9571282 L91.0989487,22.9571282 L91.6620769,22.9571282 C96.3738205,22.9571282 100.205231,26.7885385 100.201669,31.4967179 L100.201669,31.4967179 L100.201669,43.3580513 L95.2404359,43.3580513 L95.2404359,31.4967179 C95.2404359,29.5222051 93.6365897,27.918359 91.6620769,27.918359 L91.6620769,27.918359 L91.0989487,27.918359 C89.1244359,27.918359 87.5205897,29.5222051 87.5205897,31.4967179 L87.5205897,31.4967179 L87.5205897,43.3580513 L82.559359,43.3580513 L82.559359,16.3385897 L87.5205897,16.3385897 Z M106.820205,22.4046923 L106.820205,24.3542564 C108.762641,23.2885897 110.961692,22.6648718 112.857795,22.6648718 L112.857795,22.6648718 L112.886308,27.918359 C110.448462,27.918359 106.820205,29.7681282 106.820205,31.2044615 L106.820205,31.2044615 L106.820205,43.3580513 L101.858974,43.3580513 L101.858974,22.4046923 L106.820205,22.4046923 Z M156.450333,19.0972051 L156.450333,22.8502051 L160.310256,22.8502051 L160.310256,26.6174615 L156.450333,26.6174615 L156.450333,37.9334872 C156.450333,38.2293077 156.699821,38.4716667 157.002769,38.4716667 L157.002769,38.4716667 L160.310256,38.4716667 L160.310256,43.3152821 C159.879,43.3152821 157.544513,43.3580513 157.195231,43.3580513 C155.619897,43.3580513 154.073077,43.1834103 152.886231,42.0535897 C151.945308,41.159 151.489103,39.9044359 151.489103,38.2150513 L151.489103,38.2150513 L151.489103,19.0972051 L156.450333,19.0972051 Z M141.292205,27.3659231 L140.729077,27.3659231 C138.754564,27.3659231 137.150718,28.9697692 137.150718,30.9442821 L137.150718,30.9442821 L137.150718,35.3744615 C137.150718,37.3489744 138.754564,38.9528205 140.729077,38.9528205 L140.729077,38.9528205 L141.292205,38.9528205 C143.266718,38.9528205 144.870564,37.3489744 144.870564,35.3744615 L144.870564,35.3744615 L144.870564,30.9442821 C144.870564,28.9697692 143.266718,27.3659231 141.292205,27.3659231 L141.292205,27.3659231 Z M122.541462,27.3659231 L121.978333,27.3659231 C120.003821,27.3659231 118.399974,28.9697692 118.399974,30.9442821 L118.399974,30.9442821 L118.399974,31.2258462 L126.119821,31.2258462 L126.119821,30.9442821 C126.119821,28.9697692 124.515974,27.3659231 122.541462,27.3659231 L122.541462,27.3659231 Z" id="Combined-Shape" fill="#3F3537"></path>
                <path d="M200.780641,22.4046923 C205.221513,22.4046923 208.835513,26.0186923 208.835513,30.4595641 L208.835513,35.5811795 C208.835513,40.0220513 205.221513,43.6360513 200.780641,43.6360513 L196.485897,43.6360513 C192.045026,43.6360513 188.431026,40.0220513 188.431026,35.5811795 L188.431026,30.4595641 C188.431026,26.0186923 192.045026,22.4046923 196.485897,22.4046923 L200.780641,22.4046923 Z M247.391974,22.4046923 C251.102205,22.4046923 254.124564,25.416359 254.142385,29.1230256 L254.142385,29.1230256 L254.145949,43.3544872 L249.184718,43.3544872 L249.184718,41.6294615 C247.545231,42.8768974 245.506564,43.6289231 243.286128,43.6289231 L243.286128,43.6289231 L239.073359,43.6289231 C235.541333,43.6289231 232.437,41.0164359 232.119795,37.4986667 C231.759821,33.4961795 234.914051,30.1245385 238.841692,30.1245385 L238.841692,30.1245385 L249.184718,30.1245385 L249.184718,29.1586667 C249.184718,28.1714103 248.379231,27.3659231 247.391974,27.3659231 L247.391974,27.3659231 L234.988897,27.3659231 L234.988897,22.4046923 Z M184.396462,16.3385897 L184.396462,21.2499231 L170.574872,21.2499231 C169.053,21.2499231 167.812692,22.4225128 167.812692,23.8588462 L167.812692,23.8588462 L167.812692,24.7855128 C167.812692,26.2254103 169.049436,27.3944359 170.574872,27.3944359 L170.574872,27.3944359 L179.306923,27.3944359 C183.566026,27.3944359 187.033897,30.7660769 187.033897,34.9146923 L187.033897,34.9146923 L187.033897,35.841359 C187.033897,39.9864103 183.566026,43.3616154 179.306923,43.3616154 L179.306923,43.3616154 L163.788821,43.3616154 L163.788821,38.4502821 L179.306923,38.4502821 C180.828795,38.4502821 182.069103,37.2776923 182.069103,35.841359 L182.069103,35.841359 L182.069103,34.9146923 C182.069103,33.4747949 180.832359,32.3057692 179.306923,32.3057692 L179.306923,32.3057692 L170.574872,32.3057692 C166.312205,32.3057692 162.847897,28.9305641 162.847897,24.7855128 L162.847897,24.7855128 L162.847897,23.8588462 C162.847897,19.7137949 166.315769,16.3385897 170.574872,16.3385897 L170.574872,16.3385897 L184.396462,16.3385897 Z M274.236795,36.6896154 C276.077248,36.6896154 277.569231,38.1815978 277.569231,40.0220513 C277.569231,41.8625048 276.077248,43.3544872 274.236795,43.3544872 C272.396341,43.3544872 270.904359,41.8625048 270.904359,40.0220513 C270.904359,38.1815978 272.396341,36.6896154 274.236795,36.6896154 Z M276.603359,22.1302564 L276.603359,27.0914872 L271.805244,27.0915073 C269.07825,27.0929946 261.302667,27.2045405 261.302667,35.5704872 L261.302667,35.5704872 L261.302667,43.3544872 L256.341436,43.3544872 L256.341436,35.5704872 C256.341436,27.0273333 262.019051,22.1302564 271.916564,22.1302564 L271.916564,22.1302564 L276.603359,22.1302564 Z M215.582359,22.4046923 L225.444231,35.1891282 L225.444231,22.4046923 L230.466051,22.4046923 L230.466051,43.3544872 L225.444231,43.3544872 L215.582359,30.5736154 L215.582359,43.3544872 L210.560538,43.3544872 L210.560538,22.4046923 L215.582359,22.4046923 Z M276.606923,29.8465385 L276.606923,34.8077692 L271.920128,34.8077692 C271.677769,34.8077692 271.460359,34.8113333 271.257205,34.8148974 C270.070359,34.8469744 269.125872,35.8057179 269.118744,36.9925641 L269.118744,36.9925641 L269.118744,43.3509231 L264.157513,43.3509231 L264.157641,37.3782961 C264.160212,35.1724472 264.214199,33.4097924 265.347923,31.9671795 C266.730795,30.2065128 268.976179,29.8465385 271.920128,29.8465385 L271.920128,29.8465385 L276.606923,29.8465385 Z M247.883821,35.0857692 L238.920103,35.0857692 C238.050462,35.0857692 237.248538,35.6702821 237.08459,36.5256667 C236.867179,37.6661795 237.740385,38.6676923 238.841692,38.6676923 L238.841692,38.6676923 L243.318205,38.6676923 C245.520821,38.6676923 247.377718,37.163641 247.919462,35.1321026 C247.923026,35.1071538 247.908769,35.0857692 247.883821,35.0857692 L247.883821,35.0857692 Z M196.710436,27.9611282 C195.185,27.9611282 193.944692,29.2014359 193.944692,30.7268718 L193.944692,35.3103077 C193.944692,36.8357436 195.185,38.0760513 196.710436,38.0760513 L200.552538,38.0760513 C202.077974,38.0760513 203.318282,36.8357436 203.318282,35.3103077 L203.318282,30.7304359 C203.318282,29.205 202.077974,27.9646923 200.552538,27.9646923 L196.710436,27.9646923 L196.710436,27.9611282 Z" id="Combined-Shape" fill="#C81432"></path>
            </g>
        </g>
    </g>
</svg>