<?xml version="1.0" encoding="UTF-8"?>
<svg width="180px" height="180px" viewBox="0 0 180 180" version="1.1" xmlns="http://www.w3.org/2000/svg" xmlns:xlink="http://www.w3.org/1999/xlink">
    <!-- Generator: Sketch 63.1 (92452) - https://sketch.com -->
    <title>img/samples</title>
    <desc>Created with Sketch.</desc>
    <g id="img/samples" stroke="none" stroke-width="1" fill="none" fill-rule="evenodd">
        <rect id="Rectangle" fill="#F5F2E9" x="25" y="10" width="105" height="132"></rect>
        <rect id="Rectangle-Copy" fill="#F5F2E9" x="65" y="59" width="105" height="111"></rect>
        <circle id="Oval-Copy-10" fill="#FFD36A" cx="27" cy="48" r="5"></circle>
        <circle id="Oval-Copy-11" fill="#FFD36A" cx="160" cy="59" r="5"></circle>
        <circle id="Oval-Copy-12" fill="#FFD36A" cx="37" cy="157" r="5"></circle>
        <circle id="Oval-Copy-13" fill="#FFD36A" cx="141" cy="142" r="5"></circle>
        <circle id="Oval-Copy-14" fill="#FFD36A" cx="63" cy="15" r="5"></circle>
        <polygon id="Rectangle" fill="#FFFFFF" points="40 26 140 26 140 129.884766 115.96582 154 40 154"></polygon>
        <path d="M140,24 L40,24 C38.8954305,24 38,24.8954305 38,26 L38,154 C38,155.104569 38.8954305,156 40,156 L115.96582,156 C116.49742,156 117.007148,155.788361 117.382413,155.411831 L141.416592,131.296597 C141.79021,130.921719 142,130.414032 142,129.884766 L142,26 C142,24.8954305 141.104569,24 140,24 Z M138,28 L138,129.057 L115.135,152 L42,152 L42,28 L138,28 Z" id="Rectangle" fill="#4C433F" fill-rule="nonzero"></path>
        <rect id="Rectangle-Copy-3" fill="#ECE8E6" x="50" y="40" width="80" height="8"></rect>
        <rect id="Rectangle-Copy-4" fill="#ECE8E6" x="50" y="52" width="30" height="8"></rect>
        <rect id="Rectangle-Copy-6" fill="#ECE8E6" x="84" y="52" width="46" height="8"></rect>
        <rect id="Rectangle-Copy-5" fill="#ECE8E6" x="50" y="64" width="80" height="8"></rect>
        <rect id="Rectangle-Copy-10" fill="#ECE8E6" x="50" y="124" width="28" height="8"></rect>
        <rect id="Rectangle-Copy-13" fill="#ECE8E6" x="82" y="124" width="37" height="8"></rect>
        <rect id="Rectangle-Copy-11" fill="#ECE8E6" x="50" y="136" width="18" height="8"></rect>
        <rect id="Rectangle-Copy-12" fill="#ECE8E6" x="72" y="136" width="44" height="8"></rect>
        <path d="M140,128 C141.104569,128 142,128.895431 142,130 C142,131.054362 141.184122,131.918165 140.149262,131.994514 L140,132 L118,132 L118,154 C118,155.054362 117.184122,155.918165 116.149262,155.994514 L116,156 C114.945638,156 114.081835,155.184122 114.005486,154.149262 L114,154 L114,130 C114,128.945638 114.815878,128.081835 115.850738,128.005486 L116,128 L140,128 Z" id="Path-8" fill="#4C433F" fill-rule="nonzero"></path>
        <rect id="Rectangle" fill="#88B9D8" x="20" y="70" width="140" height="50"></rect>
        <path d="M160,68 L20,68 C18.8954305,68 18,68.8954305 18,70 L18,120 C18,121.104569 18.8954305,122 20,122 L160,122 C161.104569,122 162,121.104569 162,120 L162,70 C162,68.8954305 161.104569,68 160,68 Z M158,72 L158,118 L22,118 L22,72 L158,72 Z" id="Rectangle" fill="#4C433F" fill-rule="nonzero"></path>
        <rect id="Rectangle-Copy-5" fill="#5AA2BF" x="22" y="100" width="136" height="18"></rect>
        <path d="M61.065,107 L61.065,102.5 L56.955,102.5 C55.965,102.5 54.435,102.65 53.325,102.8 C56.745,99.35 60.045,95.12 60.045,91.28 C60.045,87.02 57.045,84.26 52.725,84.26 C49.545,84.26 47.505,85.4 45.315,87.71 L48.225,90.59 C49.275,89.45 50.475,88.43 52.005,88.43 C53.775,88.43 54.915,89.54 54.915,91.58 C54.915,94.82 51.165,98.87 45.585,103.94 L45.585,107 L61.065,107 Z M71.715,107.42 C76.425,107.42 79.635,103.4 79.635,95.72 C79.635,88.1 76.425,84.26 71.715,84.26 C67.005,84.26 63.825,88.04 63.825,95.72 C63.825,103.4 67.005,107.42 71.715,107.42 Z M71.715,103.28 C70.125,103.28 68.865,101.84 68.865,95.72 C68.865,89.63 70.125,88.37 71.715,88.37 C73.305,88.37 74.595,89.63 74.595,95.72 C74.595,101.84 73.305,103.28 71.715,103.28 Z M89.985,107.42 C94.695,107.42 97.905,103.4 97.905,95.72 C97.905,88.1 94.695,84.26 89.985,84.26 C85.275,84.26 82.095,88.04 82.095,95.72 C82.095,103.4 85.275,107.42 89.985,107.42 Z M89.985,103.28 C88.395,103.28 87.135,101.84 87.135,95.72 C87.135,89.63 88.395,88.37 89.985,88.37 C91.575,88.37 92.865,89.63 92.865,95.72 C92.865,101.84 91.575,103.28 89.985,103.28 Z M108.255,107.42 C112.965,107.42 116.175,103.4 116.175,95.72 C116.175,88.1 112.965,84.26 108.255,84.26 C103.545,84.26 100.365,88.04 100.365,95.72 C100.365,103.4 103.545,107.42 108.255,107.42 Z M108.255,103.28 C106.665,103.28 105.405,101.84 105.405,95.72 C105.405,89.63 106.665,88.37 108.255,88.37 C109.845,88.37 111.135,89.63 111.135,95.72 C111.135,101.84 109.845,103.28 108.255,103.28 Z M128.475,103.85 L128.475,97.55 L134.505,97.55 L134.505,93.8 L128.475,93.8 L128.475,87.53 L124.575,87.53 L124.575,93.8 L118.575,93.8 L118.575,97.55 L124.575,97.55 L124.575,103.85 L128.475,103.85 Z" id="2000+" fill="#FFFFFF" fill-rule="nonzero"></path>
        <path d="M12,133 L16,133 C16.5522847,133 17,132.552285 17,132 C17,131.447715 16.5522847,131 16,131 L12,131 C11.4477153,131 11,131.447715 11,132 C11,132.552285 11.4477153,133 12,133 Z M26,133 L30,133 C30.5522847,133 31,132.552285 31,132 C31,131.447715 30.5522847,131 30,131 L26,131 C25.4477153,131 25,131.447715 25,132 C25,132.552285 25.4477153,133 26,133 Z" id="Line-3-Copy-7" fill="#4C433F" fill-rule="nonzero"></path>
        <path d="M101,163 L105,163 C105.552285,163 106,162.552285 106,162 C106,161.447715 105.552285,161 105,161 L101,161 C100.447715,161 100,161.447715 100,162 C100,162.552285 100.447715,163 101,163 Z M115,163 L119,163 C119.552285,163 120,162.552285 120,162 C120,161.447715 119.552285,161 119,161 L115,161 C114.447715,161 114,161.447715 114,162 C114,162.552285 114.447715,163 115,163 Z M129,163 L133,163 C133.552285,163 134,162.552285 134,162 C134,161.447715 133.552285,161 133,161 L129,161 C128.447715,161 128,161.447715 128,162 C128,162.552285 128.447715,163 129,163 Z M143,163 L147,163 C147.552285,163 148,162.552285 148,162 C148,161.447715 147.552285,161 147,161 L143,161 C142.447715,161 142,161.447715 142,162 C142,162.552285 142.447715,163 143,163 Z" id="Line-3-Copy-8" fill="#4C433F" fill-rule="nonzero"></path>
        <path d="M140,51 L144,51 C144.552285,51 145,50.5522847 145,50 C145,49.4477153 144.552285,49 144,49 L140,49 C139.447715,49 139,49.4477153 139,50 C139,50.5522847 139.447715,51 140,51 Z M154,51 L158,51 C158.552285,51 159,50.5522847 159,50 C159,49.4477153 158.552285,49 158,49 L154,49 C153.447715,49 153,49.4477153 153,50 C153,50.5522847 153.447715,51 154,51 Z" id="Line-3-Copy-9" fill="#4C433F" fill-rule="nonzero"></path>
        <path d="M122,19 L126,19 C126.552285,19 127,18.5522847 127,18 C127,17.4477153 126.552285,17 126,17 L122,17 C121.447715,17 121,17.4477153 121,18 C121,18.5522847 121.447715,19 122,19 Z M136,19 L140,19 C140.552285,19 141,18.5522847 141,18 C141,17.4477153 140.552285,17 140,17 L136,17 C135.447715,17 135,17.4477153 135,18 C135,18.5522847 135.447715,19 136,19 Z M150,19 L154,19 C154.552285,19 155,18.5522847 155,18 C155,17.4477153 154.552285,17 154,17 L150,17 C149.447715,17 149,17.4477153 149,18 C149,18.5522847 149.447715,19 150,19 Z M164,19 L168,19 C168.552285,19 169,18.5522847 169,18 C169,17.4477153 168.552285,17 168,17 L164,17 C163.447715,17 163,17.4477153 163,18 C163,18.5522847 163.447715,19 164,19 Z" id="Line-3-Copy-6" fill="#4C433F" fill-rule="nonzero"></path>
        <path d="M17,38 L21,38 C21.5522847,38 22,37.5522847 22,37 C22,36.4477153 21.5522847,36 21,36 L17,36 C16.4477153,36 16,36.4477153 16,37 C16,37.5522847 16.4477153,38 17,38 Z M31,38 L35,38 C35.5522847,38 36,37.5522847 36,37 C36,36.4477153 35.5522847,36 35,36 L31,36 C30.4477153,36 30,36.4477153 30,37 C30,37.5522847 30.4477153,38 31,38 Z" id="Line-3-Copy-10" fill="#4C433F" fill-rule="nonzero"></path>
    </g>
</svg>