<?xml version="1.0" encoding="UTF-8"?>
<svg width="180px" height="180px" viewBox="0 0 180 180" version="1.1" xmlns="http://www.w3.org/2000/svg" xmlns:xlink="http://www.w3.org/1999/xlink">
    <!-- Generator: Sketch 63.1 (92452) - https://sketch.com -->
    <title>img/Adversary</title>
    <desc>Created with Sketch.</desc>
    <g id="img/Adversary" stroke="none" stroke-width="1" fill="none" fill-rule="evenodd">
        <circle id="Oval-Copy" fill="#F5F2E9" transform="translate(90.000000, 90.000000) scale(1, -1) translate(-90.000000, -90.000000) " cx="90" cy="90" r="80"></circle>
        <path d="M11,96 L15,96 C15.5522847,96 16,95.5522847 16,95 C16,94.4477153 15.5522847,94 15,94 L11,94 C10.4477153,94 10,94.4477153 10,95 C10,95.5522847 10.4477153,96 11,96 Z M25,96 L29,96 C29.5522847,96 30,95.5522847 30,95 C30,94.4477153 29.5522847,94 29,94 L25,94 C24.4477153,94 24,94.4477153 24,95 C24,95.5522847 24.4477153,96 25,96 Z M39,96 L43,96 C43.5522847,96 44,95.5522847 44,95 C44,94.4477153 43.5522847,94 43,94 L39,94 C38.4477153,94 38,94.4477153 38,95 C38,95.5522847 38.4477153,96 39,96 Z M53,96 L57,96 C57.5522847,96 58,95.5522847 58,95 C58,94.4477153 57.5522847,94 57,94 L53,94 C52.4477153,94 52,94.4477153 52,95 C52,95.5522847 52.4477153,96 53,96 Z" id="Line-3-Copy-6" fill="#4C433F" fill-rule="nonzero"></path>
        <path d="M37,51 L41,51 C41.5522847,51 42,50.5522847 42,50 C42,49.4477153 41.5522847,49 41,49 L37,49 C36.4477153,49 36,49.4477153 36,50 C36,50.5522847 36.4477153,51 37,51 Z M51,51 L55,51 C55.5522847,51 56,50.5522847 56,50 C56,49.4477153 55.5522847,49 55,49 L51,49 C50.4477153,49 50,49.4477153 50,50 C50,50.5522847 50.4477153,51 51,51 Z M65,51 L69,51 C69.5522847,51 70,50.5522847 70,50 C70,49.4477153 69.5522847,49 69,49 L65,49 C64.4477153,49 64,49.4477153 64,50 C64,50.5522847 64.4477153,51 65,51 Z" id="Line-3-Copy-8" fill="#4C433F" fill-rule="nonzero"></path>
        <path d="M98,167 L102,167 C102.552285,167 103,166.552285 103,166 C103,165.447715 102.552285,165 102,165 L98,165 C97.4477153,165 97,165.447715 97,166 C97,166.552285 97.4477153,167 98,167 Z M112,167 L116,167 C116.552285,167 117,166.552285 117,166 C117,165.447715 116.552285,165 116,165 L112,165 C111.447715,165 111,165.447715 111,166 C111,166.552285 111.447715,167 112,167 Z M126,167 L130,167 C130.552285,167 131,166.552285 131,166 C131,165.447715 130.552285,165 130,165 L126,165 C125.447715,165 125,165.447715 125,166 C125,166.552285 125.447715,167 126,167 Z" id="Line-3-Copy-9" fill="#4C433F" fill-rule="nonzero"></path>
        <path d="M151,70 L155,70 C155.552285,70 156,69.5522847 156,69 C156,68.4477153 155.552285,68 155,68 L151,68 C150.447715,68 150,68.4477153 150,69 C150,69.5522847 150.447715,70 151,70 Z M165,70 L169,70 C169.552285,70 170,69.5522847 170,69 C170,68.4477153 169.552285,68 169,68 L165,68 C164.447715,68 164,68.4477153 164,69 C164,69.5522847 164.447715,70 165,70 Z" id="Line-3-Copy-10" fill="#4C433F" fill-rule="nonzero"></path>
        <rect id="Rectangle" fill="#FFD36A" x="152" y="19" width="8" height="8"></rect>
        <rect id="Rectangle-Copy-2" fill="#FFD36A" x="20" y="55" width="8" height="8"></rect>
        <rect id="Rectangle-Copy-3" fill="#FFD36A" x="156" y="88" width="8" height="8"></rect>
        <rect id="Rectangle-Copy-8" fill="#FFD36A" x="69" y="158" width="8" height="8"></rect>
        <rect id="Rectangle-Copy-4" fill="#FFD36A" x="13" y="138" width="8" height="8"></rect>
        <rect id="Rectangle-Copy-6" fill="#FFD36A" x="137" y="46" width="8" height="8"></rect>
        <rect id="Rectangle-Copy-7" fill="#FFD36A" x="42" y="15" width="8" height="8"></rect>
        <path d="M90,117 C117.614237,117 140,98.9264069 140,86.5 C140,74.0735931 117.614237,50 90,50 C62.3857625,50 40,74.0735931 40,86.5 C40,98.9264069 62.3857625,117 90,117 Z" id="Oval" stroke="#4C433F" stroke-width="4" fill="#FFFFFF"></path>
        <ellipse id="Oval" fill="#FFFFFF" fill-rule="nonzero" cx="90" cy="38.8461538" rx="22.9166667" ry="22.8461538"></ellipse>
        <path d="M90,14 C76.2402823,14 65.0833333,25.1226199 65.0833333,38.8461538 C65.0833333,52.5696878 76.2402823,63.6923077 90,63.6923077 C103.759718,63.6923077 114.916667,52.5696878 114.916667,38.8461538 C114.916667,25.1226199 103.759718,14 90,14 Z M90,18 C101.553333,18 110.916667,27.334523 110.916667,38.8461538 C110.916667,50.3577847 101.553333,59.6923077 90,59.6923077 C78.4466666,59.6923077 69.0833333,50.3577847 69.0833333,38.8461538 C69.0833333,27.334523 78.4466666,18 90,18 Z" id="Oval" fill="#4C433F" fill-rule="nonzero"></path>
        <path d="M84,42 C100.016258,42 113,40.209139 113,38 C113,35.790861 100.016258,36.209139 84,34 C67.9837423,31.790861 55.2626953,31.790861 55.2626953,34 C55.2626953,36.209139 67.9837423,42 84,42 Z" id="Oval" fill="#88B9D8"></path>
        <path d="M63.625251,30.3431458 L62.8769626,30.3457884 C56.3936881,30.3932061 53.2626953,31.0979644 53.2626953,34 C53.2626953,38.6896117 69.2268869,44 84,44 C91.6099793,44 98.7670441,43.5977667 104.203532,42.8869994 L104.779371,42.8096694 C111.674834,41.8585711 115,40.7742159 115,38 C115,36.0479262 113.61059,35.3131332 111.129251,34.7957826 L110.725626,34.7160056 C109.475153,34.4816186 107.854533,34.2894631 105.49171,34.0783834 L95.4638001,33.2540521 L93.4729755,33.0723548 C90.539884,32.795065 87.8320644,32.494168 85.1621131,32.1391452 L84.2732748,32.0187577 C76.3850114,30.9307214 69.0549874,30.3431458 63.625251,30.3431458 Z M63.625251,34.3431458 C68.5060326,34.3431458 75.0622882,34.8426131 82.1908244,35.7748724 L83.7267252,35.9812423 C87.0486289,36.4394359 90.3880341,36.8090478 94.0927282,37.1471247 L97.727869,37.4580948 C100.421979,37.6789157 103.845453,37.950904 104.33609,37.9927613 L105.579145,38.1027963 C105.986531,38.1403661 106.368505,38.177301 106.727122,38.2139104 L107.531,38.299 L107.445739,38.3174196 C106.502484,38.5046814 105.42614,38.6825892 104.232822,38.8471849 L103.108371,38.9941131 C97.9297549,39.6350146 91.1784992,40 84,40 C76.9366934,40 69.9764568,38.8333666 64.2565286,36.9306683 L63.7885199,36.7722661 C61.9366879,36.1345544 60.3309121,35.4495888 59.1015998,34.788723 L58.738,34.587 L58.8959927,34.5670295 C60.118499,34.4204934 61.717851,34.3431458 63.625251,34.3431458 Z" id="Oval" fill="#4C433F" fill-rule="nonzero"></path>
        <path d="M112.916667,38.8461538 C112.916667,26.2285715 102.656526,16 90,16 C77.3434745,16 67.0833333,26.2285715 67.0833333,38.8461538 C67.0833333,44.2754695 112.916667,44.2754695 112.916667,38.8461538 Z" id="Oval" fill="#88B9D8" fill-rule="nonzero"></path>
        <path d="M90,14 C76.2402823,14 65.0833333,25.1226199 65.0833333,38.8461538 C65.0833333,43.3324449 75.1229576,44.9181406 90,44.9181406 L91.4553972,44.9129233 C105.528084,44.8104368 114.916667,43.1845452 114.916667,38.8461538 C114.916667,25.1226199 103.759718,14 90,14 Z M90.3494233,18.0028498 C101.509044,18.1850035 110.541248,27.0765413 110.905262,38.1512038 L110.911,38.422 L110.85451,38.4576946 C110.693885,38.5530908 110.472397,38.6618543 110.194685,38.7746445 C109.141414,39.2024208 107.517593,39.5969937 105.443189,39.9246329 C101.380575,40.5662972 95.81145,40.9181406 90,40.9181406 C84.18855,40.9181406 78.6194249,40.5662972 74.5568112,39.9246329 C72.482407,39.5969937 70.8585855,39.2024208 69.8053151,38.7746445 L69.6454719,38.7075283 C69.4414424,38.6188836 69.27399,38.5340115 69.1454904,38.4576946 L69.088,38.422 L69.0947383,38.1512038 C69.4625436,26.9611802 78.6800673,18 90,18 L90.3494233,18.0028498 Z" id="Oval" fill="#4C433F" fill-rule="nonzero"></path>
        <path d="M87.7734691,50.8723617 C80.15493,52.5870211 76.0040052,50.5983123 75.3206946,44.9062352 C75.2281674,43.5309208 75.2281674,41.9486259 75.7305714,41.0831618 C75.7305714,41.0831618 79.7448706,44.3462284 87.7734691,50.8723617 Z" id="Path-31" fill="#4C433F" fill-rule="nonzero"></path>
        <path d="M104.583333,50.8723617 C96.9647942,52.5870211 92.8138694,50.5983123 92.1305589,44.9062352 C92.0380316,43.5309208 92.0380316,41.9486259 92.5404356,41.0831618 C92.5404356,41.0831618 96.5547349,44.3462284 104.583333,50.8723617 Z" id="Path-31" fill="#4C433F" fill-rule="nonzero" transform="translate(98.333333, 46.275469) scale(-1, 1) translate(-98.333333, -46.275469) "></path>
        <polygon id="Path-18" fill="#ECE8E6" points="45.7613703 64.5625 48.5009766 59.3095703 132 59.3095703 136 64.5625 128 113 128 119 125.416667 122.049805 57.0664062 122.049805 52.8564453 119.846154 52.8564453 111.538462"></polygon>
        <polygon id="Path-5" fill="#FFD36A" points="82.7083333 77.8195801 77.8596191 74.3791504 76.8569336 81.645752 75.2734691 86.4971751 75.8730469 93.6750488 79.5833333 98.5544434 86.1787109 101.294922 93.5544434 100.115385 98.3333333 96.0395508 100.656738 90 100.190186 85.8557129 98.9287109 81.645752 98.3333333 74.3791504 93.125 77.8195801 87.7734691 76.4147949"></polygon>
        <polygon id="Rectangle" fill="#C8BDB8" points="129.583333 103.498047 129.583333 109 51.7353516 109 50.4166667 103.498047"></polygon>
        <path d="M129.762441,57.5384615 C133.789518,57.5384615 137.054108,60.793007 137.054108,64.8076923 C137.054108,65.177753 137.025762,65.5472735 136.969318,65.9130311 L130.238549,109.528416 C130.124113,110.269963 129.899769,110.970912 129.583579,111.615815 L129.583333,116.730769 C129.583333,120.745455 126.318743,124 122.291667,124 L57.7083333,124 C53.681257,124 50.4166667,120.745455 50.4166667,116.730769 L50.4164211,111.615815 C50.1002309,110.970912 49.8758872,110.269963 49.7614509,109.528416 L43.0306817,65.9130311 C42.4183358,61.9450297 45.1485601,58.2334521 49.1288084,57.6229904 C49.4956948,57.56672 49.8663558,57.5384615 50.2375587,57.5384615 L129.762441,57.5384615 Z M125.416667,115.692308 L54.5833333,115.692308 L54.5833333,116.730769 C54.5833333,118.451349 55.9824435,119.846154 57.7083333,119.846154 L122.291667,119.846154 C124.017557,119.846154 125.416667,118.451349 125.416667,116.730769 L125.416667,115.692308 Z M129.762441,61.6923077 L50.2375587,61.6923077 C50.0784717,61.6923077 49.919617,61.7044184 49.76238,61.7285343 C48.0565593,61.9901608 46.8864632,63.5808369 47.1488971,65.2814089 L53.8796663,108.896794 C54.1142008,110.416577 55.4259183,111.538462 56.9683279,111.538462 L123.031672,111.538462 C124.574082,111.538462 125.885799,110.416577 126.120334,108.896794 L132.851103,65.2814089 C132.875293,65.1246557 132.887441,64.9662898 132.887441,64.8076923 C132.887441,63.0871129 131.488331,61.6923077 129.762441,61.6923077 Z M98.9683581,72.2647115 L100.192688,83.2240227 C102.578034,88.2596177 101.551951,94.2944455 97.4870662,98.2923065 C92.1998876,103.492308 83.6334457,103.492308 78.3462671,98.2923065 C74.2822102,94.2952593 73.2558905,88.2622651 75.6389082,83.2276889 L76.5947982,72.289829 L82.7767156,76.5218494 C86.0699693,75.1934412 89.784943,75.1963324 93.0758216,76.5296133 L98.9683581,72.2647115 Z M78.3602202,76.0178633 L77.6978679,83.5968902 L77.5954751,83.9638253 C75.4946415,88.2365463 76.3390691,93.4006812 79.8093967,96.8137887 C84.2853254,101.215917 91.5480079,101.215917 96.0239367,96.8137887 C99.4921945,93.4027167 100.337831,88.2425531 98.241368,83.9709701 L98.1417736,83.6295156 L97.2942368,76.0429808 L93.3255247,78.9154564 L92.7714144,78.6610053 C89.7147577,77.2573682 86.1543894,77.2521858 83.0934753,78.6465722 L82.5570561,78.8909356 L78.3602202,76.0178633 Z M78.554128,86.4971751 L80.2564764,87.8894478 C80.3867106,87.9959603 80.6394728,88.1916775 80.9920661,88.4465999 C81.5838951,88.8744879 82.2311822,89.3027345 82.9102292,89.7012373 C84.0645896,90.3786805 85.186471,90.896503 86.2148447,91.191605 C86.8360066,91.3698536 87.4070371,91.4615385 87.9166667,91.4615385 C88.4315989,91.4615385 89.0096395,91.3679393 89.6390598,91.1860612 C90.6640856,90.8898682 91.7818335,90.3740378 92.9320826,89.7006701 C93.6129785,89.3020666 94.262225,88.8737161 94.856003,88.445721 C95.2097757,88.1907217 95.46346,87.9949285 95.5942358,87.8883398 L95.5942358,87.8883398 L97.2952271,86.501948 L97.2952271,88.6923077 C97.2952271,93.1823157 93.2496463,97.3461538 87.9166667,97.3461538 C82.5853488,97.3461538 78.554128,93.1854563 78.554128,88.6923077 L78.554128,88.6923077 L78.554128,86.4971751 Z M94.6911187,91.0637562 C94.4608703,91.208814 94.2259404,91.3517683 93.9870153,91.4916376 C92.6993675,92.2454399 91.4316394,92.8304848 90.2190482,93.1808769 C89.4123897,93.4139701 88.6435672,93.5384615 87.9166667,93.5384615 C87.1967056,93.5384615 86.436014,93.4163246 85.6385653,93.1874888 C84.420189,92.8378637 83.1466225,92.2500284 81.8533613,91.4910704 C81.6170222,91.3523734 81.3846242,91.2106439 81.1568315,91.0668385 C82.2087746,93.423606 84.7615446,95.2692308 87.9166667,95.2692308 C91.0746306,95.2692308 93.635768,93.4204308 94.6911187,91.0637562 Z M80.8931427,84.5838353 C83.6737973,84.264161 85.3205275,85.6336519 85.8333333,88.6923077 C79.7592183,86.2730003 78.1124881,84.9035095 80.8931427,84.5838353 Z M94.9401907,84.5838353 C97.7208453,84.9035095 96.074115,86.2730003 90,88.6923077 C90.5128059,85.6336519 92.1595361,84.264161 94.9401907,84.5838353 Z" id="Combined-Shape" fill="#4C433F" fill-rule="nonzero"></path>
        <g id="100+" transform="translate(20.000000, 109.000000)">
            <rect id="Rectangle" fill="#88B9D8" x="0" y="0" width="140" height="50"></rect>
            <path d="M140,-2 L0,-2 C-1.1045695,-2 -2,-1.1045695 -2,0 L-2,50 C-2,51.1045695 -1.1045695,52 0,52 L140,52 C141.104569,52 142,51.1045695 142,50 L142,0 C142,-1.1045695 141.104569,-2 140,-2 Z M138,2 L138,48 L2,48 L2,2 L138,2 Z" id="Rectangle" fill="#4C433F" fill-rule="nonzero"></path>
            <rect id="Rectangle-Copy-5" fill="#5AA2BF" x="2" y="30" width="136" height="18"></rect>
            <path d="M49.9,37 L49.9,32.68 L45.88,32.68 L45.88,14.68 L41.95,14.68 C40.39,15.64 38.83,16.24 36.43,16.69 L36.43,19.99 L40.54,19.99 L40.54,32.68 L35.8,32.68 L35.8,37 L49.9,37 Z M60.85,37.42 C65.56,37.42 68.77,33.4 68.77,25.72 C68.77,18.1 65.56,14.26 60.85,14.26 C56.14,14.26 52.96,18.04 52.96,25.72 C52.96,33.4 56.14,37.42 60.85,37.42 Z M60.85,33.28 C59.26,33.28 58,31.84 58,25.72 C58,19.63 59.26,18.37 60.85,18.37 C62.44,18.37 63.73,19.63 63.73,25.72 C63.73,31.84 62.44,33.28 60.85,33.28 Z M79.12,37.42 C83.83,37.42 87.04,33.4 87.04,25.72 C87.04,18.1 83.83,14.26 79.12,14.26 C74.41,14.26 71.23,18.04 71.23,25.72 C71.23,33.4 74.41,37.42 79.12,37.42 Z M79.12,33.28 C77.53,33.28 76.27,31.84 76.27,25.72 C76.27,19.63 77.53,18.37 79.12,18.37 C80.71,18.37 82,19.63 82,25.72 C82,31.84 80.71,33.28 79.12,33.28 Z M99.34,33.85 L99.34,27.55 L105.37,27.55 L105.37,23.8 L99.34,23.8 L99.34,17.53 L95.44,17.53 L95.44,23.8 L89.44,23.8 L89.44,27.55 L95.44,27.55 L95.44,33.85 L99.34,33.85 Z" fill="#FFFFFF" fill-rule="nonzero"></path>
        </g>
        <path d="M25,33 L29,33 C29.5522847,33 30,32.5522847 30,32 C30,31.4477153 29.5522847,31 29,31 L25,31 C24.4477153,31 24,31.4477153 24,32 C24,32.5522847 24.4477153,33 25,33 Z M39,33 L43,33 C43.5522847,33 44,32.5522847 44,32 C44,31.4477153 43.5522847,31 43,31 L39,31 C38.4477153,31 38,31.4477153 38,32 C38,32.5522847 38.4477153,33 39,33 Z" id="Line-3-Copy-11" fill="#4C433F" fill-rule="nonzero"></path>
        <path d="M113,38 L117,38 C117.552285,38 118,37.5522847 118,37 C118,36.4477153 117.552285,36 117,36 L113,36 C112.447715,36 112,36.4477153 112,37 C112,37.5522847 112.447715,38 113,38 Z M127,38 L131,38 C131.552285,38 132,37.5522847 132,37 C132,36.4477153 131.552285,36 131,36 L127,36 C126.447715,36 126,36.4477153 126,37 C126,37.5522847 126.447715,38 127,38 Z M141,38 L145,38 C145.552285,38 146,37.5522847 146,37 C146,36.4477153 145.552285,36 145,36 L141,36 C140.447715,36 140,36.4477153 140,37 C140,37.5522847 140.447715,38 141,38 Z" id="Line-3-Copy-7" fill="#4C433F" fill-rule="nonzero"></path>
    </g>
</svg>