<?xml version="1.0" encoding="UTF-8"?>
<svg width="180px" height="180px" viewBox="0 0 180 180" version="1.1" xmlns="http://www.w3.org/2000/svg" xmlns:xlink="http://www.w3.org/1999/xlink">
    <!-- Generator: Sketch 63.1 (92452) - https://sketch.com -->
    <title>img/online_sandbox</title>
    <desc>Created with Sketch.</desc>
    <g id="img/online_sandbox" stroke="none" stroke-width="1" fill="none" fill-rule="evenodd">
        <circle id="Oval" fill="#F5F2E9" cx="90" cy="90" r="80"></circle>
        <path d="M30,51 L34,51 C34.5522847,51 35,50.5522847 35,50 C35,49.4477153 34.5522847,49 34,49 L30,49 C29.4477153,49 29,49.4477153 29,50 C29,50.5522847 29.4477153,51 30,51 Z M44,51 L48,51 C48.5522847,51 49,50.5522847 49,50 C49,49.4477153 48.5522847,49 48,49 L44,49 C43.4477153,49 43,49.4477153 43,50 C43,50.5522847 43.4477153,51 44,51 Z M58,51 L62,51 C62.5522847,51 63,50.5522847 63,50 C63,49.4477153 62.5522847,49 62,49 L58,49 C57.4477153,49 57,49.4477153 57,50 C57,50.5522847 57.4477153,51 58,51 Z M72,51 L76,51 C76.5522847,51 77,50.5522847 77,50 C77,49.4477153 76.5522847,49 76,49 L72,49 C71.4477153,49 71,49.4477153 71,50 C71,50.5522847 71.4477153,51 72,51 Z M86,51 L90,51 C90.5522847,51 91,50.5522847 91,50 C91,49.4477153 90.5522847,49 90,49 L86,49 C85.4477153,49 85,49.4477153 85,50 C85,50.5522847 85.4477153,51 86,51 Z" id="Line-3-Copy" fill="#4C433F" fill-rule="nonzero"></path>
        <path d="M114.010638,62.7499434 L118.010411,62.7073926 C118.562665,62.7015176 119.005592,62.249065 118.999775,61.6968115 C118.993842,61.144558 118.541389,60.7016308 117.989136,60.7075058 L113.989362,60.7500566 C113.437109,60.7559316 112.994182,61.2083842 112.999999,61.7606377 C113.005932,62.3128912 113.458384,62.7558185 114.010638,62.7499434 Z M128.009846,62.6010157 L132.009619,62.5584649 C132.561873,62.5525899 133.0048,62.1001373 132.998983,61.5478838 C132.99305,60.9956303 132.540597,60.552703 131.988344,60.5585781 L127.98857,60.6011288 C127.436317,60.6070039 126.993389,61.0594565 126.999207,61.61171 C127.005139,62.1639635 127.457592,62.6068907 128.009846,62.6010157 Z M142.009053,62.4520879 L146.008827,62.4095371 C146.561081,62.4036621 147.004008,61.9512095 146.998191,61.398956 C146.992258,60.8467025 146.539805,60.4037753 145.987552,60.4096503 L141.987778,60.4522011 C141.435525,60.4580761 140.992597,60.9105287 140.998415,61.4627822 C141.004347,62.0150357 141.4568,62.457963 142.009053,62.4520879 Z M156.008261,62.3031602 L160.008035,62.2606094 C160.560288,62.2547344 161.003216,61.8022818 160.997398,61.2500283 C160.991466,60.6977748 160.539013,60.2548475 159.98676,60.2607226 L155.986986,60.3032734 C155.434732,60.3091484 154.991805,60.761601 154.997622,61.3138545 C155.003555,61.866108 155.456008,62.3090352 156.008261,62.3031602 Z" id="Line-3" fill="#4C433F" fill-rule="nonzero"></path>
        <path d="M11,107 L15,107 C15.5522847,107 16,106.552285 16,106 C16,105.447715 15.5522847,105 15,105 L11,105 C10.4477153,105 10,105.447715 10,106 C10,106.552285 10.4477153,107 11,107 Z M25,107 L29,107 C29.5522847,107 30,106.552285 30,106 C30,105.447715 29.5522847,105 29,105 L25,105 C24.4477153,105 24,105.447715 24,106 C24,106.552285 24.4477153,107 25,107 Z M39,107 L43,107 C43.5522847,107 44,106.552285 44,106 C44,105.447715 43.5522847,105 43,105 L39,105 C38.4477153,105 38,105.447715 38,106 C38,106.552285 38.4477153,107 39,107 Z" id="Line-3-Copy-2" fill="#4C433F" fill-rule="nonzero"></path>
        <path d="M135,122 L139,122 C139.552285,122 140,121.552285 140,121 C140,120.447715 139.552285,120 139,120 L135,120 C134.447715,120 134,120.447715 134,121 C134,121.552285 134.447715,122 135,122 Z M149,122 L153,122 C153.552285,122 154,121.552285 154,121 C154,120.447715 153.552285,120 153,120 L149,120 C148.447715,120 148,120.447715 148,121 C148,121.552285 148.447715,122 149,122 Z M163,122 L167,122 C167.552285,122 168,121.552285 168,121 C168,120.447715 167.552285,120 167,120 L163,120 C162.447715,120 162,120.447715 162,121 C162,121.552285 162.447715,122 163,122 Z" id="Line-3-Copy-3" fill="#4C433F" fill-rule="nonzero"></path>
        <g id="Group" transform="translate(45.577382, 44.593692) rotate(-25.000000) translate(-45.577382, -44.593692) translate(28.577382, 6.093692)">
            <path d="M25.3502381,4 C26.299398,4 27.2176295,4.3375208 27.9408318,4.95224273 C29.567954,6.3352966 29.8134526,8.74028725 28.5356243,10.4195385 L28.3979954,10.5905937 L18.9997619,21.647 L19,45 L15,45 L14.9997619,21.647 L5.60200463,10.5905937 C4.9872827,9.86739141 4.6497619,8.94915993 4.6497619,8 C4.6497619,5.85780461 6.33373037,4.10892112 8.45012156,4.00489531 L8.6497619,4 L25.3502381,4 Z M23.7974376,7 L10.2025624,7 C9.37413529,7 8.70256242,7.67157288 8.70256242,8.5 C8.70256242,8.85090476 8.82558675,9.1907041 9.0502305,9.4602766 L17,19 L24.9497695,9.4602766 C25.4801156,8.82386125 25.3941295,7.8780142 24.7577142,7.34766808 C24.4881417,7.12302433 24.1483423,7 23.7974376,7 Z" id="Shape" fill="#C8BDB8"></path>
            <path d="M25.3452366,0.0014154293 C27.2435564,0.0014154293 29.0800194,0.676457032 30.5264239,1.90590089 C33.6982963,4.60199243 34.2582387,9.26044108 31.8769274,12.6211191 L31.7138123,12.8432059 L31.5094819,13.0994983 L22.994,23.119 L22.9950392,49.0014154 L10.9950392,49.0014154 L10.994,23.118 L2.54924582,13.1826028 C1.46444242,11.9063635 0.811267068,10.3264455 0.67259333,8.6683078 L0.651743159,8.33570414 L0.644760362,8.00141543 C0.644760362,3.81502098 3.86704141,0.358092206 8.09236185,0.0238037131 L8.34706697,0.00751271725 L8.64476036,0.0014154293 L25.3452366,0.0014154293 Z M14.9949985,45.0014154 L18.9949985,45.0014154 L18.9947604,21.6484154 L28.3929938,10.5920091 L28.5306228,10.420954 C28.8776193,9.96495038 29.1122851,9.45543053 29.2374578,8.92739044 L29.29014,8.66838601 C29.4929121,7.46022119 29.1361845,6.18639545 28.2527157,5.25381571 L28.0992189,5.10030647 L27.9358302,4.95365816 C27.2728948,4.39016306 26.4460807,4.0595939 25.5817872,4.00841221 L25.3452366,4.00141543 L8.64476036,4.00141543 L8.44512002,4.00631074 C6.32872883,4.11033655 4.64476036,5.85922004 4.64476036,8.00141543 C4.64476036,8.8714787 4.92837159,9.71555348 5.44913254,10.4072404 L5.59700309,10.5920091 L14.9947604,21.6484154 L14.9949985,45.0014154 Z" id="Combined-Shape" fill="#4C433F" fill-rule="nonzero"></path>
            <path d="M16.9949985,7.00141543 L24.944768,16.5411388 C25.4751141,17.1775542 25.389128,18.1234012 24.7527126,18.6537473 C24.4831401,18.8783911 24.1433408,19.0014154 23.792436,19.0014154 L10.1975609,19.0014154 C9.36913376,19.0014154 8.69756088,18.3298426 8.69756088,17.5014154 C8.69756088,17.1505107 8.82058521,16.8107113 9.04522896,16.5411388 L16.9949985,7.00141543 Z M16.995,13.249 L15.535,15.001 L18.454,15.001 L16.995,13.249 Z" id="Triangle" fill="#4C433F" fill-rule="nonzero" transform="translate(16.995017, 13.001415) scale(1, -1) translate(-16.995017, -13.001415) "></path>
            <rect id="Rectangle" fill="#908883" x="2" y="45" width="30" height="30" rx="8"></rect>
            <path d="M24,43 L10,43 C4.4771525,43 1.73550063e-11,47.4771525 1.73550063e-11,53 L1.73550063e-11,67 C1.73550063e-11,72.5228475 4.4771525,77 10,77 L24,77 C29.5228475,77 34,72.5228475 34,67 L34,53 C34,47.4771525 29.5228475,43 24,43 Z M10,47 L24,47 C27.3137085,47 30,49.6862915 30,53 L30,67 C30,70.3137085 27.3137085,73 24,73 L10,73 C6.6862915,73 4,70.3137085 4,67 L4,53 C4,49.6862915 6.6862915,47 10,47 Z" id="Rectangle" fill="#4C433F" fill-rule="nonzero"></path>
        </g>
        <rect id="Rectangle-Copy" fill="#88B9D8" x="30" y="98" width="120" height="30"></rect>
        <path d="M150,96 L30,96 C28.8954305,96 28,96.8954305 28,98 L28,128 C28,129.104569 28.8954305,130 30,130 L150,130 C151.104569,130 152,129.104569 152,128 L152,98 C152,96.8954305 151.104569,96 150,96 Z M148,100 L148,126 L32,126 L32,100 L148,100 Z" id="Rectangle-Copy" fill="#4C433F" fill-rule="nonzero"></path>
        <path d="M30,80 L52.1858147,59.3442415 C56.0253578,55.7694945 61.9746422,55.7694945 65.8141853,59.3442415 C71.2670349,64.4210325 75.3566721,68.2286258 78.0830969,70.7670213 L78.102,70.7846994 L102.385685,46.2021458 C106.266897,42.2730182 112.598427,42.2341745 116.527555,46.1153858 L150,80 L30,80 Z" id="Combined-Shape" fill="#FFD36A"></path>
        <path d="M99.5399594,43.3911238 L77.985,65.21 L68.5398594,56.4166656 C63.1644991,51.4120198 54.8355009,51.4120198 49.4601406,56.4166656 L27.2743259,77.0724241 C24.6154398,79.5479387 26.3671158,84 30,84 L150,84 C153.55183,84 155.341789,79.7157774 152.845681,77.1889331 L119.338577,43.2696599 C113.837798,37.8359641 104.973655,37.8903453 99.5399594,43.3911238 Z M116.527555,46.1153858 L150,80 L30,80 L52.1858147,59.3442415 C56.0253578,55.7694945 61.9746422,55.7694945 65.8141853,59.3442415 L78.102,70.7846994 L102.385685,46.2021458 C106.266897,42.2730182 112.598427,42.2341745 116.527555,46.1153858 Z" id="Combined-Shape" fill="#4C433F" fill-rule="nonzero"></path>
        <rect id="Rectangle" fill="#88B9D8" x="25" y="78" width="130" height="20" rx="1"></rect>
        <path d="M154,76 L26,76 C24.3431458,76 23,77.3431458 23,79 L23,97 C23,98.6568542 24.3431458,100 26,100 L154,100 C155.656854,100 157,98.6568542 157,97 L157,79 C157,77.3431458 155.656854,76 154,76 Z M153,80 L153,96 L27,96 L27,80 L153,80 Z" id="Rectangle" fill="#4C433F" fill-rule="nonzero"></path>
        <circle id="Oval" fill="#4C433F" cx="48" cy="72" r="2"></circle>
        <circle id="Oval-Copy" fill="#4C433F" cx="56" cy="64" r="2"></circle>
        <circle id="Oval-Copy-2" fill="#4C433F" cx="66" cy="71" r="2"></circle>
        <circle id="Oval-Copy-3" fill="#4C433F" cx="110" cy="52" r="2"></circle>
        <circle id="Oval-Copy-4" fill="#4C433F" cx="123" cy="61" r="2"></circle>
        <circle id="Oval-Copy-14" fill="#4C433F" cx="133" cy="69" r="2"></circle>
        <circle id="Oval-Copy-5" fill="#4C433F" cx="110" cy="62" r="2"></circle>
        <circle id="Oval-Copy-6" fill="#4C433F" cx="90" cy="70" r="2"></circle>
        <circle id="Oval-Copy-7" fill="#4C433F" cx="97" cy="60" r="2"></circle>
        <circle id="Oval-Copy-8" fill="#4C433F" cx="104" cy="69" r="2"></circle>
        <circle id="Oval-Copy-9" fill="#4C433F" cx="119" cy="71" r="2"></circle>
        <path d="M167,128 C171.970563,128 176,132.029437 176,137 C176,141.970563 171.970563,146 167,146 L85.1276857,146.00025 C88.0217794,147.496563 90,150.517263 90,154 C90,158.970563 85.9705627,163 81,163 L13,163 C8.02943725,163 4,158.970563 4,154 C4,149.029437 8.02943725,145 13,145 L23.8742989,145.000776 C20.979125,143.504817 19,140.483533 19,137 C19,132.029437 23.0294373,128 28,128 L167,128 Z" id="Combined-Shape" fill="#FFFFFF"></path>
        <path d="M167,126 L28,126 C21.9248678,126 17,130.924868 17,137 L17.0045759,137.319009 C17.0624268,139.333932 17.6667274,141.242014 18.6983681,142.874647 L18.78,143 L13.0001427,143 C6.92486775,143 2,147.924868 2,154 C2,160.075132 6.92486775,165 13,165 L81,165 C87.0751322,165 92,160.075132 92,154 L91.9954263,153.681066 C91.9376025,151.666612 91.3335842,149.758937 90.302381,148.126537 L90.22,148 L167,148 C173.075132,148 178,143.075132 178,137 C178,130.924868 173.075132,126 167,126 Z M28,130 L167,130 C170.865993,130 174,133.134007 174,137 C174,140.865993 170.865993,144 167,144 L85.1276796,144.00025 C83.0842553,144.000256 82.3825392,146.675353 84.0742738,147.701254 L84.2091458,147.776844 C86.519315,148.971254 88,151.353231 88,154 C88,157.865993 84.8659932,161 81,161 L13,161 C9.13400675,161 6,157.865993 6,154 C6,150.134007 9.13400675,147 13,147 L23.8741563,147.000776 C25.9703249,147.000925 26.6546559,144.186197 24.7923965,143.223954 C22.4813855,142.029837 21,139.64739 21,137 C21,133.134007 24.1340068,130 28,130 Z" id="Combined-Shape" fill="#4C433F" fill-rule="nonzero"></path>
        <rect id="Rectangle-Copy-3" fill="#FFFFFF" x="97" y="158" width="60" height="10" rx="5"></rect>
        <path d="M152,156 L102,156 C98.1340068,156 95,159.134007 95,163 C95,166.865993 98.1340068,170 102,170 L152,170 C155.865993,170 159,166.865993 159,163 C159,159.134007 155.865993,156 152,156 Z M102,160 L152,160 C153.656854,160 155,161.343146 155,163 C155,164.656854 153.656854,166 152,166 L102,166 C100.343146,166 99,164.656854 99,163 C99,161.343146 100.343146,160 102,160 Z" id="Rectangle-Copy-3" fill="#4C433F" fill-rule="nonzero"></path>
        <circle id="Oval" fill="#FFD36A" cx="25" cy="66" r="5"></circle>
        <circle id="Oval-Copy-13" fill="#FFD36A" cx="90" cy="30" r="5"></circle>
        <circle id="Oval-Copy-12" fill="#FFD36A" cx="167" cy="157" r="5"></circle>
        <circle id="Oval-Copy-10" fill="#FFD36A" cx="160" cy="108" r="5"></circle>
        <circle id="Oval-Copy-11" fill="#FFD36A" cx="16" cy="120" r="5"></circle>
        <rect id="Rectangle-Copy-5" fill="#5AA2BF" x="32" y="100" width="116" height="8"></rect>
        <rect id="Rectangle-Copy-6" fill="#5AA2BF" x="27" y="80" width="126" height="8"></rect>
        <line x1="36" y1="168" x2="68" y2="168" id="Line-3-Copy-4" stroke="#4C433F" stroke-width="2" stroke-linecap="round" stroke-linejoin="round" stroke-dasharray="4,10"></line>
        <path d="M99,31 L103,31 C103.552285,31 104,30.5522847 104,30 C104,29.4477153 103.552285,29 103,29 L99,29 C98.4477153,29 98,29.4477153 98,30 C98,30.5522847 98.4477153,31 99,31 Z M113,31 L117,31 C117.552285,31 118,30.5522847 118,30 C118,29.4477153 117.552285,29 117,29 L113,29 C112.447715,29 112,29.4477153 112,30 C112,30.5522847 112.447715,31 113,31 Z M127,31 L131,31 C131.552285,31 132,30.5522847 132,30 C132,29.4477153 131.552285,29 131,29 L127,29 C126.447715,29 126,29.4477153 126,30 C126,30.5522847 126.447715,31 127,31 Z M141,31 L145,31 C145.552285,31 146,30.5522847 146,30 C146,29.4477153 145.552285,29 145,29 L141,29 C140.447715,29 140,29.4477153 140,30 C140,30.5522847 140.447715,31 141,31 Z" id="Line-3-Copy-5" fill="#4C433F" fill-rule="nonzero"></path>
    </g>
</svg>