<?xml version="1.0" encoding="UTF-8"?>
<svg width="180px" height="180px" viewBox="0 0 180 180" version="1.1" xmlns="http://www.w3.org/2000/svg" xmlns:xlink="http://www.w3.org/1999/xlink">
    <!-- Generator: Sketch 63.1 (92452) - https://sketch.com -->
    <title>img/Technical_data</title>
    <desc>Created with Sketch.</desc>
    <g id="img/Technical_data" stroke="none" stroke-width="1" fill="none" fill-rule="evenodd">
        <circle id="Oval" fill="#F5F2E9" cx="123.5" cy="57.5" r="47.5"></circle>
        <circle id="Oval-Copy" fill="#F5F2E9" cx="69" cy="112" r="59"></circle>
        <rect id="Rectangle" fill="#FFFFFF" x="47" y="34" width="69" height="30" rx="1"></rect>
        <path d="M115,32 L48,32 C46.3431458,32 45,33.3431458 45,35 L45,63 C45,64.6568542 46.3431458,66 48,66 L115,66 C116.656854,66 118,64.6568542 118,63 L118,35 C118,33.3431458 116.656854,32 115,32 Z M114,36 L114,62 L49,62 L49,36 L114,36 Z" id="Rectangle" fill="#4C433F" fill-rule="nonzero"></path>
        <rect id="Rectangle" fill="#E7E7E7" x="49" y="50" width="65" height="12"></rect>
        <rect id="Rectangle-Copy" fill="#FFFFFF" x="84" y="75" width="90" height="30" rx="1"></rect>
        <path d="M173,73 L85,73 C83.3431458,73 82,74.3431458 82,76 L82,104 C82,105.656854 83.3431458,107 85,107 L173,107 C174.656854,107 176,105.656854 176,104 L176,76 C176,74.3431458 174.656854,73 173,73 Z M172,77 L172,103 L86,103 L86,77 L172,77 Z" id="Rectangle-Copy" fill="#4C433F" fill-rule="nonzero"></path>
        <rect id="Rectangle-Copy-2" fill="#FFFFFF" x="31" y="115" width="50" height="30" rx="1"></rect>
        <path d="M80,113 L32,113 C30.3431458,113 29,114.343146 29,116 L29,144 C29,145.656854 30.3431458,147 32,147 L80,147 C81.6568542,147 83,145.656854 83,144 L83,116 C83,114.343146 81.6568542,113 80,113 Z M79,117 L79,143 L33,143 L33,117 L79,117 Z" id="Rectangle-Copy-2" fill="#4C433F" fill-rule="nonzero"></path>
        <rect id="Rectangle-Copy-3" fill="#E7E7E7" x="86" y="91" width="86" height="12"></rect>
        <rect id="Rectangle-Copy-4" fill="#E7E7E7" x="33" y="131" width="46" height="12"></rect>
        <rect id="Rectangle" fill="#88B9D8" x="57" y="53" width="49" height="7"></rect>
        <rect id="Rectangle-Copy-5" fill="#FFD36A" x="95" y="94" width="70" height="7"></rect>
        <rect id="Rectangle-Copy-6" fill="#88B9D8" x="46" y="134" width="19" height="7"></rect>
        <path d="M51.848,137 L51.848,125.16 L49.48,125.16 L49.48,137 L51.848,137 Z M57.128,137 L57.128,132.792 L58.712,132.792 C61.256,132.792 63.288,131.576 63.288,128.872 C63.288,126.072 61.272,125.16 58.648,125.16 L54.76,125.16 L54.76,137 L57.128,137 Z M58.552,130.92 L57.128,130.92 L57.128,127.032 L58.472,127.032 C60.104,127.032 60.968,127.496 60.968,128.872 C60.968,130.232 60.184,130.92 58.552,130.92 Z" id="IP" fill="#4C433F" fill-rule="nonzero"></path>
        <path d="M101.868,97 C105.356,97 107.596,95.016 107.596,91.032 C107.596,87.032 105.356,85.16 101.74,85.16 L98.492,85.16 L98.492,97 L101.868,97 Z M101.596,95.096 L100.86,95.096 L100.86,87.048 L101.596,87.048 C103.804,87.048 105.18,88.136 105.18,91.032 C105.18,93.912 103.804,95.096 101.596,95.096 Z M114.62,97.224 C117.756,97.224 119.916,94.872 119.916,91.032 C119.916,87.192 117.756,84.936 114.62,84.936 C111.484,84.936 109.324,87.176 109.324,91.032 C109.324,94.872 111.484,97.224 114.62,97.224 Z M114.62,95.176 C112.86,95.176 111.74,93.56 111.74,91.032 C111.74,88.488 112.86,86.968 114.62,86.968 C116.38,86.968 117.5,88.488 117.5,91.032 C117.5,93.56 116.38,95.176 114.62,95.176 Z M124.364,97 L124.364,92.056 C124.364,90.936 124.172,89.288 124.06,88.168 L124.124,88.168 L125.068,90.952 L126.908,95.928 L128.268,95.928 L130.092,90.952 L131.052,88.168 L131.116,88.168 C131.004,89.288 130.828,90.936 130.828,92.056 L130.828,97 L132.988,97 L132.988,85.16 L130.364,85.16 L128.396,90.696 C128.14,91.432 127.932,92.216 127.676,92.984 L127.596,92.984 C127.356,92.216 127.132,91.432 126.876,90.696 L124.86,85.16 L122.236,85.16 L122.236,97 L124.364,97 Z M136.78,97 L137.612,93.96 L141.452,93.96 L142.284,97 L144.764,97 L140.956,85.16 L138.172,85.16 L134.38,97 L136.78,97 Z M140.94,92.12 L138.124,92.12 L138.476,90.824 C138.828,89.592 139.18,88.248 139.484,86.952 L139.548,86.952 C139.9,88.232 140.22,89.592 140.588,90.824 L140.94,92.12 Z M148.524,97 L148.524,85.16 L146.156,85.16 L146.156,97 L148.524,97 Z M153.676,97 L153.676,92.248 C153.676,90.888 153.5,89.4 153.388,88.12 L153.468,88.12 L154.668,90.664 L158.092,97 L160.492,97 L160.492,85.16 L158.252,85.16 L158.252,89.88 C158.252,91.224 158.428,92.792 158.556,94.024 L158.476,94.024 L157.292,91.464 L153.852,85.16 L151.436,85.16 L151.436,97 L153.676,97 Z" id="DOMAIN" fill="#4C433F" fill-rule="nonzero"></path>
        <path d="M63.092,56 L63.092,50.88 L67.572,50.88 L67.572,56 L69.924,56 L69.924,44.16 L67.572,44.16 L67.572,48.816 L63.092,48.816 L63.092,44.16 L60.724,44.16 L60.724,56 L63.092,56 Z M73.716,56 L74.548,52.96 L78.388,52.96 L79.22,56 L81.7,56 L77.892,44.16 L75.108,44.16 L71.316,56 L73.716,56 Z M77.876,51.12 L75.06,51.12 L75.412,49.824 C75.764,48.592 76.116,47.248 76.42,45.952 L76.484,45.952 C76.836,47.232 77.156,48.592 77.524,49.824 L77.876,51.12 Z M86.628,56.224 C89.364,56.224 90.98,54.576 90.98,52.64 C90.98,50.928 90.036,50.016 88.596,49.424 L87.044,48.768 C86.036,48.368 85.188,48.064 85.188,47.216 C85.188,46.432 85.86,45.968 86.9,45.968 C87.876,45.968 88.66,46.32 89.412,46.944 L90.612,45.456 C89.652,44.48 88.276,43.936 86.9,43.936 C84.5,43.936 82.804,45.424 82.804,47.36 C82.804,49.088 84.004,50.048 85.204,50.544 L86.788,51.216 C87.844,51.664 88.564,51.936 88.564,52.816 C88.564,53.648 87.908,54.176 86.676,54.176 C85.636,54.176 84.516,53.648 83.668,52.864 L82.308,54.496 C83.46,55.6 85.044,56.224 86.628,56.224 Z M95.444,56 L95.444,50.88 L99.924,50.88 L99.924,56 L102.276,56 L102.276,44.16 L99.924,44.16 L99.924,48.816 L95.444,48.816 L95.444,44.16 L93.076,44.16 L93.076,56 L95.444,56 Z" id="HASH" fill="#4C433F" fill-rule="nonzero"></path>
        <path d="M60,156 L64,156 C64.5522847,156 65,155.552285 65,155 C65,154.447715 64.5522847,154 64,154 L60,154 C59.4477153,154 59,154.447715 59,155 C59,155.552285 59.4477153,156 60,156 Z M74,156 L78,156 C78.5522847,156 79,155.552285 79,155 C79,154.447715 78.5522847,154 78,154 L74,154 C73.4477153,154 73,154.447715 73,155 C73,155.552285 73.4477153,156 74,156 Z M88,156 L92,156 C92.5522847,156 93,155.552285 93,155 C93,154.447715 92.5522847,154 92,154 L88,154 C87.4477153,154 87,154.447715 87,155 C87,155.552285 87.4477153,156 88,156 Z M102,156 L106,156 C106.552285,156 107,155.552285 107,155 C107,154.447715 106.552285,154 106,154 L102,154 C101.447715,154 101,154.447715 101,155 C101,155.552285 101.447715,156 102,156 Z M116,156 L120,156 C120.552285,156 121,155.552285 121,155 C121,154.447715 120.552285,154 120,154 L116,154 C115.447715,154 115,154.447715 115,155 C115,155.552285 115.447715,156 116,156 Z M130,156 L134,156 C134.552285,156 135,155.552285 135,155 C135,154.447715 134.552285,154 134,154 L130,154 C129.447715,154 129,154.447715 129,155 C129,155.552285 129.447715,156 130,156 Z M144,156 L148,156 C148.552285,156 149,155.552285 149,155 C149,154.447715 148.552285,154 148,154 L144,154 C143.447715,154 143,154.447715 143,155 C143,155.552285 143.447715,156 144,156 Z" id="Line-3-Copy-12" fill="#4C433F" fill-rule="nonzero"></path>
        <path d="M44.1994177,17.2639925 C44.5600649,16.9120025 45.1447897,16.9120025 45.505437,17.2639925 L45.505437,17.2639925 L50.7295145,22.3626658 C51.0901618,22.7146558 51.0901618,23.2853442 50.7295145,23.6373342 L50.7295145,23.6373342 L45.505437,28.7360075 C45.1447897,29.0879975 44.5600649,29.0879975 44.1994177,28.7360075 C43.8387704,28.3840176 43.8387704,27.8133291 44.1994177,27.4613392 L44.1994177,27.4613392 L48.7704855,23 L44.1994177,18.5386608 C43.8387704,18.1866709 43.8387704,17.6159824 44.1994177,17.2639925 Z M35.7349516,17.2639925 C36.0955989,16.9120025 36.6803236,16.9120025 37.0409709,17.2639925 L37.0409709,17.2639925 L42.2650484,22.3626658 C42.6256957,22.7146558 42.6256957,23.2853442 42.2650484,23.6373342 L42.2650484,23.6373342 L37.0409709,28.7360075 C36.6803236,29.0879975 36.0955989,29.0879975 35.7349516,28.7360075 C35.3743043,28.3840176 35.3743043,27.8133291 35.7349516,27.4613392 L35.7349516,27.4613392 L40.3060194,23 L35.7349516,18.5386608 C35.3743043,18.1866709 35.3743043,17.6159824 35.7349516,17.2639925 Z M27.2704855,17.2639925 C27.6311328,16.9120025 28.2158576,16.9120025 28.5765048,17.2639925 L28.5765048,17.2639925 L33.8005823,22.3626658 C34.1612296,22.7146558 34.1612296,23.2853442 33.8005823,23.6373342 L33.8005823,23.6373342 L28.5765048,28.7360075 C28.2158576,29.0879975 27.6311328,29.0879975 27.2704855,28.7360075 C26.9098382,28.3840176 26.9098382,27.8133291 27.2704855,27.4613392 L27.2704855,27.4613392 L31.8415533,23 L27.2704855,18.5386608 C26.9098382,18.1866709 26.9098382,17.6159824 27.2704855,17.2639925 Z" id="Combined-Shape" fill="#4C433F"></path>
        <path d="M149.199418,113.263992 C149.560065,112.912003 150.14479,112.912003 150.505437,113.263992 L150.505437,113.263992 L155.729515,118.362666 C156.090162,118.714656 156.090162,119.285344 155.729515,119.637334 L155.729515,119.637334 L150.505437,124.736008 C150.14479,125.087997 149.560065,125.087997 149.199418,124.736008 C148.83877,124.384018 148.83877,123.813329 149.199418,123.461339 L149.199418,123.461339 L153.770485,119 L149.199418,114.538661 C148.83877,114.186671 148.83877,113.615982 149.199418,113.263992 Z M140.734952,113.263992 C141.095599,112.912003 141.680324,112.912003 142.040971,113.263992 L142.040971,113.263992 L147.265048,118.362666 C147.625696,118.714656 147.625696,119.285344 147.265048,119.637334 L147.265048,119.637334 L142.040971,124.736008 C141.680324,125.087997 141.095599,125.087997 140.734952,124.736008 C140.374304,124.384018 140.374304,123.813329 140.734952,123.461339 L140.734952,123.461339 L145.306019,119 L140.734952,114.538661 C140.374304,114.186671 140.374304,113.615982 140.734952,113.263992 Z M132.270485,113.263992 C132.631133,112.912003 133.215858,112.912003 133.576505,113.263992 L133.576505,113.263992 L138.800582,118.362666 C139.16123,118.714656 139.16123,119.285344 138.800582,119.637334 L138.800582,119.637334 L133.576505,124.736008 C133.215858,125.087997 132.631133,125.087997 132.270485,124.736008 C131.909838,124.384018 131.909838,123.813329 132.270485,123.461339 L132.270485,123.461339 L136.841553,119 L132.270485,114.538661 C131.909838,114.186671 131.909838,113.615982 132.270485,113.263992 Z" id="Combined-Shape-Copy" fill="#4C433F"></path>
        <path d="M19.1994177,135.263992 C19.5600649,134.912003 20.1447897,134.912003 20.505437,135.263992 L20.505437,135.263992 L25.7295145,140.362666 C26.0901618,140.714656 26.0901618,141.285344 25.7295145,141.637334 L25.7295145,141.637334 L20.505437,146.736008 C20.1447897,147.087997 19.5600649,147.087997 19.1994177,146.736008 C18.8387704,146.384018 18.8387704,145.813329 19.1994177,145.461339 L19.1994177,145.461339 L23.7704855,141 L19.1994177,136.538661 C18.8387704,136.186671 18.8387704,135.615982 19.1994177,135.263992 Z M10.7349516,135.263992 C11.0955989,134.912003 11.6803236,134.912003 12.0409709,135.263992 L12.0409709,135.263992 L17.2650484,140.362666 C17.6256957,140.714656 17.6256957,141.285344 17.2650484,141.637334 L17.2650484,141.637334 L12.0409709,146.736008 C11.6803236,147.087997 11.0955989,147.087997 10.7349516,146.736008 C10.3743043,146.384018 10.3743043,145.813329 10.7349516,145.461339 L10.7349516,145.461339 L15.3060194,141 L10.7349516,136.538661 C10.3743043,136.186671 10.3743043,135.615982 10.7349516,135.263992 Z M2.27048547,135.263992 C2.63113276,134.912003 3.21585755,134.912003 3.57650484,135.263992 L3.57650484,135.263992 L8.80058234,140.362666 C9.16122963,140.714656 9.16122963,141.285344 8.80058234,141.637334 L8.80058234,141.637334 L3.57650484,146.736008 C3.21585755,147.087997 2.63113276,147.087997 2.27048547,146.736008 C1.90983818,146.384018 1.90983818,145.813329 2.27048547,145.461339 L2.27048547,145.461339 L6.84155328,141 L2.27048547,136.538661 C1.90983818,136.186671 1.90983818,135.615982 2.27048547,135.263992 Z" id="Combined-Shape-Copy-2" fill="#4C433F"></path>
        <rect id="Rectangle" fill="#FFD36A" x="145" y="18" width="5" height="5"></rect>
        <rect id="Rectangle-Copy-7" fill="#FFD36A" x="34" y="52" width="5" height="5"></rect>
        <rect id="Rectangle-Copy-8" fill="#FFD36A" x="72" y="76" width="5" height="5"></rect>
        <rect id="Rectangle-Copy-9" fill="#FFD36A" x="163" y="113" width="5" height="5"></rect>
        <rect id="Rectangle-Copy-10" fill="#FFD36A" x="17" y="79" width="5" height="5"></rect>
        <rect id="Rectangle-Copy-11" fill="#FFD36A" x="127" y="31" width="5" height="5"></rect>
        <rect id="Rectangle-Copy-12" fill="#FFD36A" x="130" y="59" width="5" height="5"></rect>
        <rect id="Rectangle-Copy-13" fill="#FFD36A" x="90" y="110" width="5" height="5"></rect>
        <rect id="Rectangle-Copy-14" fill="#FFD36A" x="48" y="103" width="5" height="5"></rect>
        <rect id="Rectangle-Copy-15" fill="#FFD36A" x="12" y="116" width="5" height="5"></rect>
        <rect id="Rectangle-Copy-16" fill="#FFD36A" x="47" y="157" width="5" height="5"></rect>
        <rect id="Rectangle-Copy-17" fill="#FFD36A" x="109" y="136" width="5" height="5"></rect>
        <rect id="Rectangle-Copy-20" fill="#FFD36A" x="22" y="42" width="5" height="5"></rect>
        <rect id="Rectangle-Copy-18" fill="#FFD36A" x="140" y="146" width="5" height="5"></rect>
        <rect id="Rectangle-Copy-19" fill="#FFD36A" x="93" y="144" width="5" height="5"></rect>
        <path d="M117,50 L121,50 C121.552285,50 122,49.5522847 122,49 C122,48.4477153 121.552285,48 121,48 L117,48 C116.447715,48 116,48.4477153 116,49 C116,49.5522847 116.447715,50 117,50 Z M131,50 L135,50 C135.552285,50 136,49.5522847 136,49 C136,48.4477153 135.552285,48 135,48 L131,48 C130.447715,48 130,48.4477153 130,49 C130,49.5522847 130.447715,50 131,50 Z M145,50 L149,50 C149.552285,50 150,49.5522847 150,49 C150,48.4477153 149.552285,48 149,48 L145,48 C144.447715,48 144,48.4477153 144,49 C144,49.5522847 144.447715,50 145,50 Z M159,50 L163,50 C163.552285,50 164,49.5522847 164,49 C164,48.4477153 163.552285,48 163,48 L159,48 C158.447715,48 158,48.4477153 158,49 C158,49.5522847 158.447715,50 159,50 Z" id="Line-3-Copy-10" fill="#4C433F" fill-rule="nonzero"></path>
        <path d="M46,98 L50,98 C50.5522847,98 51,97.5522847 51,97 C51,96.4477153 50.5522847,96 50,96 L46,96 C45.4477153,96 45,96.4477153 45,97 C45,97.5522847 45.4477153,98 46,98 Z M60,98 L64,98 C64.5522847,98 65,97.5522847 65,97 C65,96.4477153 64.5522847,96 64,96 L60,96 C59.4477153,96 59,96.4477153 59,97 C59,97.5522847 59.4477153,98 60,98 Z M74,98 L78,98 C78.5522847,98 79,97.5522847 79,97 C79,96.4477153 78.5522847,96 78,96 L74,96 C73.4477153,96 73,96.4477153 73,97 C73,97.5522847 73.4477153,98 74,98 Z" id="Line-3-Copy-13" fill="#4C433F" fill-rule="nonzero"></path>
        <path d="M24,73 L28,73 C28.5522847,73 29,72.5522847 29,72 C29,71.4477153 28.5522847,71 28,71 L24,71 C23.4477153,71 23,71.4477153 23,72 C23,72.5522847 23.4477153,73 24,73 Z M38,73 L42,73 C42.5522847,73 43,72.5522847 43,72 C43,71.4477153 42.5522847,71 42,71 L38,71 C37.4477153,71 37,71.4477153 37,72 C37,72.5522847 37.4477153,73 38,73 Z M52,73 L56,73 C56.5522847,73 57,72.5522847 57,72 C57,71.4477153 56.5522847,71 56,71 L52,71 C51.4477153,71 51,71.4477153 51,72 C51,72.5522847 51.4477153,73 52,73 Z M66,73 L70,73 C70.5522847,73 71,72.5522847 71,72 C71,71.4477153 70.5522847,71 70,71 L66,71 C65.4477153,71 65,71.4477153 65,72 C65,72.5522847 65.4477153,73 66,73 Z" id="Line-3-Copy-11" fill="#4C433F" fill-rule="nonzero"></path>
        <path d="M125,118 C125.552285,118 126,118.447715 126,119 C126,119.512836 125.61396,119.935507 125.116621,119.993272 L125,120 L81,120 C80.4477153,120 80,119.552285 80,119 C80,118.487164 80.3860402,118.064493 80.8833789,118.006728 L81,118 L125,118 Z" id="Line-3-Copy-15" fill="#4C433F" fill-rule="nonzero"></path>
        <path d="M101,22 C101.552285,22 102,22.4477153 102,23 C102,23.5128358 101.61396,23.9355072 101.116621,23.9932723 L101,24 L65,24 C64.4477153,24 64,23.5522847 64,23 C64,22.4871642 64.3860402,22.0644928 64.8833789,22.0067277 L65,22 L101,22 Z" id="Line-3-Copy-16" fill="#4C433F" fill-rule="nonzero"></path>
        <path d="M117,22 C117.552285,22 118,22.4477153 118,23 C118,23.5128358 117.61396,23.9355072 117.116621,23.9932723 L117,24 L106,24 C105.447715,24 105,23.5522847 105,23 C105,22.4871642 105.38604,22.0644928 105.883379,22.0067277 L106,22 L117,22 Z" id="Line-3-Copy-18" fill="#4C433F" fill-rule="nonzero"></path>
        <path d="M126.5,130.5 C127.052285,130.5 127.5,130.947715 127.5,131.5 C127.5,132.012836 127.11396,132.435507 126.616621,132.493272 L126.5,132.5 L90.5,132.5 C89.9477153,132.5 89.5,132.052285 89.5,131.5 C89.5,130.987164 89.8860402,130.564493 90.3833789,130.506728 L90.5,130.5 L126.5,130.5 Z" id="Line-3-Copy-19" fill="#4C433F" fill-rule="nonzero"></path>
        <path d="M142.5,130.5 C143.052285,130.5 143.5,130.947715 143.5,131.5 C143.5,132.012836 143.11396,132.435507 142.616621,132.493272 L142.5,132.5 L131.5,132.5 C130.947715,132.5 130.5,132.052285 130.5,131.5 C130.5,130.987164 130.88604,130.564493 131.383379,130.506728 L131.5,130.5 L142.5,130.5 Z" id="Line-3-Copy-20" fill="#4C433F" fill-rule="nonzero"></path>
        <path d="M84,86 C84.5522847,86 85,86.4477153 85,87 C85,87.5128358 84.6139598,87.9355072 84.1166211,87.9932723 L84,88 L44,88 C43.4477153,88 43,87.5522847 43,87 C43,86.4871642 43.3860402,86.0644928 43.8833789,86.0067277 L44,86 L84,86 Z" id="Line-3-Copy-14" fill="#4C433F" fill-rule="nonzero"></path>
        <path d="M39,86 C39.5522847,86 40,86.4477153 40,87 C40,87.5128358 39.6139598,87.9355072 39.1166211,87.9932723 L39,88 L30,88 C29.4477153,88 29,87.5522847 29,87 C29,86.4871642 29.3860402,86.0644928 29.8833789,86.0067277 L30,86 L39,86 Z" id="Line-3-Copy-17" fill="#4C433F" fill-rule="nonzero"></path>
    </g>
</svg>