<?xml version="1.0" encoding="UTF-8"?>
<svg width="180px" height="180px" viewBox="0 0 180 180" version="1.1" xmlns="http://www.w3.org/2000/svg" xmlns:xlink="http://www.w3.org/1999/xlink">
    <!-- Generator: Sketch 63.1 (92452) - https://sketch.com -->
    <title>img/API</title>
    <desc>Created with Sketch.</desc>
    <g id="img/API" stroke="none" stroke-width="1" fill="none" fill-rule="evenodd">
        <circle id="Oval-Copy" fill="#F5F2E9" transform="translate(90.000000, 90.000000) scale(1, -1) translate(-90.000000, -90.000000) " cx="90" cy="90" r="80"></circle>
        <polygon id="Triangle" fill="#FFD36A" transform="translate(103.000000, 25.000000) rotate(-270.000000) translate(-103.000000, -25.000000) " points="103 21 108 29 98 29"></polygon>
        <polygon id="Triangle-Copy" fill="#FFD36A" transform="translate(55.000000, 140.000000) rotate(-270.000000) translate(-55.000000, -140.000000) " points="55 136 60 144 50 144"></polygon>
        <polygon id="Triangle-Copy-2" fill="#FFD36A" transform="translate(166.000000, 57.000000) rotate(-270.000000) translate(-166.000000, -57.000000) " points="166 53 171 61 161 61"></polygon>
        <polygon id="Triangle-Copy-3" fill="#FFD36A" transform="translate(47.000000, 40.000000) rotate(-270.000000) translate(-47.000000, -40.000000) " points="47 36 52 44 42 44"></polygon>
        <polygon id="Triangle-Copy-4" fill="#FFD36A" transform="translate(14.000000, 67.000000) rotate(-270.000000) translate(-14.000000, -67.000000) " points="14 63 19 71 9 71"></polygon>
        <polygon id="Triangle-Copy-5" fill="#FFD36A" transform="translate(122.000000, 165.000000) rotate(-270.000000) translate(-122.000000, -165.000000) " points="122 161 127 169 117 169"></polygon>
        <polygon id="Triangle-Copy-6" fill="#FFD36A" transform="translate(39.000000, 162.000000) rotate(-270.000000) translate(-39.000000, -162.000000) " points="39 158 44 166 34 166"></polygon>
        <polygon id="Triangle-Copy-7" fill="#FFD36A" transform="translate(21.000000, 113.000000) rotate(-270.000000) translate(-21.000000, -113.000000) " points="21 109 26 117 16 117"></polygon>
        <polygon id="Triangle-Copy-8" fill="#FFD36A" transform="translate(138.000000, 33.000000) rotate(-270.000000) translate(-138.000000, -33.000000) " points="138 29 143 37 133 37"></polygon>
        <rect id="Rectangle" fill="#FFFFFF" x="35" y="50" width="110" height="80" rx="1"></rect>
        <path d="M144,48 L36,48 C34.3431458,48 33,49.3431458 33,51 L33,129 C33,130.656854 34.3431458,132 36,132 L144,132 C145.656854,132 147,130.656854 147,129 L147,51 C147,49.3431458 145.656854,48 144,48 Z M143,52 L143,128 L37,128 L37,52 L143,52 Z" id="Rectangle" fill="#4C433F" fill-rule="nonzero"></path>
        <rect id="Rectangle" fill="#E7E7E7" x="37" y="102" width="106" height="26"></rect>
        <rect id="Rectangle-Copy" fill="#88B9D8" x="35" y="50" width="110" height="24" rx="1"></rect>
        <path d="M144,48 L36,48 C34.3431458,48 33,49.3431458 33,51 L33,73 C33,74.6568542 34.3431458,76 36,76 L144,76 C145.656854,76 147,74.6568542 147,73 L147,51 C147,49.3431458 145.656854,48 144,48 Z M143,52 L143,72 L37,72 L37,52 L143,52 Z" id="Rectangle-Copy" fill="#4C433F" fill-rule="nonzero"></path>
        <rect id="Rectangle-Copy-6" fill="#5AA2BF" x="37" y="52" width="106" height="10"></rect>
        <circle id="Oval" fill="#4C433F" cx="111" cy="62" r="4"></circle>
        <circle id="Oval-Copy" fill="#4C433F" cx="123" cy="62" r="4"></circle>
        <circle id="Oval-Copy-2" fill="#4C433F" cx="135" cy="62" r="4"></circle>
        <path d="M64.926,116 L66.902,108.78 L76.022,108.78 L77.998,116 L83.888,116 L74.844,87.88 L68.232,87.88 L59.226,116 L64.926,116 Z M74.806,104.41 L68.118,104.41 L68.954,101.332 C69.79,98.406 70.626,95.214 71.348,92.136 L71.5,92.136 C72.336,95.176 73.096,98.406 73.97,101.332 L74.806,104.41 Z M92.818,116 L92.818,106.006 L96.58,106.006 C102.622,106.006 107.448,103.118 107.448,96.696 C107.448,90.046 102.66,87.88 96.428,87.88 L87.194,87.88 L87.194,116 L92.818,116 Z M96.2,101.56 L92.818,101.56 L92.818,92.326 L96.01,92.326 C99.886,92.326 101.938,93.428 101.938,96.696 C101.938,99.926 100.076,101.56 96.2,101.56 Z M118.164,116 L118.164,87.88 L112.54,87.88 L112.54,116 L118.164,116 Z" id="API" fill="#4C433F" fill-rule="nonzero"></path>
        <path d="M159,89 C159.512836,89 159.935507,89.3860402 159.993272,89.8833789 L160,90 L160,159 C160,159.552285 159.552285,160 159,160 C158.487164,160 158.064493,159.61396 158.006728,159.116621 L158,159 L158,91 L145,91 C144.487164,91 144.064493,90.6139598 144.006728,90.1166211 L144,90 C144,89.4871642 144.38604,89.0644928 144.883379,89.0067277 L145,89 L159,89 Z" id="Path-4" fill="#4C433F" fill-rule="nonzero"></path>
        <path d="M158.981727,79.000167 C159.53392,78.9900753 159.989741,79.4295348 159.999833,79.9817274 C160.009204,80.4944776 159.630951,80.9241323 159.134751,80.9909755 L159.018273,80.999833 L145.018273,81.2556924 C144.46608,81.2657841 144.010259,80.8263245 144.000167,80.274132 C143.990796,79.7613818 144.369049,79.3317271 144.865249,79.2648839 L144.981727,79.2560263 L158.981727,79.000167 Z" id="Path-6" fill="#4C433F" fill-rule="nonzero"></path>
        <path d="M159,21.75 C159.552285,21.75 160,22.1977153 160,22.75 C160,23.2628358 159.61396,23.6855072 159.116621,23.7432723 L159,23.75 L155.577,23.75 L155.577723,68.9755859 C155.577723,69.4884218 155.191683,69.9110931 154.694344,69.9688582 L154.577723,69.9755859 L145,69.9755859 C144.447715,69.9755859 144,69.5278707 144,68.9755859 C144,68.4627501 144.38604,68.0400788 144.883379,67.9823137 L145,67.9755859 L153.577,67.975 L153.577723,22.75 C153.577723,22.2371642 153.963763,21.8144928 154.461102,21.7567277 L154.577723,21.75 L159,21.75 Z" id="Path-7" fill="#4C433F" fill-rule="nonzero"></path>
        <path d="M128,34.6508789 C128.552285,34.6508789 129,35.0985942 129,35.6508789 C129,36.1637147 128.61396,36.5863861 128.116621,36.6441512 L128,36.6508789 L103.932,36.65 L103.932617,50 C103.932617,50.5128358 103.546577,50.9355072 103.049238,50.9932723 L102.932617,51 C102.419781,51 101.99711,50.6139598 101.939345,50.1166211 L101.932617,50 L101.932617,35.6508789 C101.932617,35.1380431 102.318657,34.7153717 102.815996,34.6576066 L102.932617,34.6508789 L128,34.6508789 Z" id="Path-10" fill="#4C433F" fill-rule="nonzero"></path>
        <path d="M34.999721,82.9960937 C35.5520057,82.9959397 36,83.44353 36,83.9958147 C36,84.5086506 35.6142208,84.9314296 35.1168983,84.9893334 L35.000279,84.9960937 L21.000279,85 C20.4479943,85.0001541 20,84.5525637 20,84.000279 C20,83.4874432 20.3857792,83.0646642 20.8831017,83.0067603 L20.999721,83 L34.999721,82.9960937 Z" id="Path-11" fill="#4C433F" fill-rule="nonzero"></path>
        <path d="M81,129 C81.5128358,129 81.9355072,129.38604 81.9932723,129.883379 L82,130 L82,159 C82,159.552285 81.5522847,160 81,160 C80.4871642,160 80.0644928,159.61396 80.0067277,159.116621 L80,159 L80,130 C80,129.447715 80.4477153,129 81,129 Z" id="Path-12" fill="#4C433F" fill-rule="nonzero"></path>
        <path d="M66.6259766,128.964049 C67.1388124,128.964049 67.5614837,129.35009 67.6192488,129.847428 L67.6259766,129.964049 L67.6259766,148.964049 C67.6259766,149.476885 67.2399364,149.899557 66.7425977,149.957322 L66.6259766,149.964049 L21,149.964049 C20.4477153,149.964049 20,149.516334 20,148.964049 C20,148.451214 20.3860402,148.028542 20.8833789,147.970777 L21,147.964049 L65.625,147.964 L65.6259766,129.964049 C65.6259766,129.451214 66.0120168,129.028542 66.5093554,128.970777 L66.6259766,128.964049 Z" id="Path-13" fill="#4C433F" fill-rule="nonzero"></path>
        <path d="M35,101 C35.5522847,101 36,101.447715 36,102 C36,102.512836 35.6139598,102.935507 35.1166211,102.993272 L35,103 L29.877,103 L29.8779297,133 C29.8779297,133.512836 29.4918895,133.935507 28.9945508,133.993272 L28.8779297,134 L21,134 C20.4477153,134 20,133.552285 20,133 C20,132.487164 20.3860402,132.064493 20.8833789,132.006728 L21,132 L27.877,132 L27.8779297,102 C27.8779297,101.487164 28.2639699,101.064493 28.7613086,101.006728 L28.8779297,101 L35,101 Z" id="Path-14" fill="#4C433F" fill-rule="nonzero"></path>
        <path d="M69,20.3017578 C69.5128358,20.3017578 69.9355072,20.687798 69.9932723,21.1851367 L70,21.3017578 L70,30.534 L79,30.5341797 C79.5128358,30.5341797 79.9355072,30.9202199 79.9932723,31.4175586 L80,31.5341797 L80,50 C80,50.5522847 79.5522847,51 79,51 C78.4871642,51 78.0644928,50.6139598 78.0067277,50.1166211 L78,50 L78,32.534 L69,32.5341797 C68.4871642,32.5341797 68.0644928,32.1481395 68.0067277,31.6508008 L68,31.5341797 L68,21.3017578 C68,20.7494731 68.4477153,20.3017578 69,20.3017578 Z" id="Path-15" fill="#4C433F" fill-rule="nonzero"></path>
        <path d="M93,129 C93.5128358,129 93.9355072,129.38604 93.9932723,129.883379 L94,130 L94,139.232 L103,139.232422 C103.512836,139.232422 103.935507,139.618462 103.993272,140.115801 L104,140.232422 L104,158.698242 C104,159.250527 103.552285,159.698242 103,159.698242 C102.487164,159.698242 102.064493,159.312202 102.006728,158.814863 L102,158.698242 L102,141.232 L93,141.232422 C92.4871642,141.232422 92.0644928,140.846382 92.0067277,140.349043 L92,140.232422 L92,130 C92,129.447715 92.4477153,129 93,129 Z" id="Path-15-Copy" fill="#4C433F" fill-rule="nonzero" transform="translate(98.000000, 144.349121) scale(-1, -1) translate(-98.000000, -144.349121) "></path>
        <path d="M57.128,27.6396484 C57.6408358,27.6396484 58.0635072,28.0256886 58.1212723,28.5230273 L58.128,28.6396484 L58.128,48.2832031 C58.128,48.8354879 57.6802847,49.2832031 57.128,49.2832031 C56.6151642,49.2832031 56.1924928,48.8971629 56.1347277,48.3998243 L56.128,48.2832031 L56.128,29.639 L39.4150391,29.6396484 C38.9022032,29.6396484 38.4795319,29.2536082 38.4217668,28.7562696 L38.4150391,28.6396484 C38.4150391,28.1268126 38.8010793,27.7041413 39.2984179,27.6463762 L39.4150391,27.6396484 L57.128,27.6396484 Z" id="Path-16" fill="#4C433F" fill-rule="nonzero"></path>
        <path d="M26,41.8254395 C26.5128358,41.8254395 26.9355072,42.2114796 26.9932723,42.7088183 L27,42.8254395 L27,65 L35,65 C35.5128358,65 35.9355072,65.3860402 35.9932723,65.8833789 L36,66 C36,66.5128358 35.6139598,66.9355072 35.1166211,66.9932723 L35,67 L26,67 C25.4871642,67 25.0644928,66.6139598 25.0067277,66.1166211 L25,66 L25,43.825 L21,43.8254395 C20.4871642,43.8254395 20.0644928,43.4393993 20.0067277,42.9420606 L20,42.8254395 C20,42.3126036 20.3860402,41.8899323 20.8833789,41.8321672 L21,41.8254395 L26,41.8254395 Z" id="Path-17" fill="#4C433F" fill-rule="nonzero"></path>
        <path d="M164,17 C160.686292,17 158,19.6862915 158,23 C158,26.3137085 160.686292,29 164,29 C167.313708,29 170,26.3137085 170,23 C170,19.6862915 167.313708,17 164,17 Z M164,19 C166.209139,19 168,20.790861 168,23 C168,25.209139 166.209139,27 164,27 C161.790861,27 160,25.209139 160,23 C160,20.790861 161.790861,19 164,19 Z" id="Oval-Copy-13" fill="#4C433F" fill-rule="nonzero"></path>
        <path d="M164,74 C160.686292,74 158,76.6862915 158,80 C158,83.3137085 160.686292,86 164,86 C167.313708,86 170,83.3137085 170,80 C170,76.6862915 167.313708,74 164,74 Z M164,76 C166.209139,76 168,77.790861 168,80 C168,82.209139 166.209139,84 164,84 C161.790861,84 160,82.209139 160,80 C160,77.790861 161.790861,76 164,76 Z" id="Oval-Copy-24" fill="#4C433F" fill-rule="nonzero"></path>
        <path d="M133,30 C129.686292,30 127,32.6862915 127,36 C127,39.3137085 129.686292,42 133,42 C136.313708,42 139,39.3137085 139,36 C139,32.6862915 136.313708,30 133,30 Z M133,32 C135.209139,32 137,33.790861 137,36 C137,38.209139 135.209139,40 133,40 C130.790861,40 129,38.209139 129,36 C129,33.790861 130.790861,32 133,32 Z" id="Oval-Copy-14" fill="#4C433F" fill-rule="nonzero"></path>
        <path d="M90,10 C86.6862915,10 84,12.6862915 84,16 C84,19.3137085 86.6862915,22 90,22 C93.3137085,22 96,19.3137085 96,16 C96,12.6862915 93.3137085,10 90,10 Z M90,12 C92.209139,12 94,13.790861 94,16 C94,18.209139 92.209139,20 90,20 C87.790861,20 86,18.209139 86,16 C86,13.790861 87.790861,12 90,12 Z" id="Oval-Copy-15" fill="#4C433F" fill-rule="nonzero"></path>
        <path d="M69,10 C65.6862915,10 63,12.6862915 63,16 C63,19.3137085 65.6862915,22 69,22 C72.3137085,22 75,19.3137085 75,16 C75,12.6862915 72.3137085,10 69,10 Z M69,12 C71.209139,12 73,13.790861 73,16 C73,18.209139 71.209139,20 69,20 C66.790861,20 65,18.209139 65,16 C65,13.790861 66.790861,12 69,12 Z" id="Oval-Copy-16" fill="#4C433F" fill-rule="nonzero"></path>
        <path d="M103,158 C99.6862915,158 97,160.686292 97,164 C97,167.313708 99.6862915,170 103,170 C106.313708,170 109,167.313708 109,164 C109,160.686292 106.313708,158 103,158 Z M103,160 C105.209139,160 107,161.790861 107,164 C107,166.209139 105.209139,168 103,168 C100.790861,168 99,166.209139 99,164 C99,161.790861 100.790861,160 103,160 Z" id="Oval-Copy-25" fill="#4C433F" fill-rule="nonzero" transform="translate(103.000000, 164.000000) scale(-1, -1) translate(-103.000000, -164.000000) "></path>
        <path d="M34,23 C30.6862915,23 28,25.6862915 28,29 C28,32.3137085 30.6862915,35 34,35 C37.3137085,35 40,32.3137085 40,29 C40,25.6862915 37.3137085,23 34,23 Z M34,25 C36.209139,25 38,26.790861 38,29 C38,31.209139 36.209139,33 34,33 C31.790861,33 30,31.209139 30,29 C30,26.790861 31.790861,25 34,25 Z" id="Oval-Copy-17" fill="#4C433F" fill-rule="nonzero"></path>
        <path d="M16,37 C12.6862915,37 10,39.6862915 10,43 C10,46.3137085 12.6862915,49 16,49 C19.3137085,49 22,46.3137085 22,43 C22,39.6862915 19.3137085,37 16,37 Z M16,39 C18.209139,39 20,40.790861 20,43 C20,45.209139 18.209139,47 16,47 C13.790861,47 12,45.209139 12,43 C12,40.790861 13.790861,39 16,39 Z" id="Oval-Copy-18" fill="#4C433F" fill-rule="nonzero"></path>
        <path d="M16,78 C12.6862915,78 10,80.6862915 10,84 C10,87.3137085 12.6862915,90 16,90 C19.3137085,90 22,87.3137085 22,84 C22,80.6862915 19.3137085,78 16,78 Z M16,80 C18.209139,80 20,81.790861 20,84 C20,86.209139 18.209139,88 16,88 C13.790861,88 12,86.209139 12,84 C12,81.790861 13.790861,80 16,80 Z" id="Oval-Copy-19" fill="#4C433F" fill-rule="nonzero"></path>
        <path d="M16,127 C12.6862915,127 10,129.686292 10,133 C10,136.313708 12.6862915,139 16,139 C19.3137085,139 22,136.313708 22,133 C22,129.686292 19.3137085,127 16,127 Z M16,129 C18.209139,129 20,130.790861 20,133 C20,135.209139 18.209139,137 16,137 C13.790861,137 12,135.209139 12,133 C12,130.790861 13.790861,129 16,129 Z" id="Oval-Copy-20" fill="#4C433F" fill-rule="nonzero"></path>
        <path d="M16,143 C12.6862915,143 10,145.686292 10,149 C10,152.313708 12.6862915,155 16,155 C19.3137085,155 22,152.313708 22,149 C22,145.686292 19.3137085,143 16,143 Z M16,145 C18.209139,145 20,146.790861 20,149 C20,151.209139 18.209139,153 16,153 C13.790861,153 12,151.209139 12,149 C12,146.790861 13.790861,145 16,145 Z" id="Oval-Copy-21" fill="#4C433F" fill-rule="nonzero"></path>
        <path d="M81,158 C77.6862915,158 75,160.686292 75,164 C75,167.313708 77.6862915,170 81,170 C84.3137085,170 87,167.313708 87,164 C87,160.686292 84.3137085,158 81,158 Z M81,160 C83.209139,160 85,161.790861 85,164 C85,166.209139 83.209139,168 81,168 C78.790861,168 77,166.209139 77,164 C77,161.790861 78.790861,160 81,160 Z" id="Oval-Copy-22" fill="#4C433F" fill-rule="nonzero"></path>
        <path d="M159,158 C155.686292,158 153,160.686292 153,164 C153,167.313708 155.686292,170 159,170 C162.313708,170 165,167.313708 165,164 C165,160.686292 162.313708,158 159,158 Z M159,160 C161.209139,160 163,161.790861 163,164 C163,166.209139 161.209139,168 159,168 C156.790861,168 155,166.209139 155,164 C155,161.790861 156.790861,160 159,160 Z" id="Oval-Copy-23" fill="#4C433F" fill-rule="nonzero"></path>
        <g id="Group-6" transform="translate(104.000000, 94.000000)">
            <path d="M36.6698765,1 L37.1990375,8.4092314 C39.4005357,8.81210043 41.5012785,9.5033304 43.4606791,10.4423347 L48.2429366,4.76031517 L54.7150725,9.46259719 L50.7862347,15.7721149 C52.2981554,17.3615109 53.6030888,19.1496425 54.6578225,21.0932974 L61.867617,19.3072301 L64.339753,26.9156822 L57.4551684,29.7088018 C57.5967986,30.7857825 57.6698765,31.8843571 57.6698765,33 C57.6698765,34.1156429 57.5967986,35.2142175 57.4551684,36.2911982 L64.339753,39.0843178 L61.867617,46.6927699 L54.6578225,44.9067026 C53.6030888,46.8503575 52.2981554,48.6384891 50.7862347,50.2278851 L54.7150725,56.5374028 L48.2429366,61.2396848 L43.4606791,55.5576653 C41.5012785,56.4966696 39.4005357,57.1878996 37.1990375,57.5907686 L36.6698765,65 L28.6698765,65 L28.1405138,57.5907317 C25.939089,57.1878573 23.8384147,56.4966409 21.8790739,55.5576653 L17.0968164,61.2396848 L10.6246804,56.5374028 L14.5535183,50.2278851 C13.0415976,48.6384891 11.7366642,46.8503575 10.6819305,44.9067026 L3.47213596,46.6927699 L1,39.0843178 L7.88458456,36.2911982 C7.74295442,35.2142175 7.6698765,34.1156429 7.6698765,33 C7.6698765,31.8843571 7.74295442,30.7857825 7.88458456,29.7088018 L1,26.9156822 L3.47213596,19.3072301 L10.6819305,21.0932974 C11.7366642,19.1496425 13.0415976,17.3615109 14.5535183,15.7721149 L10.6246804,9.46259719 L17.0968164,4.76031517 L21.8790739,10.4423347 C23.8384147,9.50335909 25.939089,8.81214266 28.1405138,8.40926832 L28.6698765,1 L36.6698765,1 Z" id="Combined-Shape" fill="#FFD36A"></path>
            <path d="M28.6698765,0 L28.5589331,0.00610087465 C28.08507,0.0585209792 27.7071361,0.442815984 27.672419,0.928735638 L27.197,7.578 L26.7330041,7.68112975 C25.3106241,8.01340414 23.9233493,8.46468884 22.5834753,9.02914366 L22.154,9.215 L17.8619001,4.11638436 C17.5240689,3.71499155 16.9334731,3.64292308 16.5090312,3.95129818 L10.0368952,8.65358019 L9.94450033,8.72944257 C9.59725825,9.05095027 9.51983068,9.58010812 9.77579986,9.99118185 L13.302,15.655 L12.9903274,16.0077444 C12.038334,17.1093479 11.1797858,18.2888634 10.4246753,19.5336702 L10.185,19.939 L3.71259533,18.3365709 C3.20335473,18.2104178 2.68320019,18.4992568 2.52107944,18.9982131 L0.0489434837,26.6066653 L0.0187830731,26.7223584 C-0.0731675695,27.1866104 0.175282715,27.6602545 0.624055408,27.8423244 L6.804,30.349 L6.75044509,30.9386474 C6.69683298,31.6218007 6.6698765,32.3092744 6.6698765,33 L6.67885085,33.6896021 C6.69080922,34.1485614 6.71470369,34.6059171 6.75044509,35.0613526 L6.804,35.65 L0.624055408,38.1576756 C0.13788499,38.354918 -0.113184822,38.8943551 0.0489434837,39.3933347 L2.52107944,47.0017869 L2.56467962,47.1131075 C2.76315939,47.5427244 3.24252708,47.7798781 3.71259533,47.6634291 L10.185,46.06 L10.4246753,46.4663298 C11.1797858,47.7111366 12.038334,48.8906521 12.9903274,49.9922556 L13.302,50.344 L9.77579986,56.0088182 C9.49849991,56.454148 9.6124781,57.0380627 10.0368952,57.3464198 L16.5090312,62.0487018 L16.6097381,62.1131351 C17.0228383,62.3440408 17.5500559,62.2541321 17.8619001,61.8836156 L22.154,56.784 L22.5834753,56.9708563 C23.9233493,57.5353112 25.3106241,57.9865959 26.7330041,58.3188702 L27.197,58.421 L27.672419,65.0712644 C27.7098066,65.5945625 28.1452445,66 28.6698765,66 L36.6698765,66 L36.780822,65.9938989 C37.2546939,65.9414768 37.6326312,65.5571678 37.6673359,65.0712377 L38.142,58.421 L38.6065794,58.3189098 C40.029006,57.9866347 41.4163259,57.5353416 42.7562422,56.9708713 L43.185,56.784 L47.4778529,61.8836156 C47.8156841,62.2850084 48.4062799,62.3570769 48.8307218,62.0487018 L55.3028578,57.3464198 L55.3952527,57.2705574 C55.7424947,56.9490497 55.8199223,56.4198919 55.5639531,56.0088182 L52.037,50.344 L52.3494256,49.9922556 C53.301419,48.8906521 54.1599672,47.7111366 54.9150777,46.4663298 L55.154,46.06 L61.6271577,47.6634291 C62.1363983,47.7895822 62.6565528,47.5007432 62.8186736,47.0017869 L65.2908095,39.3933347 L65.3209699,39.2776416 C65.4129206,38.8133896 65.1644703,38.3397455 64.7156976,38.1576756 L58.535,35.649 L58.5893079,35.0613526 C58.64292,34.3781993 58.6698765,33.6907256 58.6698765,33 L58.6609021,32.3103979 C58.6489438,31.8514386 58.6250493,31.3940829 58.5893079,30.9386474 L58.535,30.35 L64.7156976,27.8423244 C65.201868,27.645082 65.4529378,27.1056449 65.2908095,26.6066653 L62.8186736,18.9982131 L62.7750734,18.8868925 C62.5765936,18.4572756 62.0972259,18.2201219 61.6271577,18.3365709 L55.154,19.939 L54.9150777,19.5336702 C54.1599672,18.2888634 53.301419,17.1093479 52.3494256,16.0077444 L52.037,15.655 L55.5639531,9.99118185 C55.8412531,9.54585197 55.7272749,8.96193726 55.3028578,8.65358019 L48.8307218,3.95129818 L48.7300149,3.88686486 C48.3169147,3.6559592 47.7896971,3.74586792 47.4778529,4.11638436 L43.185,9.215 L42.7562422,9.02912869 C41.4163259,8.4646584 40.029006,8.01336533 38.6065794,7.68109015 L38.142,7.578 L37.6673359,0.928762306 C37.6299616,0.405452952 37.1945188,0 36.6698765,0 L28.6698765,0 Z M29.601,2 L35.738,2 L36.2015781,8.4804691 C36.2340726,8.93545265 36.5703377,9.310787 37.0190291,9.39289648 C39.1089258,9.7753427 41.126567,10.4326584 43.0285122,11.3441283 L43.1424611,11.3904017 C43.5276016,11.5198973 43.9588362,11.4034132 44.2257628,11.0862655 L48.408,6.116 L53.374,9.724 L49.9373541,15.2435302 C49.6964703,15.6303776 49.7475984,16.1311562 50.0616894,16.4613421 C51.519435,17.9937868 52.7704575,19.7119121 53.7788945,21.5702519 L53.8439575,21.6744315 C54.0796073,22.0048157 54.4964487,22.1635019 54.8982819,22.0639566 L61.204,20.501 L63.1,26.339 L57.0792238,28.7821597 C56.6573594,28.9533128 56.404346,29.3878108 56.4637049,29.8391859 C56.600708,30.8809821 56.6698765,31.9360504 56.6698765,33 C56.6698765,34.0639496 56.600708,35.1190179 56.4637049,36.1608141 L56.455153,36.2833128 C56.4517439,36.6890125 56.6957107,37.0622466 57.0792238,37.2178403 L63.1,39.66 L61.204,45.498 L54.8982819,43.9360434 C54.4562654,43.8265436 53.996089,44.0295039 53.7788945,44.4297481 C52.7704575,46.2880879 51.519435,48.0062132 50.0616894,49.5386579 L49.9825698,49.6327244 C49.7407157,49.9589529 49.7183688,50.4047904 49.9373541,50.7564698 L53.374,56.275 L48.408,59.883 L44.2257628,54.9137345 C43.9321435,54.564872 43.4397116,54.4588125 43.0285122,54.6558717 C41.126567,55.5673416 39.1089258,56.2246573 37.0190291,56.6071035 L36.9093092,56.6336161 C36.516403,56.7523218 36.2313647,57.1024626 36.2015781,57.5195309 L35.738,64 L29.601,64 L29.1379713,57.5194673 C29.1054655,57.0644976 28.7692082,56.6891789 28.3205303,56.6070681 C26.2307024,56.2246167 24.2131271,55.5673133 22.3112408,54.6558717 L22.1972919,54.6095983 C21.8121514,54.4801027 21.3809168,54.5965868 21.1139902,54.9137345 L16.931,59.883 L11.965,56.275 L15.4023989,50.7564698 C15.6432827,50.3696224 15.5921546,49.8688438 15.2780636,49.5386579 C13.820318,48.0062132 12.5692955,46.2880879 11.5608585,44.4297481 L11.4957955,44.3255685 C11.2601457,43.9951843 10.8433043,43.8364981 10.4414711,43.9360434 L4.135,45.498 L2.238,39.66 L8.26052916,37.2178403 C8.68239361,37.0466872 8.93540697,36.6121892 8.87604812,36.1608141 C8.73904497,35.1190179 8.6698765,34.0639496 8.6698765,33 C8.6698765,31.9360504 8.73904497,30.8809821 8.87604812,29.8391859 L8.88459996,29.7166872 C8.88800908,29.3109875 8.6440423,28.9377534 8.26052916,28.7821597 L2.238,26.339 L4.135,20.501 L10.4414711,22.0639566 C10.8834876,22.1734564 11.343664,21.9704961 11.5608585,21.5702519 C12.5692955,19.7119121 13.820318,17.9937868 15.2780636,16.4613421 L15.3571832,16.3672756 C15.5990373,16.0410471 15.6213842,15.5952096 15.4023989,15.2435302 L11.965,9.724 L16.931,6.116 L21.1139902,11.0862655 C21.4076095,11.435128 21.9000414,11.5411875 22.3112408,11.3441283 C24.2131271,10.4326867 26.2307024,9.77538333 28.3205303,9.39293191 L28.430247,9.36641929 C28.8231417,9.24771484 29.1081743,8.89758824 29.1379713,8.48053269 L29.601,2 Z" id="Combined-Shape" fill="#4C433F" fill-rule="nonzero"></path>
            <circle id="Oval" fill="#C8BDB8" cx="32.6698765" cy="33" r="16"></circle>
            <path d="M32.6698765,16 C23.2810358,16 15.6698765,23.6111593 15.6698765,33 C15.6698765,42.3888407 23.2810358,50 32.6698765,50 C42.0587172,50 49.6698765,42.3888407 49.6698765,33 C49.6698765,23.6111593 42.0587172,16 32.6698765,16 Z M32.6698765,18 C40.9541477,18 47.6698765,24.7157288 47.6698765,33 C47.6698765,41.2842712 40.9541477,48 32.6698765,48 C24.3856053,48 17.6698765,41.2842712 17.6698765,33 C17.6698765,24.7157288 24.3856053,18 32.6698765,18 Z" id="Oval" fill="#4C433F" fill-rule="nonzero"></path>
            <path d="M30.9585818,14.9640494 C42.5565615,14.9640494 51.9585818,24.3660697 51.9585818,35.9640494 C51.9585818,47.5620292 42.5565615,56.9640494 30.9585818,56.9640494 C30.406297,56.9640494 29.9585818,56.5163342 29.9585818,55.9640494 C29.9585818,55.4117647 30.406297,54.9640494 30.9585818,54.9640494 C41.451992,54.9640494 49.9585818,46.4574597 49.9585818,35.9640494 C49.9585818,25.4706392 41.451992,16.9640494 30.9585818,16.9640494 C26.5814868,16.9640494 22.433951,18.4473926 19.0892079,21.1267384 C18.6581693,21.472027 18.0288318,21.4025128 17.6835432,20.9714742 C17.3382547,20.5404356 17.4077689,19.9110981 17.8388075,19.5658096 C21.5352135,16.6047601 26.1227602,14.9640494 30.9585818,14.9640494 Z" id="Oval" fill="#4C433F" fill-rule="nonzero" transform="translate(34.711277, 35.964049) rotate(-300.000000) translate(-34.711277, -35.964049) "></path>
            <circle id="Oval" fill="#FFFFFF" cx="32.6698765" cy="33" r="10"></circle>
            <path d="M32.6698765,22 C26.5947443,22 21.6698765,26.9248678 21.6698765,33 C21.6698765,39.0751322 26.5947443,44 32.6698765,44 C38.7450087,44 43.6698765,39.0751322 43.6698765,33 C43.6698765,26.9248678 38.7450087,22 32.6698765,22 Z M32.6698765,24 C37.6404392,24 41.6698765,28.0294373 41.6698765,33 C41.6698765,37.9705627 37.6404392,42 32.6698765,42 C27.6993138,42 23.6698765,37.9705627 23.6698765,33 C23.6698765,28.0294373 27.6993138,24 32.6698765,24 Z" id="Oval" fill="#4C433F" fill-rule="nonzero"></path>
        </g>
        <path d="M90,20.3017578 C90.5128358,20.3017578 90.9355072,20.687798 90.9932723,21.1851367 L91,21.3017578 L91,50 C91,50.5522847 90.5522847,51 90,51 C89.4871642,51 89.0644928,50.6139598 89.0067277,50.1166211 L89,50 L89,21.3017578 C89,20.7494731 89.4477153,20.3017578 90,20.3017578 Z" id="Path-9" fill="#4C433F" fill-rule="nonzero"></path>
    </g>
</svg>