<?xml version="1.0" encoding="UTF-8"?>
<svg width="180px" height="180px" viewBox="0 0 180 180" version="1.1" xmlns="http://www.w3.org/2000/svg" xmlns:xlink="http://www.w3.org/1999/xlink">
    <!-- Generator: Sketch 63.1 (92452) - https://sketch.com -->
    <title>img/Keyword_search</title>
    <desc>Created with Sketch.</desc>
    <g id="img/Keyword_search" stroke="none" stroke-width="1" fill="none" fill-rule="evenodd">
        <circle id="Oval" fill="#F5F2E9" cx="90" cy="90" r="80"></circle>
        <path d="M90,32 L94,32 C94.5522847,32 95,31.5522847 95,31 C95,30.4477153 94.5522847,30 94,30 L90,30 C89.4477153,30 89,30.4477153 89,31 C89,31.5522847 89.4477153,32 90,32 Z M104,32 L108,32 C108.552285,32 109,31.5522847 109,31 C109,30.4477153 108.552285,30 108,30 L104,30 C103.447715,30 103,30.4477153 103,31 C103,31.5522847 103.447715,32 104,32 Z M118,32 L122,32 C122.552285,32 123,31.5522847 123,31 C123,30.4477153 122.552285,30 122,30 L118,30 C117.447715,30 117,30.4477153 117,31 C117,31.5522847 117.447715,32 118,32 Z M132,32 L136,32 C136.552285,32 137,31.5522847 137,31 C137,30.4477153 136.552285,30 136,30 L132,30 C131.447715,30 131,30.4477153 131,31 C131,31.5522847 131.447715,32 132,32 Z M146,32 L147,32 C147.965814,32 148.924007,32.0594731 149.871015,32.1773425 C150.419071,32.2455563 150.918656,31.8565674 150.98687,31.3085115 C151.055084,30.7604555 150.666095,30.2608702 150.118039,30.1926563 C149.089134,30.0645936 148.048443,30 147,30 L146,30 C145.447715,30 145,30.4477153 145,31 C145,31.5522847 145.447715,32 146,32 Z M158.889457,35.3072536 C159.984634,35.9699463 161.023034,36.7232113 161.993628,37.5583745 C162.412265,37.9185981 163.043657,37.8712442 163.40388,37.4526066 C163.764104,37.0339691 163.71675,36.4025773 163.298113,36.0423538 C162.243508,35.1349016 161.115119,34.3163574 159.92486,33.5961305 C159.452346,33.3102121 158.837515,33.4614774 158.551597,33.933991 C158.265679,34.4065045 158.416944,35.0213352 158.889457,35.3072536 Z M167.793115,45.1559518 C168.340716,46.310489 168.791234,47.510005 169.139147,48.74375 C169.289044,49.2753037 169.841469,49.5846975 170.373023,49.4348004 C170.904577,49.2849034 171.21397,48.7324784 171.064073,48.2009247 C170.685665,46.8590418 170.195672,45.5544208 169.600158,44.2988658 C169.36348,43.7998647 168.767095,43.5872097 168.268094,43.8238874 C167.769093,44.0605652 167.556437,44.6569507 167.793115,45.1559518 Z M169.766511,58.2905882 C169.584325,59.5628279 169.296631,60.8111387 168.907485,62.0256143 C168.73896,62.551559 169.028706,63.1145378 169.554651,63.2830627 C170.080596,63.4515876 170.643575,63.1618416 170.812099,62.6358969 C171.23534,61.3150163 171.548223,59.9574079 171.746314,58.574098 C171.824604,58.0273903 171.444875,57.5207304 170.898168,57.4424413 C170.35146,57.3641523 169.8448,57.7438806 169.766511,58.2905882 Z M164.128554,70.3500107 C163.273979,71.3029333 162.341473,72.1836952 161.341399,72.9823734 C160.909847,73.3270195 160.839395,73.9562527 161.184041,74.3878052 C161.528687,74.8193577 162.15792,74.8898093 162.589473,74.5451633 C163.676019,73.6774269 164.689093,72.7205674 165.617514,71.685301 C165.986244,71.2741362 165.951844,70.6419064 165.540679,70.2731762 C165.129514,69.9044459 164.497285,69.9388459 164.128554,70.3500107 Z M152.803658,77.2617708 C151.57072,77.5822573 150.308443,77.8001782 149.026278,77.9120304 C148.476082,77.9600278 148.068971,78.4449586 148.116968,78.9951537 C148.164965,79.5453489 148.649896,79.9524606 149.200091,79.9044633 C150.593624,79.7828957 151.966059,79.5459571 153.306812,79.1974453 C153.841334,79.0585032 154.162014,78.5125528 154.023072,77.978031 C153.88413,77.4435092 153.33818,77.1228286 152.803658,77.2617708 Z M139.116286,78 L135.116286,78 C134.564002,78 134.116286,78.4477153 134.116286,79 C134.116286,79.5522847 134.564002,80 135.116286,80 L139.116286,80 C139.668571,80 140.116286,79.5522847 140.116286,79 C140.116286,78.4477153 139.668571,78 139.116286,78 Z M125.116286,78 L121.116286,78 C120.564002,78 120.116286,78.4477153 120.116286,79 C120.116286,79.5522847 120.564002,80 121.116286,80 L125.116286,80 C125.668571,80 126.116286,79.5522847 126.116286,79 C126.116286,78.4477153 125.668571,78 125.116286,78 Z M111.116286,78 L107.116286,78 C106.564002,78 106.116286,78.4477153 106.116286,79 C106.116286,79.5522847 106.564002,80 107.116286,80 L111.116286,80 C111.668571,80 112.116286,79.5522847 112.116286,79 C112.116286,78.4477153 111.668571,78 111.116286,78 Z M97.1162863,78 L93.1162863,78 C92.5640015,78 92.1162863,78.4477153 92.1162863,79 C92.1162863,79.5522847 92.5640015,80 93.1162863,80 L97.1162863,80 C97.668571,80 98.1162863,79.5522847 98.1162863,79 C98.1162863,78.4477153 97.668571,78 97.1162863,78 Z" id="Rectangle" fill="#4C433F" fill-rule="nonzero"></path>
        <path d="M11,80 L15,80 C15.5522847,80 16,79.5522847 16,79 C16,78.4477153 15.5522847,78 15,78 L11,78 C10.4477153,78 10,78.4477153 10,79 C10,79.5522847 10.4477153,80 11,80 Z M25,80 L29,80 C29.5522847,80 30,79.5522847 30,79 C30,78.4477153 29.5522847,78 29,78 L25,78 C24.4477153,78 24,78.4477153 24,79 C24,79.5522847 24.4477153,80 25,80 Z M39,80 L43,80 C43.5522847,80 44,79.5522847 44,79 C44,78.4477153 43.5522847,78 43,78 L39,78 C38.4477153,78 38,78.4477153 38,79 C38,79.5522847 38.4477153,80 39,80 Z M53,80 L57,80 C57.5522847,80 58,79.5522847 58,79 C58,78.4477153 57.5522847,78 57,78 L53,78 C52.4477153,78 52,78.4477153 52,79 C52,79.5522847 52.4477153,80 53,80 Z M67,80 L68,80 C68.9658145,80 69.9240068,80.0594731 70.8710149,80.1773425 C71.4190708,80.2455563 71.9186562,79.8565674 71.98687,79.3085115 C72.0550838,78.7604555 71.6660949,78.2608702 71.118039,78.1926563 C70.0891339,78.0645936 69.0484427,78 68,78 L67,78 C66.4477153,78 66,78.4477153 66,79 C66,79.5522847 66.4477153,80 67,80 Z M79.8894574,83.3072536 C80.9846344,83.9699463 82.023034,84.7232113 82.9936276,85.5583745 C83.4122651,85.9185981 84.0436568,85.8712442 84.4038804,85.4526066 C84.764104,85.0339691 84.7167501,84.4025773 84.2981126,84.0423538 C83.2435077,83.1349016 82.1151186,82.3163574 80.9248596,81.5961305 C80.452346,81.3102121 79.8375154,81.4614774 79.5515969,81.933991 C79.2656785,82.4065045 79.4169438,83.0213352 79.8894574,83.3072536 Z M88.7931153,93.1559518 C89.3407158,94.310489 89.7912336,95.510005 90.1391472,96.74375 C90.2890442,97.2753037 90.8414692,97.5846975 91.3730229,97.4348004 C91.9045766,97.2849034 92.2139704,96.7324784 92.0640733,96.2009247 C91.6856651,94.8590418 91.1956717,93.5544208 90.600158,92.2988658 C90.3634803,91.7998647 89.7670947,91.5872097 89.2680936,91.8238874 C88.7690926,92.0605652 88.5564375,92.6569507 88.7931153,93.1559518 Z M90.7665109,106.290588 C90.584325,107.562828 90.2966315,108.811139 89.9074853,110.025614 C89.7389604,110.551559 90.0287064,111.114538 90.5546511,111.283063 C91.0805957,111.451588 91.6435746,111.161842 91.8120994,110.635897 C92.2353403,109.315016 92.5482232,107.957408 92.7463145,106.574098 C92.8246035,106.02739 92.4448752,105.52073 91.8981676,105.442441 C91.3514599,105.364152 90.8448,105.743881 90.7665109,106.290588 Z M85.1285544,118.350011 C84.2739788,119.302933 83.3414733,120.183695 82.3413991,120.982373 C81.9098466,121.327019 81.839395,121.956253 82.1840411,122.387805 C82.5286871,122.819358 83.1579203,122.889809 83.5894728,122.545163 C84.6760189,121.677427 85.6890927,120.720567 86.6175137,119.685301 C86.9862439,119.274136 86.9518439,118.641906 86.5406792,118.273176 C86.1295144,117.904446 85.4972846,117.938846 85.1285544,118.350011 Z M73.8036579,125.261771 C72.5707202,125.582257 71.3084429,125.800178 70.0262775,125.91203 C69.4760824,125.960028 69.0689707,126.444959 69.116968,126.995154 C69.1649654,127.545349 69.6498962,127.952461 70.2000914,127.904463 C71.5936239,127.782896 72.9660589,127.545957 74.306812,127.197445 C74.8413337,127.058503 75.1620144,126.512553 75.0230722,125.978031 C74.88413,125.443509 74.3381797,125.122829 73.8036579,125.261771 Z M60.1162863,126 L56.1162863,126 C55.5640015,126 55.1162863,126.447715 55.1162863,127 C55.1162863,127.552285 55.5640015,128 56.1162863,128 L60.1162863,128 C60.668571,128 61.1162863,127.552285 61.1162863,127 C61.1162863,126.447715 60.668571,126 60.1162863,126 Z M46.1162863,126 L42.1162863,126 C41.5640015,126 41.1162863,126.447715 41.1162863,127 C41.1162863,127.552285 41.5640015,128 42.1162863,128 L46.1162863,128 C46.668571,128 47.1162863,127.552285 47.1162863,127 C47.1162863,126.447715 46.668571,126 46.1162863,126 Z M32.1162863,126 L28.1162863,126 C27.5640015,126 27.1162863,126.447715 27.1162863,127 C27.1162863,127.552285 27.5640015,128 28.1162863,128 L32.1162863,128 C32.668571,128 33.1162863,127.552285 33.1162863,127 C33.1162863,126.447715 32.668571,126 32.1162863,126 Z M18.1162863,126 L14.1162863,126 C13.5640015,126 13.1162863,126.447715 13.1162863,127 C13.1162863,127.552285 13.5640015,128 14.1162863,128 L18.1162863,128 C18.668571,128 19.1162863,127.552285 19.1162863,127 C19.1162863,126.447715 18.668571,126 18.1162863,126 Z" id="Rectangle-Copy-9" fill="#4C433F" fill-rule="nonzero" transform="translate(51.378270, 103.000000) scale(-1, 1) translate(-51.378270, -103.000000) "></path>
        <circle id="Oval-Copy-15" fill="#FFD36A" cx="58" cy="140" r="5"></circle>
        <rect id="Rectangle" fill="#FFFFFF" x="25" y="42" width="130" height="96" rx="1"></rect>
        <path d="M154,40 L26,40 C24.3431458,40 23,41.3431458 23,43 L23,137 C23,138.656854 24.3431458,140 26,140 L154,140 C155.656854,140 157,138.656854 157,137 L157,43 C157,41.3431458 155.656854,40 154,40 Z M153,44 L153,136 L27,136 L27,44 L153,44 Z" id="Rectangle" fill="#4C433F" fill-rule="nonzero"></path>
        <rect id="Rectangle" fill="#ECE8E6" x="107" y="72" width="40" height="56"></rect>
        <rect id="Rectangle-Copy-3" fill="#ECE8E6" x="33" y="72" width="68" height="8"></rect>
        <rect id="Rectangle-Copy-4" fill="#ECE8E6" x="33" y="84" width="68" height="8"></rect>
        <rect id="Rectangle-Copy-5" fill="#ECE8E6" x="33" y="96" width="68" height="8"></rect>
        <rect id="Rectangle-Copy-6" fill="#ECE8E6" x="33" y="108" width="68" height="8"></rect>
        <rect id="Rectangle-Copy-7" fill="#ECE8E6" x="33" y="120" width="18" height="8"></rect>
        <rect id="Rectangle-Copy-8" fill="#ECE8E6" x="55" y="120" width="46" height="8"></rect>
        <rect id="Rectangle" fill="#FFFFFF" x="40" y="83" width="130" height="30" rx="1"></rect>
        <path d="M169,81 L41,81 C39.3431458,81 38,82.3431458 38,84 L38,112 C38,113.656854 39.3431458,115 41,115 L169,115 C170.656854,115 172,113.656854 172,112 L172,84 C172,82.3431458 170.656854,81 169,81 Z M168,85 L168,111 L42,111 L42,85 L168,85 Z" id="Rectangle" fill="#4C433F" fill-rule="nonzero"></path>
        <rect id="Rectangle" fill="#FFD36A" x="130" y="83" width="40" height="30" rx="1"></rect>
        <path d="M169,81 L131,81 C129.343146,81 128,82.3431458 128,84 L128,112 C128,113.656854 129.343146,115 131,115 L169,115 C170.656854,115 172,113.656854 172,112 L172,84 C172,82.3431458 170.656854,81 169,81 Z M168,85 L168,111 L132,111 L132,85 L168,85 Z" id="Rectangle" fill="#4C433F" fill-rule="nonzero"></path>
        <circle id="Oval-Copy-12" fill="#FFD36A" cx="130" cy="146" r="5"></circle>
        <circle id="Oval-Copy-16" fill="#FFD36A" cx="127" cy="39" r="5"></circle>
        <circle id="Oval-Copy-13" fill="#FFD36A" cx="10" cy="85" r="5"></circle>
        <circle id="Oval-Copy-14" fill="#FFD36A" cx="47" cy="31" r="5"></circle>
        <rect id="Rectangle-Copy" fill="#88B9D8" x="25" y="42" width="130" height="20" rx="1"></rect>
        <path d="M154,40 L26,40 C24.3431458,40 23,41.3431458 23,43 L23,61 C23,62.6568542 24.3431458,64 26,64 L154,64 C155.656854,64 157,62.6568542 157,61 L157,43 C157,41.3431458 155.656854,40 154,40 Z M153,44 L153,60 L27,60 L27,44 L153,44 Z" id="Rectangle-Copy" fill="#4C433F" fill-rule="nonzero"></path>
        <rect id="Rectangle-Copy-6" fill="#5AA2BF" x="27" y="44" width="126" height="8"></rect>
        <circle id="Oval" fill="#4C433F" cx="35" cy="52" r="4"></circle>
        <circle id="Oval-Copy" fill="#4C433F" cx="47" cy="52" r="4"></circle>
        <circle id="Oval-Copy-2" fill="#4C433F" cx="59" cy="52" r="4"></circle>
        <path d="M47,146 C47.5522847,146 48,146.447715 48,147 L48,153 L54,153 C54.5522847,153 55,153.447715 55,154 C55,154.552285 54.5522847,155 54,155 L48,155 L48,161 C48,161.552285 47.5522847,162 47,162 C46.4477153,162 46,161.552285 46,161 L46,155 L40,155 C39.4477153,155 39,154.552285 39,154 C39,153.447715 39.4477153,153 40,153 L46,153 L46,147 C46,146.447715 46.4477153,146 47,146 Z" id="Combined-Shape" fill="#4C433F"></path>
        <path d="M162,118 C162.552285,118 163,118.447715 163,119 L163,125 L169,125 C169.552285,125 170,125.447715 170,126 C170,126.552285 169.552285,127 169,127 L163,127 L163,133 C163,133.552285 162.552285,134 162,134 C161.447715,134 161,133.552285 161,133 L161,127 L155,127 C154.447715,127 154,126.552285 154,126 C154,125.447715 154.447715,125 155,125 L161,125 L161,119 C161,118.447715 161.447715,118 162,118 Z" id="Combined-Shape-Copy-3" fill="#4C433F"></path>
        <path d="M115,8 C115.552285,8 116,8.44771525 116,9 L116,15 L122,15 C122.552285,15 123,15.4477153 123,16 C123,16.5522847 122.552285,17 122,17 L116,17 L116,23 C116,23.5522847 115.552285,24 115,24 C114.447715,24 114,23.5522847 114,23 L114,17 L108,17 C107.447715,17 107,16.5522847 107,16 C107,15.4477153 107.447715,15 108,15 L114,15 L114,9 C114,8.44771525 114.447715,8 115,8 Z" id="Combined-Shape-Copy-2" fill="#4C433F"></path>
        <path d="M13,58 C13.5522847,58 14,58.4477153 14,59 L14,65 L20,65 C20.5522847,65 21,65.4477153 21,66 C21,66.5522847 20.5522847,67 20,67 L14,67 L14,73 C14,73.5522847 13.5522847,74 13,74 C12.4477153,74 12,73.5522847 12,73 L12,67 L6,67 C5.44771525,67 5,66.5522847 5,66 C5,65.4477153 5.44771525,65 6,65 L12,65 L12,59 C12,58.4477153 12.4477153,58 13,58 Z" id="Combined-Shape-Copy" fill="#4C433F"></path>
        <circle id="Oval" fill="#FFFFFF" cx="148.5" cy="96.5" r="6.5"></circle>
        <path d="M153.445949,90.3069601 C156.286136,93.1471477 156.503826,97.616747 154.099016,100.706711 L159.71163,106.319256 C160.096123,106.70375 160.096123,107.327137 159.71163,107.71163 C159.327137,108.096123 158.70375,108.096123 158.319256,107.71163 L152.705925,102.099628 C149.615989,104.503789 145.146907,104.285896 142.30696,101.445949 C139.231013,98.370002 139.231013,93.3829069 142.30696,90.3069601 C145.382907,87.2310133 150.370002,87.2310133 153.445949,90.3069601 Z M152.053575,91.6993337 C149.746615,89.3923736 146.006294,89.3923736 143.699334,91.6993337 C141.392374,94.0062938 141.392374,97.7466151 143.699334,100.053575 C146.006294,102.360535 149.746615,102.360535 152.053575,100.053575 C154.360535,97.7466151 154.360535,94.0062938 152.053575,91.6993337 Z" id="Shape" fill="#4C433F" fill-rule="nonzero"></path>
        <rect id="Rectangle" fill="#E7E7E7" x="42" y="99" width="86" height="12"></rect>
        <rect id="Rectangle" fill="#FFD36A" x="46" y="97" width="75" height="7"></rect>
        <path d="M54.18,102 L54.18,99.66 L55.152,98.34 L57.252,102 L59.604,102 L56.4,96.648 L59.1,93.072 L56.748,93.072 L54.216,96.6 L54.18,96.6 L54.18,93.072 L52.032,93.072 L52.032,102 L54.18,102 Z M66.324,102 L66.324,100.2 L62.676,100.2 L62.676,98.304 L65.664,98.304 L65.664,96.504 L62.676,96.504 L62.676,94.848 L66.192,94.848 L66.192,93.072 L60.528,93.072 L60.528,102 L66.324,102 Z M71.772,102 L71.772,98.844 L74.472,93.072 L72.228,93.072 L71.484,95.052 C71.232,95.724 70.992,96.348 70.74,97.044 L70.692,97.044 C70.44,96.348 70.212,95.724 69.972,95.052 L69.228,93.072 L66.948,93.072 L69.636,98.844 L69.636,102 L71.772,102 Z M81.552,102 L82.332,98.112 C82.464,97.428 82.572,96.708 82.68,96.036 L82.74,96.036 C82.824,96.708 82.944,97.428 83.088,98.112 L83.892,102 L86.592,102 L88.14,93.072 L86.1,93.072 L85.524,97.14 C85.416,98.064 85.296,99.012 85.188,99.972 L85.128,99.972 C84.948,99.012 84.792,98.052 84.612,97.14 L83.676,93.072 L81.876,93.072 L80.964,97.14 C80.784,98.064 80.604,99.024 80.436,99.972 L80.388,99.972 L80.028,97.14 L79.464,93.072 L77.268,93.072 L78.9,102 L81.552,102 Z M93.036,102.168 C95.472,102.168 97.128,100.416 97.128,97.488 C97.128,94.572 95.472,92.904 93.036,92.904 C90.6,92.904 88.944,94.56 88.944,97.488 C88.944,100.416 90.6,102.168 93.036,102.168 Z M93.036,100.32 C91.86,100.32 91.14,99.228 91.14,97.488 C91.14,95.76 91.86,94.74 93.036,94.74 C94.212,94.74 94.944,95.76 94.944,97.488 C94.944,99.228 94.212,100.32 93.036,100.32 Z M100.932,102 L100.932,98.856 L101.964,98.856 L103.608,102 L106.008,102 L104.016,98.46 C104.94,98.028 105.552,97.188 105.552,95.88 C105.552,93.72 103.968,93.072 102.06,93.072 L98.784,93.072 L98.784,102 L100.932,102 Z M101.892,97.164 L100.932,97.164 L100.932,94.764 L101.892,94.764 C102.912,94.764 103.452,95.04 103.452,95.88 C103.452,96.72 102.912,97.164 101.892,97.164 Z M109.968,102 C112.572,102 114.372,100.596 114.372,97.488 C114.372,94.38 112.572,93.072 109.848,93.072 L107.28,93.072 L107.28,102 L109.968,102 Z M109.716,100.272 L109.428,100.272 L109.428,94.776 L109.716,94.776 C111.156,94.776 112.176,95.364 112.176,97.488 C112.176,99.612 111.156,100.272 109.716,100.272 Z" id="KEYWORD" fill="#4C433F" fill-rule="nonzero"></path>
        <path d="M35,32 L39,32 C39.5522847,32 40,31.5522847 40,31 C40,30.4477153 39.5522847,30 39,30 L35,30 C34.4477153,30 34,30.4477153 34,31 C34,31.5522847 34.4477153,32 35,32 Z M49,32 L53,32 C53.5522847,32 54,31.5522847 54,31 C54,30.4477153 53.5522847,30 53,30 L49,30 C48.4477153,30 48,30.4477153 48,31 C48,31.5522847 48.4477153,32 49,32 Z M63,32 L67,32 C67.5522847,32 68,31.5522847 68,31 C68,30.4477153 67.5522847,30 67,30 L63,30 C62.4477153,30 62,30.4477153 62,31 C62,31.5522847 62.4477153,32 63,32 Z M77,32 L81,32 C81.5522847,32 82,31.5522847 82,31 C82,30.4477153 81.5522847,30 81,30 L77,30 C76.4477153,30 76,30.4477153 76,31 C76,31.5522847 76.4477153,32 77,32 Z" id="Line-3-Copy-7" fill="#4C433F" fill-rule="nonzero"></path>
        <path d="M95,147 L99,147 C99.5522847,147 100,146.552285 100,146 C100,145.447715 99.5522847,145 99,145 L95,145 C94.4477153,145 94,145.447715 94,146 C94,146.552285 94.4477153,147 95,147 Z M109,147 L113,147 C113.552285,147 114,146.552285 114,146 C114,145.447715 113.552285,145 113,145 L109,145 C108.447715,145 108,145.447715 108,146 C108,146.552285 108.447715,147 109,147 Z M123,147 L127,147 C127.552285,147 128,146.552285 128,146 C128,145.447715 127.552285,145 127,145 L123,145 C122.447715,145 122,145.447715 122,146 C122,146.552285 122.447715,147 123,147 Z" id="Line-3-Copy-6" fill="#4C433F" fill-rule="nonzero"></path>
        <path d="M44,22 L48,22 C48.5522847,22 49,21.5522847 49,21 C49,20.4477153 48.5522847,20 48,20 L44,20 C43.4477153,20 43,20.4477153 43,21 C43,21.5522847 43.4477153,22 44,22 Z M58,22 L62,22 C62.5522847,22 63,21.5522847 63,21 C63,20.4477153 62.5522847,20 62,20 L58,20 C57.4477153,20 57,20.4477153 57,21 C57,21.5522847 57.4477153,22 58,22 Z M72,22 L76,22 C76.5522847,22 77,21.5522847 77,21 C77,20.4477153 76.5522847,20 76,20 L72,20 C71.4477153,20 71,20.4477153 71,21 C71,21.5522847 71.4477153,22 72,22 Z" id="Line-3-Copy-9" fill="#4C433F" fill-rule="nonzero"></path>
        <path d="M60,155 L64,155 C64.5522847,155 65,154.552285 65,154 C65,153.447715 64.5522847,153 64,153 L60,153 C59.4477153,153 59,153.447715 59,154 C59,154.552285 59.4477153,155 60,155 Z M74,155 L78,155 C78.5522847,155 79,154.552285 79,154 C79,153.447715 78.5522847,153 78,153 L74,153 C73.4477153,153 73,153.447715 73,154 C73,154.552285 73.4477153,155 74,155 Z M88,155 L92,155 C92.5522847,155 93,154.552285 93,154 C93,153.447715 92.5522847,153 92,153 L88,153 C87.4477153,153 87,153.447715 87,154 C87,154.552285 87.4477153,155 88,155 Z M102,155 L106,155 C106.552285,155 107,154.552285 107,154 C107,153.447715 106.552285,153 106,153 L102,153 C101.447715,153 101,153.447715 101,154 C101,154.552285 101.447715,155 102,155 Z M116,155 L120,155 C120.552285,155 121,154.552285 121,154 C121,153.447715 120.552285,153 120,153 L116,153 C115.447715,153 115,153.447715 115,154 C115,154.552285 115.447715,155 116,155 Z" id="Line-3-Copy-8" fill="#4C433F" fill-rule="nonzero"></path>
    </g>
</svg>