<?xml version="1.0" encoding="UTF-8"?>
<svg width="480px" height="400px" viewBox="0 0 480 400" version="1.1" xmlns="http://www.w3.org/2000/svg" xmlns:xlink="http://www.w3.org/1999/xlink">
    <!-- Generator: Sketch 63.1 (92452) - https://sketch.com -->
    <title>img/Enterprises</title>
    <desc>Created with Sketch.</desc>
    <g id="img/Enterprises" stroke="none" stroke-width="1" fill="none" fill-rule="evenodd">
        <circle id="Oval" fill="#FFD36A" cx="84" cy="266" r="72"></circle>
        <circle id="Oval-Copy-9" fill="#FFD36A" cx="265.5" cy="78.5" r="30.5"></circle>
        <circle id="Oval-Copy-11" fill="#FFD36A" cx="71" cy="65" r="23"></circle>
        <circle id="Oval-Copy-10" fill="#FFD36A" cx="297.5" cy="302.5" r="57.5"></circle>
        <circle id="Oval-Copy-4" fill="#FFD36A" cx="385.5" cy="217.5" r="82.5"></circle>
        <rect id="Rectangle" fill="#FFFFFF" x="90" y="100" width="300" height="220" rx="1"></rect>
        <path d="M389,98 L91,98 C89.3431458,98 88,99.3431458 88,101 L88,319 C88,320.656854 89.3431458,322 91,322 L389,322 C390.656854,322 392,320.656854 392,319 L392,101 C392,99.3431458 390.656854,98 389,98 Z M388,102 L388,318 L92,318 L92,102 L388,102 Z" id="Rectangle" fill="#4C433F" fill-rule="nonzero"></path>
        <rect id="Rectangle" fill="#ECE8E6" x="302" y="145" width="73" height="160"></rect>
        <rect id="Rectangle-Copy-2" fill="#ECE8E6" x="105" y="145" width="190" height="69"></rect>
        <rect id="Rectangle-Copy-17" fill="#ECE8E6" x="198" y="267" width="97" height="38"></rect>
        <rect id="Rectangle-Copy-9" fill="#ECE8E6" x="105" y="293" width="86" height="12"></rect>
        <rect id="Rectangle-Copy-10" fill="#ECE8E6" x="105" y="277" width="86" height="12"></rect>
        <rect id="Rectangle-Copy-11" fill="#ECE8E6" x="105" y="261" width="86" height="12"></rect>
        <rect id="Rectangle-Copy-16" fill="#ECE8E6" x="105" y="245" width="86" height="12"></rect>
        <rect id="Rectangle-Copy-18" fill="#ECE8E6" x="198" y="245" width="86" height="12"></rect>
        <rect id="Rectangle-Copy-12" fill="#FFFFFF" x="67" y="185" width="300" height="60" rx="1"></rect>
        <path d="M366,183 L68,183 C66.3431458,183 65,184.343146 65,186 L65,244 C65,245.656854 66.3431458,247 68,247 L366,247 C367.656854,247 369,245.656854 369,244 L369,186 C369,184.343146 367.656854,183 366,183 Z M365,187 L365,243 L69,243 L69,187 L365,187 Z" id="Rectangle-Copy-12" fill="#4C433F" fill-rule="nonzero"></path>
        <rect id="Rectangle-Copy-13" fill="#FFD36A" x="307" y="185" width="60" height="60" rx="1"></rect>
        <path d="M366,183 L308,183 C306.343146,183 305,184.343146 305,186 L305,244 C305,245.656854 306.343146,247 308,247 L366,247 C367.656854,247 369,245.656854 369,244 L369,186 C369,184.343146 367.656854,183 366,183 Z M365,187 L365,243 L309,243 L309,187 L365,187 Z" id="Rectangle-Copy-13" fill="#4C433F" fill-rule="nonzero"></path>
        <rect id="Rectangle-Copy" fill="#88B9D8" x="90" y="100" width="300" height="30" rx="1"></rect>
        <path d="M389,98 L91,98 C89.3431458,98 88,99.3431458 88,101 L88,129 C88,130.656854 89.3431458,132 91,132 L389,132 C390.656854,132 392,130.656854 392,129 L392,101 C392,99.3431458 390.656854,98 389,98 Z M388,102 L388,128 L92,128 L92,102 L388,102 Z" id="Rectangle-Copy" fill="#4C433F" fill-rule="nonzero"></path>
        <rect id="Rectangle-Copy-6" fill="#5AA2BF" x="92" y="102" width="296" height="13"></rect>
        <circle id="Oval" fill="#4C433F" cx="105" cy="115" r="7"></circle>
        <circle id="Oval-Copy" fill="#4C433F" cx="125" cy="115" r="7"></circle>
        <circle id="Oval-Copy-2" fill="#4C433F" cx="145" cy="115" r="7"></circle>
        <rect id="Rectangle-Copy-19" fill="#F5AB1A" x="309" y="213" width="56" height="30"></rect>
        <circle id="Oval-Copy-3" fill="#FFFFFF" cx="333.5" cy="211.5" r="11.5"></circle>
        <path d="M343.202708,201.152528 C348.315046,206.264866 348.706886,214.310145 344.378229,219.872079 L354.480934,229.974662 C355.173022,230.66675 355.173022,231.788846 354.480934,232.480934 C353.788846,233.173022 352.66675,233.173022 351.974662,232.480934 L341.870664,222.37933 C336.30878,226.70682 328.264432,226.314612 323.152528,221.202708 C317.615824,215.666004 317.615824,206.689232 323.152528,201.152528 C328.689232,195.615824 337.666004,195.615824 343.202708,201.152528 Z M340.696435,203.658801 C336.543907,199.506272 329.811329,199.506272 325.658801,203.658801 C321.506272,207.811329 321.506272,214.543907 325.658801,218.696435 C329.811329,222.848964 336.543907,222.848964 340.696435,218.696435 C344.848964,214.543907 344.848964,207.811329 340.696435,203.658801 Z" id="Shape-Copy" fill="#4C433F" fill-rule="nonzero"></path>
        <rect id="Rectangle-Copy-14" fill="#E7E7E7" x="69" y="222" width="236" height="21"></rect>
        <rect id="Rectangle-Copy-15" fill="#FFD36A" x="80" y="217" width="215" height="16"></rect>
        <path d="M94.0919176,229 L94.0919176,221.399194 L97.3011094,217.111559 L104.234548,229 L112,229 L101.421553,211.615591 L110.335975,200 L102.570523,200 L94.2107765,211.459677 L94.0919176,211.459677 L94.0919176,200 L87,200 L87,229 L94.0919176,229 Z M133,229 L133,223.153226 L121.041408,223.153226 L121.041408,216.994624 L130.836439,216.994624 L130.836439,211.147849 L121.041408,211.147849 L121.041408,205.768817 L132.567288,205.768817 L132.567288,200 L114,200 L114,229 L133,229 Z M151.38756,229 L151.38756,218.748656 L160,200 L152.842105,200 L150.4689,206.431452 C149.665072,208.614247 148.899522,210.641129 148.095694,212.901882 L147.942584,212.901882 C147.138756,210.641129 146.411483,208.614247 145.645933,206.431452 L143.272727,200 L136,200 L144.574163,218.748656 L144.574163,229 L151.38756,229 Z M182.791391,229 L185.302428,216.370968 C185.727373,214.149194 186.075055,211.810484 186.422737,209.627688 L186.615894,209.627688 C186.886313,211.810484 187.272627,214.149194 187.736203,216.370968 L190.324503,229 L199.016556,229 L204,200 L197.432671,200 L195.578366,213.21371 C195.230684,216.215054 194.844371,219.294355 194.496689,222.412634 L194.303532,222.412634 C193.724062,219.294355 193.221854,216.176075 192.642384,213.21371 L189.629139,200 L183.834437,200 L180.898455,213.21371 C180.318985,216.215054 179.739514,219.333333 179.198675,222.412634 L179.04415,222.412634 L177.88521,213.21371 L176.069536,200 L169,200 L174.253863,229 L182.791391,229 Z M219.5,230 C227.536657,230 233,224.326425 233,214.84456 C233,205.401554 227.536657,200 219.5,200 C211.463343,200 206,205.362694 206,214.84456 C206,224.326425 211.463343,230 219.5,230 Z M219.981073,224 C216.271293,224 214,220.477419 214,214.864516 C214,209.290323 216.271293,206 219.981073,206 C223.690852,206 226,209.290323 226,214.864516 C226,220.477419 223.690852,224 219.981073,224 Z M245.83887,229 L245.83887,218.787634 L249.124585,218.787634 L254.358804,229 L262,229 L255.657807,217.501344 C258.599668,216.098118 260.548173,213.369624 260.548173,209.120968 C260.548173,202.104839 255.504983,200 249.430233,200 L239,200 L239,229 L245.83887,229 Z M249.047619,214 L246,214 L246,206 L249.047619,206 C252.285714,206 254,206.92 254,209.72 C254,212.52 252.285714,214 249.047619,214 Z M274.717428,229 C283.162437,229 289,224.439516 289,214.344086 C289,204.248656 283.162437,200 274.328257,200 L266,200 L266,229 L274.717428,229 Z M273.943231,224 L273,224 L273,206 L273.943231,206 C278.659389,206 282,207.925764 282,214.882096 C282,221.838428 278.659389,224 273.943231,224 Z" id="KEYWORD-Copy" fill="#4C433F" fill-rule="nonzero"></path>
        <path d="M335.299516,203.625699 C335.506237,203.113561 336.088987,202.865972 336.601125,203.072693 C338.388581,203.794188 339.891525,205.114513 340.867022,206.863471 C343.200182,211.04657 341.816198,216.393093 337.760793,218.816724 C333.685072,221.252497 328.471043,219.806329 326.126661,215.60311 C325.857636,215.120778 326.030555,214.511683 326.512887,214.242658 C326.995219,213.973633 327.604314,214.146552 327.873339,214.628884 C329.672145,217.853944 333.634304,218.952893 336.734795,217.099946 C339.855603,215.234858 340.930371,211.082877 339.120343,207.837697 C338.367979,206.488791 337.217855,205.478415 335.852522,204.927307 C335.340385,204.720586 335.092796,204.137836 335.299516,203.625699 Z" id="Oval" fill="#ECE8E0" fill-rule="nonzero"></path>
        <g id="文件" transform="translate(28.000000, 297.000000)">
            <polygon id="Rectangle" fill="#FFFFFF" points="1 1 41 1 41 42.3915863 31.3863281 52 1 52"></polygon>
            <path d="M1,53 C0.44771525,53 0,52.5522847 0,52 L0,52 L0,1 C0,0.44771525 0.44771525,0 1,0 L1,0 L41,0 C41.5522847,0 42,0.44771525 42,1 L42,1 L42,42.3915863 C42,42.6568976 41.894568,42.9113344 41.7069133,43.0988865 L41.7069133,43.0988865 L32.0932415,52.7073002 C31.9057208,52.8947182 31.6514498,53 31.3863281,53 L31.3863281,53 Z M40,2 L2,2 L2,51 L30,51 L30,42 C30,41.4871642 30.3860402,41.0644928 30.8833789,41.0067277 L31,41 L40,41 L40,2 Z M38.976,43 L32,43 L32,49.972 L38.976,43 Z" id="Combined-Shape" fill="#4C433F" fill-rule="nonzero"></path>
            <rect id="Rectangle-Copy-3" fill="#ECE8E6" x="7" y="9" width="28" height="2"></rect>
            <rect id="Rectangle-Copy-4" fill="#ECE8E6" x="7" y="13" width="28" height="2"></rect>
            <rect id="Rectangle-Copy-5" fill="#ECE8E6" x="7" y="17" width="28" height="2"></rect>
            <rect id="Rectangle-Copy-7" fill="#ECE8E6" x="7" y="21" width="28" height="2"></rect>
            <rect id="Rectangle-Copy-8" fill="#ECE8E6" x="7" y="25" width="28" height="2"></rect>
            <rect id="Rectangle-Copy-20" fill="#ECE8E6" x="7" y="29" width="28" height="2"></rect>
            <rect id="Rectangle-Copy-21" fill="#ECE8E6" x="7" y="33" width="7" height="2"></rect>
            <rect id="Rectangle-Copy-24" fill="#ECE8E6" x="7" y="41" width="12" height="2"></rect>
            <rect id="Rectangle-Copy-25" fill="#ECE8E6" x="21" y="41" width="7" height="2"></rect>
            <rect id="Rectangle-Copy-22" fill="#ECE8E6" x="16" y="33" width="19" height="2"></rect>
            <rect id="Rectangle-Copy-23" fill="#ECE8E6" x="7" y="37" width="19" height="2"></rect>
        </g>
        <g id="文件" transform="translate(268.000000, 27.000000)">
            <polygon id="Rectangle" fill="#FFFFFF" points="1 1 41 1 41 42.3915863 31.3863281 52 1 52"></polygon>
            <path d="M1,53 C0.44771525,53 0,52.5522847 0,52 L0,52 L0,1 C0,0.44771525 0.44771525,0 1,0 L1,0 L41,0 C41.5522847,0 42,0.44771525 42,1 L42,1 L42,42.3915863 C42,42.6568976 41.894568,42.9113344 41.7069133,43.0988865 L41.7069133,43.0988865 L32.0932415,52.7073002 C31.9057208,52.8947182 31.6514498,53 31.3863281,53 L31.3863281,53 Z M40,2 L2,2 L2,51 L30,51 L30,42 C30,41.4871642 30.3860402,41.0644928 30.8833789,41.0067277 L31,41 L40,41 L40,2 Z M38.976,43 L32,43 L32,49.972 L38.976,43 Z" id="Combined-Shape" fill="#4C433F" fill-rule="nonzero"></path>
            <rect id="Rectangle-Copy-3" fill="#ECE8E6" x="7" y="9" width="28" height="2"></rect>
            <rect id="Rectangle-Copy-4" fill="#ECE8E6" x="7" y="13" width="28" height="2"></rect>
            <rect id="Rectangle-Copy-5" fill="#ECE8E6" x="7" y="17" width="28" height="2"></rect>
            <rect id="Rectangle-Copy-7" fill="#ECE8E6" x="7" y="21" width="28" height="2"></rect>
            <rect id="Rectangle-Copy-8" fill="#ECE8E6" x="7" y="25" width="28" height="2"></rect>
            <rect id="Rectangle-Copy-20" fill="#ECE8E6" x="7" y="29" width="28" height="2"></rect>
            <rect id="Rectangle-Copy-21" fill="#ECE8E6" x="7" y="33" width="7" height="2"></rect>
            <rect id="Rectangle-Copy-24" fill="#ECE8E6" x="7" y="41" width="12" height="2"></rect>
            <rect id="Rectangle-Copy-25" fill="#ECE8E6" x="21" y="41" width="7" height="2"></rect>
            <rect id="Rectangle-Copy-22" fill="#ECE8E6" x="16" y="33" width="19" height="2"></rect>
            <rect id="Rectangle-Copy-23" fill="#ECE8E6" x="7" y="37" width="19" height="2"></rect>
        </g>
        <g id="專家" transform="translate(137.000000, 52.000000)">
            <g id="Group-2">
                <path d="M16.5563492,18 C7.41253002,18 0,25.41253 0,34.5563492 C0,44.4812169 33.1126984,44.4812169 33.1126984,34.5563492 C33.1126984,25.41253 25.7001684,18 16.5563492,18 Z" id="Path" fill="#FFFFFF" fill-rule="nonzero"></path>
                <path d="M16.5563492,18 C7.41253002,18 0,25.41253 0,34.5563492 C0,44.4812169 33.1126984,44.4812169 33.1126984,34.5563492 C33.1126984,25.41253 25.7001684,18 16.5563492,18 Z M16.5563492,20 C24.5955989,20 31.1126984,26.5170995 31.1126984,34.5563492 C31.1126984,41.8145503 2,41.8145503 2,34.5563492 C2,26.5170995 8.51709952,20 16.5563492,20 Z" id="Oval-Copy-5" fill="#4C433F" fill-rule="nonzero"></path>
                <circle id="Oval" fill="#FFFFFF" cx="16.5563492" cy="12" r="11"></circle>
                <path d="M16.5563492,0 C23.1837662,0 28.5563492,5.372583 28.5563492,12 C28.5563492,18.627417 23.1837662,24 16.5563492,24 C9.92893219,24 4.55634919,18.627417 4.55634919,12 C4.55634919,5.372583 9.92893219,0 16.5563492,0 Z M17.6566083,13.0011864 L15.4560901,13.0011864 C14.9923614,15.2828356 12.9748879,17 10.5563492,17 C9.31375662,17 8.17703248,16.5467234 7.30250437,15.7964979 C8.7971293,19.4366187 12.3773843,22 16.5563492,22 C20.735314,22 24.3155691,19.4366187 25.8105092,15.7964611 C24.9356659,16.5467234 23.7989417,17 22.5563492,17 C20.1378105,17 18.1203369,15.2828356 17.6566083,13.0011864 Z M10.5563492,9 C8.89949494,9 7.55634919,10.3431458 7.55634919,12 C7.55634919,13.6568542 8.89949494,15 10.5563492,15 C12.2132034,15 13.5563492,13.6568542 13.5563492,12 C13.5563492,10.3431458 12.2132034,9 10.5563492,9 Z M22.5563492,9 C20.8994949,9 19.5563492,10.3431458 19.5563492,12 C19.5563492,13.6568542 20.8994949,15 22.5563492,15 C24.2132034,15 25.5563492,13.6568542 25.5563492,12 C25.5563492,10.3431458 24.2132034,9 22.5563492,9 Z M16.5563492,2 C12.3773843,2 8.7971293,4.56338134 7.30218916,8.20353892 C8.17703248,7.45327658 9.31375662,7 10.5563492,7 C12.9752407,7 14.9929499,8.71766536 15.4562929,10.999812 L17.6564055,10.999812 C18.1197484,8.71766536 20.1374577,7 22.5563492,7 C23.7989417,7 24.9356659,7.45327658 25.810194,8.20350212 C24.3155691,4.56338134 20.735314,2 16.5563492,2 Z" id="Combined-Shape" fill="#4C433F" fill-rule="nonzero"></path>
            </g>
            <g id="眼鏡" transform="translate(5.556349, 7.000000)"></g>
        </g>
        <g id="對話" transform="translate(400.000000, 84.000000)">
            <path d="M45,0 L3,0 C1.34314575,0 0,1.34314575 0,3 L0,29 L0.00509269341,29.1762728 C0.0963391206,30.75108 1.40231912,32 3,32 L8.065,31.999 L8.06542969,40.0253906 L8.07139149,40.1387899 C8.15791799,40.9512427 9.1660956,41.3341966 9.76974938,40.7352735 L18.574,31.999 L45,32 C46.6568542,32 48,30.6568542 48,29 L48,3 C48,1.34314575 46.6568542,0 45,0 Z" id="Path" fill="#FFFFFF" fill-rule="nonzero"></path>
            <path d="M45,0 L3,0 C1.34314575,0 0,1.34314575 0,3 L0,29 L0.00509269341,29.1762728 C0.0963391206,30.75108 1.40231912,32 3,32 L8.065,31.999 L8.06542969,40.0253906 L8.07139149,40.1387899 C8.15791799,40.9512427 9.1660956,41.3341966 9.76974938,40.7352735 L18.574,31.999 L45,32 C46.6568542,32 48,30.6568542 48,29 L48,3 C48,1.34314575 46.6568542,0 45,0 Z M3,2 L45,2 C45.5522847,2 46,2.44771525 46,3 L46,29 C46,29.5522847 45.5522847,30 45,30 L18.1621094,30 L18.031329,30.0085848 C17.8156981,30.0370254 17.6138773,30.1352527 17.4577897,30.2901171 L10.065,37.624 L10.0654297,31 C10.0654297,30.4477153 9.61771444,30 9.06542969,30 L3,30 C2.44771525,30 2,29.5522847 2,29 L2,3 C2,2.44771525 2.44771525,2 3,2 Z" id="Rectangle" fill="#4C433F" fill-rule="nonzero"></path>
            <circle id="Oval" fill="#4C433F" cx="16" cy="16" r="2"></circle>
            <circle id="Oval-Copy-7" fill="#4C433F" cx="24" cy="16" r="2"></circle>
            <circle id="Oval-Copy-8" fill="#4C433F" cx="32" cy="16" r="2"></circle>
        </g>
        <g id="對話-copy" transform="translate(56.000000, 155.000000) scale(-1, 1) translate(-56.000000, -155.000000) translate(32.000000, 134.000000)">
            <path d="M45,0 L3,0 C1.34314575,0 0,1.34314575 0,3 L0,29 L0.00509269341,29.1762728 C0.0963391206,30.75108 1.40231912,32 3,32 L8.065,31.999 L8.06542969,40.0253906 L8.07139149,40.1387899 C8.15791799,40.9512427 9.1660956,41.3341966 9.76974938,40.7352735 L18.574,31.999 L45,32 C46.6568542,32 48,30.6568542 48,29 L48,3 C48,1.34314575 46.6568542,0 45,0 Z" id="Path" fill="#FFFFFF" fill-rule="nonzero"></path>
            <path d="M45,0 L3,0 C1.34314575,0 0,1.34314575 0,3 L0,29 L0.00509269341,29.1762728 C0.0963391206,30.75108 1.40231912,32 3,32 L8.065,31.999 L8.06542969,40.0253906 L8.07139149,40.1387899 C8.15791799,40.9512427 9.1660956,41.3341966 9.76974938,40.7352735 L18.574,31.999 L45,32 C46.6568542,32 48,30.6568542 48,29 L48,3 C48,1.34314575 46.6568542,0 45,0 Z M3,2 L45,2 C45.5522847,2 46,2.44771525 46,3 L46,29 C46,29.5522847 45.5522847,30 45,30 L18.1621094,30 L18.031329,30.0085848 C17.8156981,30.0370254 17.6138773,30.1352527 17.4577897,30.2901171 L10.065,37.624 L10.0654297,31 C10.0654297,30.4477153 9.61771444,30 9.06542969,30 L3,30 C2.44771525,30 2,29.5522847 2,29 L2,3 C2,2.44771525 2.44771525,2 3,2 Z" id="Rectangle" fill="#4C433F" fill-rule="nonzero"></path>
            <circle id="Oval" fill="#4C433F" cx="16" cy="16" r="2"></circle>
            <circle id="Oval-Copy-7" fill="#4C433F" cx="24" cy="16" r="2"></circle>
            <circle id="Oval-Copy-8" fill="#4C433F" cx="32" cy="16" r="2"></circle>
        </g>
        <path d="M80,332 L84,332 C84.5522847,332 85,331.552285 85,331 C85,330.447715 84.5522847,330 84,330 L80,330 C79.4477153,330 79,330.447715 79,331 C79,331.552285 79.4477153,332 80,332 Z M94,332 L98,332 C98.5522847,332 99,331.552285 99,331 C99,330.447715 98.5522847,330 98,330 L94,330 C93.4477153,330 93,330.447715 93,331 C93,331.552285 93.4477153,332 94,332 Z M108,332 L112,332 C112.552285,332 113,331.552285 113,331 C113,330.447715 112.552285,330 112,330 L108,330 C107.447715,330 107,330.447715 107,331 C107,331.552285 107.447715,332 108,332 Z M122,332 L126,332 C126.552285,332 127,331.552285 127,331 C127,330.447715 126.552285,330 126,330 L122,330 C121.447715,330 121,330.447715 121,331 C121,331.552285 121.447715,332 122,332 Z M136,332 L140,332 C140.552285,332 141,331.552285 141,331 C141,330.447715 140.552285,330 140,330 L136,330 C135.447715,330 135,330.447715 135,331 C135,331.552285 135.447715,332 136,332 Z M150,332 L154,332 C154.552285,332 155,331.552285 155,331 C155,330.447715 154.552285,330 154,330 L150,330 C149.447715,330 149,330.447715 149,331 C149,331.552285 149.447715,332 150,332 Z M164,332 L168,332 C168.552285,332 169,331.552285 169,331 C169,330.447715 168.552285,330 168,330 L164,330 C163.447715,330 163,330.447715 163,331 C163,331.552285 163.447715,332 164,332 Z M178,332 L182,332 C182.552285,332 183,331.552285 183,331 C183,330.447715 182.552285,330 182,330 L178,330 C177.447715,330 177,330.447715 177,331 C177,331.552285 177.447715,332 178,332 Z M192,332 L196,332 C196.552285,332 197,331.552285 197,331 C197,330.447715 196.552285,330 196,330 L192,330 C191.447715,330 191,330.447715 191,331 C191,331.552285 191.447715,332 192,332 Z M206,332 L210,332 C210.552285,332 211,331.552285 211,331 C211,330.447715 210.552285,330 210,330 L206,330 C205.447715,330 205,330.447715 205,331 C205,331.552285 205.447715,332 206,332 Z M220,332 L224,332 C224.552285,332 225,331.552285 225,331 C225,330.447715 224.552285,330 224,330 L220,330 C219.447715,330 219,330.447715 219,331 C219,331.552285 219.447715,332 220,332 Z M234,332 L238,332 C238.552285,332 239,331.552285 239,331 C239,330.447715 238.552285,330 238,330 L234,330 C233.447715,330 233,330.447715 233,331 C233,331.552285 233.447715,332 234,332 Z M248,332 L252,332 C252.552285,332 253,331.552285 253,331 C253,330.447715 252.552285,330 252,330 L248,330 C247.447715,330 247,330.447715 247,331 C247,331.552285 247.447715,332 248,332 Z" id="Line-3-Copy-6" fill="#4C433F" fill-rule="nonzero"></path>
        <path d="M353,76 C353.552285,76 354,76.4477153 354,77 L354,83 L360,83 C360.552285,83 361,83.4477153 361,84 C361,84.5522847 360.552285,85 360,85 L354,85 L354,91 C354,91.5522847 353.552285,92 353,92 C352.447715,92 352,91.5522847 352,91 L352,85 L346,85 C345.447715,85 345,84.5522847 345,84 C345,83.4477153 345.447715,83 346,83 L352,83 L352,77 C352,76.4477153 352.447715,76 353,76 Z" id="Combined-Shape-Copy-2" fill="#4C433F"></path>
        <path d="M413,26 C413.552285,26 414,26.4477153 414,27 L414,33 L420,33 C420.552285,33 421,33.4477153 421,34 C421,34.5522847 420.552285,35 420,35 L414,35 L414,41 C414,41.5522847 413.552285,42 413,42 C412.447715,42 412,41.5522847 412,41 L412,35 L406,35 C405.447715,35 405,34.5522847 405,34 C405,33.4477153 405.447715,33 406,33 L412,33 L412,27 C412,26.4477153 412.447715,26 413,26 Z" id="Combined-Shape-Copy-9" fill="#4C433F"></path>
        <path d="M117,76 C117.552285,76 118,76.4477153 118,77 L118,83 L124,83 C124.552285,83 125,83.4477153 125,84 C125,84.5522847 124.552285,85 124,85 L118,85 L118,91 C118,91.5522847 117.552285,92 117,92 C116.447715,92 116,91.5522847 116,91 L116,85 L110,85 C109.447715,85 109,84.5522847 109,84 C109,83.4477153 109.447715,83 110,83 L116,83 L116,77 C116,76.4477153 116.447715,76 117,76 Z" id="Combined-Shape-Copy-3" fill="#4C433F"></path>
        <path d="M41,229 C41.5522847,229 42,229.447715 42,230 L42,236 L48,236 C48.5522847,236 49,236.447715 49,237 C49,237.552285 48.5522847,238 48,238 L42,238 L42,244 C42,244.552285 41.5522847,245 41,245 C40.4477153,245 40,244.552285 40,244 L40,238 L34,238 C33.4477153,238 33,237.552285 33,237 C33,236.447715 33.4477153,236 34,236 L40,236 L40,230 C40,229.447715 40.4477153,229 41,229 Z" id="Combined-Shape-Copy-4" fill="#4C433F"></path>
        <path d="M400,322 C400.552285,322 401,322.447715 401,323 L401,329 L407,329 C407.552285,329 408,329.447715 408,330 C408,330.552285 407.552285,331 407,331 L401,331 L401,337 C401,337.552285 400.552285,338 400,338 C399.447715,338 399,337.552285 399,337 L399,331 L393,331 C392.447715,331 392,330.552285 392,330 C392,329.447715 392.447715,329 393,329 L399,329 L399,323 C399,322.447715 399.447715,322 400,322 Z" id="Combined-Shape-Copy-5" fill="#4C433F"></path>
        <path d="M195,349 C195.552285,349 196,349.447715 196,350 L196,356 L202,356 C202.552285,356 203,356.447715 203,357 C203,357.552285 202.552285,358 202,358 L196,358 L196,364 C196,364.552285 195.552285,365 195,365 C194.447715,365 194,364.552285 194,364 L194,358 L188,358 C187.447715,358 187,357.552285 187,357 C187,356.447715 187.447715,356 188,356 L194,356 L194,350 C194,349.447715 194.447715,349 195,349 Z" id="Combined-Shape-Copy-8" fill="#4C433F"></path>
        <path d="M445,196 C445.552285,196 446,196.447715 446,197 L446,203 L452,203 C452.552285,203 453,203.447715 453,204 C453,204.552285 452.552285,205 452,205 L446,205 L446,211 C446,211.552285 445.552285,212 445,212 C444.447715,212 444,211.552285 444,211 L444,205 L438,205 C437.447715,205 437,204.552285 437,204 C437,203.447715 437.447715,203 438,203 L444,203 L444,197 C444,196.447715 444.447715,196 445,196 Z" id="Combined-Shape-Copy-6" fill="#4C433F"></path>
        <path d="M33,57 C33.5522847,57 34,57.4477153 34,58 L34,64 L40,64 C40.5522847,64 41,64.4477153 41,65 C41,65.5522847 40.5522847,66 40,66 L34,66 L34,72 C34,72.5522847 33.5522847,73 33,73 C32.4477153,73 32,72.5522847 32,72 L32,66 L26,66 C25.4477153,66 25,65.5522847 25,65 C25,64.4477153 25.4477153,64 26,64 L32,64 L32,58 C32,57.4477153 32.4477153,57 33,57 Z" id="Combined-Shape-Copy-7" fill="#4C433F"></path>
        <path d="M187,88 L191,88 C191.552285,88 192,87.5522847 192,87 C192,86.4477153 191.552285,86 191,86 L187,86 C186.447715,86 186,86.4477153 186,87 C186,87.5522847 186.447715,88 187,88 Z M201,88 L205,88 C205.552285,88 206,87.5522847 206,87 C206,86.4477153 205.552285,86 205,86 L201,86 C200.447715,86 200,86.4477153 200,87 C200,87.5522847 200.447715,88 201,88 Z M215,88 L219,88 C219.552285,88 220,87.5522847 220,87 C220,86.4477153 219.552285,86 219,86 L215,86 C214.447715,86 214,86.4477153 214,87 C214,87.5522847 214.447715,88 215,88 Z M229,88 L233,88 C233.552285,88 234,87.5522847 234,87 C234,86.4477153 233.552285,86 233,86 L229,86 C228.447715,86 228,86.4477153 228,87 C228,87.5522847 228.447715,88 229,88 Z M243,88 L247,88 C247.552285,88 248,87.5522847 248,87 C248,86.4477153 247.552285,86 247,86 L243,86 C242.447715,86 242,86.4477153 242,87 C242,87.5522847 242.447715,88 243,88 Z M257,88 L261,88 C261.552285,88 262,87.5522847 262,87 C262,86.4477153 261.552285,86 261,86 L257,86 C256.447715,86 256,86.4477153 256,87 C256,87.5522847 256.447715,88 257,88 Z M271,88 L275,88 C275.552285,88 276,87.5522847 276,87 C276,86.4477153 275.552285,86 275,86 L271,86 C270.447715,86 270,86.4477153 270,87 C270,87.5522847 270.447715,88 271,88 Z M285,88 L289,88 C289.552285,88 290,87.5522847 290,87 C290,86.4477153 289.552285,86 289,86 L285,86 C284.447715,86 284,86.4477153 284,87 C284,87.5522847 284.447715,88 285,88 Z M299,88 L303,88 C303.552285,88 304,87.5522847 304,87 C304,86.4477153 303.552285,86 303,86 L299,86 C298.447715,86 298,86.4477153 298,87 C298,87.5522847 298.447715,88 299,88 Z M313,88 L317,88 C317.552285,88 318,87.5522847 318,87 C318,86.4477153 317.552285,86 317,86 L313,86 C312.447715,86 312,86.4477153 312,87 C312,87.5522847 312.447715,88 313,88 Z" id="Line-3-Copy-7" fill="#4C433F" fill-rule="nonzero"></path>
        <path d="M390,290 L394,290 C394.552285,290 395,289.552285 395,289 C395,288.447715 394.552285,288 394,288 L390,288 C389.447715,288 389,288.447715 389,289 C389,289.552285 389.447715,290 390,290 Z M404,290 L408,290 C408.552285,290 409,289.552285 409,289 C409,288.447715 408.552285,288 408,288 L404,288 C403.447715,288 403,288.447715 403,289 C403,289.552285 403.447715,290 404,290 Z M418,290 L422,290 C422.552285,290 423,289.552285 423,289 C423,288.447715 422.552285,288 422,288 L418,288 C417.447715,288 417,288.447715 417,289 C417,289.552285 417.447715,290 418,290 Z M432,290 L435,290 C435.552285,290 436,289.552285 436,289 C436,288.447715 435.552285,288 435,288 L432,288 C431.447715,288 431,288.447715 431,289 C431,289.552285 431.447715,290 432,290 Z" id="Line-3-Copy-9" fill="#4C433F" fill-rule="nonzero"></path>
        <g id="專家-copy" transform="translate(416.000000, 259.000000)">
            <g id="Group-2">
                <path d="M31.1126984,34.5563492 C31.1126984,25.9648148 24.1478836,19 15.5563492,19 C6.96481477,19 0,25.9648148 0,34.5563492 C0,43.1478836 31.1126984,43.1478836 31.1126984,34.5563492 Z" id="Oval-Copy-5" fill="#FFFFFF"></path>
                <path d="M15.5563492,18 C6.41253002,18 -1,25.41253 -1,34.5563492 C-1,44.4812169 32.1126984,44.4812169 32.1126984,34.5563492 C32.1126984,25.41253 24.7001684,18 15.5563492,18 Z M15.5563492,20 C23.5955989,20 30.1126984,26.5170995 30.1126984,34.5563492 C30.1126984,41.8145503 1,41.8145503 1,34.5563492 C1,26.5170995 7.51709952,20 15.5563492,20 Z" id="Oval-Copy-5" fill="#4C433F" fill-rule="nonzero"></path>
                <circle id="Oval" fill="#FFFFFF" cx="15.5563492" cy="12" r="11"></circle>
                <path d="M15.5563492,0 C8.92893219,0 3.55634919,5.372583 3.55634919,12 C3.55634919,18.627417 8.92893219,24 15.5563492,24 C22.1837662,24 27.5563492,18.627417 27.5563492,12 C27.5563492,5.372583 22.1837662,0 15.5563492,0 Z M15.5563492,2 C21.0791967,2 25.5563492,6.4771525 25.5563492,12 C25.5563492,17.5228475 21.0791967,22 15.5563492,22 C10.0335017,22 5.55634919,17.5228475 5.55634919,12 C5.55634919,6.4771525 10.0335017,2 15.5563492,2 Z" id="Oval" fill="#4C433F" fill-rule="nonzero"></path>
            </g>
            <g id="眼鏡" transform="translate(4.556349, 7.000000)" fill="#4C433F" fill-rule="nonzero">
                <path d="M17,0 C19.7614237,0 22,2.23857625 22,5 C22,7.76142375 19.7614237,10 17,10 C14.5814613,10 12.5639878,8.2828356 12.1002591,6.0011864 L9.89974091,6.0011864 C9.43601224,8.2828356 7.41853874,10 5,10 C2.23857625,10 0,7.76142375 0,5 C0,2.23857625 2.23857625,0 5,0 C7.4188915,0 9.43660076,1.71766536 9.89994372,3.99981203 L12.1000563,3.99981203 C12.5633992,1.71766536 14.5811085,0 17,0 Z M5,2 C3.34314575,2 2,3.34314575 2,5 C2,6.65685425 3.34314575,8 5,8 C6.65685425,8 8,6.65685425 8,5 C8,3.34314575 6.65685425,2 5,2 Z M17,2 C15.3431458,2 14,3.34314575 14,5 C14,6.65685425 15.3431458,8 17,8 C18.6568542,8 20,6.65685425 20,5 C20,3.34314575 18.6568542,2 17,2 Z" id="Combined-Shape"></path>
            </g>
        </g>
        <path d="M390,156 L394,156 C394.552285,156 395,155.552285 395,155 C395,154.447715 394.552285,154 394,154 L390,154 C389.447715,154 389,154.447715 389,155 C389,155.552285 389.447715,156 390,156 Z M404,156 L408,156 C408.552285,156 409,155.552285 409,155 C409,154.447715 408.552285,154 408,154 L404,154 C403.447715,154 403,154.447715 403,155 C403,155.552285 403.447715,156 404,156 Z M418,156 L422,156 C422.552285,156 423,155.552285 423,155 C423,154.447715 422.552285,154 422,154 L418,154 C417.447715,154 417,154.447715 417,155 C417,155.552285 417.447715,156 418,156 Z M432,156 L436,156 C436.552285,156 437,155.552285 437,155 C437,154.447715 436.552285,154 436,154 L432,154 C431.447715,154 431,154.447715 431,155 C431,155.552285 431.447715,156 432,156 Z M446,156 L450,156 C450.552285,156 451,155.552285 451,155 C451,154.447715 450.552285,154 450,154 L446,154 C445.447715,154 445,154.447715 445,155 C445,155.552285 445.447715,156 446,156 Z" id="Line-3-Copy-8" fill="#4C433F" fill-rule="nonzero"></path>
        <path d="M29,270 L33,270 C33.5522847,270 34,269.552285 34,269 C34,268.447715 33.5522847,268 33,268 L29,268 C28.4477153,268 28,268.447715 28,269 C28,269.552285 28.4477153,270 29,270 Z M43,270 L47,270 C47.5522847,270 48,269.552285 48,269 C48,268.447715 47.5522847,268 47,268 L43,268 C42.4477153,268 42,268.447715 42,269 C42,269.552285 42.4477153,270 43,270 Z M57,270 L61,270 C61.5522847,270 62,269.552285 62,269 C62,268.447715 61.5522847,268 61,268 L57,268 C56.4477153,268 56,268.447715 56,269 C56,269.552285 56.4477153,270 57,270 Z M71,270 L75,270 C75.5522847,270 76,269.552285 76,269 C76,268.447715 75.5522847,268 75,268 L71,268 C70.4477153,268 70,268.447715 70,269 C70,269.552285 70.4477153,270 71,270 Z M85,270 L89,270 C89.5522847,270 90,269.552285 90,269 C90,268.447715 89.5522847,268 89,268 L85,268 C84.4477153,268 84,268.447715 84,269 C84,269.552285 84.4477153,270 85,270 Z" id="Line-3-Copy-10" fill="#4C433F" fill-rule="nonzero"></path>
        <path d="M90,56 L94,56 C94.5522847,56 95,55.5522847 95,55 C95,54.4477153 94.5522847,54 94,54 L90,54 C89.4477153,54 89,54.4477153 89,55 C89,55.5522847 89.4477153,56 90,56 Z M104,56 L108,56 C108.552285,56 109,55.5522847 109,55 C109,54.4477153 108.552285,54 108,54 L104,54 C103.447715,54 103,54.4477153 103,55 C103,55.5522847 103.447715,56 104,56 Z M118,56 L122,56 C122.552285,56 123,55.5522847 123,55 C123,54.4477153 122.552285,54 122,54 L118,54 C117.447715,54 117,54.4477153 117,55 C117,55.5522847 117.447715,56 118,56 Z M132,56 L136,56 C136.552285,56 137,55.5522847 137,55 C137,54.4477153 136.552285,54 136,54 L132,54 C131.447715,54 131,54.4477153 131,55 C131,55.5522847 131.447715,56 132,56 Z" id="Line-3-Copy-5" fill="#4C433F" fill-rule="nonzero"></path>
        <path d="M55,66 L59,66 C59.5522847,66 60,65.5522847 60,65 C60,64.4477153 59.5522847,64 59,64 L55,64 C54.4477153,64 54,64.4477153 54,65 C54,65.5522847 54.4477153,66 55,66 Z M69,66 L73,66 C73.5522847,66 74,65.5522847 74,65 C74,64.4477153 73.5522847,64 73,64 L69,64 C68.4477153,64 68,64.4477153 68,65 C68,65.5522847 68.4477153,66 69,66 Z M83,66 L87,66 C87.5522847,66 88,65.5522847 88,65 C88,64.4477153 87.5522847,64 87,64 L83,64 C82.4477153,64 82,64.4477153 82,65 C82,65.5522847 82.4477153,66 83,66 Z M97,66 L101,66 C101.552285,66 102,65.5522847 102,65 C102,64.4477153 101.552285,64 101,64 L97,64 C96.4477153,64 96,64.4477153 96,65 C96,65.5522847 96.4477153,66 97,66 Z M111,66 L115,66 C115.552285,66 116,65.5522847 116,65 C116,64.4477153 115.552285,64 115,64 L111,64 C110.447715,64 110,64.4477153 110,65 C110,65.5522847 110.447715,66 111,66 Z" id="Line-3-Copy-11" fill="#4C433F" fill-rule="nonzero"></path>
        <path d="M90.0853659,258 C90.6376506,258 91.0853659,258.447715 91.0853659,259 C91.0853659,259.512836 90.6993257,259.935507 90.201987,259.993272 L90.0853659,260 L52,260 C51.4477153,260 51,259.552285 51,259 C51,258.487164 51.3860402,258.064493 51.8833789,258.006728 L52,258 L90.0853659,258 Z" id="Line-3-Copy-30" fill="#4C433F" fill-rule="nonzero"></path>
        <path d="M422,232 C422.552285,232 423,232.447715 423,233 C423,233.512836 422.61396,233.935507 422.116621,233.993272 L422,234 L389.042683,234 C388.490398,234 388.042683,233.552285 388.042683,233 C388.042683,232.487164 388.428723,232.064493 388.926062,232.006728 L389.042683,232 L422,232 Z" id="Line-3-Copy-32" fill="#4C433F" fill-rule="nonzero"></path>
        <path d="M341,56 C341.552285,56 342,56.4477153 342,57 C342,57.5128358 341.61396,57.9355072 341.116621,57.9932723 L341,58 L308.978659,58 C308.426374,58 307.978659,57.5522847 307.978659,57 C307.978659,56.4871642 308.364699,56.0644928 308.862037,56.0067277 L308.978659,56 L341,56 Z" id="Line-3-Copy-33" fill="#4C433F" fill-rule="nonzero"></path>
        <path d="M378,64 C378.552285,64 379,64.4477153 379,65 C379,65.5128358 378.61396,65.9355072 378.116621,65.9932723 L378,66 L333.010671,66 C332.458386,66 332.010671,65.5522847 332.010671,65 C332.010671,64.4871642 332.396711,64.0644928 332.89405,64.0067277 L333.010671,64 L378,64 Z" id="Line-3-Copy-34" fill="#4C433F" fill-rule="nonzero"></path>
        <path d="M445,224 C445.552285,224 446,224.447715 446,225 C446,225.512836 445.61396,225.935507 445.116621,225.993272 L445,226 L389.042683,226 C388.490398,226 388.042683,225.552285 388.042683,225 C388.042683,224.487164 388.428723,224.064493 388.926062,224.006728 L389.042683,224 L445,224 Z" id="Line-3-Copy-31" fill="#4C433F" fill-rule="nonzero"></path>
        <path d="M322,339 C322.552285,339 323,339.447715 323,340 C323,340.512836 322.61396,340.935507 322.116621,340.993272 L322,341 L245.978659,341 C245.426374,341 244.978659,340.552285 244.978659,340 C244.978659,339.487164 245.364699,339.064493 245.862037,339.006728 L245.978659,339 L322,339 Z" id="Line-3-Copy-35" fill="#4C433F" fill-rule="nonzero"></path>
    </g>
</svg>