<?xml version="1.0" encoding="UTF-8"?>
<svg width="480px" height="400px" viewBox="0 0 480 400" version="1.1" xmlns="http://www.w3.org/2000/svg" xmlns:xlink="http://www.w3.org/1999/xlink">
    <!-- Generator: Sketch 63.1 (92452) - https://sketch.com -->
    <title>img/FinancialService</title>
    <desc>Created with Sketch.</desc>
    <g id="img/FinancialService" stroke="none" stroke-width="1" fill="none" fill-rule="evenodd">
        <circle id="Oval-Copy-15" fill="#FFD36A" cx="295.5" cy="321.5" r="59.5"></circle>
        <circle id="Oval-Copy-11" fill="#FFD36A" cx="359" cy="244" r="88"></circle>
        <circle id="Oval-Copy-10" fill="#FFD36A" cx="149.5" cy="205" r="132.5"></circle>
        <path d="M115.7,49 L119.7,49 C120.252285,49 120.7,48.5522847 120.7,48 C120.7,47.4477153 120.252285,47 119.7,47 L115.7,47 C115.147715,47 114.7,47.4477153 114.7,48 C114.7,48.5522847 115.147715,49 115.7,49 Z M129.7,49 L133.7,49 C134.252285,49 134.7,48.5522847 134.7,48 C134.7,47.4477153 134.252285,47 133.7,47 L129.7,47 C129.147715,47 128.7,47.4477153 128.7,48 C128.7,48.5522847 129.147715,49 129.7,49 Z M143.7,49 L147.7,49 C148.252285,49 148.7,48.5522847 148.7,48 C148.7,47.4477153 148.252285,47 147.7,47 L143.7,47 C143.147715,47 142.7,47.4477153 142.7,48 C142.7,48.5522847 143.147715,49 143.7,49 Z M157.7,49 L161.7,49 C162.252285,49 162.7,48.5522847 162.7,48 C162.7,47.4477153 162.252285,47 161.7,47 L157.7,47 C157.147715,47 156.7,47.4477153 156.7,48 C156.7,48.5522847 157.147715,49 157.7,49 Z M171.7,49 L175.7,49 C176.252285,49 176.7,48.5522847 176.7,48 C176.7,47.4477153 176.252285,47 175.7,47 L171.7,47 C171.147715,47 170.7,47.4477153 170.7,48 C170.7,48.5522847 171.147715,49 171.7,49 Z M185.7,49 L189.7,49 C190.252285,49 190.7,48.5522847 190.7,48 C190.7,47.4477153 190.252285,47 189.7,47 L185.7,47 C185.147715,47 184.7,47.4477153 184.7,48 C184.7,48.5522847 185.147715,49 185.7,49 Z M199.7,49 L203.7,49 C204.252285,49 204.7,48.5522847 204.7,48 C204.7,47.4477153 204.252285,47 203.7,47 L199.7,47 C199.147715,47 198.7,47.4477153 198.7,48 C198.7,48.5522847 199.147715,49 199.7,49 Z M213.7,49 L217.7,49 C218.252285,49 218.7,48.5522847 218.7,48 C218.7,47.4477153 218.252285,47 217.7,47 L213.7,47 C213.147715,47 212.7,47.4477153 212.7,48 C212.7,48.5522847 213.147715,49 213.7,49 Z M227.7,49 L231.7,49 C232.252285,49 232.7,48.5522847 232.7,48 C232.7,47.4477153 232.252285,47 231.7,47 L227.7,47 C227.147715,47 226.7,47.4477153 226.7,48 C226.7,48.5522847 227.147715,49 227.7,49 Z M241.7,49 L245.7,49 C246.252285,49 246.7,48.5522847 246.7,48 C246.7,47.4477153 246.252285,47 245.7,47 L241.7,47 C241.147715,47 240.7,47.4477153 240.7,48 C240.7,48.5522847 241.147715,49 241.7,49 Z M255.7,49 L259.7,49 C260.252285,49 260.7,48.5522847 260.7,48 C260.7,47.4477153 260.252285,47 259.7,47 L255.7,47 C255.147715,47 254.7,47.4477153 254.7,48 C254.7,48.5522847 255.147715,49 255.7,49 Z M269.7,49 L273.7,49 C274.252285,49 274.7,48.5522847 274.7,48 C274.7,47.4477153 274.252285,47 273.7,47 L269.7,47 C269.147715,47 268.7,47.4477153 268.7,48 C268.7,48.5522847 269.147715,49 269.7,49 Z M283.7,49 L287.7,49 C288.252285,49 288.7,48.5522847 288.7,48 C288.7,47.4477153 288.252285,47 287.7,47 L283.7,47 C283.147715,47 282.7,47.4477153 282.7,48 C282.7,48.5522847 283.147715,49 283.7,49 Z M297.59842,49.2567839 C298.906496,49.3818739 300.206157,49.5524097 301.495734,49.7678254 C302.040471,49.8588202 302.555834,49.4909895 302.646829,48.9462525 C302.737823,48.4015155 302.369993,47.8861531 301.825256,47.7951582 C300.489557,47.5720383 299.143491,47.3954134 297.78881,47.2658666 C297.239033,47.2132919 296.750731,47.6163538 296.698157,48.1661304 C296.645582,48.7159071 297.048644,49.2042093 297.59842,49.2567839 Z M311.009103,52.2367792 C312.243351,52.6768014 313.460849,53.1600587 314.659629,53.6855084 C315.165456,53.9072228 315.755245,53.6769038 315.97696,53.1710765 C316.198674,52.6652493 315.968355,52.0754603 315.462528,51.853746 C314.220659,51.3094094 312.959374,50.8087719 311.680719,50.3529182 C311.160505,50.1674566 310.588442,50.438827 310.40298,50.9590408 C310.217519,51.4792547 310.488889,52.0513176 311.009103,52.2367792 Z M323.271151,58.4032328 C324.360241,59.1309195 325.423624,59.8965996 326.459307,60.6987106 C326.895952,61.0368816 327.524064,60.9570527 327.862235,60.5204077 C328.200406,60.0837627 328.120577,59.4556503 327.683932,59.1174793 C326.6114,58.2868294 325.51016,57.4938905 324.382271,56.7402797 C323.923059,56.4334525 323.302062,56.5569846 322.995235,57.0161964 C322.688407,57.4754082 322.81194,58.0964056 323.271151,58.4032328 Z M333.703582,67.4034474 C334.583647,68.374366 335.429588,69.375714 336.2397,70.4055543 C336.581162,70.8396309 337.209859,70.9147104 337.643936,70.5732489 C338.078013,70.2317875 338.153092,69.6030897 337.811631,69.169013 C336.972731,68.1025772 336.096742,67.0656618 335.185428,66.0602668 C334.814519,65.6510665 334.182115,65.6200253 333.772915,65.9909344 C333.363715,66.3618435 333.332673,66.9942471 333.703582,67.4034474 Z M341.591208,78.5848525 C342.209946,79.7393113 342.788006,80.9153984 343.324172,82.1111004 C343.550144,82.6150399 344.141854,82.840377 344.645794,82.6144048 C345.149733,82.3884327 345.37507,81.7967224 345.149098,81.2927829 C344.59369,80.0541701 343.994901,78.8359066 343.353991,77.6400793 C343.093099,77.1533003 342.486992,76.9701826 342.000213,77.2310745 C341.513433,77.4919664 341.330316,78.0980735 341.591208,78.5848525 Z M346.54137,91.416044 C346.857578,92.6851846 347.129385,93.9670427 347.356089,95.259833 C347.451481,95.8038171 347.969799,96.1674721 348.513783,96.0720793 C349.057767,95.9766865 349.421422,95.4583691 349.326029,94.9143851 C349.09119,93.5752011 348.809618,92.2472907 348.482042,90.9325232 C348.348521,90.3966214 347.805847,90.070427 347.269946,90.2039476 C346.734044,90.3374682 346.407849,90.8801422 346.54137,91.416044 Z M348.199924,105.093458 C348.197775,106.409154 348.150264,107.719264 348.05781,109.022278 C348.018721,109.573178 348.433626,110.051458 348.984526,110.090547 C349.535425,110.129635 350.013705,109.71473 350.052794,109.163831 C350.148513,107.814802 350.197697,106.45857 350.199922,105.096724 C350.200823,104.54444 349.753839,104.095994 349.201555,104.095091 C348.649271,104.094191 348.200825,104.541174 348.199924,105.093458 Z M346.50053,118.746825 C346.179729,120.018017 345.814476,121.275804 345.405614,122.518308 C345.232984,123.042919 345.518321,123.608146 346.042933,123.780776 C346.567545,123.953406 347.132771,123.668068 347.305401,123.143457 C347.728983,121.856219 348.107386,120.553149 348.439732,119.236205 C348.574871,118.700709 348.250317,118.157053 347.714821,118.021914 C347.179325,117.886775 346.635668,118.211329 346.50053,118.746825 Z M341.513498,131.559631 C340.891224,132.712541 340.228609,133.843161 339.527024,134.949467 C339.231245,135.415871 339.369564,136.033743 339.835968,136.329522 C340.302373,136.625301 340.920245,136.486982 341.216024,136.020578 C341.942666,134.874761 342.628964,133.703729 343.273498,132.509577 C343.535819,132.023566 343.354482,131.416924 342.868471,131.154603 C342.38246,130.892283 341.775818,131.07362 341.513498,131.559631 Z M333.572877,142.740253 C332.689338,143.708277 331.772215,144.645262 330.823331,145.549354 C330.423483,145.930326 330.408182,146.563307 330.789155,146.963154 C331.170128,147.363002 331.803108,147.378303 332.202956,146.99733 C333.185514,146.061153 334.135184,145.090916 335.050082,144.088535 C335.4224,143.680616 335.393539,143.048109 334.98562,142.675791 C334.577701,142.303474 333.945194,142.332334 333.572877,142.740253 Z M323.091324,151.716421 C321.999182,152.44008 320.881991,153.125274 319.741775,153.770589 C319.261129,154.042614 319.092009,154.652775 319.364034,155.133421 C319.63606,155.614067 320.246221,155.783187 320.726867,155.511162 C321.907833,154.842784 323.064919,154.133121 324.196032,153.38364 C324.656422,153.078583 324.782344,152.458066 324.477287,151.997676 C324.172231,151.537286 323.551713,151.411364 323.091324,151.716421 Z M310.877865,157.809823 C309.643689,158.246336 308.393422,158.639469 307.128971,158.98833 C306.596578,159.135217 306.284063,159.685883 306.43095,160.218276 C306.577837,160.750669 307.128502,161.063184 307.660896,160.916297 C308.970868,160.554877 310.266151,160.147589 311.544758,159.695361 C312.065435,159.511204 312.338238,158.939823 312.154081,158.419146 C311.969923,157.898469 311.398542,157.625666 310.877865,157.809823 Z M297.432597,160.758826 C296.131785,160.879337 294.82322,160.954885 293.508448,160.98502 C292.956308,160.997675 292.51897,161.455531 292.531625,162.007671 C292.54428,162.559811 293.002136,162.99715 293.554276,162.984495 C294.915364,162.953299 296.270179,162.87508 297.617093,162.750298 C298.167023,162.699351 298.571528,162.212244 298.520581,161.662314 C298.469634,161.112384 297.982527,160.707879 297.432597,160.758826 Z M283.507865,161 L279.507865,161 C278.95558,161 278.507865,161.447715 278.507865,162 C278.507865,162.552285 278.95558,163 279.507865,163 L283.507865,163 C284.06015,163 284.507865,162.552285 284.507865,162 C284.507865,161.447715 284.06015,161 283.507865,161 Z M269.507865,161 L265.507865,161 C264.95558,161 264.507865,161.447715 264.507865,162 C264.507865,162.552285 264.95558,163 265.507865,163 L269.507865,163 C270.06015,163 270.507865,162.552285 270.507865,162 C270.507865,161.447715 270.06015,161 269.507865,161 Z M255.507865,161 L251.507865,161 C250.95558,161 250.507865,161.447715 250.507865,162 C250.507865,162.552285 250.95558,163 251.507865,163 L255.507865,163 C256.06015,163 256.507865,162.552285 256.507865,162 C256.507865,161.447715 256.06015,161 255.507865,161 Z M241.507865,161 L237.507865,161 C236.95558,161 236.507865,161.447715 236.507865,162 C236.507865,162.552285 236.95558,163 237.507865,163 L241.507865,163 C242.06015,163 242.507865,162.552285 242.507865,162 C242.507865,161.447715 242.06015,161 241.507865,161 Z M227.507865,161 L223.507865,161 C222.95558,161 222.507865,161.447715 222.507865,162 C222.507865,162.552285 222.95558,163 223.507865,163 L227.507865,163 C228.06015,163 228.507865,162.552285 228.507865,162 C228.507865,161.447715 228.06015,161 227.507865,161 Z M213.507865,161 L209.507865,161 C208.95558,161 208.507865,161.447715 208.507865,162 C208.507865,162.552285 208.95558,163 209.507865,163 L213.507865,163 C214.06015,163 214.507865,162.552285 214.507865,162 C214.507865,161.447715 214.06015,161 213.507865,161 Z M199.507865,161 L195.507865,161 C194.95558,161 194.507865,161.447715 194.507865,162 C194.507865,162.552285 194.95558,163 195.507865,163 L199.507865,163 C200.06015,163 200.507865,162.552285 200.507865,162 C200.507865,161.447715 200.06015,161 199.507865,161 Z M185.507865,161 L181.507865,161 C180.95558,161 180.507865,161.447715 180.507865,162 C180.507865,162.552285 180.95558,163 181.507865,163 L185.507865,163 C186.06015,163 186.507865,162.552285 186.507865,162 C186.507865,161.447715 186.06015,161 185.507865,161 Z M171.507865,161 L167.507865,161 C166.95558,161 166.507865,161.447715 166.507865,162 C166.507865,162.552285 166.95558,163 167.507865,163 L171.507865,163 C172.06015,163 172.507865,162.552285 172.507865,162 C172.507865,161.447715 172.06015,161 171.507865,161 Z M157.507865,161 L153.507865,161 C152.95558,161 152.507865,161.447715 152.507865,162 C152.507865,162.552285 152.95558,163 153.507865,163 L157.507865,163 C158.06015,163 158.507865,162.552285 158.507865,162 C158.507865,161.447715 158.06015,161 157.507865,161 Z M143.507865,161 L139.507865,161 C138.95558,161 138.507865,161.447715 138.507865,162 C138.507865,162.552285 138.95558,163 139.507865,163 L143.507865,163 C144.06015,163 144.507865,162.552285 144.507865,162 C144.507865,161.447715 144.06015,161 143.507865,161 Z M129.507865,161 L125.507865,161 C124.95558,161 124.507865,161.447715 124.507865,162 C124.507865,162.552285 124.95558,163 125.507865,163 L129.507865,163 C130.06015,163 130.507865,162.552285 130.507865,162 C130.507865,161.447715 130.06015,161 129.507865,161 Z M115.507865,161 L111.507865,161 C110.95558,161 110.507865,161.447715 110.507865,162 C110.507865,162.552285 110.95558,163 111.507865,163 L115.507865,163 C116.06015,163 116.507865,162.552285 116.507865,162 C116.507865,161.447715 116.06015,161 115.507865,161 Z M101.507865,161 L97.5078651,161 C96.9555804,161 96.5078651,161.447715 96.5078651,162 C96.5078651,162.552285 96.9555804,163 97.5078651,163 L101.507865,163 C102.06015,163 102.507865,162.552285 102.507865,162 C102.507865,161.447715 102.06015,161 101.507865,161 Z M87.5078651,161 L83.5078651,161 C82.9555804,161 82.5078651,161.447715 82.5078651,162 C82.5078651,162.552285 82.9555804,163 83.5078651,163 L87.5078651,163 C88.0601499,163 88.5078651,162.552285 88.5078651,162 C88.5078651,161.447715 88.0601499,161 87.5078651,161 Z M73.5078651,161 L69.5078651,161 C68.9555804,161 68.5078651,161.447715 68.5078651,162 C68.5078651,162.552285 68.9555804,163 69.5078651,163 L73.5078651,163 C74.0601499,163 74.5078651,162.552285 74.5078651,162 C74.5078651,161.447715 74.0601499,161 73.5078651,161 Z M59.5078651,161 L55.5078651,161 C54.9555804,161 54.5078651,161.447715 54.5078651,162 C54.5078651,162.552285 54.9555804,163 55.5078651,163 L59.5078651,163 C60.0601499,163 60.5078651,162.552285 60.5078651,162 C60.5078651,161.447715 60.0601499,161 59.5078651,161 Z M45.5078651,161 L41.5078651,161 C40.9555804,161 40.5078651,161.447715 40.5078651,162 C40.5078651,162.552285 40.9555804,163 41.5078651,163 L45.5078651,163 C46.0601499,163 46.5078651,162.552285 46.5078651,162 C46.5078651,161.447715 46.0601499,161 45.5078651,161 Z M31.5078651,161 L30,161 L30,163 L32.4921349,163 C33.0444196,163 33.4921349,162.552285 33.4921349,162 C33.4921349,161.447715 33.0444196,161 32.4921349,161 L30,161 C28.6666667,161 28.6666667,163 30,163 L31.5078651,163 C32.0601499,163 32.5078651,162.552285 32.5078651,162 C32.5078651,161.447715 32.0601499,161 31.5078651,161 Z M42.4921349,163 L46.4921349,163 C47.0444196,163 47.4921349,162.552285 47.4921349,162 C47.4921349,161.447715 47.0444196,161 46.4921349,161 L42.4921349,161 C41.9398501,161 41.4921349,161.447715 41.4921349,162 C41.4921349,162.552285 41.9398501,163 42.4921349,163 Z M56.4921349,163 L60.4921349,163 C61.0444196,163 61.4921349,162.552285 61.4921349,162 C61.4921349,161.447715 61.0444196,161 60.4921349,161 L56.4921349,161 C55.9398501,161 55.4921349,161.447715 55.4921349,162 C55.4921349,162.552285 55.9398501,163 56.4921349,163 Z M70.4921349,163 L74.4921349,163 C75.0444196,163 75.4921349,162.552285 75.4921349,162 C75.4921349,161.447715 75.0444196,161 74.4921349,161 L70.4921349,161 C69.9398501,161 69.4921349,161.447715 69.4921349,162 C69.4921349,162.552285 69.9398501,163 70.4921349,163 Z M84.4921349,163 L88.4921349,163 C89.0444196,163 89.4921349,162.552285 89.4921349,162 C89.4921349,161.447715 89.0444196,161 88.4921349,161 L84.4921349,161 C83.9398501,161 83.4921349,161.447715 83.4921349,162 C83.4921349,162.552285 83.9398501,163 84.4921349,163 Z M98.4921349,163 L102.492135,163 C103.04442,163 103.492135,162.552285 103.492135,162 C103.492135,161.447715 103.04442,161 102.492135,161 L98.4921349,161 C97.9398501,161 97.4921349,161.447715 97.4921349,162 C97.4921349,162.552285 97.9398501,163 98.4921349,163 Z M112.492135,163 L116.492135,163 C117.04442,163 117.492135,162.552285 117.492135,162 C117.492135,161.447715 117.04442,161 116.492135,161 L112.492135,161 C111.93985,161 111.492135,161.447715 111.492135,162 C111.492135,162.552285 111.93985,163 112.492135,163 Z M126.492135,163 L130.492135,163 C131.04442,163 131.492135,162.552285 131.492135,162 C131.492135,161.447715 131.04442,161 130.492135,161 L126.492135,161 C125.93985,161 125.492135,161.447715 125.492135,162 C125.492135,162.552285 125.93985,163 126.492135,163 Z M140.492135,163 L144.492135,163 C145.04442,163 145.492135,162.552285 145.492135,162 C145.492135,161.447715 145.04442,161 144.492135,161 L140.492135,161 C139.93985,161 139.492135,161.447715 139.492135,162 C139.492135,162.552285 139.93985,163 140.492135,163 Z M154.492135,163 L158.492135,163 C159.04442,163 159.492135,162.552285 159.492135,162 C159.492135,161.447715 159.04442,161 158.492135,161 L154.492135,161 C153.93985,161 153.492135,161.447715 153.492135,162 C153.492135,162.552285 153.93985,163 154.492135,163 Z M168.492135,163 L172.492135,163 C173.04442,163 173.492135,162.552285 173.492135,162 C173.492135,161.447715 173.04442,161 172.492135,161 L168.492135,161 C167.93985,161 167.492135,161.447715 167.492135,162 C167.492135,162.552285 167.93985,163 168.492135,163 Z M182.492135,163 L186.492135,163 C187.04442,163 187.492135,162.552285 187.492135,162 C187.492135,161.447715 187.04442,161 186.492135,161 L182.492135,161 C181.93985,161 181.492135,161.447715 181.492135,162 C181.492135,162.552285 181.93985,163 182.492135,163 Z M196.492135,163 L200.492135,163 C201.04442,163 201.492135,162.552285 201.492135,162 C201.492135,161.447715 201.04442,161 200.492135,161 L196.492135,161 C195.93985,161 195.492135,161.447715 195.492135,162 C195.492135,162.552285 195.93985,163 196.492135,163 Z M210.492135,163 L214.492135,163 C215.04442,163 215.492135,162.552285 215.492135,162 C215.492135,161.447715 215.04442,161 214.492135,161 L210.492135,161 C209.93985,161 209.492135,161.447715 209.492135,162 C209.492135,162.552285 209.93985,163 210.492135,163 Z" id="Rectangle" fill="#4C433F" fill-rule="nonzero" transform="translate(189.599961, 105.000000) scale(-1, 1) translate(-189.599961, -105.000000) "></path>
        <path d="M115.7,264 L119.7,264 C120.252285,264 120.7,263.552285 120.7,263 C120.7,262.447715 120.252285,262 119.7,262 L115.7,262 C115.147715,262 114.7,262.447715 114.7,263 C114.7,263.552285 115.147715,264 115.7,264 Z M129.7,264 L133.7,264 C134.252285,264 134.7,263.552285 134.7,263 C134.7,262.447715 134.252285,262 133.7,262 L129.7,262 C129.147715,262 128.7,262.447715 128.7,263 C128.7,263.552285 129.147715,264 129.7,264 Z M143.7,264 L147.7,264 C148.252285,264 148.7,263.552285 148.7,263 C148.7,262.447715 148.252285,262 147.7,262 L143.7,262 C143.147715,262 142.7,262.447715 142.7,263 C142.7,263.552285 143.147715,264 143.7,264 Z M157.7,264 L161.7,264 C162.252285,264 162.7,263.552285 162.7,263 C162.7,262.447715 162.252285,262 161.7,262 L157.7,262 C157.147715,262 156.7,262.447715 156.7,263 C156.7,263.552285 157.147715,264 157.7,264 Z M171.7,264 L175.7,264 C176.252285,264 176.7,263.552285 176.7,263 C176.7,262.447715 176.252285,262 175.7,262 L171.7,262 C171.147715,262 170.7,262.447715 170.7,263 C170.7,263.552285 171.147715,264 171.7,264 Z M185.7,264 L189.7,264 C190.252285,264 190.7,263.552285 190.7,263 C190.7,262.447715 190.252285,262 189.7,262 L185.7,262 C185.147715,262 184.7,262.447715 184.7,263 C184.7,263.552285 185.147715,264 185.7,264 Z M199.7,264 L203.7,264 C204.252285,264 204.7,263.552285 204.7,263 C204.7,262.447715 204.252285,262 203.7,262 L199.7,262 C199.147715,262 198.7,262.447715 198.7,263 C198.7,263.552285 199.147715,264 199.7,264 Z M213.7,264 L217.7,264 C218.252285,264 218.7,263.552285 218.7,263 C218.7,262.447715 218.252285,262 217.7,262 L213.7,262 C213.147715,262 212.7,262.447715 212.7,263 C212.7,263.552285 213.147715,264 213.7,264 Z M227.7,264 L231.7,264 C232.252285,264 232.7,263.552285 232.7,263 C232.7,262.447715 232.252285,262 231.7,262 L227.7,262 C227.147715,262 226.7,262.447715 226.7,263 C226.7,263.552285 227.147715,264 227.7,264 Z M241.7,264 L245.7,264 C246.252285,264 246.7,263.552285 246.7,263 C246.7,262.447715 246.252285,262 245.7,262 L241.7,262 C241.147715,262 240.7,262.447715 240.7,263 C240.7,263.552285 241.147715,264 241.7,264 Z M255.7,264 L259.7,264 C260.252285,264 260.7,263.552285 260.7,263 C260.7,262.447715 260.252285,262 259.7,262 L255.7,262 C255.147715,262 254.7,262.447715 254.7,263 C254.7,263.552285 255.147715,264 255.7,264 Z M269.7,264 L273.7,264 C274.252285,264 274.7,263.552285 274.7,263 C274.7,262.447715 274.252285,262 273.7,262 L269.7,262 C269.147715,262 268.7,262.447715 268.7,263 C268.7,263.552285 269.147715,264 269.7,264 Z M283.7,264 L287.7,264 C288.252285,264 288.7,263.552285 288.7,263 C288.7,262.447715 288.252285,262 287.7,262 L283.7,262 C283.147715,262 282.7,262.447715 282.7,263 C282.7,263.552285 283.147715,264 283.7,264 Z M297.59842,264.256784 C298.906496,264.381874 300.206157,264.55241 301.495734,264.767825 C302.040471,264.85882 302.555834,264.49099 302.646829,263.946253 C302.737823,263.401516 302.369993,262.886153 301.825256,262.795158 C300.489557,262.572038 299.143491,262.395413 297.78881,262.265867 C297.239033,262.213292 296.750731,262.616354 296.698157,263.16613 C296.645582,263.715907 297.048644,264.204209 297.59842,264.256784 Z M311.009103,267.236779 C312.243351,267.676801 313.460849,268.160059 314.659629,268.685508 C315.165456,268.907223 315.755245,268.676904 315.97696,268.171077 C316.198674,267.665249 315.968355,267.07546 315.462528,266.853746 C314.220659,266.309409 312.959374,265.808772 311.680719,265.352918 C311.160505,265.167457 310.588442,265.438827 310.40298,265.959041 C310.217519,266.479255 310.488889,267.051318 311.009103,267.236779 Z M323.271151,273.403233 C324.360241,274.130919 325.423624,274.8966 326.459307,275.698711 C326.895952,276.036882 327.524064,275.957053 327.862235,275.520408 C328.200406,275.083763 328.120577,274.45565 327.683932,274.117479 C326.6114,273.286829 325.51016,272.49389 324.382271,271.74028 C323.923059,271.433452 323.302062,271.556985 322.995235,272.016196 C322.688407,272.475408 322.81194,273.096406 323.271151,273.403233 Z M333.703582,282.403447 C334.583647,283.374366 335.429588,284.375714 336.2397,285.405554 C336.581162,285.839631 337.209859,285.91471 337.643936,285.573249 C338.078013,285.231788 338.153092,284.60309 337.811631,284.169013 C336.972731,283.102577 336.096742,282.065662 335.185428,281.060267 C334.814519,280.651066 334.182115,280.620025 333.772915,280.990934 C333.363715,281.361843 333.332673,281.994247 333.703582,282.403447 Z M341.591208,293.584853 C342.209946,294.739311 342.788006,295.915398 343.324172,297.1111 C343.550144,297.61504 344.141854,297.840377 344.645794,297.614405 C345.149733,297.388433 345.37507,296.796722 345.149098,296.292783 C344.59369,295.05417 343.994901,293.835907 343.353991,292.640079 C343.093099,292.1533 342.486992,291.970183 342.000213,292.231074 C341.513433,292.491966 341.330316,293.098073 341.591208,293.584853 Z M346.54137,306.416044 C346.857578,307.685185 347.129385,308.967043 347.356089,310.259833 C347.451481,310.803817 347.969799,311.167472 348.513783,311.072079 C349.057767,310.976687 349.421422,310.458369 349.326029,309.914385 C349.09119,308.575201 348.809618,307.247291 348.482042,305.932523 C348.348521,305.396621 347.805847,305.070427 347.269946,305.203948 C346.734044,305.337468 346.407849,305.880142 346.54137,306.416044 Z M348.199924,320.093458 C348.197775,321.409154 348.150264,322.719264 348.05781,324.022278 C348.018721,324.573178 348.433626,325.051458 348.984526,325.090547 C349.535425,325.129635 350.013705,324.71473 350.052794,324.163831 C350.148513,322.814802 350.197697,321.45857 350.199922,320.096724 C350.200823,319.54444 349.753839,319.095994 349.201555,319.095091 C348.649271,319.094191 348.200825,319.541174 348.199924,320.093458 Z M346.50053,333.746825 C346.179729,335.018017 345.814476,336.275804 345.405614,337.518308 C345.232984,338.042919 345.518321,338.608146 346.042933,338.780776 C346.567545,338.953406 347.132771,338.668068 347.305401,338.143457 C347.728983,336.856219 348.107386,335.553149 348.439732,334.236205 C348.574871,333.700709 348.250317,333.157053 347.714821,333.021914 C347.179325,332.886775 346.635668,333.211329 346.50053,333.746825 Z M341.513498,346.559631 C340.891224,347.712541 340.228609,348.843161 339.527024,349.949467 C339.231245,350.415871 339.369564,351.033743 339.835968,351.329522 C340.302373,351.625301 340.920245,351.486982 341.216024,351.020578 C341.942666,349.874761 342.628964,348.703729 343.273498,347.509577 C343.535819,347.023566 343.354482,346.416924 342.868471,346.154603 C342.38246,345.892283 341.775818,346.07362 341.513498,346.559631 Z M333.572877,357.740253 C332.689338,358.708277 331.772215,359.645262 330.823331,360.549354 C330.423483,360.930326 330.408182,361.563307 330.789155,361.963154 C331.170128,362.363002 331.803108,362.378303 332.202956,361.99733 C333.185514,361.061153 334.135184,360.090916 335.050082,359.088535 C335.4224,358.680616 335.393539,358.048109 334.98562,357.675791 C334.577701,357.303474 333.945194,357.332334 333.572877,357.740253 Z M323.091324,366.716421 C321.999182,367.44008 320.881991,368.125274 319.741775,368.770589 C319.261129,369.042614 319.092009,369.652775 319.364034,370.133421 C319.63606,370.614067 320.246221,370.783187 320.726867,370.511162 C321.907833,369.842784 323.064919,369.133121 324.196032,368.38364 C324.656422,368.078583 324.782344,367.458066 324.477287,366.997676 C324.172231,366.537286 323.551713,366.411364 323.091324,366.716421 Z M310.877865,372.809823 C309.643689,373.246336 308.393422,373.639469 307.128971,373.98833 C306.596578,374.135217 306.284063,374.685883 306.43095,375.218276 C306.577837,375.750669 307.128502,376.063184 307.660896,375.916297 C308.970868,375.554877 310.266151,375.147589 311.544758,374.695361 C312.065435,374.511204 312.338238,373.939823 312.154081,373.419146 C311.969923,372.898469 311.398542,372.625666 310.877865,372.809823 Z M297.432597,375.758826 C296.131785,375.879337 294.82322,375.954885 293.508448,375.98502 C292.956308,375.997675 292.51897,376.455531 292.531625,377.007671 C292.54428,377.559811 293.002136,377.99715 293.554276,377.984495 C294.915364,377.953299 296.270179,377.87508 297.617093,377.750298 C298.167023,377.699351 298.571528,377.212244 298.520581,376.662314 C298.469634,376.112384 297.982527,375.707879 297.432597,375.758826 Z M283.507865,376 L279.507865,376 C278.95558,376 278.507865,376.447715 278.507865,377 C278.507865,377.552285 278.95558,378 279.507865,378 L283.507865,378 C284.06015,378 284.507865,377.552285 284.507865,377 C284.507865,376.447715 284.06015,376 283.507865,376 Z M269.507865,376 L265.507865,376 C264.95558,376 264.507865,376.447715 264.507865,377 C264.507865,377.552285 264.95558,378 265.507865,378 L269.507865,378 C270.06015,378 270.507865,377.552285 270.507865,377 C270.507865,376.447715 270.06015,376 269.507865,376 Z M255.507865,376 L251.507865,376 C250.95558,376 250.507865,376.447715 250.507865,377 C250.507865,377.552285 250.95558,378 251.507865,378 L255.507865,378 C256.06015,378 256.507865,377.552285 256.507865,377 C256.507865,376.447715 256.06015,376 255.507865,376 Z M241.507865,376 L237.507865,376 C236.95558,376 236.507865,376.447715 236.507865,377 C236.507865,377.552285 236.95558,378 237.507865,378 L241.507865,378 C242.06015,378 242.507865,377.552285 242.507865,377 C242.507865,376.447715 242.06015,376 241.507865,376 Z M227.507865,376 L223.507865,376 C222.95558,376 222.507865,376.447715 222.507865,377 C222.507865,377.552285 222.95558,378 223.507865,378 L227.507865,378 C228.06015,378 228.507865,377.552285 228.507865,377 C228.507865,376.447715 228.06015,376 227.507865,376 Z M213.507865,376 L209.507865,376 C208.95558,376 208.507865,376.447715 208.507865,377 C208.507865,377.552285 208.95558,378 209.507865,378 L213.507865,378 C214.06015,378 214.507865,377.552285 214.507865,377 C214.507865,376.447715 214.06015,376 213.507865,376 Z M199.507865,376 L195.507865,376 C194.95558,376 194.507865,376.447715 194.507865,377 C194.507865,377.552285 194.95558,378 195.507865,378 L199.507865,378 C200.06015,378 200.507865,377.552285 200.507865,377 C200.507865,376.447715 200.06015,376 199.507865,376 Z M185.507865,376 L181.507865,376 C180.95558,376 180.507865,376.447715 180.507865,377 C180.507865,377.552285 180.95558,378 181.507865,378 L185.507865,378 C186.06015,378 186.507865,377.552285 186.507865,377 C186.507865,376.447715 186.06015,376 185.507865,376 Z M171.507865,376 L167.507865,376 C166.95558,376 166.507865,376.447715 166.507865,377 C166.507865,377.552285 166.95558,378 167.507865,378 L171.507865,378 C172.06015,378 172.507865,377.552285 172.507865,377 C172.507865,376.447715 172.06015,376 171.507865,376 Z M157.507865,376 L153.507865,376 C152.95558,376 152.507865,376.447715 152.507865,377 C152.507865,377.552285 152.95558,378 153.507865,378 L157.507865,378 C158.06015,378 158.507865,377.552285 158.507865,377 C158.507865,376.447715 158.06015,376 157.507865,376 Z M143.507865,376 L139.507865,376 C138.95558,376 138.507865,376.447715 138.507865,377 C138.507865,377.552285 138.95558,378 139.507865,378 L143.507865,378 C144.06015,378 144.507865,377.552285 144.507865,377 C144.507865,376.447715 144.06015,376 143.507865,376 Z M129.507865,376 L125.507865,376 C124.95558,376 124.507865,376.447715 124.507865,377 C124.507865,377.552285 124.95558,378 125.507865,378 L129.507865,378 C130.06015,378 130.507865,377.552285 130.507865,377 C130.507865,376.447715 130.06015,376 129.507865,376 Z M115.507865,376 L111.507865,376 C110.95558,376 110.507865,376.447715 110.507865,377 C110.507865,377.552285 110.95558,378 111.507865,378 L115.507865,378 C116.06015,378 116.507865,377.552285 116.507865,377 C116.507865,376.447715 116.06015,376 115.507865,376 Z M101.507865,376 L97.5078651,376 C96.9555804,376 96.5078651,376.447715 96.5078651,377 C96.5078651,377.552285 96.9555804,378 97.5078651,378 L101.507865,378 C102.06015,378 102.507865,377.552285 102.507865,377 C102.507865,376.447715 102.06015,376 101.507865,376 Z M87.5078651,376 L83.5078651,376 C82.9555804,376 82.5078651,376.447715 82.5078651,377 C82.5078651,377.552285 82.9555804,378 83.5078651,378 L87.5078651,378 C88.0601499,378 88.5078651,377.552285 88.5078651,377 C88.5078651,376.447715 88.0601499,376 87.5078651,376 Z M73.5078651,376 L69.5078651,376 C68.9555804,376 68.5078651,376.447715 68.5078651,377 C68.5078651,377.552285 68.9555804,378 69.5078651,378 L73.5078651,378 C74.0601499,378 74.5078651,377.552285 74.5078651,377 C74.5078651,376.447715 74.0601499,376 73.5078651,376 Z M59.5078651,376 L55.5078651,376 C54.9555804,376 54.5078651,376.447715 54.5078651,377 C54.5078651,377.552285 54.9555804,378 55.5078651,378 L59.5078651,378 C60.0601499,378 60.5078651,377.552285 60.5078651,377 C60.5078651,376.447715 60.0601499,376 59.5078651,376 Z M45.5078651,376 L41.5078651,376 C40.9555804,376 40.5078651,376.447715 40.5078651,377 C40.5078651,377.552285 40.9555804,378 41.5078651,378 L45.5078651,378 C46.0601499,378 46.5078651,377.552285 46.5078651,377 C46.5078651,376.447715 46.0601499,376 45.5078651,376 Z M31.5078651,376 L30,376 L30,378 L32.4921349,378 C33.0444196,378 33.4921349,377.552285 33.4921349,377 C33.4921349,376.447715 33.0444196,376 32.4921349,376 L30,376 C28.6666667,376 28.6666667,378 30,378 L31.5078651,378 C32.0601499,378 32.5078651,377.552285 32.5078651,377 C32.5078651,376.447715 32.0601499,376 31.5078651,376 Z M42.4921349,378 L46.4921349,378 C47.0444196,378 47.4921349,377.552285 47.4921349,377 C47.4921349,376.447715 47.0444196,376 46.4921349,376 L42.4921349,376 C41.9398501,376 41.4921349,376.447715 41.4921349,377 C41.4921349,377.552285 41.9398501,378 42.4921349,378 Z M56.4921349,378 L60.4921349,378 C61.0444196,378 61.4921349,377.552285 61.4921349,377 C61.4921349,376.447715 61.0444196,376 60.4921349,376 L56.4921349,376 C55.9398501,376 55.4921349,376.447715 55.4921349,377 C55.4921349,377.552285 55.9398501,378 56.4921349,378 Z M70.4921349,378 L74.4921349,378 C75.0444196,378 75.4921349,377.552285 75.4921349,377 C75.4921349,376.447715 75.0444196,376 74.4921349,376 L70.4921349,376 C69.9398501,376 69.4921349,376.447715 69.4921349,377 C69.4921349,377.552285 69.9398501,378 70.4921349,378 Z M84.4921349,378 L88.4921349,378 C89.0444196,378 89.4921349,377.552285 89.4921349,377 C89.4921349,376.447715 89.0444196,376 88.4921349,376 L84.4921349,376 C83.9398501,376 83.4921349,376.447715 83.4921349,377 C83.4921349,377.552285 83.9398501,378 84.4921349,378 Z M98.4921349,378 L102.492135,378 C103.04442,378 103.492135,377.552285 103.492135,377 C103.492135,376.447715 103.04442,376 102.492135,376 L98.4921349,376 C97.9398501,376 97.4921349,376.447715 97.4921349,377 C97.4921349,377.552285 97.9398501,378 98.4921349,378 Z M112.492135,378 L116.492135,378 C117.04442,378 117.492135,377.552285 117.492135,377 C117.492135,376.447715 117.04442,376 116.492135,376 L112.492135,376 C111.93985,376 111.492135,376.447715 111.492135,377 C111.492135,377.552285 111.93985,378 112.492135,378 Z M126.492135,378 L130.492135,378 C131.04442,378 131.492135,377.552285 131.492135,377 C131.492135,376.447715 131.04442,376 130.492135,376 L126.492135,376 C125.93985,376 125.492135,376.447715 125.492135,377 C125.492135,377.552285 125.93985,378 126.492135,378 Z M140.492135,378 L144.492135,378 C145.04442,378 145.492135,377.552285 145.492135,377 C145.492135,376.447715 145.04442,376 144.492135,376 L140.492135,376 C139.93985,376 139.492135,376.447715 139.492135,377 C139.492135,377.552285 139.93985,378 140.492135,378 Z M154.492135,378 L158.492135,378 C159.04442,378 159.492135,377.552285 159.492135,377 C159.492135,376.447715 159.04442,376 158.492135,376 L154.492135,376 C153.93985,376 153.492135,376.447715 153.492135,377 C153.492135,377.552285 153.93985,378 154.492135,378 Z M168.492135,378 L172.492135,378 C173.04442,378 173.492135,377.552285 173.492135,377 C173.492135,376.447715 173.04442,376 172.492135,376 L168.492135,376 C167.93985,376 167.492135,376.447715 167.492135,377 C167.492135,377.552285 167.93985,378 168.492135,378 Z M182.492135,378 L186.492135,378 C187.04442,378 187.492135,377.552285 187.492135,377 C187.492135,376.447715 187.04442,376 186.492135,376 L182.492135,376 C181.93985,376 181.492135,376.447715 181.492135,377 C181.492135,377.552285 181.93985,378 182.492135,378 Z M196.492135,378 L200.492135,378 C201.04442,378 201.492135,377.552285 201.492135,377 C201.492135,376.447715 201.04442,376 200.492135,376 L196.492135,376 C195.93985,376 195.492135,376.447715 195.492135,377 C195.492135,377.552285 195.93985,378 196.492135,378 Z M210.492135,378 L214.492135,378 C215.04442,378 215.492135,377.552285 215.492135,377 C215.492135,376.447715 215.04442,376 214.492135,376 L210.492135,376 C209.93985,376 209.492135,376.447715 209.492135,377 C209.492135,377.552285 209.93985,378 210.492135,378 Z" id="Rectangle-Copy-10" fill="#4C433F" fill-rule="nonzero" transform="translate(189.599961, 320.000000) scale(-1, 1) translate(-189.599961, -320.000000) "></path>
        <path d="M259.2,163 L263.2,163 C263.752285,163 264.2,162.552285 264.2,162 C264.2,161.447715 263.752285,161 263.2,161 L259.2,161 C258.647715,161 258.2,161.447715 258.2,162 C258.2,162.552285 258.647715,163 259.2,163 Z M273.2,163 L277.2,163 C277.752285,163 278.2,162.552285 278.2,162 C278.2,161.447715 277.752285,161 277.2,161 L273.2,161 C272.647715,161 272.2,161.447715 272.2,162 C272.2,162.552285 272.647715,163 273.2,163 Z M287.2,163 L291.2,163 C291.752285,163 292.2,162.552285 292.2,162 C292.2,161.447715 291.752285,161 291.2,161 L287.2,161 C286.647715,161 286.2,161.447715 286.2,162 C286.2,162.552285 286.647715,163 287.2,163 Z M301.2,163 L305.2,163 C305.752285,163 306.2,162.552285 306.2,162 C306.2,161.447715 305.752285,161 305.2,161 L301.2,161 C300.647715,161 300.2,161.447715 300.2,162 C300.2,162.552285 300.647715,163 301.2,163 Z M315.2,163 L319.2,163 C319.752285,163 320.2,162.552285 320.2,162 C320.2,161.447715 319.752285,161 319.2,161 L315.2,161 C314.647715,161 314.2,161.447715 314.2,162 C314.2,162.552285 314.647715,163 315.2,163 Z M329.2,163 L333.2,163 C333.752285,163 334.2,162.552285 334.2,162 C334.2,161.447715 333.752285,161 333.2,161 L329.2,161 C328.647715,161 328.2,161.447715 328.2,162 C328.2,162.552285 328.647715,163 329.2,163 Z M343.2,163 L347.2,163 C347.752285,163 348.2,162.552285 348.2,162 C348.2,161.447715 347.752285,161 347.2,161 L343.2,161 C342.647715,161 342.2,161.447715 342.2,162 C342.2,162.552285 342.647715,163 343.2,163 Z M357.2,163 L361.2,163 C361.752285,163 362.2,162.552285 362.2,162 C362.2,161.447715 361.752285,161 361.2,161 L357.2,161 C356.647715,161 356.2,161.447715 356.2,162 C356.2,162.552285 356.647715,163 357.2,163 Z M371.2,163 L375.2,163 C375.752285,163 376.2,162.552285 376.2,162 C376.2,161.447715 375.752285,161 375.2,161 L371.2,161 C370.647715,161 370.2,161.447715 370.2,162 C370.2,162.552285 370.647715,163 371.2,163 Z M385.2,163 L389.2,163 C389.752285,163 390.2,162.552285 390.2,162 C390.2,161.447715 389.752285,161 389.2,161 L385.2,161 C384.647715,161 384.2,161.447715 384.2,162 C384.2,162.552285 384.647715,163 385.2,163 Z M399.2,163 L402.7,163 C402.86428,163 403.028463,163.000816 403.192545,163.002448 C403.744803,163.007941 404.196948,162.5647 404.202441,162.012442 C404.207933,161.460185 403.764692,161.008039 403.212435,161.002547 L402.7,161 L399.2,161 C398.647715,161 398.2,161.447715 398.2,162 C398.2,162.552285 398.647715,163 399.2,163 Z M412.930217,164.080696 C414.210262,164.355507 415.476238,164.681846 416.725705,165.058672 C417.254466,165.218141 417.812386,164.91877 417.971855,164.390009 C418.131324,163.861248 417.831954,163.303328 417.303193,163.143859 C416.001796,162.751371 414.683219,162.411473 413.350028,162.125252 C412.810047,162.009325 412.278328,162.353087 412.1624,162.893068 C412.046473,163.433049 412.390236,163.964768 412.930217,164.080696 Z M425.791116,168.838888 C426.940162,169.462172 428.063454,170.13175 429.158314,170.845786 C429.620914,171.147481 430.240497,171.017042 430.542192,170.554442 C430.843886,170.091842 430.713447,169.472259 430.250847,169.170564 C429.110859,168.427095 427.941223,167.729893 426.744727,167.080871 C426.259264,166.817538 425.652245,166.997611 425.388913,167.483074 C425.12558,167.968537 425.305653,168.575556 425.791116,168.838888 Z M436.770545,176.982633 C437.70096,177.90108 438.594171,178.856609 439.44781,179.846727 C439.808441,180.265015 440.439878,180.311755 440.858165,179.951125 C441.276453,179.590495 441.323193,178.959057 440.962563,178.54077 C440.073931,177.510064 439.144116,176.515378 438.175575,175.559295 C437.782531,175.171307 437.149379,175.175405 436.761391,175.568449 C436.373402,175.961493 436.377501,176.594645 436.770545,176.982633 Z M445.102956,187.93919 C445.738602,189.080681 446.327894,190.247647 446.869197,191.43742 C447.097908,191.940122 447.690836,192.162236 448.193538,191.933525 C448.69624,191.704814 448.918354,191.111886 448.689643,190.609184 C448.125918,189.370127 447.512236,188.154862 446.850306,186.966169 C446.581614,186.483652 445.972638,186.310312 445.490121,186.579004 C445.007604,186.847697 444.834264,187.456672 445.102956,187.93919 Z M449.977575,200.630791 C450.268558,201.901801 450.5084,203.186614 450.696229,204.48292 C450.775426,205.029497 451.282716,205.408383 451.829293,205.329187 C452.37587,205.24999 452.754756,204.7427 452.675559,204.196123 C452.479962,202.846211 452.230185,201.508176 451.927136,200.184462 C451.803886,199.646105 451.267547,199.309595 450.729191,199.432846 C450.190834,199.556096 449.854324,200.092435 449.977575,200.630791 Z M451.192796,214.344683 C451.170406,215.656247 451.095878,216.960828 450.969805,218.256392 C450.916314,218.806081 451.318561,219.295054 451.86825,219.348545 C452.417938,219.402035 452.906911,218.999788 452.960402,218.4501 C453.091635,217.101507 453.169205,215.743693 453.192504,214.37882 C453.201931,213.826615 452.761922,213.371324 452.209718,213.361897 C451.657514,213.352471 451.202222,213.792479 451.192796,214.344683 Z M449.039719,227.858265 C448.653086,229.107513 448.216074,230.339188 447.72996,231.550726 C447.524301,232.063291 447.773096,232.645526 448.285661,232.851186 C448.798226,233.056846 449.380461,232.80805 449.586121,232.295486 C450.092428,231.033619 450.547603,229.750755 450.950307,228.449578 C451.113594,227.921984 450.818264,227.361914 450.29067,227.198628 C449.763075,227.035341 449.203006,227.330671 449.039719,227.858265 Z M443.182508,240.219753 C442.461598,241.309746 441.696904,242.370346 440.890498,243.398911 C440.549743,243.833542 440.625844,244.462117 441.060475,244.802873 C441.495106,245.143628 442.123681,245.067527 442.464436,244.632896 C443.303968,243.56208 444.100093,242.457885 444.85066,241.323052 C445.155327,240.862404 445.028881,240.241994 444.568233,239.937326 C444.107585,239.632659 443.487175,239.759106 443.182508,240.219753 Z M434.068142,250.491732 C433.071646,251.337594 432.041532,252.143063 430.98041,252.905972 C430.531992,253.228368 430.429831,253.853237 430.752227,254.301655 C431.074624,254.750073 431.699493,254.852234 432.147911,254.529838 C433.252623,253.73559 434.325024,252.897055 435.362408,252.016487 C435.783457,251.659086 435.835054,251.028027 435.477652,250.606977 C435.120251,250.185928 434.489192,250.134331 434.068142,250.491732 Z M422.53522,257.771929 C421.343759,258.306579 420.130472,258.79289 418.897966,259.229472 C418.377377,259.413877 418.104845,259.985388 418.28925,260.505977 C418.473655,261.026566 419.045166,261.299098 419.565755,261.114693 C420.849462,260.659974 422.113129,260.15347 423.354029,259.596634 C423.857908,259.370527 424.083085,258.778756 423.856977,258.274877 C423.63087,257.770998 423.039099,257.545821 422.53522,257.771929 Z M409.354128,261.547419 C408.063428,261.724479 406.762282,261.84997 405.452819,261.923216 C404.901396,261.95406 404.479384,262.42608 404.510228,262.977503 C404.541072,263.528926 405.013093,263.950938 405.564515,263.920094 C406.927568,263.843851 408.28213,263.713209 409.625946,263.528861 C410.173106,263.453801 410.555819,262.949391 410.480758,262.402231 C410.405698,261.855071 409.901288,261.472358 409.354128,261.547419 Z M395.480514,262 L391.480514,262 C390.92823,262 390.480514,262.447715 390.480514,263 C390.480514,263.552285 390.92823,264 391.480514,264 L395.480514,264 C396.032799,264 396.480514,263.552285 396.480514,263 C396.480514,262.447715 396.032799,262 395.480514,262 Z M381.480514,262 L377.480514,262 C376.92823,262 376.480514,262.447715 376.480514,263 C376.480514,263.552285 376.92823,264 377.480514,264 L381.480514,264 C382.032799,264 382.480514,263.552285 382.480514,263 C382.480514,262.447715 382.032799,262 381.480514,262 Z M367.480514,262 L363.480514,262 C362.92823,262 362.480514,262.447715 362.480514,263 C362.480514,263.552285 362.92823,264 363.480514,264 L367.480514,264 C368.032799,264 368.480514,263.552285 368.480514,263 C368.480514,262.447715 368.032799,262 367.480514,262 Z M353.480514,262 L349.480514,262 C348.92823,262 348.480514,262.447715 348.480514,263 C348.480514,263.552285 348.92823,264 349.480514,264 L353.480514,264 C354.032799,264 354.480514,263.552285 354.480514,263 C354.480514,262.447715 354.032799,262 353.480514,262 Z M339.480514,262 L335.480514,262 C334.92823,262 334.480514,262.447715 334.480514,263 C334.480514,263.552285 334.92823,264 335.480514,264 L339.480514,264 C340.032799,264 340.480514,263.552285 340.480514,263 C340.480514,262.447715 340.032799,262 339.480514,262 Z M325.480514,262 L321.480514,262 C320.92823,262 320.480514,262.447715 320.480514,263 C320.480514,263.552285 320.92823,264 321.480514,264 L325.480514,264 C326.032799,264 326.480514,263.552285 326.480514,263 C326.480514,262.447715 326.032799,262 325.480514,262 Z M311.480514,262 L307.480514,262 C306.92823,262 306.480514,262.447715 306.480514,263 C306.480514,263.552285 306.92823,264 307.480514,264 L311.480514,264 C312.032799,264 312.480514,263.552285 312.480514,263 C312.480514,262.447715 312.032799,262 311.480514,262 Z M297.480514,262 L293.480514,262 C292.92823,262 292.480514,262.447715 292.480514,263 C292.480514,263.552285 292.92823,264 293.480514,264 L297.480514,264 C298.032799,264 298.480514,263.552285 298.480514,263 C298.480514,262.447715 298.032799,262 297.480514,262 Z M283.480514,262 L279.480514,262 C278.92823,262 278.480514,262.447715 278.480514,263 C278.480514,263.552285 278.92823,264 279.480514,264 L283.480514,264 C284.032799,264 284.480514,263.552285 284.480514,263 C284.480514,262.447715 284.032799,262 283.480514,262 Z M269.480514,262 L265.480514,262 C264.92823,262 264.480514,262.447715 264.480514,263 C264.480514,263.552285 264.92823,264 265.480514,264 L269.480514,264 C270.032799,264 270.480514,263.552285 270.480514,263 C270.480514,262.447715 270.032799,262 269.480514,262 Z M255.480514,262 L251.480514,262 C250.92823,262 250.480514,262.447715 250.480514,263 C250.480514,263.552285 250.92823,264 251.480514,264 L255.480514,264 C256.032799,264 256.480514,263.552285 256.480514,263 C256.480514,262.447715 256.032799,262 255.480514,262 Z M241.480514,262 L237.480514,262 C236.92823,262 236.480514,262.447715 236.480514,263 C236.480514,263.552285 236.92823,264 237.480514,264 L241.480514,264 C242.032799,264 242.480514,263.552285 242.480514,263 C242.480514,262.447715 242.032799,262 241.480514,262 Z M227.480514,262 L223.480514,262 C222.92823,262 222.480514,262.447715 222.480514,263 C222.480514,263.552285 222.92823,264 223.480514,264 L227.480514,264 C228.032799,264 228.480514,263.552285 228.480514,263 C228.480514,262.447715 228.032799,262 227.480514,262 Z M213.480514,262 L209.480514,262 C208.92823,262 208.480514,262.447715 208.480514,263 C208.480514,263.552285 208.92823,264 209.480514,264 L213.480514,264 C214.032799,264 214.480514,263.552285 214.480514,263 C214.480514,262.447715 214.032799,262 213.480514,262 Z M199.480514,262 L195.480514,262 C194.92823,262 194.480514,262.447715 194.480514,263 C194.480514,263.552285 194.92823,264 195.480514,264 L199.480514,264 C200.032799,264 200.480514,263.552285 200.480514,263 C200.480514,262.447715 200.032799,262 199.480514,262 Z M185.480514,262 L181.480514,262 C180.92823,262 180.480514,262.447715 180.480514,263 C180.480514,263.552285 180.92823,264 181.480514,264 L185.480514,264 C186.032799,264 186.480514,263.552285 186.480514,263 C186.480514,262.447715 186.032799,262 185.480514,262 Z M171.480514,262 L167.480514,262 C166.92823,262 166.480514,262.447715 166.480514,263 C166.480514,263.552285 166.92823,264 167.480514,264 L171.480514,264 C172.032799,264 172.480514,263.552285 172.480514,263 C172.480514,262.447715 172.032799,262 171.480514,262 Z M157.480514,262 L153.480514,262 C152.92823,262 152.480514,262.447715 152.480514,263 C152.480514,263.552285 152.92823,264 153.480514,264 L157.480514,264 C158.032799,264 158.480514,263.552285 158.480514,263 C158.480514,262.447715 158.032799,262 157.480514,262 Z M143.480514,262 L139.480514,262 C138.92823,262 138.480514,262.447715 138.480514,263 C138.480514,263.552285 138.92823,264 139.480514,264 L143.480514,264 C144.032799,264 144.480514,263.552285 144.480514,263 C144.480514,262.447715 144.032799,262 143.480514,262 Z M136.519486,264 L140.519486,264 C141.07177,264 141.519486,263.552285 141.519486,263 C141.519486,262.447715 141.07177,262 140.519486,262 L136.519486,262 C135.967201,262 135.519486,262.447715 135.519486,263 C135.519486,263.552285 135.967201,264 136.519486,264 Z M150.519486,264 L154.519486,264 C155.07177,264 155.519486,263.552285 155.519486,263 C155.519486,262.447715 155.07177,262 154.519486,262 L150.519486,262 C149.967201,262 149.519486,262.447715 149.519486,263 C149.519486,263.552285 149.967201,264 150.519486,264 Z M164.519486,264 L168.519486,264 C169.07177,264 169.519486,263.552285 169.519486,263 C169.519486,262.447715 169.07177,262 168.519486,262 L164.519486,262 C163.967201,262 163.519486,262.447715 163.519486,263 C163.519486,263.552285 163.967201,264 164.519486,264 Z M178.519486,264 L182.519486,264 C183.07177,264 183.519486,263.552285 183.519486,263 C183.519486,262.447715 183.07177,262 182.519486,262 L178.519486,262 C177.967201,262 177.519486,262.447715 177.519486,263 C177.519486,263.552285 177.967201,264 178.519486,264 Z M192.519486,264 L196.519486,264 C197.07177,264 197.519486,263.552285 197.519486,263 C197.519486,262.447715 197.07177,262 196.519486,262 L192.519486,262 C191.967201,262 191.519486,262.447715 191.519486,263 C191.519486,263.552285 191.967201,264 192.519486,264 Z M206.519486,264 L210.519486,264 C211.07177,264 211.519486,263.552285 211.519486,263 C211.519486,262.447715 211.07177,262 210.519486,262 L206.519486,262 C205.967201,262 205.519486,262.447715 205.519486,263 C205.519486,263.552285 205.967201,264 206.519486,264 Z M220.519486,264 L224.519486,264 C225.07177,264 225.519486,263.552285 225.519486,263 C225.519486,262.447715 225.07177,262 224.519486,262 L220.519486,262 C219.967201,262 219.519486,262.447715 219.519486,263 C219.519486,263.552285 219.967201,264 220.519486,264 Z M234.519486,264 L238.519486,264 C239.07177,264 239.519486,263.552285 239.519486,263 C239.519486,262.447715 239.07177,262 238.519486,262 L234.519486,262 C233.967201,262 233.519486,262.447715 233.519486,263 C233.519486,263.552285 233.967201,264 234.519486,264 Z M248.519486,264 L252.519486,264 C253.07177,264 253.519486,263.552285 253.519486,263 C253.519486,262.447715 253.07177,262 252.519486,262 L248.519486,262 C247.967201,262 247.519486,262.447715 247.519486,263 C247.519486,263.552285 247.967201,264 248.519486,264 Z M262.519486,264 L266.519486,264 C267.07177,264 267.519486,263.552285 267.519486,263 C267.519486,262.447715 267.07177,262 266.519486,262 L262.519486,262 C261.967201,262 261.519486,262.447715 261.519486,263 C261.519486,263.552285 261.967201,264 262.519486,264 Z M276.519486,264 L280.519486,264 C281.07177,264 281.519486,263.552285 281.519486,263 C281.519486,262.447715 281.07177,262 280.519486,262 L276.519486,262 C275.967201,262 275.519486,262.447715 275.519486,263 C275.519486,263.552285 275.967201,264 276.519486,264 Z M290.519486,264 L294.519486,264 C295.07177,264 295.519486,263.552285 295.519486,263 C295.519486,262.447715 295.07177,262 294.519486,262 L290.519486,262 C289.967201,262 289.519486,262.447715 289.519486,263 C289.519486,263.552285 289.967201,264 290.519486,264 Z M304.519486,264 L308.519486,264 C309.07177,264 309.519486,263.552285 309.519486,263 C309.519486,262.447715 309.07177,262 308.519486,262 L304.519486,262 C303.967201,262 303.519486,262.447715 303.519486,263 C303.519486,263.552285 303.967201,264 304.519486,264 Z M318.519486,264 L320.905815,264 C321.458099,264 321.905815,263.552285 321.905815,263 C321.905815,262.447715 321.458099,262 320.905815,262 L318.519486,262 C317.967201,262 317.519486,262.447715 317.519486,263 C317.519486,263.552285 317.967201,264 318.519486,264 Z" id="Rectangle-Copy-9" fill="#4C433F" fill-rule="nonzero" transform="translate(294.356069, 212.500000) scale(1, -1) translate(-294.356069, -212.500000) "></path>
        <circle id="Oval-Copy-14" fill="#FFD36A" cx="249" cy="44" r="30"></circle>
        <circle id="Oval-Copy-13" fill="#FFD36A" cx="373.5" cy="68.5" r="51.5"></circle>
        <circle id="Oval-Copy-12" fill="#FFFFFF" cx="253" cy="212" r="100"></circle>
        <g id="Group" transform="translate(272.000000, 180.000000) rotate(45.000000) translate(-272.000000, -180.000000) translate(239.000000, 26.000000)" fill="#88B9D8">
            <path d="M35.372,287.867 L51.2321119,295.93393 L51.0601035,296.298031 C45.9315002,307.015613 38.3666604,310.604758 33.0226402,306.095319 C29.130004,303.252797 29.4648085,295.223594 35.1906354,288.090609 L35.372,287.867 Z M57.0271468,244.423833 C66.0242441,244.423833 68.6096379,262.623535 63.1640211,276.387991 C59.8364824,284.176773 57.2647433,284.522942 53.2736111,291.370508 L53.2879152,291.345984 L38.3606448,283.755353 L38.4314938,283.578471 C40.0007539,279.592634 40.1241265,274.641265 40.9603189,264.549069 C40.9603189,261.092027 47.8355819,243.388779 57.0271468,244.423833 Z M21.833,259.728 L21.9135114,259.971364 C24.7186784,268.695338 22.1532786,276.327657 17.4950534,277.587863 C10.8899424,279.882661 5.11379064,273.820909 4.16666485,261.977257 L4.16666485,261.977257 L4.13656341,261.575697 L4.13656341,261.575697 L21.833,259.728 Z M0.00180447094,239.051978 C-0.149376923,224.250216 8.78648604,208.185853 17.186,211.410124 C26.1379953,213.73778 26.2123294,232.729061 24.9734364,235.956487 C22.1373698,245.678028 20.4781361,250.344742 20.5147703,254.628214 L20.5147703,254.628214 L20.5175247,254.818738 L20.5175247,254.818738 L3.861,256.555 L3.76942697,256.012728 C2.51343798,248.872915 0.414710664,247.376931 0.0275893933,239.64384 Z" id="Combined-Shape"></path>
            <path d="M35.372,182.867 L51.2321119,190.93393 L51.0601035,191.298031 C45.9315002,202.015613 38.3666604,205.604758 33.0226402,201.095319 C29.130004,198.252797 29.4648085,190.223594 35.1906354,183.090609 L35.372,182.867 Z M57.0271468,139.423833 C66.0242441,139.423833 68.6096379,157.623535 63.1640211,171.387991 C59.8364824,179.176773 57.2647433,179.522942 53.2736111,186.370508 L53.2879152,186.345984 L38.3606448,178.755353 L38.4314938,178.578471 C40.0007539,174.592634 40.1241265,169.641265 40.9603189,159.549069 C40.9603189,156.092027 47.8355819,138.388779 57.0271468,139.423833 Z M21.833,154.728 L21.9135114,154.971364 C24.7186784,163.695338 22.1532786,171.327657 17.4950534,172.587863 C10.8899424,174.882661 5.11379064,168.820909 4.16666485,156.977257 L4.16666485,156.977257 L4.13656341,156.575697 L4.13656341,156.575697 L21.833,154.728 Z M0.00180447094,134.051978 C-0.149376923,119.250216 8.78648604,103.185853 17.186,106.410124 C26.1379953,108.73778 26.2123294,127.729061 24.9734364,130.956487 C22.1373698,140.678028 20.4781361,145.344742 20.5147703,149.628214 L20.5147703,149.628214 L20.5175247,149.818738 L20.5175247,149.818738 L3.861,151.555 L3.76942697,151.012728 C2.51343798,143.872915 0.414710664,142.376931 0.0275893933,134.64384 Z" id="Combined-Shape-Copy-2"></path>
            <path d="M35.372,76.867 L51.2321119,84.9339297 L51.0601035,85.2980308 C45.9315002,96.015613 38.3666604,99.6047581 33.0226402,95.0953193 C29.130004,92.2527971 29.4648085,84.2235936 35.1906354,77.0906093 L35.372,76.867 Z M57.0271468,33.4238328 C66.0242441,33.4238328 68.6096379,51.623535 63.1640211,65.3879909 C59.8364824,73.1767734 57.2647433,73.5229416 53.2736111,80.3705084 L53.2879152,80.3459844 L38.3606448,72.7553531 L38.4314938,72.5784708 C40.0007539,68.5926338 40.1241265,63.6412648 40.9603189,53.549069 C40.9603189,50.0920273 47.8355819,32.3887787 57.0271468,33.4238328 Z M21.833,48.728 L21.9135114,48.9713641 C24.7186784,57.6953377 22.1532786,65.3276565 17.4950534,66.5878627 C10.8899424,68.8826609 5.11379064,62.8209091 4.16666485,50.9772571 L4.16666485,50.9772571 L4.13656341,50.5756972 L4.13656341,50.5756972 L21.833,48.728 Z M0.00180447094,28.0519775 C-0.149376923,13.2502164 8.78648604,-2.8141471 17.186,0.410124224 C26.1379953,2.73778018 26.2123294,21.7290605 24.9734364,24.9564869 C22.1373698,34.6780279 20.4781361,39.344742 20.5147703,43.6282139 L20.5147703,43.6282139 L20.5175247,43.8187377 L20.5175247,43.8187377 L3.861,45.555 L3.76942697,45.0127279 C2.51343798,37.8729152 0.414710664,36.3769311 0.0275893933,28.6438396 Z" id="Combined-Shape-Copy-3"></path>
        </g>
        <path d="M253,160 C224.281193,160 201,183.281193 201,212 C201,240.718807 224.281193,264 253,264 C281.718807,264 305,240.718807 305,212 C305,183.281193 281.718807,160 253,160 Z M253,164 C279.509668,164 301,185.490332 301,212 C301,238.509668 279.509668,260 253,260 C226.490332,260 205,238.509668 205,212 C205,185.490332 226.490332,164 253,164 Z" id="Oval-Copy-12" fill="#4C433F" fill-rule="nonzero"></path>
        <path d="M253,110 C196.666956,110 151,155.666956 151,212 C151,268.333044 196.666956,314 253,314 C309.333044,314 355,268.333044 355,212 C355,155.666956 309.333044,110 253,110 Z M253,114 C307.123905,114 351,157.876095 351,212 C351,266.123905 307.123905,310 253,310 C198.876095,310 155,266.123905 155,212 C155,157.876095 198.876095,114 253,114 Z" id="Oval-Copy-12" fill="#4C433F" fill-rule="nonzero"></path>
        <path d="M253,145 C215.996922,145 186,174.996922 186,212 C186,249.003078 215.996922,279 253,279 C290.003078,279 320,249.003078 320,212 C320,174.996922 290.003078,145 253,145 Z M253,149 C287.793939,149 316,177.206061 316,212 C316,246.793939 287.793939,275 253,275 C218.206061,275 190,246.793939 190,212 C190,177.206061 218.206061,149 253,149 Z" id="Oval-Copy-12" fill="#4C433F" fill-rule="nonzero"></path>
        <rect id="Rectangle" fill="#4C433F" x="251" y="92" width="4" height="40" rx="2"></rect>
        <rect id="Rectangle-Copy-4" fill="#4C433F" x="251" y="192" width="4" height="40" rx="2"></rect>
        <rect id="Rectangle-Copy" fill="#4C433F" x="251" y="292" width="4" height="40" rx="2"></rect>
        <rect id="Rectangle-Copy-2" fill="#4C433F" transform="translate(153.000000, 212.000000) rotate(90.000000) translate(-153.000000, -212.000000) " x="151" y="192" width="4" height="40" rx="2"></rect>
        <rect id="Rectangle-Copy-3" fill="#4C433F" transform="translate(353.000000, 212.000000) rotate(90.000000) translate(-353.000000, -212.000000) " x="351" y="192" width="4" height="40" rx="2"></rect>
        <rect id="Rectangle-Copy-5" fill="#4C433F" transform="translate(253.000000, 212.000000) rotate(90.000000) translate(-253.000000, -212.000000) " x="251" y="192" width="4" height="40" rx="2"></rect>
        <circle id="Oval-Copy-12" fill="#FFD36A" cx="253" cy="212" r="8"></circle>
        <g id="$-copy" transform="translate(12.000000, 233.000000)">
            <rect id="Rectangle" fill="#88B9D8" x="0" y="0" width="70.4" height="38.4" rx="0.64"></rect>
            <path d="M69.76,-0.64 L0.64,-0.64 C-0.0669244798,-0.64 -0.64,-0.0669244798 -0.64,0.64 L-0.64,37.76 C-0.64,38.4669245 -0.0669244798,39.04 0.64,39.04 L69.76,39.04 C70.4669245,39.04 71.04,38.4669245 71.04,37.76 L71.04,0.64 C71.04,-0.0669244798 70.4669245,-0.64 69.76,-0.64 Z M0.64,0.64 L69.76,0.64 L69.76,37.76 L0.64,37.76 L0.64,0.64 Z" id="Rectangle" fill="#4C433F" fill-rule="nonzero"></path>
            <path d="M66.56,2.56 L3.84,2.56 C3.13307552,2.56 2.56,3.13307552 2.56,3.84 L2.56,34.56 C2.56,35.2669245 3.13307552,35.84 3.84,35.84 L66.56,35.84 C67.2669245,35.84 67.84,35.2669245 67.84,34.56 L67.84,3.84 C67.84,3.13307552 67.2669245,2.56 66.56,2.56 Z M3.84,3.84 L66.56,3.84 L66.56,34.56 L3.84,34.56 L3.84,3.84 Z" id="Rectangle" fill="#4C433F" fill-rule="nonzero"></path>
            <circle id="Oval" fill="#5AA2BF" cx="35.2" cy="19.2" r="12.16"></circle>
            <path d="M36.6336,28.96896 L36.6336,26.53184 C39.07072,25.99936 40.27904,24.23808 40.27904,21.98528 C40.27904,17.58208 34.13504,17.68448 34.13504,15.616 C34.13504,14.592 34.70848,14.20288 35.79392,14.20288 C36.736,14.20288 37.47328,14.592 38.31296,15.34976 L40.1152,13.2608 C39.21408,12.29824 38.12864,11.56096 36.6336,11.33568 L36.6336,8.96 L34.23744,8.96 L34.23744,11.37664 C32.00512,11.8272 30.67392,13.44512 30.67392,15.77984 C30.67392,19.95776 36.79744,20.0192 36.79744,22.25152 C36.79744,23.25504 36.24448,23.74656 34.97472,23.74656 C33.90976,23.74656 32.88576,23.31648 31.67744,22.39488 L30.08,24.85248 C31.2064,25.87648 32.86528,26.49088 34.23744,26.65472 L34.23744,28.96896 L36.6336,28.96896 Z" id="$" fill="#FFFFFF" fill-rule="nonzero"></path>
            <rect id="Rectangle" fill="#5AA2BF" x="51.2" y="12.16" width="10.88" height="3.84"></rect>
            <rect id="Rectangle-Copy-7" fill="#5AA2BF" x="8.32" y="12.16" width="10.88" height="3.84"></rect>
            <rect id="Rectangle-Copy-6" fill="#5AA2BF" x="51.2" y="22.4" width="10.88" height="3.84"></rect>
            <rect id="Rectangle-Copy-8" fill="#5AA2BF" x="8.32" y="22.4" width="10.88" height="3.84"></rect>
        </g>
        <g id="$-copy-2" transform="translate(282.000000, 312.000000)">
            <rect id="Rectangle" fill="#88B9D8" x="0" y="0" width="70.4" height="38.4" rx="0.64"></rect>
            <path d="M69.76,-0.64 L0.64,-0.64 C-0.0669244798,-0.64 -0.64,-0.0669244798 -0.64,0.64 L-0.64,37.76 C-0.64,38.4669245 -0.0669244798,39.04 0.64,39.04 L69.76,39.04 C70.4669245,39.04 71.04,38.4669245 71.04,37.76 L71.04,0.64 C71.04,-0.0669244798 70.4669245,-0.64 69.76,-0.64 Z M0.64,0.64 L69.76,0.64 L69.76,37.76 L0.64,37.76 L0.64,0.64 Z" id="Rectangle" fill="#4C433F" fill-rule="nonzero"></path>
            <path d="M66.56,2.56 L3.84,2.56 C3.13307552,2.56 2.56,3.13307552 2.56,3.84 L2.56,34.56 C2.56,35.2669245 3.13307552,35.84 3.84,35.84 L66.56,35.84 C67.2669245,35.84 67.84,35.2669245 67.84,34.56 L67.84,3.84 C67.84,3.13307552 67.2669245,2.56 66.56,2.56 Z M3.84,3.84 L66.56,3.84 L66.56,34.56 L3.84,34.56 L3.84,3.84 Z" id="Rectangle" fill="#4C433F" fill-rule="nonzero"></path>
            <circle id="Oval" fill="#5AA2BF" cx="35.2" cy="19.2" r="12.16"></circle>
            <path d="M36.6336,28.96896 L36.6336,26.53184 C39.07072,25.99936 40.27904,24.23808 40.27904,21.98528 C40.27904,17.58208 34.13504,17.68448 34.13504,15.616 C34.13504,14.592 34.70848,14.20288 35.79392,14.20288 C36.736,14.20288 37.47328,14.592 38.31296,15.34976 L40.1152,13.2608 C39.21408,12.29824 38.12864,11.56096 36.6336,11.33568 L36.6336,8.96 L34.23744,8.96 L34.23744,11.37664 C32.00512,11.8272 30.67392,13.44512 30.67392,15.77984 C30.67392,19.95776 36.79744,20.0192 36.79744,22.25152 C36.79744,23.25504 36.24448,23.74656 34.97472,23.74656 C33.90976,23.74656 32.88576,23.31648 31.67744,22.39488 L30.08,24.85248 C31.2064,25.87648 32.86528,26.49088 34.23744,26.65472 L34.23744,28.96896 L36.6336,28.96896 Z" id="$" fill="#FFFFFF" fill-rule="nonzero"></path>
            <rect id="Rectangle" fill="#5AA2BF" x="51.2" y="12.16" width="10.88" height="3.84"></rect>
            <rect id="Rectangle-Copy-7" fill="#5AA2BF" x="8.32" y="12.16" width="10.88" height="3.84"></rect>
            <rect id="Rectangle-Copy-6" fill="#5AA2BF" x="51.2" y="22.4" width="10.88" height="3.84"></rect>
            <rect id="Rectangle-Copy-8" fill="#5AA2BF" x="8.32" y="22.4" width="10.88" height="3.84"></rect>
        </g>
        <g id="$-copy-4" transform="translate(72.000000, 93.000000)">
            <rect id="Rectangle" stroke="#4C433F" stroke-width="1.28" fill="#88B9D8" stroke-linejoin="round" x="0" y="0" width="70.4" height="38.4" rx="0.64"></rect>
            <path d="M66.56,2.56 L3.84,2.56 C3.13307552,2.56 2.56,3.13307552 2.56,3.84 L2.56,34.56 C2.56,35.2669245 3.13307552,35.84 3.84,35.84 L66.56,35.84 C67.2669245,35.84 67.84,35.2669245 67.84,34.56 L67.84,3.84 C67.84,3.13307552 67.2669245,2.56 66.56,2.56 Z M3.84,3.84 L66.56,3.84 L66.56,34.56 L3.84,34.56 L3.84,3.84 Z" id="Rectangle" fill="#4C433F" fill-rule="nonzero"></path>
            <circle id="Oval" fill="#5AA2BF" cx="35.2" cy="19.2" r="12.16"></circle>
            <path d="M36.6336,28.96896 L36.6336,26.53184 C39.07072,25.99936 40.27904,24.23808 40.27904,21.98528 C40.27904,17.58208 34.13504,17.68448 34.13504,15.616 C34.13504,14.592 34.70848,14.20288 35.79392,14.20288 C36.736,14.20288 37.47328,14.592 38.31296,15.34976 L40.1152,13.2608 C39.21408,12.29824 38.12864,11.56096 36.6336,11.33568 L36.6336,8.96 L34.23744,8.96 L34.23744,11.37664 C32.00512,11.8272 30.67392,13.44512 30.67392,15.77984 C30.67392,19.95776 36.79744,20.0192 36.79744,22.25152 C36.79744,23.25504 36.24448,23.74656 34.97472,23.74656 C33.90976,23.74656 32.88576,23.31648 31.67744,22.39488 L30.08,24.85248 C31.2064,25.87648 32.86528,26.49088 34.23744,26.65472 L34.23744,28.96896 L36.6336,28.96896 Z" id="$" fill="#FFFFFF" fill-rule="nonzero"></path>
            <rect id="Rectangle" fill="#5AA2BF" x="51.2" y="12.16" width="10.88" height="3.84"></rect>
            <rect id="Rectangle-Copy-7" fill="#5AA2BF" x="8.32" y="12.16" width="10.88" height="3.84"></rect>
            <rect id="Rectangle-Copy-6" fill="#5AA2BF" x="51.2" y="22.4" width="10.88" height="3.84"></rect>
            <rect id="Rectangle-Copy-8" fill="#5AA2BF" x="8.32" y="22.4" width="10.88" height="3.84"></rect>
        </g>
        <g id="$-copy-3" transform="translate(396.000000, 174.000000)">
            <rect id="Rectangle" fill="#88B9D8" x="0" y="0" width="70.4" height="38.4" rx="0.64"></rect>
            <path d="M69.76,-0.64 L0.64,-0.64 C-0.0669244798,-0.64 -0.64,-0.0669244798 -0.64,0.64 L-0.64,37.76 C-0.64,38.4669245 -0.0669244798,39.04 0.64,39.04 L69.76,39.04 C70.4669245,39.04 71.04,38.4669245 71.04,37.76 L71.04,0.64 C71.04,-0.0669244798 70.4669245,-0.64 69.76,-0.64 Z M0.64,0.64 L69.76,0.64 L69.76,37.76 L0.64,37.76 L0.64,0.64 Z" id="Rectangle" fill="#4C433F" fill-rule="nonzero"></path>
            <path d="M66.56,2.56 L3.84,2.56 C3.13307552,2.56 2.56,3.13307552 2.56,3.84 L2.56,34.56 C2.56,35.2669245 3.13307552,35.84 3.84,35.84 L66.56,35.84 C67.2669245,35.84 67.84,35.2669245 67.84,34.56 L67.84,3.84 C67.84,3.13307552 67.2669245,2.56 66.56,2.56 Z M3.84,3.84 L66.56,3.84 L66.56,34.56 L3.84,34.56 L3.84,3.84 Z" id="Rectangle" fill="#4C433F" fill-rule="nonzero"></path>
            <circle id="Oval" fill="#5AA2BF" cx="35.2" cy="19.2" r="12.16"></circle>
            <path d="M36.6336,28.96896 L36.6336,26.53184 C39.07072,25.99936 40.27904,24.23808 40.27904,21.98528 C40.27904,17.58208 34.13504,17.68448 34.13504,15.616 C34.13504,14.592 34.70848,14.20288 35.79392,14.20288 C36.736,14.20288 37.47328,14.592 38.31296,15.34976 L40.1152,13.2608 C39.21408,12.29824 38.12864,11.56096 36.6336,11.33568 L36.6336,8.96 L34.23744,8.96 L34.23744,11.37664 C32.00512,11.8272 30.67392,13.44512 30.67392,15.77984 C30.67392,19.95776 36.79744,20.0192 36.79744,22.25152 C36.79744,23.25504 36.24448,23.74656 34.97472,23.74656 C33.90976,23.74656 32.88576,23.31648 31.67744,22.39488 L30.08,24.85248 C31.2064,25.87648 32.86528,26.49088 34.23744,26.65472 L34.23744,28.96896 L36.6336,28.96896 Z" id="$" fill="#FFFFFF" fill-rule="nonzero"></path>
            <rect id="Rectangle" fill="#5AA2BF" x="51.2" y="12.16" width="10.88" height="3.84"></rect>
            <rect id="Rectangle-Copy-7" fill="#5AA2BF" x="8.32" y="12.16" width="10.88" height="3.84"></rect>
            <rect id="Rectangle-Copy-6" fill="#5AA2BF" x="51.2" y="22.4" width="10.88" height="3.84"></rect>
            <rect id="Rectangle-Copy-8" fill="#5AA2BF" x="8.32" y="22.4" width="10.88" height="3.84"></rect>
        </g>
        <g id="Group-2" transform="translate(222.000000, 16.000000)" fill="#4C433F" fill-rule="nonzero">
            <path d="M31.2810542,61.9985762 L31,62 C13.8791728,62 0,48.1208272 0,31 C0,13.8791728 13.8791728,0 31,0 C31.0969734,0 31.1938429,0.000445266124 31.2906064,0.00133386541 L31.5,0 C31.9458787,0 32.3885527,0.0176999424 32.827684,0.0526105234 C48.5346525,0.966230796 61.1027915,13.5736593 61.9540219,29.2971176 C62.3123934,29.8410994 62.5,30.4095368 62.5,31 C62.5,31.590499 62.3123707,32.1589695 61.9535028,32.7025071 C61.1027915,48.4263407 48.5346525,61.0337692 32.827762,61.9470112 C32.3885527,61.9823001 31.9458787,62 31.5,62 L31.5,62 L31.2810542,61.9985762 L31.2810542,61.9985762 Z M37.6943851,39.3467855 L37.4386882,39.3592272 C35.8440897,39.4363389 34.204535,39.482464 32.5297201,39.4958844 L32.5297201,39.4958844 L31.5,39.5 C29.3760541,39.5 27.3047498,39.4477158 25.3053756,39.3465652 C26.1907319,51.2394409 28.8613541,60 31.5,60 L31.4155996,59.9970827 C31.4863531,59.9960888 31.5570453,59.9948415 31.6276753,59.9933418 C34.2243378,59.7165622 36.8235454,51.0476074 37.6943851,39.3467855 Z M11.5398266,37.6337131 L11.60068,37.9878763 C13.54935,49.0983747 20.0347967,57.6461402 28.0402005,59.5852538 C25.6222246,55.9395579 23.9116627,48.4667018 23.2746322,39.2258761 C18.8918637,38.92327 14.9072065,38.3797431 11.5398266,37.6337131 Z M51.4596094,37.6345804 L51.4080412,37.6452358 C48.0516633,38.3853484 44.0854655,38.924838 39.7257484,39.2253766 C39.0883373,48.4667018 37.3777754,55.9395579 34.9586687,59.5846804 C43.0498509,57.6256363 49.5876319,48.9168707 51.4596094,37.6345804 Z M2.14148893,33.8867284 L2.18744774,34.3154229 C3.42077538,45.1520228 10.6268053,54.1759321 20.4330073,58.0146207 C14.8252056,53.6509976 10.7350066,46.0707601 9.43738568,37.1200164 C6.18092196,36.2428479 3.66287237,35.1498422 2.14148893,33.8867284 Z M59.7712794,34.6597597 L59.6030039,34.7610607 C58.0937301,35.6590078 56.0422856,36.4520312 53.5623205,37.1199923 C52.3524487,45.4660773 48.7149873,52.6197496 43.6832689,57.0856622 L43.9263401,56.9669023 C52.4161776,52.7324708 58.5375689,44.4570117 59.7712794,34.6597597 Z M31.9810812,24.5009987 L31.0189188,24.5009987 C29.017201,24.5093105 27.0619594,24.5693264 25.1739278,24.6743511 C25.0609281,26.7129353 25,28.8303314 25,31 L25.0009987,31.4810812 C25.0093105,33.482799 25.0693264,35.4380406 25.1743511,37.3260722 C27.2129353,37.4390719 29.3303314,37.5 31.5,37.5 L31.5,37.5 L31.9810812,37.4990013 C33.982799,37.4906895 35.9380406,37.4306736 37.8260722,37.3256489 C37.9390719,35.2870647 38,33.1696686 38,31 L38,31 L37.9990013,30.5189188 C37.9906895,28.517201 37.9306736,26.5619594 37.8256489,24.6739278 C35.7870647,24.5609281 33.6696686,24.5 31.5,24.5 Z M23.1534429,24.8052136 L22.7260069,24.8382815 C18.3714338,25.1801699 14.4513875,25.7615689 11.2475437,26.4915227 C11.0844049,27.9599749 11,29.4656439 11,31 C11,32.5343561 11.0844049,34.0400251 11.2468739,35.5085034 C14.5558217,36.2622251 18.6277548,36.8575754 23.1532145,37.1943851 C23.0522842,35.1952502 23,33.1239459 23,31 L23,31 L23.0010307,30.4840694 C23.0088061,28.540359 23.0604941,26.6424186 23.1534429,24.8052136 Z M39.8467855,24.8056149 L39.8592272,25.0613118 C39.9363389,26.6559103 39.982464,28.295465 39.9958844,29.9702799 L39.9958844,29.9702799 L40,31 C40,33.1239459 39.9477158,35.1952502 39.8465652,37.1946244 C44.3722452,36.8575754 48.4441783,36.2622251 51.7524563,35.5084773 C51.9155951,34.0400251 52,32.5343561 52,31 C52,29.4656439 51.9155951,27.9599749 51.7531261,26.4914966 C48.4441783,25.7377749 44.3722452,25.1424246 39.8467855,24.8056149 Z M9.18431316,27.0093727 L9.06871223,27.0414232 C4.97053988,28.1885114 2.5,29.5987645 2.5,31 C2.5,32.4143154 5.01687772,33.8378174 9.18390034,34.9906303 C9.06267452,33.6836143 9,32.3516139 9,31 C9,29.6483861 9.06267452,28.3163857 9.18431316,27.0093727 Z M53.8160997,27.0093697 L53.8557329,27.4664524 C53.9510575,28.6265132 54,29.8055985 54,31 C54,32.3516139 53.9373255,33.6836143 53.8156868,34.9906273 C56.8705792,34.1456041 59.0384238,33.1551346 59.9782684,32.1294518 C59.9927603,31.7547071 60,31.378199 60,31 C60,30.621801 59.9927603,30.2452929 59.978412,29.8706067 C59.0384238,28.8448654 56.8705792,27.8543959 53.8160997,27.0093697 Z M20.433155,3.9856176 L20.1298789,4.1060249 C10.3500388,8.06272408 3.2202238,17.1991295 2.14181547,28.1138597 C3.66287237,26.8501578 6.18092196,25.7571521 9.43815347,24.87988 C10.7350066,15.9292399 14.8252056,8.3490024 20.433155,3.9856176 Z M43.6851334,4.91419116 C48.7151883,9.38042882 52.3527393,16.5344941 53.5626143,24.8799836 C56.1353221,25.5729941 58.247396,26.4007835 59.7710538,27.3407392 C58.5263351,17.451009 52.3003912,9.11147294 43.6851334,4.91419116 Z M28.04139,2.41523112 L27.8732748,2.45619262 C19.8600803,4.49450044 13.3990902,13.1613473 11.5402242,24.3664229 C14.9074626,23.6202001 18.89247,23.0766473 23.2751241,22.7745633 C23.911714,13.5330217 25.6222849,6.06027195 28.04139,2.41523112 Z M34.9577977,2.41426147 L35.0214544,2.51102927 C37.4074654,6.19035656 39.0940009,13.6140566 39.7254455,22.7752508 C44.1083714,23.0767615 48.0929044,23.6202802 51.4601925,24.3662911 C49.5878651,13.082715 43.0490123,4.37298516 34.9577977,2.41426147 Z M31.479568,2.00388517 L31.4022282,2.00399785 C28.7956628,2.21686083 26.1798009,10.9074316 25.3056149,22.6532145 C27.3047498,22.5522842 29.3760541,22.5 31.5,22.5 L31.5,22.5 L32.0159306,22.5010307 C33.959641,22.5088061 35.8575814,22.5604941 37.6947864,22.6534429 C36.8235454,10.9523926 34.2243378,2.2834378 31.6277047,2.00681461 C31.4189852,2.00222686 31.2097527,2 31,2 Z" id="Combined-Shape"></path>
        </g>
        <path d="M365,369 C365.552285,369 366,369.447715 366,370 L366,376 L372,376 C372.552285,376 373,376.447715 373,377 C373,377.552285 372.552285,378 372,378 L366,378 L366,384 C366,384.552285 365.552285,385 365,385 C364.447715,385 364,384.552285 364,384 L364,378 L358,378 C357.447715,378 357,377.552285 357,377 C357,376.447715 357.447715,376 358,376 L364,376 L364,370 C364,369.447715 364.447715,369 365,369 Z" id="Combined-Shape-Copy-8" fill="#4C433F"></path>
        <path d="M135,312 C135.552285,312 136,312.447715 136,313 L136,319 L142,319 C142.552285,319 143,319.447715 143,320 C143,320.552285 142.552285,321 142,321 L136,321 L136,327 C136,327.552285 135.552285,328 135,328 C134.447715,328 134,327.552285 134,327 L134,321 L128,321 C127.447715,321 127,320.552285 127,320 C127,319.447715 127.447715,319 128,319 L134,319 L134,313 C134,312.447715 134.447715,312 135,312 Z" id="Combined-Shape-Copy-9" fill="#4C433F"></path>
        <path d="M295,80 C295.552285,80 296,80.4477153 296,81 L296,87 L302,87 C302.552285,87 303,87.4477153 303,88 C303,88.5522847 302.552285,89 302,89 L296,89 L296,95 C296,95.5522847 295.552285,96 295,96 C294.447715,96 294,95.5522847 294,95 L294,89 L288,89 C287.447715,89 287,88.5522847 287,88 C287,87.4477153 287.447715,87 288,87 L294,87 L294,81 C294,80.4477153 294.447715,80 295,80 Z" id="Combined-Shape-Copy-10" fill="#4C433F"></path>
        <path d="M51,21 C51.5522847,21 52,21.4477153 52,22 L52,28 L58,28 C58.5522847,28 59,28.4477153 59,29 C59,29.5522847 58.5522847,30 58,30 L52,30 L52,36 C52,36.5522847 51.5522847,37 51,37 C50.4477153,37 50,36.5522847 50,36 L50,30 L44,30 C43.4477153,30 43,29.5522847 43,29 C43,28.4477153 43.4477153,28 44,28 L50,28 L50,22 C50,21.4477153 50.4477153,21 51,21 Z" id="Combined-Shape-Copy-11" fill="#4C433F"></path>
        <path d="M417,284 C417.552285,284 418,284.447715 418,285 L418,291 L424,291 C424.552285,291 425,291.447715 425,292 C425,292.552285 424.552285,293 424,293 L418,293 L418,299 C418,299.552285 417.552285,300 417,300 C416.447715,300 416,299.552285 416,299 L416,293 L410,293 C409.447715,293 409,292.552285 409,292 C409,291.447715 409.447715,291 410,291 L416,291 L416,285 C416,284.447715 416.447715,284 417,284 Z" id="Combined-Shape-Copy-12" fill="#4C433F"></path>
        <path d="M119,220 C119.552285,220 120,220.447715 120,221 L120,227 L126,227 C126.552285,227 127,227.447715 127,228 C127,228.552285 126.552285,229 126,229 L120,229 L120,235 C120,235.552285 119.552285,236 119,236 C118.447715,236 118,235.552285 118,235 L118,229 L112,229 C111.447715,229 111,228.552285 111,228 C111,227.447715 111.447715,227 112,227 L118,227 L118,221 C118,220.447715 118.447715,220 119,220 Z" id="Combined-Shape-Copy-14" fill="#4C433F"></path>
        <path d="M409,36 C409.552285,36 410,36.4477153 410,37 L410,43 L416,43 C416.552285,43 417,43.4477153 417,44 C417,44.5522847 416.552285,45 416,45 L410,45 L410,51 C410,51.5522847 409.552285,52 409,52 C408.447715,52 408,51.5522847 408,51 L408,45 L402,45 C401.447715,45 401,44.5522847 401,44 C401,43.4477153 401.447715,43 402,43 L408,43 L408,37 C408,36.4477153 408.447715,36 409,36 Z" id="Combined-Shape-Copy-13" fill="#4C433F"></path>
        <path d="M179.453024,338.5 C180.005303,338.497638 180.454937,338.943427 180.457317,339.495707 C180.45951,340.008538 180.075288,340.432863 179.578202,340.492762 L179.46161,340.5 L63.0042934,341 C62.4520137,341.002362 62.0023804,340.556573 61.9999998,340.004293 C61.9978074,339.491462 62.3820294,339.067137 62.8791155,339.007238 L62.9957066,339 L179.453024,338.5 Z" id="Line-3-Copy-31" fill="#4C433F" fill-rule="nonzero"></path>
        <path d="M427.997376,149 C428.549659,148.998554 428.998547,149.445093 429,149.997376 C429.001342,150.51021 428.616413,150.933893 428.119227,150.992963 L428.002624,151 L332.731283,151.25 C332.179,151.251446 331.730111,150.804907 331.728658,150.252624 C331.727316,149.73979 332.112246,149.316107 332.609431,149.257037 L332.726034,149.250003 L427.997376,149 Z" id="Line-3-Copy-33" fill="#4C433F" fill-rule="nonzero"></path>
        <path d="M440.045634,361 C440.597919,360.999525 441.046494,361.446856 441.046494,361.99914 C441.046494,362.511976 440.661258,362.934979 440.163969,362.993172 L440.047354,363 L294.683025,363.125 C294.13074,363.125475 293.682165,362.678144 293.682165,362.12586 C293.682165,361.613024 294.067401,361.190021 294.564689,361.131828 L294.681305,361.125 L440.045634,361 Z" id="Line-3-Copy-37" fill="#4C433F" fill-rule="nonzero"></path>
        <path d="M210.998897,69 C211.551182,68.9993916 212,69.4466129 212,69.9988974 C212,70.5117329 211.614991,70.9348296 211.117716,70.9931431 L211.001103,71 L97.6367734,71.125 C97.084489,71.1256084 96.6356707,70.6783871 96.6356707,70.1261026 C96.6356707,69.6132671 97.0206798,69.1901704 97.5179545,69.1318569 L97.6345681,69.1250006 L210.998897,69 Z" id="Line-3-Copy-34" fill="#4C433F" fill-rule="nonzero"></path>
        <path d="M109.886795,194.90625 C110.43908,194.905819 110.887576,195.353185 110.887576,195.905469 C110.887576,196.418305 110.502266,196.841277 110.004973,196.899431 L109.888357,196.90625 L29.8418631,196.96875 C29.2895785,196.969181 28.8410823,196.521815 28.8410823,195.969531 C28.8410823,195.456695 29.2263923,195.033723 29.7236857,194.975569 L29.8403015,194.96875 L109.886795,194.90625 Z" id="Line-3-Copy-36" fill="#4C433F" fill-rule="nonzero"></path>
        <path d="M169,76 C169.552285,76 170,76.4477153 170,77 C170,77.5128358 169.61396,77.9355072 169.116621,77.9932723 L169,78 L112.978659,78 C112.426374,78 111.978659,77.5522847 111.978659,77 C111.978659,76.4871642 112.364699,76.0644928 112.862037,76.0067277 L112.978659,76 L169,76 Z" id="Line-3-Copy-35" fill="#4C433F" fill-rule="nonzero"></path>
        <g id="Group-3" transform="translate(356.000000, 248.000000)">
            <rect id="Rectangle" fill="#FFFFFF" x="0" y="0" width="48" height="30" rx="1"></rect>
            <path d="M47,-1 L1,-1 C-0.1045695,-1 -1,-0.1045695 -1,1 L-1,29 C-1,30.1045695 -0.1045695,31 1,31 L47,31 C48.1045695,31 49,30.1045695 49,29 L49,1 C49,-0.1045695 48.1045695,-1 47,-1 Z M1,1 L47,1 L47,29 L1,29 L1,1 Z" id="Rectangle" fill="#4C433F" fill-rule="nonzero"></path>
            <rect id="Rectangle" fill="#4C433F" x="1" y="7" width="47" height="6"></rect>
            <path d="M41,20 C42.6568542,20 44,21.3431458 44,23 C44,24.6568542 42.6568542,26 41,26 C39.9556117,26 39.0358703,25.4663229 38.4986056,24.6567985 C37.9641297,25.4663229 37.0443883,26 36,26 C34.3431458,26 33,24.6568542 33,23 C33,21.3431458 34.3431458,20 36,20 C37.0443883,20 37.9641297,20.5336771 38.5013944,21.3432015 C39.0358703,20.5336771 39.9556117,20 41,20 Z" id="Combined-Shape" fill="#908883"></path>
            <rect id="Rectangle" fill="#C8BDB8" x="4" y="20" width="20" height="2"></rect>
            <rect id="Rectangle-Copy-11" fill="#C8BDB8" x="4" y="24" width="16" height="2"></rect>
        </g>
        <g id="Group-3-Copy-2" transform="translate(71.000000, 177.000000)">
            <rect id="Rectangle" fill="#FFFFFF" x="0" y="0" width="48" height="30" rx="1"></rect>
            <path d="M47,-1 L1,-1 C-0.1045695,-1 -1,-0.1045695 -1,1 L-1,29 C-1,30.1045695 -0.1045695,31 1,31 L47,31 C48.1045695,31 49,30.1045695 49,29 L49,1 C49,-0.1045695 48.1045695,-1 47,-1 Z M1,1 L47,1 L47,29 L1,29 L1,1 Z" id="Rectangle" fill="#4C433F" fill-rule="nonzero"></path>
            <rect id="Rectangle" fill="#4C433F" x="1" y="7" width="47" height="6"></rect>
            <path d="M41,20 C42.6568542,20 44,21.3431458 44,23 C44,24.6568542 42.6568542,26 41,26 C39.9556117,26 39.0358703,25.4663229 38.4986056,24.6567985 C37.9641297,25.4663229 37.0443883,26 36,26 C34.3431458,26 33,24.6568542 33,23 C33,21.3431458 34.3431458,20 36,20 C37.0443883,20 37.9641297,20.5336771 38.5013944,21.3432015 C39.0358703,20.5336771 39.9556117,20 41,20 Z" id="Combined-Shape" fill="#908883"></path>
            <rect id="Rectangle" fill="#C8BDB8" x="4" y="20" width="20" height="2"></rect>
            <rect id="Rectangle-Copy-11" fill="#C8BDB8" x="4" y="24" width="16" height="2"></rect>
        </g>
        <path d="M165.935976,346.5 C166.48826,346.5 166.935976,346.947715 166.935976,347.5 C166.935976,348.012836 166.549935,348.435507 166.052597,348.493272 L165.935976,348.5 L132.978659,348.5 C132.426374,348.5 131.978659,348.052285 131.978659,347.5 C131.978659,346.987164 132.364699,346.564493 132.862037,346.506728 L132.978659,346.5 L165.935976,346.5 Z" id="Line-3-Copy-32" fill="#4C433F" fill-rule="nonzero"></path>
        <path d="M419.935976,368 C420.48826,368 420.935976,368.447715 420.935976,369 C420.935976,369.512836 420.549935,369.935507 420.052597,369.993272 L419.935976,370 L386.978659,370 C386.426374,370 385.978659,369.552285 385.978659,369 C385.978659,368.487164 386.364699,368.064493 386.862037,368.006728 L386.978659,368 L419.935976,368 Z" id="Line-3-Copy-38" fill="#4C433F" fill-rule="nonzero"></path>
        <g id="Group-3-Copy" transform="translate(158.000000, 332.000000)">
            <rect id="Rectangle" fill="#FFFFFF" x="0" y="0" width="48" height="30" rx="1"></rect>
            <path d="M47,-1 L1,-1 C-0.1045695,-1 -1,-0.1045695 -1,1 L-1,29 C-1,30.1045695 -0.1045695,31 1,31 L47,31 C48.1045695,31 49,30.1045695 49,29 L49,1 C49,-0.1045695 48.1045695,-1 47,-1 Z M1,1 L47,1 L47,29 L1,29 L1,1 Z" id="Rectangle" fill="#4C433F" fill-rule="nonzero"></path>
            <rect id="Rectangle" fill="#4C433F" x="1" y="7" width="47" height="6"></rect>
            <path d="M41,20 C42.6568542,20 44,21.3431458 44,23 C44,24.6568542 42.6568542,26 41,26 C39.9556117,26 39.0358703,25.4663229 38.4986056,24.6567985 C37.9641297,25.4663229 37.0443883,26 36,26 C34.3431458,26 33,24.6568542 33,23 C33,21.3431458 34.3431458,20 36,20 C37.0443883,20 37.9641297,20.5336771 38.5013944,21.3432015 C39.0358703,20.5336771 39.9556117,20 41,20 Z" id="Combined-Shape" fill="#908883"></path>
            <rect id="Rectangle" fill="#C8BDB8" x="4" y="20" width="20" height="2"></rect>
            <rect id="Rectangle-Copy-11" fill="#C8BDB8" x="4" y="24" width="16" height="2"></rect>
        </g>
    </g>
</svg>