<?xml version="1.0" encoding="UTF-8"?>
<svg width="480px" height="400px" viewBox="0 0 480 400" version="1.1" xmlns="http://www.w3.org/2000/svg" xmlns:xlink="http://www.w3.org/1999/xlink">
    <!-- Generator: Sketch 63.1 (92452) - https://sketch.com -->
    <title>img/PublicSectors</title>
    <desc>Created with Sketch.</desc>
    <g id="img/PublicSectors" stroke="none" stroke-width="1" fill="none" fill-rule="evenodd">
        <circle id="Oval-Copy-11" fill="#FFD36A" cx="226" cy="209" r="116"></circle>
        <circle id="Oval-Copy-12" fill="#FFD36A" cx="342" cy="67" r="47"></circle>
        <circle id="Oval-Copy-15" fill="#FFD36A" cx="399" cy="215" r="68"></circle>
        <circle id="Oval-Copy-16" fill="#FFD36A" cx="89.5" cy="320.5" r="45.5"></circle>
        <circle id="Oval-Copy-13" fill="#FFD36A" cx="87" cy="143" r="68"></circle>
        <g id="wall" transform="translate(196.000000, 193.000000)">
            <rect id="Rectangle" fill="#88B9D8" x="2" y="1" width="108" height="139"></rect>
            <rect id="Rectangle-Copy-6" fill="#5AA2BF" x="2" y="21" width="110" height="8"></rect>
            <rect id="Rectangle-Copy-47" fill="#5AA2BF" x="35" y="0" width="4" height="27"></rect>
            <rect id="Rectangle-Copy-54" fill="#5AA2BF" x="35" y="57" width="4" height="27"></rect>
            <rect id="Rectangle-Copy-50" fill="#5AA2BF" x="17" y="29" width="4" height="27"></rect>
            <rect id="Rectangle-Copy-58" fill="#5AA2BF" x="17" y="85" width="4" height="27"></rect>
            <rect id="Rectangle-Copy-48" fill="#5AA2BF" x="71" y="0" width="4" height="27"></rect>
            <rect id="Rectangle-Copy-55" fill="#5AA2BF" x="71" y="57" width="4" height="27"></rect>
            <rect id="Rectangle-Copy-51" fill="#5AA2BF" x="53" y="29" width="4" height="27"></rect>
            <rect id="Rectangle-Copy-59" fill="#5AA2BF" x="53" y="85" width="4" height="27"></rect>
            <path d="M108,0 C110.209139,-4.05812251e-16 112,1.790861 112,4 L112,27 L112,27 L108,27 L108,0 Z" id="Rectangle-Copy-49" fill="#5AA2BF"></path>
            <rect id="Rectangle-Copy-56" fill="#5AA2BF" x="108" y="57" width="4" height="27"></rect>
            <rect id="Rectangle-Copy-57" fill="#5AA2BF" x="108" y="112" width="4" height="27"></rect>
            <rect id="Rectangle-Copy-52" fill="#5AA2BF" x="89" y="29" width="4" height="27"></rect>
            <rect id="Rectangle-Copy-60" fill="#5AA2BF" x="89" y="85" width="4" height="27"></rect>
            <rect id="Rectangle-Copy-53" fill="#5AA2BF" x="108" y="29" width="4" height="27"></rect>
            <rect id="Rectangle-Copy-61" fill="#5AA2BF" x="108" y="85" width="4" height="27"></rect>
            <rect id="Rectangle-Copy-43" fill="#5AA2BF" x="2" y="49" width="110" height="8"></rect>
            <rect id="Rectangle-Copy-44" fill="#5AA2BF" x="2" y="77" width="110" height="8"></rect>
            <rect id="Rectangle-Copy-45" fill="#5AA2BF" x="2" y="105" width="110" height="8"></rect>
            <rect id="Rectangle-Copy-46" fill="#5AA2BF" x="2" y="132" width="110" height="8" rx="2"></rect>
            <path d="M110,0 C111.104569,0 112,0.8954305 112,2 L112,2 L112,138 C112,139.104569 111.104569,140 110,140 L110,140 L2,140 C0.8954305,140 0,139.104569 0,138 L0,138 L0,2 C0,0.8954305 0.8954305,0 2,0 L2,0 Z M110,113 L2,113 L2,138 L37,138 L37,113 L39,113 L39,138 L73,138 L73,113 L75,113 L75,138 L110,138 L110,113 Z M110,111 L110,85 L93,85 L93,111 L110,111 Z M37,57 L2,57 L2,83 L37,83 L37,57 Z M73,57 L39,57 L39,83 L73,83 L73,57 Z M110,57 L75,57 L75,83 L110,83 L110,57 Z M110,29 L93,29 L93,55 L110,55 L110,29 Z M91,29 L57,29 L57,55 L91,55 L91,29 Z M55,29 L21,29 L21,55 L55,55 L55,29 Z M19,29 L2,29 L2,55 L19,55 L19,29 Z M37,2 L2,2 L2,27 L37,27 L37,2 Z M73,2 L39,2 L39,27 L73,27 L73,2 Z M110,2 L75,2 L75,27 L110,27 L110,2 Z M91,85 L57,85 L57,111 L55,111 L55,85 L21,85 L21,111 L19,111 L19,85 L2,85 L2,111 L91,111 L91,85 Z" id="Combined-Shape" fill="#4C433F" fill-rule="nonzero"></path>
        </g>
        <g id="wall-copy" transform="translate(319.000000, 51.000000)">
            <rect id="Rectangle" fill="#88B9D8" x="2" y="1" width="108" height="139"></rect>
            <rect id="Rectangle-Copy-6" fill="#5AA2BF" x="2" y="21" width="110" height="8"></rect>
            <rect id="Rectangle-Copy-47" fill="#5AA2BF" x="35" y="0" width="4" height="27"></rect>
            <rect id="Rectangle-Copy-54" fill="#5AA2BF" x="35" y="57" width="4" height="27"></rect>
            <rect id="Rectangle-Copy-50" fill="#5AA2BF" x="17" y="29" width="4" height="27"></rect>
            <rect id="Rectangle-Copy-58" fill="#5AA2BF" x="17" y="85" width="4" height="27"></rect>
            <rect id="Rectangle-Copy-48" fill="#5AA2BF" x="71" y="0" width="4" height="27"></rect>
            <rect id="Rectangle-Copy-55" fill="#5AA2BF" x="71" y="57" width="4" height="27"></rect>
            <rect id="Rectangle-Copy-51" fill="#5AA2BF" x="53" y="29" width="4" height="27"></rect>
            <rect id="Rectangle-Copy-59" fill="#5AA2BF" x="53" y="85" width="4" height="27"></rect>
            <path d="M108,0 C110.209139,-4.05812251e-16 112,1.790861 112,4 L112,27 L112,27 L108,27 L108,0 Z" id="Rectangle-Copy-49" fill="#5AA2BF"></path>
            <rect id="Rectangle-Copy-56" fill="#5AA2BF" x="108" y="57" width="4" height="27"></rect>
            <rect id="Rectangle-Copy-57" fill="#5AA2BF" x="108" y="112" width="4" height="27"></rect>
            <rect id="Rectangle-Copy-52" fill="#5AA2BF" x="89" y="29" width="4" height="27"></rect>
            <rect id="Rectangle-Copy-60" fill="#5AA2BF" x="89" y="85" width="4" height="27"></rect>
            <rect id="Rectangle-Copy-53" fill="#5AA2BF" x="108" y="29" width="4" height="27"></rect>
            <rect id="Rectangle-Copy-61" fill="#5AA2BF" x="108" y="85" width="4" height="27"></rect>
            <rect id="Rectangle-Copy-43" fill="#5AA2BF" x="2" y="49" width="110" height="8"></rect>
            <rect id="Rectangle-Copy-44" fill="#5AA2BF" x="2" y="77" width="110" height="8"></rect>
            <rect id="Rectangle-Copy-45" fill="#5AA2BF" x="2" y="105" width="110" height="8"></rect>
            <rect id="Rectangle-Copy-46" fill="#5AA2BF" x="2" y="132" width="110" height="8" rx="2"></rect>
            <path d="M110,0 C111.104569,0 112,0.8954305 112,2 L112,2 L112,138 C112,139.104569 111.104569,140 110,140 L110,140 L2,140 C0.8954305,140 0,139.104569 0,138 L0,138 L0,2 C0,0.8954305 0.8954305,0 2,0 L2,0 Z M110,113 L2,113 L2,138 L37,138 L37,113 L39,113 L39,138 L73,138 L73,113 L75,113 L75,138 L110,138 L110,113 Z M110,111 L110,85 L93,85 L93,111 L110,111 Z M37,57 L2,57 L2,83 L37,83 L37,57 Z M73,57 L39,57 L39,83 L73,83 L73,57 Z M110,57 L75,57 L75,83 L110,83 L110,57 Z M110,29 L93,29 L93,55 L110,55 L110,29 Z M91,29 L57,29 L57,55 L91,55 L91,29 Z M55,29 L21,29 L21,55 L55,55 L55,29 Z M19,29 L2,29 L2,55 L19,55 L19,29 Z M37,2 L2,2 L2,27 L37,27 L37,2 Z M73,2 L39,2 L39,27 L73,27 L73,2 Z M110,2 L75,2 L75,27 L110,27 L110,2 Z M91,85 L57,85 L57,111 L55,111 L55,85 L21,85 L21,111 L19,111 L19,85 L2,85 L2,111 L91,111 L91,85 Z" id="Combined-Shape" fill="#4C433F" fill-rule="nonzero"></path>
        </g>
        <g id="wall-copy-2" transform="translate(49.000000, 114.000000)">
            <rect id="Rectangle" fill="#88B9D8" x="2" y="1" width="108" height="139"></rect>
            <rect id="Rectangle-Copy-6" fill="#5AA2BF" x="2" y="21" width="110" height="8"></rect>
            <rect id="Rectangle-Copy-47" fill="#5AA2BF" x="35" y="0" width="4" height="27"></rect>
            <rect id="Rectangle-Copy-54" fill="#5AA2BF" x="35" y="57" width="4" height="27"></rect>
            <rect id="Rectangle-Copy-50" fill="#5AA2BF" x="17" y="29" width="4" height="27"></rect>
            <rect id="Rectangle-Copy-58" fill="#5AA2BF" x="17" y="85" width="4" height="27"></rect>
            <rect id="Rectangle-Copy-48" fill="#5AA2BF" x="71" y="0" width="4" height="27"></rect>
            <rect id="Rectangle-Copy-55" fill="#5AA2BF" x="71" y="57" width="4" height="27"></rect>
            <rect id="Rectangle-Copy-51" fill="#5AA2BF" x="53" y="29" width="4" height="27"></rect>
            <rect id="Rectangle-Copy-59" fill="#5AA2BF" x="53" y="85" width="4" height="27"></rect>
            <path d="M108,0 C110.209139,-4.05812251e-16 112,1.790861 112,4 L112,27 L112,27 L108,27 L108,0 Z" id="Rectangle-Copy-49" fill="#5AA2BF"></path>
            <rect id="Rectangle-Copy-56" fill="#5AA2BF" x="108" y="57" width="4" height="27"></rect>
            <rect id="Rectangle-Copy-57" fill="#5AA2BF" x="108" y="112" width="4" height="27"></rect>
            <rect id="Rectangle-Copy-52" fill="#5AA2BF" x="89" y="29" width="4" height="27"></rect>
            <rect id="Rectangle-Copy-60" fill="#5AA2BF" x="89" y="85" width="4" height="27"></rect>
            <rect id="Rectangle-Copy-53" fill="#5AA2BF" x="108" y="29" width="4" height="27"></rect>
            <rect id="Rectangle-Copy-61" fill="#5AA2BF" x="108" y="85" width="4" height="27"></rect>
            <rect id="Rectangle-Copy-43" fill="#5AA2BF" x="2" y="49" width="110" height="8"></rect>
            <rect id="Rectangle-Copy-44" fill="#5AA2BF" x="2" y="77" width="110" height="8"></rect>
            <rect id="Rectangle-Copy-45" fill="#5AA2BF" x="2" y="105" width="110" height="8"></rect>
            <rect id="Rectangle-Copy-46" fill="#5AA2BF" x="2" y="132" width="110" height="8" rx="2"></rect>
            <path d="M110,0 C111.104569,0 112,0.8954305 112,2 L112,2 L112,138 C112,139.104569 111.104569,140 110,140 L110,140 L2,140 C0.8954305,140 0,139.104569 0,138 L0,138 L0,2 C0,0.8954305 0.8954305,0 2,0 L2,0 Z M110,113 L2,113 L2,138 L37,138 L37,113 L39,113 L39,138 L73,138 L73,113 L75,113 L75,138 L110,138 L110,113 Z M110,111 L110,85 L93,85 L93,111 L110,111 Z M37,57 L2,57 L2,83 L37,83 L37,57 Z M73,57 L39,57 L39,83 L73,83 L73,57 Z M110,57 L75,57 L75,83 L110,83 L110,57 Z M110,29 L93,29 L93,55 L110,55 L110,29 Z M91,29 L57,29 L57,55 L91,55 L91,29 Z M55,29 L21,29 L21,55 L55,55 L55,29 Z M19,29 L2,29 L2,55 L19,55 L19,29 Z M37,2 L2,2 L2,27 L37,27 L37,2 Z M73,2 L39,2 L39,27 L73,27 L73,2 Z M110,2 L75,2 L75,27 L110,27 L110,2 Z M91,85 L57,85 L57,111 L55,111 L55,85 L21,85 L21,111 L19,111 L19,85 L2,85 L2,111 L91,111 L91,85 Z" id="Combined-Shape" fill="#4C433F" fill-rule="nonzero"></path>
        </g>
        <g id="Group-2" transform="translate(229.000000, 80.000000)">
            <path d="M33,0 C51.6666667,10 62.6666667,26.6666667 66,50 L33,65 L0,50 C3.33333333,26.6666667 14.3333333,10 33,0 Z" id="Triangle" fill="#FFFFFF" transform="translate(33.000000, 32.500000) scale(1, -1) translate(-33.000000, -32.500000) "></path>
            <path d="M32.5277786,-0.88147997 C13.5713023,9.27377516 2.38704456,26.2196203 -0.989949494,49.8585786 C-1.05275439,50.2982129 -0.818094587,50.7265975 -0.413802944,50.9103665 L32.5861971,65.9103665 C32.8491221,66.0298778 33.1508779,66.0298778 33.4138029,65.9103665 L66.4138029,50.9103665 C66.8180946,50.7265975 67.0527544,50.2982129 66.9899495,49.8585786 C63.6129554,26.2196203 52.4286977,9.27377516 33.4722214,-0.88147997 C33.1772382,-1.03950668 32.8227618,-1.03950668 32.5277786,-0.88147997 Z M33,1.137 L33.076816,1.17878524 C50.7556851,10.8551264 61.3206311,26.688452 64.8036386,48.7677263 L64.901,49.4 L33,63.901 L1.098,49.4 L1.19636141,48.7677263 C4.64308762,26.9184444 15.0249803,11.1856651 32.373035,1.48317523 L33,1.137 Z" id="Triangle" fill="#4C433F" fill-rule="nonzero" transform="translate(33.000000, 32.500000) scale(1, -1) translate(-33.000000, -32.500000) "></path>
            <path d="M33.4461117,5.10502273 L58.4461117,17.5665612 C58.827676,17.7567563 59.0466956,18.1679505 58.9916212,18.5907179 C56.4283339,38.2673001 47.928863,52.3894979 33.5065314,60.8622215 C33.193828,61.0459262 32.806172,61.0459262 32.4934686,60.8622215 C18.071137,52.3894979 9.5716661,38.2673001 7.00837877,18.5907179 C6.95330445,18.1679505 7.17232399,17.7567563 7.55388825,17.5665612 L32.5538883,5.10502273 C32.8348133,4.96499242 33.1651867,4.96499242 33.4461117,5.10502273 Z M9.20596237,19.869 L9.17436397,19.6554451 C11.7605584,37.3602364 19.3653472,50.1877603 31.9997943,58.2169848 L31.9999624,26.742 L9.20596237,19.869 Z M56.7940141,19.8700002 L33.9999624,26.742 L34.0012091,58.2163471 C46.5839629,50.2195523 54.1779214,37.4634392 56.7940141,19.8700002 Z M33,7.118 L10.7019624,18.232 L33,24.955 L55.2979624,18.232 L33,7.118 Z" id="Combined-Shape" fill="#4C433F" fill-rule="nonzero"></path>
        </g>
        <g id="Group-2-Copy-2" transform="translate(94.000000, 259.000000)">
            <path d="M34,1 C52.6666667,11 63.6666667,27.6666667 67,51 L34,66 L1,51 C4.33333333,27.6666667 15.3333333,11 34,1 Z" id="Triangle" fill="#FFFFFF" transform="translate(34.000000, 33.500000) scale(1, -1) translate(-34.000000, -33.500000) "></path>
            <path d="M33.5277786,0.11852003 C14.5713023,10.2737752 3.38704456,27.2196203 0.0100505063,50.8585786 C-0.0527543903,51.2982129 0.181905413,51.7265975 0.586197056,51.9103665 L33.5861971,66.9103665 C33.8491221,67.0298778 34.1508779,67.0298778 34.4138029,66.9103665 L67.4138029,51.9103665 C67.8180946,51.7265975 68.0527544,51.2982129 67.9899495,50.8585786 C64.6129554,27.2196203 53.4286977,10.2737752 34.4722214,0.11852003 C34.1772382,-0.0395066767 33.8227618,-0.0395066767 33.5277786,0.11852003 Z M34,2.137 L34.076816,2.17878524 C51.7556851,11.8551264 62.3206311,27.688452 65.8036386,49.7677263 L65.901,50.4 L34,64.901 L2.098,50.4 L2.19636141,49.7677263 C5.64308762,27.9184444 16.0249803,12.1856651 33.373035,2.48317523 L34,2.137 Z" id="Triangle" fill="#4C433F" fill-rule="nonzero" transform="translate(34.000000, 33.500000) scale(1, -1) translate(-34.000000, -33.500000) "></path>
            <path d="M34.4461117,6.10502273 L59.4461117,18.5665612 C59.827676,18.7567563 60.0466956,19.1679505 59.9916212,19.5907179 C57.4283339,39.2673001 48.928863,53.3894979 34.5065314,61.8622215 C34.193828,62.0459262 33.806172,62.0459262 33.4934686,61.8622215 C19.071137,53.3894979 10.5716661,39.2673001 8.00837877,19.5907179 C7.95330445,19.1679505 8.17232399,18.7567563 8.55388825,18.5665612 L33.5538883,6.10502273 C33.8348133,5.96499242 34.1651867,5.96499242 34.4461117,6.10502273 Z M10.2059624,20.869 L10.174364,20.6554451 C12.7605584,38.3602364 20.3653472,51.1877603 32.9997943,59.2169848 L32.9999624,27.742 L10.2059624,20.869 Z M57.7940141,20.8700002 L34.9999624,27.742 L35.0012091,59.2163471 C47.5839629,51.2195523 55.1779214,38.4634392 57.7940141,20.8700002 Z M34,8.118 L11.7019624,19.232 L34,25.955 L56.2979624,19.232 L34,8.118 Z" id="Combined-Shape" fill="#4C433F" fill-rule="nonzero"></path>
        </g>
        <g id="Group-2-Copy" transform="translate(354.000000, 293.000000)">
            <path d="M33,0 C51.6666667,10 62.6666667,26.6666667 66,50 L33,65 L0,50 C3.33333333,26.6666667 14.3333333,10 33,0 Z" id="Triangle" fill="#FFFFFF" transform="translate(33.000000, 32.500000) scale(1, -1) translate(-33.000000, -32.500000) "></path>
            <path d="M32.5277786,-0.88147997 C13.5713023,9.27377516 2.38704456,26.2196203 -0.989949494,49.8585786 C-1.05275439,50.2982129 -0.818094587,50.7265975 -0.413802944,50.9103665 L32.5861971,65.9103665 C32.8491221,66.0298778 33.1508779,66.0298778 33.4138029,65.9103665 L66.4138029,50.9103665 C66.8180946,50.7265975 67.0527544,50.2982129 66.9899495,49.8585786 C63.6129554,26.2196203 52.4286977,9.27377516 33.4722214,-0.88147997 C33.1772382,-1.03950668 32.8227618,-1.03950668 32.5277786,-0.88147997 Z M33,1.137 L33.076816,1.17878524 C50.7556851,10.8551264 61.3206311,26.688452 64.8036386,48.7677263 L64.901,49.4 L33,63.901 L1.098,49.4 L1.19636141,48.7677263 C4.64308762,26.9184444 15.0249803,11.1856651 32.373035,1.48317523 L33,1.137 Z" id="Triangle" fill="#4C433F" fill-rule="nonzero" transform="translate(33.000000, 32.500000) scale(1, -1) translate(-33.000000, -32.500000) "></path>
            <path d="M33.4461117,5.10502273 L58.4461117,17.5665612 C58.827676,17.7567563 59.0466956,18.1679505 58.9916212,18.5907179 C56.4283339,38.2673001 47.928863,52.3894979 33.5065314,60.8622215 C33.193828,61.0459262 32.806172,61.0459262 32.4934686,60.8622215 C18.071137,52.3894979 9.5716661,38.2673001 7.00837877,18.5907179 C6.95330445,18.1679505 7.17232399,17.7567563 7.55388825,17.5665612 L32.5538883,5.10502273 C32.8348133,4.96499242 33.1651867,4.96499242 33.4461117,5.10502273 Z M9.20596237,19.869 L9.17436397,19.6554451 C11.7605584,37.3602364 19.3653472,50.1877603 31.9997943,58.2169848 L31.9999624,26.742 L9.20596237,19.869 Z M56.7940141,19.8700002 L33.9999624,26.742 L34.0012091,58.2163471 C46.5839629,50.2195523 54.1779214,37.4634392 56.7940141,19.8700002 Z M33,7.118 L10.7019624,18.232 L33,24.955 L55.2979624,18.232 L33,7.118 Z" id="Combined-Shape" fill="#4C433F" fill-rule="nonzero"></path>
        </g>
        <path d="M106.199418,92.2639925 C106.560065,91.9120025 107.14479,91.9120025 107.505437,92.2639925 L107.505437,92.2639925 L112.729515,97.3626658 C113.090162,97.7146558 113.090162,98.2853442 112.729515,98.6373342 L112.729515,98.6373342 L107.505437,103.736008 C107.14479,104.087997 106.560065,104.087997 106.199418,103.736008 C105.83877,103.384018 105.83877,102.813329 106.199418,102.461339 L106.199418,102.461339 L110.770485,98 L106.199418,93.5386608 C105.83877,93.1866709 105.83877,92.6159824 106.199418,92.2639925 Z M97.7349516,92.2639925 C98.0955989,91.9120025 98.6803236,91.9120025 99.0409709,92.2639925 L99.0409709,92.2639925 L104.265048,97.3626658 C104.625696,97.7146558 104.625696,98.2853442 104.265048,98.6373342 L104.265048,98.6373342 L99.0409709,103.736008 C98.6803236,104.087997 98.0955989,104.087997 97.7349516,103.736008 C97.3743043,103.384018 97.3743043,102.813329 97.7349516,102.461339 L97.7349516,102.461339 L102.306019,98 L97.7349516,93.5386608 C97.3743043,93.1866709 97.3743043,92.6159824 97.7349516,92.2639925 Z M89.2704855,92.2639925 C89.6311328,91.9120025 90.2158576,91.9120025 90.5765048,92.2639925 L90.5765048,92.2639925 L95.8005823,97.3626658 C96.1612296,97.7146558 96.1612296,98.2853442 95.8005823,98.6373342 L95.8005823,98.6373342 L90.5765048,103.736008 C90.2158576,104.087997 89.6311328,104.087997 89.2704855,103.736008 C88.9098382,103.384018 88.9098382,102.813329 89.2704855,102.461339 L89.2704855,102.461339 L93.8415533,98 L89.2704855,93.5386608 C88.9098382,93.1866709 88.9098382,92.6159824 89.2704855,92.2639925 Z" id="Combined-Shape-Copy" fill="#4C433F"></path>
        <path d="M302.199418,140.263992 C302.560065,139.912003 303.14479,139.912003 303.505437,140.263992 L303.505437,140.263992 L308.729515,145.362666 C309.090162,145.714656 309.090162,146.285344 308.729515,146.637334 L308.729515,146.637334 L303.505437,151.736008 C303.14479,152.087997 302.560065,152.087997 302.199418,151.736008 C301.83877,151.384018 301.83877,150.813329 302.199418,150.461339 L302.199418,150.461339 L306.770485,146 L302.199418,141.538661 C301.83877,141.186671 301.83877,140.615982 302.199418,140.263992 Z M293.734952,140.263992 C294.095599,139.912003 294.680324,139.912003 295.040971,140.263992 L295.040971,140.263992 L300.265048,145.362666 C300.625696,145.714656 300.625696,146.285344 300.265048,146.637334 L300.265048,146.637334 L295.040971,151.736008 C294.680324,152.087997 294.095599,152.087997 293.734952,151.736008 C293.374304,151.384018 293.374304,150.813329 293.734952,150.461339 L293.734952,150.461339 L298.306019,146 L293.734952,141.538661 C293.374304,141.186671 293.374304,140.615982 293.734952,140.263992 Z M285.270485,140.263992 C285.631133,139.912003 286.215858,139.912003 286.576505,140.263992 L286.576505,140.263992 L291.800582,145.362666 C292.16123,145.714656 292.16123,146.285344 291.800582,146.637334 L291.800582,146.637334 L286.576505,151.736008 C286.215858,152.087997 285.631133,152.087997 285.270485,151.736008 C284.909838,151.384018 284.909838,150.813329 285.270485,150.461339 L285.270485,150.461339 L289.841553,146 L285.270485,141.538661 C284.909838,141.186671 284.909838,140.615982 285.270485,140.263992 Z" id="Combined-Shape-Copy-5" fill="#4C433F"></path>
        <path d="M360.199418,35.2639925 C360.560065,34.9120025 361.14479,34.9120025 361.505437,35.2639925 L361.505437,35.2639925 L366.729515,40.3626658 C367.090162,40.7146558 367.090162,41.2853442 366.729515,41.6373342 L366.729515,41.6373342 L361.505437,46.7360075 C361.14479,47.0879975 360.560065,47.0879975 360.199418,46.7360075 C359.83877,46.3840176 359.83877,45.8133291 360.199418,45.4613392 L360.199418,45.4613392 L364.770485,41 L360.199418,36.5386608 C359.83877,36.1866709 359.83877,35.6159824 360.199418,35.2639925 Z M351.734952,35.2639925 C352.095599,34.9120025 352.680324,34.9120025 353.040971,35.2639925 L353.040971,35.2639925 L358.265048,40.3626658 C358.625696,40.7146558 358.625696,41.2853442 358.265048,41.6373342 L358.265048,41.6373342 L353.040971,46.7360075 C352.680324,47.0879975 352.095599,47.0879975 351.734952,46.7360075 C351.374304,46.3840176 351.374304,45.8133291 351.734952,45.4613392 L351.734952,45.4613392 L356.306019,41 L351.734952,36.5386608 C351.374304,36.1866709 351.374304,35.6159824 351.734952,35.2639925 Z M343.270485,35.2639925 C343.631133,34.9120025 344.215858,34.9120025 344.576505,35.2639925 L344.576505,35.2639925 L349.800582,40.3626658 C350.16123,40.7146558 350.16123,41.2853442 349.800582,41.6373342 L349.800582,41.6373342 L344.576505,46.7360075 C344.215858,47.0879975 343.631133,47.0879975 343.270485,46.7360075 C342.909838,46.3840176 342.909838,45.8133291 343.270485,45.4613392 L343.270485,45.4613392 L347.841553,41 L343.270485,36.5386608 C342.909838,36.1866709 342.909838,35.6159824 343.270485,35.2639925 Z" id="Combined-Shape-Copy-4" fill="#4C433F"></path>
        <path d="M336.199418,291.263992 C336.560065,290.912003 337.14479,290.912003 337.505437,291.263992 L337.505437,291.263992 L342.729515,296.362666 C343.090162,296.714656 343.090162,297.285344 342.729515,297.637334 L342.729515,297.637334 L337.505437,302.736008 C337.14479,303.087997 336.560065,303.087997 336.199418,302.736008 C335.83877,302.384018 335.83877,301.813329 336.199418,301.461339 L336.199418,301.461339 L340.770485,297 L336.199418,292.538661 C335.83877,292.186671 335.83877,291.615982 336.199418,291.263992 Z M327.734952,291.263992 C328.095599,290.912003 328.680324,290.912003 329.040971,291.263992 L329.040971,291.263992 L334.265048,296.362666 C334.625696,296.714656 334.625696,297.285344 334.265048,297.637334 L334.265048,297.637334 L329.040971,302.736008 C328.680324,303.087997 328.095599,303.087997 327.734952,302.736008 C327.374304,302.384018 327.374304,301.813329 327.734952,301.461339 L327.734952,301.461339 L332.306019,297 L327.734952,292.538661 C327.374304,292.186671 327.374304,291.615982 327.734952,291.263992 Z M319.270485,291.263992 C319.631133,290.912003 320.215858,290.912003 320.576505,291.263992 L320.576505,291.263992 L325.800582,296.362666 C326.16123,296.714656 326.16123,297.285344 325.800582,297.637334 L325.800582,297.637334 L320.576505,302.736008 C320.215858,303.087997 319.631133,303.087997 319.270485,302.736008 C318.909838,302.384018 318.909838,301.813329 319.270485,301.461339 L319.270485,301.461339 L323.841553,297 L319.270485,292.538661 C318.909838,292.186671 318.909838,291.615982 319.270485,291.263992 Z" id="Combined-Shape-Copy-2" fill="#4C433F"></path>
        <path d="M437.199418,243.263992 C437.560065,242.912003 438.14479,242.912003 438.505437,243.263992 L438.505437,243.263992 L443.729515,248.362666 C444.090162,248.714656 444.090162,249.285344 443.729515,249.637334 L443.729515,249.637334 L438.505437,254.736008 C438.14479,255.087997 437.560065,255.087997 437.199418,254.736008 C436.83877,254.384018 436.83877,253.813329 437.199418,253.461339 L437.199418,253.461339 L441.770485,249 L437.199418,244.538661 C436.83877,244.186671 436.83877,243.615982 437.199418,243.263992 Z M428.734952,243.263992 C429.095599,242.912003 429.680324,242.912003 430.040971,243.263992 L430.040971,243.263992 L435.265048,248.362666 C435.625696,248.714656 435.625696,249.285344 435.265048,249.637334 L435.265048,249.637334 L430.040971,254.736008 C429.680324,255.087997 429.095599,255.087997 428.734952,254.736008 C428.374304,254.384018 428.374304,253.813329 428.734952,253.461339 L428.734952,253.461339 L433.306019,249 L428.734952,244.538661 C428.374304,244.186671 428.374304,243.615982 428.734952,243.263992 Z M420.270485,243.263992 C420.631133,242.912003 421.215858,242.912003 421.576505,243.263992 L421.576505,243.263992 L426.800582,248.362666 C427.16123,248.714656 427.16123,249.285344 426.800582,249.637334 L426.800582,249.637334 L421.576505,254.736008 C421.215858,255.087997 420.631133,255.087997 420.270485,254.736008 C419.909838,254.384018 419.909838,253.813329 420.270485,253.461339 L420.270485,253.461339 L424.841553,249 L420.270485,244.538661 C419.909838,244.186671 419.909838,243.615982 420.270485,243.263992 Z" id="Combined-Shape-Copy-6" fill="#4C433F"></path>
        <path d="M63.1994177,324.263992 C63.5600649,323.912003 64.1447897,323.912003 64.505437,324.263992 L64.505437,324.263992 L69.7295145,329.362666 C70.0901618,329.714656 70.0901618,330.285344 69.7295145,330.637334 L69.7295145,330.637334 L64.505437,335.736008 C64.1447897,336.087997 63.5600649,336.087997 63.1994177,335.736008 C62.8387704,335.384018 62.8387704,334.813329 63.1994177,334.461339 L63.1994177,334.461339 L67.7704855,330 L63.1994177,325.538661 C62.8387704,325.186671 62.8387704,324.615982 63.1994177,324.263992 Z M54.7349516,324.263992 C55.0955989,323.912003 55.6803236,323.912003 56.0409709,324.263992 L56.0409709,324.263992 L61.2650484,329.362666 C61.6256957,329.714656 61.6256957,330.285344 61.2650484,330.637334 L61.2650484,330.637334 L56.0409709,335.736008 C55.6803236,336.087997 55.0955989,336.087997 54.7349516,335.736008 C54.3743043,335.384018 54.3743043,334.813329 54.7349516,334.461339 L54.7349516,334.461339 L59.3060194,330 L54.7349516,325.538661 C54.3743043,325.186671 54.3743043,324.615982 54.7349516,324.263992 Z M46.2704855,324.263992 C46.6311328,323.912003 47.2158576,323.912003 47.5765048,324.263992 L47.5765048,324.263992 L52.8005823,329.362666 C53.1612296,329.714656 53.1612296,330.285344 52.8005823,330.637334 L52.8005823,330.637334 L47.5765048,335.736008 C47.2158576,336.087997 46.6311328,336.087997 46.2704855,335.736008 C45.9098382,335.384018 45.9098382,334.813329 46.2704855,334.461339 L46.2704855,334.461339 L50.8415533,330 L46.2704855,325.538661 C45.9098382,325.186671 45.9098382,324.615982 46.2704855,324.263992 Z" id="Combined-Shape-Copy-3" fill="#4C433F"></path>
        <path d="M207.998679,144 C208.550963,143.999271 208.99927,144.446395 209,144.998679 C209.000677,145.511515 208.615195,145.934695 208.117933,145.993117 L208.001321,146 L160.683485,146.0625 C160.131201,146.063229 159.682895,145.616105 159.682165,145.063821 C159.681488,144.550985 160.06697,144.127805 160.564232,144.069383 L160.680844,144.062501 L207.998679,144 Z" id="Line-3-Copy-39" fill="#4C433F" fill-rule="nonzero"></path>
        <path d="M319.045634,72.9375 C319.597919,72.9370255 320.046494,73.3843555 320.046494,73.9366401 C320.046494,74.4494757 319.661258,74.8724789 319.163969,74.9306716 L319.047354,74.9375 L173.683025,75.0625 C173.13074,75.0629745 172.682165,74.6156445 172.682165,74.0633599 C172.682165,73.5505243 173.067401,73.1275211 173.564689,73.0693284 L173.681305,73.0625004 L319.045634,72.9375 Z" id="Line-3-Copy-45" fill="#4C433F" fill-rule="nonzero"></path>
        <path d="M196.04547,261.9375 C196.597755,261.936935 197.046494,262.384192 197.046494,262.936476 C197.046494,263.449312 196.661411,263.872378 196.164132,263.930652 L196.047518,263.9375 L135.001024,264 C134.448739,264.000565 134,263.553308 134,263.001024 C134,262.488188 134.385083,262.065122 134.882362,262.006848 L134.998976,262.000001 L196.04547,261.9375 Z" id="Line-3-Copy-43" fill="#4C433F" fill-rule="nonzero"></path>
        <path d="M103.999514,302 C104.551799,301.999732 105,302.44723 105,302.999514 C105,303.51235 104.614414,303.935209 104.117104,303.993216 L104.000486,304 L39.6594034,304.03125 C39.1071187,304.031518 38.6589177,303.58402 38.6589177,303.031736 C38.6589177,302.5189 39.0445036,302.096041 39.5418141,302.038034 L39.658432,302.03125 L103.999514,302 Z" id="Line-3-Copy-48" fill="#4C433F" fill-rule="nonzero"></path>
        <path d="M183.975934,330.96875 C184.528219,330.968298 184.976753,331.415646 184.976753,331.967931 C184.976753,332.480767 184.591479,332.903754 184.094188,332.961926 L183.977572,332.96875 L107.659737,333.03125 C107.107452,333.031702 106.658918,332.584354 106.658918,332.032069 C106.658918,331.519233 107.044192,331.096246 107.541483,331.038074 L107.658099,331.03125 L183.975934,330.96875 Z" id="Line-3-Copy-49" fill="#4C433F" fill-rule="nonzero"></path>
        <path d="M78.8455456,338.40626 L288.892039,339.34376 C289.444319,339.346225 289.890031,339.795934 289.887576,340.348213 C289.885277,340.861044 289.497355,341.281988 288.999763,341.337533 L288.883113,341.34374 L78.8366191,340.40624 C78.2843398,340.403775 77.8386273,339.954066 77.8410821,339.401787 C77.8433812,338.888956 78.231304,338.468012 78.7288956,338.412467 L78.8455456,338.40626 Z" id="Line-3-Copy-44" fill="#4C433F" fill-rule="nonzero"></path>
        <path d="M237.975945,135.96875 C238.528229,135.968304 238.976753,136.415657 238.976753,136.967942 C238.976753,137.480777 238.591469,137.903761 238.094177,137.961928 L237.977561,137.96875 L160.659726,138.03125 C160.107441,138.031696 159.658918,137.584343 159.658918,137.032058 C159.658918,136.519223 160.044202,136.096239 160.541494,136.038072 L160.658109,136.03125 L237.975945,135.96875 Z" id="Line-3-Copy-40" fill="#4C433F" fill-rule="nonzero"></path>
        <path d="M248.976104,65.96875 C249.528389,65.9683918 249.976753,66.4158165 249.976753,66.9681011 C249.976753,67.4809368 249.59132,67.9038586 249.094019,67.9619464 L248.977402,67.96875 L152.659567,68.03125 C152.107282,68.0316082 151.658918,67.5841835 151.658918,67.0318989 C151.658918,66.5190632 152.044351,66.0961414 152.541652,66.0380536 L152.658269,66.0312502 L248.976104,65.96875 Z" id="Line-3-Copy-41" fill="#4C433F" fill-rule="nonzero"></path>
        <path d="M449.999225,210 C450.55151,209.999572 450.999572,210.446941 451,210.999225 C451,211.512061 450.614684,211.935031 450.117391,211.993182 L450.000775,212 L409.659692,212.03125 C409.107408,212.031678 408.659346,211.584309 408.658918,211.032025 C408.658918,210.519189 409.044233,210.096219 409.541527,210.038068 L409.658143,210.03125 L449.999225,210 Z" id="Line-3-Copy-46" fill="#4C433F" fill-rule="nonzero"></path>
        <path d="M369.999749,262 C370.552034,261.999862 371,262.447465 371,262.999749 C371,263.512585 370.614194,263.935353 370.11687,263.993243 L370.000251,264 L307.670792,264.015625 C307.118507,264.015763 306.670541,263.56816 306.670541,263.015876 C306.670541,262.50304 307.056347,262.080272 307.553671,262.022382 L307.67029,262.015625 L369.999749,262 Z" id="Line-3-Copy-50" fill="#4C433F" fill-rule="nonzero"></path>
        <path d="M441.99993,277 C442.552215,276.999961 443,277.447645 443,277.99993 C443,278.512766 442.614025,278.935464 442.116691,278.993264 L442.00007,279 L330.6648,279.007812 C330.112515,279.007851 329.664729,278.560167 329.664729,278.007883 C329.664729,277.495047 330.050704,277.072348 330.548039,277.014548 L330.664659,277.007813 L441.99993,277 Z" id="Line-3-Copy-51" fill="#4C433F" fill-rule="nonzero"></path>
        <path d="M429.999231,218.992187 C430.551516,218.991763 430.999575,219.439134 431,219.991419 C431.000394,220.504255 430.614679,220.927223 430.117385,220.98537 L430.000769,220.992187 L409.67131,221.007813 C409.119025,221.008237 408.670966,220.560866 408.670541,220.008581 C408.670147,219.495745 409.055863,219.072777 409.553157,219.01463 L409.669773,219.007813 L429.999231,218.992187 Z" id="Line-3-Copy-47" fill="#4C433F" fill-rule="nonzero"></path>
        <path d="M170.993991,41.9921875 C171.546276,41.9920787 171.994188,42.4397058 171.994188,42.9919905 C171.994188,43.5048264 171.608332,43.9275737 171.111005,43.9854368 L170.994385,43.9921875 L91.6649264,44.0078125 C91.1126416,44.0079213 90.6647294,43.5602942 90.6647294,43.0080095 C90.6647294,42.4951736 91.0505854,42.0724263 91.5479127,42.0145632 L91.6645325,42.0078125 L170.993991,41.9921875 Z" id="Line-3-Copy-42" fill="#4C433F" fill-rule="nonzero"></path>
        <rect id="Rectangle" fill="#FFFFFF" x="200" y="31" width="8" height="8"></rect>
        <rect id="Rectangle-Copy-28" fill="#FFFFFF" x="442" y="59" width="8" height="8"></rect>
        <rect id="Rectangle-Copy-42" fill="#FFFFFF" x="54" y="309" width="8" height="8"></rect>
        <rect id="Rectangle-Copy-29" fill="#FFFFFF" x="163" y="304" width="8" height="8"></rect>
        <rect id="Rectangle-Copy-30" fill="#FFFFFF" x="33" y="207" width="8" height="8"></rect>
        <rect id="Rectangle-Copy-31" fill="#FFFFFF" x="450" y="170" width="8" height="8"></rect>
        <rect id="Rectangle-Copy-32" fill="#FFFFFF" x="309" y="334" width="8" height="8"></rect>
        <rect id="Rectangle-Copy-33" fill="#FFFFFF" x="159" y="85" width="8" height="8"></rect>
        <rect id="Rectangle-Copy-34" fill="#FFFFFF" x="305" y="110" width="8" height="8"></rect>
        <rect id="Rectangle-Copy-35" fill="#FFFFFF" x="58" y="59" width="8" height="8"></rect>
        <rect id="Rectangle-Copy-36" fill="#FFFFFF" x="113" y="63" width="8" height="8"></rect>
        <rect id="Rectangle-Copy-37" fill="#FFFFFF" x="268" y="61" width="8" height="8"></rect>
        <rect id="Rectangle-Copy-38" fill="#FFFFFF" x="334" y="243" width="8" height="8"></rect>
        <rect id="Rectangle-Copy-39" fill="#FFFFFF" x="180" y="274" width="8" height="8"></rect>
        <rect id="Rectangle-Copy-40" fill="#FFFFFF" x="79" y="274" width="8" height="8"></rect>
        <rect id="Rectangle-Copy-41" fill="#FFFFFF" x="58" y="147" width="8" height="8"></rect>
        <g id="Group-3" transform="translate(70.000000, 160.000000)">
            <rect id="Rectangle" fill="#FFFFFF" x="0" y="0" width="340" height="80" rx="1"></rect>
            <path d="M339,-2 L1,-2 C-0.656854249,-2 -2,-0.656854249 -2,1 L-2,79 C-2,80.6568542 -0.656854249,82 1,82 L339,82 C340.656854,82 342,80.6568542 342,79 L342,1 C342,-0.656854249 340.656854,-2 339,-2 Z M338,2 L338,78 L2,78 L2,2 L338,2 Z" id="Rectangle" fill="#4C433F" fill-rule="nonzero"></path>
            <rect id="Rectangle-Copy-6" fill="#F5F2E9" x="2" y="40" width="336" height="38"></rect>
            <rect id="Rectangle-Copy-17" fill="#ECE8E6" x="14" y="14" width="95" height="30"></rect>
            <rect id="Rectangle-Copy-19" fill="#C8BDB8" x="126" y="24" width="20" height="20"></rect>
            <rect id="Rectangle-Copy-20" fill="#C8BDB8" x="156" y="24" width="20" height="20"></rect>
            <rect id="Rectangle-Copy-21" fill="#C8BDB8" x="186" y="24" width="20" height="20"></rect>
            <rect id="Rectangle-Copy-22" fill="#C8BDB8" x="216" y="24" width="20" height="20"></rect>
            <rect id="Rectangle-Copy-23" fill="#C8BDB8" x="246" y="24" width="20" height="20"></rect>
            <rect id="Rectangle-Copy-24" fill="#C8BDB8" x="276" y="24" width="20" height="20"></rect>
            <rect id="Rectangle-Copy-25" fill="#C8BDB8" x="306" y="24" width="20" height="20"></rect>
            <rect id="Rectangle-Copy-18" fill="#C8BDB8" x="14" y="54" width="95" height="12"></rect>
            <rect id="Rectangle-Copy-26" fill="#C8BDB8" x="226" y="54" width="70" height="12"></rect>
            <rect id="Rectangle-Copy-27" fill="#C8BDB8" x="302" y="54" width="24" height="12"></rect>
        </g>
    </g>
</svg>