<?xml version="1.0" encoding="UTF-8"?>
<svg width="560px" height="122px" viewBox="0 0 560 122" version="1.1" xmlns="http://www.w3.org/2000/svg" xmlns:xlink="http://www.w3.org/1999/xlink">
    <!-- Generator: Sketch 63.1 (92452) - https://sketch.com -->
    <title>logo</title>
    <desc>Created with Sketch.</desc>
    <g id="頁面設計稿" stroke="none" stroke-width="1" fill="none" fill-rule="evenodd">
        <g id="1440up_ThreatVision" transform="translate(-901.000000, -268.000000)">
            <g id="hero" transform="translate(-578.000000, -663.000000)">
                <g id="logo" transform="translate(1479.000000, 931.000000)">
                    <path d="M121.701677,61.1160523 C121.701677,94.7229721 94.4582646,121.966384 60.8513448,121.966384 C27.244425,121.966384 -0.000253273945,94.7229721 -0.000253273945,61.1160523 C-0.000253273945,27.5091325 27.244425,0.264454181 60.8513448,0.264454181 C94.4582646,0.264454181 121.701677,27.5091325 121.701677,61.1160523" id="Fill-23" fill="#F5AB1A"></path>
                    <path d="M479.62487,31.8199817 C498.609019,31.8199817 514.05493,47.2646269 514.05493,66.2500418 C514.05493,85.2354567 498.609019,100.680102 479.62487,100.680102 C460.641988,100.680102 445.196077,85.2354567 445.196077,66.2500418 C445.196077,47.2646269 460.641988,31.8199817 479.62487,31.8199817 Z M71.7856876,23.7659968 C73.0403054,24.4905629 73.508307,26.0752717 72.8759797,27.3582653 L72.7911852,27.516984 L69.2111579,33.7145974 L88.0357439,33.7145974 C95.469924,33.7145974 101.572407,39.7152422 101.738203,47.1115425 L101.741663,47.420517 L101.741663,82.2608809 C101.741663,89.695061 95.7410187,95.7975439 88.3447184,95.9633402 L88.0357439,95.9668004 L33.6666925,95.9668004 C26.2312633,95.9668004 20.1299952,89.9661556 19.9642325,82.5698554 L19.9607729,82.2608809 L19.9607729,47.420517 C19.9607729,39.9863369 25.9601858,33.8838539 33.3576673,33.7180577 L33.6666925,33.7145974 L52.4900121,33.7145974 L48.9112512,27.516984 C48.1564949,26.208824 48.6085889,24.5207532 49.9167488,23.7659968 C51.1725823,23.040215 52.7785418,23.4278336 53.5738897,24.6185009 L53.6690023,24.7714944 L58.6546999,33.4068696 C58.692691,33.4727208 58.7222396,33.5413862 58.750475,33.6106144 L58.7927342,33.7145974 L62.9084358,33.7145974 C62.9379844,33.6453692 62.9641561,33.5755782 62.9955808,33.5074756 L63.0477365,33.4068696 L68.0334341,24.7714944 C68.7881905,23.4620681 70.4762613,23.0099741 71.7856876,23.7659968 Z M479.62487,37.4641915 C463.753458,37.4641915 450.840286,50.3773636 450.840286,66.2500418 C450.840286,82.1227199 463.753458,95.0358921 479.62487,95.0358921 C495.497548,95.0358921 508.410721,82.1227199 508.410721,66.2500418 C508.410721,50.3773636 495.497548,37.4641915 479.62487,37.4641915 Z M289.427281,45.9303797 C292.810471,45.9303797 295.967724,46.9036411 298.646357,48.5753133 L299.008635,48.8075717 L299.008635,45.9303797 L306.910782,45.9303797 L306.910782,88.8261215 L299.008635,88.8261215 L299.008635,87.0924613 C296.374035,88.8270575 293.249329,89.8757361 289.887201,89.9636465 L289.427281,89.9696533 L288.272352,89.9696533 C279.117886,89.9696533 271.605356,82.8925138 270.868255,73.9254818 L270.844572,73.6005582 L270.844572,62.2994748 C271.417665,53.2876562 278.828036,46.1032331 287.942192,45.9334526 L288.272352,45.9303797 L289.427281,45.9303797 Z M251.046021,45.9302531 C260.577338,45.9302531 268.351048,53.5968897 268.526492,63.0870588 L268.529522,63.4150199 L268.529522,71.8933652 L242.566409,71.8933652 L242.566409,72.4847599 C242.566409,76.4424439 245.721288,79.6764761 249.649635,79.8042543 L249.891092,79.808176 L251.046021,79.808176 C254.524883,79.808176 258.198467,77.8766659 258.363652,76.0017255 L258.369437,75.8710325 L268.529522,75.8710325 C268.529522,84.4736804 259.670833,89.8391432 251.350178,89.9671827 L251.046021,89.9695267 L249.891092,89.9695267 C240.736626,89.9695267 233.224096,82.8923872 232.486994,73.9253551 L232.463312,73.6004316 L232.407591,63.4150199 C232.407591,53.8837025 240.07299,46.1087554 249.563131,45.9332829 L249.891092,45.9302531 L251.046021,45.9302531 Z M88.0357439,39.7589801 L33.6666925,39.7589801 C29.5233255,39.7589801 26.1376364,43.0649891 26.0089499,47.1776822 L26.0051556,47.420517 L26.0051556,82.2608809 C26.0051556,86.4042478 29.3111646,89.7899369 33.4238577,89.9186234 L33.6666925,89.9224177 L88.0357439,89.9224177 C92.1791109,89.9224177 95.5648,86.6164088 95.6934865,82.5037156 L95.6972808,82.2608809 L95.6972808,47.420517 C95.6972808,43.1959076 92.2603533,39.7589801 88.0357439,39.7589801 Z M341.905896,33.513118 L354.887452,73.2707956 L367.869008,33.513118 L378.027826,33.513118 L359.966861,88.8268813 L349.806777,88.8268813 L331.745812,33.513118 L341.905896,33.513118 Z M164.67568,33.513118 L164.67568,88.8268813 L154.515596,88.8268813 L154.515596,43.6719359 L139.840903,43.6719359 L139.840903,33.513118 L164.67568,33.513118 Z M387.059575,45.9311395 L387.059575,88.8268813 L376.899491,88.8268813 L376.899491,45.9311395 L387.059575,45.9311395 Z M441.243737,45.9311395 L441.243737,88.8268813 L431.084919,88.8268813 L431.084919,45.9311395 L441.243737,45.9311395 Z M529.358755,45.930633 L529.358755,45.9318994 L549.551021,72.1077616 L549.551021,45.930633 L559.836475,45.930633 L559.836475,88.8263747 L549.551021,88.8263747 L529.358755,62.6619098 L529.358755,88.8263747 L519.0733,88.8263747 L519.0733,45.930633 L529.358755,45.930633 Z M218.860095,45.930633 L218.860095,49.920964 C222.676224,47.8238557 226.976694,46.5647154 230.749781,46.4673396 L231.218597,46.4612419 L231.278116,57.2190527 C226.369453,57.2190527 219.111082,60.8745605 218.866446,63.7955981 L218.860095,63.9460087 L218.860095,88.8263747 L208.701277,88.8263747 L208.701277,45.930633 L218.860095,45.930633 Z M424.208911,45.9305063 L424.208911,54.8584129 L402.266523,54.8584129 C399.98959,54.8584129 398.134358,56.509759 397.920342,58.6043346 C398.127455,60.6325687 399.871605,62.2433356 402.047532,62.3451455 L402.266523,62.3502562 L416.130738,62.3502562 C422.794953,62.3502562 428.234688,68.6460004 428.393239,75.1276006 L428.396796,75.4179254 L428.396796,76.8881807 C428.396796,83.3722815 423.059895,88.663717 416.437295,88.822575 L416.130738,88.8262481 L391.494782,88.8262481 L391.494782,79.8983415 L416.130738,79.8983415 C418.478364,79.8983415 420.401292,78.1494433 420.512375,75.9600574 L420.517443,75.7598453 L420.517443,75.4179254 C420.517443,73.2030448 418.663563,71.389003 416.34295,71.2842107 L416.130738,71.2794292 L402.266523,71.2794292 C395.604075,71.2794292 390.166228,66.0837811 390.002974,59.6384454 L389.999199,59.3400954 L389.999199,57.8698401 C389.999199,51.3869865 395.3361,46.0931133 401.959909,45.9341812 L402.266523,45.9305063 L424.208911,45.9305063 Z M179.351006,33.5133713 L179.351006,48.6895461 C181.44289,47.719586 183.749587,47.135844 186.185534,47.0666651 L186.674422,47.0597282 L187.830617,47.0597282 C197.360683,47.0597282 205.135615,54.7251271 205.311088,64.2164918 L205.314118,64.544495 L205.314118,88.8258682 L195.1553,88.8258682 L195.1553,64.544495 C195.1553,60.58557 191.999205,57.3502968 188.072001,57.2224694 L187.830617,57.2185462 L186.674422,57.2185462 C182.716738,57.2185462 179.482705,60.3746409 179.354927,64.3030363 L179.351006,64.544495 L179.351006,88.8258682 L169.190921,88.8258682 L169.190921,33.5133713 L179.351006,33.5133713 Z M320.456759,39.1575811 L320.456759,46.843179 L328.358906,46.843179 L328.358906,54.5553706 L320.456759,54.5553706 L320.456759,77.7210721 C320.456759,78.2884057 320.896915,78.7564559 321.463198,78.8163412 L321.586361,78.8228137 L328.358906,78.8228137 L328.358906,88.7384887 C327.471181,88.7384887 322.698233,88.8258682 321.978935,88.8258682 C318.756024,88.8258682 315.592633,88.4712847 313.159937,86.1563608 C311.305127,84.3905724 310.368621,81.9413404 310.301795,78.6774909 L310.297941,78.2972703 L310.297941,39.1575811 L320.456759,39.1575811 Z M479.62487,44.8684021 C488.827579,44.8684021 496.666408,50.7215629 499.675302,58.890914 C503.055243,59.3746673 505.656366,62.2721212 505.656366,65.7862972 C505.656366,69.1725699 503.238867,71.9940416 500.036218,72.6234274 C497.318588,81.3094573 489.197359,87.6324414 479.62487,87.6324414 C467.834968,87.6324414 458.243484,78.0396907 458.243484,66.2497885 C458.243484,54.4598864 467.834968,44.8684021 479.62487,44.8684021 Z M60.8509649,46.0836104 C74.1009914,46.0836104 85.5147817,56.2246992 90.6777711,61.6574253 C92.4291604,63.4999933 92.4291604,66.506355 90.6777711,68.348923 C85.5147817,73.7816491 74.1009914,83.9227379 60.8509649,83.9227379 C47.6009385,83.9227379 36.1871481,73.7816491 31.0241587,68.348923 C29.2727694,66.506355 29.2727694,63.4999933 31.0241587,61.6574253 C36.1871481,56.2246992 47.6009385,46.0836104 60.8509649,46.0836104 Z M479.62487,48.5864636 C469.886487,48.5864636 461.962812,56.510139 461.962812,66.2497885 C461.962812,75.9894381 469.886487,83.9131135 479.62487,83.9131135 C487.239551,83.9131135 493.724631,79.061651 496.200384,72.2941712 C493.577732,71.2924728 491.711103,68.7597333 491.711103,65.7862972 C491.711103,62.9243016 493.435899,60.4675443 495.902787,59.3936628 C493.219349,53.0491505 486.934356,48.5864636 479.62487,48.5864636 Z M289.427281,56.090464 L288.272352,56.090464 C284.313427,56.090464 281.07937,59.2453426 280.951591,63.1736893 L280.94767,63.4151465 L280.94767,72.4848865 C280.94767,76.4413295 284.102548,79.6765531 288.030895,79.8043794 L288.272352,79.8083026 L289.427281,79.8083026 C293.384965,79.8083026 296.620214,76.6522079 296.748041,72.7261963 L296.751964,72.4848865 L296.751964,63.4151465 C296.751964,59.3754271 293.465734,56.090464 289.427281,56.090464 Z M71.5910466,53.8831816 C74.5036969,56.6957888 76.3222039,60.6341986 76.3222039,65.0044405 C76.3222039,69.3734161 74.5036969,73.3118259 71.5910466,76.1256995 C78.3369981,73.0281591 83.8811648,67.8892308 86.6583136,65.0044405 C83.8811648,62.1171176 78.3369981,56.9807219 71.5910466,53.8831816 Z M50.1108833,53.8831816 C43.3649317,56.9807219 37.8207651,62.1171176 35.0436163,65.0044405 C37.8207651,67.8904971 43.3649317,73.0281591 50.1108833,76.1256995 C47.1982329,73.3118259 45.379726,69.3734161 45.379726,65.0044405 C45.379726,60.635465 47.1982329,56.6957888 50.1108833,53.8831816 Z M60.8509649,55.5763179 C55.6537836,55.5763179 51.4241087,59.8047264 51.4241087,65.0044405 C51.4241087,70.2016219 55.6537836,74.4300304 60.8509649,74.4300304 C66.0494126,74.4300304 70.2778212,70.2016219 70.2778212,65.0044405 C70.2778212,59.8047264 66.0494126,55.5763179 60.8509649,55.5763179 Z M60.8510916,60.6262205 C63.2685914,60.6262205 65.2289317,62.5865608 65.2289317,65.0040606 C65.2289317,67.4202941 63.2685914,69.3806344 60.8510916,69.3806344 C58.4335917,69.3806344 56.4732514,67.4202941 56.4732514,65.0040606 C56.4732514,62.5865608 58.4335917,60.6262205 60.8510916,60.6262205 Z M251.046021,56.0903374 L249.891092,56.0903374 C245.932167,56.0903374 242.69811,59.2452159 242.570331,63.1735627 L242.566409,63.4150199 L242.566409,63.9924845 L258.369437,63.9924845 L258.369437,63.4150199 C258.369437,59.3753005 255.08574,56.0903374 251.046021,56.0903374 Z" id="Combined-Shape" fill="#FEFEFE"></path>
                </g>
            </g>
        </g>
    </g>
</svg>